<?xml version="1.0" standalone="no"?><!DOCTYPE svg PUBLIC "-//W3C//DTD SVG 1.1//EN" "http://www.w3.org/Graphics/SVG/1.1/DTD/svg11.dtd"><svg width="100%" height="100%" viewBox="0 0 1384 802" version="1.1" xmlns="http://www.w3.org/2000/svg" xmlns:xlink="http://www.w3.org/1999/xlink" xml:space="preserve" style="fill-rule:evenodd;clip-rule:evenodd;stroke-linejoin:round;stroke-miterlimit:1.41421;"><g id="MacBook Pro"><g id="Macbook Pro"><rect id="Rectangle" x="167.018" y="42" width="1056" height="665.038" style="fill:#252525;"/><path d="M1265.02,44.881c0,-24.787 -20.019,-44.881 -44.7,-44.881l-1050.59,0c-24.687,0 -44.706,20.094 -44.706,44.881l0,703.119l1140,0l0,-703.119l0.004,0ZM171.018,44l0,660l1048,0l0,-660l-1048,0Z" style="fill:#000;"/><path id="Shape" d="M0.018,788c4.004,8.092 16.436,14 31.182,14l1321.64,0c14.739,0 27.177,-5.904 31.182,-14l-1384,0Z" style="fill:#a9a9a9;"/><path id="Shape1" d="M1384.02,789l-1384.02,0l0,-40.831c0,-0.637 0.519,-1.169 1.155,-1.169l1381.71,0c0.63,0 1.152,0.532 1.152,1.169l0,40.831Z" style="fill:#ccc;"/><path id="Shape2" d="M603.325,747c-0.17,1.047 -0.307,2.11 -0.307,3.201c0,10.377 8.028,18.799 17.928,18.799l148.15,0c9.903,0 17.922,-8.422 17.922,-18.799c0,-1.091 -0.131,-2.154 -0.307,-3.201l-183.386,0Z" style="fill:#aaa;"/></g></g></svg>