<svg xmlns="http://www.w3.org/2000/svg" fill-rule="evenodd" stroke-linejoin="round" stroke-miterlimit="1.41" clip-rule="evenodd" viewBox="0 0 1280 722" width="1280" height="722"><path fill="#fff" fill-rule="nonzero" d="M471.26 388.38h-8.69l33.66-77.88h7.7l33.44 77.88h-8.8l-8.58-20.46h-40.26l-8.47 20.46zm11.44-27.72h34.32l-17.16-41.36-17.16 41.36zm71.17 19.03v8.69h-7.48v-83.16h7.48v40.59h.22c2.2-3.373 5.06-5.922 8.58-7.645 3.52-1.723 7.15-2.585 10.89-2.585 4.033 0 7.682.697 10.945 2.09 3.263 1.393 6.05 3.3 8.36 5.72 2.31 2.42 4.107 5.28 5.39 8.58 1.283 3.3 1.925 6.857 1.925 10.67 0 3.813-.642 7.37-1.925 10.67s-3.08 6.16-5.39 8.58c-2.31 2.42-5.097 4.327-8.36 5.72-3.263 1.393-6.912 2.09-10.945 2.09-3.74 0-7.37-.843-10.89-2.53-3.52-1.687-6.38-4.18-8.58-7.48h-.22zm38.39-17.05c0-2.86-.44-5.555-1.32-8.085-.88-2.53-2.145-4.73-3.795-6.6-1.65-1.87-3.685-3.355-6.105-4.455-2.42-1.1-5.17-1.65-8.25-1.65-2.86 0-5.5.532-7.92 1.595s-4.51 2.53-6.27 4.4c-1.76 1.87-3.135 4.07-4.125 6.6-.99 2.53-1.485 5.262-1.485 8.195 0 2.933.495 5.665 1.485 8.195.99 2.53 2.365 4.712 4.125 6.545 1.76 1.833 3.85 3.282 6.27 4.345 2.42 1.063 5.06 1.595 7.92 1.595 3.08 0 5.83-.532 8.25-1.595s4.455-2.53 6.105-4.4c1.65-1.87 2.915-4.07 3.795-6.6.88-2.53 1.32-5.225 1.32-8.085zm10.01 45.1c.733.22 1.522.385 2.365.495.843.11 1.632.165 2.365.165 1.54 0 2.787-.275 3.74-.825a5.66 5.66 0 0 0 2.2-2.255c.513-.953.862-2.108 1.045-3.465.183-1.357.275-2.842.275-4.455v-60.5h7.48v61.71c0 2.053-.22 4.052-.66 5.995-.44 1.943-1.21 3.667-2.31 5.17-1.1 1.503-2.585 2.713-4.455 3.63-1.87.917-4.272 1.375-7.205 1.375-.807 0-1.76-.055-2.86-.165-1.1-.11-2.127-.312-3.08-.605l1.1-6.27zm21.01-90.64c0 1.54-.55 2.805-1.65 3.795-1.1.99-2.31 1.485-3.63 1.485-1.32 0-2.53-.495-3.63-1.485-1.1-.99-1.65-2.255-1.65-3.795s.55-2.805 1.65-3.795c1.1-.99 2.31-1.485 3.63-1.485 1.32 0 2.53.495 3.63 1.485 1.1.99 1.65 2.255 1.65 3.795zm48.62 38.06c0-4.473-1.173-7.81-3.52-10.01s-5.757-3.3-10.23-3.3c-3.08 0-5.94.55-8.58 1.65-2.64 1.1-4.877 2.567-6.71 4.4l-4.18-4.95c2.127-2.127 4.932-3.887 8.415-5.28 3.483-1.393 7.425-2.09 11.825-2.09 2.787 0 5.39.385 7.81 1.155s4.547 1.925 6.38 3.465c1.833 1.54 3.263 3.483 4.29 5.83 1.027 2.347 1.54 5.097 1.54 8.25v22.55c0 1.98.073 4.033.22 6.16.147 2.127.367 3.923.66 5.39h-6.71a55.167 55.167 0 0 1-.55-4.07 43.026 43.026 0 0 1-.22-4.29h-.22c-2.347 3.447-5.005 5.922-7.975 7.425-2.97 1.503-6.545 2.255-10.725 2.255-1.98 0-4.015-.275-6.105-.825a17.083 17.083 0 0 1-5.72-2.695c-1.723-1.247-3.153-2.86-4.29-4.84s-1.705-4.4-1.705-7.26c0-3.96 1.008-7.095 3.025-9.405 2.017-2.31 4.712-4.033 8.085-5.17 3.373-1.137 7.242-1.87 11.605-2.2a180.23 180.23 0 0 1 13.585-.495v-1.65zm-2.2 7.48c-3.08 0-6.178.128-9.295.385s-5.94.77-8.47 1.54c-2.53.77-4.602 1.888-6.215 3.355-1.613 1.467-2.42 3.41-2.42 5.83 0 1.833.348 3.373 1.045 4.62a8.55 8.55 0 0 0 2.805 3.025c1.173.77 2.475 1.32 3.905 1.65 1.43.33 2.878.495 4.345.495 2.64 0 4.987-.458 7.04-1.375s3.777-2.163 5.17-3.74c1.393-1.577 2.457-3.392 3.19-5.445.733-2.053 1.1-4.217 1.1-6.49v-3.85h-2.2zm33.77 52.14h-7.48V336.9h7.48v8.91h.33c2.127-3.373 4.968-5.922 8.525-7.645 3.557-1.723 7.168-2.585 10.835-2.585 4.033 0 7.682.697 10.945 2.09 3.263 1.393 6.05 3.3 8.36 5.72 2.31 2.42 4.107 5.28 5.39 8.58 1.283 3.3 1.925 6.857 1.925 10.67 0 3.813-.642 7.37-1.925 10.67s-3.08 6.16-5.39 8.58c-2.31 2.42-5.097 4.327-8.36 5.72-3.263 1.393-6.912 2.09-10.945 2.09-3.667 0-7.278-.862-10.835-2.585-3.557-1.723-6.398-4.198-8.525-7.425h-.33v35.09zm38.39-52.14c0-2.86-.44-5.555-1.32-8.085-.88-2.53-2.145-4.73-3.795-6.6-1.65-1.87-3.685-3.355-6.105-4.455-2.42-1.1-5.17-1.65-8.25-1.65-2.86 0-5.5.532-7.92 1.595s-4.51 2.53-6.27 4.4c-1.76 1.87-3.135 4.07-4.125 6.6-.99 2.53-1.485 5.262-1.485 8.195 0 2.933.495 5.665 1.485 8.195.99 2.53 2.365 4.712 4.125 6.545 1.76 1.833 3.85 3.282 6.27 4.345 2.42 1.063 5.06 1.595 7.92 1.595 3.08 0 5.83-.532 8.25-1.595s4.455-2.53 6.105-4.4c1.65-1.87 2.915-4.07 3.795-6.6.88-2.53 1.32-5.225 1.32-8.085zm29.26 52.14h-7.48V336.9h7.48v8.91h.33c2.127-3.373 4.968-5.922 8.525-7.645 3.557-1.723 7.168-2.585 10.835-2.585 4.033 0 7.682.697 10.945 2.09 3.263 1.393 6.05 3.3 8.36 5.72 2.31 2.42 4.107 5.28 5.39 8.58 1.283 3.3 1.925 6.857 1.925 10.67 0 3.813-.642 7.37-1.925 10.67s-3.08 6.16-5.39 8.58c-2.31 2.42-5.097 4.327-8.36 5.72-3.263 1.393-6.912 2.09-10.945 2.09-3.667 0-7.278-.862-10.835-2.585-3.557-1.723-6.398-4.198-8.525-7.425h-.33v35.09zm38.39-52.14c0-2.86-.44-5.555-1.32-8.085-.88-2.53-2.145-4.73-3.795-6.6-1.65-1.87-3.685-3.355-6.105-4.455-2.42-1.1-5.17-1.65-8.25-1.65-2.86 0-5.5.532-7.92 1.595s-4.51 2.53-6.27 4.4c-1.76 1.87-3.135 4.07-4.125 6.6-.99 2.53-1.485 5.262-1.485 8.195 0 2.933.495 5.665 1.485 8.195.99 2.53 2.365 4.712 4.125 6.545 1.76 1.833 3.85 3.282 6.27 4.345 2.42 1.063 5.06 1.595 7.92 1.595 3.08 0 5.83-.532 8.25-1.595s4.455-2.53 6.105-4.4c1.65-1.87 2.915-4.07 3.795-6.6.88-2.53 1.32-5.225 1.32-8.085z"/></svg>