<?xml version="1.0" encoding="UTF-8" standalone="no"?><!DOCTYPE svg PUBLIC "-//W3C//DTD SVG 1.1//EN" "http://www.w3.org/Graphics/SVG/1.1/DTD/svg11.dtd"><svg width="100%" height="100%" viewBox="0 0 1280 720" version="1.1" xmlns="http://www.w3.org/2000/svg" xmlns:xlink="http://www.w3.org/1999/xlink" xml:space="preserve" xmlns:serif="http://www.serif.com/" style="fill-rule:evenodd;clip-rule:evenodd;stroke-linejoin:round;stroke-miterlimit:2;"><g id="Abjapp"><g><g id="Abjapp-logo"><g><path d="M942.35,295.5c0,-35.599 -28.901,-64.5 -64.5,-64.5l-475.7,0c-35.599,0 -64.5,28.901 -64.5,64.5l0,129c0,35.599 28.901,64.5 64.5,64.5l475.7,0c35.599,0 64.5,-28.901 64.5,-64.5l0,-129Z" style="fill:#fff;"/><path d="M643.63,383.22l-4.95,-12.51l-24.66,0l-4.68,12.51l-16.74,0l26.73,-63.72l14.94,0l26.46,63.72l-17.1,0Zm-17.1,-46.71l-8.1,21.87l16.02,0l-7.92,-21.87Z" style="fill:#333;fill-rule:nonzero;"/><path d="M713.38,360.63c0,3.12 -0.48,6.12 -1.44,9c-0.96,2.88 -2.355,5.415 -4.185,7.605c-1.83,2.19 -4.065,3.945 -6.705,5.265c-2.64,1.32 -5.64,1.98 -9,1.98c-3,0 -5.835,-0.615 -8.505,-1.845c-2.67,-1.23 -4.725,-2.985 -6.165,-5.265l-0.18,0l0,5.85l-13.59,0l0,-68.04l14.76,0l0,27.99l0.18,0c1.26,-1.5 3.03,-2.88 5.31,-4.14c2.28,-1.26 5.07,-1.89 8.37,-1.89c3.24,0 6.165,0.63 8.775,1.89c2.61,1.26 4.83,2.97 6.66,5.13c1.83,2.16 3.24,4.665 4.23,7.515c0.99,2.85 1.485,5.835 1.485,8.955Zm-14.22,0c0,-1.44 -0.225,-2.85 -0.675,-4.23c-0.45,-1.38 -1.125,-2.595 -2.025,-3.645c-0.9,-1.05 -2.01,-1.905 -3.33,-2.565c-1.32,-0.66 -2.85,-0.99 -4.59,-0.99c-1.68,0 -3.18,0.33 -4.5,0.99c-1.32,0.66 -2.445,1.53 -3.375,2.61c-0.93,1.08 -1.65,2.31 -2.16,3.69c-0.51,1.38 -0.765,2.79 -0.765,4.23c0,1.44 0.255,2.85 0.765,4.23c0.51,1.38 1.23,2.61 2.16,3.69c0.93,1.08 2.055,1.95 3.375,2.61c1.32,0.66 2.82,0.99 4.5,0.99c1.74,0 3.27,-0.33 4.59,-0.99c1.32,-0.66 2.43,-1.53 3.33,-2.61c0.9,-1.08 1.575,-2.325 2.025,-3.735c0.45,-1.41 0.675,-2.835 0.675,-4.275Z" style="fill:#333;fill-rule:nonzero;"/><path d="M737.23,324.09c0,1.14 -0.225,2.205 -0.675,3.195c-0.45,0.99 -1.05,1.845 -1.8,2.565c-0.75,0.72 -1.65,1.29 -2.7,1.71c-1.05,0.42 -2.145,0.63 -3.285,0.63c-2.4,0 -4.41,-0.795 -6.03,-2.385c-1.62,-1.59 -2.43,-3.495 -2.43,-5.715c0,-1.08 0.21,-2.115 0.63,-3.105c0.42,-0.99 1.02,-1.845 1.8,-2.565c0.78,-0.72 1.68,-1.305 2.7,-1.755c1.02,-0.45 2.13,-0.675 3.33,-0.675c1.14,0 2.235,0.21 3.285,0.63c1.05,0.42 1.95,0.99 2.7,1.71c0.75,0.72 1.35,1.575 1.8,2.565c0.45,0.99 0.675,2.055 0.675,3.195Zm-1.08,60.3c0,2.76 -0.255,5.385 -0.765,7.875c-0.51,2.49 -1.425,4.665 -2.745,6.525c-1.32,1.86 -3.15,3.33 -5.49,4.41c-2.34,1.08 -5.31,1.62 -8.91,1.62c-1.02,0 -2.13,-0.06 -3.33,-0.18c-1.2,-0.12 -2.22,-0.3 -3.06,-0.54l0.99,-12.33c0.54,0.18 1.095,0.3 1.665,0.36c0.57,0.06 1.065,0.09 1.485,0.09c2.16,0 3.6,-0.735 4.32,-2.205c0.72,-1.47 1.08,-3.345 1.08,-5.625l0,-45.99l14.76,0l0,45.99Z" style="fill:#333;fill-rule:nonzero;"/><path d="M772.51,363.69l-1.89,0c-1.62,0 -3.255,0.075 -4.905,0.225c-1.65,0.15 -3.12,0.435 -4.41,0.855c-1.29,0.42 -2.355,1.035 -3.195,1.845c-0.84,0.81 -1.26,1.875 -1.26,3.195c0,0.84 0.195,1.56 0.585,2.16c0.39,0.6 0.885,1.08 1.485,1.44c0.6,0.36 1.29,0.615 2.07,0.765c0.78,0.15 1.53,0.225 2.25,0.225c3,0 5.295,-0.825 6.885,-2.475c1.59,-1.65 2.385,-3.885 2.385,-6.705l0,-1.53Zm-27.09,-19.17c2.64,-2.52 5.715,-4.41 9.225,-5.67c3.51,-1.26 7.095,-1.89 10.755,-1.89c3.78,0 6.975,0.465 9.585,1.395c2.61,0.93 4.725,2.37 6.345,4.32c1.62,1.95 2.805,4.41 3.555,7.38c0.75,2.97 1.125,6.495 1.125,10.575l0,22.59l-13.5,0l0,-4.77l-0.27,0c-1.14,1.86 -2.865,3.3 -5.175,4.32c-2.31,1.02 -4.815,1.53 -7.515,1.53c-1.8,0 -3.66,-0.24 -5.58,-0.72c-1.92,-0.48 -3.675,-1.26 -5.265,-2.34c-1.59,-1.08 -2.895,-2.52 -3.915,-4.32c-1.02,-1.8 -1.53,-4.02 -1.53,-6.66c0,-3.24 0.885,-5.85 2.655,-7.83c1.77,-1.98 4.05,-3.51 6.84,-4.59c2.79,-1.08 5.895,-1.8 9.315,-2.16c3.42,-0.36 6.75,-0.54 9.99,-0.54l0,-0.72c0,-2.22 -0.78,-3.855 -2.34,-4.905c-1.56,-1.05 -3.48,-1.575 -5.76,-1.575c-2.1,0 -4.125,0.45 -6.075,1.35c-1.95,0.9 -3.615,1.98 -4.995,3.24l-7.47,-8.01Z" style="fill:#333;fill-rule:nonzero;"/><path d="M845.05,360.63c0,3.12 -0.48,6.12 -1.44,9c-0.96,2.88 -2.355,5.415 -4.185,7.605c-1.83,2.19 -4.065,3.945 -6.705,5.265c-2.64,1.32 -5.64,1.98 -9,1.98c-2.76,0 -5.37,-0.555 -7.83,-1.665c-2.46,-1.11 -4.38,-2.625 -5.76,-4.545l-0.18,0l0,26.55l-14.76,0l0,-66.42l14.04,0l0,5.49l0.27,0c1.38,-1.8 3.285,-3.375 5.715,-4.725c2.43,-1.35 5.295,-2.025 8.595,-2.025c3.24,0 6.18,0.63 8.82,1.89c2.64,1.26 4.875,2.97 6.705,5.13c1.83,2.16 3.24,4.665 4.23,7.515c0.99,2.85 1.485,5.835 1.485,8.955Zm-14.31,0c0,-1.44 -0.225,-2.85 -0.675,-4.23c-0.45,-1.38 -1.11,-2.595 -1.98,-3.645c-0.87,-1.05 -1.965,-1.905 -3.285,-2.565c-1.32,-0.66 -2.85,-0.99 -4.59,-0.99c-1.68,0 -3.18,0.33 -4.5,0.99c-1.32,0.66 -2.445,1.53 -3.375,2.61c-0.93,1.08 -1.65,2.31 -2.16,3.69c-0.51,1.38 -0.765,2.79 -0.765,4.23c0,1.44 0.255,2.85 0.765,4.23c0.51,1.38 1.23,2.61 2.16,3.69c0.93,1.08 2.055,1.95 3.375,2.61c1.32,0.66 2.82,0.99 4.5,0.99c1.74,0 3.27,-0.33 4.59,-0.99c1.32,-0.66 2.415,-1.53 3.285,-2.61c0.87,-1.08 1.53,-2.325 1.98,-3.735c0.45,-1.41 0.675,-2.835 0.675,-4.275Z" style="fill:#333;fill-rule:nonzero;"/><path d="M902.38,360.63c0,3.12 -0.48,6.12 -1.44,9c-0.96,2.88 -2.355,5.415 -4.185,7.605c-1.83,2.19 -4.065,3.945 -6.705,5.265c-2.64,1.32 -5.64,1.98 -9,1.98c-2.76,0 -5.37,-0.555 -7.83,-1.665c-2.46,-1.11 -4.38,-2.625 -5.76,-4.545l-0.18,0l0,26.55l-14.76,0l0,-66.42l14.04,0l0,5.49l0.27,0c1.38,-1.8 3.285,-3.375 5.715,-4.725c2.43,-1.35 5.295,-2.025 8.595,-2.025c3.24,0 6.18,0.63 8.82,1.89c2.64,1.26 4.875,2.97 6.705,5.13c1.83,2.16 3.24,4.665 4.23,7.515c0.99,2.85 1.485,5.835 1.485,8.955Zm-14.31,0c0,-1.44 -0.225,-2.85 -0.675,-4.23c-0.45,-1.38 -1.11,-2.595 -1.98,-3.645c-0.87,-1.05 -1.965,-1.905 -3.285,-2.565c-1.32,-0.66 -2.85,-0.99 -4.59,-0.99c-1.68,0 -3.18,0.33 -4.5,0.99c-1.32,0.66 -2.445,1.53 -3.375,2.61c-0.93,1.08 -1.65,2.31 -2.16,3.69c-0.51,1.38 -0.765,2.79 -0.765,4.23c0,1.44 0.255,2.85 0.765,4.23c0.51,1.38 1.23,2.61 2.16,3.69c0.93,1.08 2.055,1.95 3.375,2.61c1.32,0.66 2.82,0.99 4.5,0.99c1.74,0 3.27,-0.33 4.59,-0.99c1.32,-0.66 2.415,-1.53 3.285,-2.61c0.87,-1.08 1.53,-2.325 1.98,-3.735c0.45,-1.41 0.675,-2.835 0.675,-4.275Z" style="fill:#333;fill-rule:nonzero;"/><g><clipPath id="_clip1"><path d="M500.15,272.61l-70,0c-18.958,0 -29.279,0 -40.833,11.667c-11.554,11.666 -11.667,21.875 -11.667,40.833l0,70c0,18.958 0.113,29.167 11.667,40.833c11.554,11.667 21.875,11.667 40.833,11.667c18.958,0 51.042,0 70,0c18.958,0 30.616,0 40.833,-11.667c10.217,-11.666 11.667,-21.875 11.667,-40.833l0,-70c0,-18.958 -0.088,-29.167 -11.667,-40.833c-11.578,-11.667 -21.832,-11.667 -40.833,-11.667Z"/></clipPath><g clip-path="url(#_clip1)"><g><rect x="377.65" y="272.61" width="175" height="175" style="fill:url(#_Linear2);"/><rect x="377.65" y="272.61" width="175" height="175" style="fill:url(#_Linear3);"/><clipPath id="_clip4"><path d="M473.011,403.23c0,9.797 -0.48,16.717 -1.441,20.759c-0.205,0.822 -0.617,1.233 -1.235,1.233c-0.686,-0.068 -1.029,-0.685 -1.029,-1.85c-0.48,-13.907 -1.955,-29.185 -4.426,-45.834l-5.146,-33.296c-0.274,-2.261 0.515,-7.023 2.368,-14.285c0.686,-2.672 1.166,-4.008 1.44,-4.008c0.755,0 1.27,1.678 1.544,5.036c0.343,4.521 1.304,12.092 2.882,22.711c3.362,22.267 5.043,38.778 5.043,49.534Zm-1.36,-96.35c0.62,0 0.379,1.61 -0.724,4.83c-0.069,0.342 -0.69,0.856 -1.862,1.541c-5.31,1.987 -10.033,4.658 -14.171,8.015c-1.172,0.89 -1.758,0.753 -1.758,-0.411c0,-1.576 1.344,-3.425 4.034,-5.549c-2.965,-1.575 -4.517,-3.322 -4.655,-5.24c-0.138,-1.85 0.948,-4.23 3.258,-7.142c2.31,-2.911 4.776,-4.469 7.396,-4.675c1.793,-0.068 2.758,0.651 2.896,2.158c0,1.781 -0.62,3.665 -1.862,5.651c-0.206,0.411 -0.448,0.548 -0.724,0.411c-0.206,-0.137 -0.31,-0.411 -0.31,-0.822c-0.207,-1.096 -1.414,-1.438 -3.62,-1.027c-1.793,0.342 -2.655,1.096 -2.586,2.26c0.138,1.987 1.827,3.117 5.068,3.391c1.931,0.411 3.207,0.274 3.827,-0.411c3.31,-1.986 5.241,-2.98 5.793,-2.98Z"/></clipPath><g clip-path="url(#_clip4)"><rect x="441.833" y="287.574" width="41.849" height="148.319" style="fill:#fff;"/></g></g></g></g></g></g></g></g><defs><linearGradient id="_Linear2" x1="0" y1="0" x2="1" y2="0" gradientUnits="userSpaceOnUse" gradientTransform="matrix(1.33815e-13,2185.37,-2185.37,1.33815e-13,377.65,272.61)"><stop offset="0" style="stop-color:#c4a2fd;stop-opacity:0"/><stop offset="1" style="stop-color:#dec8f4;stop-opacity:0"/></linearGradient><linearGradient id="_Linear3" x1="0" y1="0" x2="1" y2="0" gradientUnits="userSpaceOnUse" gradientTransform="matrix(-76.122,-175,175,-76.122,506.198,447.61)"><stop offset="0" style="stop-color:#b68bfc;stop-opacity:1"/><stop offset="1" style="stop-color:#d6baf1;stop-opacity:1"/></linearGradient></defs></svg>