<?xml version="1.0" standalone="no"?>
<!DOCTYPE svg PUBLIC "-//W3C//DTD SVG 1.1//EN" "http://www.w3.org/Graphics/SVG/1.1/DTD/svg11.dtd">
<svg width="1280px" height="720px" viewBox="0 0 1280 720" version="1.1" xmlns="http://www.w3.org/2000/svg" xmlns:xlink="http://www.w3.org/1999/xlink" xml:space="preserve" style="fill-rule:evenodd;clip-rule:evenodd;stroke-linejoin:round;stroke-miterlimit:1.41421;">
    <g id="Layer1">
        <rect x="0" y="3.55271e-15" width="1280" height="720" style="fill:rgb(26,155,207);"/>
        <g>
            <g transform="matrix(1,0,0,1,-230.477,94.3921)">
                <path d="M607.605,230.49L607.605,228.474L626.037,228.474C629.013,228.474 631.149,228.858 632.445,229.626C633.741,230.394 634.389,232.17 634.389,234.954L634.389,265.626C630.549,267.834 626.445,269.586 622.077,270.882C617.709,272.178 613.077,272.826 608.181,272.826C601.077,272.826 594.405,271.482 588.165,268.794C581.925,266.106 576.477,262.434 571.821,257.778C567.165,253.122 563.493,247.674 560.805,241.434C558.117,235.194 556.773,228.522 556.773,221.418C556.773,214.314 558.117,207.618 560.805,201.33C563.493,195.042 567.165,189.57 571.821,184.914C576.477,180.258 581.925,176.562 588.165,173.826C594.405,171.09 601.077,169.722 608.181,169.722C613.077,169.722 617.709,170.346 622.077,171.594C626.445,172.842 630.597,174.618 634.533,176.922L633.381,178.65C629.733,176.442 625.773,174.738 621.501,173.538C617.229,172.338 612.789,171.738 608.181,171.738C601.365,171.738 594.957,173.058 588.957,175.698C582.957,178.338 577.725,181.914 573.261,186.426C568.797,190.938 565.269,196.218 562.677,202.266C560.085,208.314 558.789,214.746 558.789,221.562C558.789,228.378 560.085,234.762 562.677,240.714C565.269,246.666 568.773,251.874 573.189,256.338C577.605,260.802 582.789,264.33 588.741,266.922C594.693,269.514 601.029,270.81 607.749,270.81C612.261,270.81 616.581,270.258 620.709,269.154C624.837,268.05 628.725,266.442 632.373,264.33L632.373,244.026L632.373,233.802C632.373,232.938 632.061,232.17 631.437,231.498C630.813,230.826 629.685,230.49 628.053,230.49L607.605,230.49Z" style="fill:white;fill-rule:nonzero;"/>
                <path d="M652.677,199.674C652.677,198.906 652.965,198.234 653.541,197.658C654.117,197.082 654.789,196.794 655.557,196.794C656.325,196.794 656.997,197.082 657.573,197.658C658.149,198.234 658.437,198.906 658.437,199.674C658.437,200.442 658.149,201.114 657.573,201.69C656.997,202.266 656.325,202.554 655.557,202.554C654.789,202.554 654.117,202.266 653.541,201.69C652.965,201.114 652.677,200.442 652.677,199.674ZM656.565,271.674L654.549,271.674L654.549,217.674L656.565,217.674L656.565,271.674Z" style="fill:white;fill-rule:nonzero;"/>
                <path d="M681.909,217.674L683.925,217.674L683.925,225.306L683.493,231.786C685.413,227.274 688.485,223.626 692.709,220.842C696.933,218.058 701.781,216.666 707.253,216.666C711.957,216.666 715.773,217.986 718.701,220.626C721.629,223.266 723.333,226.746 723.813,231.066C725.829,226.746 728.925,223.266 733.101,220.626C737.277,217.986 742.005,216.666 747.285,216.666C752.373,216.666 756.381,218.154 759.309,221.13C762.237,224.106 763.797,227.994 763.989,232.794L763.989,271.674L761.973,271.674L761.973,231.786C761.781,228.33 760.509,225.33 758.157,222.786C755.805,220.242 752.517,218.874 748.293,218.682C745.125,218.682 742.101,219.186 739.221,220.194C736.341,221.202 733.797,222.618 731.589,224.442C729.381,226.266 727.581,228.426 726.189,230.922C724.797,233.418 724.053,236.154 723.957,239.13L723.957,271.674L721.941,271.674L721.941,231.786C721.749,228.33 720.477,225.33 718.125,222.786C715.773,220.242 712.485,218.874 708.261,218.682C704.997,218.682 701.901,219.21 698.973,220.266C696.045,221.322 693.453,222.786 691.197,224.658C688.941,226.53 687.165,228.786 685.869,231.426C684.573,234.066 683.925,236.922 683.925,239.994L683.925,271.674L681.909,271.674L681.909,217.674Z" style="fill:white;fill-rule:nonzero;"/>
                <path d="M785.013,217.674L787.029,217.674L787.029,225.306L786.597,231.786C788.517,227.274 791.589,223.626 795.813,220.842C800.037,218.058 804.885,216.666 810.357,216.666C815.061,216.666 818.877,217.986 821.805,220.626C824.733,223.266 826.437,226.746 826.917,231.066C828.933,226.746 832.029,223.266 836.205,220.626C840.381,217.986 845.109,216.666 850.389,216.666C855.477,216.666 859.485,218.154 862.413,221.13C865.341,224.106 866.901,227.994 867.093,232.794L867.093,271.674L865.077,271.674L865.077,231.786C864.885,228.33 863.613,225.33 861.261,222.786C858.909,220.242 855.621,218.874 851.397,218.682C848.229,218.682 845.205,219.186 842.325,220.194C839.445,221.202 836.901,222.618 834.693,224.442C832.485,226.266 830.685,228.426 829.293,230.922C827.901,233.418 827.157,236.154 827.061,239.13L827.061,271.674L825.045,271.674L825.045,231.786C824.853,228.33 823.581,225.33 821.229,222.786C818.877,220.242 815.589,218.874 811.365,218.682C808.101,218.682 805.005,219.21 802.077,220.266C799.149,221.322 796.557,222.786 794.301,224.658C792.045,226.53 790.269,228.786 788.973,231.426C787.677,234.066 787.029,236.922 787.029,239.994L787.029,271.674L785.013,271.674L785.013,217.674Z" style="fill:white;fill-rule:nonzero;"/>
                <path d="M913.029,218.538C909.381,218.538 905.997,219.21 902.877,220.554C899.757,221.898 897.021,223.77 894.669,226.17C892.317,228.57 890.469,231.354 889.125,234.522C887.781,237.69 887.109,241.05 887.109,244.602C887.109,247.386 887.445,249.93 888.117,252.234C895.893,249.066 903.669,245.922 911.445,242.802C919.221,239.682 926.997,236.538 934.773,233.37C932.853,228.954 929.949,225.378 926.061,222.642C922.173,219.906 917.829,218.538 913.029,218.538ZM937.365,234.378C929.205,237.738 921.117,241.026 913.101,244.242C905.085,247.458 896.997,250.746 888.837,254.106C890.757,259.002 893.877,262.962 898.197,265.986C902.517,269.01 907.461,270.522 913.029,270.522C916.485,270.522 919.749,269.898 922.821,268.65C925.893,267.402 928.581,265.674 930.885,263.466C931.077,263.754 931.293,264.018 931.533,264.258C931.773,264.498 931.989,264.762 932.181,265.05C929.685,267.354 926.805,269.178 923.541,270.522C920.277,271.866 916.773,272.538 913.029,272.538C909.093,272.538 905.445,271.818 902.085,270.378C898.725,268.938 895.773,266.946 893.229,264.402C890.685,261.858 888.693,258.906 887.253,255.546C885.813,252.186 885.093,248.538 885.093,244.602C885.093,240.762 885.813,237.114 887.253,233.658C888.693,230.202 890.685,227.226 893.229,224.73C895.773,222.234 898.725,220.242 902.085,218.754C905.445,217.266 909.093,216.522 913.029,216.522C918.597,216.522 923.565,218.178 927.933,221.49C932.301,224.802 935.445,229.098 937.365,234.378Z" style="fill:white;fill-rule:nonzero;"/>
                <path d="M991.365,264.906L992.805,266.346C990.309,268.266 987.573,269.778 984.597,270.882C981.621,271.986 978.453,272.538 975.093,272.538C971.157,272.538 967.509,271.818 964.149,270.378C960.789,268.938 957.837,266.946 955.293,264.402C952.749,261.858 950.757,258.906 949.317,255.546C947.877,252.186 947.157,248.538 947.157,244.602C947.157,240.762 947.877,237.114 949.317,233.658C950.757,230.202 952.749,227.226 955.293,224.73C957.837,222.234 960.789,220.242 964.149,218.754C967.509,217.266 971.157,216.522 975.093,216.522C978.453,216.522 981.645,217.074 984.669,218.178C987.693,219.282 990.405,220.794 992.805,222.714C992.613,223.002 992.373,223.266 992.085,223.506C991.797,223.746 991.557,224.01 991.365,224.298C989.157,222.474 986.661,221.058 983.877,220.05C981.093,219.042 978.165,218.538 975.093,218.538C971.445,218.538 968.061,219.21 964.941,220.554C961.821,221.898 959.085,223.77 956.733,226.17C954.381,228.57 952.533,231.354 951.189,234.522C949.845,237.69 949.173,241.05 949.173,244.602C949.173,248.25 949.845,251.634 951.189,254.754C952.533,257.874 954.381,260.61 956.733,262.962C959.085,265.314 961.821,267.162 964.941,268.506C968.061,269.85 971.445,270.522 975.093,270.522C978.165,270.522 981.093,270.018 983.877,269.01C986.661,268.002 989.157,266.634 991.365,264.906Z" style="fill:white;fill-rule:nonzero;"/>
                <path d="M999.429,244.602C999.429,240.762 1000.15,237.114 1001.59,233.658C1003.03,230.202 1005.02,227.202 1007.56,224.658C1010.11,222.114 1013.06,220.098 1016.42,218.61C1019.78,217.122 1023.43,216.378 1027.36,216.378C1031.2,216.378 1034.85,217.122 1038.31,218.61C1041.76,220.098 1044.76,222.114 1047.31,224.658C1049.85,227.202 1051.87,230.202 1053.36,233.658C1054.84,237.114 1055.59,240.762 1055.59,244.602C1055.59,248.538 1054.84,252.186 1053.36,255.546C1051.87,258.906 1049.85,261.858 1047.31,264.402C1044.76,266.946 1041.76,268.938 1038.31,270.378C1034.85,271.818 1031.2,272.538 1027.36,272.538C1023.43,272.538 1019.78,271.818 1016.42,270.378C1013.06,268.938 1010.11,266.946 1007.56,264.402C1005.02,261.858 1003.03,258.906 1001.59,255.546C1000.15,252.186 999.429,248.538 999.429,244.602ZM1001.44,244.602C1001.44,248.25 1002.12,251.634 1003.46,254.754C1004.8,257.874 1006.65,260.61 1009,262.962C1011.36,265.314 1014.09,267.162 1017.21,268.506C1020.33,269.85 1023.72,270.522 1027.36,270.522C1030.92,270.522 1034.28,269.85 1037.44,268.506C1040.61,267.162 1043.4,265.314 1045.8,262.962C1048.2,260.61 1050.07,257.874 1051.41,254.754C1052.76,251.634 1053.43,248.25 1053.43,244.602C1053.43,241.05 1052.76,237.69 1051.41,234.522C1050.07,231.354 1048.2,228.57 1045.8,226.17C1043.4,223.77 1040.61,221.898 1037.44,220.554C1034.28,219.21 1030.92,218.538 1027.36,218.538C1023.72,218.538 1020.33,219.21 1017.21,220.554C1014.09,221.898 1011.36,223.77 1009,226.17C1006.65,228.57 1004.8,231.354 1003.46,234.522C1002.12,237.69 1001.44,241.05 1001.44,244.602Z" style="fill:white;fill-rule:nonzero;"/>
                <path d="M1068.69,244.602C1068.69,248.25 1069.36,251.634 1070.71,254.754C1072.05,257.874 1073.9,260.61 1076.25,262.962C1078.6,265.314 1081.34,267.162 1084.46,268.506C1087.58,269.85 1090.96,270.522 1094.61,270.522C1098.16,270.522 1101.52,269.85 1104.69,268.506C1107.86,267.162 1110.64,265.314 1113.04,262.962C1115.44,260.61 1117.32,257.874 1118.66,254.754C1120,251.634 1120.68,248.25 1120.68,244.602C1120.68,241.05 1120,237.69 1118.66,234.522C1117.32,231.354 1115.44,228.57 1113.04,226.17C1110.64,223.77 1107.86,221.898 1104.69,220.554C1101.52,219.21 1098.16,218.538 1094.61,218.538C1090.96,218.538 1087.58,219.21 1084.46,220.554C1081.34,221.898 1078.6,223.77 1076.25,226.17C1073.9,228.57 1072.05,231.354 1070.71,234.522C1069.36,237.69 1068.69,241.05 1068.69,244.602ZM1066.68,244.602C1066.68,240.762 1067.4,237.114 1068.84,233.658C1070.28,230.202 1072.27,227.226 1074.81,224.73C1077.36,222.234 1080.31,220.242 1083.67,218.754C1087.03,217.266 1090.68,216.522 1094.61,216.522C1097.59,216.522 1100.44,216.954 1103.18,217.818C1105.92,218.682 1108.41,219.906 1110.67,221.49C1112.92,223.074 1114.89,224.946 1116.57,227.106C1118.25,229.266 1119.62,231.642 1120.68,234.234L1120.68,226.458L1120.68,163.674L1122.69,163.674L1122.69,271.674L1120.68,271.674L1120.68,263.898C1120.68,262.362 1120.7,260.85 1120.75,259.362C1120.8,257.874 1120.82,256.362 1120.82,254.826C1119.76,257.418 1118.37,259.794 1116.64,261.954C1114.92,264.114 1112.92,265.986 1110.67,267.57C1108.41,269.154 1105.92,270.378 1103.18,271.242C1100.44,272.106 1097.59,272.538 1094.61,272.538C1090.68,272.538 1087.03,271.818 1083.67,270.378C1080.31,268.938 1077.36,266.946 1074.81,264.402C1072.27,261.858 1070.28,258.906 1068.84,255.546C1067.4,252.186 1066.68,248.538 1066.68,244.602Z" style="fill:white;fill-rule:nonzero;"/>
                <path d="M1164.16,218.538C1160.52,218.538 1157.13,219.21 1154.01,220.554C1150.89,221.898 1148.16,223.77 1145.8,226.17C1143.45,228.57 1141.6,231.354 1140.26,234.522C1138.92,237.69 1138.24,241.05 1138.24,244.602C1138.24,247.386 1138.58,249.93 1139.25,252.234C1147.03,249.066 1154.8,245.922 1162.58,242.802C1170.36,239.682 1178.13,236.538 1185.91,233.37C1183.99,228.954 1181.08,225.378 1177.2,222.642C1173.31,219.906 1168.96,218.538 1164.16,218.538ZM1188.5,234.378C1180.34,237.738 1172.25,241.026 1164.24,244.242C1156.22,247.458 1148.13,250.746 1139.97,254.106C1141.89,259.002 1145.01,262.962 1149.33,265.986C1153.65,269.01 1158.6,270.522 1164.16,270.522C1167.62,270.522 1170.88,269.898 1173.96,268.65C1177.03,267.402 1179.72,265.674 1182.02,263.466C1182.21,263.754 1182.43,264.018 1182.67,264.258C1182.91,264.498 1183.12,264.762 1183.32,265.05C1180.82,267.354 1177.94,269.178 1174.68,270.522C1171.41,271.866 1167.91,272.538 1164.16,272.538C1160.23,272.538 1156.58,271.818 1153.22,270.378C1149.86,268.938 1146.91,266.946 1144.36,264.402C1141.82,261.858 1139.83,258.906 1138.39,255.546C1136.95,252.186 1136.23,248.538 1136.23,244.602C1136.23,240.762 1136.95,237.114 1138.39,233.658C1139.83,230.202 1141.82,227.226 1144.36,224.73C1146.91,222.234 1149.86,220.242 1153.22,218.754C1156.58,217.266 1160.23,216.522 1164.16,216.522C1169.73,216.522 1174.7,218.178 1179.07,221.49C1183.44,224.802 1186.58,229.098 1188.5,234.378Z" style="fill:white;fill-rule:nonzero;"/>
            </g>
            <g transform="matrix(1,0,0,1,-230.477,178.259)">
                <path d="M683.109,261.066L683.109,257.274L689.733,257.274C690.661,257.274 691.277,257.506 691.581,257.97C691.885,258.434 692.037,259.162 692.037,260.154L692.037,269.658C690.757,270.394 689.389,270.978 687.933,271.41C686.477,271.842 684.933,272.058 683.301,272.058C680.933,272.058 678.709,271.61 676.629,270.714C674.549,269.818 672.733,268.594 671.181,267.042C669.629,265.49 668.405,263.674 667.509,261.594C666.613,259.514 666.165,257.29 666.165,254.922C666.165,252.554 666.613,250.322 667.509,248.226C668.405,246.13 669.629,244.306 671.181,242.754C672.733,241.202 674.549,239.97 676.629,239.058C678.709,238.146 680.933,237.69 683.301,237.69C684.933,237.69 686.477,237.898 687.933,238.314C689.389,238.73 690.773,239.322 692.085,240.09C691.733,240.634 691.365,241.17 690.981,241.698C690.597,242.226 690.229,242.762 689.877,243.306C688.885,242.73 687.845,242.282 686.757,241.962C685.669,241.642 684.517,241.482 683.301,241.482C681.477,241.482 679.773,241.834 678.189,242.538C676.605,243.242 675.213,244.21 674.013,245.442C672.813,246.674 671.869,248.106 671.181,249.738C670.493,251.37 670.149,253.098 670.149,254.922C670.149,256.746 670.493,258.474 671.181,260.106C671.869,261.738 672.813,263.154 674.013,264.354C675.213,265.554 676.605,266.506 678.189,267.21C679.773,267.914 681.477,268.266 683.301,268.266C684.965,268.266 686.549,267.978 688.053,267.402L688.053,262.506C688.053,261.962 687.997,261.586 687.885,261.378C687.773,261.17 687.461,261.066 686.949,261.066L683.109,261.066Z" style="fill:white;fill-rule:nonzero;"/>
                <rect x="700.197" y="238.074" width="3.984" height="33.6" style="fill:white;fill-rule:nonzero;"/>
                <path d="M736.197,238.074L740.181,238.074C737.685,243.962 735.205,249.818 732.741,255.642C730.277,261.466 727.797,267.322 725.301,273.21C722.805,267.322 720.325,261.466 717.861,255.642C715.397,249.818 712.917,243.962 710.421,238.074L714.405,238.074C716.165,242.234 717.909,246.354 719.637,250.434C721.365,254.514 723.109,258.634 724.869,262.794L725.301,264.378L725.733,262.794C727.493,258.634 729.237,254.514 730.965,250.434C732.693,246.354 734.437,242.234 736.197,238.074Z" style="fill:white;fill-rule:nonzero;"/>
                <path d="M744.837,271.674L744.837,238.074L765.525,238.074L765.525,241.866L748.821,241.866L748.821,252.858L763.653,252.858L763.653,256.65L748.821,256.65L748.821,267.882L766.197,267.882L766.197,271.674L744.837,271.674Z" style="fill:white;fill-rule:nonzero;"/>
                <path d="M787.653,236.538C790.597,240.346 793.525,244.146 796.437,247.938C799.349,251.73 802.277,255.53 805.221,259.338C808.165,255.53 811.093,251.73 814.005,247.938C816.917,244.146 819.845,240.346 822.789,236.538L822.789,271.674L818.805,271.674L818.805,249.114C818.837,248.858 818.861,248.602 818.877,248.346C818.893,248.09 818.917,247.834 818.949,247.578C816.837,250.714 814.597,253.762 812.229,256.722C809.861,259.682 807.525,262.666 805.221,265.674C803.077,262.858 800.933,260.058 798.789,257.274C796.645,254.49 794.501,251.69 792.357,248.874L791.493,247.578C791.525,247.834 791.549,248.09 791.565,248.346C791.581,248.602 791.605,248.858 791.637,249.114L791.637,271.674L787.653,271.674L787.653,236.538Z" style="fill:white;fill-rule:nonzero;"/>
                <path d="M830.181,271.674L830.181,238.074L850.869,238.074L850.869,241.866L834.165,241.866L834.165,252.858L848.997,252.858L848.997,256.65L834.165,256.65L834.165,267.882L851.541,267.882L851.541,271.674L830.181,271.674Z" style="fill:white;fill-rule:nonzero;"/>
                <path d="M883.941,272.058C882.213,272.058 880.613,271.818 879.141,271.338C877.669,270.858 876.389,270.146 875.301,269.202C874.213,268.258 873.365,267.082 872.757,265.674C872.149,264.266 871.845,262.65 871.845,260.826L871.845,238.074L875.829,238.074L875.829,260.682C875.829,261.898 876.029,262.978 876.429,263.922C876.829,264.866 877.389,265.658 878.109,266.298C878.829,266.938 879.685,267.426 880.677,267.762C881.669,268.098 882.757,268.266 883.941,268.266C885.125,268.266 886.213,268.098 887.205,267.762C888.197,267.426 889.053,266.938 889.773,266.298C890.493,265.658 891.061,264.866 891.477,263.922C891.893,262.978 892.101,261.898 892.101,260.682L892.101,238.074L896.085,238.074L896.085,260.826C896.085,262.65 895.773,264.266 895.149,265.674C894.525,267.082 893.669,268.258 892.581,269.202C891.493,270.146 890.213,270.858 888.741,271.338C887.269,271.818 885.669,272.058 883.941,272.058Z" style="fill:white;fill-rule:nonzero;"/>
                <path d="M932.661,238.074L932.661,273.21C928.533,268.826 924.437,264.474 920.373,260.154C916.309,255.834 912.213,251.482 908.085,247.098C907.925,246.874 907.773,246.666 907.629,246.474C907.485,246.282 907.333,246.074 907.173,245.85C907.205,246.106 907.229,246.362 907.245,246.618C907.261,246.874 907.285,247.13 907.317,247.386L907.317,271.674L903.333,271.674L903.333,236.538C907.461,241.018 911.557,245.458 915.621,249.858C919.685,254.258 923.781,258.698 927.909,263.178C928.069,263.402 928.221,263.61 928.365,263.802C928.509,263.994 928.661,264.202 928.821,264.426C928.789,264.17 928.765,263.914 928.749,263.658C928.733,263.402 928.709,263.146 928.677,262.89L928.677,238.074L932.661,238.074Z" style="fill:white;fill-rule:nonzero;"/>
                <rect x="941.349" y="238.074" width="3.984" height="33.6" style="fill:white;fill-rule:nonzero;"/>
                <path d="M975.669,266.49L977.829,269.658C976.549,270.394 975.181,270.978 973.725,271.41C972.269,271.842 970.725,272.058 969.093,272.058C966.725,272.058 964.501,271.61 962.421,270.714C960.341,269.818 958.525,268.594 956.973,267.042C955.421,265.49 954.197,263.674 953.301,261.594C952.405,259.514 951.957,257.29 951.957,254.922C951.957,252.554 952.405,250.322 953.301,248.226C954.197,246.13 955.421,244.306 956.973,242.754C958.525,241.202 960.341,239.97 962.421,239.058C964.501,238.146 966.725,237.69 969.093,237.69C970.725,237.69 972.269,237.898 973.725,238.314C975.181,238.73 976.565,239.322 977.877,240.09C977.525,240.634 977.157,241.17 976.773,241.698C976.389,242.226 976.021,242.762 975.669,243.306C974.677,242.73 973.637,242.282 972.549,241.962C971.461,241.642 970.309,241.482 969.093,241.482C967.269,241.482 965.565,241.834 963.981,242.538C962.397,243.242 961.005,244.21 959.805,245.442C958.605,246.674 957.661,248.106 956.973,249.738C956.285,251.37 955.941,253.098 955.941,254.922C955.941,256.746 956.285,258.474 956.973,260.106C957.661,261.738 958.605,263.154 959.805,264.354C961.005,265.554 962.397,266.506 963.981,267.21C965.565,267.914 967.269,268.266 969.093,268.266C971.461,268.266 973.653,267.674 975.669,266.49Z" style="fill:white;fill-rule:nonzero;"/>
                <path d="M983.157,254.922C983.157,252.586 983.605,250.37 984.501,248.274C985.397,246.178 986.621,244.346 988.173,242.778C989.725,241.21 991.541,239.97 993.621,239.058C995.701,238.146 997.925,237.69 1000.29,237.69C1002.63,237.69 1004.84,238.146 1006.94,239.058C1009.04,239.97 1010.87,241.21 1012.44,242.778C1014,244.346 1015.24,246.178 1016.16,248.274C1017.07,250.37 1017.52,252.586 1017.52,254.922C1017.52,257.29 1017.07,259.514 1016.16,261.594C1015.24,263.674 1014,265.49 1012.44,267.042C1010.87,268.594 1009.04,269.818 1006.94,270.714C1004.84,271.61 1002.63,272.058 1000.29,272.058C997.925,272.058 995.701,271.61 993.621,270.714C991.541,269.818 989.725,268.594 988.173,267.042C986.621,265.49 985.397,263.674 984.501,261.594C983.605,259.514 983.157,257.29 983.157,254.922ZM987.141,254.922C987.141,256.778 987.485,258.514 988.173,260.13C988.861,261.746 989.805,263.154 991.005,264.354C992.205,265.554 993.605,266.506 995.205,267.21C996.805,267.914 998.517,268.266 1000.34,268.266C1002.16,268.266 1003.88,267.914 1005.48,267.21C1007.08,266.506 1008.48,265.554 1009.68,264.354C1010.88,263.154 1011.82,261.746 1012.51,260.13C1013.2,258.514 1013.54,256.778 1013.54,254.922C1013.54,253.066 1013.2,251.33 1012.51,249.714C1011.82,248.098 1010.88,246.682 1009.68,245.466C1008.48,244.25 1007.08,243.29 1005.48,242.586C1003.88,241.882 1002.16,241.53 1000.34,241.53C998.517,241.53 996.805,241.882 995.205,242.586C993.605,243.29 992.205,244.25 991.005,245.466C989.805,246.682 988.861,248.098 988.173,249.714C987.485,251.33 987.141,253.066 987.141,254.922Z" style="fill:white;fill-rule:nonzero;"/>
                <path d="M1022.42,238.074L1030.24,238.074C1032.55,238.074 1034.72,238.466 1036.77,239.25C1038.82,240.034 1040.61,241.162 1042.15,242.634C1043.68,244.106 1044.9,245.874 1045.8,247.938C1046.69,250.002 1047.14,252.33 1047.14,254.922C1047.14,256.81 1046.81,258.746 1046.16,260.73C1045.5,262.714 1044.44,264.514 1042.96,266.13C1041.49,267.746 1039.58,269.074 1037.23,270.114C1034.88,271.154 1032,271.674 1028.61,271.674L1022.42,271.674L1022.42,238.074ZM1026.4,241.866L1026.4,267.834L1029.76,267.834C1031.65,267.834 1033.41,267.53 1035.04,266.922C1036.68,266.314 1038.09,265.442 1039.29,264.306C1040.49,263.17 1041.44,261.81 1042.12,260.226C1042.81,258.642 1043.16,256.858 1043.16,254.874C1043.16,252.89 1042.81,251.098 1042.12,249.498C1041.44,247.898 1040.49,246.53 1039.29,245.394C1038.09,244.258 1036.68,243.386 1035.04,242.778C1033.41,242.17 1031.65,241.866 1029.76,241.866L1026.4,241.866Z" style="fill:white;fill-rule:nonzero;"/>
                <path d="M1053.19,271.674L1053.19,238.074L1073.88,238.074L1073.88,241.866L1057.17,241.866L1057.17,252.858L1072,252.858L1072,256.65L1057.17,256.65L1057.17,267.882L1074.55,267.882L1074.55,271.674L1053.19,271.674Z" style="fill:white;fill-rule:nonzero;"/>
                <path d="M683.109,261.066L683.109,257.274L689.733,257.274C690.661,257.274 691.277,257.506 691.581,257.97C691.885,258.434 692.037,259.162 692.037,260.154L692.037,269.658C690.757,270.394 689.389,270.978 687.933,271.41C686.477,271.842 684.933,272.058 683.301,272.058C680.933,272.058 678.709,271.61 676.629,270.714C674.549,269.818 672.733,268.594 671.181,267.042C669.629,265.49 668.405,263.674 667.509,261.594C666.613,259.514 666.165,257.29 666.165,254.922C666.165,252.554 666.613,250.322 667.509,248.226C668.405,246.13 669.629,244.306 671.181,242.754C672.733,241.202 674.549,239.97 676.629,239.058C678.709,238.146 680.933,237.69 683.301,237.69C684.933,237.69 686.477,237.898 687.933,238.314C689.389,238.73 690.773,239.322 692.085,240.09C691.733,240.634 691.365,241.17 690.981,241.698C690.597,242.226 690.229,242.762 689.877,243.306C688.885,242.73 687.845,242.282 686.757,241.962C685.669,241.642 684.517,241.482 683.301,241.482C681.477,241.482 679.773,241.834 678.189,242.538C676.605,243.242 675.213,244.21 674.013,245.442C672.813,246.674 671.869,248.106 671.181,249.738C670.493,251.37 670.149,253.098 670.149,254.922C670.149,256.746 670.493,258.474 671.181,260.106C671.869,261.738 672.813,263.154 674.013,264.354C675.213,265.554 676.605,266.506 678.189,267.21C679.773,267.914 681.477,268.266 683.301,268.266C684.965,268.266 686.549,267.978 688.053,267.402L688.053,262.506C688.053,261.962 687.997,261.586 687.885,261.378C687.773,261.17 687.461,261.066 686.949,261.066L683.109,261.066Z" style="fill:none;stroke-width:1.5px;stroke:white;"/>
                <rect x="700.197" y="238.074" width="3.984" height="33.6" style="fill:none;stroke-width:1.5px;stroke:white;"/>
                <path d="M736.197,238.074L740.181,238.074C737.685,243.962 735.205,249.818 732.741,255.642C730.277,261.466 727.797,267.322 725.301,273.21C722.805,267.322 720.325,261.466 717.861,255.642C715.397,249.818 712.917,243.962 710.421,238.074L714.405,238.074C716.165,242.234 717.909,246.354 719.637,250.434C721.365,254.514 723.109,258.634 724.869,262.794L725.301,264.378L725.733,262.794C727.493,258.634 729.237,254.514 730.965,250.434C732.693,246.354 734.437,242.234 736.197,238.074Z" style="fill:none;stroke-width:1.5px;stroke:white;"/>
                <path d="M744.837,271.674L744.837,238.074L765.525,238.074L765.525,241.866L748.821,241.866L748.821,252.858L763.653,252.858L763.653,256.65L748.821,256.65L748.821,267.882L766.197,267.882L766.197,271.674L744.837,271.674Z" style="fill:none;stroke-width:1.5px;stroke:white;"/>
                <path d="M787.653,236.538C790.597,240.346 793.525,244.146 796.437,247.938C799.349,251.73 802.277,255.53 805.221,259.338C808.165,255.53 811.093,251.73 814.005,247.938C816.917,244.146 819.845,240.346 822.789,236.538L822.789,271.674L818.805,271.674L818.805,249.114C818.837,248.858 818.861,248.602 818.877,248.346C818.893,248.09 818.917,247.834 818.949,247.578C816.837,250.714 814.597,253.762 812.229,256.722C809.861,259.682 807.525,262.666 805.221,265.674C803.077,262.858 800.933,260.058 798.789,257.274C796.645,254.49 794.501,251.69 792.357,248.874L791.493,247.578C791.525,247.834 791.549,248.09 791.565,248.346C791.581,248.602 791.605,248.858 791.637,249.114L791.637,271.674L787.653,271.674L787.653,236.538Z" style="fill:none;stroke-width:1.5px;stroke:white;"/>
                <path d="M830.181,271.674L830.181,238.074L850.869,238.074L850.869,241.866L834.165,241.866L834.165,252.858L848.997,252.858L848.997,256.65L834.165,256.65L834.165,267.882L851.541,267.882L851.541,271.674L830.181,271.674Z" style="fill:none;stroke-width:1.5px;stroke:white;"/>
                <path d="M883.941,272.058C882.213,272.058 880.613,271.818 879.141,271.338C877.669,270.858 876.389,270.146 875.301,269.202C874.213,268.258 873.365,267.082 872.757,265.674C872.149,264.266 871.845,262.65 871.845,260.826L871.845,238.074L875.829,238.074L875.829,260.682C875.829,261.898 876.029,262.978 876.429,263.922C876.829,264.866 877.389,265.658 878.109,266.298C878.829,266.938 879.685,267.426 880.677,267.762C881.669,268.098 882.757,268.266 883.941,268.266C885.125,268.266 886.213,268.098 887.205,267.762C888.197,267.426 889.053,266.938 889.773,266.298C890.493,265.658 891.061,264.866 891.477,263.922C891.893,262.978 892.101,261.898 892.101,260.682L892.101,238.074L896.085,238.074L896.085,260.826C896.085,262.65 895.773,264.266 895.149,265.674C894.525,267.082 893.669,268.258 892.581,269.202C891.493,270.146 890.213,270.858 888.741,271.338C887.269,271.818 885.669,272.058 883.941,272.058Z" style="fill:none;stroke-width:1.5px;stroke:white;"/>
                <path d="M932.661,238.074L932.661,273.21C928.533,268.826 924.437,264.474 920.373,260.154C916.309,255.834 912.213,251.482 908.085,247.098C907.925,246.874 907.773,246.666 907.629,246.474C907.485,246.282 907.333,246.074 907.173,245.85C907.205,246.106 907.229,246.362 907.245,246.618C907.261,246.874 907.285,247.13 907.317,247.386L907.317,271.674L903.333,271.674L903.333,236.538C907.461,241.018 911.557,245.458 915.621,249.858C919.685,254.258 923.781,258.698 927.909,263.178C928.069,263.402 928.221,263.61 928.365,263.802C928.509,263.994 928.661,264.202 928.821,264.426C928.789,264.17 928.765,263.914 928.749,263.658C928.733,263.402 928.709,263.146 928.677,262.89L928.677,238.074L932.661,238.074Z" style="fill:none;stroke-width:1.5px;stroke:white;"/>
                <rect x="941.349" y="238.074" width="3.984" height="33.6" style="fill:none;stroke-width:1.5px;stroke:white;"/>
                <path d="M975.669,266.49L977.829,269.658C976.549,270.394 975.181,270.978 973.725,271.41C972.269,271.842 970.725,272.058 969.093,272.058C966.725,272.058 964.501,271.61 962.421,270.714C960.341,269.818 958.525,268.594 956.973,267.042C955.421,265.49 954.197,263.674 953.301,261.594C952.405,259.514 951.957,257.29 951.957,254.922C951.957,252.554 952.405,250.322 953.301,248.226C954.197,246.13 955.421,244.306 956.973,242.754C958.525,241.202 960.341,239.97 962.421,239.058C964.501,238.146 966.725,237.69 969.093,237.69C970.725,237.69 972.269,237.898 973.725,238.314C975.181,238.73 976.565,239.322 977.877,240.09C977.525,240.634 977.157,241.17 976.773,241.698C976.389,242.226 976.021,242.762 975.669,243.306C974.677,242.73 973.637,242.282 972.549,241.962C971.461,241.642 970.309,241.482 969.093,241.482C967.269,241.482 965.565,241.834 963.981,242.538C962.397,243.242 961.005,244.21 959.805,245.442C958.605,246.674 957.661,248.106 956.973,249.738C956.285,251.37 955.941,253.098 955.941,254.922C955.941,256.746 956.285,258.474 956.973,260.106C957.661,261.738 958.605,263.154 959.805,264.354C961.005,265.554 962.397,266.506 963.981,267.21C965.565,267.914 967.269,268.266 969.093,268.266C971.461,268.266 973.653,267.674 975.669,266.49Z" style="fill:none;stroke-width:1.5px;stroke:white;"/>
                <path d="M983.157,254.922C983.157,252.586 983.605,250.37 984.501,248.274C985.397,246.178 986.621,244.346 988.173,242.778C989.725,241.21 991.541,239.97 993.621,239.058C995.701,238.146 997.925,237.69 1000.29,237.69C1002.63,237.69 1004.84,238.146 1006.94,239.058C1009.04,239.97 1010.87,241.21 1012.44,242.778C1014,244.346 1015.24,246.178 1016.16,248.274C1017.07,250.37 1017.52,252.586 1017.52,254.922C1017.52,257.29 1017.07,259.514 1016.16,261.594C1015.24,263.674 1014,265.49 1012.44,267.042C1010.87,268.594 1009.04,269.818 1006.94,270.714C1004.84,271.61 1002.63,272.058 1000.29,272.058C997.925,272.058 995.701,271.61 993.621,270.714C991.541,269.818 989.725,268.594 988.173,267.042C986.621,265.49 985.397,263.674 984.501,261.594C983.605,259.514 983.157,257.29 983.157,254.922ZM987.141,254.922C987.141,256.778 987.485,258.514 988.173,260.13C988.861,261.746 989.805,263.154 991.005,264.354C992.205,265.554 993.605,266.506 995.205,267.21C996.805,267.914 998.517,268.266 1000.34,268.266C1002.16,268.266 1003.88,267.914 1005.48,267.21C1007.08,266.506 1008.48,265.554 1009.68,264.354C1010.88,263.154 1011.82,261.746 1012.51,260.13C1013.2,258.514 1013.54,256.778 1013.54,254.922C1013.54,253.066 1013.2,251.33 1012.51,249.714C1011.82,248.098 1010.88,246.682 1009.68,245.466C1008.48,244.25 1007.08,243.29 1005.48,242.586C1003.88,241.882 1002.16,241.53 1000.34,241.53C998.517,241.53 996.805,241.882 995.205,242.586C993.605,243.29 992.205,244.25 991.005,245.466C989.805,246.682 988.861,248.098 988.173,249.714C987.485,251.33 987.141,253.066 987.141,254.922Z" style="fill:none;stroke-width:1.5px;stroke:white;"/>
                <path d="M1022.42,238.074L1030.24,238.074C1032.55,238.074 1034.72,238.466 1036.77,239.25C1038.82,240.034 1040.61,241.162 1042.15,242.634C1043.68,244.106 1044.9,245.874 1045.8,247.938C1046.69,250.002 1047.14,252.33 1047.14,254.922C1047.14,256.81 1046.81,258.746 1046.16,260.73C1045.5,262.714 1044.44,264.514 1042.96,266.13C1041.49,267.746 1039.58,269.074 1037.23,270.114C1034.88,271.154 1032,271.674 1028.61,271.674L1022.42,271.674L1022.42,238.074ZM1026.4,241.866L1026.4,267.834L1029.76,267.834C1031.65,267.834 1033.41,267.53 1035.04,266.922C1036.68,266.314 1038.09,265.442 1039.29,264.306C1040.49,263.17 1041.44,261.81 1042.12,260.226C1042.81,258.642 1043.16,256.858 1043.16,254.874C1043.16,252.89 1042.81,251.098 1042.12,249.498C1041.44,247.898 1040.49,246.53 1039.29,245.394C1038.09,244.258 1036.68,243.386 1035.04,242.778C1033.41,242.17 1031.65,241.866 1029.76,241.866L1026.4,241.866Z" style="fill:none;stroke-width:1.5px;stroke:white;"/>
                <path d="M1053.19,271.674L1053.19,238.074L1073.88,238.074L1073.88,241.866L1057.17,241.866L1057.17,252.858L1072,252.858L1072,256.65L1057.17,256.65L1057.17,267.882L1074.55,267.882L1074.55,271.674L1053.19,271.674Z" style="fill:none;stroke-width:1.5px;stroke:white;"/>
            </g>
        </g>
    </g>
    <g id="Layer2">
        <rect x="-3.73035e-14" y="-3.64153e-14" width="1280" height="720" style="fill:rgb(144,96,193);"/>
        <g>
            <g>
                <path d="M409.157,451.706L506.29,451.706L506.911,451.688L507.551,451.666L508.185,451.642L508.498,451.629L508.811,451.615L509.122,451.6L509.431,451.585L509.739,451.569L510.045,451.552L510.349,451.535L510.652,451.517L510.953,451.497L511.253,451.477L511.551,451.457L511.847,451.435L512.142,451.412L512.436,451.389L512.727,451.364L513.018,451.339L513.307,451.313L513.594,451.286L513.88,451.257L514.164,451.228L514.447,451.198L514.728,451.167L515.008,451.134L515.286,451.101L515.563,451.067L515.839,451.031L516.113,450.995L516.385,450.957L516.657,450.918L516.926,450.878L517.195,450.837L517.462,450.794L517.727,450.751L517.992,450.706L518.254,450.66L518.516,450.613L518.776,450.564L519.035,450.514L519.293,450.463L519.549,450.411L519.804,450.357L520.057,450.302L520.31,450.245L520.561,450.187L520.811,450.128L521.06,450.068L521.307,450.005L521.553,449.942L521.798,449.877L522.042,449.811L522.285,449.743L522.526,449.673L522.767,449.602L523.006,449.53L523.244,449.456L523.481,449.381L523.717,449.303L523.952,449.225L524.185,449.144L524.418,449.062L524.65,448.979L524.881,448.893L525.11,448.807L525.339,448.718L525.567,448.628L525.793,448.535L526.019,448.442L526.244,448.346L526.468,448.249L526.691,448.149L526.913,448.048L527.134,447.945L527.355,447.841L527.575,447.734L527.793,447.625L528.012,447.515L528.229,447.402L528.445,447.288L528.661,447.172L528.876,447.053L529.09,446.933L529.304,446.811L529.517,446.686L529.729,446.559L529.941,446.431L530.152,446.3L530.362,446.167L530.572,446.032L530.781,445.894L530.99,445.755L531.198,445.613L531.405,445.468L531.612,445.322L531.819,445.173L532.025,445.022L532.23,444.869L532.435,444.713L532.64,444.555L532.844,444.394L533.047,444.231L533.25,444.065L533.453,443.897L533.656,443.726L533.858,443.553L534.059,443.377L534.261,443.199L534.461,443.018L534.662,442.834L534.862,442.647L535.062,442.458L535.262,442.267L535.461,442.072L535.66,441.875L535.859,441.675L536.058,441.472L536.256,441.266L536.454,441.057L536.652,440.846L536.849,440.632L537.047,440.414L537.244,440.194L537.441,439.97L537.648,439.732L537.854,439.494L538.057,439.257L538.257,439.02L538.455,438.784L538.651,438.548L538.844,438.312L539.035,438.077L539.223,437.842L539.41,437.607L539.594,437.373L539.775,437.139L539.955,436.906L540.132,436.673L540.307,436.44L540.479,436.207L540.65,435.975L540.818,435.742L540.984,435.51L541.148,435.278L541.309,435.047L541.469,434.815L541.626,434.584L541.781,434.352L541.935,434.121L542.086,433.89L542.235,433.658L542.382,433.427L542.527,433.196L542.67,432.965L542.811,432.733L542.95,432.502L543.087,432.27L543.222,432.039L543.356,431.807L543.487,431.575L543.616,431.343L543.744,431.111L543.869,430.878L543.993,430.646L544.115,430.413L544.235,430.179L544.354,429.946L544.47,429.712L544.585,429.478L544.698,429.243L544.81,429.008L544.919,428.773L545.027,428.537L545.134,428.3L545.238,428.063L545.341,427.826L545.442,427.588L545.542,427.349L545.64,427.11L545.736,426.871L545.831,426.63L545.925,426.389L546.016,426.148L546.106,425.905L546.195,425.662L546.282,425.418L546.368,425.174L546.452,424.928L546.535,424.682L546.616,424.435L546.696,424.187L546.774,423.938L546.851,423.688L546.926,423.438L547,423.186L547.073,422.934L547.144,422.68L547.214,422.425L547.283,422.17L547.35,421.913L547.416,421.655L547.481,421.396L547.544,421.136L547.607,420.875L547.667,420.612L547.727,420.349L547.785,420.084L547.842,419.818L547.898,419.551L547.953,419.282L548.006,419.012L548.058,418.741L548.109,418.468L548.159,418.195L548.208,417.919L548.256,417.642L548.302,417.364L548.347,417.085L548.392,416.804L548.435,416.521L548.477,416.237L548.518,415.952L548.558,415.665L548.596,415.376L548.634,415.086L548.671,414.794L548.707,414.501L548.741,414.206L548.775,413.909L548.808,413.611L548.84,413.311L548.87,413.009L548.9,412.705L548.929,412.4L548.957,412.093L548.984,411.784L549.01,411.474L549.036,411.161L549.06,410.847L549.084,410.531L549.106,410.213L549.128,409.893L549.149,409.571L549.169,409.248L549.189,408.922L549.207,408.594L549.225,408.265L549.242,407.933L549.258,407.6L549.274,407.264L549.289,406.927L549.301,406.625L549.301,310.096L549.278,309.541L549.25,308.955L549.235,308.666L549.22,308.377L549.204,308.09L549.187,307.804L549.169,307.521L549.151,307.238L549.132,306.957L549.112,306.678L549.091,306.4L549.07,306.124L549.047,305.849L549.024,305.575L549,305.303L548.975,305.033L548.95,304.763L548.923,304.496L548.896,304.229L548.867,303.964L548.838,303.701L548.808,303.438L548.776,303.178L548.744,302.918L548.711,302.66L548.677,302.403L548.641,302.147L548.605,301.892L548.568,301.639L548.529,301.387L548.49,301.136L548.449,300.886L548.408,300.638L548.365,300.391L548.321,300.145L548.276,299.899L548.23,299.656L548.182,299.413L548.134,299.171L548.084,298.93L548.033,298.691L547.981,298.452L547.927,298.214L547.873,297.978L547.817,297.742L547.759,297.507L547.701,297.274L547.641,297.041L547.58,296.809L547.517,296.578L547.453,296.348L547.388,296.118L547.321,295.89L547.253,295.662L547.184,295.435L547.113,295.209L547.04,294.983L546.967,294.759L546.891,294.535L546.814,294.311L546.736,294.089L546.656,293.867L546.575,293.645L546.492,293.425L546.407,293.205L546.321,292.985L546.233,292.766L546.144,292.547L546.053,292.329L545.96,292.112L545.866,291.895L545.77,291.678L545.672,291.462L545.572,291.246L545.471,291.031L545.368,290.816L545.263,290.601L545.157,290.387L545.048,290.173L544.938,289.959L544.825,289.745L544.711,289.532L544.595,289.319L544.477,289.106L544.358,288.893L544.236,288.681L544.112,288.469L543.986,288.256L543.858,288.044L543.728,287.832L543.596,287.621L543.462,287.409L543.326,287.197L543.188,286.985L543.047,286.773L542.905,286.562L542.76,286.35L542.613,286.138L542.464,285.926L542.313,285.714L542.159,285.502L542.003,285.29L541.845,285.078L541.684,284.865L541.521,284.652L541.356,284.44L541.188,284.227L541.018,284.013L540.845,283.8L540.671,283.586L540.493,283.372L540.313,283.158L540.131,282.944L539.946,282.729L539.759,282.514L539.569,282.299L539.376,282.083L539.181,281.867L538.983,281.65L538.783,281.434L538.58,281.216L538.374,280.999L538.166,280.781L537.954,280.562L537.741,280.343L537.524,280.124L537.298,279.897L537.072,279.673L536.846,279.452L536.621,279.234L536.396,279.019L536.172,278.807L535.948,278.598L535.724,278.392L535.501,278.188L535.278,277.987L535.056,277.79L534.833,277.595L534.611,277.403L534.39,277.213L534.169,277.026L533.947,276.842L533.727,276.661L533.506,276.482L533.285,276.306L533.065,276.133L532.845,275.962L532.625,275.794L532.405,275.629L532.185,275.465L531.966,275.305L531.746,275.147L531.527,274.991L531.307,274.838L531.088,274.687L530.869,274.539L530.649,274.393L530.43,274.249L530.21,274.108L529.99,273.968L529.771,273.832L529.551,273.697L529.331,273.565L529.111,273.435L528.891,273.307L528.67,273.181L528.449,273.057L528.228,272.936L528.007,272.817L527.786,272.699L527.564,272.584L527.342,272.471L527.119,272.359L526.896,272.25L526.673,272.143L526.449,272.037L526.225,271.934L526,271.833L525.775,271.733L525.55,271.635L525.324,271.539L525.097,271.445L524.869,271.353L524.642,271.262L524.413,271.173L524.184,271.086L523.954,271.001L523.723,270.917L523.492,270.835L523.26,270.755L523.027,270.676L522.794,270.599L522.56,270.524L522.324,270.45L522.088,270.377L521.851,270.307L521.614,270.238L521.375,270.17L521.135,270.104L520.895,270.039L520.653,269.976L520.41,269.914L520.167,269.854L519.922,269.795L519.676,269.737L519.43,269.681L519.182,269.626L518.933,269.573L518.683,269.521L518.431,269.47L518.179,269.42L517.925,269.372L517.67,269.325L517.414,269.28L517.157,269.235L516.898,269.192L516.638,269.15L516.377,269.109L516.114,269.07L515.85,269.031L515.585,268.994L515.318,268.957L515.05,268.922L514.78,268.888L514.509,268.855L514.237,268.823L513.963,268.793L513.688,268.763L513.411,268.734L513.133,268.706L512.853,268.679L512.572,268.653L512.289,268.628L512.004,268.604L511.718,268.581L511.43,268.559L511.141,268.538L510.85,268.517L510.557,268.498L510.263,268.479L509.967,268.461L509.67,268.444L509.37,268.427L509.069,268.412L508.766,268.397L508.462,268.383L508.155,268.369L507.848,268.356L507.226,268.333L506.597,268.312L505.985,268.294L409.342,268.294L408.731,268.312L408.102,268.333L407.479,268.356L407.172,268.369L406.866,268.383L406.561,268.397L406.259,268.412L405.958,268.427L405.658,268.444L405.36,268.461L405.064,268.479L404.77,268.498L404.477,268.517L404.186,268.538L403.897,268.559L403.609,268.581L403.323,268.604L403.038,268.628L402.755,268.653L402.474,268.679L402.193,268.706L401.915,268.734L401.638,268.763L401.362,268.793L401.088,268.823L400.816,268.855L400.545,268.888L400.275,268.922L400.006,268.957L399.74,268.994L399.474,269.031L399.21,269.07L398.947,269.109L398.685,269.15L398.425,269.192L398.166,269.235L397.908,269.28L397.652,269.325L397.396,269.372L397.142,269.421L396.889,269.47L396.638,269.521L396.387,269.573L396.138,269.626L395.89,269.681L395.643,269.737L395.396,269.795L395.151,269.854L394.907,269.914L394.664,269.976L394.423,270.039L394.181,270.104L393.941,270.17L393.702,270.238L393.464,270.307L393.227,270.378L392.991,270.45L392.755,270.524L392.52,270.599L392.286,270.676L392.053,270.755L391.821,270.835L391.589,270.917L391.359,271.001L391.128,271.086L390.899,271.174L390.67,271.262L390.442,271.353L390.214,271.445L389.987,271.539L389.761,271.635L389.535,271.733L389.309,271.833L389.084,271.934L388.86,272.038L388.636,272.143L388.413,272.251L388.189,272.36L387.967,272.471L387.744,272.584L387.522,272.7L387.3,272.817L387.079,272.936L386.858,273.058L386.637,273.181L386.416,273.307L386.196,273.435L385.976,273.565L385.756,273.697L385.536,273.832L385.316,273.969L385.096,274.108L384.877,274.249L384.657,274.393L384.438,274.539L384.218,274.687L383.999,274.838L383.779,274.991L383.56,275.147L383.34,275.305L383.121,275.465L382.901,275.628L382.682,275.794L382.462,275.962L382.242,276.133L382.022,276.306L381.801,276.482L381.581,276.661L381.36,276.842L381.139,277.026L380.918,277.213L380.697,277.402L380.475,277.594L380.253,277.789L380.031,277.987L379.809,278.187L379.586,278.391L379.363,278.597L379.139,278.806L378.915,279.018L378.691,279.233L378.466,279.451L378.241,279.672L378.016,279.896L377.79,280.123L377.547,280.369L377.307,280.616L377.071,280.861L376.839,281.106L376.609,281.351L376.384,281.595L376.161,281.838L375.942,282.081L375.726,282.324L375.513,282.566L375.303,282.808L375.097,283.049L374.894,283.29L374.694,283.531L374.497,283.771L374.303,284.011L374.112,284.251L373.924,284.491L373.739,284.73L373.557,284.969L373.378,285.208L373.202,285.447L373.029,285.685L372.859,285.924L372.691,286.162L372.527,286.401L372.365,286.639L372.206,286.877L372.049,287.115L371.895,287.353L371.744,287.592L371.596,287.83L371.45,288.069L371.307,288.307L371.166,288.546L371.028,288.785L370.892,289.024L370.759,289.263L370.628,289.503L370.499,289.743L370.373,289.983L370.25,290.224L370.128,290.464L370.009,290.706L369.892,290.948L369.778,291.19L369.665,291.432L369.555,291.675L369.447,291.919L369.341,292.164L369.238,292.408L369.136,292.654L369.036,292.9L368.939,293.147L368.843,293.394L368.75,293.643L368.658,293.892L368.569,294.142L368.481,294.392L368.395,294.644L368.311,294.896L368.229,295.15L368.149,295.404L368.071,295.659L367.994,295.915L367.919,296.172L367.846,296.431L367.775,296.69L367.705,296.951L367.637,297.212L367.571,297.475L367.506,297.739L367.443,298.004L367.382,298.27L367.322,298.538L367.264,298.807L367.207,299.077L367.152,299.349L367.098,299.621L367.046,299.896L366.995,300.171L366.946,300.449L366.898,300.727L366.851,301.007L366.806,301.289L366.763,301.572L366.72,301.856L366.679,302.142L366.639,302.43L366.601,302.719L366.564,303.011L366.528,303.303L366.493,303.597L366.459,303.894L366.427,304.191L366.396,304.491L366.366,304.792L366.337,305.095L366.309,305.4L366.282,305.706L366.256,306.015L366.232,306.325L366.208,306.637L366.186,306.951L366.164,307.267L366.143,307.585L366.123,307.905L366.105,308.227L366.087,308.551L366.07,308.876L366.054,309.204L366.038,309.534L366.024,309.866L366.01,310.2L365.997,310.536L365.985,310.875L365.973,311.215L365.962,311.557L365.943,312.25L365.926,312.95L365.911,313.66L365.899,314.379L365.888,315.096L365.888,404.909L365.899,405.626L365.911,406.345L365.926,407.055L365.943,407.755L365.962,408.448L365.973,408.79L365.985,409.13L365.997,409.469L366.01,409.805L366.024,410.139L366.038,410.471L366.054,410.801L366.07,411.129L366.087,411.455L366.105,411.778L366.123,412.1L366.143,412.42L366.164,412.738L366.186,413.054L366.208,413.368L366.232,413.68L366.256,413.991L366.282,414.299L366.309,414.606L366.337,414.91L366.366,415.213L366.396,415.515L366.427,415.814L366.459,416.112L366.493,416.408L366.528,416.702L366.564,416.995L366.601,417.286L366.639,417.575L366.679,417.863L366.72,418.149L366.763,418.434L366.806,418.717L366.851,418.998L366.898,419.278L366.946,419.557L366.995,419.834L367.046,420.11L367.098,420.384L367.152,420.657L367.207,420.928L367.264,421.198L367.322,421.467L367.382,421.735L367.443,422.001L367.506,422.266L367.571,422.53L367.637,422.793L367.705,423.055L367.775,423.315L367.846,423.575L367.919,423.833L367.994,424.09L368.071,424.346L368.149,424.601L368.229,424.856L368.311,425.109L368.395,425.361L368.481,425.613L368.569,425.864L368.658,426.113L368.75,426.363L368.843,426.611L368.939,426.858L369.036,427.105L369.136,427.351L369.238,427.597L369.341,427.842L369.447,428.086L369.555,428.33L369.665,428.573L369.778,428.816L369.892,429.058L370.009,429.3L370.128,429.541L370.25,429.782L370.373,430.022L370.499,430.262L370.628,430.502L370.759,430.742L370.892,430.981L371.028,431.22L371.166,431.459L371.307,431.698L371.45,431.937L371.596,432.175L371.744,432.413L371.895,432.652L372.049,432.89L372.206,433.128L372.365,433.366L372.527,433.605L372.691,433.843L372.859,434.081L373.029,434.32L373.202,434.559L373.378,434.797L373.557,435.036L373.739,435.275L373.924,435.514L374.112,435.754L374.303,435.994L374.497,436.234L374.694,436.474L374.894,436.715L375.097,436.956L375.303,437.198L375.513,437.439L375.726,437.681L375.942,437.924L376.161,438.167L376.383,438.411L376.609,438.655L376.839,438.899L377.071,439.144L377.307,439.39L377.547,439.636L377.79,439.883L378.015,440.108L378.239,440.331L378.463,440.551L378.687,440.768L378.91,440.982L379.133,441.194L379.356,441.402L379.578,441.607L379.8,441.81L380.021,442.01L380.242,442.207L380.463,442.401L380.684,442.592L380.904,442.781L381.125,442.967L381.344,443.15L381.564,443.331L381.784,443.509L382.003,443.684L382.222,443.857L382.441,444.027L382.66,444.195L382.879,444.36L383.097,444.522L383.316,444.683L383.534,444.84L383.753,444.995L383.971,445.148L384.19,445.299L384.408,445.447L384.627,445.592L384.845,445.736L385.064,445.877L385.282,446.015L385.501,446.152L385.72,446.286L385.939,446.418L386.158,446.548L386.378,446.676L386.597,446.801L386.817,446.925L387.037,447.046L387.258,447.165L387.478,447.283L387.699,447.398L387.921,447.511L388.142,447.622L388.364,447.731L388.587,447.839L388.81,447.944L389.033,448.047L389.257,448.149L389.481,448.248L389.706,448.346L389.931,448.442L390.157,448.536L390.383,448.629L390.61,448.719L390.838,448.808L391.066,448.895L391.295,448.981L391.525,449.065L391.755,449.147L391.986,449.227L392.218,449.306L392.451,449.383L392.684,449.459L392.919,449.533L393.154,449.605L393.39,449.676L393.626,449.746L393.864,449.813L394.103,449.88L394.342,449.945L394.583,450.008L394.824,450.07L395.067,450.131L395.311,450.19L395.555,450.248L395.801,450.304L396.048,450.359L396.295,450.413L396.544,450.465L396.794,450.516L397.046,450.566L397.298,450.614L397.552,450.662L397.807,450.708L398.063,450.752L398.32,450.796L398.579,450.838L398.839,450.879L399.1,450.919L399.362,450.958L399.626,450.996L399.891,451.032L400.158,451.068L400.426,451.102L400.695,451.135L400.966,451.168L401.238,451.199L401.512,451.229L401.787,451.258L402.063,451.286L402.341,451.313L402.621,451.34L402.902,451.365L403.185,451.389L403.469,451.413L403.755,451.435L404.042,451.457L404.331,451.478L404.622,451.498L404.914,451.517L405.207,451.535L405.503,451.553L405.8,451.569L406.099,451.585L406.399,451.601L406.702,451.615L407.006,451.629L407.31,451.642L407.928,451.666L408.552,451.688L409.157,451.706ZM409.097,455.635L408.424,455.614L407.783,455.592L407.149,455.567L406.832,455.554L406.518,455.539L406.206,455.524L405.895,455.509L405.585,455.492L405.276,455.475L404.969,455.456L404.663,455.437L404.358,455.417L404.055,455.397L403.753,455.375L403.452,455.352L403.153,455.329L402.855,455.304L402.557,455.278L402.262,455.252L401.967,455.224L401.673,455.195L401.381,455.166L401.09,455.135L400.799,455.103L400.51,455.07L400.222,455.035L399.935,455L399.649,454.963L399.364,454.925L399.08,454.886L398.797,454.846L398.515,454.804L398.234,454.761L397.954,454.717L397.675,454.671L397.397,454.624L397.12,454.576L396.844,454.526L396.568,454.475L396.294,454.422L396.02,454.368L395.747,454.312L395.475,454.255L395.204,454.196L394.934,454.136L394.664,454.074L394.395,454.01L394.127,453.945L393.86,453.879L393.594,453.81L393.328,453.74L393.063,453.668L392.798,453.595L392.535,453.519L392.272,453.442L392.01,453.364L391.748,453.283L391.487,453.201L391.227,453.116L390.968,453.03L390.709,452.942L390.45,452.852L390.193,452.76L389.936,452.667L389.679,452.571L389.423,452.473L389.168,452.374L388.913,452.272L388.659,452.168L388.405,452.062L388.152,451.955L387.9,451.845L387.648,451.733L387.396,451.619L387.145,451.502L386.895,451.384L386.644,451.263L386.395,451.141L386.146,451.016L385.897,450.889L385.649,450.759L385.402,450.628L385.154,450.494L384.907,450.358L384.661,450.22L384.415,450.079L384.169,449.936L383.924,449.791L383.679,449.643L383.434,449.493L383.19,449.341L382.946,449.186L382.703,449.029L382.459,448.869L382.217,448.707L381.974,448.543L381.731,448.376L381.489,448.206L381.247,448.034L381.006,447.86L380.764,447.683L380.523,447.504L380.282,447.322L380.041,447.138L379.8,446.95L379.56,446.761L379.32,446.569L379.079,446.374L378.839,446.176L378.599,445.976L378.359,445.773L378.119,445.568L377.879,445.36L377.639,445.149L377.4,444.935L377.16,444.719L376.92,444.5L376.68,444.278L376.44,444.054L376.2,443.826L375.96,443.596L375.72,443.363L375.479,443.127L375.239,442.889L374.998,442.647L374.739,442.384L374.483,442.121L374.23,441.858L373.981,441.595L373.735,441.333L373.492,441.07L373.253,440.808L373.016,440.546L372.783,440.284L372.553,440.022L372.326,439.76L372.102,439.499L371.881,439.237L371.664,438.975L371.449,438.713L371.238,438.451L371.029,438.189L370.824,437.927L370.621,437.665L370.422,437.403L370.225,437.141L370.031,436.878L369.841,436.615L369.653,436.352L369.468,436.089L369.286,435.825L369.107,435.562L368.93,435.298L368.757,435.033L368.586,434.769L368.418,434.504L368.253,434.239L368.09,433.973L367.931,433.707L367.774,433.441L367.619,433.174L367.468,432.907L367.319,432.639L367.172,432.371L367.028,432.102L366.887,431.833L366.749,431.564L366.612,431.294L366.479,431.023L366.348,430.753L366.22,430.481L366.094,430.209L365.97,429.936L365.849,429.663L365.73,429.389L365.614,429.114L365.5,428.839L365.389,428.564L365.279,428.287L365.173,428.01L365.068,427.733L364.966,427.454L364.866,427.175L364.768,426.895L364.672,426.615L364.579,426.334L364.487,426.052L364.398,425.769L364.311,425.486L364.226,425.201L364.143,424.916L364.062,424.63L363.983,424.344L363.907,424.056L363.832,423.768L363.759,423.478L363.688,423.188L363.618,422.897L363.551,422.605L363.485,422.312L363.422,422.018L363.36,421.723L363.3,421.427L363.241,421.131L363.185,420.833L363.13,420.534L363.076,420.234L363.024,419.933L362.974,419.631L362.926,419.327L362.879,419.023L362.833,418.718L362.789,418.411L362.746,418.103L362.705,417.794L362.666,417.484L362.627,417.172L362.59,416.859L362.555,416.545L362.52,416.23L362.487,415.913L362.456,415.595L362.425,415.276L362.396,414.955L362.368,414.633L362.341,414.309L362.315,413.984L362.29,413.657L362.267,413.329L362.244,413L362.223,412.669L362.202,412.336L362.182,412.002L362.164,411.666L362.146,411.328L362.129,410.989L362.114,410.648L362.099,410.306L362.084,409.962L362.071,409.615L362.058,409.268L362.047,408.918L362.035,408.566L362.015,407.859L361.998,407.143L361.983,406.419L361.971,405.688L361.96,404.937L361.96,315.068L361.971,314.317L361.983,313.586L361.998,312.862L362.015,312.146L362.035,311.439L362.047,311.087L362.058,310.737L362.071,310.39L362.084,310.044L362.099,309.699L362.114,309.357L362.129,309.016L362.146,308.677L362.164,308.339L362.182,308.004L362.202,307.669L362.223,307.336L362.244,307.005L362.267,306.676L362.29,306.348L362.315,306.021L362.341,305.696L362.368,305.372L362.396,305.05L362.425,304.729L362.456,304.41L362.487,304.092L362.52,303.775L362.555,303.46L362.59,303.146L362.627,302.833L362.666,302.521L362.705,302.211L362.746,301.902L362.789,301.594L362.833,301.288L362.879,300.982L362.926,300.678L362.974,300.375L363.024,300.072L363.076,299.771L363.13,299.471L363.185,299.172L363.241,298.875L363.3,298.578L363.36,298.282L363.422,297.987L363.485,297.693L363.551,297.4L363.618,297.108L363.688,296.817L363.759,296.527L363.832,296.238L363.907,295.949L363.983,295.662L364.062,295.375L364.143,295.089L364.226,294.804L364.311,294.52L364.398,294.236L364.487,293.954L364.579,293.672L364.672,293.39L364.768,293.11L364.866,292.83L364.966,292.551L365.068,292.273L365.173,291.995L365.279,291.718L365.389,291.442L365.5,291.166L365.614,290.891L365.73,290.616L365.849,290.343L365.97,290.069L366.094,289.797L366.22,289.524L366.348,289.253L366.479,288.982L366.612,288.711L366.749,288.441L366.887,288.172L367.028,287.903L367.172,287.634L367.319,287.366L367.468,287.099L367.619,286.831L367.774,286.565L367.931,286.298L368.09,286.032L368.253,285.767L368.418,285.501L368.586,285.236L368.757,284.972L368.93,284.707L369.107,284.444L369.286,284.18L369.468,283.916L369.653,283.653L369.841,283.39L370.031,283.127L370.225,282.865L370.422,282.602L370.621,282.34L370.824,282.078L371.029,281.816L371.238,281.554L371.449,281.292L371.664,281.03L371.881,280.768L372.102,280.507L372.326,280.245L372.553,279.983L372.783,279.721L373.016,279.459L373.253,279.197L373.492,278.935L373.735,278.673L373.981,278.41L374.23,278.147L374.483,277.885L374.739,277.622L374.998,277.358L375.24,277.116L375.481,276.876L375.723,276.639L375.964,276.405L376.205,276.174L376.446,275.945L376.687,275.72L376.928,275.497L377.169,275.277L377.41,275.06L377.651,274.846L377.892,274.634L378.133,274.425L378.374,274.219L378.615,274.015L378.856,273.815L379.098,273.616L379.339,273.421L379.581,273.228L379.822,273.038L380.064,272.85L380.306,272.665L380.548,272.483L380.79,272.303L381.033,272.125L381.276,271.95L381.519,271.778L381.762,271.608L382.005,271.441L382.249,271.276L382.493,271.114L382.738,270.954L382.983,270.796L383.227,270.641L383.473,270.488L383.719,270.338L383.965,270.19L384.211,270.045L384.458,269.901L384.705,269.761L384.953,269.622L385.201,269.486L385.449,269.352L385.698,269.22L385.948,269.091L386.198,268.963L386.448,268.838L386.698,268.716L386.95,268.595L387.202,268.476L387.454,268.36L387.707,268.246L387.96,268.134L388.214,268.024L388.468,267.916L388.723,267.811L388.978,267.707L389.234,267.605L389.491,267.506L389.748,267.408L390.006,267.313L390.265,267.219L390.524,267.127L390.783,267.037L391.043,266.95L391.304,266.864L391.566,266.78L391.828,266.697L392.091,266.617L392.355,266.538L392.619,266.461L392.884,266.386L393.15,266.313L393.416,266.242L393.684,266.172L393.952,266.104L394.22,266.037L394.49,265.972L394.76,265.909L395.031,265.847L395.303,265.787L395.576,265.729L395.849,265.672L396.124,265.617L396.399,265.563L396.675,265.511L396.952,265.46L397.23,265.41L397.509,265.362L397.788,265.315L398.069,265.27L398.351,265.226L398.634,265.183L398.917,265.142L399.202,265.102L399.487,265.063L399.774,265.026L400.062,264.989L400.35,264.954L400.64,264.92L400.931,264.888L401.223,264.856L401.517,264.826L401.811,264.796L402.106,264.768L402.403,264.741L402.701,264.714L403,264.689L403.3,264.665L403.601,264.642L403.904,264.619L404.208,264.598L404.513,264.578L404.82,264.558L405.128,264.539L405.437,264.521L405.748,264.504L406.06,264.488L406.373,264.473L406.688,264.458L407.004,264.444L407.323,264.431L407.962,264.407L408.607,264.385L409.284,264.365L506.043,264.365L506.72,264.385L507.366,264.407L508.005,264.431L508.323,264.444L508.64,264.458L508.954,264.473L509.268,264.488L509.58,264.504L509.89,264.521L510.2,264.539L510.508,264.558L510.814,264.578L511.119,264.598L511.423,264.619L511.726,264.642L512.027,264.665L512.327,264.689L512.626,264.714L512.924,264.741L513.221,264.768L513.516,264.796L513.81,264.826L514.103,264.856L514.395,264.888L514.685,264.92L514.975,264.954L515.264,264.99L515.551,265.026L515.838,265.063L516.123,265.102L516.407,265.142L516.691,265.183L516.973,265.226L517.254,265.27L517.535,265.315L517.814,265.362L518.093,265.41L518.37,265.46L518.647,265.511L518.923,265.563L519.198,265.617L519.472,265.672L519.745,265.729L520.018,265.788L520.289,265.848L520.56,265.909L520.83,265.972L521.099,266.037L521.367,266.104L521.635,266.172L521.902,266.242L522.168,266.313L522.434,266.387L522.698,266.462L522.962,266.538L523.225,266.617L523.488,266.697L523.75,266.78L524.011,266.864L524.272,266.95L524.532,267.038L524.791,267.127L525.05,267.219L525.308,267.313L525.565,267.408L525.822,267.506L526.079,267.606L526.334,267.707L526.59,267.811L526.844,267.917L527.098,268.025L527.352,268.134L527.605,268.246L527.857,268.361L528.109,268.477L528.361,268.595L528.612,268.716L528.862,268.839L529.112,268.964L529.362,269.091L529.611,269.22L529.86,269.352L530.108,269.486L530.356,269.622L530.603,269.761L530.85,269.902L531.097,270.045L531.343,270.191L531.589,270.338L531.834,270.489L532.08,270.641L532.325,270.796L532.569,270.954L532.813,271.114L533.057,271.276L533.301,271.441L533.544,271.608L533.788,271.778L534.031,271.95L534.273,272.125L534.516,272.303L534.758,272.482L535,272.665L535.242,272.85L535.484,273.038L535.726,273.228L535.967,273.421L536.209,273.616L536.45,273.814L536.691,274.015L536.933,274.218L537.174,274.425L537.415,274.633L537.656,274.845L537.897,275.059L538.138,275.276L538.38,275.496L538.621,275.719L538.862,275.944L539.104,276.173L539.345,276.404L539.587,276.638L539.828,276.874L540.07,277.114L540.312,277.357L540.544,277.591L540.772,277.825L540.998,278.059L541.221,278.292L541.442,278.526L541.66,278.759L541.876,278.992L542.089,279.225L542.299,279.458L542.507,279.691L542.712,279.924L542.915,280.157L543.116,280.39L543.314,280.622L543.509,280.855L543.702,281.088L543.893,281.321L544.081,281.554L544.267,281.786L544.45,282.019L544.632,282.253L544.81,282.486L544.986,282.719L545.161,282.952L545.332,283.186L545.502,283.42L545.669,283.654L545.833,283.888L545.996,284.122L546.156,284.356L546.314,284.591L546.47,284.826L546.623,285.061L546.775,285.296L546.924,285.532L547.071,285.768L547.215,286.004L547.358,286.24L547.498,286.477L547.637,286.714L547.773,286.952L547.907,287.189L548.039,287.427L548.168,287.666L548.296,287.905L548.422,288.144L548.546,288.383L548.667,288.623L548.787,288.864L548.904,289.105L549.02,289.346L549.134,289.587L549.245,289.829L549.355,290.072L549.463,290.315L549.569,290.558L549.673,290.802L549.775,291.047L549.875,291.292L549.973,291.537L550.07,291.783L550.164,292.029L550.257,292.276L550.348,292.524L550.437,292.772L550.525,293.021L550.611,293.27L550.695,293.519L550.777,293.77L550.857,294.021L550.936,294.272L551.013,294.524L551.089,294.777L551.163,295.03L551.235,295.284L551.306,295.539L551.375,295.794L551.443,296.05L551.509,296.307L551.573,296.564L551.636,296.823L551.698,297.081L551.757,297.341L551.816,297.601L551.873,297.862L551.929,298.124L551.983,298.386L552.036,298.65L552.088,298.914L552.138,299.179L552.187,299.444L552.234,299.711L552.28,299.978L552.325,300.247L552.369,300.516L552.412,300.786L552.453,301.057L552.493,301.329L552.532,301.601L552.57,301.875L552.606,302.149L552.642,302.425L552.676,302.702L552.709,302.979L552.741,303.258L552.773,303.537L552.803,303.818L552.832,304.1L552.86,304.382L552.887,304.666L552.913,304.951L552.938,305.237L552.963,305.524L552.986,305.813L553.009,306.102L553.03,306.393L553.051,306.684L553.071,306.977L553.09,307.271L553.108,307.567L553.126,307.864L553.143,308.161L553.159,308.461L553.174,308.763L553.202,309.366L553.23,310.013L553.23,406.706L553.214,407.094L553.199,407.441L553.183,407.786L553.166,408.13L553.148,408.472L553.13,408.812L553.111,409.15L553.091,409.487L553.07,409.822L553.048,410.155L553.025,410.486L553.002,410.816L552.977,411.145L552.952,411.472L552.926,411.797L552.898,412.121L552.87,412.443L552.841,412.764L552.811,413.083L552.779,413.401L552.747,413.717L552.714,414.032L552.679,414.345L552.644,414.657L552.607,414.968L552.57,415.277L552.531,415.585L552.491,415.892L552.45,416.197L552.408,416.501L552.364,416.804L552.32,417.105L552.274,417.405L552.227,417.705L552.179,418.002L552.129,418.299L552.078,418.595L552.026,418.889L551.973,419.182L551.918,419.474L551.862,419.765L551.805,420.055L551.746,420.344L551.686,420.632L551.624,420.918L551.561,421.204L551.497,421.489L551.431,421.773L551.364,422.055L551.295,422.337L551.225,422.618L551.153,422.898L551.08,423.177L551.006,423.455L550.929,423.732L550.852,424.009L550.772,424.284L550.691,424.559L550.609,424.833L550.525,425.106L550.439,425.378L550.352,425.65L550.263,425.921L550.172,426.19L550.08,426.46L549.986,426.728L549.89,426.996L549.793,427.263L549.694,427.53L549.593,427.795L549.49,428.06L549.386,428.325L549.28,428.589L549.172,428.852L549.062,429.114L548.951,429.376L548.837,429.638L548.722,429.899L548.605,430.159L548.486,430.419L548.366,430.678L548.243,430.937L548.119,431.195L547.992,431.453L547.864,431.71L547.734,431.967L547.602,432.224L547.468,432.48L547.332,432.735L547.194,432.991L547.054,433.245L546.912,433.5L546.768,433.754L546.622,434.008L546.474,434.262L546.324,434.515L546.172,434.768L546.018,435.02L545.862,435.273L545.704,435.525L545.543,435.777L545.381,436.029L545.217,436.28L545.05,436.532L544.882,436.783L544.711,437.034L544.538,437.285L544.363,437.536L544.186,437.786L544.006,438.037L543.825,438.288L543.641,438.539L543.455,438.789L543.267,439.04L543.077,439.29L542.884,439.541L542.689,439.792L542.492,440.043L542.293,440.293L542.092,440.545L541.888,440.796L541.682,441.047L541.473,441.298L541.262,441.55L541.049,441.802L540.834,442.054L540.616,442.306L540.395,442.56L540.181,442.803L539.965,443.044L539.748,443.283L539.531,443.519L539.313,443.751L539.095,443.981L538.876,444.208L538.657,444.433L538.437,444.654L538.216,444.873L537.995,445.089L537.773,445.302L537.55,445.513L537.327,445.72L537.103,445.925L536.879,446.128L536.653,446.327L536.427,446.524L536.201,446.719L535.974,446.911L535.746,447.1L535.517,447.286L535.287,447.47L535.057,447.651L534.826,447.83L534.595,448.006L534.362,448.18L534.129,448.351L533.895,448.519L533.661,448.685L533.425,448.849L533.189,449.01L532.952,449.168L532.715,449.324L532.476,449.478L532.237,449.629L531.997,449.778L531.756,449.925L531.515,450.069L531.273,450.21L531.03,450.35L530.786,450.487L530.541,450.622L530.295,450.754L530.049,450.884L529.802,451.012L529.554,451.137L529.305,451.261L529.056,451.382L528.806,451.501L528.554,451.618L528.302,451.732L528.05,451.845L527.796,451.955L527.542,452.063L527.286,452.169L527.03,452.273L526.773,452.375L526.516,452.475L526.257,452.573L525.998,452.669L525.738,452.763L525.476,452.855L525.214,452.945L524.952,453.033L524.688,453.119L524.423,453.203L524.158,453.286L523.892,453.366L523.624,453.445L523.356,453.522L523.088,453.598L522.818,453.671L522.547,453.743L522.275,453.813L522.003,453.881L521.729,453.948L521.455,454.013L521.18,454.076L520.904,454.138L520.626,454.198L520.348,454.257L520.069,454.314L519.789,454.37L519.508,454.424L519.226,454.476L518.943,454.528L518.659,454.577L518.374,454.626L518.088,454.673L517.801,454.718L517.513,454.763L517.224,454.805L516.934,454.847L516.642,454.887L516.35,454.926L516.057,454.964L515.762,455.001L515.467,455.036L515.17,455.07L514.872,455.103L514.573,455.135L514.273,455.166L513.972,455.196L513.67,455.225L513.366,455.252L513.062,455.279L512.756,455.304L512.449,455.329L512.141,455.352L511.831,455.375L511.52,455.397L511.209,455.418L510.895,455.438L510.581,455.457L510.265,455.475L509.948,455.492L509.63,455.509L509.31,455.525L508.989,455.54L508.667,455.554L508.343,455.567L507.693,455.592L507.036,455.615L506.348,455.635L409.097,455.635Z" style="fill:white;"/>
                <path d="M459.461,320.617C455.283,324.52 453.631,333.97 453.528,339.763C453.433,345.126 462.923,405.15 460.159,424.909C465.519,422.557 467.473,406.014 467.262,396.413C466.953,382.336 459.849,340.488 459.461,320.617L459.461,320.617ZM471.342,304.058L466.212,310.451C458.011,311.129 446.98,321.497 446.98,321.497L448.41,314.474C448.41,314.474 440.135,312.597 445.78,303.42C453.921,290.185 462.065,296.69 462.065,296.69L460.092,300.524C450.896,296.773 446.742,307.815 452.938,309.331C454.843,309.796 470.468,304.627 471.342,304.058L471.377,304.015C471.387,304.023 471.375,304.037 471.342,304.058Z" style="fill:white;"/>
            </g>
            <path d="M622.859,386.386L615.354,386.386L644.424,319.126L651.074,319.126L679.954,386.386L672.354,386.386L664.944,368.716L630.174,368.716L622.859,386.386ZM632.739,362.446L662.379,362.446L647.559,326.726L632.739,362.446Z" style="fill:white;fill-rule:nonzero;"/>
            <path d="M694.204,378.881L694.204,386.386L687.744,386.386L687.744,314.566L694.204,314.566L694.204,349.621L694.394,349.621C696.294,346.707 698.764,344.507 701.804,343.018C704.844,341.53 707.979,340.786 711.209,340.786C714.692,340.786 717.843,341.387 720.661,342.591C723.48,343.794 725.886,345.441 727.881,347.531C729.876,349.621 731.428,352.091 732.536,354.941C733.645,357.791 734.199,360.862 734.199,364.156C734.199,367.449 733.645,370.521 732.536,373.371C731.428,376.221 729.876,378.691 727.881,380.781C725.886,382.871 723.48,384.517 720.661,385.721C717.843,386.924 714.692,387.526 711.209,387.526C707.979,387.526 704.844,386.797 701.804,385.341C698.764,383.884 696.294,381.731 694.394,378.881L694.204,378.881ZM727.359,364.156C727.359,361.686 726.979,359.358 726.219,357.173C725.459,354.988 724.366,353.088 722.941,351.473C721.516,349.858 719.759,348.576 717.669,347.626C715.579,346.676 713.204,346.201 710.544,346.201C708.074,346.201 705.794,346.66 703.704,347.578C701.614,348.497 699.809,349.763 698.289,351.378C696.769,352.993 695.581,354.893 694.726,357.078C693.871,359.263 693.444,361.622 693.444,364.156C693.444,366.689 693.871,369.048 694.726,371.233C695.581,373.418 696.769,375.302 698.289,376.886C699.809,378.469 701.614,379.72 703.704,380.638C705.794,381.557 708.074,382.016 710.544,382.016C713.204,382.016 715.579,381.557 717.669,380.638C719.759,379.72 721.516,378.453 722.941,376.838C724.366,375.223 725.459,373.323 726.219,371.138C726.979,368.953 727.359,366.626 727.359,364.156Z" style="fill:white;fill-rule:nonzero;"/>
            <path d="M736.004,403.106C736.637,403.296 737.318,403.438 738.046,403.533C738.775,403.628 739.456,403.676 740.089,403.676C741.419,403.676 742.496,403.438 743.319,402.963C744.142,402.488 744.776,401.839 745.219,401.016C745.662,400.192 745.963,399.195 746.121,398.023C746.28,396.852 746.359,395.569 746.359,394.176L746.359,341.926L752.819,341.926L752.819,395.221C752.819,396.994 752.629,398.72 752.249,400.398C751.869,402.077 751.204,403.565 750.254,404.863C749.304,406.162 748.021,407.207 746.406,407.998C744.791,408.79 742.717,409.186 740.184,409.186C739.487,409.186 738.664,409.138 737.714,409.043C736.764,408.948 735.877,408.774 735.054,408.521L736.004,403.106ZM754.149,324.826C754.149,326.156 753.674,327.248 752.724,328.103C751.774,328.958 750.729,329.386 749.589,329.386C748.449,329.386 747.404,328.958 746.454,328.103C745.504,327.248 745.029,326.156 745.029,324.826C745.029,323.496 745.504,322.403 746.454,321.548C747.404,320.693 748.449,320.266 749.589,320.266C750.729,320.266 751.774,320.693 752.724,321.548C753.674,322.403 754.149,323.496 754.149,324.826Z" style="fill:white;fill-rule:nonzero;"/>
            <path d="M796.139,357.696C796.139,353.832 795.126,350.951 793.099,349.051C791.072,347.151 788.127,346.201 784.264,346.201C781.604,346.201 779.134,346.676 776.854,347.626C774.574,348.576 772.642,349.842 771.059,351.426L767.449,347.151C769.286,345.314 771.708,343.794 774.716,342.591C777.725,341.387 781.129,340.786 784.929,340.786C787.336,340.786 789.584,341.118 791.674,341.783C793.764,342.448 795.601,343.446 797.184,344.776C798.767,346.106 800.002,347.784 800.889,349.811C801.776,351.837 802.219,354.212 802.219,356.936L802.219,376.411C802.219,378.121 802.282,379.894 802.409,381.731C802.536,383.567 802.726,385.119 802.979,386.386L797.184,386.386C796.994,385.309 796.836,384.137 796.709,382.871C796.582,381.604 796.519,380.369 796.519,379.166L796.329,379.166C794.302,382.142 792.006,384.28 789.441,385.578C786.876,386.877 783.789,387.526 780.179,387.526C778.469,387.526 776.711,387.288 774.906,386.813C773.101,386.338 771.455,385.562 769.966,384.486C768.478,383.409 767.243,382.016 766.261,380.306C765.28,378.596 764.789,376.506 764.789,374.036C764.789,370.616 765.66,367.908 767.401,365.913C769.143,363.918 771.471,362.43 774.384,361.448C777.297,360.467 780.638,359.833 784.406,359.548C788.175,359.263 792.086,359.121 796.139,359.121L796.139,357.696ZM794.239,364.156C791.579,364.156 788.903,364.267 786.211,364.488C783.52,364.71 781.081,365.153 778.896,365.818C776.711,366.483 774.922,367.449 773.529,368.716C772.136,369.982 771.439,371.661 771.439,373.751C771.439,375.334 771.74,376.664 772.341,377.741C772.943,378.817 773.751,379.688 774.764,380.353C775.777,381.018 776.901,381.493 778.136,381.778C779.371,382.063 780.622,382.206 781.889,382.206C784.169,382.206 786.196,381.81 787.969,381.018C789.742,380.227 791.231,379.15 792.434,377.788C793.637,376.427 794.556,374.859 795.189,373.086C795.822,371.312 796.139,369.444 796.139,367.481L796.139,364.156L794.239,364.156Z" style="fill:white;fill-rule:nonzero;"/>
            <path d="M823.404,409.186L816.944,409.186L816.944,341.926L823.404,341.926L823.404,349.621L823.689,349.621C825.526,346.707 827.98,344.507 831.051,343.018C834.123,341.53 837.242,340.786 840.409,340.786C843.892,340.786 847.043,341.387 849.861,342.591C852.68,343.794 855.086,345.441 857.081,347.531C859.076,349.621 860.628,352.091 861.736,354.941C862.845,357.791 863.399,360.862 863.399,364.156C863.399,367.449 862.845,370.521 861.736,373.371C860.628,376.221 859.076,378.691 857.081,380.781C855.086,382.871 852.68,384.517 849.861,385.721C847.043,386.924 843.892,387.526 840.409,387.526C837.242,387.526 834.123,386.782 831.051,385.293C827.98,383.805 825.526,381.667 823.689,378.881L823.404,378.881L823.404,409.186ZM856.559,364.156C856.559,361.686 856.179,359.358 855.419,357.173C854.659,354.988 853.566,353.088 852.141,351.473C850.716,349.858 848.959,348.576 846.869,347.626C844.779,346.676 842.404,346.201 839.744,346.201C837.274,346.201 834.994,346.66 832.904,347.578C830.814,348.497 829.009,349.763 827.489,351.378C825.969,352.993 824.781,354.893 823.926,357.078C823.071,359.263 822.644,361.622 822.644,364.156C822.644,366.689 823.071,369.048 823.926,371.233C824.781,373.418 825.969,375.302 827.489,376.886C829.009,378.469 830.814,379.72 832.904,380.638C834.994,381.557 837.274,382.016 839.744,382.016C842.404,382.016 844.779,381.557 846.869,380.638C848.959,379.72 850.716,378.453 852.141,376.838C853.566,375.223 854.659,373.323 855.419,371.138C856.179,368.953 856.559,366.626 856.559,364.156Z" style="fill:white;fill-rule:nonzero;"/>
            <path d="M881.829,409.186L875.369,409.186L875.369,341.926L881.829,341.926L881.829,349.621L882.114,349.621C883.951,346.707 886.405,344.507 889.476,343.018C892.548,341.53 895.667,340.786 898.834,340.786C902.317,340.786 905.468,341.387 908.286,342.591C911.105,343.794 913.511,345.441 915.506,347.531C917.501,349.621 919.053,352.091 920.161,354.941C921.27,357.791 921.824,360.862 921.824,364.156C921.824,367.449 921.27,370.521 920.161,373.371C919.053,376.221 917.501,378.691 915.506,380.781C913.511,382.871 911.105,384.517 908.286,385.721C905.468,386.924 902.317,387.526 898.834,387.526C895.667,387.526 892.548,386.782 889.476,385.293C886.405,383.805 883.951,381.667 882.114,378.881L881.829,378.881L881.829,409.186ZM914.984,364.156C914.984,361.686 914.604,359.358 913.844,357.173C913.084,354.988 911.991,353.088 910.566,351.473C909.141,349.858 907.384,348.576 905.294,347.626C903.204,346.676 900.829,346.201 898.169,346.201C895.699,346.201 893.419,346.66 891.329,347.578C889.239,348.497 887.434,349.763 885.914,351.378C884.394,352.993 883.206,354.893 882.351,357.078C881.496,359.263 881.069,361.622 881.069,364.156C881.069,366.689 881.496,369.048 882.351,371.233C883.206,373.418 884.394,375.302 885.914,376.886C887.434,378.469 889.239,379.72 891.329,380.638C893.419,381.557 895.699,382.016 898.169,382.016C900.829,382.016 903.204,381.557 905.294,380.638C907.384,379.72 909.141,378.453 910.566,376.838C911.991,375.223 913.084,373.323 913.844,371.138C914.604,368.953 914.984,366.626 914.984,364.156Z" style="fill:white;fill-rule:nonzero;"/>
        </g>
    </g>
</svg>
