<?xml version="1.0" standalone="no"?><!DOCTYPE svg PUBLIC "-//W3C//DTD SVG 1.1//EN" "http://www.w3.org/Graphics/SVG/1.1/DTD/svg11.dtd"><svg width="100%" height="100%" viewBox="0 0 1280 720" version="1.1" xmlns="http://www.w3.org/2000/svg" xmlns:xlink="http://www.w3.org/1999/xlink" xml:space="preserve" style="fill-rule:evenodd;clip-rule:evenodd;stroke-linejoin:round;stroke-miterlimit:1.41421;"><g id="Abjapp"><rect id="Background" x="0" y="0" width="1280" height="720" style="fill:#9060c1;"/><g id="Abjapp-logo"><g><path d="M409.157,451.706l97.133,0l0.621,-0.018l0.64,-0.022l0.634,-0.024l0.313,-0.013l0.313,-0.014l0.311,-0.015l0.309,-0.015l0.308,-0.016l0.306,-0.017l0.304,-0.017l0.303,-0.018l0.301,-0.02l0.3,-0.02l0.298,-0.02l0.296,-0.022l0.295,-0.023l0.294,-0.023l0.291,-0.025l0.291,-0.025l0.289,-0.026l0.287,-0.027l0.286,-0.029l0.284,-0.029l0.283,-0.03l0.281,-0.031l0.28,-0.033l0.278,-0.033l0.277,-0.034l0.276,-0.036l0.274,-0.036l0.272,-0.038l0.272,-0.039l0.269,-0.04l0.269,-0.041l0.267,-0.043l0.265,-0.043l0.265,-0.045l0.262,-0.046l0.262,-0.047l0.26,-0.049l0.259,-0.05l0.258,-0.051l0.256,-0.052l0.255,-0.054l0.253,-0.055l0.253,-0.057l0.251,-0.058l0.25,-0.059l0.249,-0.06l0.247,-0.063l0.246,-0.063l0.245,-0.065l0.244,-0.066l0.243,-0.068l0.241,-0.07l0.241,-0.071l0.239,-0.072l0.238,-0.074l0.237,-0.075l0.236,-0.078l0.235,-0.078l0.233,-0.081l0.233,-0.082l0.232,-0.083l0.231,-0.086l0.229,-0.086l0.229,-0.089l0.228,-0.09l0.226,-0.093l0.226,-0.093l0.225,-0.096l0.224,-0.097l0.223,-0.1l0.222,-0.101l0.221,-0.103l0.221,-0.104l0.22,-0.107l0.218,-0.109l0.219,-0.11l0.217,-0.113l0.216,-0.114l0.216,-0.116l0.215,-0.119l0.214,-0.12l0.214,-0.122l0.213,-0.125l0.212,-0.127l0.212,-0.128l0.211,-0.131l0.21,-0.133l0.21,-0.135l0.209,-0.138l0.209,-0.139l0.208,-0.142l0.207,-0.145l0.207,-0.146l0.207,-0.149l0.206,-0.151l0.205,-0.153l0.205,-0.156l0.205,-0.158l0.204,-0.161l0.203,-0.163l0.203,-0.166l0.203,-0.168l0.203,-0.171l0.202,-0.173l0.201,-0.176l0.202,-0.178l0.2,-0.181l0.201,-0.184l0.2,-0.187l0.2,-0.189l0.2,-0.191l0.199,-0.195l0.199,-0.197l0.199,-0.2l0.199,-0.203l0.198,-0.206l0.198,-0.209l0.198,-0.211l0.197,-0.214l0.198,-0.218l0.197,-0.22l0.197,-0.224l0.207,-0.238l0.206,-0.238l0.203,-0.237l0.2,-0.237l0.198,-0.236l0.196,-0.236l0.193,-0.236l0.191,-0.235l0.188,-0.235l0.187,-0.235l0.184,-0.234l0.181,-0.234l0.18,-0.233l0.177,-0.233l0.175,-0.233l0.172,-0.233l0.171,-0.232l0.168,-0.233l0.166,-0.232l0.164,-0.232l0.161,-0.231l0.16,-0.232l0.157,-0.231l0.155,-0.232l0.154,-0.231l0.151,-0.231l0.149,-0.232l0.147,-0.231l0.145,-0.231l0.143,-0.231l0.141,-0.232l0.139,-0.231l0.137,-0.232l0.135,-0.231l0.134,-0.232l0.131,-0.232l0.129,-0.232l0.128,-0.232l0.125,-0.233l0.124,-0.232l0.122,-0.233l0.12,-0.234l0.119,-0.233l0.116,-0.234l0.115,-0.234l0.113,-0.235l0.112,-0.235l0.109,-0.235l0.108,-0.236l0.107,-0.237l0.104,-0.237l0.103,-0.237l0.101,-0.238l0.1,-0.239l0.098,-0.239l0.096,-0.239l0.095,-0.241l0.094,-0.241l0.091,-0.241l0.09,-0.243l0.089,-0.243l0.087,-0.244l0.086,-0.244l0.084,-0.246l0.083,-0.246l0.081,-0.247l0.08,-0.248l0.078,-0.249l0.077,-0.25l0.075,-0.25l0.074,-0.252l0.073,-0.252l0.071,-0.254l0.07,-0.255l0.069,-0.255l0.067,-0.257l0.066,-0.258l0.065,-0.259l0.063,-0.26l0.063,-0.261l0.06,-0.263l0.06,-0.263l0.058,-0.265l0.057,-0.266l0.056,-0.267l0.055,-0.269l0.053,-0.27l0.052,-0.271l0.051,-0.273l0.05,-0.273l0.049,-0.276l0.048,-0.277l0.046,-0.278l0.045,-0.279l0.045,-0.281l0.043,-0.283l0.042,-0.284l0.041,-0.285l0.04,-0.287l0.038,-0.289l0.038,-0.29l0.037,-0.292l0.036,-0.293l0.034,-0.295l0.034,-0.297l0.033,-0.298l0.032,-0.3l0.03,-0.302l0.03,-0.304l0.029,-0.305l0.028,-0.307l0.027,-0.309l0.026,-0.31l0.026,-0.313l0.024,-0.314l0.024,-0.316l0.022,-0.318l0.022,-0.32l0.021,-0.322l0.02,-0.323l0.02,-0.326l0.018,-0.328l0.018,-0.329l0.017,-0.332l0.016,-0.333l0.016,-0.336l0.015,-0.337l0.012,-0.302l0,-96.529l-0.023,-0.555l-0.028,-0.586l-0.015,-0.289l-0.015,-0.289l-0.016,-0.287l-0.017,-0.286l-0.018,-0.283l-0.018,-0.283l-0.019,-0.281l-0.02,-0.279l-0.021,-0.278l-0.021,-0.276l-0.023,-0.275l-0.023,-0.274l-0.024,-0.272l-0.025,-0.27l-0.025,-0.27l-0.027,-0.267l-0.027,-0.267l-0.029,-0.265l-0.029,-0.263l-0.03,-0.263l-0.032,-0.26l-0.032,-0.26l-0.033,-0.258l-0.034,-0.257l-0.036,-0.256l-0.036,-0.255l-0.037,-0.253l-0.039,-0.252l-0.039,-0.251l-0.041,-0.25l-0.041,-0.248l-0.043,-0.247l-0.044,-0.246l-0.045,-0.246l-0.046,-0.243l-0.048,-0.243l-0.048,-0.242l-0.05,-0.241l-0.051,-0.239l-0.052,-0.239l-0.054,-0.238l-0.054,-0.236l-0.056,-0.236l-0.058,-0.235l-0.058,-0.233l-0.06,-0.233l-0.061,-0.232l-0.063,-0.231l-0.064,-0.23l-0.065,-0.23l-0.067,-0.228l-0.068,-0.228l-0.069,-0.227l-0.071,-0.226l-0.073,-0.226l-0.073,-0.224l-0.076,-0.224l-0.077,-0.224l-0.078,-0.222l-0.08,-0.222l-0.081,-0.222l-0.083,-0.22l-0.085,-0.22l-0.086,-0.22l-0.088,-0.219l-0.089,-0.219l-0.091,-0.218l-0.093,-0.217l-0.094,-0.217l-0.096,-0.217l-0.098,-0.216l-0.1,-0.216l-0.101,-0.215l-0.103,-0.215l-0.105,-0.215l-0.106,-0.214l-0.109,-0.214l-0.11,-0.214l-0.113,-0.214l-0.114,-0.213l-0.116,-0.213l-0.118,-0.213l-0.119,-0.213l-0.122,-0.212l-0.124,-0.212l-0.126,-0.213l-0.128,-0.212l-0.13,-0.212l-0.132,-0.211l-0.134,-0.212l-0.136,-0.212l-0.138,-0.212l-0.141,-0.212l-0.142,-0.211l-0.145,-0.212l-0.147,-0.212l-0.149,-0.212l-0.151,-0.212l-0.154,-0.212l-0.156,-0.212l-0.158,-0.212l-0.161,-0.213l-0.163,-0.213l-0.165,-0.212l-0.168,-0.213l-0.17,-0.214l-0.173,-0.213l-0.174,-0.214l-0.178,-0.214l-0.18,-0.214l-0.182,-0.214l-0.185,-0.215l-0.187,-0.215l-0.19,-0.215l-0.193,-0.216l-0.195,-0.216l-0.198,-0.217l-0.2,-0.216l-0.203,-0.218l-0.206,-0.217l-0.208,-0.218l-0.212,-0.219l-0.213,-0.219l-0.217,-0.219l-0.226,-0.227l-0.226,-0.224l-0.226,-0.221l-0.225,-0.218l-0.225,-0.215l-0.224,-0.212l-0.224,-0.209l-0.224,-0.206l-0.223,-0.204l-0.223,-0.201l-0.222,-0.197l-0.223,-0.195l-0.222,-0.192l-0.221,-0.19l-0.221,-0.187l-0.222,-0.184l-0.22,-0.181l-0.221,-0.179l-0.221,-0.176l-0.22,-0.173l-0.22,-0.171l-0.22,-0.168l-0.22,-0.165l-0.22,-0.164l-0.219,-0.16l-0.22,-0.158l-0.219,-0.156l-0.22,-0.153l-0.219,-0.151l-0.219,-0.148l-0.22,-0.146l-0.219,-0.144l-0.22,-0.141l-0.22,-0.14l-0.219,-0.136l-0.22,-0.135l-0.22,-0.132l-0.22,-0.13l-0.22,-0.128l-0.221,-0.126l-0.221,-0.124l-0.221,-0.121l-0.221,-0.119l-0.221,-0.118l-0.222,-0.115l-0.222,-0.113l-0.223,-0.112l-0.223,-0.109l-0.223,-0.107l-0.224,-0.106l-0.224,-0.103l-0.225,-0.101l-0.225,-0.1l-0.225,-0.098l-0.226,-0.096l-0.227,-0.094l-0.228,-0.092l-0.227,-0.091l-0.229,-0.089l-0.229,-0.087l-0.23,-0.085l-0.231,-0.084l-0.231,-0.082l-0.232,-0.08l-0.233,-0.079l-0.233,-0.077l-0.234,-0.075l-0.236,-0.074l-0.236,-0.073l-0.237,-0.07l-0.237,-0.069l-0.239,-0.068l-0.24,-0.066l-0.24,-0.065l-0.242,-0.063l-0.243,-0.062l-0.243,-0.06l-0.245,-0.059l-0.246,-0.058l-0.246,-0.056l-0.248,-0.055l-0.249,-0.053l-0.25,-0.052l-0.252,-0.051l-0.252,-0.05l-0.254,-0.048l-0.255,-0.047l-0.256,-0.045l-0.257,-0.045l-0.259,-0.043l-0.26,-0.042l-0.261,-0.041l-0.263,-0.039l-0.264,-0.039l-0.265,-0.037l-0.267,-0.037l-0.268,-0.035l-0.27,-0.034l-0.271,-0.033l-0.272,-0.032l-0.274,-0.03l-0.275,-0.03l-0.277,-0.029l-0.278,-0.028l-0.28,-0.027l-0.281,-0.026l-0.283,-0.025l-0.285,-0.024l-0.286,-0.023l-0.288,-0.022l-0.289,-0.021l-0.291,-0.021l-0.293,-0.019l-0.294,-0.019l-0.296,-0.018l-0.297,-0.017l-0.3,-0.017l-0.301,-0.015l-0.303,-0.015l-0.304,-0.014l-0.307,-0.014l-0.307,-0.013l-0.622,-0.023l-0.629,-0.021l-0.612,-0.018l-96.643,0l-0.611,0.018l-0.629,0.021l-0.623,0.023l-0.307,0.013l-0.306,0.014l-0.305,0.014l-0.302,0.015l-0.301,0.015l-0.3,0.017l-0.298,0.017l-0.296,0.018l-0.294,0.019l-0.293,0.019l-0.291,0.021l-0.289,0.021l-0.288,0.022l-0.286,0.023l-0.285,0.024l-0.283,0.025l-0.281,0.026l-0.281,0.027l-0.278,0.028l-0.277,0.029l-0.276,0.03l-0.274,0.03l-0.272,0.032l-0.271,0.033l-0.27,0.034l-0.269,0.035l-0.266,0.037l-0.266,0.037l-0.264,0.039l-0.263,0.039l-0.262,0.041l-0.26,0.042l-0.259,0.043l-0.258,0.045l-0.256,0.045l-0.256,0.047l-0.254,0.049l-0.253,0.049l-0.251,0.051l-0.251,0.052l-0.249,0.053l-0.248,0.055l-0.247,0.056l-0.247,0.058l-0.245,0.059l-0.244,0.06l-0.243,0.062l-0.241,0.063l-0.242,0.065l-0.24,0.066l-0.239,0.068l-0.238,0.069l-0.237,0.071l-0.236,0.072l-0.236,0.074l-0.235,0.075l-0.234,0.077l-0.233,0.079l-0.232,0.08l-0.232,0.082l-0.23,0.084l-0.231,0.085l-0.229,0.088l-0.229,0.088l-0.228,0.091l-0.228,0.092l-0.227,0.094l-0.226,0.096l-0.226,0.098l-0.226,0.1l-0.225,0.101l-0.224,0.104l-0.224,0.105l-0.223,0.108l-0.224,0.109l-0.222,0.111l-0.223,0.113l-0.222,0.116l-0.222,0.117l-0.221,0.119l-0.221,0.122l-0.221,0.123l-0.221,0.126l-0.22,0.128l-0.22,0.13l-0.22,0.132l-0.22,0.135l-0.22,0.137l-0.22,0.139l-0.219,0.141l-0.22,0.144l-0.219,0.146l-0.22,0.148l-0.219,0.151l-0.22,0.153l-0.219,0.156l-0.22,0.158l-0.219,0.16l-0.22,0.163l-0.219,0.166l-0.22,0.168l-0.22,0.171l-0.22,0.173l-0.221,0.176l-0.22,0.179l-0.221,0.181l-0.221,0.184l-0.221,0.187l-0.221,0.189l-0.222,0.192l-0.222,0.195l-0.222,0.198l-0.222,0.2l-0.223,0.204l-0.223,0.206l-0.224,0.209l-0.224,0.212l-0.224,0.215l-0.225,0.218l-0.225,0.221l-0.225,0.224l-0.226,0.227l-0.243,0.246l-0.24,0.247l-0.236,0.245l-0.232,0.245l-0.23,0.245l-0.225,0.244l-0.223,0.243l-0.219,0.243l-0.216,0.243l-0.213,0.242l-0.21,0.242l-0.206,0.241l-0.203,0.241l-0.2,0.241l-0.197,0.24l-0.194,0.24l-0.191,0.24l-0.188,0.24l-0.185,0.239l-0.182,0.239l-0.179,0.239l-0.176,0.239l-0.173,0.238l-0.17,0.239l-0.168,0.238l-0.164,0.239l-0.162,0.238l-0.159,0.238l-0.157,0.238l-0.154,0.238l-0.151,0.239l-0.148,0.238l-0.146,0.239l-0.143,0.238l-0.141,0.239l-0.138,0.239l-0.136,0.239l-0.133,0.239l-0.131,0.24l-0.129,0.24l-0.126,0.24l-0.123,0.241l-0.122,0.24l-0.119,0.242l-0.117,0.242l-0.114,0.242l-0.113,0.242l-0.11,0.243l-0.108,0.244l-0.106,0.245l-0.103,0.244l-0.102,0.246l-0.1,0.246l-0.097,0.247l-0.096,0.247l-0.093,0.249l-0.092,0.249l-0.089,0.25l-0.088,0.25l-0.086,0.252l-0.084,0.252l-0.082,0.254l-0.08,0.254l-0.078,0.255l-0.077,0.256l-0.075,0.257l-0.073,0.259l-0.071,0.259l-0.07,0.261l-0.068,0.261l-0.066,0.263l-0.065,0.264l-0.063,0.265l-0.061,0.266l-0.06,0.268l-0.058,0.269l-0.057,0.27l-0.055,0.272l-0.054,0.272l-0.052,0.275l-0.051,0.275l-0.049,0.278l-0.048,0.278l-0.047,0.28l-0.045,0.282l-0.043,0.283l-0.043,0.284l-0.041,0.286l-0.04,0.288l-0.038,0.289l-0.037,0.292l-0.036,0.292l-0.035,0.294l-0.034,0.297l-0.032,0.297l-0.031,0.3l-0.03,0.301l-0.029,0.303l-0.028,0.305l-0.027,0.306l-0.026,0.309l-0.024,0.31l-0.024,0.312l-0.022,0.314l-0.022,0.316l-0.021,0.318l-0.02,0.32l-0.018,0.322l-0.018,0.324l-0.017,0.325l-0.016,0.328l-0.016,0.33l-0.014,0.332l-0.014,0.334l-0.013,0.336l-0.012,0.339l-0.012,0.34l-0.011,0.342l-0.019,0.693l-0.017,0.7l-0.015,0.71l-0.012,0.719l-0.011,0.717l0,89.813l0.011,0.717l0.012,0.719l0.015,0.71l0.017,0.7l0.019,0.693l0.011,0.342l0.012,0.34l0.012,0.339l0.013,0.336l0.014,0.334l0.014,0.332l0.016,0.33l0.016,0.328l0.017,0.326l0.018,0.323l0.018,0.322l0.02,0.32l0.021,0.318l0.022,0.316l0.022,0.314l0.024,0.312l0.024,0.311l0.026,0.308l0.027,0.307l0.028,0.304l0.029,0.303l0.03,0.302l0.031,0.299l0.032,0.298l0.034,0.296l0.035,0.294l0.036,0.293l0.037,0.291l0.038,0.289l0.04,0.288l0.041,0.286l0.043,0.285l0.043,0.283l0.045,0.281l0.047,0.28l0.048,0.279l0.049,0.277l0.051,0.276l0.052,0.274l0.054,0.273l0.055,0.271l0.057,0.27l0.058,0.269l0.06,0.268l0.061,0.266l0.063,0.265l0.065,0.264l0.066,0.263l0.068,0.262l0.07,0.26l0.071,0.26l0.073,0.258l0.075,0.257l0.077,0.256l0.078,0.255l0.08,0.255l0.082,0.253l0.084,0.252l0.086,0.252l0.088,0.251l0.089,0.249l0.092,0.25l0.093,0.248l0.096,0.247l0.097,0.247l0.1,0.246l0.102,0.246l0.103,0.245l0.106,0.244l0.108,0.244l0.11,0.243l0.113,0.243l0.114,0.242l0.117,0.242l0.119,0.241l0.122,0.241l0.123,0.24l0.126,0.24l0.129,0.24l0.131,0.24l0.133,0.239l0.136,0.239l0.138,0.239l0.141,0.239l0.143,0.239l0.146,0.238l0.148,0.238l0.151,0.239l0.154,0.238l0.157,0.238l0.159,0.238l0.162,0.239l0.164,0.238l0.168,0.238l0.17,0.239l0.173,0.239l0.176,0.238l0.179,0.239l0.182,0.239l0.185,0.239l0.188,0.24l0.191,0.24l0.194,0.24l0.197,0.24l0.2,0.241l0.203,0.241l0.206,0.242l0.21,0.241l0.213,0.242l0.216,0.243l0.219,0.243l0.222,0.244l0.226,0.244l0.23,0.244l0.232,0.245l0.236,0.246l0.24,0.246l0.243,0.247l0.225,0.225l0.224,0.223l0.224,0.22l0.224,0.217l0.223,0.214l0.223,0.212l0.223,0.208l0.222,0.205l0.222,0.203l0.221,0.2l0.221,0.197l0.221,0.194l0.221,0.191l0.22,0.189l0.221,0.186l0.219,0.183l0.22,0.181l0.22,0.178l0.219,0.175l0.219,0.173l0.219,0.17l0.219,0.168l0.219,0.165l0.218,0.162l0.219,0.161l0.218,0.157l0.219,0.155l0.218,0.153l0.219,0.151l0.218,0.148l0.219,0.145l0.218,0.144l0.219,0.141l0.218,0.138l0.219,0.137l0.219,0.134l0.219,0.132l0.219,0.13l0.22,0.128l0.219,0.125l0.22,0.124l0.22,0.121l0.221,0.119l0.22,0.118l0.221,0.115l0.222,0.113l0.221,0.111l0.222,0.109l0.223,0.108l0.223,0.105l0.223,0.103l0.224,0.102l0.224,0.099l0.225,0.098l0.225,0.096l0.226,0.094l0.226,0.093l0.227,0.09l0.228,0.089l0.228,0.087l0.229,0.086l0.23,0.084l0.23,0.082l0.231,0.08l0.232,0.079l0.233,0.077l0.233,0.076l0.235,0.074l0.235,0.072l0.236,0.071l0.236,0.07l0.238,0.067l0.239,0.067l0.239,0.065l0.241,0.063l0.241,0.062l0.243,0.061l0.244,0.059l0.244,0.058l0.246,0.056l0.247,0.055l0.247,0.054l0.249,0.052l0.25,0.051l0.252,0.05l0.252,0.048l0.254,0.048l0.255,0.046l0.256,0.044l0.257,0.044l0.259,0.042l0.26,0.041l0.261,0.04l0.262,0.039l0.264,0.038l0.265,0.036l0.267,0.036l0.268,0.034l0.269,0.033l0.271,0.033l0.272,0.031l0.274,0.03l0.275,0.029l0.276,0.028l0.278,0.027l0.28,0.027l0.281,0.025l0.283,0.024l0.284,0.024l0.286,0.022l0.287,0.022l0.289,0.021l0.291,0.02l0.292,0.019l0.293,0.018l0.296,0.018l0.297,0.016l0.299,0.016l0.3,0.016l0.303,0.014l0.304,0.014l0.304,0.013l0.618,0.024l0.624,0.022l0.605,0.018ZM409.097,455.635l-0.673,-0.021l-0.641,-0.022l-0.634,-0.025l-0.317,-0.013l-0.314,-0.015l-0.312,-0.015l-0.311,-0.015l-0.31,-0.017l-0.309,-0.017l-0.307,-0.019l-0.306,-0.019l-0.305,-0.02l-0.303,-0.02l-0.302,-0.022l-0.301,-0.023l-0.299,-0.023l-0.298,-0.025l-0.298,-0.026l-0.295,-0.026l-0.295,-0.028l-0.294,-0.029l-0.292,-0.029l-0.291,-0.031l-0.291,-0.032l-0.289,-0.033l-0.288,-0.035l-0.287,-0.035l-0.286,-0.037l-0.285,-0.038l-0.284,-0.039l-0.283,-0.04l-0.282,-0.042l-0.281,-0.043l-0.28,-0.044l-0.279,-0.046l-0.278,-0.047l-0.277,-0.048l-0.276,-0.05l-0.276,-0.051l-0.274,-0.053l-0.274,-0.054l-0.273,-0.056l-0.272,-0.057l-0.271,-0.059l-0.27,-0.06l-0.27,-0.062l-0.269,-0.064l-0.268,-0.065l-0.267,-0.066l-0.266,-0.069l-0.266,-0.07l-0.265,-0.072l-0.265,-0.073l-0.263,-0.076l-0.263,-0.077l-0.262,-0.078l-0.262,-0.081l-0.261,-0.082l-0.26,-0.085l-0.259,-0.086l-0.259,-0.088l-0.259,-0.09l-0.257,-0.092l-0.257,-0.093l-0.257,-0.096l-0.256,-0.098l-0.255,-0.099l-0.255,-0.102l-0.254,-0.104l-0.254,-0.106l-0.253,-0.107l-0.252,-0.11l-0.252,-0.112l-0.252,-0.114l-0.251,-0.117l-0.25,-0.118l-0.251,-0.121l-0.249,-0.122l-0.249,-0.125l-0.249,-0.127l-0.248,-0.13l-0.247,-0.131l-0.248,-0.134l-0.247,-0.136l-0.246,-0.138l-0.246,-0.141l-0.246,-0.143l-0.245,-0.145l-0.245,-0.148l-0.245,-0.15l-0.244,-0.152l-0.244,-0.155l-0.243,-0.157l-0.244,-0.16l-0.242,-0.162l-0.243,-0.164l-0.243,-0.167l-0.242,-0.17l-0.242,-0.172l-0.241,-0.174l-0.242,-0.177l-0.241,-0.179l-0.241,-0.182l-0.241,-0.184l-0.241,-0.188l-0.24,-0.189l-0.24,-0.192l-0.241,-0.195l-0.24,-0.198l-0.24,-0.2l-0.24,-0.203l-0.24,-0.205l-0.24,-0.208l-0.24,-0.211l-0.239,-0.214l-0.24,-0.216l-0.24,-0.219l-0.24,-0.222l-0.24,-0.224l-0.24,-0.228l-0.24,-0.23l-0.24,-0.233l-0.241,-0.236l-0.24,-0.238l-0.241,-0.242l-0.259,-0.263l-0.256,-0.263l-0.253,-0.263l-0.249,-0.263l-0.246,-0.262l-0.243,-0.263l-0.239,-0.262l-0.237,-0.262l-0.233,-0.262l-0.23,-0.262l-0.227,-0.262l-0.224,-0.261l-0.221,-0.262l-0.217,-0.262l-0.215,-0.262l-0.211,-0.262l-0.209,-0.262l-0.205,-0.262l-0.203,-0.262l-0.199,-0.262l-0.197,-0.262l-0.194,-0.263l-0.19,-0.263l-0.188,-0.263l-0.185,-0.263l-0.182,-0.264l-0.179,-0.263l-0.177,-0.264l-0.173,-0.265l-0.171,-0.264l-0.168,-0.265l-0.165,-0.265l-0.163,-0.266l-0.159,-0.266l-0.157,-0.266l-0.155,-0.267l-0.151,-0.267l-0.149,-0.268l-0.147,-0.268l-0.144,-0.269l-0.141,-0.269l-0.138,-0.269l-0.137,-0.27l-0.133,-0.271l-0.131,-0.27l-0.128,-0.272l-0.126,-0.272l-0.124,-0.273l-0.121,-0.273l-0.119,-0.274l-0.116,-0.275l-0.114,-0.275l-0.111,-0.275l-0.11,-0.277l-0.106,-0.277l-0.105,-0.277l-0.102,-0.279l-0.1,-0.279l-0.098,-0.28l-0.096,-0.28l-0.093,-0.281l-0.092,-0.282l-0.089,-0.283l-0.087,-0.283l-0.085,-0.285l-0.083,-0.285l-0.081,-0.286l-0.079,-0.286l-0.076,-0.288l-0.075,-0.288l-0.073,-0.29l-0.071,-0.29l-0.07,-0.291l-0.067,-0.292l-0.066,-0.293l-0.063,-0.294l-0.062,-0.295l-0.06,-0.296l-0.059,-0.296l-0.056,-0.298l-0.055,-0.299l-0.054,-0.3l-0.052,-0.301l-0.05,-0.302l-0.048,-0.304l-0.047,-0.304l-0.046,-0.305l-0.044,-0.307l-0.043,-0.308l-0.041,-0.309l-0.039,-0.31l-0.039,-0.312l-0.037,-0.313l-0.035,-0.314l-0.035,-0.315l-0.033,-0.317l-0.031,-0.318l-0.031,-0.319l-0.029,-0.321l-0.028,-0.322l-0.027,-0.324l-0.026,-0.325l-0.025,-0.327l-0.023,-0.328l-0.023,-0.329l-0.021,-0.331l-0.021,-0.333l-0.02,-0.334l-0.018,-0.336l-0.018,-0.338l-0.017,-0.339l-0.015,-0.341l-0.015,-0.342l-0.015,-0.344l-0.013,-0.347l-0.013,-0.347l-0.011,-0.35l-0.012,-0.352l-0.02,-0.707l-0.017,-0.716l-0.015,-0.724l-0.012,-0.731l-0.011,-0.751l0,-89.869l0.011,-0.751l0.012,-0.731l0.015,-0.724l0.017,-0.716l0.02,-0.707l0.012,-0.352l0.011,-0.35l0.013,-0.347l0.013,-0.346l0.015,-0.345l0.015,-0.342l0.015,-0.341l0.017,-0.339l0.018,-0.338l0.018,-0.335l0.02,-0.335l0.021,-0.333l0.021,-0.331l0.023,-0.329l0.023,-0.328l0.025,-0.327l0.026,-0.325l0.027,-0.324l0.028,-0.322l0.029,-0.321l0.031,-0.319l0.031,-0.318l0.033,-0.317l0.035,-0.315l0.035,-0.314l0.037,-0.313l0.039,-0.312l0.039,-0.31l0.041,-0.309l0.043,-0.308l0.044,-0.306l0.046,-0.306l0.047,-0.304l0.048,-0.303l0.05,-0.303l0.052,-0.301l0.054,-0.3l0.055,-0.299l0.056,-0.297l0.059,-0.297l0.06,-0.296l0.062,-0.295l0.063,-0.294l0.066,-0.293l0.067,-0.292l0.07,-0.291l0.071,-0.29l0.073,-0.289l0.075,-0.289l0.076,-0.287l0.079,-0.287l0.081,-0.286l0.083,-0.285l0.085,-0.284l0.087,-0.284l0.089,-0.282l0.092,-0.282l0.093,-0.282l0.096,-0.28l0.098,-0.28l0.1,-0.279l0.102,-0.278l0.105,-0.278l0.106,-0.277l0.11,-0.276l0.111,-0.276l0.114,-0.275l0.116,-0.275l0.119,-0.273l0.121,-0.274l0.124,-0.272l0.126,-0.273l0.128,-0.271l0.131,-0.271l0.133,-0.271l0.137,-0.27l0.138,-0.269l0.141,-0.269l0.144,-0.269l0.147,-0.268l0.149,-0.267l0.151,-0.268l0.155,-0.266l0.157,-0.267l0.159,-0.266l0.163,-0.265l0.165,-0.266l0.168,-0.265l0.171,-0.264l0.173,-0.265l0.177,-0.263l0.179,-0.264l0.182,-0.264l0.185,-0.263l0.188,-0.263l0.19,-0.263l0.194,-0.262l0.197,-0.263l0.199,-0.262l0.203,-0.262l0.205,-0.262l0.209,-0.262l0.211,-0.262l0.215,-0.262l0.217,-0.262l0.221,-0.261l0.224,-0.262l0.227,-0.262l0.23,-0.262l0.233,-0.262l0.237,-0.262l0.239,-0.262l0.243,-0.262l0.246,-0.263l0.249,-0.263l0.253,-0.262l0.256,-0.263l0.259,-0.264l0.242,-0.242l0.241,-0.24l0.242,-0.237l0.241,-0.234l0.241,-0.231l0.241,-0.229l0.241,-0.225l0.241,-0.223l0.241,-0.22l0.241,-0.217l0.241,-0.214l0.241,-0.212l0.241,-0.209l0.241,-0.206l0.241,-0.204l0.241,-0.2l0.242,-0.199l0.241,-0.195l0.242,-0.193l0.241,-0.19l0.242,-0.188l0.242,-0.185l0.242,-0.182l0.242,-0.18l0.243,-0.178l0.243,-0.175l0.243,-0.172l0.243,-0.17l0.243,-0.167l0.244,-0.165l0.244,-0.162l0.245,-0.16l0.245,-0.158l0.244,-0.155l0.246,-0.153l0.246,-0.15l0.246,-0.148l0.246,-0.145l0.247,-0.144l0.247,-0.14l0.248,-0.139l0.248,-0.136l0.248,-0.134l0.249,-0.132l0.25,-0.129l0.25,-0.128l0.25,-0.125l0.25,-0.122l0.252,-0.121l0.252,-0.119l0.252,-0.116l0.253,-0.114l0.253,-0.112l0.254,-0.11l0.254,-0.108l0.255,-0.105l0.255,-0.104l0.256,-0.102l0.257,-0.099l0.257,-0.098l0.258,-0.095l0.259,-0.094l0.259,-0.092l0.259,-0.09l0.26,-0.087l0.261,-0.086l0.262,-0.084l0.262,-0.083l0.263,-0.08l0.264,-0.079l0.264,-0.077l0.265,-0.075l0.266,-0.073l0.266,-0.071l0.268,-0.07l0.268,-0.068l0.268,-0.067l0.27,-0.065l0.27,-0.063l0.271,-0.062l0.272,-0.06l0.273,-0.058l0.273,-0.057l0.275,-0.055l0.275,-0.054l0.276,-0.052l0.277,-0.051l0.278,-0.05l0.279,-0.048l0.279,-0.047l0.281,-0.045l0.282,-0.044l0.283,-0.043l0.283,-0.041l0.285,-0.04l0.285,-0.039l0.287,-0.037l0.288,-0.037l0.288,-0.035l0.29,-0.034l0.291,-0.032l0.292,-0.032l0.294,-0.03l0.294,-0.03l0.295,-0.028l0.297,-0.027l0.298,-0.027l0.299,-0.025l0.3,-0.024l0.301,-0.023l0.303,-0.023l0.304,-0.021l0.305,-0.02l0.307,-0.02l0.308,-0.019l0.309,-0.018l0.311,-0.017l0.312,-0.016l0.313,-0.015l0.315,-0.015l0.316,-0.014l0.319,-0.013l0.639,-0.024l0.645,-0.022l0.677,-0.02l96.759,0l0.677,0.02l0.646,0.022l0.639,0.024l0.318,0.013l0.317,0.014l0.314,0.015l0.314,0.015l0.312,0.016l0.31,0.017l0.31,0.018l0.308,0.019l0.306,0.02l0.305,0.02l0.304,0.021l0.303,0.023l0.301,0.023l0.3,0.024l0.299,0.025l0.298,0.027l0.297,0.027l0.295,0.028l0.294,0.03l0.293,0.03l0.292,0.032l0.29,0.032l0.29,0.034l0.289,0.036l0.287,0.036l0.287,0.037l0.285,0.039l0.284,0.04l0.284,0.041l0.282,0.043l0.281,0.044l0.281,0.045l0.279,0.047l0.279,0.048l0.277,0.05l0.277,0.051l0.276,0.052l0.275,0.054l0.274,0.055l0.273,0.057l0.273,0.059l0.271,0.06l0.271,0.061l0.27,0.063l0.269,0.065l0.268,0.067l0.268,0.068l0.267,0.07l0.266,0.071l0.266,0.074l0.264,0.075l0.264,0.076l0.263,0.079l0.263,0.08l0.262,0.083l0.261,0.084l0.261,0.086l0.26,0.088l0.259,0.089l0.259,0.092l0.258,0.094l0.257,0.095l0.257,0.098l0.257,0.1l0.255,0.101l0.256,0.104l0.254,0.106l0.254,0.108l0.254,0.109l0.253,0.112l0.252,0.115l0.252,0.116l0.252,0.118l0.251,0.121l0.25,0.123l0.25,0.125l0.25,0.127l0.249,0.129l0.249,0.132l0.248,0.134l0.248,0.136l0.247,0.139l0.247,0.141l0.247,0.143l0.246,0.146l0.246,0.147l0.245,0.151l0.246,0.152l0.245,0.155l0.244,0.158l0.244,0.16l0.244,0.162l0.244,0.165l0.243,0.167l0.244,0.17l0.243,0.172l0.242,0.175l0.243,0.178l0.242,0.179l0.242,0.183l0.242,0.185l0.242,0.188l0.242,0.19l0.241,0.193l0.242,0.195l0.241,0.198l0.241,0.201l0.242,0.203l0.241,0.207l0.241,0.208l0.241,0.212l0.241,0.214l0.241,0.217l0.242,0.22l0.241,0.223l0.241,0.225l0.242,0.229l0.241,0.231l0.242,0.234l0.241,0.236l0.242,0.24l0.242,0.243l0.232,0.234l0.228,0.234l0.226,0.234l0.223,0.233l0.221,0.234l0.218,0.233l0.216,0.233l0.213,0.233l0.21,0.233l0.208,0.233l0.205,0.233l0.203,0.233l0.201,0.233l0.198,0.232l0.195,0.233l0.193,0.233l0.191,0.233l0.188,0.233l0.186,0.232l0.183,0.233l0.182,0.234l0.178,0.233l0.176,0.233l0.175,0.233l0.171,0.234l0.17,0.234l0.167,0.234l0.164,0.234l0.163,0.234l0.16,0.234l0.158,0.235l0.156,0.235l0.153,0.235l0.152,0.235l0.149,0.236l0.147,0.236l0.144,0.236l0.143,0.236l0.14,0.237l0.139,0.237l0.136,0.238l0.134,0.237l0.132,0.238l0.129,0.239l0.128,0.239l0.126,0.239l0.124,0.239l0.121,0.24l0.12,0.241l0.117,0.241l0.116,0.241l0.114,0.241l0.111,0.242l0.11,0.243l0.108,0.243l0.106,0.243l0.104,0.244l0.102,0.245l0.1,0.245l0.098,0.245l0.097,0.246l0.094,0.246l0.093,0.247l0.091,0.248l0.089,0.248l0.088,0.249l0.086,0.249l0.084,0.249l0.082,0.251l0.08,0.251l0.079,0.251l0.077,0.252l0.076,0.253l0.074,0.253l0.072,0.254l0.071,0.255l0.069,0.255l0.068,0.256l0.066,0.257l0.064,0.257l0.063,0.259l0.062,0.258l0.059,0.26l0.059,0.26l0.057,0.261l0.056,0.262l0.054,0.262l0.053,0.264l0.052,0.264l0.05,0.265l0.049,0.265l0.047,0.267l0.046,0.267l0.045,0.269l0.044,0.269l0.043,0.27l0.041,0.271l0.04,0.272l0.039,0.272l0.038,0.274l0.036,0.274l0.036,0.276l0.034,0.277l0.033,0.277l0.032,0.279l0.032,0.279l0.03,0.281l0.029,0.282l0.028,0.282l0.027,0.284l0.026,0.285l0.025,0.286l0.025,0.287l0.023,0.289l0.023,0.289l0.021,0.291l0.021,0.291l0.02,0.293l0.019,0.294l0.018,0.296l0.018,0.297l0.017,0.297l0.016,0.3l0.015,0.302l0.028,0.603l0.028,0.647l0,96.693l-0.016,0.388l-0.015,0.347l-0.016,0.345l-0.017,0.344l-0.018,0.342l-0.018,0.34l-0.019,0.338l-0.02,0.337l-0.021,0.335l-0.022,0.333l-0.023,0.331l-0.023,0.33l-0.025,0.329l-0.025,0.327l-0.026,0.325l-0.028,0.324l-0.028,0.322l-0.029,0.321l-0.03,0.319l-0.032,0.318l-0.032,0.316l-0.033,0.315l-0.035,0.313l-0.035,0.312l-0.037,0.311l-0.037,0.309l-0.039,0.308l-0.04,0.307l-0.041,0.305l-0.042,0.304l-0.044,0.303l-0.044,0.301l-0.046,0.3l-0.047,0.3l-0.048,0.297l-0.05,0.297l-0.051,0.296l-0.052,0.294l-0.053,0.293l-0.055,0.292l-0.056,0.291l-0.057,0.29l-0.059,0.289l-0.06,0.288l-0.062,0.286l-0.063,0.286l-0.064,0.285l-0.066,0.284l-0.067,0.282l-0.069,0.282l-0.07,0.281l-0.072,0.28l-0.073,0.279l-0.074,0.278l-0.077,0.277l-0.077,0.277l-0.08,0.275l-0.081,0.275l-0.082,0.274l-0.084,0.273l-0.086,0.272l-0.087,0.272l-0.089,0.271l-0.091,0.269l-0.092,0.27l-0.094,0.268l-0.096,0.268l-0.097,0.267l-0.099,0.267l-0.101,0.265l-0.103,0.265l-0.104,0.265l-0.106,0.264l-0.108,0.263l-0.11,0.262l-0.111,0.262l-0.114,0.262l-0.115,0.261l-0.117,0.26l-0.119,0.26l-0.12,0.259l-0.123,0.259l-0.124,0.258l-0.127,0.258l-0.128,0.257l-0.13,0.257l-0.132,0.257l-0.134,0.256l-0.136,0.255l-0.138,0.256l-0.14,0.254l-0.142,0.255l-0.144,0.254l-0.146,0.254l-0.148,0.254l-0.15,0.253l-0.152,0.253l-0.154,0.252l-0.156,0.253l-0.158,0.252l-0.161,0.252l-0.162,0.252l-0.164,0.251l-0.167,0.252l-0.168,0.251l-0.171,0.251l-0.173,0.251l-0.175,0.251l-0.177,0.25l-0.18,0.251l-0.181,0.251l-0.184,0.251l-0.186,0.25l-0.188,0.251l-0.19,0.25l-0.193,0.251l-0.195,0.251l-0.197,0.251l-0.199,0.25l-0.201,0.252l-0.204,0.251l-0.206,0.251l-0.209,0.251l-0.211,0.252l-0.213,0.252l-0.215,0.252l-0.218,0.252l-0.221,0.254l-0.214,0.243l-0.216,0.241l-0.217,0.239l-0.217,0.236l-0.218,0.232l-0.218,0.23l-0.219,0.227l-0.219,0.225l-0.22,0.221l-0.221,0.219l-0.221,0.216l-0.222,0.213l-0.223,0.211l-0.223,0.207l-0.224,0.205l-0.224,0.203l-0.226,0.199l-0.226,0.197l-0.226,0.195l-0.227,0.192l-0.228,0.189l-0.229,0.186l-0.23,0.184l-0.23,0.181l-0.231,0.179l-0.231,0.176l-0.233,0.174l-0.233,0.171l-0.234,0.168l-0.234,0.166l-0.236,0.164l-0.236,0.161l-0.237,0.158l-0.237,0.156l-0.239,0.154l-0.239,0.151l-0.24,0.149l-0.241,0.147l-0.241,0.144l-0.242,0.141l-0.243,0.14l-0.244,0.137l-0.245,0.135l-0.246,0.132l-0.246,0.13l-0.247,0.128l-0.248,0.125l-0.249,0.124l-0.249,0.121l-0.25,0.119l-0.252,0.117l-0.252,0.114l-0.252,0.113l-0.254,0.11l-0.254,0.108l-0.256,0.106l-0.256,0.104l-0.257,0.102l-0.257,0.1l-0.259,0.098l-0.259,0.096l-0.26,0.094l-0.262,0.092l-0.262,0.09l-0.262,0.088l-0.264,0.086l-0.265,0.084l-0.265,0.083l-0.266,0.08l-0.268,0.079l-0.268,0.077l-0.268,0.076l-0.27,0.073l-0.271,0.072l-0.272,0.07l-0.272,0.068l-0.274,0.067l-0.274,0.065l-0.275,0.063l-0.276,0.062l-0.278,0.06l-0.278,0.059l-0.279,0.057l-0.28,0.056l-0.281,0.054l-0.282,0.052l-0.283,0.052l-0.284,0.049l-0.285,0.049l-0.286,0.047l-0.287,0.045l-0.288,0.045l-0.289,0.042l-0.29,0.042l-0.292,0.04l-0.292,0.039l-0.293,0.038l-0.295,0.037l-0.295,0.035l-0.297,0.034l-0.298,0.033l-0.299,0.032l-0.3,0.031l-0.301,0.03l-0.302,0.029l-0.304,0.027l-0.304,0.027l-0.306,0.025l-0.307,0.025l-0.308,0.023l-0.31,0.023l-0.311,0.022l-0.311,0.021l-0.314,0.02l-0.314,0.019l-0.316,0.018l-0.317,0.017l-0.318,0.017l-0.32,0.016l-0.321,0.015l-0.322,0.014l-0.324,0.013l-0.65,0.025l-0.657,0.023l-0.688,0.02l-97.251,0Z" style="fill:#fff;"/><path d="M459.461,320.617c-4.178,3.903 -5.83,13.353 -5.933,19.146c-0.095,5.363 9.395,65.387 6.631,85.146c5.36,-2.352 7.314,-18.895 7.103,-28.496c-0.309,-14.077 -7.413,-55.925 -7.801,-75.796l0,0ZM471.342,304.058l-5.13,6.393c-8.201,0.678 -19.232,11.046 -19.232,11.046l1.43,-7.023c0,0 -8.275,-1.877 -2.63,-11.054c8.141,-13.235 16.285,-6.73 16.285,-6.73l-1.973,3.834c-9.196,-3.751 -13.35,7.291 -7.154,8.807c1.905,0.465 17.53,-4.704 18.404,-5.273l0.035,-0.043c0.01,0.008 -0.002,0.022 -0.035,0.043Z" style="fill:#fff;"/></g><path d="M621.909,386.386l-7.505,0l29.07,-67.26l6.65,0l28.88,67.26l-7.6,0l-7.41,-17.67l-34.77,0l-7.315,17.67ZM631.789,362.446l29.64,0l-14.82,-35.72l-14.82,35.72Z" style="fill:#fff;fill-rule:nonzero;"/><path d="M693.254,378.881l0,7.505l-6.46,0l0,-71.82l6.46,0l0,35.055l0.19,0c1.9,-2.914 4.37,-5.114 7.41,-6.603c3.04,-1.488 6.175,-2.232 9.405,-2.232c3.483,0 6.634,0.601 9.452,1.805c2.819,1.203 5.225,2.85 7.22,4.94c1.995,2.09 3.547,4.56 4.655,7.41c1.109,2.85 1.663,5.921 1.663,9.215c0,3.293 -0.554,6.365 -1.663,9.215c-1.108,2.85 -2.66,5.32 -4.655,7.41c-1.995,2.09 -4.401,3.736 -7.22,4.94c-2.818,1.203 -5.969,1.805 -9.452,1.805c-3.23,0 -6.365,-0.729 -9.405,-2.185c-3.04,-1.457 -5.51,-3.61 -7.41,-6.46l-0.19,0ZM726.409,364.156c0,-2.47 -0.38,-4.798 -1.14,-6.983c-0.76,-2.185 -1.853,-4.085 -3.278,-5.7c-1.425,-1.615 -3.182,-2.897 -5.272,-3.847c-2.09,-0.95 -4.465,-1.425 -7.125,-1.425c-2.47,0 -4.75,0.459 -6.84,1.377c-2.09,0.919 -3.895,2.185 -5.415,3.8c-1.52,1.615 -2.708,3.515 -3.563,5.7c-0.855,2.185 -1.282,4.544 -1.282,7.078c0,2.533 0.427,4.892 1.282,7.077c0.855,2.185 2.043,4.069 3.563,5.653c1.52,1.583 3.325,2.834 5.415,3.752c2.09,0.919 4.37,1.378 6.84,1.378c2.66,0 5.035,-0.459 7.125,-1.378c2.09,-0.918 3.847,-2.185 5.272,-3.8c1.425,-1.615 2.518,-3.515 3.278,-5.7c0.76,-2.185 1.14,-4.512 1.14,-6.982Z" style="fill:#fff;fill-rule:nonzero;"/><path d="M735.054,403.106c0.633,0.19 1.314,0.332 2.042,0.427c0.729,0.095 1.41,0.143 2.043,0.143c1.33,0 2.407,-0.238 3.23,-0.713c0.823,-0.475 1.457,-1.124 1.9,-1.947c0.443,-0.824 0.744,-1.821 0.902,-2.993c0.159,-1.171 0.238,-2.454 0.238,-3.847l0,-52.25l6.46,0l0,53.295c0,1.773 -0.19,3.499 -0.57,5.177c-0.38,1.679 -1.045,3.167 -1.995,4.465c-0.95,1.299 -2.233,2.344 -3.848,3.135c-1.615,0.792 -3.689,1.188 -6.222,1.188c-0.697,0 -1.52,-0.048 -2.47,-0.143c-0.95,-0.095 -1.837,-0.269 -2.66,-0.522l0.95,-5.415ZM753.199,324.826c0,1.33 -0.475,2.422 -1.425,3.277c-0.95,0.855 -1.995,1.283 -3.135,1.283c-1.14,0 -2.185,-0.428 -3.135,-1.283c-0.95,-0.855 -1.425,-1.947 -1.425,-3.277c0,-1.33 0.475,-2.423 1.425,-3.278c0.95,-0.855 1.995,-1.282 3.135,-1.282c1.14,0 2.185,0.427 3.135,1.282c0.95,0.855 1.425,1.948 1.425,3.278Z" style="fill:#fff;fill-rule:nonzero;"/><path d="M795.189,357.696c0,-3.864 -1.013,-6.745 -3.04,-8.645c-2.027,-1.9 -4.972,-2.85 -8.835,-2.85c-2.66,0 -5.13,0.475 -7.41,1.425c-2.28,0.95 -4.212,2.216 -5.795,3.8l-3.61,-4.275c1.837,-1.837 4.259,-3.357 7.267,-4.56c3.009,-1.204 6.413,-1.805 10.213,-1.805c2.407,0 4.655,0.332 6.745,0.997c2.09,0.665 3.927,1.663 5.51,2.993c1.583,1.33 2.818,3.008 3.705,5.035c0.887,2.026 1.33,4.401 1.33,7.125l0,19.475c0,1.71 0.063,3.483 0.19,5.32c0.127,1.836 0.317,3.388 0.57,4.655l-5.795,0c-0.19,-1.077 -0.348,-2.249 -0.475,-3.515c-0.127,-1.267 -0.19,-2.502 -0.19,-3.705l-0.19,0c-2.027,2.976 -4.323,5.114 -6.888,6.412c-2.565,1.299 -5.652,1.948 -9.262,1.948c-1.71,0 -3.468,-0.238 -5.273,-0.713c-1.805,-0.475 -3.451,-1.251 -4.94,-2.327c-1.488,-1.077 -2.723,-2.47 -3.705,-4.18c-0.981,-1.71 -1.472,-3.8 -1.472,-6.27c0,-3.42 0.871,-6.128 2.612,-8.123c1.742,-1.995 4.07,-3.483 6.983,-4.465c2.913,-0.981 6.254,-1.615 10.022,-1.9c3.769,-0.285 7.68,-0.427 11.733,-0.427l0,-1.425ZM793.289,364.156c-2.66,0 -5.336,0.111 -8.028,0.332c-2.691,0.222 -5.13,0.665 -7.315,1.33c-2.185,0.665 -3.974,1.631 -5.367,2.898c-1.393,1.266 -2.09,2.945 -2.09,5.035c0,1.583 0.301,2.913 0.902,3.99c0.602,1.076 1.41,1.947 2.423,2.612c1.013,0.665 2.137,1.14 3.372,1.425c1.235,0.285 2.486,0.428 3.753,0.428c2.28,0 4.307,-0.396 6.08,-1.188c1.773,-0.791 3.262,-1.868 4.465,-3.23c1.203,-1.361 2.122,-2.929 2.755,-4.702c0.633,-1.774 0.95,-3.642 0.95,-5.605l0,-3.325l-1.9,0Z" style="fill:#fff;fill-rule:nonzero;"/><path d="M822.454,409.186l-6.46,0l0,-67.26l6.46,0l0,7.695l0.285,0c1.837,-2.914 4.291,-5.114 7.362,-6.603c3.072,-1.488 6.191,-2.232 9.358,-2.232c3.483,0 6.634,0.601 9.452,1.805c2.819,1.203 5.225,2.85 7.22,4.94c1.995,2.09 3.547,4.56 4.655,7.41c1.109,2.85 1.663,5.921 1.663,9.215c0,3.293 -0.554,6.365 -1.663,9.215c-1.108,2.85 -2.66,5.32 -4.655,7.41c-1.995,2.09 -4.401,3.736 -7.22,4.94c-2.818,1.203 -5.969,1.805 -9.452,1.805c-3.167,0 -6.286,-0.744 -9.358,-2.233c-3.071,-1.488 -5.525,-3.626 -7.362,-6.412l-0.285,0l0,30.305ZM855.609,364.156c0,-2.47 -0.38,-4.798 -1.14,-6.983c-0.76,-2.185 -1.853,-4.085 -3.278,-5.7c-1.425,-1.615 -3.182,-2.897 -5.272,-3.847c-2.09,-0.95 -4.465,-1.425 -7.125,-1.425c-2.47,0 -4.75,0.459 -6.84,1.377c-2.09,0.919 -3.895,2.185 -5.415,3.8c-1.52,1.615 -2.708,3.515 -3.563,5.7c-0.855,2.185 -1.282,4.544 -1.282,7.078c0,2.533 0.427,4.892 1.282,7.077c0.855,2.185 2.043,4.069 3.563,5.653c1.52,1.583 3.325,2.834 5.415,3.752c2.09,0.919 4.37,1.378 6.84,1.378c2.66,0 5.035,-0.459 7.125,-1.378c2.09,-0.918 3.847,-2.185 5.272,-3.8c1.425,-1.615 2.518,-3.515 3.278,-5.7c0.76,-2.185 1.14,-4.512 1.14,-6.982Z" style="fill:#fff;fill-rule:nonzero;"/><path d="M880.879,409.186l-6.46,0l0,-67.26l6.46,0l0,7.695l0.285,0c1.837,-2.914 4.291,-5.114 7.362,-6.603c3.072,-1.488 6.191,-2.232 9.358,-2.232c3.483,0 6.634,0.601 9.452,1.805c2.819,1.203 5.225,2.85 7.22,4.94c1.995,2.09 3.547,4.56 4.655,7.41c1.109,2.85 1.663,5.921 1.663,9.215c0,3.293 -0.554,6.365 -1.663,9.215c-1.108,2.85 -2.66,5.32 -4.655,7.41c-1.995,2.09 -4.401,3.736 -7.22,4.94c-2.818,1.203 -5.969,1.805 -9.452,1.805c-3.167,0 -6.286,-0.744 -9.358,-2.233c-3.071,-1.488 -5.525,-3.626 -7.362,-6.412l-0.285,0l0,30.305ZM914.034,364.156c0,-2.47 -0.38,-4.798 -1.14,-6.983c-0.76,-2.185 -1.853,-4.085 -3.278,-5.7c-1.425,-1.615 -3.182,-2.897 -5.272,-3.847c-2.09,-0.95 -4.465,-1.425 -7.125,-1.425c-2.47,0 -4.75,0.459 -6.84,1.377c-2.09,0.919 -3.895,2.185 -5.415,3.8c-1.52,1.615 -2.708,3.515 -3.563,5.7c-0.855,2.185 -1.282,4.544 -1.282,7.078c0,2.533 0.427,4.892 1.282,7.077c0.855,2.185 2.043,4.069 3.563,5.653c1.52,1.583 3.325,2.834 5.415,3.752c2.09,0.919 4.37,1.378 6.84,1.378c2.66,0 5.035,-0.459 7.125,-1.378c2.09,-0.918 3.847,-2.185 5.272,-3.8c1.425,-1.615 2.518,-3.515 3.278,-5.7c0.76,-2.185 1.14,-4.512 1.14,-6.982Z" style="fill:#fff;fill-rule:nonzero;"/></g></g></svg>