<svg xmlns="http://www.w3.org/2000/svg" xmlns:xlink="http://www.w3.org/1999/xlink" width="100" height="100" viewBox="0 0 100 100">
  <defs>
    <linearGradient id="abjapp-b" x1="74.07%" x2="30.265%" y1="100%" y2="0%">
      <stop offset="0%" stop-color="#B68BFC"/>
      <stop offset="100%" stop-color="#D6BAF1"/>
    </linearGradient>
    <path id="abjapp-a" d="M70,2.0462624e-09 C59.1422526,1.65934753e-06 40.8333333,1.91505694e-06 30,2.0462624e-09 C19.1666667,-1.91096439e-06 13.268927,1.77455086e-09 6.66666667,6.66666662 C0.064406856,13.3333338 -4.77906413e-07,19.1666665 5.68434189e-14,29.9999998 C3.82288926e-09,40.833333 8.23838927e-07,59.1666662 5.68434189e-14,69.9999995 C-4.76188998e-07,80.8333327 0.0644068123,86.6666655 6.66666667,93.3333327 C13.268927,99.9999993 19.1666667,99.9999993 30,99.9999993 C40.8333333,99.9999993 59.1666667,100.000001 70,99.9999993 C80.8333333,99.9999993 87.4951172,99.9999993 93.3333333,93.3333327 C99.1715495,86.6666661 99.9999995,80.8333327 100,69.9999995 C100,59.1666662 99.9999995,40.833333 100,29.9999998 C100,19.1666665 99.9495441,13.3333334 93.3333333,6.66666662 C86.7171224,2.0462624e-09 80.8577474,-6.15957059e-09 70,2.0462624e-09 Z"/>
  </defs>
  <g fill="none" fill-rule="evenodd">
    <use fill="url(#abjapp-b)" xlink:href="#abjapp-a"/>
    <path fill="#FFF" d="M54.4921875,74.6400412 C54.4921875,80.238448 54.2177312,84.1925081 53.6688104,86.5023402 C53.5511845,86.9721366 53.3159362,87.2070313 52.9630585,87.2070313 C52.5709722,87.1678816 52.374932,86.8155396 52.374932,86.1499947 C52.1004716,78.2026061 51.2574987,69.4723546 49.845988,59.9589781 L46.9053554,40.9323203 C46.7485209,39.6403803 47.1994133,36.9195172 48.2580464,32.7696493 C48.6501327,31.2428111 48.924589,30.4794034 49.0814235,30.4794034 C49.5127184,30.4794034 49.8067788,31.4385566 49.9636133,33.3568918 C50.1596564,35.9407718 50.708569,40.2667485 51.6103675,46.3349516 C53.5315905,59.0586032 54.4921875,68.4935387 54.4921875,74.6400412 Z M53.7147443,19.5831095 C54.0693833,19.5831095 53.9314702,20.5029796 53.301001,22.3427475 C53.2615966,22.5384675 52.906963,22.8320431 52.2370894,23.223483 C49.202956,24.358659 46.5037999,25.885252 44.1395401,27.8033079 C43.4696664,28.3121798 43.1347347,28.233893 43.1347347,27.5684451 C43.1347347,26.6681331 43.9031076,25.611261 45.4398764,24.3977971 C43.7454903,23.4974852 42.8589061,22.4993282 42.7800975,21.4032962 C42.7012888,20.3464083 43.3218977,18.9861748 44.6419428,17.3225549 C45.9619878,15.658935 47.3706715,14.7684224 48.868036,14.6509904 C49.8925486,14.6118464 50.4442009,15.0228522 50.5230096,15.8840202 C50.5230096,16.9017641 50.1683759,17.9782079 49.459098,19.1133838 C49.340885,19.3482478 49.2029719,19.4265346 49.0453546,19.3482466 C48.9271416,19.2699586 48.868036,19.113385 48.868036,18.878521 C48.749823,18.2522171 48.0602576,18.0565 46.799319,18.291364 C45.7748064,18.487084 45.2822597,18.9176615 45.321664,19.5831095 C45.4004727,20.7182854 46.3658643,21.3641517 48.2178678,21.5207277 C49.321189,21.7555916 50.0501582,21.6773048 50.4047972,21.2858648 C52.296205,20.1506889 53.3995097,19.5831095 53.7147443,19.5831095 Z"/>
  </g>
</svg>
