<?xml version="1.0" encoding="UTF-8" standalone="no"?><!DOCTYPE svg PUBLIC "-//W3C//DTD SVG 1.1//EN" "http://www.w3.org/Graphics/SVG/1.1/DTD/svg11.dtd"><svg width="100%" height="100%" viewBox="0 0 1280 720" version="1.1" xmlns="http://www.w3.org/2000/svg" xmlns:xlink="http://www.w3.org/1999/xlink" xml:space="preserve" xmlns:serif="http://www.serif.com/" style="fill-rule:evenodd;clip-rule:evenodd;"><g id="actiTENS"><g><g><path d="M642.446,334.65l0,45.6l-8.17,0l0,-5.32c-2.026,2.217 -4.401,3.942 -7.125,5.177c-2.723,1.235 -5.668,1.853 -8.835,1.853c-3.166,0 -6.127,-0.633 -8.882,-1.9c-2.755,-1.267 -5.162,-3.008 -7.22,-5.225c-2.059,-2.217 -3.689,-4.813 -4.893,-7.79c-1.203,-2.977 -1.805,-6.175 -1.805,-9.595c0,-3.357 0.602,-6.523 1.805,-9.5c1.204,-2.977 2.834,-5.573 4.893,-7.79c2.058,-2.217 4.465,-3.974 7.22,-5.273c2.755,-1.298 5.716,-1.947 8.882,-1.947c3.167,0 6.112,0.618 8.835,1.853c2.724,1.234 5.099,2.96 7.125,5.177l0,-5.32l8.17,0Zm-23.465,39.425c2.09,0 4.069,-0.443 5.938,-1.33c1.868,-0.887 3.499,-2.074 4.892,-3.563c1.394,-1.488 2.486,-3.245 3.278,-5.272c0.791,-2.027 1.187,-4.18 1.187,-6.46c0,-2.28 -0.396,-4.433 -1.187,-6.46c-0.792,-2.027 -1.884,-3.784 -3.278,-5.273c-1.393,-1.488 -3.024,-2.675 -4.892,-3.562c-1.869,-0.887 -3.848,-1.33 -5.938,-1.33c-2.09,0 -4.069,0.443 -5.937,1.33c-1.869,0.887 -3.499,2.074 -4.893,3.562c-1.393,1.489 -2.501,3.246 -3.325,5.273c-0.823,2.027 -1.235,4.18 -1.235,6.46c0,2.28 0.412,4.433 1.235,6.46c0.824,2.027 1.932,3.784 3.325,5.272c1.394,1.489 3.024,2.676 4.893,3.563c1.868,0.887 3.847,1.33 5.937,1.33Z" style="fill:#fff;fill-rule:nonzero;"/><path d="M678.451,340.825c-2.28,0 -4.433,0.443 -6.46,1.33c-2.026,0.887 -3.768,2.058 -5.225,3.515c-1.456,1.457 -2.612,3.198 -3.467,5.225c-0.855,2.027 -1.283,4.18 -1.283,6.46c0,2.28 0.428,4.433 1.283,6.46c0.855,2.027 2.011,3.8 3.467,5.32c1.457,1.52 3.199,2.723 5.225,3.61c2.027,0.887 4.18,1.33 6.46,1.33c2.977,0 5.653,-0.712 8.028,-2.137c2.375,-1.425 4.291,-3.278 5.747,-5.558l6.745,4.37c-2.216,3.42 -5.114,6.143 -8.692,8.17c-3.579,2.027 -7.521,3.04 -11.828,3.04c-3.42,0 -6.618,-0.649 -9.595,-1.947c-2.976,-1.299 -5.573,-3.056 -7.79,-5.273c-2.216,-2.217 -3.974,-4.813 -5.272,-7.79c-1.299,-2.977 -1.948,-6.175 -1.948,-9.595c0,-3.357 0.649,-6.523 1.948,-9.5c1.298,-2.977 3.056,-5.557 5.272,-7.742c2.217,-2.185 4.814,-3.927 7.79,-5.225c2.977,-1.299 6.175,-1.948 9.595,-1.948c4.307,0 8.249,1.013 11.828,3.04c3.578,2.027 6.476,4.75 8.692,8.17l-6.65,4.37c-1.456,-2.343 -3.388,-4.212 -5.795,-5.605c-2.406,-1.393 -5.098,-2.09 -8.075,-2.09Z" style="fill:#fff;fill-rule:nonzero;"/><path d="M730.796,380.915c-0.19,0.063 -0.696,0.222 -1.52,0.475c-0.823,0.253 -1.852,0.427 -3.087,0.522c-1.235,0.095 -2.597,0.016 -4.085,-0.237c-1.489,-0.253 -2.929,-0.855 -4.323,-1.805c-4.243,-2.85 -6.365,-8.202 -6.365,-16.055l0,-21.28l-5.795,0l0,-7.885l5.795,0l0,-21.09l7.885,0l0,21.09l9.5,0l0,7.885l-9.5,0l0,21.28c0,5.003 0.95,8.17 2.85,9.5c0.57,0.38 1.188,0.602 1.853,0.665c0.665,0.063 1.282,0.079 1.852,0.048c0.57,-0.032 1.061,-0.111 1.473,-0.238c0.411,-0.127 0.617,-0.19 0.617,-0.19l2.85,7.315Z" style="fill:#fff;fill-rule:nonzero;"/><path d="M748.276,380.25l-8.075,0l0,-45.6l8.075,0l0,45.6Zm1.235,-58.615c0,1.457 -0.506,2.708 -1.52,3.752c-1.013,1.046 -2.248,1.568 -3.705,1.568c-1.456,0 -2.707,-0.522 -3.752,-1.567c-1.045,-1.045 -1.568,-2.296 -1.568,-3.753c0,-1.457 0.523,-2.692 1.568,-3.705c1.045,-1.013 2.296,-1.52 3.752,-1.52c1.457,0 2.692,0.507 3.705,1.52c1.014,1.013 1.52,2.248 1.52,3.705Z" style="fill:#fff;fill-rule:nonzero;"/><path d="M805.276,313.75l0,8.455l-19.76,0l0,58.045l-8.93,0l0,-58.045l-19.76,0l0,-8.455l48.45,0Z" style="fill:#fff;fill-rule:nonzero;"/><path d="M860.091,322.49l-35.34,0l0,20.14l32.775,0l0,8.74l-32.775,0l0,20.14l35.34,0l0,8.74l-44.365,0l0,-66.5l44.365,0l0,8.74Z" style="fill:#fff;fill-rule:nonzero;"/><path d="M915.381,313.75l9.025,0l0,66.5l-8.835,0l-33.25,-50.445l0,50.445l-8.93,0l0,-66.5l8.835,0l33.155,50.35l0,-50.35Z" style="fill:#fff;fill-rule:nonzero;"/><path d="M960.981,341.015c4.814,1.203 8.724,2.66 11.733,4.37c3.008,1.71 5.367,3.531 7.077,5.463c1.71,1.931 2.866,3.879 3.468,5.842c0.601,1.963 0.902,3.832 0.902,5.605c0,2.723 -0.633,5.272 -1.9,7.647c-1.266,2.375 -2.992,4.45 -5.177,6.223c-2.185,1.773 -4.75,3.183 -7.695,4.227c-2.945,1.046 -6.096,1.568 -9.453,1.568c-3.103,0 -6.048,-0.443 -8.835,-1.33c-2.786,-0.887 -5.241,-2.122 -7.362,-3.705c-2.122,-1.583 -3.879,-3.436 -5.273,-5.558c-1.393,-2.121 -2.248,-4.417 -2.565,-6.887l7.885,-1.615c0.887,2.913 2.771,5.368 5.653,7.363c2.881,1.995 6.381,2.992 10.497,2.992c2.09,0 4.069,-0.285 5.938,-0.855c1.868,-0.57 3.499,-1.362 4.892,-2.375c1.394,-1.013 2.486,-2.169 3.278,-3.468c0.791,-1.298 1.187,-2.707 1.187,-4.227c0,-5.827 -5.446,-10.102 -16.34,-12.825c-2.596,-0.633 -5.225,-1.362 -7.885,-2.185c-2.66,-0.823 -5.051,-1.916 -7.172,-3.278c-2.122,-1.361 -3.864,-3.087 -5.225,-5.177c-1.362,-2.09 -2.043,-4.75 -2.043,-7.98c0,-2.723 0.539,-5.241 1.615,-7.552c1.077,-2.312 2.597,-4.291 4.56,-5.938c1.964,-1.647 4.339,-2.945 7.125,-3.895c2.787,-0.95 5.859,-1.425 9.215,-1.425c2.977,0 5.764,0.443 8.36,1.33c2.597,0.887 4.877,2.106 6.84,3.658c1.964,1.551 3.563,3.388 4.798,5.51c1.235,2.121 2.011,4.449 2.327,6.982l-7.885,1.71c-0.696,-3.04 -2.28,-5.542 -4.75,-7.505c-2.47,-1.963 -5.7,-2.945 -9.69,-2.945c-4.243,0 -7.552,0.95 -9.927,2.85c-2.375,1.9 -3.563,4.307 -3.563,7.22c0,1.14 0.206,2.169 0.618,3.087c0.411,0.919 1.171,1.758 2.28,2.518c1.108,0.76 2.66,1.504 4.655,2.233c1.995,0.728 4.607,1.504 7.837,2.327Z" style="fill:#fff;fill-rule:nonzero;"/><g><circle cx="420.839" cy="358" r="125" style="fill:#fff;fill-opacity:0.1;"/><circle cx="420.839" cy="358" r="93.75" style="fill:#fff;fill-opacity:0.2;"/><g><path d="M400.005,347.583c0,-2.299 -1.867,-4.166 -4.166,-4.166l-6.25,0c-2.3,0 -4.167,1.867 -4.167,4.166l0,22.917c0,2.3 1.867,4.167 4.167,4.167l6.25,0c2.299,0 4.166,-1.867 4.166,-4.167l0,-22.917Z" style="fill:#15a9c8;"/><path d="M441.672,347.583c0,-2.299 1.867,-4.166 4.167,-4.166l6.25,0c2.299,0 4.166,1.867 4.166,4.166l0,22.917c0,2.3 -1.867,4.167 -4.166,4.167l-6.25,0c-2.3,0 -4.167,-1.867 -4.167,-4.167l0,-22.917Z" style="fill:#15a9c8;"/><path d="M357.707,335.303c1.16,-3.509 5.257,-6.47 8.957,-6.47l18.758,0c2.298,0 4.167,1.871 4.167,4.167l0,50c0,2.307 -1.858,4.167 -4.167,4.167l-18.758,0c-3.738,0 -7.877,-2.972 -8.949,-6.447l-0.106,-0.274c-0.084,-0.178 -0.256,-0.595 -0.488,-1.253c-0.401,-1.138 -0.806,-2.518 -1.186,-4.142c-1.1,-4.695 -1.763,-10.376 -1.763,-17.051c0,-6.675 0.664,-12.359 1.765,-17.059c0.381,-1.626 0.786,-3.008 1.188,-4.148c0.232,-0.659 0.405,-1.077 0.489,-1.255l0.093,-0.235Z" style="fill:#fafafa;stroke:#14a9c9;stroke-width:4.17px;"/><path d="M483.97,335.303c-1.159,-3.509 -5.257,-6.47 -8.957,-6.47l-18.757,0c-2.298,0 -4.167,1.871 -4.167,4.167l0,50c0,2.307 1.857,4.167 4.167,4.167l18.757,0c3.738,0 7.877,-2.972 8.949,-6.447l0.107,-0.274c0.084,-0.178 0.255,-0.595 0.487,-1.253c0.401,-1.138 0.806,-2.518 1.186,-4.142c1.1,-4.695 1.763,-10.376 1.763,-17.051c0,-6.675 -0.663,-12.359 -1.765,-17.059c-0.381,-1.626 -0.786,-3.008 -1.188,-4.148c-0.232,-0.659 -0.404,-1.077 -0.488,-1.255l-0.094,-0.235Z" style="fill:#fafafa;stroke:#14a9c9;stroke-width:4.17px;"/><path d="M443.755,335.083c0,-3.449 -2.8,-6.25 -6.25,-6.25l-33.333,0c-3.449,0 -6.25,2.801 -6.25,6.25l0,45.834c0,3.449 2.801,6.25 6.25,6.25l33.333,0c3.45,0 6.25,-2.801 6.25,-6.25l0,-45.834Z" style="fill:#fafafa;stroke:#14a9c9;stroke-width:4.17px;"/><path d="M431.255,376.5c0,-0.276 -0.224,-0.5 -0.5,-0.5l-19.833,0c-0.276,0 -0.5,0.224 -0.5,0.5l0,1c0,0.276 0.224,0.5 0.5,0.5l19.833,0c0.276,0 0.5,-0.224 0.5,-0.5l0,-1Z" style="fill:#00bc8d;stroke:#15a9c8;stroke-width:2px;stroke-linecap:round;stroke-linejoin:round;stroke-miterlimit:1.41421;"/><g><path d="M366.215,351.821c-1.026,-1.504 -1.626,-3.322 -1.626,-5.279c0,-5.178 4.197,-9.375 9.375,-9.375c5.177,0 9.375,4.197 9.375,9.375c0,1.989 -0.62,3.834 -1.677,5.351c-0.371,0.646 -1.842,3.376 -1.842,6.107c0,2.731 1.472,5.463 1.843,6.108c1.056,1.517 1.676,3.361 1.676,5.35c0,5.178 -4.198,9.375 -9.375,9.375c-5.178,0 -9.375,-4.197 -9.375,-9.375c0,-1.957 0.6,-3.775 1.626,-5.279c0.231,-0.48 1.539,-3.329 1.539,-6.179c0,-2.85 -1.308,-5.699 -1.539,-6.179Z" style="fill:#fcfcfe;stroke:#f4f4f7;stroke-width:2.08px;"/><ellipse cx="373.965" cy="369.458" rx="4.168" ry="4.167" style="fill:#e6f6fa;stroke:#12b3d5;stroke-width:2.08px;"/><ellipse cx="373.965" cy="346.542" rx="4.168" ry="4.167" style="fill:#e6f6fa;stroke:#12b3d5;stroke-width:2.08px;"/></g><g><path d="M459.965,351.821c-1.026,-1.504 -1.626,-3.322 -1.626,-5.279c0,-5.178 4.197,-9.375 9.375,-9.375c5.177,0 9.375,4.197 9.375,9.375c0,1.989 -0.62,3.834 -1.677,5.351c-0.371,0.646 -1.842,3.376 -1.842,6.107c0,2.731 1.472,5.463 1.843,6.108c1.056,1.517 1.676,3.361 1.676,5.35c0,5.178 -4.198,9.375 -9.375,9.375c-5.178,0 -9.375,-4.197 -9.375,-9.375c0,-1.957 0.6,-3.775 1.626,-5.279c0.231,-0.48 1.539,-3.329 1.539,-6.179c0,-2.85 -1.308,-5.699 -1.539,-6.179Z" style="fill:#fcfcfe;stroke:#f4f4f7;stroke-width:2.08px;"/><ellipse cx="467.715" cy="369.458" rx="4.168" ry="4.167" style="fill:#e6f6fa;stroke:#12b3d5;stroke-width:2.08px;"/><ellipse cx="467.715" cy="346.542" rx="4.168" ry="4.167" style="fill:#e6f6fa;stroke:#12b3d5;stroke-width:2.08px;"/></g><g><path d="M416.951,342.716c-0.821,-0.92 -1.321,-2.135 -1.321,-3.466c0,-2.876 2.332,-5.208 5.209,-5.208c2.876,0 5.208,2.332 5.208,5.208c0,1.354 -0.516,2.587 -1.363,3.513c0.005,0.849 0.106,1.76 0.391,2.737c0.378,1.294 1.18,2.817 1.973,4.136c2.553,1.898 4.207,4.938 4.207,8.364c0,5.753 -4.663,10.417 -10.416,10.417c-5.753,0 -10.417,-4.664 -10.417,-10.417c0,-3.391 1.621,-6.404 4.13,-8.306c0.804,-1.332 1.624,-2.881 2.008,-4.194c0.29,-0.995 0.389,-1.921 0.391,-2.784Z" style="fill:#fcfcfe;stroke:#f4f4f7;stroke-width:2.08px;"/><circle cx="420.839" cy="339.25" r="2.083" style="fill:#fcfcfe;stroke:#12b3d5;stroke-width:2.08px;"/><ellipse cx="420.842" cy="358" rx="7.295" ry="7.292" style="fill:#fcfcfe;stroke:#12b3d5;stroke-width:2.08px;"/></g></g></g></g></g></g></svg>