<?xml version="1.0" encoding="UTF-8" standalone="no"?><!DOCTYPE svg PUBLIC "-//W3C//DTD SVG 1.1//EN" "http://www.w3.org/Graphics/SVG/1.1/DTD/svg11.dtd"><svg width="100%" height="100%" viewBox="0 0 1280 720" version="1.1" xmlns="http://www.w3.org/2000/svg" xmlns:xlink="http://www.w3.org/1999/xlink" xml:space="preserve" style="fill-rule:evenodd;clip-rule:evenodd;"><g id="actiTENS"><g><circle cx="411" cy="360" r="125" style="fill:#fff;fill-opacity:0.0986353;"/><circle cx="411" cy="360" r="93.75" style="fill:#fff;fill-opacity:0.2;"/><g><path d="M390.167,349.583c0,-2.299 -1.867,-4.166 -4.167,-4.166l-6.25,0c-2.3,0 -4.167,1.867 -4.167,4.166l0,22.917c0,2.3 1.867,4.167 4.167,4.167l6.25,0c2.3,0 4.167,-1.867 4.167,-4.167l0,-22.917Z" style="fill:#15a9c8;"/><path d="M431.833,349.583c0,-2.299 1.867,-4.166 4.167,-4.166l6.25,0c2.3,0 4.167,1.867 4.167,4.166l0,22.917c0,2.3 -1.867,4.167 -4.167,4.167l-6.25,0c-2.3,0 -4.167,-1.867 -4.167,-4.167l0,-22.917Z" style="fill:#15a9c8;"/><g><path d="M347.868,337.303c1.16,-3.509 5.258,-6.47 8.957,-6.47l18.758,0c2.298,0 4.167,1.871 4.167,4.167l0,50c0,2.307 -1.857,4.167 -4.167,4.167l-18.758,0c-3.738,0 -7.877,-2.972 -8.949,-6.447l-0.106,-0.274c-0.084,-0.178 -0.256,-0.595 -0.488,-1.253c-0.401,-1.138 -0.805,-2.518 -1.186,-4.142c-1.1,-4.695 -1.763,-10.376 -1.763,-17.051c0,-6.675 0.664,-12.359 1.765,-17.059c0.381,-1.626 0.787,-3.008 1.188,-4.148c0.233,-0.659 0.405,-1.077 0.489,-1.255l0.093,-0.235Z" style="fill:#fafafa;"/><path d="M375.744,328.752l0.159,0.006l0.159,0.01l0.158,0.014l0.157,0.018l0.156,0.022l0.154,0.026l0.154,0.029l0.152,0.033l0.151,0.037l0.149,0.041l0.148,0.044l0.147,0.048l0.144,0.051l0.143,0.054l0.142,0.058l0.139,0.061l0.138,0.065l0.136,0.068l0.134,0.07l0.132,0.074l0.129,0.077l0.128,0.08l0.126,0.083l0.123,0.085l0.121,0.089l0.119,0.091l0.117,0.094l0.114,0.097l0.112,0.099l0.11,0.102l0.107,0.105l0.104,0.107l0.102,0.109l0.099,0.112l0.097,0.114l0.094,0.117l0.091,0.119l0.089,0.121l0.085,0.124l0.083,0.125l0.08,0.128l0.077,0.13l0.074,0.132l0.07,0.134l0.068,0.135l0.064,0.138l0.061,0.14l0.058,0.141l0.055,0.143l0.051,0.145l0.047,0.146l0.045,0.148l0.04,0.149l0.037,0.151l0.033,0.152l0.03,0.154l0.025,0.154l0.022,0.156l0.018,0.157l0.014,0.157l0.01,0.159l0.006,0.16l0.002,0.147l0,50.026l-0.002,0.147l-0.006,0.16l-0.01,0.158l-0.013,0.158l-0.018,0.157l-0.022,0.156l-0.025,0.154l-0.03,0.154l-0.033,0.152l-0.036,0.151l-0.041,0.149l-0.043,0.148l-0.048,0.147l-0.051,0.145l-0.054,0.143l-0.057,0.141l-0.061,0.14l-0.064,0.138l-0.068,0.136l-0.07,0.134l-0.074,0.132l-0.077,0.13l-0.079,0.128l-0.083,0.126l-0.085,0.123l-0.089,0.122l-0.091,0.119l-0.094,0.117l-0.097,0.114l-0.099,0.112l-0.102,0.11l-0.105,0.107l-0.107,0.105l-0.11,0.102l-0.111,0.099l-0.115,0.097l-0.117,0.094l-0.119,0.092l-0.122,0.088l-0.123,0.086l-0.126,0.082l-0.128,0.08l-0.13,0.077l-0.132,0.074l-0.134,0.07l-0.136,0.068l-0.138,0.064l-0.139,0.061l-0.142,0.057l-0.144,0.055l-0.145,0.051l-0.146,0.047l-0.148,0.044l-0.15,0.04l-0.15,0.037l-0.153,0.033l-0.153,0.029l-0.155,0.026l-0.156,0.021l-0.157,0.018l-0.158,0.014l-0.159,0.01l-0.159,0.006l-0.148,0.002l-18.777,0l-0.107,-0.001l-0.113,-0.002l-0.114,-0.003l-0.113,-0.005l-0.112,-0.006l-0.113,-0.008l-0.112,-0.009l-0.113,-0.01l-0.113,-0.011l-0.111,-0.013l-0.112,-0.014l-0.111,-0.015l-0.112,-0.016l-0.111,-0.018l-0.111,-0.019l-0.11,-0.02l-0.111,-0.021l-0.11,-0.022l-0.11,-0.023l-0.109,-0.025l-0.11,-0.026l-0.109,-0.027l-0.108,-0.028l-0.109,-0.029l-0.108,-0.03l-0.108,-0.031l-0.108,-0.032l-0.106,-0.033l-0.107,-0.034l-0.107,-0.036l-0.106,-0.036l-0.106,-0.037l-0.105,-0.039l-0.106,-0.039l-0.104,-0.04l-0.104,-0.041l-0.104,-0.042l-0.104,-0.044l-0.103,-0.044l-0.103,-0.045l-0.103,-0.046l-0.101,-0.046l-0.102,-0.048l-0.101,-0.049l-0.101,-0.049l-0.1,-0.051l-0.1,-0.051l-0.099,-0.052l-0.099,-0.053l-0.099,-0.054l-0.098,-0.054l-0.098,-0.056l-0.096,-0.056l-0.097,-0.057l-0.096,-0.059l-0.096,-0.058l-0.095,-0.06l-0.095,-0.06l-0.093,-0.061l-0.094,-0.062l-0.093,-0.063l-0.092,-0.064l-0.092,-0.064l-0.092,-0.065l-0.091,-0.066l-0.09,-0.067l-0.089,-0.067l-0.089,-0.068l-0.088,-0.069l-0.088,-0.07l-0.088,-0.07l-0.086,-0.071l-0.086,-0.072l-0.085,-0.073l-0.085,-0.073l-0.084,-0.074l-0.083,-0.075l-0.083,-0.075l-0.082,-0.076l-0.081,-0.077l-0.081,-0.077l-0.08,-0.079l-0.079,-0.079l-0.078,-0.079l-0.078,-0.08l-0.077,-0.081l-0.076,-0.082l-0.076,-0.083l-0.074,-0.082l-0.074,-0.084l-0.073,-0.084l-0.072,-0.085l-0.072,-0.086l-0.07,-0.086l-0.07,-0.087l-0.069,-0.088l-0.068,-0.088l-0.067,-0.089l-0.066,-0.09l-0.065,-0.09l-0.065,-0.091l-0.063,-0.091l-0.063,-0.093l-0.062,-0.092l-0.06,-0.094l-0.06,-0.094l-0.059,-0.095l-0.057,-0.095l-0.057,-0.096l-0.055,-0.096l-0.055,-0.098l-0.053,-0.098l-0.053,-0.098l-0.051,-0.099l-0.05,-0.1l-0.049,-0.1l-0.048,-0.101l-0.047,-0.102l-0.045,-0.102l-0.045,-0.103l-0.043,-0.103l-0.042,-0.104l-0.04,-0.105l-0.039,-0.105l-0.039,-0.106l-0.036,-0.107l-0.035,-0.106l-0.01,-0.031l-0.061,-0.156l-0.018,-0.041l-0.058,-0.133l-0.062,-0.149l-0.067,-0.167l-0.073,-0.188l-0.079,-0.209l-0.084,-0.23l-0.09,-0.252l-0.081,-0.232l-0.081,-0.237l-0.08,-0.243l-0.08,-0.247l-0.079,-0.254l-0.08,-0.258l-0.079,-0.264l-0.078,-0.27l-0.079,-0.275l-0.077,-0.28l-0.078,-0.286l-0.077,-0.292l-0.076,-0.297l-0.076,-0.303l-0.075,-0.308l-0.074,-0.313l-0.053,-0.23l-0.053,-0.231l-0.052,-0.232l-0.051,-0.233l-0.05,-0.235l-0.05,-0.237l-0.049,-0.237l-0.048,-0.239l-0.048,-0.241l-0.047,-0.242l-0.046,-0.244l-0.045,-0.244l-0.045,-0.247l-0.044,-0.247l-0.043,-0.249l-0.042,-0.251l-0.042,-0.251l-0.04,-0.254l-0.041,-0.254l-0.039,-0.257l-0.038,-0.257l-0.038,-0.259l-0.037,-0.26l-0.036,-0.262l-0.036,-0.263l-0.034,-0.265l-0.034,-0.266l-0.033,-0.267l-0.032,-0.269l-0.031,-0.27l-0.031,-0.272l-0.029,-0.273l-0.029,-0.274l-0.028,-0.276l-0.027,-0.278l-0.026,-0.278l-0.026,-0.28l-0.024,-0.282l-0.024,-0.283l-0.023,-0.284l-0.022,-0.286l-0.021,-0.288l-0.02,-0.288l-0.019,-0.29l-0.019,-0.292l-0.017,-0.293l-0.017,-0.294l-0.015,-0.296l-0.015,-0.297l-0.014,-0.299l-0.013,-0.3l-0.012,-0.302l-0.011,-0.302l-0.01,-0.305l-0.009,-0.306l-0.009,-0.307l-0.007,-0.308l-0.006,-0.311l-0.006,-0.311l-0.004,-0.313l-0.004,-0.314l-0.002,-0.316l-0.001,-0.317l-0.001,-0.319l0.001,-0.319l0.001,-0.317l0.002,-0.316l0.004,-0.314l0.004,-0.313l0.006,-0.312l0.006,-0.31l0.007,-0.308l0.009,-0.308l0.009,-0.305l0.01,-0.305l0.011,-0.303l0.012,-0.301l0.013,-0.301l0.014,-0.298l0.015,-0.298l0.015,-0.295l0.017,-0.295l0.018,-0.293l0.018,-0.292l0.019,-0.29l0.02,-0.289l0.022,-0.287l0.022,-0.286l0.022,-0.284l0.024,-0.283l0.025,-0.282l0.025,-0.28l0.026,-0.279l0.028,-0.278l0.028,-0.276l0.028,-0.274l0.03,-0.274l0.031,-0.271l0.031,-0.271l0.032,-0.269l0.033,-0.267l0.034,-0.266l0.034,-0.265l0.036,-0.263l0.036,-0.262l0.037,-0.261l0.038,-0.259l0.038,-0.257l0.04,-0.257l0.04,-0.255l0.041,-0.253l0.041,-0.252l0.043,-0.251l0.043,-0.249l0.044,-0.248l0.044,-0.246l0.046,-0.245l0.046,-0.244l0.047,-0.242l0.048,-0.241l0.048,-0.239l0.049,-0.238l0.05,-0.237l0.05,-0.235l0.051,-0.234l0.052,-0.232l0.053,-0.231l0.053,-0.23l0.075,-0.314l0.075,-0.308l0.076,-0.303l0.076,-0.297l0.077,-0.292l0.077,-0.287l0.078,-0.28l0.079,-0.276l0.078,-0.27l0.08,-0.264l0.079,-0.259l0.08,-0.254l0.08,-0.248l0.08,-0.243l0.081,-0.237l0.08,-0.232l0.091,-0.253l0.084,-0.23l0.079,-0.21l0.073,-0.188l0.068,-0.167l0.062,-0.15l0.057,-0.133l0.023,-0.05l0.054,-0.136l0.014,-0.041l0.037,-0.106l0.039,-0.106l0.04,-0.105l0.041,-0.104l0.042,-0.104l0.044,-0.104l0.044,-0.103l0.046,-0.102l0.047,-0.101l0.048,-0.101l0.049,-0.101l0.05,-0.1l0.052,-0.099l0.052,-0.099l0.054,-0.098l0.054,-0.097l0.056,-0.097l0.056,-0.096l0.058,-0.096l0.058,-0.095l0.06,-0.094l0.06,-0.094l0.062,-0.093l0.062,-0.092l0.063,-0.092l0.064,-0.092l0.065,-0.09l0.066,-0.09l0.067,-0.09l0.067,-0.088l0.069,-0.088l0.069,-0.088l0.07,-0.087l0.071,-0.086l0.072,-0.085l0.072,-0.085l0.073,-0.084l0.074,-0.084l0.075,-0.083l0.076,-0.082l0.076,-0.081l0.077,-0.081l0.078,-0.08l0.078,-0.08l0.08,-0.078l0.079,-0.079l0.081,-0.077l0.081,-0.077l0.082,-0.076l0.083,-0.075l0.083,-0.075l0.084,-0.074l0.084,-0.073l0.085,-0.073l0.086,-0.071l0.087,-0.072l0.086,-0.07l0.088,-0.069l0.088,-0.069l0.089,-0.069l0.089,-0.067l0.09,-0.067l0.09,-0.066l0.091,-0.065l0.092,-0.064l0.092,-0.064l0.092,-0.062l0.094,-0.063l0.093,-0.061l0.094,-0.06l0.095,-0.06l0.095,-0.059l0.096,-0.058l0.096,-0.057l0.096,-0.056l0.097,-0.056l0.098,-0.054l0.098,-0.054l0.098,-0.053l0.099,-0.053l0.099,-0.051l0.1,-0.05l0.1,-0.05l0.101,-0.048l0.101,-0.048l0.101,-0.047l0.102,-0.046l0.102,-0.045l0.103,-0.044l0.103,-0.043l0.103,-0.042l0.104,-0.041l0.104,-0.041l0.104,-0.039l0.105,-0.038l0.105,-0.038l0.106,-0.036l0.105,-0.035l0.106,-0.035l0.107,-0.033l0.107,-0.032l0.107,-0.031l0.107,-0.03l0.108,-0.029l0.108,-0.028l0.108,-0.027l0.109,-0.026l0.109,-0.024l0.109,-0.024l0.109,-0.022l0.11,-0.021l0.11,-0.02l0.11,-0.019l0.111,-0.018l0.11,-0.016l0.111,-0.015l0.111,-0.014l0.111,-0.013l0.112,-0.011l0.111,-0.01l0.112,-0.009l0.112,-0.008l0.112,-0.006l0.113,-0.005l0.112,-0.003l0.113,-0.002l0.106,-0.001l18.777,0l0.148,0.002Zm-18.912,4.165l-0.067,0l-0.062,0.001l-0.061,0.002l-0.062,0.003l-0.063,0.003l-0.062,0.004l-0.064,0.005l-0.063,0.006l-0.064,0.007l-0.064,0.007l-0.064,0.008l-0.065,0.009l-0.065,0.01l-0.065,0.01l-0.066,0.011l-0.065,0.012l-0.066,0.013l-0.066,0.013l-0.067,0.015l-0.067,0.015l-0.066,0.015l-0.067,0.017l-0.068,0.017l-0.067,0.019l-0.067,0.018l-0.068,0.02l-0.067,0.021l-0.068,0.021l-0.068,0.022l-0.068,0.022l-0.068,0.024l-0.068,0.024l-0.068,0.025l-0.068,0.025l-0.068,0.027l-0.068,0.027l-0.068,0.027l-0.068,0.029l-0.068,0.029l-0.068,0.03l-0.067,0.03l-0.068,0.032l-0.068,0.032l-0.067,0.032l-0.068,0.034l-0.067,0.034l-0.067,0.034l-0.067,0.036l-0.067,0.035l-0.066,0.037l-0.066,0.037l-0.066,0.038l-0.066,0.039l-0.066,0.039l-0.065,0.039l-0.065,0.041l-0.065,0.04l-0.065,0.042l-0.064,0.042l-0.064,0.042l-0.063,0.043l-0.063,0.044l-0.063,0.044l-0.063,0.045l-0.062,0.045l-0.062,0.046l-0.061,0.046l-0.061,0.047l-0.06,0.047l-0.06,0.048l-0.06,0.049l-0.059,0.048l-0.059,0.049l-0.058,0.05l-0.058,0.05l-0.057,0.05l-0.056,0.051l-0.057,0.051l-0.055,0.052l-0.055,0.052l-0.055,0.052l-0.054,0.053l-0.053,0.053l-0.053,0.053l-0.052,0.054l-0.051,0.055l-0.051,0.054l-0.051,0.055l-0.049,0.055l-0.049,0.055l-0.049,0.055l-0.047,0.056l-0.047,0.056l-0.047,0.057l-0.045,0.056l-0.045,0.057l-0.044,0.057l-0.044,0.057l-0.043,0.057l-0.042,0.058l-0.041,0.057l-0.041,0.058l-0.04,0.058l-0.039,0.058l-0.038,0.058l-0.037,0.058l-0.037,0.059l-0.036,0.058l-0.035,0.059l-0.035,0.058l-0.033,0.058l-0.033,0.059l-0.032,0.059l-0.031,0.058l-0.03,0.059l-0.03,0.058l-0.028,0.059l-0.028,0.058l-0.027,0.059l-0.026,0.058l-0.026,0.059l-0.024,0.058l-0.024,0.058l-0.023,0.058l-0.022,0.058l-0.021,0.058l-0.02,0.057l-0.042,0.124l-0.133,0.333l-0.048,0.105l-0.029,0.069l-0.041,0.097l-0.049,0.123l-0.058,0.149l-0.065,0.172l-0.072,0.196l-0.078,0.219l-0.07,0.201l-0.07,0.207l-0.071,0.213l-0.07,0.219l-0.071,0.225l-0.071,0.231l-0.071,0.237l-0.071,0.243l-0.07,0.249l-0.071,0.254l-0.07,0.261l-0.071,0.266l-0.069,0.272l-0.07,0.278l-0.069,0.284l-0.069,0.291l-0.049,0.212l-0.049,0.213l-0.048,0.216l-0.048,0.217l-0.047,0.219l-0.046,0.219l-0.046,0.222l-0.045,0.223l-0.044,0.224l-0.044,0.226l-0.043,0.227l-0.042,0.229l-0.042,0.23l-0.041,0.232l-0.04,0.234l-0.04,0.234l-0.039,0.236l-0.038,0.238l-0.038,0.239l-0.037,0.241l-0.036,0.242l-0.036,0.244l-0.035,0.245l-0.034,0.246l-0.033,0.248l-0.033,0.25l-0.032,0.251l-0.031,0.252l-0.03,0.254l-0.03,0.256l-0.028,0.257l-0.028,0.258l-0.028,0.26l-0.026,0.261l-0.026,0.263l-0.025,0.264l-0.024,0.266l-0.023,0.268l-0.023,0.268l-0.022,0.27l-0.02,0.272l-0.021,0.273l-0.019,0.275l-0.018,0.276l-0.018,0.278l-0.016,0.279l-0.016,0.28l-0.015,0.282l-0.014,0.284l-0.013,0.285l-0.013,0.286l-0.011,0.288l-0.011,0.29l-0.01,0.291l-0.008,0.292l-0.008,0.294l-0.007,0.295l-0.006,0.297l-0.006,0.298l-0.004,0.3l-0.003,0.301l-0.002,0.303l-0.002,0.304l0,0.306l0,0.306l0.002,0.304l0.002,0.303l0.003,0.301l0.004,0.3l0.006,0.298l0.006,0.297l0.007,0.295l0.008,0.294l0.008,0.292l0.01,0.291l0.011,0.289l0.011,0.288l0.012,0.287l0.014,0.285l0.014,0.283l0.015,0.282l0.015,0.281l0.017,0.279l0.018,0.277l0.018,0.276l0.019,0.275l0.02,0.273l0.021,0.271l0.022,0.271l0.022,0.268l0.024,0.267l0.024,0.266l0.025,0.264l0.025,0.263l0.027,0.261l0.027,0.26l0.028,0.258l0.029,0.257l0.029,0.255l0.031,0.254l0.031,0.252l0.032,0.251l0.032,0.25l0.033,0.248l0.034,0.246l0.035,0.245l0.036,0.243l0.036,0.242l0.037,0.241l0.037,0.239l0.039,0.237l0.039,0.236l0.039,0.235l0.041,0.233l0.041,0.232l0.041,0.23l0.043,0.228l0.043,0.228l0.043,0.225l0.045,0.224l0.045,0.223l0.045,0.221l0.046,0.22l0.047,0.218l0.048,0.217l0.048,0.215l0.048,0.214l0.049,0.211l0.069,0.291l0.07,0.283l0.069,0.278l0.07,0.272l0.07,0.266l0.07,0.26l0.071,0.254l0.07,0.249l0.071,0.242l0.071,0.236l0.071,0.231l0.07,0.225l0.071,0.218l0.07,0.213l0.07,0.207l0.07,0.2l0.078,0.219l0.072,0.195l0.065,0.172l0.057,0.148l0.05,0.123l0.04,0.097l0.029,0.068l0.053,0.114l0.152,0.393l0.042,0.132l0.018,0.056l0.019,0.055l0.02,0.056l0.021,0.056l0.022,0.056l0.022,0.056l0.024,0.056l0.024,0.057l0.025,0.057l0.026,0.056l0.027,0.056l0.028,0.058l0.029,0.057l0.029,0.056l0.03,0.057l0.031,0.057l0.032,0.057l0.033,0.057l0.034,0.057l0.034,0.058l0.036,0.056l0.036,0.057l0.037,0.057l0.038,0.057l0.038,0.057l0.039,0.056l0.04,0.057l0.041,0.057l0.042,0.056l0.042,0.056l0.043,0.056l0.044,0.056l0.045,0.055l0.045,0.056l0.046,0.055l0.047,0.055l0.048,0.055l0.048,0.054l0.049,0.055l0.049,0.054l0.05,0.054l0.051,0.053l0.052,0.053l0.052,0.054l0.053,0.052l0.053,0.052l0.054,0.052l0.055,0.052l0.055,0.051l0.056,0.051l0.056,0.05l0.057,0.05l0.057,0.05l0.058,0.049l0.058,0.049l0.059,0.049l0.06,0.048l0.06,0.047l0.06,0.047l0.061,0.047l0.061,0.046l0.062,0.045l0.062,0.046l0.062,0.044l0.063,0.044l0.064,0.044l0.063,0.043l0.064,0.042l0.065,0.042l0.065,0.042l0.065,0.04l0.065,0.041l0.066,0.039l0.065,0.039l0.067,0.039l0.067,0.038l0.066,0.037l0.067,0.036l0.067,0.036l0.068,0.036l0.067,0.034l0.068,0.034l0.068,0.034l0.068,0.032l0.068,0.032l0.069,0.032l0.068,0.03l0.069,0.03l0.068,0.03l0.068,0.028l0.069,0.028l0.069,0.027l0.069,0.027l0.069,0.025l0.069,0.026l0.069,0.024l0.068,0.023l0.069,0.023l0.068,0.022l0.07,0.021l0.068,0.021l0.068,0.02l0.069,0.019l0.068,0.018l0.068,0.017l0.068,0.017l0.068,0.016l0.067,0.015l0.068,0.015l0.067,0.013l0.067,0.013l0.066,0.012l0.068,0.011l0.066,0.011l0.065,0.009l0.066,0.009l0.065,0.009l0.066,0.007l0.064,0.007l0.065,0.005l0.064,0.005l0.064,0.005l0.064,0.003l0.063,0.003l0.062,0.002l0.063,0.001l0.068,0l18.738,0l0.068,-0.001l0.056,-0.002l0.054,-0.003l0.053,-0.005l0.053,-0.006l0.052,-0.007l0.052,-0.009l0.051,-0.009l0.051,-0.011l0.05,-0.013l0.05,-0.013l0.048,-0.014l0.049,-0.016l0.048,-0.017l0.047,-0.018l0.047,-0.019l0.046,-0.02l0.046,-0.021l0.044,-0.022l0.045,-0.024l0.044,-0.024l0.043,-0.026l0.042,-0.026l0.042,-0.028l0.041,-0.028l0.041,-0.03l0.039,-0.03l0.039,-0.031l0.038,-0.032l0.038,-0.034l0.036,-0.034l0.036,-0.035l0.035,-0.035l0.034,-0.037l0.033,-0.037l0.032,-0.039l0.032,-0.039l0.03,-0.039l0.029,-0.04l0.029,-0.042l0.027,-0.042l0.027,-0.042l0.025,-0.043l0.025,-0.044l0.023,-0.044l0.022,-0.045l0.022,-0.046l0.02,-0.046l0.019,-0.047l0.018,-0.047l0.017,-0.048l0.015,-0.048l0.015,-0.049l0.013,-0.05l0.012,-0.05l0.011,-0.05l0.01,-0.052l0.008,-0.051l0.008,-0.052l0.006,-0.053l0.004,-0.054l0.004,-0.054l0.002,-0.055l0.001,-0.068l0,-49.974l-0.001,-0.067l-0.002,-0.054l-0.004,-0.053l-0.004,-0.053l-0.006,-0.052l-0.008,-0.052l-0.008,-0.051l-0.01,-0.05l-0.011,-0.05l-0.012,-0.05l-0.013,-0.049l-0.015,-0.049l-0.015,-0.048l-0.017,-0.048l-0.018,-0.047l-0.019,-0.047l-0.021,-0.046l-0.021,-0.046l-0.022,-0.045l-0.024,-0.044l-0.025,-0.044l-0.025,-0.044l-0.027,-0.042l-0.028,-0.042l-0.028,-0.042l-0.03,-0.041l-0.031,-0.04l-0.031,-0.039l-0.033,-0.038l-0.034,-0.038l-0.034,-0.037l-0.035,-0.036l-0.036,-0.035l-0.037,-0.035l-0.038,-0.033l-0.039,-0.033l-0.039,-0.032l-0.04,-0.03l-0.041,-0.03l-0.041,-0.029l-0.042,-0.028l-0.043,-0.026l-0.043,-0.026l-0.044,-0.025l-0.045,-0.023l-0.045,-0.023l-0.045,-0.021l-0.046,-0.02l-0.047,-0.019l-0.047,-0.018l-0.048,-0.017l-0.048,-0.016l-0.049,-0.014l-0.049,-0.014l-0.05,-0.012l-0.05,-0.011l-0.051,-0.01l-0.051,-0.008l-0.051,-0.007l-0.053,-0.006l-0.052,-0.005l-0.054,-0.003l-0.054,-0.002l-0.067,-0.001l-18.738,0Z" style="fill:#14a9c9;"/></g><path d="M474.132,337.303c-1.16,-3.509 -5.258,-6.47 -8.957,-6.47l-18.758,0c-2.298,0 -4.167,1.871 -4.167,4.167l0,50c0,2.307 1.857,4.167 4.167,4.167l18.758,0c3.738,0 7.877,-2.972 8.949,-6.447l0.106,-0.274c0.084,-0.178 0.256,-0.595 0.488,-1.253c0.401,-1.138 0.805,-2.518 1.186,-4.142c1.1,-4.695 1.763,-10.376 1.763,-17.051c0,-6.675 -0.664,-12.359 -1.765,-17.059c-0.381,-1.626 -0.787,-3.008 -1.188,-4.148c-0.233,-0.659 -0.405,-1.077 -0.489,-1.255l-0.093,-0.235Z" style="fill:#fafafa;"/><path d="M465.287,328.751l0.113,0.002l0.112,0.003l0.113,0.005l0.112,0.006l0.112,0.008l0.112,0.009l0.111,0.01l0.112,0.011l0.111,0.013l0.111,0.014l0.111,0.015l0.11,0.016l0.111,0.018l0.11,0.019l0.11,0.02l0.11,0.021l0.109,0.022l0.109,0.024l0.109,0.024l0.109,0.026l0.108,0.027l0.108,0.028l0.108,0.029l0.107,0.03l0.107,0.031l0.107,0.032l0.107,0.033l0.106,0.035l0.105,0.035l0.106,0.036l0.105,0.038l0.105,0.038l0.104,0.039l0.104,0.041l0.104,0.041l0.103,0.042l0.103,0.043l0.103,0.044l0.102,0.045l0.102,0.046l0.101,0.047l0.101,0.048l0.101,0.048l0.1,0.05l0.1,0.05l0.099,0.051l0.099,0.053l0.098,0.053l0.098,0.054l0.098,0.054l0.097,0.056l0.096,0.056l0.096,0.057l0.096,0.058l0.095,0.059l0.095,0.06l0.094,0.06l0.093,0.061l0.094,0.063l0.092,0.062l0.092,0.064l0.092,0.064l0.091,0.065l0.09,0.066l0.09,0.067l0.089,0.067l0.089,0.069l0.088,0.068l0.088,0.07l0.086,0.07l0.087,0.071l0.086,0.072l0.085,0.073l0.084,0.073l0.084,0.074l0.083,0.075l0.083,0.075l0.082,0.076l0.081,0.077l0.08,0.077l0.081,0.079l0.079,0.078l0.078,0.08l0.078,0.08l0.077,0.081l0.076,0.082l0.076,0.082l0.074,0.082l0.074,0.084l0.074,0.084l0.072,0.085l0.072,0.085l0.071,0.086l0.07,0.087l0.069,0.088l0.069,0.088l0.067,0.089l0.067,0.089l0.066,0.09l0.065,0.091l0.064,0.091l0.063,0.091l0.063,0.093l0.061,0.094l0.06,0.093l0.06,0.094l0.058,0.095l0.058,0.096l0.056,0.096l0.056,0.097l0.054,0.098l0.054,0.097l0.052,0.099l0.052,0.099l0.05,0.1l0.049,0.1l0.048,0.102l0.047,0.102l0.046,0.101l0.044,0.103l0.044,0.104l0.042,0.104l0.041,0.104l0.04,0.105l0.039,0.106l0.037,0.106l0.014,0.041l0.054,0.136l0.023,0.051l0.057,0.132l0.062,0.149l0.068,0.168l0.073,0.189l0.079,0.209l0.084,0.23l0.091,0.253l0.08,0.232l0.081,0.238l0.08,0.242l0.08,0.248l0.08,0.254l0.079,0.259l0.08,0.264l0.078,0.27l0.079,0.276l0.078,0.281l0.077,0.286l0.077,0.292l0.076,0.297l0.076,0.303l0.075,0.308l0.075,0.314l0.053,0.23l0.053,0.231l0.052,0.232l0.051,0.234l0.05,0.235l0.05,0.237l0.049,0.238l0.048,0.239l0.048,0.241l0.047,0.242l0.046,0.244l0.046,0.245l0.044,0.246l0.044,0.248l0.043,0.249l0.043,0.251l0.041,0.252l0.041,0.253l0.04,0.255l0.04,0.257l0.038,0.257l0.038,0.259l0.037,0.261l0.036,0.262l0.036,0.263l0.034,0.265l0.034,0.266l0.033,0.267l0.032,0.269l0.031,0.271l0.031,0.271l0.03,0.274l0.028,0.274l0.028,0.276l0.028,0.278l0.026,0.279l0.025,0.28l0.025,0.282l0.024,0.283l0.022,0.284l0.022,0.286l0.022,0.287l0.02,0.289l0.019,0.29l0.018,0.292l0.018,0.293l0.017,0.295l0.015,0.295l0.015,0.298l0.014,0.299l0.013,0.3l0.012,0.301l0.011,0.303l0.01,0.305l0.009,0.305l0.009,0.308l0.007,0.308l0.006,0.31l0.006,0.312l0.004,0.313l0.004,0.314l0.002,0.316l0.002,0.317l0,0.319l0,0.319l-0.002,0.317l-0.002,0.316l-0.004,0.314l-0.004,0.313l-0.006,0.311l-0.006,0.311l-0.007,0.308l-0.009,0.307l-0.009,0.306l-0.01,0.305l-0.011,0.302l-0.012,0.302l-0.013,0.3l-0.014,0.299l-0.015,0.297l-0.015,0.296l-0.017,0.294l-0.017,0.293l-0.019,0.292l-0.019,0.29l-0.02,0.288l-0.021,0.288l-0.022,0.286l-0.023,0.284l-0.024,0.283l-0.024,0.282l-0.026,0.28l-0.026,0.278l-0.027,0.278l-0.028,0.276l-0.029,0.274l-0.029,0.273l-0.031,0.272l-0.031,0.27l-0.032,0.269l-0.033,0.267l-0.034,0.266l-0.035,0.265l-0.035,0.263l-0.036,0.262l-0.037,0.26l-0.038,0.259l-0.038,0.257l-0.039,0.257l-0.041,0.254l-0.04,0.253l-0.042,0.252l-0.042,0.251l-0.043,0.249l-0.044,0.247l-0.045,0.247l-0.045,0.244l-0.046,0.244l-0.047,0.242l-0.048,0.241l-0.048,0.239l-0.049,0.237l-0.05,0.237l-0.05,0.235l-0.051,0.233l-0.052,0.232l-0.053,0.231l-0.053,0.23l-0.074,0.313l-0.075,0.308l-0.076,0.303l-0.076,0.297l-0.077,0.292l-0.078,0.286l-0.077,0.28l-0.079,0.275l-0.078,0.27l-0.079,0.264l-0.08,0.258l-0.079,0.254l-0.08,0.248l-0.08,0.242l-0.081,0.237l-0.081,0.232l-0.09,0.252l-0.084,0.23l-0.079,0.209l-0.073,0.188l-0.067,0.167l-0.062,0.149l-0.057,0.133l-0.019,0.041l-0.061,0.156l-0.009,0.03l-0.036,0.108l-0.037,0.106l-0.037,0.106l-0.04,0.105l-0.04,0.104l-0.042,0.105l-0.043,0.103l-0.045,0.103l-0.045,0.102l-0.047,0.102l-0.048,0.101l-0.049,0.1l-0.05,0.1l-0.051,0.099l-0.052,0.098l-0.054,0.098l-0.055,0.098l-0.055,0.096l-0.057,0.096l-0.057,0.096l-0.059,0.094l-0.06,0.094l-0.06,0.094l-0.062,0.092l-0.063,0.093l-0.063,0.092l-0.065,0.09l-0.065,0.09l-0.066,0.09l-0.067,0.089l-0.068,0.088l-0.069,0.088l-0.07,0.087l-0.07,0.086l-0.072,0.086l-0.072,0.084l-0.073,0.085l-0.074,0.084l-0.075,0.082l-0.075,0.083l-0.076,0.082l-0.077,0.08l-0.078,0.081l-0.078,0.079l-0.079,0.079l-0.08,0.078l-0.081,0.078l-0.081,0.077l-0.082,0.076l-0.083,0.075l-0.083,0.075l-0.084,0.074l-0.085,0.073l-0.085,0.073l-0.086,0.072l-0.086,0.071l-0.088,0.07l-0.088,0.07l-0.088,0.069l-0.089,0.068l-0.089,0.067l-0.09,0.067l-0.091,0.066l-0.092,0.065l-0.092,0.064l-0.092,0.064l-0.093,0.063l-0.094,0.061l-0.093,0.062l-0.095,0.06l-0.095,0.06l-0.096,0.059l-0.096,0.058l-0.097,0.057l-0.096,0.056l-0.098,0.056l-0.098,0.054l-0.099,0.054l-0.099,0.053l-0.099,0.052l-0.1,0.052l-0.1,0.05l-0.1,0.049l-0.102,0.049l-0.102,0.048l-0.101,0.046l-0.103,0.046l-0.103,0.045l-0.103,0.044l-0.104,0.044l-0.104,0.042l-0.104,0.041l-0.104,0.04l-0.106,0.039l-0.105,0.039l-0.106,0.037l-0.106,0.036l-0.107,0.036l-0.107,0.034l-0.106,0.033l-0.108,0.032l-0.108,0.031l-0.108,0.03l-0.109,0.03l-0.108,0.027l-0.109,0.027l-0.11,0.026l-0.109,0.025l-0.11,0.023l-0.11,0.022l-0.111,0.021l-0.11,0.02l-0.111,0.019l-0.111,0.018l-0.112,0.016l-0.111,0.015l-0.112,0.014l-0.111,0.013l-0.113,0.011l-0.113,0.01l-0.112,0.009l-0.113,0.008l-0.112,0.006l-0.113,0.005l-0.114,0.003l-0.113,0.002l-0.107,0.001l-18.777,0l-0.148,-0.002l-0.159,-0.006l-0.159,-0.01l-0.158,-0.014l-0.157,-0.018l-0.156,-0.021l-0.154,-0.026l-0.154,-0.029l-0.153,-0.033l-0.15,-0.037l-0.15,-0.04l-0.148,-0.044l-0.146,-0.047l-0.145,-0.051l-0.144,-0.055l-0.142,-0.057l-0.139,-0.061l-0.138,-0.064l-0.136,-0.068l-0.134,-0.07l-0.132,-0.074l-0.13,-0.077l-0.128,-0.08l-0.126,-0.082l-0.123,-0.086l-0.122,-0.088l-0.119,-0.092l-0.117,-0.094l-0.115,-0.097l-0.111,-0.099l-0.11,-0.102l-0.107,-0.105l-0.105,-0.107l-0.102,-0.11l-0.099,-0.112l-0.097,-0.114l-0.094,-0.117l-0.091,-0.119l-0.089,-0.122l-0.085,-0.123l-0.083,-0.126l-0.079,-0.128l-0.077,-0.13l-0.074,-0.132l-0.07,-0.134l-0.067,-0.136l-0.065,-0.138l-0.061,-0.14l-0.057,-0.141l-0.055,-0.143l-0.05,-0.145l-0.048,-0.147l-0.043,-0.148l-0.041,-0.149l-0.036,-0.151l-0.033,-0.152l-0.03,-0.154l-0.025,-0.154l-0.022,-0.156l-0.018,-0.157l-0.013,-0.157l-0.01,-0.159l-0.007,-0.16l-0.001,-0.147l0,-50.026l0.002,-0.147l0.006,-0.16l0.01,-0.158l0.014,-0.158l0.018,-0.157l0.022,-0.156l0.025,-0.154l0.03,-0.154l0.033,-0.152l0.037,-0.151l0.04,-0.149l0.045,-0.148l0.047,-0.146l0.051,-0.145l0.055,-0.143l0.058,-0.141l0.061,-0.14l0.064,-0.138l0.068,-0.135l0.07,-0.134l0.074,-0.132l0.077,-0.13l0.08,-0.128l0.082,-0.125l0.086,-0.124l0.089,-0.121l0.091,-0.119l0.094,-0.117l0.096,-0.114l0.1,-0.112l0.102,-0.11l0.104,-0.106l0.107,-0.105l0.11,-0.102l0.112,-0.099l0.114,-0.097l0.117,-0.094l0.119,-0.091l0.121,-0.089l0.123,-0.085l0.126,-0.083l0.128,-0.08l0.13,-0.077l0.131,-0.074l0.134,-0.07l0.136,-0.068l0.138,-0.065l0.139,-0.061l0.142,-0.058l0.143,-0.054l0.144,-0.051l0.147,-0.048l0.148,-0.044l0.149,-0.041l0.151,-0.037l0.152,-0.033l0.154,-0.029l0.154,-0.026l0.156,-0.022l0.157,-0.018l0.158,-0.014l0.159,-0.01l0.159,-0.006l0.148,-0.002l18.777,0l0.106,0.001Zm-18.857,4.166l-0.067,0.001l-0.054,0.002l-0.054,0.003l-0.052,0.005l-0.053,0.006l-0.051,0.007l-0.051,0.008l-0.051,0.01l-0.05,0.011l-0.05,0.012l-0.049,0.014l-0.049,0.014l-0.048,0.016l-0.048,0.017l-0.047,0.018l-0.046,0.019l-0.047,0.02l-0.045,0.021l-0.045,0.023l-0.045,0.023l-0.044,0.025l-0.043,0.026l-0.043,0.026l-0.042,0.028l-0.041,0.029l-0.041,0.03l-0.04,0.03l-0.04,0.032l-0.038,0.033l-0.038,0.033l-0.037,0.034l-0.036,0.036l-0.035,0.036l-0.034,0.037l-0.034,0.037l-0.033,0.039l-0.031,0.039l-0.031,0.041l-0.03,0.04l-0.028,0.041l-0.028,0.043l-0.027,0.042l-0.025,0.044l-0.025,0.044l-0.024,0.044l-0.022,0.045l-0.022,0.046l-0.02,0.046l-0.019,0.047l-0.018,0.047l-0.017,0.048l-0.015,0.048l-0.015,0.049l-0.013,0.049l-0.012,0.05l-0.011,0.05l-0.01,0.05l-0.008,0.052l-0.008,0.051l-0.006,0.052l-0.004,0.052l-0.004,0.054l-0.002,0.054l-0.001,0.067l0,49.974l0.001,0.069l0.002,0.054l0.004,0.054l0.004,0.054l0.006,0.053l0.008,0.052l0.008,0.051l0.01,0.051l0.011,0.051l0.012,0.05l0.013,0.05l0.015,0.049l0.016,0.048l0.016,0.048l0.018,0.047l0.019,0.047l0.02,0.046l0.021,0.045l0.023,0.045l0.023,0.045l0.025,0.044l0.025,0.043l0.026,0.042l0.028,0.042l0.028,0.041l0.03,0.041l0.03,0.039l0.031,0.039l0.033,0.038l0.033,0.038l0.034,0.037l0.035,0.035l0.036,0.035l0.036,0.034l0.038,0.034l0.038,0.032l0.039,0.031l0.039,0.03l0.041,0.03l0.041,0.028l0.042,0.028l0.042,0.026l0.043,0.026l0.044,0.024l0.045,0.024l0.044,0.022l0.046,0.021l0.046,0.02l0.047,0.019l0.047,0.018l0.048,0.017l0.049,0.016l0.048,0.014l0.05,0.013l0.05,0.013l0.051,0.011l0.051,0.009l0.052,0.009l0.052,0.007l0.053,0.006l0.053,0.005l0.054,0.003l0.056,0.002l0.068,0.001l18.738,0l0.068,0l0.063,-0.001l0.062,-0.002l0.063,-0.003l0.064,-0.003l0.064,-0.005l0.064,-0.005l0.065,-0.005l0.064,-0.007l0.065,-0.007l0.066,-0.009l0.066,-0.009l0.065,-0.009l0.066,-0.011l0.068,-0.011l0.066,-0.012l0.067,-0.013l0.067,-0.013l0.068,-0.015l0.067,-0.015l0.068,-0.016l0.068,-0.017l0.068,-0.017l0.068,-0.018l0.069,-0.019l0.068,-0.02l0.068,-0.021l0.069,-0.021l0.069,-0.022l0.069,-0.023l0.068,-0.023l0.069,-0.024l0.069,-0.026l0.069,-0.025l0.069,-0.027l0.069,-0.027l0.069,-0.028l0.068,-0.028l0.068,-0.03l0.069,-0.03l0.068,-0.03l0.069,-0.032l0.068,-0.032l0.068,-0.032l0.068,-0.034l0.068,-0.034l0.067,-0.034l0.068,-0.036l0.067,-0.036l0.067,-0.036l0.066,-0.037l0.067,-0.038l0.066,-0.039l0.066,-0.039l0.066,-0.039l0.065,-0.041l0.065,-0.04l0.065,-0.042l0.064,-0.042l0.065,-0.042l0.063,-0.043l0.063,-0.044l0.063,-0.044l0.063,-0.045l0.062,-0.045l0.062,-0.045l0.061,-0.046l0.061,-0.047l0.06,-0.047l0.06,-0.047l0.06,-0.048l0.059,-0.049l0.058,-0.049l0.058,-0.049l0.057,-0.05l0.057,-0.05l0.056,-0.05l0.056,-0.051l0.055,-0.051l0.055,-0.052l0.054,-0.052l0.053,-0.052l0.053,-0.053l0.052,-0.053l0.052,-0.053l0.051,-0.053l0.05,-0.054l0.049,-0.054l0.049,-0.055l0.048,-0.054l0.048,-0.055l0.047,-0.055l0.046,-0.055l0.045,-0.056l0.045,-0.055l0.044,-0.056l0.043,-0.056l0.042,-0.056l0.042,-0.056l0.041,-0.057l0.04,-0.057l0.039,-0.056l0.038,-0.057l0.038,-0.057l0.037,-0.057l0.036,-0.057l0.036,-0.057l0.034,-0.057l0.034,-0.056l0.033,-0.058l0.032,-0.057l0.031,-0.056l0.03,-0.058l0.029,-0.056l0.029,-0.057l0.028,-0.058l0.027,-0.056l0.026,-0.057l0.025,-0.056l0.024,-0.057l0.024,-0.056l0.022,-0.056l0.022,-0.056l0.021,-0.056l0.02,-0.056l0.019,-0.056l0.018,-0.054l0.042,-0.133l0.153,-0.393l0.052,-0.114l0.029,-0.068l0.04,-0.097l0.05,-0.123l0.057,-0.148l0.065,-0.172l0.072,-0.195l0.078,-0.219l0.07,-0.2l0.07,-0.207l0.07,-0.213l0.071,-0.218l0.07,-0.225l0.071,-0.23l0.071,-0.237l0.071,-0.243l0.07,-0.248l0.071,-0.254l0.07,-0.26l0.07,-0.266l0.07,-0.272l0.07,-0.278l0.069,-0.283l0.069,-0.291l0.049,-0.211l0.048,-0.214l0.048,-0.215l0.048,-0.217l0.047,-0.218l0.046,-0.22l0.045,-0.221l0.045,-0.223l0.045,-0.224l0.043,-0.225l0.043,-0.228l0.043,-0.228l0.041,-0.23l0.041,-0.232l0.041,-0.233l0.039,-0.235l0.039,-0.236l0.039,-0.237l0.037,-0.239l0.037,-0.241l0.036,-0.242l0.036,-0.243l0.035,-0.245l0.034,-0.246l0.033,-0.248l0.032,-0.25l0.032,-0.25l0.031,-0.253l0.031,-0.254l0.029,-0.255l0.029,-0.257l0.028,-0.258l0.027,-0.26l0.027,-0.261l0.025,-0.263l0.025,-0.264l0.024,-0.266l0.024,-0.267l0.022,-0.268l0.022,-0.271l0.021,-0.271l0.02,-0.273l0.019,-0.275l0.018,-0.276l0.018,-0.277l0.017,-0.279l0.015,-0.281l0.015,-0.282l0.014,-0.283l0.014,-0.285l0.012,-0.287l0.011,-0.288l0.011,-0.289l0.01,-0.291l0.008,-0.292l0.008,-0.294l0.007,-0.295l0.006,-0.297l0.006,-0.298l0.004,-0.3l0.003,-0.301l0.002,-0.303l0.002,-0.304l0,-0.306l0,-0.306l-0.002,-0.304l-0.002,-0.303l-0.003,-0.301l-0.004,-0.3l-0.006,-0.298l-0.006,-0.297l-0.007,-0.295l-0.008,-0.294l-0.008,-0.292l-0.01,-0.291l-0.011,-0.29l-0.011,-0.288l-0.013,-0.286l-0.013,-0.285l-0.014,-0.284l-0.015,-0.282l-0.016,-0.28l-0.016,-0.279l-0.018,-0.278l-0.018,-0.276l-0.019,-0.275l-0.021,-0.273l-0.02,-0.271l-0.022,-0.271l-0.023,-0.268l-0.023,-0.268l-0.024,-0.266l-0.025,-0.264l-0.026,-0.263l-0.026,-0.261l-0.027,-0.26l-0.029,-0.258l-0.028,-0.257l-0.03,-0.256l-0.03,-0.254l-0.031,-0.252l-0.032,-0.251l-0.033,-0.249l-0.033,-0.249l-0.034,-0.246l-0.035,-0.245l-0.036,-0.244l-0.036,-0.242l-0.037,-0.241l-0.037,-0.239l-0.039,-0.237l-0.039,-0.237l-0.04,-0.234l-0.04,-0.234l-0.041,-0.231l-0.042,-0.231l-0.042,-0.229l-0.043,-0.227l-0.044,-0.226l-0.044,-0.224l-0.045,-0.223l-0.046,-0.221l-0.046,-0.22l-0.047,-0.219l-0.048,-0.217l-0.048,-0.215l-0.049,-0.215l-0.049,-0.211l-0.069,-0.291l-0.069,-0.284l-0.07,-0.278l-0.069,-0.272l-0.071,-0.266l-0.07,-0.261l-0.071,-0.255l-0.07,-0.248l-0.071,-0.243l-0.071,-0.237l-0.071,-0.231l-0.071,-0.225l-0.07,-0.219l-0.071,-0.213l-0.07,-0.207l-0.07,-0.201l-0.078,-0.219l-0.072,-0.196l-0.065,-0.173l-0.058,-0.148l-0.049,-0.123l-0.041,-0.097l-0.029,-0.069l-0.048,-0.105l-0.133,-0.333l-0.042,-0.124l-0.02,-0.057l-0.021,-0.058l-0.022,-0.058l-0.023,-0.058l-0.024,-0.058l-0.024,-0.058l-0.026,-0.059l-0.026,-0.058l-0.027,-0.059l-0.027,-0.058l-0.029,-0.059l-0.03,-0.058l-0.03,-0.059l-0.031,-0.058l-0.032,-0.059l-0.033,-0.058l-0.033,-0.059l-0.035,-0.059l-0.035,-0.058l-0.036,-0.058l-0.037,-0.059l-0.037,-0.058l-0.038,-0.058l-0.039,-0.058l-0.04,-0.058l-0.041,-0.058l-0.041,-0.057l-0.042,-0.058l-0.043,-0.057l-0.044,-0.057l-0.044,-0.057l-0.045,-0.057l-0.045,-0.056l-0.047,-0.057l-0.047,-0.056l-0.047,-0.056l-0.049,-0.055l-0.049,-0.055l-0.05,-0.055l-0.05,-0.055l-0.05,-0.054l-0.052,-0.055l-0.052,-0.053l-0.053,-0.054l-0.054,-0.053l-0.053,-0.053l-0.055,-0.052l-0.055,-0.052l-0.055,-0.052l-0.057,-0.051l-0.056,-0.051l-0.058,-0.05l-0.057,-0.05l-0.058,-0.05l-0.059,-0.049l-0.059,-0.048l-0.06,-0.049l-0.06,-0.048l-0.06,-0.047l-0.061,-0.047l-0.061,-0.046l-0.062,-0.046l-0.062,-0.045l-0.063,-0.045l-0.063,-0.044l-0.063,-0.044l-0.063,-0.043l-0.064,-0.042l-0.064,-0.042l-0.065,-0.042l-0.065,-0.04l-0.065,-0.041l-0.065,-0.039l-0.066,-0.039l-0.066,-0.039l-0.066,-0.038l-0.066,-0.037l-0.066,-0.037l-0.067,-0.035l-0.067,-0.036l-0.067,-0.034l-0.067,-0.034l-0.068,-0.034l-0.067,-0.032l-0.068,-0.032l-0.068,-0.032l-0.067,-0.03l-0.068,-0.03l-0.068,-0.029l-0.068,-0.029l-0.068,-0.027l-0.068,-0.027l-0.068,-0.027l-0.068,-0.025l-0.068,-0.025l-0.068,-0.024l-0.068,-0.024l-0.068,-0.022l-0.068,-0.022l-0.068,-0.021l-0.067,-0.021l-0.068,-0.02l-0.067,-0.018l-0.068,-0.019l-0.067,-0.017l-0.067,-0.017l-0.066,-0.015l-0.067,-0.015l-0.067,-0.015l-0.066,-0.013l-0.066,-0.013l-0.065,-0.012l-0.066,-0.011l-0.065,-0.01l-0.065,-0.01l-0.065,-0.009l-0.064,-0.008l-0.064,-0.007l-0.064,-0.007l-0.063,-0.006l-0.064,-0.005l-0.062,-0.004l-0.063,-0.003l-0.062,-0.003l-0.061,-0.002l-0.062,-0.001l-0.067,0l-18.738,0Z" style="fill:#14a9c9;"/><g><path d="M433.917,337.083c0,-3.449 -2.801,-6.25 -6.25,-6.25l-33.334,0c-3.449,0 -6.25,2.801 -6.25,6.25l0,45.834c0,3.449 2.801,6.25 6.25,6.25l33.334,0c3.449,0 6.25,-2.801 6.25,-6.25l0,-45.834Z" style="fill:#fafafa;"/><path d="M427.774,328.751l0.106,0.002l0.107,0.003l0.107,0.005l0.106,0.006l0.105,0.007l0.106,0.009l0.105,0.01l0.105,0.011l0.104,0.013l0.104,0.014l0.104,0.015l0.103,0.016l0.103,0.018l0.103,0.019l0.102,0.02l0.101,0.022l0.101,0.023l0.101,0.024l0.101,0.025l0.099,0.026l0.099,0.028l0.099,0.028l0.099,0.03l0.098,0.031l0.097,0.033l0.096,0.033l0.096,0.035l0.096,0.035l0.095,0.037l0.095,0.038l0.094,0.039l0.093,0.04l0.093,0.042l0.092,0.042l0.091,0.044l0.091,0.044l0.09,0.045l0.09,0.047l0.089,0.048l0.088,0.048l0.088,0.05l0.086,0.051l0.086,0.051l0.086,0.053l0.085,0.054l0.084,0.055l0.084,0.055l0.082,0.057l0.082,0.057l0.081,0.059l0.081,0.059l0.08,0.061l0.079,0.061l0.078,0.062l0.077,0.064l0.077,0.064l0.076,0.064l0.075,0.066l0.075,0.067l0.073,0.068l0.072,0.068l0.072,0.069l0.072,0.071l0.069,0.07l0.07,0.072l0.069,0.073l0.067,0.074l0.066,0.073l0.066,0.076l0.066,0.076l0.063,0.076l0.063,0.078l0.063,0.078l0.061,0.079l0.061,0.08l0.059,0.08l0.058,0.081l0.058,0.083l0.057,0.083l0.055,0.083l0.055,0.084l0.054,0.085l0.053,0.085l0.051,0.086l0.051,0.087l0.05,0.088l0.048,0.088l0.048,0.089l0.046,0.089l0.046,0.091l0.045,0.091l0.043,0.091l0.042,0.093l0.042,0.092l0.04,0.093l0.039,0.095l0.038,0.094l0.037,0.095l0.035,0.095l0.035,0.097l0.033,0.096l0.033,0.098l0.031,0.098l0.03,0.098l0.028,0.098l0.028,0.099l0.026,0.101l0.026,0.1l0.023,0.101l0.023,0.101l0.022,0.101l0.02,0.102l0.019,0.103l0.018,0.103l0.016,0.103l0.015,0.104l0.014,0.104l0.013,0.104l0.011,0.105l0.01,0.105l0.009,0.106l0.007,0.105l0.006,0.106l0.005,0.107l0.003,0.107l0.002,0.107l0.001,0.1l0,45.846l-0.001,0.1l-0.002,0.107l-0.003,0.107l-0.005,0.107l-0.006,0.106l-0.007,0.105l-0.009,0.106l-0.01,0.105l-0.011,0.105l-0.013,0.104l-0.014,0.104l-0.015,0.104l-0.016,0.103l-0.018,0.103l-0.019,0.103l-0.02,0.102l-0.022,0.101l-0.023,0.101l-0.023,0.101l-0.026,0.1l-0.026,0.101l-0.028,0.099l-0.028,0.098l-0.03,0.098l-0.031,0.098l-0.033,0.098l-0.033,0.096l-0.035,0.097l-0.035,0.095l-0.037,0.095l-0.038,0.094l-0.039,0.095l-0.04,0.093l-0.042,0.093l-0.042,0.092l-0.043,0.091l-0.045,0.091l-0.046,0.09l-0.046,0.09l-0.048,0.089l-0.048,0.088l-0.05,0.088l-0.051,0.087l-0.051,0.086l-0.053,0.085l-0.054,0.085l-0.055,0.084l-0.055,0.083l-0.057,0.083l-0.058,0.083l-0.058,0.08l-0.059,0.081l-0.061,0.08l-0.061,0.079l-0.062,0.078l-0.064,0.078l-0.063,0.076l-0.065,0.076l-0.067,0.076l-0.066,0.073l-0.067,0.073l-0.069,0.074l-0.07,0.072l-0.07,0.07l-0.07,0.07l-0.073,0.07l-0.072,0.068l-0.074,0.068l-0.074,0.067l-0.075,0.065l-0.076,0.066l-0.077,0.064l-0.077,0.063l-0.078,0.062l-0.079,0.061l-0.08,0.061l-0.081,0.059l-0.081,0.059l-0.082,0.057l-0.082,0.057l-0.084,0.055l-0.084,0.055l-0.085,0.054l-0.085,0.053l-0.086,0.051l-0.087,0.051l-0.088,0.05l-0.088,0.048l-0.089,0.048l-0.09,0.046l-0.09,0.046l-0.091,0.045l-0.091,0.043l-0.092,0.042l-0.093,0.042l-0.093,0.04l-0.094,0.039l-0.095,0.038l-0.095,0.037l-0.096,0.035l-0.096,0.035l-0.096,0.033l-0.097,0.033l-0.099,0.031l-0.098,0.03l-0.098,0.028l-0.099,0.028l-0.101,0.026l-0.1,0.026l-0.101,0.023l-0.101,0.023l-0.101,0.022l-0.102,0.02l-0.103,0.019l-0.103,0.018l-0.103,0.016l-0.104,0.015l-0.103,0.014l-0.105,0.013l-0.105,0.011l-0.105,0.01l-0.106,0.009l-0.105,0.007l-0.106,0.006l-0.106,0.005l-0.108,0.003l-0.106,0.002l-0.1,0.001l-33.348,0l-0.1,-0.001l-0.106,-0.002l-0.107,-0.003l-0.107,-0.005l-0.106,-0.006l-0.105,-0.007l-0.106,-0.009l-0.105,-0.01l-0.105,-0.011l-0.105,-0.013l-0.103,-0.014l-0.104,-0.015l-0.103,-0.016l-0.103,-0.018l-0.103,-0.019l-0.102,-0.02l-0.101,-0.022l-0.101,-0.023l-0.101,-0.023l-0.1,-0.026l-0.1,-0.026l-0.1,-0.028l-0.098,-0.028l-0.098,-0.03l-0.099,-0.031l-0.097,-0.033l-0.096,-0.033l-0.096,-0.035l-0.096,-0.035l-0.095,-0.037l-0.094,-0.038l-0.095,-0.039l-0.093,-0.04l-0.093,-0.042l-0.092,-0.042l-0.091,-0.043l-0.091,-0.045l-0.091,-0.046l-0.089,-0.046l-0.088,-0.048l-0.089,-0.048l-0.087,-0.05l-0.088,-0.051l-0.086,-0.052l-0.085,-0.052l-0.085,-0.054l-0.084,-0.054l-0.084,-0.056l-0.083,-0.057l-0.081,-0.057l-0.082,-0.059l-0.08,-0.059l-0.08,-0.061l-0.079,-0.061l-0.078,-0.062l-0.077,-0.063l-0.077,-0.065l-0.076,-0.065l-0.075,-0.065l-0.074,-0.067l-0.074,-0.068l-0.073,-0.068l-0.072,-0.07l-0.07,-0.07l-0.07,-0.07l-0.07,-0.072l-0.069,-0.073l-0.067,-0.074l-0.067,-0.074l-0.066,-0.075l-0.064,-0.076l-0.064,-0.076l-0.064,-0.078l-0.062,-0.078l-0.061,-0.079l-0.061,-0.08l-0.059,-0.081l-0.058,-0.08l-0.058,-0.083l-0.057,-0.083l-0.055,-0.083l-0.055,-0.084l-0.054,-0.085l-0.053,-0.085l-0.051,-0.086l-0.051,-0.087l-0.05,-0.088l-0.048,-0.088l-0.048,-0.089l-0.047,-0.09l-0.045,-0.09l-0.045,-0.091l-0.043,-0.091l-0.042,-0.092l-0.042,-0.093l-0.04,-0.093l-0.039,-0.094l-0.038,-0.095l-0.037,-0.095l-0.035,-0.096l-0.035,-0.096l-0.033,-0.096l-0.033,-0.097l-0.031,-0.099l-0.03,-0.098l-0.028,-0.098l-0.028,-0.1l-0.026,-0.1l-0.025,-0.1l-0.024,-0.1l-0.023,-0.101l-0.022,-0.103l-0.02,-0.102l-0.019,-0.102l-0.018,-0.103l-0.016,-0.103l-0.015,-0.104l-0.014,-0.103l-0.013,-0.105l-0.011,-0.105l-0.01,-0.105l-0.009,-0.106l-0.007,-0.106l-0.006,-0.105l-0.005,-0.107l-0.003,-0.106l-0.002,-0.107l-0.001,-0.101l0,-45.846l0.001,-0.101l0.002,-0.107l0.003,-0.106l0.005,-0.107l0.006,-0.105l0.007,-0.106l0.009,-0.106l0.01,-0.105l0.011,-0.105l0.013,-0.105l0.014,-0.103l0.015,-0.104l0.016,-0.103l0.018,-0.103l0.019,-0.102l0.02,-0.102l0.022,-0.103l0.023,-0.101l0.023,-0.1l0.026,-0.1l0.026,-0.1l0.028,-0.1l0.028,-0.098l0.03,-0.098l0.031,-0.099l0.033,-0.097l0.033,-0.096l0.035,-0.096l0.035,-0.096l0.037,-0.095l0.038,-0.095l0.039,-0.094l0.04,-0.093l0.042,-0.092l0.042,-0.093l0.043,-0.091l0.045,-0.091l0.045,-0.09l0.047,-0.09l0.048,-0.089l0.048,-0.088l0.05,-0.088l0.051,-0.087l0.051,-0.086l0.053,-0.085l0.054,-0.085l0.055,-0.084l0.055,-0.083l0.057,-0.083l0.058,-0.083l0.058,-0.081l0.059,-0.08l0.061,-0.08l0.061,-0.079l0.062,-0.078l0.064,-0.078l0.064,-0.076l0.065,-0.076l0.065,-0.075l0.067,-0.074l0.068,-0.074l0.068,-0.073l0.069,-0.071l0.07,-0.071l0.072,-0.071l0.071,-0.069l0.073,-0.068l0.073,-0.068l0.075,-0.067l0.075,-0.066l0.075,-0.064l0.077,-0.064l0.078,-0.064l0.078,-0.062l0.079,-0.061l0.08,-0.061l0.08,-0.059l0.082,-0.059l0.081,-0.057l0.083,-0.057l0.084,-0.056l0.084,-0.054l0.085,-0.054l0.085,-0.053l0.087,-0.051l0.087,-0.051l0.087,-0.05l0.088,-0.048l0.09,-0.048l0.089,-0.047l0.09,-0.045l0.091,-0.045l0.091,-0.043l0.092,-0.042l0.093,-0.042l0.093,-0.04l0.094,-0.039l0.095,-0.038l0.095,-0.037l0.096,-0.035l0.096,-0.035l0.096,-0.033l0.097,-0.033l0.098,-0.031l0.099,-0.03l0.099,-0.028l0.099,-0.028l0.099,-0.026l0.101,-0.025l0.101,-0.024l0.101,-0.023l0.101,-0.022l0.102,-0.02l0.103,-0.019l0.103,-0.018l0.103,-0.016l0.104,-0.015l0.104,-0.014l0.104,-0.013l0.105,-0.011l0.105,-0.01l0.106,-0.009l0.105,-0.007l0.106,-0.006l0.107,-0.005l0.107,-0.003l0.106,-0.002l0.101,-0.001l33.346,0l0.101,0.001Zm-33.434,4.166l-0.061,0l-0.054,0.001l-0.054,0.002l-0.053,0.002l-0.054,0.003l-0.053,0.004l-0.053,0.004l-0.053,0.005l-0.052,0.006l-0.052,0.006l-0.052,0.007l-0.052,0.008l-0.051,0.008l-0.051,0.009l-0.052,0.009l-0.05,0.01l-0.051,0.011l-0.051,0.011l-0.049,0.012l-0.05,0.013l-0.05,0.013l-0.049,0.014l-0.049,0.014l-0.049,0.015l-0.049,0.015l-0.048,0.016l-0.048,0.017l-0.048,0.017l-0.048,0.018l-0.047,0.018l-0.047,0.019l-0.046,0.019l-0.047,0.02l-0.046,0.021l-0.046,0.021l-0.045,0.022l-0.046,0.022l-0.045,0.023l-0.045,0.023l-0.044,0.024l-0.044,0.024l-0.044,0.025l-0.043,0.025l-0.043,0.026l-0.043,0.026l-0.043,0.027l-0.042,0.028l-0.041,0.027l-0.042,0.029l-0.041,0.029l-0.041,0.029l-0.04,0.03l-0.04,0.03l-0.04,0.031l-0.039,0.031l-0.039,0.032l-0.038,0.032l-0.039,0.033l-0.038,0.033l-0.037,0.033l-0.037,0.034l-0.036,0.035l-0.036,0.035l-0.036,0.035l-0.035,0.036l-0.035,0.036l-0.035,0.036l-0.033,0.037l-0.034,0.038l-0.033,0.037l-0.033,0.038l-0.032,0.039l-0.032,0.039l-0.031,0.039l-0.031,0.04l-0.03,0.04l-0.03,0.04l-0.029,0.041l-0.029,0.041l-0.028,0.041l-0.028,0.042l-0.028,0.043l-0.026,0.042l-0.027,0.043l-0.026,0.043l-0.025,0.043l-0.025,0.044l-0.024,0.044l-0.024,0.045l-0.023,0.044l-0.023,0.045l-0.022,0.045l-0.022,0.046l-0.021,0.046l-0.021,0.046l-0.02,0.047l-0.019,0.047l-0.019,0.047l-0.018,0.046l-0.018,0.048l-0.017,0.048l-0.017,0.048l-0.016,0.049l-0.015,0.048l-0.015,0.049l-0.014,0.049l-0.014,0.049l-0.013,0.05l-0.013,0.049l-0.012,0.051l-0.011,0.051l-0.011,0.049l-0.01,0.051l-0.009,0.052l-0.009,0.05l-0.008,0.052l-0.008,0.052l-0.007,0.052l-0.006,0.052l-0.006,0.052l-0.005,0.053l-0.004,0.053l-0.004,0.053l-0.003,0.054l-0.002,0.053l-0.002,0.054l-0.001,0.054l0,0.061l0,45.82l0,0.061l0.001,0.054l0.002,0.054l0.002,0.053l0.003,0.054l0.004,0.053l0.004,0.052l0.005,0.054l0.006,0.052l0.006,0.052l0.007,0.052l0.008,0.052l0.008,0.052l0.009,0.05l0.009,0.052l0.01,0.051l0.011,0.05l0.011,0.05l0.012,0.051l0.013,0.049l0.013,0.05l0.014,0.049l0.014,0.049l0.015,0.049l0.015,0.049l0.016,0.048l0.017,0.048l0.017,0.048l0.018,0.048l0.018,0.047l0.019,0.046l0.019,0.047l0.02,0.047l0.021,0.046l0.021,0.046l0.022,0.045l0.022,0.046l0.023,0.045l0.023,0.044l0.024,0.045l0.024,0.044l0.025,0.044l0.025,0.043l0.026,0.043l0.027,0.043l0.026,0.042l0.028,0.043l0.028,0.042l0.028,0.041l0.028,0.041l0.03,0.041l0.03,0.04l0.03,0.04l0.031,0.04l0.031,0.039l0.032,0.039l0.032,0.039l0.033,0.038l0.033,0.037l0.034,0.038l0.034,0.037l0.034,0.036l0.035,0.036l0.035,0.036l0.036,0.035l0.036,0.035l0.036,0.035l0.037,0.033l0.037,0.034l0.039,0.033l0.037,0.033l0.039,0.032l0.039,0.032l0.039,0.031l0.04,0.031l0.04,0.03l0.04,0.03l0.041,0.029l0.041,0.029l0.041,0.028l0.042,0.028l0.042,0.028l0.043,0.027l0.043,0.026l0.043,0.026l0.043,0.025l0.044,0.025l0.044,0.024l0.045,0.024l0.045,0.024l0.044,0.022l0.045,0.022l0.046,0.022l0.046,0.021l0.046,0.021l0.047,0.02l0.046,0.019l0.048,0.019l0.047,0.018l0.047,0.018l0.048,0.017l0.048,0.017l0.048,0.016l0.049,0.015l0.048,0.015l0.05,0.014l0.049,0.014l0.05,0.013l0.049,0.013l0.05,0.012l0.051,0.011l0.051,0.011l0.05,0.01l0.051,0.009l0.052,0.009l0.051,0.008l0.052,0.008l0.052,0.007l0.052,0.006l0.052,0.006l0.053,0.005l0.053,0.004l0.053,0.004l0.054,0.003l0.053,0.002l0.054,0.002l0.054,0.001l0.061,0l33.32,0l0.061,0l0.054,-0.001l0.054,-0.002l0.053,-0.002l0.054,-0.003l0.053,-0.004l0.053,-0.004l0.053,-0.005l0.052,-0.006l0.052,-0.006l0.052,-0.007l0.052,-0.008l0.052,-0.008l0.051,-0.009l0.051,-0.009l0.05,-0.01l0.051,-0.011l0.051,-0.011l0.05,-0.012l0.049,-0.013l0.05,-0.013l0.049,-0.014l0.05,-0.014l0.048,-0.015l0.049,-0.015l0.048,-0.016l0.048,-0.017l0.048,-0.017l0.047,-0.018l0.048,-0.018l0.047,-0.019l0.046,-0.019l0.047,-0.02l0.046,-0.021l0.046,-0.021l0.045,-0.022l0.046,-0.022l0.045,-0.022l0.044,-0.024l0.045,-0.024l0.044,-0.024l0.044,-0.025l0.043,-0.025l0.043,-0.026l0.043,-0.026l0.043,-0.027l0.042,-0.028l0.042,-0.028l0.041,-0.028l0.041,-0.029l0.041,-0.029l0.04,-0.03l0.04,-0.03l0.04,-0.031l0.039,-0.031l0.039,-0.032l0.039,-0.032l0.037,-0.033l0.038,-0.033l0.038,-0.034l0.037,-0.033l0.036,-0.035l0.036,-0.035l0.036,-0.035l0.036,-0.036l0.034,-0.036l0.034,-0.036l0.034,-0.037l0.034,-0.038l0.033,-0.037l0.033,-0.038l0.032,-0.039l0.032,-0.039l0.031,-0.039l0.031,-0.04l0.03,-0.04l0.03,-0.04l0.03,-0.041l0.028,-0.041l0.028,-0.041l0.028,-0.042l0.028,-0.042l0.027,-0.043l0.026,-0.043l0.026,-0.043l0.025,-0.043l0.025,-0.044l0.024,-0.044l0.024,-0.045l0.024,-0.045l0.022,-0.044l0.022,-0.046l0.022,-0.045l0.021,-0.046l0.021,-0.046l0.02,-0.047l0.019,-0.046l0.019,-0.047l0.018,-0.048l0.018,-0.048l0.017,-0.047l0.017,-0.048l0.016,-0.048l0.015,-0.049l0.015,-0.049l0.014,-0.049l0.014,-0.049l0.013,-0.05l0.013,-0.049l0.012,-0.05l0.011,-0.051l0.011,-0.051l0.01,-0.051l0.009,-0.05l0.009,-0.051l0.008,-0.052l0.008,-0.052l0.007,-0.051l0.006,-0.053l0.006,-0.053l0.005,-0.052l0.004,-0.053l0.004,-0.053l0.003,-0.054l0.002,-0.053l0.002,-0.054l0.001,-0.054l0,-0.061l0,-45.82l0,-0.061l-0.001,-0.054l-0.002,-0.054l-0.002,-0.053l-0.003,-0.054l-0.004,-0.053l-0.004,-0.053l-0.005,-0.052l-0.006,-0.053l-0.006,-0.053l-0.007,-0.051l-0.008,-0.052l-0.008,-0.052l-0.009,-0.051l-0.009,-0.051l-0.01,-0.05l-0.011,-0.051l-0.011,-0.051l-0.012,-0.05l-0.013,-0.049l-0.013,-0.05l-0.014,-0.049l-0.014,-0.049l-0.015,-0.049l-0.015,-0.049l-0.016,-0.048l-0.017,-0.048l-0.017,-0.047l-0.018,-0.048l-0.018,-0.048l-0.019,-0.047l-0.019,-0.046l-0.02,-0.047l-0.021,-0.046l-0.021,-0.046l-0.022,-0.046l-0.022,-0.045l-0.022,-0.044l-0.024,-0.045l-0.024,-0.045l-0.024,-0.044l-0.025,-0.044l-0.025,-0.043l-0.026,-0.043l-0.026,-0.043l-0.027,-0.043l-0.028,-0.042l-0.028,-0.042l-0.028,-0.041l-0.029,-0.041l-0.029,-0.041l-0.03,-0.04l-0.03,-0.04l-0.031,-0.04l-0.031,-0.039l-0.032,-0.039l-0.032,-0.039l-0.033,-0.038l-0.033,-0.037l-0.034,-0.038l-0.034,-0.037l-0.034,-0.036l-0.034,-0.036l-0.036,-0.036l-0.036,-0.035l-0.036,-0.035l-0.036,-0.035l-0.037,-0.034l-0.038,-0.033l-0.037,-0.033l-0.038,-0.033l-0.039,-0.032l-0.039,-0.032l-0.039,-0.031l-0.04,-0.031l-0.04,-0.03l-0.04,-0.03l-0.041,-0.029l-0.041,-0.029l-0.042,-0.029l-0.041,-0.027l-0.043,-0.028l-0.042,-0.027l-0.042,-0.026l-0.044,-0.026l-0.043,-0.025l-0.044,-0.025l-0.044,-0.024l-0.044,-0.024l-0.045,-0.023l-0.045,-0.023l-0.046,-0.022l-0.045,-0.022l-0.046,-0.021l-0.046,-0.021l-0.047,-0.02l-0.047,-0.019l-0.046,-0.019l-0.048,-0.018l-0.047,-0.018l-0.048,-0.017l-0.048,-0.017l-0.048,-0.016l-0.049,-0.015l-0.049,-0.015l-0.049,-0.014l-0.049,-0.014l-0.05,-0.013l-0.05,-0.013l-0.049,-0.012l-0.051,-0.011l-0.05,-0.011l-0.051,-0.01l-0.052,-0.009l-0.05,-0.009l-0.052,-0.008l-0.052,-0.008l-0.052,-0.007l-0.052,-0.006l-0.053,-0.006l-0.052,-0.005l-0.053,-0.004l-0.053,-0.004l-0.054,-0.003l-0.053,-0.002l-0.054,-0.002l-0.054,-0.001l-0.061,0l-33.32,0Z" style="fill:#14a9c9;"/></g><g><path d="M356.376,353.821c-1.026,-1.504 -1.626,-3.322 -1.626,-5.279c0,-5.178 4.197,-9.375 9.375,-9.375c5.178,0 9.375,4.197 9.375,9.375c0,1.989 -0.62,3.834 -1.676,5.351c-0.372,0.646 -1.843,3.376 -1.843,6.107c0,2.731 1.472,5.463 1.843,6.108c1.057,1.517 1.676,3.361 1.676,5.35c0,5.178 -4.197,9.375 -9.375,9.375c-5.178,0 -9.375,-4.197 -9.375,-9.375c0,-1.957 0.6,-3.775 1.626,-5.279c0.231,-0.48 1.539,-3.329 1.539,-6.179c0,-2.85 -1.308,-5.699 -1.539,-6.179Z" style="fill:#fcfcfe;stroke:#f4f4f7;stroke-width:2.08px;"/><ellipse cx="364.126" cy="371.458" rx="4.168" ry="4.167" style="fill:#e6f6fa;stroke:#12b3d5;stroke-width:2.08px;"/><ellipse cx="364.126" cy="348.542" rx="4.168" ry="4.167" style="fill:#e6f6fa;stroke:#12b3d5;stroke-width:2.08px;"/></g><g><path d="M450.126,353.821c-1.026,-1.504 -1.626,-3.322 -1.626,-5.279c0,-5.178 4.197,-9.375 9.375,-9.375c5.178,0 9.375,4.197 9.375,9.375c0,1.989 -0.62,3.834 -1.676,5.351c-0.372,0.646 -1.843,3.376 -1.843,6.107c0,2.731 1.472,5.463 1.843,6.108c1.057,1.517 1.676,3.361 1.676,5.35c0,5.178 -4.197,9.375 -9.375,9.375c-5.178,0 -9.375,-4.197 -9.375,-9.375c0,-1.957 0.6,-3.775 1.626,-5.279c0.231,-0.48 1.539,-3.329 1.539,-6.179c0,-2.85 -1.308,-5.699 -1.539,-6.179Z" style="fill:#fcfcfe;stroke:#f4f4f7;stroke-width:2.08px;"/><ellipse cx="457.876" cy="371.458" rx="4.168" ry="4.167" style="fill:#e6f6fa;stroke:#12b3d5;stroke-width:2.08px;"/><ellipse cx="457.876" cy="348.542" rx="4.168" ry="4.167" style="fill:#e6f6fa;stroke:#12b3d5;stroke-width:2.08px;"/></g><g><path d="M407.113,344.716c-0.822,-0.92 -1.321,-2.135 -1.321,-3.466c0,-2.876 2.332,-5.208 5.208,-5.208c2.876,0 5.208,2.332 5.208,5.208c0,1.354 -0.516,2.587 -1.363,3.513c0.006,0.849 0.106,1.76 0.392,2.737c0.377,1.294 1.179,2.817 1.973,4.136c2.553,1.898 4.207,4.938 4.207,8.364c0,5.753 -4.664,10.417 -10.417,10.417c-5.753,0 -10.417,-4.664 -10.417,-10.417c0,-3.391 1.621,-6.404 4.13,-8.306c0.804,-1.332 1.625,-2.881 2.008,-4.194c0.29,-0.995 0.389,-1.921 0.392,-2.784Z" style="fill:#fcfcfe;stroke:#f4f4f7;stroke-width:2.08px;"/><circle cx="411" cy="341.25" r="2.083" style="fill:#fcfcfe;stroke:#12b3d5;stroke-width:2.08px;"/><ellipse cx="411.003" cy="360" rx="7.295" ry="7.292" style="fill:#fcfcfe;stroke:#12b3d5;stroke-width:2.08px;"/></g></g></g><g><g><path d="M628.369,335.87l0,45.6l-8.17,0l0,-5.32c-2.027,2.217 -4.402,3.942 -7.125,5.178c-2.724,1.234 -5.669,1.852 -8.835,1.852c-3.167,0 -6.128,-0.633 -8.883,-1.9c-2.755,-1.267 -5.161,-3.008 -7.22,-5.225c-2.058,-2.217 -3.689,-4.813 -4.892,-7.79c-1.204,-2.977 -1.805,-6.175 -1.805,-9.595c0,-3.357 0.601,-6.523 1.805,-9.5c1.203,-2.977 2.834,-5.573 4.892,-7.79c2.059,-2.217 4.465,-3.974 7.22,-5.272c2.755,-1.299 5.716,-1.948 8.883,-1.948c3.166,0 6.111,0.618 8.835,1.853c2.723,1.235 5.098,2.96 7.125,5.177l0,-5.32l8.17,0Zm-23.465,39.425c2.09,0 4.069,-0.443 5.937,-1.33c1.869,-0.887 3.499,-2.074 4.893,-3.563c1.393,-1.488 2.486,-3.245 3.277,-5.272c0.792,-2.027 1.188,-4.18 1.188,-6.46c0,-2.28 -0.396,-4.433 -1.188,-6.46c-0.791,-2.027 -1.884,-3.784 -3.277,-5.273c-1.394,-1.488 -3.024,-2.675 -4.893,-3.562c-1.868,-0.887 -3.847,-1.33 -5.937,-1.33c-2.09,0 -4.069,0.443 -5.938,1.33c-1.868,0.887 -3.499,2.074 -4.892,3.563c-1.394,1.488 -2.502,3.245 -3.325,5.272c-0.824,2.027 -1.235,4.18 -1.235,6.46c0,2.28 0.411,4.433 1.235,6.46c0.823,2.027 1.931,3.784 3.325,5.273c1.393,1.488 3.024,2.675 4.892,3.562c1.869,0.887 3.848,1.33 5.938,1.33Z" style="fill:#fff;fill-rule:nonzero;"/><path d="M664.374,342.045c-2.28,0 -4.434,0.443 -6.46,1.33c-2.027,0.887 -3.769,2.058 -5.225,3.515c-1.457,1.457 -2.613,3.198 -3.468,5.225c-0.855,2.027 -1.282,4.18 -1.282,6.46c0,2.28 0.427,4.433 1.282,6.46c0.855,2.027 2.011,3.8 3.468,5.32c1.456,1.52 3.198,2.723 5.225,3.61c2.026,0.887 4.18,1.33 6.46,1.33c2.976,0 5.652,-0.712 8.027,-2.137c2.375,-1.425 4.291,-3.278 5.748,-5.558l6.745,4.37c-2.217,3.42 -5.114,6.143 -8.693,8.17c-3.578,2.027 -7.521,3.04 -11.827,3.04c-3.42,0 -6.619,-0.649 -9.595,-1.947c-2.977,-1.299 -5.574,-3.056 -7.79,-5.273c-2.217,-2.217 -3.974,-4.813 -5.273,-7.79c-1.298,-2.977 -1.947,-6.175 -1.947,-9.595c0,-3.357 0.649,-6.523 1.947,-9.5c1.299,-2.977 3.056,-5.557 5.273,-7.742c2.216,-2.185 4.813,-3.927 7.79,-5.225c2.976,-1.299 6.175,-1.948 9.595,-1.948c4.306,0 8.249,1.013 11.827,3.04c3.579,2.027 6.476,4.75 8.693,8.17l-6.65,4.37c-1.457,-2.343 -3.389,-4.212 -5.795,-5.605c-2.407,-1.393 -5.099,-2.09 -8.075,-2.09Z" style="fill:#fff;fill-rule:nonzero;"/><path d="M716.719,382.135c-0.19,0.063 -0.697,0.222 -1.52,0.475c-0.824,0.253 -1.853,0.428 -3.088,0.523c-1.235,0.094 -2.596,0.015 -4.085,-0.238c-1.488,-0.253 -2.929,-0.855 -4.322,-1.805c-4.244,-2.85 -6.365,-8.202 -6.365,-16.055l0,-21.28l-5.795,0l0,-7.885l5.795,0l0,-21.09l7.885,0l0,21.09l9.5,0l0,7.885l-9.5,0l0,21.28c0,5.003 0.95,8.17 2.85,9.5c0.57,0.38 1.187,0.602 1.852,0.665c0.665,0.063 1.283,0.079 1.853,0.048c0.57,-0.032 1.061,-0.111 1.472,-0.238c0.412,-0.127 0.618,-0.19 0.618,-0.19l2.85,7.315Z" style="fill:#fff;fill-rule:nonzero;"/><path d="M734.199,381.47l-8.075,0l0,-45.6l8.075,0l0,45.6Zm1.235,-58.615c0,1.457 -0.507,2.708 -1.52,3.752c-1.014,1.046 -2.249,1.568 -3.705,1.568c-1.457,0 -2.708,-0.522 -3.753,-1.567c-1.045,-1.045 -1.567,-2.296 -1.567,-3.753c0,-1.457 0.522,-2.692 1.567,-3.705c1.045,-1.013 2.296,-1.52 3.753,-1.52c1.456,0 2.691,0.507 3.705,1.52c1.013,1.013 1.52,2.248 1.52,3.705Z" style="fill:#fff;fill-rule:nonzero;"/><path d="M791.199,314.97l0,8.455l-19.76,0l0,58.045l-8.93,0l0,-58.045l-19.76,0l0,-8.455l48.45,0Z" style="fill:#fff;fill-rule:nonzero;"/><path d="M846.014,323.71l-35.34,0l0,20.14l32.775,0l0,8.74l-32.775,0l0,20.14l35.34,0l0,8.74l-44.365,0l0,-66.5l44.365,0l0,8.74Z" style="fill:#fff;fill-rule:nonzero;"/><path d="M901.304,314.97l9.025,0l0,66.5l-8.835,0l-33.25,-50.445l0,50.445l-8.93,0l0,-66.5l8.835,0l33.155,50.35l0,-50.35Z" style="fill:#fff;fill-rule:nonzero;"/><path d="M946.904,342.235c4.813,1.203 8.724,2.66 11.732,4.37c3.009,1.71 5.368,3.531 7.078,5.463c1.71,1.931 2.866,3.879 3.467,5.842c0.602,1.963 0.903,3.832 0.903,5.605c0,2.723 -0.634,5.272 -1.9,7.647c-1.267,2.375 -2.993,4.45 -5.178,6.223c-2.185,1.773 -4.75,3.183 -7.695,4.227c-2.945,1.046 -6.096,1.568 -9.452,1.568c-3.104,0 -6.049,-0.443 -8.835,-1.33c-2.787,-0.887 -5.241,-2.122 -7.363,-3.705c-2.121,-1.583 -3.879,-3.436 -5.272,-5.558c-1.394,-2.121 -2.249,-4.417 -2.565,-6.887l7.885,-1.615c0.886,2.913 2.771,5.368 5.652,7.363c2.882,1.995 6.381,2.992 10.498,2.992c2.09,0 4.069,-0.285 5.937,-0.855c1.869,-0.57 3.499,-1.362 4.893,-2.375c1.393,-1.013 2.486,-2.169 3.277,-3.468c0.792,-1.298 1.188,-2.707 1.188,-4.227c0,-5.827 -5.447,-10.102 -16.34,-12.825c-2.597,-0.633 -5.225,-1.362 -7.885,-2.185c-2.66,-0.823 -5.051,-1.916 -7.173,-3.278c-2.121,-1.361 -3.863,-3.087 -5.225,-5.177c-1.361,-2.09 -2.042,-4.75 -2.042,-7.98c0,-2.723 0.538,-5.241 1.615,-7.552c1.076,-2.312 2.596,-4.291 4.56,-5.938c1.963,-1.647 4.338,-2.945 7.125,-3.895c2.786,-0.95 5.858,-1.425 9.215,-1.425c2.976,0 5.763,0.443 8.36,1.33c2.596,0.887 4.876,2.106 6.84,3.658c1.963,1.551 3.562,3.388 4.797,5.51c1.235,2.121 2.011,4.449 2.328,6.982l-7.885,1.71c-0.697,-3.04 -2.28,-5.542 -4.75,-7.505c-2.47,-1.963 -5.7,-2.945 -9.69,-2.945c-4.244,0 -7.553,0.95 -9.928,2.85c-2.375,1.9 -3.562,4.307 -3.562,7.22c0,1.14 0.206,2.169 0.617,3.087c0.412,0.919 1.172,1.758 2.28,2.518c1.109,0.76 2.66,1.504 4.655,2.233c1.995,0.728 4.608,1.504 7.838,2.327Z" style="fill:#fff;fill-rule:nonzero;"/></g></g></g></svg>