<?xml version="1.0" encoding="UTF-8" standalone="no"?><!DOCTYPE svg PUBLIC "-//W3C//DTD SVG 1.1//EN" "http://www.w3.org/Graphics/SVG/1.1/DTD/svg11.dtd"><svg width="100%" height="100%" viewBox="0 0 1280 720" version="1.1" xmlns="http://www.w3.org/2000/svg" xmlns:xlink="http://www.w3.org/1999/xlink" xml:space="preserve" style="fill-rule:evenodd;clip-rule:evenodd;stroke-miterlimit:10;"><g id="actiTENS"><rect id="Background" x="0" y="0" width="1280" height="720" style="fill:none;"/><g><g><g><clipPath id="_clip1"><path d="M411.038,485c69.035,0 125,-55.964 125,-125c0,-69.036 -55.965,-125 -125,-125c-69.036,0 -125,55.964 -125,125c0,69.036 55.964,125 125,125Z"/></clipPath><g clip-path="url(#_clip1)"><rect x="278.322" y="227.284" width="265.432" height="265.432" style="fill:#fff;fill-opacity:0.0980392;fill-rule:nonzero;"/></g><clipPath id="_clip2"><path d="M411.038,453.75c51.777,0 93.75,-41.973 93.75,-93.75c0,-51.777 -41.973,-93.75 -93.75,-93.75c-51.777,0 -93.75,41.973 -93.75,93.75c0,51.777 41.973,93.75 93.75,93.75Z"/></clipPath><g clip-path="url(#_clip2)"><rect x="309.572" y="258.534" width="202.932" height="202.932" style="fill:#fff;fill-opacity:0.2;fill-rule:nonzero;"/></g><g><clipPath id="_clip3"><path d="M305.174,295.802l211.728,0l0,128.396l-211.728,0l0,-128.396Zm35.031,45.446c0,-5.757 4.654,-10.415 10.413,-10.415l120.84,0c5.749,0 10.413,4.667 10.413,10.415l0,37.504c0,5.757 -4.655,10.415 -10.413,10.415l-120.84,0c-5.749,0 -10.413,-4.667 -10.413,-10.415l0,-37.504Zm-4.167,0l0,37.504c0,8.049 6.529,14.581 14.58,14.581l120.84,0c8.06,0 14.58,-6.524 14.58,-14.581l0,-37.504c0,-8.049 -6.53,-14.581 -14.58,-14.581l-120.84,0c-8.061,0 -14.58,6.524 -14.58,14.581Z"/></clipPath><g clip-path="url(#_clip3)"><clipPath id="_clip4"><path d="M338.121,341.248c0,-6.903 5.583,-12.498 12.497,-12.498l120.84,0c6.902,0 12.497,5.601 12.497,12.498l0,37.504c0,6.903 -5.584,12.498 -12.497,12.498l-120.84,0c-6.902,0 -12.497,-5.601 -12.497,-12.498l0,-37.504Z"/></clipPath><g clip-path="url(#_clip4)"><path d="M338.121,341.248c0,-6.903 5.583,-12.498 12.497,-12.498l120.84,0c6.902,0 12.497,5.601 12.497,12.498l0,37.504c0,6.903 -5.584,12.498 -12.497,12.498l-120.84,0c-6.902,0 -12.497,-5.601 -12.497,-12.498l0,-37.504Z" style="fill:#fff;fill-rule:nonzero;"/></g></g></g><clipPath id="_clip5"><path d="M338.121,341.248c0,-6.903 5.583,-12.498 12.497,-12.498l120.84,0c6.902,0 12.497,5.601 12.497,12.498l0,37.504c0,6.903 -5.584,12.498 -12.497,12.498l-120.84,0c-6.902,0 -12.497,-5.601 -12.497,-12.498l0,-37.504Z"/></clipPath><g clip-path="url(#_clip5)"><path d="M471.653,326.051l0.196,0.004l0.195,0.006l0.194,0.009l0.194,0.011l0.192,0.013l0.193,0.016l0.192,0.018l0.191,0.021l0.19,0.023l0.19,0.025l0.189,0.028l0.188,0.03l0.188,0.033l0.187,0.034l0.186,0.037l0.185,0.039l0.185,0.042l0.184,0.043l0.182,0.046l0.182,0.048l0.181,0.05l0.18,0.053l0.179,0.054l0.179,0.057l0.177,0.059l0.176,0.061l0.176,0.063l0.174,0.065l0.173,0.067l0.172,0.069l0.172,0.072l0.17,0.073l0.169,0.075l0.168,0.077l0.166,0.079l0.166,0.082l0.164,0.083l0.164,0.085l0.162,0.086l0.161,0.089l0.16,0.091l0.158,0.092l0.158,0.095l0.156,0.096l0.154,0.098l0.154,0.1l0.152,0.101l0.151,0.103l0.149,0.105l0.149,0.107l0.146,0.109l0.146,0.11l0.144,0.112l0.143,0.114l0.141,0.115l0.14,0.117l0.138,0.118l0.137,0.12l0.136,0.122l0.134,0.123l0.132,0.125l0.131,0.127l0.13,0.128l0.128,0.129l0.126,0.132l0.125,0.132l0.123,0.134l0.122,0.136l0.12,0.137l0.119,0.138l0.117,0.14l0.115,0.142l0.113,0.142l0.112,0.144l0.11,0.146l0.109,0.147l0.106,0.148l0.105,0.149l0.104,0.152l0.101,0.152l0.1,0.153l0.098,0.155l0.096,0.155l0.094,0.158l0.093,0.159l0.09,0.159l0.089,0.161l0.087,0.162l0.085,0.164l0.083,0.165l0.08,0.165l0.08,0.167l0.077,0.168l0.075,0.168l0.073,0.17l0.071,0.172l0.07,0.172l0.067,0.174l0.065,0.174l0.062,0.174l0.061,0.177l0.059,0.177l0.057,0.178l0.054,0.179l0.053,0.181l0.05,0.181l0.048,0.181l0.046,0.183l0.043,0.184l0.042,0.184l0.039,0.185l0.037,0.186l0.034,0.187l0.033,0.187l0.029,0.188l0.028,0.19l0.026,0.19l0.023,0.19l0.02,0.191l0.018,0.191l0.016,0.193l0.014,0.193l0.011,0.193l0.008,0.194l0.007,0.195l0.003,0.195l0.002,0.187l0,37.522l-0.002,0.187l-0.003,0.195l-0.007,0.195l-0.008,0.194l-0.011,0.194l-0.014,0.192l-0.015,0.192l-0.019,0.193l-0.02,0.191l-0.023,0.19l-0.025,0.19l-0.028,0.189l-0.03,0.188l-0.032,0.188l-0.035,0.186l-0.036,0.187l-0.04,0.185l-0.041,0.184l-0.043,0.184l-0.046,0.183l-0.048,0.181l-0.05,0.181l-0.052,0.18l-0.055,0.18l-0.056,0.178l-0.059,0.177l-0.061,0.176l-0.062,0.175l-0.065,0.175l-0.067,0.173l-0.069,0.172l-0.072,0.172l-0.073,0.169l-0.075,0.169l-0.077,0.169l-0.079,0.167l-0.081,0.165l-0.082,0.164l-0.085,0.164l-0.087,0.162l-0.089,0.161l-0.09,0.16l-0.093,0.158l-0.094,0.158l-0.095,0.155l-0.098,0.156l-0.1,0.153l-0.102,0.152l-0.103,0.151l-0.105,0.15l-0.106,0.148l-0.109,0.147l-0.11,0.145l-0.111,0.144l-0.114,0.143l-0.115,0.142l-0.117,0.14l-0.118,0.138l-0.12,0.137l-0.122,0.136l-0.123,0.134l-0.125,0.132l-0.126,0.132l-0.128,0.129l-0.13,0.128l-0.131,0.127l-0.133,0.125l-0.133,0.123l-0.136,0.122l-0.137,0.12l-0.138,0.118l-0.14,0.117l-0.141,0.115l-0.143,0.114l-0.144,0.112l-0.146,0.11l-0.147,0.109l-0.148,0.106l-0.149,0.105l-0.151,0.104l-0.152,0.101l-0.154,0.1l-0.155,0.098l-0.156,0.096l-0.157,0.094l-0.159,0.093l-0.159,0.09l-0.161,0.089l-0.163,0.087l-0.163,0.085l-0.164,0.083l-0.166,0.081l-0.167,0.079l-0.168,0.077l-0.169,0.076l-0.17,0.073l-0.172,0.071l-0.172,0.069l-0.173,0.067l-0.175,0.065l-0.175,0.063l-0.176,0.061l-0.178,0.059l-0.178,0.056l-0.18,0.055l-0.18,0.052l-0.181,0.051l-0.182,0.048l-0.183,0.045l-0.183,0.044l-0.185,0.041l-0.185,0.039l-0.187,0.037l-0.187,0.035l-0.187,0.032l-0.189,0.03l-0.189,0.028l-0.19,0.025l-0.191,0.023l-0.191,0.021l-0.192,0.018l-0.193,0.016l-0.193,0.013l-0.193,0.011l-0.195,0.009l-0.195,0.006l-0.195,0.004l-0.188,0.001l-120.857,0l-0.187,-0.001l-0.195,-0.004l-0.195,-0.006l-0.194,-0.009l-0.194,-0.011l-0.193,-0.013l-0.192,-0.016l-0.192,-0.018l-0.191,-0.021l-0.191,-0.023l-0.189,-0.025l-0.189,-0.028l-0.189,-0.03l-0.187,-0.032l-0.188,-0.035l-0.185,-0.037l-0.186,-0.039l-0.184,-0.042l-0.184,-0.043l-0.183,-0.046l-0.182,-0.048l-0.18,-0.05l-0.181,-0.053l-0.179,-0.054l-0.178,-0.057l-0.177,-0.059l-0.177,-0.061l-0.175,-0.063l-0.174,-0.065l-0.174,-0.067l-0.172,-0.069l-0.171,-0.072l-0.17,-0.073l-0.169,-0.075l-0.168,-0.077l-0.167,-0.079l-0.165,-0.081l-0.165,-0.084l-0.163,-0.085l-0.162,-0.086l-0.161,-0.089l-0.16,-0.091l-0.159,-0.092l-0.157,-0.095l-0.156,-0.096l-0.155,-0.098l-0.153,-0.1l-0.152,-0.101l-0.151,-0.103l-0.15,-0.105l-0.148,-0.107l-0.147,-0.109l-0.145,-0.11l-0.144,-0.112l-0.143,-0.113l-0.141,-0.116l-0.14,-0.117l-0.139,-0.118l-0.137,-0.12l-0.135,-0.122l-0.134,-0.123l-0.133,-0.125l-0.131,-0.127l-0.129,-0.128l-0.128,-0.13l-0.127,-0.131l-0.124,-0.132l-0.124,-0.134l-0.121,-0.136l-0.121,-0.137l-0.118,-0.138l-0.117,-0.14l-0.115,-0.141l-0.114,-0.143l-0.111,-0.144l-0.111,-0.146l-0.108,-0.147l-0.107,-0.148l-0.105,-0.15l-0.103,-0.15l-0.102,-0.153l-0.099,-0.153l-0.098,-0.155l-0.096,-0.156l-0.094,-0.157l-0.093,-0.159l-0.09,-0.159l-0.089,-0.161l-0.087,-0.163l-0.085,-0.163l-0.083,-0.164l-0.081,-0.166l-0.079,-0.167l-0.077,-0.168l-0.075,-0.168l-0.073,-0.171l-0.072,-0.171l-0.069,-0.172l-0.067,-0.173l-0.065,-0.174l-0.063,-0.176l-0.061,-0.176l-0.059,-0.177l-0.056,-0.178l-0.055,-0.179l-0.052,-0.181l-0.05,-0.18l-0.048,-0.182l-0.046,-0.183l-0.044,-0.184l-0.041,-0.184l-0.039,-0.185l-0.037,-0.186l-0.035,-0.187l-0.032,-0.188l-0.03,-0.188l-0.028,-0.189l-0.025,-0.19l-0.023,-0.19l-0.02,-0.191l-0.019,-0.191l-0.016,-0.193l-0.013,-0.193l-0.011,-0.193l-0.009,-0.194l-0.006,-0.195l-0.004,-0.195l-0.001,-0.187l0,-37.522l0.001,-0.187l0.004,-0.195l0.006,-0.195l0.009,-0.194l0.011,-0.193l0.013,-0.193l0.016,-0.193l0.018,-0.191l0.021,-0.192l0.023,-0.19l0.025,-0.19l0.028,-0.189l0.03,-0.188l0.032,-0.188l0.034,-0.186l0.037,-0.186l0.039,-0.186l0.041,-0.184l0.044,-0.184l0.046,-0.182l0.048,-0.182l0.05,-0.181l0.052,-0.18l0.054,-0.179l0.057,-0.179l0.059,-0.177l0.06,-0.176l0.063,-0.176l0.065,-0.174l0.067,-0.173l0.069,-0.172l0.071,-0.172l0.073,-0.17l0.075,-0.169l0.077,-0.167l0.079,-0.167l0.081,-0.166l0.083,-0.165l0.085,-0.163l0.087,-0.162l0.088,-0.161l0.091,-0.16l0.092,-0.158l0.094,-0.158l0.096,-0.156l0.098,-0.154l0.1,-0.154l0.101,-0.152l0.103,-0.151l0.105,-0.15l0.107,-0.148l0.108,-0.147l0.11,-0.145l0.112,-0.145l0.114,-0.142l0.115,-0.142l0.116,-0.14l0.119,-0.138l0.12,-0.137l0.122,-0.136l0.123,-0.134l0.125,-0.132l0.126,-0.131l0.128,-0.13l0.13,-0.128l0.131,-0.127l0.132,-0.124l0.134,-0.124l0.136,-0.122l0.136,-0.12l0.139,-0.118l0.14,-0.117l0.141,-0.116l0.143,-0.113l0.144,-0.112l0.145,-0.11l0.147,-0.109l0.148,-0.106l0.15,-0.105l0.151,-0.104l0.152,-0.101l0.154,-0.1l0.154,-0.098l0.157,-0.096l0.157,-0.094l0.158,-0.093l0.16,-0.09l0.161,-0.089l0.162,-0.087l0.164,-0.085l0.164,-0.083l0.166,-0.081l0.167,-0.079l0.168,-0.077l0.169,-0.076l0.17,-0.073l0.171,-0.071l0.173,-0.069l0.173,-0.067l0.174,-0.065l0.176,-0.063l0.176,-0.061l0.177,-0.059l0.179,-0.057l0.179,-0.054l0.18,-0.052l0.182,-0.051l0.181,-0.048l0.183,-0.045l0.184,-0.044l0.185,-0.041l0.185,-0.039l0.186,-0.037l0.187,-0.035l0.188,-0.032l0.189,-0.03l0.189,-0.028l0.19,-0.025l0.19,-0.023l0.192,-0.021l0.192,-0.018l0.192,-0.016l0.194,-0.013l0.193,-0.011l0.195,-0.009l0.195,-0.006l0.195,-0.004l0.187,-0.001l120.857,0l0.187,0.001Zm-121.027,5.399l-0.136,0.001l-0.127,0.002l-0.127,0.004l-0.126,0.006l-0.126,0.007l-0.124,0.009l-0.125,0.01l-0.124,0.012l-0.124,0.013l-0.123,0.015l-0.122,0.016l-0.123,0.018l-0.121,0.019l-0.121,0.021l-0.12,0.023l-0.12,0.023l-0.12,0.025l-0.118,0.027l-0.118,0.028l-0.118,0.029l-0.117,0.031l-0.116,0.033l-0.116,0.033l-0.115,0.035l-0.115,0.037l-0.114,0.037l-0.113,0.04l-0.113,0.04l-0.112,0.042l-0.111,0.043l-0.111,0.044l-0.11,0.046l-0.109,0.047l-0.109,0.048l-0.108,0.05l-0.107,0.051l-0.107,0.052l-0.106,0.053l-0.105,0.055l-0.104,0.056l-0.104,0.057l-0.103,0.058l-0.102,0.06l-0.101,0.061l-0.101,0.062l-0.1,0.063l-0.099,0.064l-0.098,0.065l-0.097,0.067l-0.096,0.068l-0.096,0.069l-0.095,0.07l-0.094,0.071l-0.093,0.072l-0.092,0.074l-0.091,0.074l-0.09,0.075l-0.09,0.077l-0.088,0.078l-0.088,0.078l-0.086,0.08l-0.086,0.081l-0.085,0.081l-0.083,0.083l-0.083,0.084l-0.081,0.084l-0.081,0.086l-0.08,0.087l-0.078,0.087l-0.078,0.089l-0.076,0.089l-0.076,0.091l-0.074,0.091l-0.073,0.092l-0.073,0.093l-0.071,0.094l-0.07,0.095l-0.068,0.096l-0.068,0.096l-0.067,0.097l-0.065,0.098l-0.064,0.099l-0.063,0.101l-0.062,0.1l-0.061,0.101l-0.059,0.102l-0.059,0.103l-0.057,0.104l-0.055,0.104l-0.055,0.106l-0.053,0.106l-0.052,0.106l-0.051,0.107l-0.05,0.108l-0.048,0.109l-0.047,0.109l-0.046,0.11l-0.044,0.111l-0.043,0.112l-0.042,0.112l-0.04,0.112l-0.039,0.113l-0.038,0.114l-0.036,0.115l-0.035,0.115l-0.034,0.116l-0.032,0.116l-0.031,0.117l-0.029,0.117l-0.028,0.118l-0.027,0.119l-0.025,0.119l-0.024,0.12l-0.022,0.12l-0.021,0.121l-0.019,0.121l-0.018,0.122l-0.016,0.123l-0.015,0.123l-0.013,0.123l-0.012,0.124l-0.01,0.124l-0.009,0.125l-0.007,0.126l-0.006,0.126l-0.004,0.126l-0.002,0.127l-0.001,0.136l0,37.488l0.001,0.136l0.002,0.126l0.004,0.126l0.006,0.126l0.007,0.126l0.009,0.124l0.01,0.124l0.012,0.124l0.013,0.123l0.015,0.123l0.016,0.123l0.018,0.121l0.02,0.122l0.02,0.12l0.023,0.12l0.023,0.12l0.025,0.119l0.027,0.118l0.028,0.118l0.029,0.118l0.031,0.116l0.033,0.117l0.033,0.115l0.035,0.115l0.037,0.115l0.037,0.114l0.039,0.113l0.041,0.112l0.042,0.113l0.043,0.111l0.044,0.11l0.046,0.111l0.047,0.109l0.048,0.109l0.05,0.108l0.051,0.107l0.052,0.106l0.054,0.106l0.054,0.106l0.056,0.104l0.057,0.104l0.058,0.102l0.06,0.103l0.061,0.101l0.062,0.101l0.063,0.1l0.064,0.099l0.066,0.098l0.067,0.097l0.067,0.097l0.069,0.096l0.07,0.095l0.071,0.093l0.073,0.094l0.073,0.092l0.075,0.091l0.075,0.091l0.077,0.089l0.077,0.089l0.079,0.087l0.08,0.087l0.08,0.086l0.082,0.085l0.083,0.084l0.084,0.082l0.084,0.082l0.086,0.081l0.087,0.08l0.088,0.078l0.088,0.078l0.09,0.077l0.09,0.075l0.091,0.075l0.092,0.073l0.094,0.072l0.094,0.072l0.094,0.07l0.096,0.069l0.097,0.067l0.097,0.067l0.098,0.066l0.099,0.064l0.1,0.063l0.101,0.062l0.101,0.061l0.102,0.06l0.103,0.058l0.104,0.057l0.104,0.056l0.105,0.055l0.106,0.053l0.107,0.052l0.107,0.052l0.108,0.049l0.109,0.048l0.109,0.048l0.11,0.045l0.111,0.045l0.111,0.043l0.112,0.042l0.113,0.04l0.113,0.039l0.114,0.038l0.114,0.037l0.115,0.035l0.116,0.033l0.116,0.033l0.117,0.03l0.117,0.03l0.118,0.028l0.119,0.027l0.119,0.025l0.12,0.023l0.12,0.023l0.121,0.02l0.121,0.02l0.122,0.018l0.122,0.016l0.123,0.015l0.123,0.013l0.124,0.012l0.124,0.01l0.125,0.009l0.126,0.007l0.125,0.006l0.127,0.004l0.127,0.002l0.135,0.001l120.823,0l0.136,-0.001l0.128,-0.002l0.126,-0.004l0.126,-0.006l0.126,-0.007l0.125,-0.009l0.125,-0.01l0.124,-0.012l0.124,-0.013l0.123,-0.015l0.122,-0.016l0.122,-0.018l0.122,-0.019l0.121,-0.021l0.12,-0.023l0.12,-0.023l0.119,-0.025l0.119,-0.027l0.118,-0.028l0.118,-0.029l0.116,-0.031l0.117,-0.033l0.116,-0.033l0.115,-0.035l0.115,-0.037l0.113,-0.037l0.114,-0.039l0.113,-0.041l0.111,-0.042l0.112,-0.043l0.111,-0.044l0.11,-0.046l0.109,-0.047l0.109,-0.048l0.108,-0.05l0.107,-0.051l0.106,-0.052l0.106,-0.053l0.106,-0.055l0.104,-0.056l0.104,-0.057l0.102,-0.058l0.103,-0.06l0.101,-0.061l0.1,-0.062l0.1,-0.063l0.099,-0.064l0.099,-0.066l0.097,-0.066l0.096,-0.068l0.096,-0.069l0.094,-0.07l0.094,-0.071l0.093,-0.072l0.093,-0.074l0.091,-0.074l0.09,-0.075l0.09,-0.077l0.088,-0.077l0.087,-0.079l0.087,-0.08l0.086,-0.081l0.084,-0.081l0.084,-0.083l0.083,-0.084l0.081,-0.084l0.081,-0.086l0.079,-0.087l0.079,-0.087l0.078,-0.089l0.076,-0.089l0.075,-0.091l0.075,-0.091l0.073,-0.092l0.072,-0.093l0.071,-0.094l0.07,-0.095l0.069,-0.095l0.068,-0.097l0.066,-0.098l0.066,-0.098l0.064,-0.099l0.063,-0.099l0.062,-0.101l0.061,-0.101l0.059,-0.102l0.058,-0.103l0.057,-0.104l0.056,-0.105l0.055,-0.104l0.053,-0.106l0.052,-0.107l0.051,-0.107l0.049,-0.108l0.049,-0.109l0.047,-0.11l0.046,-0.109l0.044,-0.111l0.043,-0.112l0.042,-0.111l0.04,-0.113l0.039,-0.113l0.038,-0.114l0.036,-0.115l0.035,-0.115l0.034,-0.115l0.032,-0.117l0.031,-0.117l0.029,-0.118l0.028,-0.117l0.027,-0.119l0.025,-0.119l0.023,-0.12l0.023,-0.12l0.02,-0.121l0.02,-0.122l0.017,-0.121l0.017,-0.122l0.015,-0.124l0.013,-0.123l0.012,-0.124l0.01,-0.124l0.009,-0.126l0.007,-0.125l0.005,-0.126l0.004,-0.126l0.003,-0.127l0.001,-0.136l0,-37.488l-0.001,-0.135l-0.003,-0.127l-0.004,-0.126l-0.005,-0.126l-0.007,-0.126l-0.009,-0.124l-0.01,-0.124l-0.012,-0.124l-0.014,-0.123l-0.014,-0.124l-0.017,-0.122l-0.017,-0.121l-0.02,-0.121l-0.021,-0.121l-0.022,-0.12l-0.024,-0.12l-0.025,-0.119l-0.026,-0.118l-0.028,-0.118l-0.03,-0.118l-0.031,-0.117l-0.032,-0.116l-0.033,-0.115l-0.036,-0.116l-0.036,-0.114l-0.038,-0.114l-0.039,-0.113l-0.04,-0.113l-0.042,-0.112l-0.043,-0.111l-0.044,-0.111l-0.046,-0.109l-0.047,-0.11l-0.049,-0.109l-0.049,-0.108l-0.051,-0.107l-0.053,-0.107l-0.053,-0.106l-0.054,-0.105l-0.056,-0.104l-0.058,-0.104l-0.058,-0.103l-0.059,-0.102l-0.061,-0.101l-0.062,-0.101l-0.063,-0.1l-0.065,-0.099l-0.065,-0.098l-0.067,-0.097l-0.067,-0.097l-0.07,-0.096l-0.07,-0.095l-0.071,-0.093l-0.072,-0.094l-0.073,-0.092l-0.075,-0.091l-0.076,-0.091l-0.076,-0.089l-0.077,-0.088l-0.079,-0.088l-0.08,-0.087l-0.081,-0.086l-0.081,-0.085l-0.083,-0.084l-0.084,-0.082l-0.085,-0.082l-0.085,-0.081l-0.087,-0.079l-0.088,-0.079l-0.088,-0.078l-0.09,-0.077l-0.09,-0.075l-0.092,-0.075l-0.092,-0.073l-0.093,-0.072l-0.094,-0.072l-0.095,-0.07l-0.095,-0.069l-0.097,-0.067l-0.097,-0.067l-0.099,-0.066l-0.098,-0.064l-0.1,-0.063l-0.101,-0.062l-0.101,-0.061l-0.103,-0.06l-0.103,-0.058l-0.103,-0.057l-0.105,-0.056l-0.105,-0.055l-0.106,-0.053l-0.106,-0.053l-0.107,-0.05l-0.108,-0.05l-0.109,-0.048l-0.109,-0.048l-0.11,-0.045l-0.111,-0.045l-0.112,-0.043l-0.111,-0.042l-0.113,-0.04l-0.113,-0.039l-0.114,-0.038l-0.115,-0.037l-0.115,-0.035l-0.115,-0.033l-0.117,-0.033l-0.116,-0.03l-0.118,-0.03l-0.118,-0.028l-0.118,-0.027l-0.119,-0.025l-0.12,-0.023l-0.12,-0.023l-0.121,-0.021l-0.121,-0.019l-0.122,-0.018l-0.122,-0.016l-0.123,-0.015l-0.123,-0.013l-0.124,-0.012l-0.125,-0.01l-0.125,-0.009l-0.125,-0.007l-0.126,-0.006l-0.126,-0.004l-0.127,-0.002l-0.136,-0.001l-120.823,0Z" style="fill:#15a9c8;"/></g><g><clipPath id="_clip6"><path d="M313.507,304.136l105.478,0l0,111.728l-105.478,0l0,-111.728Zm35.031,37.116c0,-1.156 0.927,-2.085 2.078,-2.085l31.261,0c1.152,0 2.078,0.925 2.078,2.085l0,37.496c0,1.156 -0.928,2.085 -2.078,2.085l-31.261,0c-1.152,0 -2.078,-0.925 -2.078,-2.085l0,-37.496Zm-4.167,0l0,37.496c0,3.462 2.792,6.252 6.245,6.252l31.261,0c3.454,0 6.244,-2.798 6.244,-6.252l0,-37.496c0,-3.462 -2.791,-6.252 -6.244,-6.252l-31.261,0c-3.455,0 -6.245,2.798 -6.245,6.252Z"/></clipPath><g clip-path="url(#_clip6)"><clipPath id="_clip7"><path d="M346.455,341.252c0,-2.302 1.856,-4.169 4.161,-4.169l31.261,0c2.298,0 4.161,1.854 4.161,4.169l0,37.496c0,2.302 -1.856,4.169 -4.161,4.169l-31.261,0c-2.298,0 -4.161,-1.854 -4.161,-4.169l0,-37.496Z"/></clipPath><g clip-path="url(#_clip7)"><path d="M346.455,341.252c0,-2.302 1.856,-4.169 4.161,-4.169l31.261,0c2.298,0 4.161,1.854 4.161,4.169l0,37.496c0,2.302 -1.856,4.169 -4.161,4.169l-31.261,0c-2.298,0 -4.161,-1.854 -4.161,-4.169l0,-37.496Z" style="fill:#fcfcfe;fill-rule:nonzero;"/></g></g></g><clipPath id="_clip8"><path d="M346.455,341.252c0,-2.302 1.856,-4.169 4.161,-4.169l31.261,0c2.298,0 4.161,1.854 4.161,4.169l0,37.496c0,2.302 -1.856,4.169 -4.161,4.169l-31.261,0c-2.298,0 -4.161,-1.854 -4.161,-4.169l0,-37.496Z"/></clipPath><g clip-path="url(#_clip8)"><path d="M382.052,334.385l0.174,0.007l0.174,0.011l0.174,0.015l0.172,0.02l0.171,0.024l0.169,0.028l0.168,0.032l0.167,0.036l0.166,0.04l0.164,0.044l0.163,0.049l0.16,0.051l0.159,0.056l0.157,0.06l0.155,0.063l0.154,0.067l0.151,0.07l0.149,0.074l0.148,0.078l0.145,0.081l0.143,0.084l0.14,0.087l0.138,0.091l0.136,0.094l0.133,0.097l0.131,0.1l0.128,0.104l0.126,0.106l0.123,0.109l0.12,0.112l0.118,0.115l0.115,0.118l0.112,0.12l0.109,0.123l0.106,0.125l0.104,0.129l0.1,0.131l0.097,0.133l0.094,0.136l0.091,0.139l0.088,0.14l0.084,0.143l0.081,0.145l0.078,0.148l0.074,0.15l0.071,0.151l0.067,0.154l0.063,0.156l0.06,0.157l0.056,0.159l0.052,0.161l0.048,0.163l0.045,0.165l0.04,0.166l0.036,0.167l0.032,0.169l0.028,0.17l0.024,0.172l0.02,0.173l0.015,0.173l0.011,0.174l0.007,0.176l0.002,0.159l0,37.53l-0.002,0.158l-0.007,0.175l-0.011,0.175l-0.015,0.173l-0.02,0.172l-0.023,0.171l-0.028,0.17l-0.032,0.168l-0.037,0.167l-0.04,0.166l-0.044,0.164l-0.048,0.162l-0.052,0.161l-0.056,0.159l-0.059,0.157l-0.064,0.156l-0.066,0.153l-0.071,0.151l-0.074,0.15l-0.077,0.147l-0.081,0.145l-0.084,0.143l-0.087,0.141l-0.091,0.137l-0.094,0.136l-0.097,0.134l-0.1,0.131l-0.103,0.128l-0.106,0.126l-0.109,0.123l-0.112,0.12l-0.114,0.118l-0.118,0.116l-0.12,0.111l-0.123,0.11l-0.125,0.106l-0.128,0.104l-0.131,0.1l-0.133,0.098l-0.136,0.094l-0.138,0.091l-0.141,0.088l-0.142,0.084l-0.145,0.081l-0.147,0.078l-0.15,0.075l-0.151,0.07l-0.154,0.068l-0.155,0.063l-0.158,0.06l-0.159,0.056l-0.161,0.052l-0.163,0.049l-0.164,0.044l-0.166,0.041l-0.167,0.036l-0.169,0.033l-0.17,0.028l-0.172,0.024l-0.172,0.02l-0.174,0.015l-0.174,0.011l-0.176,0.007l-0.158,0.002l-31.295,0l-0.158,-0.002l-0.175,-0.007l-0.174,-0.011l-0.173,-0.015l-0.172,-0.02l-0.171,-0.024l-0.169,-0.027l-0.169,-0.033l-0.167,-0.036l-0.165,-0.04l-0.164,-0.044l-0.163,-0.048l-0.161,-0.052l-0.159,-0.056l-0.157,-0.06l-0.155,-0.063l-0.154,-0.067l-0.151,-0.07l-0.149,-0.074l-0.147,-0.078l-0.145,-0.081l-0.143,-0.084l-0.14,-0.087l-0.139,-0.091l-0.135,-0.094l-0.134,-0.097l-0.131,-0.1l-0.127,-0.103l-0.126,-0.107l-0.124,-0.109l-0.12,-0.112l-0.118,-0.115l-0.114,-0.117l-0.113,-0.121l-0.109,-0.123l-0.106,-0.125l-0.103,-0.129l-0.101,-0.131l-0.097,-0.133l-0.094,-0.136l-0.091,-0.139l-0.088,-0.14l-0.084,-0.143l-0.081,-0.145l-0.078,-0.148l-0.074,-0.149l-0.07,-0.152l-0.068,-0.154l-0.063,-0.156l-0.06,-0.157l-0.055,-0.159l-0.053,-0.161l-0.048,-0.163l-0.044,-0.165l-0.041,-0.166l-0.036,-0.167l-0.032,-0.169l-0.028,-0.17l-0.024,-0.172l-0.02,-0.173l-0.015,-0.173l-0.011,-0.174l-0.006,-0.176l-0.002,-0.159l0,-37.53l0.002,-0.158l0.006,-0.175l0.011,-0.175l0.015,-0.173l0.02,-0.171l0.024,-0.172l0.028,-0.17l0.032,-0.168l0.036,-0.167l0.04,-0.166l0.045,-0.164l0.048,-0.162l0.052,-0.161l0.055,-0.159l0.06,-0.157l0.063,-0.156l0.067,-0.153l0.07,-0.152l0.074,-0.149l0.077,-0.147l0.081,-0.145l0.084,-0.143l0.088,-0.141l0.09,-0.138l0.094,-0.135l0.097,-0.134l0.1,-0.13l0.103,-0.129l0.106,-0.126l0.109,-0.123l0.112,-0.12l0.115,-0.118l0.117,-0.115l0.12,-0.113l0.123,-0.109l0.126,-0.106l0.128,-0.104l0.131,-0.1l0.133,-0.098l0.136,-0.094l0.137,-0.091l0.141,-0.088l0.143,-0.084l0.145,-0.081l0.147,-0.078l0.149,-0.075l0.152,-0.07l0.153,-0.068l0.155,-0.063l0.158,-0.06l0.16,-0.056l0.161,-0.053l0.162,-0.048l0.164,-0.044l0.166,-0.041l0.168,-0.036l0.169,-0.033l0.17,-0.028l0.171,-0.024l0.173,-0.02l0.173,-0.015l0.174,-0.011l0.176,-0.007l0.159,-0.002l31.295,0l0.158,0.002Zm-31.419,5.398l-0.056,0.001l-0.039,0.002l-0.039,0.002l-0.037,0.003l-0.037,0.004l-0.037,0.006l-0.036,0.006l-0.036,0.006l-0.035,0.008l-0.034,0.008l-0.035,0.01l-0.034,0.01l-0.034,0.011l-0.033,0.012l-0.032,0.012l-0.033,0.013l-0.032,0.015l-0.032,0.014l-0.031,0.016l-0.031,0.016l-0.031,0.017l-0.03,0.018l-0.03,0.019l-0.029,0.019l-0.029,0.02l-0.028,0.021l-0.028,0.021l-0.028,0.023l-0.027,0.023l-0.026,0.023l-0.026,0.024l-0.025,0.025l-0.025,0.025l-0.024,0.026l-0.024,0.027l-0.022,0.027l-0.022,0.027l-0.022,0.028l-0.021,0.029l-0.02,0.029l-0.019,0.03l-0.019,0.03l-0.017,0.03l-0.018,0.031l-0.016,0.031l-0.016,0.032l-0.015,0.032l-0.014,0.032l-0.013,0.033l-0.013,0.033l-0.012,0.034l-0.011,0.034l-0.01,0.034l-0.009,0.035l-0.009,0.035l-0.007,0.035l-0.007,0.037l-0.006,0.036l-0.005,0.036l-0.005,0.038l-0.003,0.038l-0.002,0.038l-0.002,0.039l0,0.057l0,37.462l0,0.058l0.002,0.039l0.002,0.039l0.004,0.039l0.004,0.037l0.005,0.037l0.006,0.037l0.007,0.036l0.008,0.036l0.008,0.036l0.01,0.034l0.01,0.034l0.011,0.034l0.012,0.034l0.012,0.034l0.014,0.032l0.013,0.032l0.016,0.032l0.015,0.032l0.016,0.031l0.018,0.031l0.018,0.03l0.018,0.03l0.019,0.029l0.021,0.029l0.02,0.029l0.021,0.027l0.022,0.027l0.023,0.028l0.024,0.026l0.024,0.026l0.024,0.025l0.026,0.024l0.025,0.025l0.026,0.023l0.027,0.022l0.028,0.023l0.028,0.021l0.028,0.021l0.029,0.02l0.029,0.019l0.03,0.018l0.03,0.018l0.031,0.017l0.03,0.016l0.032,0.016l0.032,0.015l0.032,0.014l0.033,0.013l0.033,0.013l0.033,0.011l0.034,0.011l0.034,0.01l0.034,0.009l0.035,0.009l0.035,0.008l0.036,0.006l0.036,0.006l0.037,0.006l0.037,0.004l0.038,0.003l0.037,0.002l0.039,0.002l0.057,0.001l31.227,0l0.056,-0.001l0.039,-0.002l0.038,-0.002l0.038,-0.003l0.037,-0.005l0.036,-0.005l0.036,-0.006l0.036,-0.006l0.035,-0.008l0.035,-0.009l0.034,-0.009l0.034,-0.01l0.034,-0.011l0.033,-0.012l0.033,-0.012l0.032,-0.013l0.032,-0.014l0.032,-0.015l0.032,-0.016l0.031,-0.016l0.03,-0.018l0.031,-0.018l0.029,-0.018l0.029,-0.019l0.029,-0.02l0.029,-0.021l0.028,-0.022l0.027,-0.022l0.027,-0.022l0.026,-0.024l0.027,-0.024l0.025,-0.025l0.024,-0.025l0.024,-0.026l0.024,-0.027l0.023,-0.027l0.022,-0.027l0.021,-0.028l0.021,-0.029l0.02,-0.029l0.019,-0.03l0.019,-0.03l0.018,-0.03l0.017,-0.031l0.017,-0.031l0.015,-0.032l0.015,-0.032l0.014,-0.032l0.014,-0.033l0.012,-0.033l0.012,-0.034l0.011,-0.034l0.01,-0.034l0.009,-0.035l0.009,-0.035l0.008,-0.036l0.007,-0.036l0.006,-0.036l0.005,-0.036l0.004,-0.038l0.003,-0.038l0.003,-0.038l0.001,-0.039l0.001,-0.057l0,-37.462l-0.001,-0.058l-0.001,-0.039l-0.003,-0.039l-0.003,-0.039l-0.004,-0.037l-0.006,-0.037l-0.006,-0.037l-0.007,-0.036l-0.007,-0.036l-0.009,-0.036l-0.009,-0.034l-0.01,-0.034l-0.011,-0.034l-0.012,-0.034l-0.013,-0.033l-0.013,-0.033l-0.014,-0.032l-0.015,-0.033l-0.016,-0.031l-0.016,-0.031l-0.017,-0.031l-0.018,-0.03l-0.019,-0.03l-0.019,-0.029l-0.02,-0.029l-0.021,-0.029l-0.021,-0.027l-0.022,-0.028l-0.023,-0.026l-0.023,-0.027l-0.025,-0.026l-0.024,-0.025l-0.025,-0.024l-0.026,-0.024l-0.026,-0.024l-0.027,-0.022l-0.027,-0.022l-0.028,-0.022l-0.029,-0.021l-0.028,-0.019l-0.03,-0.02l-0.03,-0.018l-0.03,-0.018l-0.03,-0.017l-0.031,-0.016l-0.032,-0.016l-0.032,-0.015l-0.032,-0.014l-0.032,-0.013l-0.033,-0.013l-0.034,-0.011l-0.034,-0.011l-0.033,-0.01l-0.035,-0.01l-0.035,-0.008l-0.035,-0.008l-0.036,-0.006l-0.036,-0.006l-0.037,-0.006l-0.036,-0.004l-0.038,-0.003l-0.038,-0.002l-0.039,-0.002l-0.057,-0.001l-31.226,0Z" style="fill:#f4f4f7;"/></g><g><clipPath id="_clip9"><path d="M403.09,304.136l105.479,0l0,111.728l-105.479,0l0,-111.728Zm35.031,37.116c0,-1.156 0.927,-2.085 2.078,-2.085l31.261,0c1.152,0 2.078,0.925 2.078,2.085l0,37.496c0,1.156 -0.927,2.085 -2.078,2.085l-31.261,0c-1.152,0 -2.078,-0.925 -2.078,-2.085l0,-37.496Zm-4.166,0l0,37.496c0,3.462 2.791,6.252 6.244,6.252l31.261,0c3.455,0 6.245,-2.798 6.245,-6.252l0,-37.496c0,-3.462 -2.792,-6.252 -6.245,-6.252l-31.261,0c-3.455,0 -6.244,2.798 -6.244,6.252Z"/></clipPath><g clip-path="url(#_clip9)"><clipPath id="_clip10"><path d="M436.038,341.252c0,-2.302 1.856,-4.169 4.161,-4.169l31.261,0c2.298,0 4.161,1.854 4.161,4.169l0,37.496c0,2.302 -1.856,4.169 -4.161,4.169l-31.261,0c-2.298,0 -4.161,-1.854 -4.161,-4.169l0,-37.496Z"/></clipPath><g clip-path="url(#_clip10)"><path d="M436.038,341.252c0,-2.302 1.856,-4.169 4.161,-4.169l31.261,0c2.298,0 4.161,1.854 4.161,4.169l0,37.496c0,2.302 -1.856,4.169 -4.161,4.169l-31.261,0c-2.298,0 -4.161,-1.854 -4.161,-4.169l0,-37.496Z" style="fill:#fcfcfe;fill-rule:nonzero;"/></g></g></g><clipPath id="_clip11"><path d="M436.038,341.252c0,-2.302 1.856,-4.169 4.161,-4.169l31.261,0c2.298,0 4.161,1.854 4.161,4.169l0,37.496c0,2.302 -1.856,4.169 -4.161,4.169l-31.261,0c-2.298,0 -4.161,-1.854 -4.161,-4.169l0,-37.496Z"/></clipPath><g clip-path="url(#_clip11)"><path d="M471.636,334.385l0.174,0.007l0.174,0.011l0.173,0.015l0.172,0.02l0.171,0.024l0.169,0.028l0.169,0.032l0.166,0.036l0.166,0.04l0.164,0.044l0.163,0.049l0.16,0.051l0.159,0.056l0.157,0.06l0.156,0.063l0.153,0.067l0.151,0.07l0.15,0.074l0.147,0.078l0.145,0.081l0.143,0.084l0.14,0.087l0.138,0.091l0.136,0.094l0.133,0.097l0.131,0.1l0.129,0.104l0.125,0.106l0.123,0.109l0.121,0.112l0.117,0.115l0.115,0.118l0.112,0.12l0.109,0.123l0.107,0.125l0.103,0.129l0.101,0.131l0.097,0.133l0.094,0.136l0.091,0.139l0.087,0.14l0.085,0.143l0.081,0.145l0.077,0.148l0.075,0.149l0.07,0.152l0.067,0.154l0.064,0.155l0.059,0.158l0.056,0.159l0.052,0.161l0.049,0.163l0.044,0.165l0.04,0.166l0.037,0.168l0.032,0.168l0.028,0.17l0.024,0.172l0.019,0.172l0.016,0.174l0.011,0.175l0.006,0.175l0.002,0.159l0,37.53l-0.002,0.158l-0.006,0.176l-0.011,0.174l-0.016,0.173l-0.019,0.172l-0.024,0.17l-0.028,0.171l-0.032,0.168l-0.036,0.167l-0.041,0.166l-0.044,0.164l-0.048,0.162l-0.052,0.161l-0.056,0.159l-0.059,0.157l-0.063,0.156l-0.067,0.153l-0.07,0.151l-0.074,0.15l-0.078,0.147l-0.081,0.145l-0.084,0.143l-0.087,0.141l-0.091,0.137l-0.093,0.136l-0.097,0.134l-0.1,0.131l-0.103,0.128l-0.106,0.126l-0.11,0.123l-0.111,0.12l-0.115,0.118l-0.117,0.115l-0.121,0.113l-0.123,0.109l-0.125,0.106l-0.128,0.104l-0.131,0.1l-0.133,0.097l-0.136,0.095l-0.138,0.091l-0.14,0.088l-0.143,0.084l-0.145,0.081l-0.147,0.078l-0.15,0.075l-0.151,0.07l-0.154,0.068l-0.155,0.063l-0.158,0.06l-0.159,0.056l-0.16,0.052l-0.163,0.049l-0.165,0.044l-0.166,0.041l-0.167,0.036l-0.169,0.033l-0.17,0.028l-0.172,0.024l-0.172,0.02l-0.173,0.015l-0.175,0.011l-0.175,0.007l-0.159,0.002l-31.295,0l-0.158,-0.002l-0.175,-0.007l-0.174,-0.011l-0.173,-0.015l-0.172,-0.02l-0.171,-0.024l-0.169,-0.027l-0.169,-0.033l-0.167,-0.036l-0.165,-0.04l-0.164,-0.044l-0.162,-0.048l-0.161,-0.052l-0.16,-0.056l-0.156,-0.06l-0.156,-0.063l-0.153,-0.067l-0.151,-0.07l-0.149,-0.074l-0.148,-0.078l-0.145,-0.081l-0.143,-0.084l-0.14,-0.087l-0.138,-0.091l-0.136,-0.094l-0.133,-0.097l-0.131,-0.1l-0.128,-0.103l-0.126,-0.107l-0.123,-0.109l-0.121,-0.112l-0.117,-0.115l-0.115,-0.117l-0.113,-0.121l-0.109,-0.123l-0.106,-0.126l-0.103,-0.128l-0.1,-0.131l-0.098,-0.133l-0.094,-0.136l-0.091,-0.139l-0.087,-0.14l-0.084,-0.143l-0.082,-0.145l-0.077,-0.148l-0.074,-0.149l-0.071,-0.152l-0.067,-0.154l-0.064,-0.155l-0.059,-0.158l-0.056,-0.159l-0.052,-0.162l-0.049,-0.162l-0.044,-0.165l-0.04,-0.166l-0.037,-0.167l-0.032,-0.169l-0.028,-0.171l-0.024,-0.171l-0.019,-0.172l-0.016,-0.174l-0.011,-0.174l-0.006,-0.176l-0.002,-0.159l0,-37.53l0.002,-0.159l0.006,-0.175l0.011,-0.174l0.016,-0.172l0.019,-0.172l0.024,-0.172l0.028,-0.17l0.032,-0.168l0.036,-0.167l0.041,-0.166l0.044,-0.164l0.048,-0.162l0.052,-0.161l0.056,-0.159l0.059,-0.157l0.063,-0.156l0.067,-0.153l0.07,-0.151l0.074,-0.15l0.078,-0.147l0.08,-0.145l0.085,-0.143l0.087,-0.141l0.091,-0.138l0.093,-0.135l0.097,-0.134l0.1,-0.13l0.103,-0.129l0.107,-0.126l0.108,-0.123l0.112,-0.12l0.115,-0.118l0.117,-0.115l0.121,-0.113l0.122,-0.109l0.126,-0.106l0.128,-0.104l0.131,-0.1l0.133,-0.098l0.136,-0.094l0.138,-0.091l0.14,-0.088l0.143,-0.084l0.145,-0.081l0.147,-0.078l0.15,-0.075l0.151,-0.07l0.154,-0.068l0.155,-0.063l0.158,-0.06l0.159,-0.056l0.161,-0.053l0.162,-0.048l0.164,-0.044l0.167,-0.041l0.167,-0.036l0.169,-0.033l0.171,-0.028l0.17,-0.024l0.173,-0.02l0.174,-0.015l0.174,-0.011l0.175,-0.007l0.159,-0.002l31.295,0l0.159,0.002Zm-31.42,5.398l-0.056,0.001l-0.039,0.002l-0.039,0.002l-0.037,0.003l-0.037,0.004l-0.037,0.006l-0.036,0.006l-0.035,0.006l-0.035,0.008l-0.035,0.008l-0.034,0.01l-0.035,0.01l-0.033,0.011l-0.033,0.012l-0.033,0.012l-0.033,0.013l-0.032,0.015l-0.032,0.014l-0.031,0.016l-0.031,0.016l-0.031,0.017l-0.03,0.018l-0.03,0.019l-0.029,0.019l-0.029,0.02l-0.028,0.021l-0.028,0.021l-0.027,0.023l-0.027,0.023l-0.027,0.023l-0.026,0.024l-0.025,0.025l-0.025,0.025l-0.023,0.026l-0.024,0.027l-0.023,0.027l-0.022,0.027l-0.021,0.028l-0.021,0.029l-0.02,0.029l-0.02,0.03l-0.018,0.029l-0.018,0.031l-0.018,0.031l-0.016,0.031l-0.015,0.031l-0.016,0.033l-0.014,0.033l-0.013,0.032l-0.012,0.033l-0.012,0.034l-0.011,0.034l-0.01,0.034l-0.01,0.035l-0.008,0.035l-0.008,0.035l-0.007,0.037l-0.006,0.036l-0.005,0.036l-0.004,0.038l-0.004,0.038l-0.002,0.038l-0.001,0.039l-0.001,0.057l0,37.462l0.001,0.058l0.001,0.039l0.003,0.039l0.003,0.038l0.004,0.038l0.005,0.037l0.006,0.037l0.007,0.036l0.008,0.036l0.009,0.035l0.009,0.035l0.01,0.035l0.011,0.033l0.012,0.034l0.013,0.033l0.013,0.033l0.014,0.032l0.015,0.032l0.016,0.032l0.016,0.031l0.017,0.03l0.018,0.031l0.019,0.03l0.019,0.029l0.02,0.029l0.02,0.028l0.022,0.028l0.022,0.028l0.023,0.027l0.023,0.026l0.024,0.026l0.024,0.025l0.026,0.024l0.026,0.025l0.026,0.023l0.026,0.022l0.028,0.023l0.028,0.021l0.029,0.021l0.028,0.019l0.029,0.02l0.03,0.018l0.031,0.018l0.03,0.017l0.031,0.016l0.032,0.016l0.031,0.015l0.032,0.014l0.033,0.013l0.033,0.013l0.033,0.011l0.034,0.011l0.034,0.01l0.034,0.01l0.036,0.008l0.035,0.008l0.035,0.006l0.037,0.006l0.036,0.006l0.037,0.004l0.038,0.003l0.038,0.002l0.039,0.002l0.056,0.001l31.227,0l0.057,-0.001l0.038,-0.002l0.038,-0.002l0.038,-0.003l0.037,-0.005l0.037,-0.005l0.036,-0.006l0.035,-0.006l0.035,-0.008l0.035,-0.009l0.035,-0.009l0.033,-0.01l0.034,-0.011l0.034,-0.012l0.033,-0.012l0.032,-0.013l0.032,-0.014l0.032,-0.015l0.031,-0.016l0.031,-0.016l0.031,-0.018l0.03,-0.017l0.03,-0.019l0.029,-0.019l0.029,-0.02l0.028,-0.021l0.028,-0.022l0.028,-0.022l0.027,-0.023l0.026,-0.023l0.026,-0.024l0.025,-0.025l0.025,-0.025l0.024,-0.026l0.023,-0.027l0.023,-0.027l0.022,-0.027l0.021,-0.028l0.021,-0.029l0.02,-0.029l0.02,-0.03l0.019,-0.03l0.017,-0.03l0.017,-0.031l0.017,-0.031l0.016,-0.032l0.014,-0.032l0.015,-0.032l0.013,-0.033l0.013,-0.033l0.011,-0.034l0.011,-0.034l0.01,-0.034l0.01,-0.035l0.008,-0.035l0.008,-0.036l0.007,-0.036l0.006,-0.036l0.005,-0.037l0.004,-0.037l0.004,-0.038l0.002,-0.038l0.001,-0.039l0.001,-0.057l0,-37.462l-0.001,-0.058l-0.001,-0.039l-0.002,-0.039l-0.004,-0.038l-0.004,-0.038l-0.005,-0.037l-0.006,-0.037l-0.007,-0.037l-0.008,-0.035l-0.009,-0.035l-0.009,-0.035l-0.01,-0.034l-0.011,-0.034l-0.012,-0.034l-0.012,-0.033l-0.014,-0.033l-0.014,-0.032l-0.015,-0.032l-0.015,-0.032l-0.017,-0.031l-0.017,-0.031l-0.018,-0.03l-0.018,-0.03l-0.02,-0.029l-0.02,-0.029l-0.021,-0.028l-0.021,-0.028l-0.022,-0.028l-0.022,-0.026l-0.024,-0.027l-0.024,-0.026l-0.025,-0.025l-0.025,-0.024l-0.025,-0.024l-0.027,-0.024l-0.027,-0.023l-0.027,-0.021l-0.028,-0.022l-0.028,-0.021l-0.029,-0.019l-0.03,-0.02l-0.029,-0.018l-0.03,-0.018l-0.031,-0.017l-0.031,-0.016l-0.032,-0.016l-0.031,-0.015l-0.032,-0.014l-0.033,-0.013l-0.033,-0.013l-0.033,-0.011l-0.034,-0.011l-0.034,-0.01l-0.034,-0.01l-0.035,-0.008l-0.036,-0.008l-0.035,-0.006l-0.037,-0.006l-0.036,-0.006l-0.037,-0.004l-0.038,-0.003l-0.038,-0.002l-0.039,-0.002l-0.056,-0.001l-31.227,0Z" style="fill:#f4f4f7;"/></g><g><clipPath id="_clip12"><path d="M357.257,304.136l107.562,0l0,111.728l-107.562,0l0,-111.728Zm35.031,37.116c0,-1.15 0.936,-2.085 2.083,-2.085l33.333,0c1.156,0 2.084,0.926 2.084,2.085l0,37.496c0,1.15 -0.936,2.085 -2.084,2.085l-33.333,0c-1.156,0 -2.083,-0.926 -2.083,-2.085l0,-37.496Zm-4.167,0l0,37.496c0,3.462 2.795,6.252 6.25,6.252l33.333,0c3.448,0 6.251,-2.801 6.251,-6.252l0,-37.496c0,-3.462 -2.795,-6.252 -6.251,-6.252l-33.333,0c-3.448,0 -6.25,2.801 -6.25,6.252Z"/></clipPath><g clip-path="url(#_clip12)"><clipPath id="_clip13"><path d="M390.205,341.252c0,-2.302 1.871,-4.169 4.166,-4.169l33.333,0c2.302,0 4.167,1.854 4.167,4.169l0,37.496c0,2.302 -1.871,4.169 -4.167,4.169l-33.333,0c-2.301,0 -4.166,-1.854 -4.166,-4.169l0,-37.496Z"/></clipPath><g clip-path="url(#_clip13)"><path d="M390.205,341.252c0,-2.302 1.871,-4.169 4.166,-4.169l33.333,0c2.302,0 4.167,1.854 4.167,4.169l0,37.496c0,2.302 -1.871,4.169 -4.167,4.169l-33.333,0c-2.301,0 -4.166,-1.854 -4.166,-4.169l0,-37.496Z" style="fill:#fcfcfe;fill-rule:nonzero;"/></g></g></g><clipPath id="_clip14"><path d="M390.205,341.252c0,-2.302 1.871,-4.169 4.166,-4.169l33.333,0c2.302,0 4.167,1.854 4.167,4.169l0,37.496c0,2.302 -1.871,4.169 -4.167,4.169l-33.333,0c-2.301,0 -4.166,-1.854 -4.166,-4.169l0,-37.496Z"/></clipPath><g clip-path="url(#_clip14)"><path d="M427.88,334.385l0.175,0.007l0.173,0.011l0.174,0.015l0.172,0.02l0.171,0.024l0.169,0.027l0.169,0.033l0.166,0.036l0.166,0.04l0.164,0.044l0.163,0.048l0.161,0.052l0.158,0.056l0.158,0.059l0.155,0.064l0.154,0.066l0.151,0.071l0.15,0.074l0.147,0.077l0.145,0.081l0.143,0.084l0.14,0.088l0.138,0.09l0.136,0.094l0.134,0.097l0.131,0.1l0.128,0.104l0.126,0.105l0.123,0.11l0.121,0.112l0.118,0.115l0.115,0.117l0.112,0.121l0.109,0.123l0.106,0.125l0.104,0.129l0.1,0.13l0.098,0.134l0.094,0.136l0.091,0.138l0.088,0.141l0.084,0.143l0.081,0.145l0.078,0.148l0.074,0.149l0.071,0.152l0.067,0.153l0.064,0.156l0.06,0.158l0.056,0.159l0.052,0.161l0.048,0.163l0.045,0.165l0.04,0.166l0.036,0.168l0.033,0.169l0.028,0.17l0.024,0.171l0.019,0.173l0.016,0.173l0.011,0.175l0.006,0.176l0.002,0.159l0,37.53l-0.002,0.159l-0.007,0.176l-0.011,0.174l-0.015,0.174l-0.02,0.172l-0.024,0.172l-0.028,0.17l-0.033,0.169l-0.036,0.167l-0.041,0.166l-0.044,0.164l-0.049,0.163l-0.052,0.161l-0.056,0.159l-0.06,0.158l-0.064,0.155l-0.067,0.153l-0.071,0.152l-0.074,0.149l-0.078,0.148l-0.081,0.144l-0.085,0.143l-0.087,0.141l-0.091,0.137l-0.094,0.136l-0.098,0.134l-0.1,0.13l-0.103,0.128l-0.106,0.126l-0.11,0.123l-0.112,0.12l-0.115,0.118l-0.117,0.115l-0.12,0.111l-0.123,0.109l-0.126,0.107l-0.128,0.103l-0.131,0.1l-0.133,0.097l-0.135,0.094l-0.139,0.091l-0.14,0.088l-0.143,0.084l-0.144,0.081l-0.147,0.078l-0.15,0.074l-0.151,0.07l-0.153,0.068l-0.156,0.063l-0.157,0.06l-0.159,0.056l-0.16,0.052l-0.163,0.049l-0.164,0.044l-0.166,0.041l-0.167,0.036l-0.169,0.033l-0.17,0.028l-0.171,0.024l-0.172,0.019l-0.173,0.016l-0.175,0.011l-0.175,0.007l-0.158,0.002l-33.368,0l-0.158,-0.002l-0.175,-0.007l-0.174,-0.011l-0.173,-0.015l-0.172,-0.02l-0.171,-0.024l-0.169,-0.027l-0.169,-0.033l-0.167,-0.036l-0.166,-0.04l-0.164,-0.044l-0.162,-0.048l-0.161,-0.052l-0.159,-0.056l-0.157,-0.059l-0.156,-0.064l-0.153,-0.066l-0.151,-0.071l-0.15,-0.074l-0.147,-0.077l-0.145,-0.081l-0.143,-0.084l-0.141,-0.088l-0.138,-0.09l-0.136,-0.094l-0.133,-0.097l-0.131,-0.1l-0.128,-0.103l-0.126,-0.106l-0.124,-0.11l-0.12,-0.112l-0.118,-0.114l-0.115,-0.118l-0.112,-0.121l-0.11,-0.123l-0.106,-0.125l-0.103,-0.128l-0.1,-0.131l-0.098,-0.134l-0.094,-0.136l-0.091,-0.138l-0.088,-0.141l-0.084,-0.143l-0.082,-0.145l-0.078,-0.148l-0.074,-0.149l-0.07,-0.151l-0.068,-0.154l-0.063,-0.157l-0.06,-0.157l-0.056,-0.159l-0.052,-0.161l-0.048,-0.164l-0.045,-0.164l-0.04,-0.166l-0.037,-0.167l-0.032,-0.17l-0.028,-0.17l-0.024,-0.171l-0.019,-0.173l-0.016,-0.173l-0.011,-0.175l-0.006,-0.176l-0.002,-0.159l0,-37.53l0.002,-0.159l0.006,-0.176l0.011,-0.174l0.016,-0.174l0.02,-0.173l0.024,-0.171l0.028,-0.17l0.032,-0.168l0.037,-0.168l0.04,-0.166l0.045,-0.164l0.048,-0.163l0.053,-0.161l0.056,-0.159l0.06,-0.157l0.063,-0.156l0.068,-0.153l0.071,-0.152l0.074,-0.149l0.078,-0.147l0.081,-0.145l0.084,-0.143l0.088,-0.141l0.091,-0.138l0.094,-0.135l0.097,-0.133l0.101,-0.131l0.103,-0.128l0.106,-0.126l0.109,-0.123l0.112,-0.12l0.115,-0.118l0.118,-0.114l0.12,-0.112l0.123,-0.109l0.126,-0.106l0.128,-0.104l0.131,-0.1l0.133,-0.097l0.136,-0.094l0.137,-0.091l0.14,-0.087l0.143,-0.085l0.145,-0.081l0.147,-0.078l0.149,-0.074l0.152,-0.071l0.153,-0.067l0.155,-0.063l0.158,-0.06l0.159,-0.056l0.161,-0.052l0.162,-0.049l0.164,-0.044l0.166,-0.041l0.167,-0.036l0.169,-0.033l0.17,-0.028l0.17,-0.024l0.173,-0.019l0.173,-0.016l0.174,-0.011l0.175,-0.007l0.159,-0.002l33.368,0l0.158,0.002Zm-33.492,5.398l-0.055,0.001l-0.038,0.001l-0.039,0.003l-0.036,0.003l-0.037,0.004l-0.037,0.006l-0.035,0.005l-0.036,0.007l-0.035,0.008l-0.034,0.008l-0.035,0.01l-0.034,0.01l-0.034,0.011l-0.033,0.012l-0.033,0.012l-0.033,0.013l-0.032,0.015l-0.032,0.015l-0.031,0.015l-0.032,0.017l-0.031,0.017l-0.03,0.018l-0.03,0.019l-0.03,0.02l-0.029,0.02l-0.029,0.021l-0.028,0.022l-0.028,0.022l-0.028,0.023l-0.027,0.024l-0.025,0.024l-0.026,0.025l-0.025,0.026l-0.024,0.026l-0.024,0.027l-0.023,0.027l-0.023,0.028l-0.021,0.028l-0.021,0.029l-0.021,0.029l-0.019,0.03l-0.019,0.03l-0.018,0.03l-0.017,0.031l-0.017,0.032l-0.016,0.031l-0.015,0.032l-0.014,0.032l-0.013,0.033l-0.013,0.034l-0.012,0.033l-0.011,0.034l-0.01,0.034l-0.009,0.034l-0.009,0.035l-0.007,0.035l-0.007,0.036l-0.006,0.036l-0.005,0.037l-0.005,0.036l-0.003,0.037l-0.002,0.038l-0.002,0.039l0,0.056l0,37.462l0,0.058l0.002,0.039l0.002,0.038l0.004,0.039l0.004,0.038l0.005,0.037l0.006,0.037l0.007,0.035l0.008,0.036l0.008,0.036l0.01,0.034l0.01,0.034l0.011,0.034l0.012,0.034l0.012,0.033l0.013,0.033l0.014,0.032l0.015,0.032l0.016,0.032l0.016,0.031l0.018,0.03l0.018,0.031l0.018,0.029l0.02,0.03l0.02,0.029l0.02,0.028l0.021,0.028l0.023,0.027l0.023,0.027l0.023,0.027l0.024,0.025l0.025,0.026l0.025,0.024l0.026,0.025l0.026,0.022l0.027,0.023l0.028,0.022l0.027,0.022l0.029,0.021l0.029,0.02l0.029,0.019l0.03,0.018l0.031,0.018l0.03,0.017l0.031,0.017l0.032,0.015l0.032,0.015l0.032,0.014l0.033,0.014l0.033,0.012l0.034,0.012l0.033,0.011l0.035,0.01l0.034,0.009l0.036,0.009l0.035,0.008l0.036,0.006l0.036,0.006l0.037,0.005l0.037,0.005l0.038,0.003l0.038,0.002l0.039,0.002l0.057,0.001l33.299,0l0.056,-0.001l0.039,-0.001l0.037,-0.003l0.037,-0.003l0.037,-0.004l0.036,-0.005l0.036,-0.006l0.035,-0.007l0.035,-0.008l0.035,-0.008l0.034,-0.01l0.034,-0.01l0.034,-0.011l0.034,-0.012l0.033,-0.012l0.032,-0.013l0.032,-0.015l0.033,-0.015l0.031,-0.015l0.031,-0.017l0.032,-0.017l0.03,-0.018l0.03,-0.019l0.03,-0.019l0.029,-0.021l0.029,-0.021l0.028,-0.022l0.028,-0.022l0.027,-0.023l0.027,-0.024l0.026,-0.024l0.026,-0.025l0.025,-0.026l0.024,-0.026l0.024,-0.026l0.023,-0.028l0.022,-0.028l0.022,-0.028l0.021,-0.028l0.02,-0.03l0.02,-0.03l0.019,-0.03l0.018,-0.03l0.017,-0.031l0.017,-0.032l0.015,-0.031l0.015,-0.032l0.015,-0.033l0.013,-0.032l0.013,-0.033l0.011,-0.034l0.011,-0.034l0.011,-0.034l0.009,-0.034l0.008,-0.035l0.008,-0.036l0.007,-0.035l0.006,-0.036l0.005,-0.036l0.004,-0.037l0.004,-0.037l0.002,-0.038l0.001,-0.039l0.001,-0.056l0,-37.462l-0.001,-0.058l-0.001,-0.039l-0.002,-0.038l-0.004,-0.039l-0.004,-0.038l-0.005,-0.037l-0.006,-0.037l-0.007,-0.036l-0.008,-0.035l-0.009,-0.035l-0.009,-0.035l-0.01,-0.034l-0.011,-0.034l-0.012,-0.034l-0.013,-0.033l-0.013,-0.033l-0.014,-0.032l-0.015,-0.032l-0.016,-0.032l-0.016,-0.031l-0.017,-0.03l-0.018,-0.031l-0.018,-0.029l-0.02,-0.03l-0.02,-0.029l-0.02,-0.028l-0.022,-0.028l-0.022,-0.027l-0.023,-0.027l-0.023,-0.027l-0.024,-0.026l-0.025,-0.025l-0.025,-0.024l-0.026,-0.024l-0.026,-0.023l-0.028,-0.023l-0.027,-0.022l-0.028,-0.022l-0.028,-0.021l-0.029,-0.019l-0.03,-0.02l-0.03,-0.019l-0.03,-0.017l-0.031,-0.017l-0.031,-0.017l-0.031,-0.015l-0.032,-0.015l-0.033,-0.014l-0.032,-0.014l-0.033,-0.012l-0.034,-0.012l-0.034,-0.011l-0.034,-0.01l-0.035,-0.009l-0.035,-0.009l-0.035,-0.008l-0.036,-0.006l-0.037,-0.006l-0.036,-0.006l-0.038,-0.004l-0.037,-0.003l-0.039,-0.002l-0.039,-0.002l-0.057,-0.001l-33.299,0Z" style="fill:#f4f4f7;"/></g><clipPath id="_clip15"><path d="M366.248,373.542c2.302,0 4.168,-1.866 4.168,-4.167c0,-2.301 -1.866,-4.167 -4.168,-4.167c-2.302,0 -4.168,1.866 -4.168,4.167c0,2.301 1.866,4.167 4.168,4.167Z"/></clipPath><g clip-path="url(#_clip15)"><rect x="354.363" y="357.492" width="23.768" height="23.765" style="fill:#e6f6fa;fill-rule:nonzero;"/></g><path d="M366.248,373.542c2.302,0 4.168,-1.866 4.168,-4.167c0,-2.301 -1.866,-4.167 -4.168,-4.167c-2.302,0 -4.168,1.866 -4.168,4.167c0,2.301 1.866,4.167 4.168,4.167Z" style="fill:none;stroke:#12b3d5;stroke-width:1.35px;"/><clipPath id="_clip16"><path d="M366.248,354.792c2.302,0 4.168,-1.866 4.168,-4.167c0,-2.301 -1.866,-4.167 -4.168,-4.167c-2.302,0 -4.168,1.866 -4.168,4.167c0,2.301 1.866,4.167 4.168,4.167Z"/></clipPath><g clip-path="url(#_clip16)"><rect x="354.363" y="338.742" width="23.768" height="23.765" style="fill:#e6f6fa;fill-rule:nonzero;"/></g><path d="M366.248,354.792c2.302,0 4.168,-1.866 4.168,-4.167c0,-2.301 -1.866,-4.167 -4.168,-4.167c-2.302,0 -4.168,1.866 -4.168,4.167c0,2.301 1.866,4.167 4.168,4.167Z" style="fill:none;stroke:#12b3d5;stroke-width:1.35px;"/><clipPath id="_clip17"><path d="M455.83,373.542c2.302,0 4.168,-1.866 4.168,-4.167c0,-2.301 -1.866,-4.167 -4.168,-4.167c-2.302,0 -4.169,1.866 -4.169,4.167c0,2.301 1.867,4.167 4.169,4.167Z"/></clipPath><g clip-path="url(#_clip17)"><rect x="443.945" y="357.492" width="23.768" height="23.765" style="fill:#e6f6fa;fill-rule:nonzero;"/></g><path d="M455.83,373.542c2.302,0 4.168,-1.866 4.168,-4.167c0,-2.301 -1.866,-4.167 -4.168,-4.167c-2.302,0 -4.169,1.866 -4.169,4.167c0,2.301 1.867,4.167 4.169,4.167Z" style="fill:none;stroke:#12b3d5;stroke-width:1.35px;"/><clipPath id="_clip18"><path d="M455.83,354.792c2.302,0 4.168,-1.866 4.168,-4.167c0,-2.301 -1.866,-4.167 -4.168,-4.167c-2.302,0 -4.169,1.866 -4.169,4.167c0,2.301 1.867,4.167 4.169,4.167Z"/></clipPath><g clip-path="url(#_clip18)"><rect x="443.945" y="338.742" width="23.768" height="23.765" style="fill:#e6f6fa;fill-rule:nonzero;"/></g><path d="M455.83,354.792c2.302,0 4.168,-1.866 4.168,-4.167c0,-2.301 -1.866,-4.167 -4.168,-4.167c-2.302,0 -4.169,1.866 -4.169,4.167c0,2.301 1.867,4.167 4.169,4.167Z" style="fill:none;stroke:#12b3d5;stroke-width:1.35px;"/></g><path d="M618.187,361.649c-3.895,0.127 -7.212,0.436 -9.952,0.927c-2.739,0.49 -4.971,1.132 -6.697,1.923c-1.726,0.792 -2.977,1.726 -3.753,2.803c-0.775,1.076 -1.163,2.28 -1.163,3.61c0,1.266 0.205,2.359 0.617,3.277c0.412,0.919 0.974,1.671 1.686,2.257c0.713,0.585 1.552,1.013 2.518,1.282c0.966,0.269 2.003,0.404 3.111,0.404c1.488,0 2.85,-0.151 4.085,-0.451c1.235,-0.301 2.399,-0.737 3.491,-1.307c1.093,-0.57 2.138,-1.251 3.135,-2.042c0.998,-0.792 1.972,-1.694 2.922,-2.708l0,-9.975Zm-27.313,-19.665c2.66,-2.565 5.526,-4.481 8.598,-5.747c3.071,-1.267 6.475,-1.9 10.212,-1.9c2.692,0 5.083,0.443 7.173,1.33c2.09,0.886 3.847,2.121 5.272,3.705c1.425,1.583 2.502,3.499 3.23,5.747c0.728,2.249 1.093,4.719 1.093,7.41l0,30.78l-3.753,0c-0.823,0 -1.457,-0.134 -1.9,-0.403c-0.443,-0.27 -0.792,-0.8 -1.045,-1.592l-0.95,-4.56c-1.267,1.172 -2.502,2.209 -3.705,3.112c-1.203,0.902 -2.47,1.662 -3.8,2.28c-1.33,0.617 -2.747,1.092 -4.251,1.425c-1.504,0.332 -3.175,0.498 -5.011,0.498c-1.869,0 -3.626,-0.261 -5.273,-0.783c-1.647,-0.523 -3.079,-1.307 -4.299,-2.352c-1.219,-1.045 -2.185,-2.367 -2.897,-3.966c-0.713,-1.599 -1.069,-3.491 -1.069,-5.676c0,-1.9 0.523,-3.729 1.568,-5.486c1.045,-1.758 2.739,-3.318 5.082,-4.679c2.343,-1.362 5.399,-2.478 9.168,-3.349c3.768,-0.871 8.391,-1.37 13.87,-1.496l0,-3.753c0,-3.736 -0.808,-6.563 -2.423,-8.478c-1.615,-1.916 -3.974,-2.874 -7.077,-2.874c-2.09,0 -3.84,0.261 -5.249,0.784c-1.409,0.522 -2.628,1.108 -3.658,1.757c-1.029,0.649 -1.915,1.235 -2.66,1.758c-0.744,0.522 -1.48,0.783 -2.208,0.783c-0.57,0 -1.061,-0.15 -1.473,-0.451c-0.412,-0.301 -0.76,-0.673 -1.045,-1.116l-1.52,-2.708Z" style="fill:#fff;fill-rule:nonzero;"/><path d="M672.812,343.742c-0.254,0.348 -0.507,0.617 -0.76,0.807c-0.254,0.19 -0.602,0.285 -1.045,0.285c-0.475,0 -0.998,-0.198 -1.568,-0.593c-0.57,-0.396 -1.274,-0.832 -2.114,-1.307c-0.839,-0.475 -1.868,-0.91 -3.087,-1.306c-1.219,-0.396 -2.716,-0.594 -4.489,-0.594c-2.375,0 -4.465,0.42 -6.27,1.259c-1.805,0.839 -3.317,2.05 -4.536,3.634c-1.219,1.583 -2.138,3.499 -2.755,5.747c-0.618,2.249 -0.926,4.766 -0.926,7.553c0,2.913 0.332,5.502 0.997,7.766c0.665,2.264 1.607,4.164 2.826,5.7c1.22,1.536 2.692,2.708 4.418,3.515c1.726,0.808 3.665,1.211 5.819,1.211c2.058,0 3.752,-0.245 5.082,-0.736c1.33,-0.491 2.431,-1.037 3.301,-1.639c0.871,-0.601 1.6,-1.148 2.185,-1.638c0.586,-0.491 1.164,-0.737 1.734,-0.737c0.697,0 1.235,0.269 1.615,0.808l2.375,3.087c-1.045,1.299 -2.232,2.407 -3.562,3.325c-1.33,0.919 -2.763,1.687 -4.299,2.304c-1.536,0.618 -3.143,1.069 -4.821,1.354c-1.679,0.285 -3.389,0.427 -5.13,0.427c-3.009,0 -5.803,-0.554 -8.384,-1.662c-2.581,-1.109 -4.821,-2.716 -6.721,-4.821c-1.9,-2.106 -3.389,-4.695 -4.465,-7.767c-1.077,-3.071 -1.615,-6.571 -1.615,-10.497c0,-3.579 0.498,-6.888 1.496,-9.928c0.997,-3.04 2.454,-5.66 4.37,-7.861c1.916,-2.201 4.275,-3.919 7.077,-5.154c2.803,-1.235 6.025,-1.852 9.667,-1.852c3.388,0 6.373,0.546 8.953,1.639c2.581,1.092 4.869,2.636 6.864,4.631l-2.232,3.04Z" style="fill:#fff;fill-rule:nonzero;"/><path d="M729.337,383.309l-8.455,0l0,-41.04l-24.795,0l0,28.88c0,2.027 0.49,3.531 1.472,4.513c0.982,0.981 2.248,1.472 3.8,1.472c0.887,0 1.655,-0.118 2.304,-0.356c0.649,-0.237 1.211,-0.499 1.686,-0.784c0.475,-0.285 0.879,-0.546 1.211,-0.783c0.333,-0.238 0.626,-0.357 0.879,-0.357c0.443,0 0.839,0.269 1.188,0.808l2.47,4.037c-1.457,1.362 -3.215,2.431 -5.273,3.207c-2.058,0.775 -4.18,1.163 -6.365,1.163c-3.8,0 -6.721,-1.061 -8.764,-3.182c-2.042,-2.122 -3.063,-5.178 -3.063,-9.168l0,-29.45l-5.795,0c-0.507,0 -0.935,-0.15 -1.283,-0.451c-0.348,-0.301 -0.522,-0.768 -0.522,-1.401l0,-3.373l7.885,-1.045l1.947,-14.82c0.095,-0.475 0.309,-0.863 0.641,-1.163c0.333,-0.301 0.768,-0.452 1.307,-0.452l4.275,0l0,16.578l33.25,0l0,47.167Zm2.09,-63.555c0,0.824 -0.167,1.592 -0.499,2.304c-0.333,0.713 -0.776,1.338 -1.33,1.876c-0.554,0.539 -1.196,0.966 -1.924,1.283c-0.728,0.316 -1.504,0.475 -2.327,0.475c-0.824,0 -1.592,-0.159 -2.304,-0.475c-0.713,-0.317 -1.338,-0.744 -1.876,-1.283c-0.539,-0.538 -0.966,-1.163 -1.283,-1.876c-0.317,-0.712 -0.475,-1.48 -0.475,-2.304c0,-0.823 0.158,-1.607 0.475,-2.351c0.317,-0.744 0.744,-1.393 1.283,-1.947c0.538,-0.555 1.163,-0.99 1.876,-1.307c0.712,-0.316 1.48,-0.475 2.304,-0.475c0.823,0 1.599,0.159 2.327,0.475c0.728,0.317 1.37,0.752 1.924,1.307c0.554,0.554 0.997,1.203 1.33,1.947c0.332,0.744 0.499,1.528 0.499,2.351Z" style="fill:#fff;fill-rule:nonzero;"/><path d="M791.229,322.984l-22.04,0l0,60.325l-9.167,0l0,-60.325l-22.088,0l0,-7.742l53.295,0l0,7.742Z" style="fill:#fff;fill-rule:nonzero;"/><path d="M843.289,375.804l-0.047,7.505l-41.943,0l0,-68.067l41.943,0l0,7.505l-32.728,0l0,22.61l26.505,0l0,7.22l-26.505,0l0,23.227l32.775,0Z" style="fill:#fff;fill-rule:nonzero;"/><path d="M911.309,315.242l0,68.067l-4.607,0c-0.729,0 -1.338,-0.126 -1.829,-0.38c-0.491,-0.253 -0.974,-0.681 -1.449,-1.282l-39.377,-51.3c0.063,0.791 0.11,1.567 0.142,2.327c0.032,0.76 0.048,1.473 0.048,2.138l0,48.497l-8.075,0l0,-68.067l4.75,0c0.411,0 0.76,0.024 1.045,0.071c0.285,0.048 0.538,0.127 0.76,0.238c0.221,0.11 0.443,0.269 0.665,0.475c0.221,0.205 0.459,0.467 0.712,0.783l39.378,51.253c-0.064,-0.824 -0.119,-1.623 -0.167,-2.399c-0.047,-0.776 -0.071,-1.512 -0.071,-2.209l0,-48.212l8.075,0Z" style="fill:#fff;fill-rule:nonzero;"/><path d="M963.512,325.882c-0.285,0.475 -0.594,0.831 -0.927,1.069c-0.332,0.237 -0.736,0.356 -1.211,0.356c-0.538,0 -1.172,-0.269 -1.9,-0.808c-0.728,-0.538 -1.639,-1.132 -2.731,-1.781c-1.093,-0.649 -2.407,-1.243 -3.943,-1.781c-1.535,-0.539 -3.396,-0.808 -5.581,-0.808c-2.058,0 -3.871,0.277 -5.439,0.832c-1.567,0.554 -2.881,1.306 -3.942,2.256c-1.061,0.95 -1.861,2.066 -2.399,3.349c-0.538,1.282 -0.807,2.667 -0.807,4.156c0,1.9 0.467,3.475 1.401,4.726c0.934,1.251 2.169,2.32 3.705,3.206c1.536,0.887 3.277,1.655 5.225,2.304c1.947,0.649 3.942,1.322 5.985,2.019c2.042,0.696 4.037,1.48 5.985,2.351c1.947,0.871 3.689,1.971 5.225,3.301c1.536,1.33 2.771,2.961 3.705,4.893c0.934,1.931 1.401,4.306 1.401,7.125c0,2.976 -0.507,5.771 -1.52,8.384c-1.013,2.612 -2.494,4.884 -4.441,6.816c-1.948,1.931 -4.338,3.451 -7.173,4.56c-2.834,1.108 -6.056,1.662 -9.666,1.662c-4.433,0 -8.455,-0.799 -12.065,-2.398c-3.61,-1.6 -6.697,-3.761 -9.262,-6.484l2.66,-4.37c0.253,-0.349 0.562,-0.641 0.926,-0.879c0.364,-0.237 0.768,-0.356 1.211,-0.356c0.412,0 0.879,0.166 1.401,0.499c0.523,0.332 1.117,0.752 1.782,1.258c0.665,0.507 1.425,1.061 2.28,1.663c0.855,0.601 1.828,1.156 2.921,1.662c1.092,0.507 2.335,0.927 3.729,1.259c1.393,0.333 2.96,0.499 4.702,0.499c2.185,0 4.133,-0.301 5.843,-0.903c1.71,-0.601 3.158,-1.448 4.346,-2.541c1.187,-1.092 2.098,-2.399 2.731,-3.919c0.633,-1.52 0.95,-3.214 0.95,-5.082c0,-2.059 -0.467,-3.745 -1.401,-5.059c-0.934,-1.314 -2.161,-2.415 -3.681,-3.301c-1.52,-0.887 -3.262,-1.639 -5.225,-2.256c-1.964,-0.618 -3.959,-1.251 -5.985,-1.9c-2.027,-0.65 -4.022,-1.402 -5.985,-2.257c-1.964,-0.855 -3.705,-1.963 -5.225,-3.325c-1.52,-1.361 -2.747,-3.063 -3.682,-5.106c-0.934,-2.042 -1.401,-4.568 -1.401,-7.576c0,-2.407 0.467,-4.734 1.401,-6.983c0.935,-2.248 2.296,-4.243 4.085,-5.985c1.79,-1.741 3.99,-3.135 6.603,-4.18c2.612,-1.045 5.613,-1.567 9.001,-1.567c3.8,0 7.26,0.601 10.379,1.805c3.119,1.203 5.866,2.945 8.241,5.225l-2.232,4.37Z" style="fill:#fff;fill-rule:nonzero;"/></g></g></g></svg>
