<svg xmlns="http://www.w3.org/2000/svg" fill-rule="evenodd" stroke-linejoin="round" stroke-miterlimit="1.41" clip-rule="evenodd" viewBox="0 0 1280 720" width="1280" height="720"><path fill="#fff" fill-rule="nonzero" d="M492.607 345.65v45.6h-8.17v-5.32a21.688 21.688 0 0 1-7.125 5.177c-2.723 1.235-5.668 1.853-8.835 1.853-3.166 0-6.127-.633-8.882-1.9a22.692 22.692 0 0 1-7.22-5.225c-2.058-2.217-3.689-4.813-4.893-7.79-1.203-2.977-1.805-6.175-1.805-9.595 0-3.357.602-6.523 1.805-9.5 1.204-2.977 2.835-5.573 4.893-7.79a23.336 23.336 0 0 1 7.22-5.273c2.755-1.298 5.716-1.947 8.882-1.947 3.167 0 6.112.618 8.835 1.853a21.673 21.673 0 0 1 7.125 5.177v-5.32h8.17zm-23.465 39.425c2.09 0 4.07-.443 5.938-1.33a16.077 16.077 0 0 0 4.892-3.563c1.394-1.488 2.486-3.245 3.278-5.272.792-2.027 1.187-4.18 1.187-6.46 0-2.28-.395-4.433-1.187-6.46s-1.884-3.784-3.278-5.273a16.09 16.09 0 0 0-4.892-3.562 13.674 13.674 0 0 0-5.938-1.33c-2.09 0-4.069.443-5.937 1.33a16.107 16.107 0 0 0-4.893 3.562c-1.393 1.489-2.501 3.246-3.325 5.273-.823 2.027-1.235 4.18-1.235 6.46 0 2.28.412 4.433 1.235 6.46.824 2.027 1.932 3.784 3.325 5.272a16.093 16.093 0 0 0 4.893 3.563 13.67 13.67 0 0 0 5.937 1.33zm59.471-33.25c-2.281 0-4.434.443-6.461 1.33-2.026.887-3.768 2.058-5.225 3.515-1.456 1.457-2.612 3.198-3.467 5.225-.855 2.027-1.283 4.18-1.283 6.46 0 2.28.428 4.433 1.283 6.46s2.011 3.8 3.467 5.32c1.457 1.52 3.199 2.723 5.225 3.61 2.027.887 4.18 1.33 6.46 1.33 2.977 0 5.653-.712 8.028-2.137 2.375-1.425 4.291-3.278 5.747-5.558l6.745 4.37c-2.216 3.42-5.114 6.143-8.692 8.17-3.578 2.027-7.521 3.04-11.828 3.04-3.42 0-6.618-.649-9.595-1.947-2.976-1.299-5.573-3.056-7.79-5.273-2.216-2.217-3.974-4.813-5.272-7.79-1.298-2.977-1.948-6.175-1.948-9.595 0-3.357.65-6.523 1.948-9.5 1.298-2.977 3.056-5.557 5.272-7.742 2.217-2.185 4.814-3.927 7.79-5.225 2.977-1.299 6.175-1.948 9.595-1.948 4.307 0 8.25 1.013 11.828 3.04 3.578 2.027 6.476 4.75 8.692 8.17l-6.65 4.37a16.372 16.372 0 0 0-5.795-5.605c-2.406-1.393-5.098-2.09-8.075-2.09zm52.345 40.09c-.191.063-.697.222-1.52.475-.824.253-1.853.427-3.088.522-1.235.095-2.597.016-4.085-.237s-2.929-.855-4.323-1.805c-4.243-2.85-6.365-8.202-6.365-16.055v-21.28h-5.794v-7.885h5.794v-21.09h7.885v21.09h9.5v7.885h-9.5v21.28c0 5.003.95 8.17 2.851 9.5.569.38 1.187.602 1.852.665.665.063 1.283.079 1.852.048a6.22 6.22 0 0 0 1.473-.238l.618-.19 2.85 7.315zm17.48-.665h-8.076v-45.6h8.076v45.6zm1.234-58.615c0 1.457-.506 2.708-1.52 3.752-1.013 1.046-2.248 1.568-3.705 1.568-1.456 0-2.707-.522-3.752-1.567s-1.568-2.296-1.568-3.753c0-1.457.523-2.692 1.568-3.705s2.296-1.52 3.752-1.52c1.457 0 2.692.507 3.705 1.52 1.014 1.013 1.52 2.248 1.52 3.705zm55.765-7.885v8.455h-19.76v58.045h-8.93v-58.045h-19.76v-8.455h48.45zm54.815 8.74h-35.34v20.14h32.775v8.74h-32.775v20.14h35.34v8.74h-44.365v-66.5h44.365v8.74zm55.291-8.74h9.024v66.5h-8.835l-33.25-50.445v50.445h-8.929v-66.5h8.834l33.156 50.35v-50.35zm45.599 27.265c4.814 1.203 8.725 2.66 11.733 4.37 3.008 1.71 5.367 3.531 7.077 5.463 1.71 1.931 2.866 3.879 3.468 5.842.602 1.963.903 3.832.903 5.605 0 2.723-.634 5.272-1.901 7.647-1.266 2.375-2.992 4.45-5.177 6.223-2.185 1.773-4.75 3.183-7.695 4.227-2.945 1.046-6.096 1.568-9.452 1.568-3.104 0-6.049-.443-8.836-1.33-2.786-.887-5.24-2.122-7.362-3.705-2.122-1.583-3.879-3.436-5.273-5.558-1.393-2.121-2.248-4.417-2.564-6.887l7.885-1.615c.886 2.913 2.77 5.368 5.652 7.363s6.381 2.992 10.497 2.992c2.091 0 4.07-.285 5.938-.855 1.868-.57 3.499-1.362 4.893-2.375 1.393-1.013 2.485-2.169 3.277-3.468a7.966 7.966 0 0 0 1.187-4.227c0-5.827-5.446-10.102-16.34-12.825a134.442 134.442 0 0 1-7.885-2.185c-2.66-.823-5.05-1.916-7.172-3.278a17.327 17.327 0 0 1-5.225-5.177c-1.362-2.09-2.043-4.75-2.043-7.98 0-2.723.539-5.241 1.615-7.552a17.075 17.075 0 0 1 4.56-5.938c1.964-1.647 4.339-2.945 7.125-3.895 2.787-.95 5.859-1.425 9.216-1.425 2.976 0 5.763.443 8.36 1.33 2.596.887 4.876 2.106 6.84 3.658a19.426 19.426 0 0 1 4.797 5.51c1.235 2.121 2.011 4.449 2.327 6.982l-7.885 1.71c-.696-3.04-2.28-5.542-4.75-7.505s-5.7-2.945-9.69-2.945c-4.243 0-7.552.95-9.927 2.85-2.375 1.9-3.563 4.307-3.563 7.22 0 1.14.206 2.169.618 3.087.412.919 1.172 1.758 2.28 2.518 1.108.76 2.66 1.504 4.655 2.233 1.995.728 4.607 1.504 7.837 2.327z"/></svg>