<?xml version="1.0" encoding="UTF-8"?>
<svg width="43px" height="43px" viewBox="0 0 43 43" version="1.1" xmlns="http://www.w3.org/2000/svg" xmlns:xlink="http://www.w3.org/1999/xlink">
    <!-- Generator: Sketch 42 (36781) - http://www.bohemiancoding.com/sketch -->
    <title>apple</title>
    <desc>Created with Sketch.</desc>
    <defs></defs>
    <g id="Page-1" stroke="none" stroke-width="1" fill="none" fill-rule="evenodd">
        <g id="apple">
            <g id="Pomme" transform="translate(3.000000, 0.000000)">
                <path d="M18.9260879,13.0058614 C18.886,13.0050297 18.875978,13.0050297 18.8358901,13.001703 C18.8058242,12.9987921 18.7761758,12.9950495 18.7465275,12.9896436 C18.7314945,12.9871485 18.7168791,12.9838218 18.7022637,12.9809109 L18.7014286,12.9809109 C18.6650989,12.9717624 18.6554945,12.970099 18.6195824,12.9592871 C18.5786593,12.9468119 18.538989,12.9318416 18.5001538,12.9147921 C18.4613187,12.8977426 18.4237363,12.878198 18.386989,12.8565743 C18.3548352,12.8370297 18.3473187,12.8312079 18.316,12.8104158 L18.3155824,12.81 C18.3043077,12.8016832 18.293033,12.7937822 18.2825934,12.7854653 C18.250022,12.7605149 18.2187033,12.7334851 18.1894725,12.7052079 C18.1698462,12.6860792 18.1510549,12.6661188 18.1326813,12.6457426 C18.1239121,12.6353465 18.1151429,12.6249505 18.1063736,12.6145545 L18.105956,12.6137228 C18.0813187,12.5825347 18.0746374,12.5750495 18.0520879,12.5417822 C18.0295385,12.5089307 18.0249451,12.500198 18.0044835,12.4656832 L18.0040659,12.4648515 C17.9982198,12.4536238 17.991956,12.4428119 17.9861099,12.4315842 C17.9727473,12.405802 17.9652308,12.3891683 17.9535385,12.3629703 C17.9481099,12.3500792 17.9418462,12.3371881 17.9368352,12.3238812 C17.9147033,12.2644158 17.9038462,12.2290693 17.8900659,12.1671089 C17.8854725,12.1467327 17.8821319,12.1255248 17.8787912,12.1047327 C17.8658462,12.0290495 17.8620879,11.951703 17.8616703,11.8747723 C17.8612527,11.7787129 17.8658462,11.6822376 17.8725275,11.5861782 C17.8909011,11.329604 17.9251429,11.0738614 17.9694066,10.8206139 C18.0608571,10.2941584 18.1957363,9.77560396 18.3681978,9.26994059 C18.6191648,8.53223762 18.9515604,7.82156436 19.362044,7.15829703 C19.5111209,6.91794059 19.6702198,6.68382178 19.8389231,6.45677228 C19.879011,6.40354455 19.9190989,6.35073267 19.960022,6.29833663 C19.9850769,6.26548515 20.0105495,6.23221782 20.0376923,6.2010297 C20.0577363,6.17732673 20.0786154,6.15487129 20.1007473,6.13366337 C20.2114066,6.0259604 20.345033,5.94279208 20.4907692,5.89164356 C20.6076923,5.85089109 20.7312967,5.83051485 20.8544835,5.83176238 C21.0248571,5.83342574 21.1935604,5.87625743 21.3434725,5.95609901 C21.480022,6.02887129 21.5998681,6.13075248 21.6925714,6.25384158 C21.7481099,6.32786139 21.794044,6.4089505 21.8287033,6.49461386 C21.8687912,6.59441584 21.8938462,6.70045545 21.9021978,6.80774257 C21.9189011,7.02273267 21.867956,7.2410495 21.7572967,7.42693069 C21.7418462,7.45354455 21.7247253,7.47932673 21.7067692,7.50427723 C21.6892308,7.52922772 21.6767033,7.54419802 21.6583297,7.56748515 C21.6391209,7.59243564 21.6199121,7.6169703 21.6007033,7.64192079 C21.5756484,7.67518812 21.5505934,7.7080396 21.525956,7.74172277 C21.3768791,7.94382178 21.2374066,8.1529901 21.1083736,8.36839604 C20.7383956,8.98675248 20.4527692,9.65459406 20.2544176,10.3465545 C20.1754945,10.6210099 20.1103516,10.8996238 20.0614945,11.1807327 C20.0431209,11.2871881 20.0272527,11.3936436 20.0138901,11.5005149 C20.0021978,11.5940792 19.993011,11.6876436 19.9875824,11.7816238 C19.9871648,11.7903564 19.9867473,11.7990891 19.9863297,11.8078218 L19.9859121,11.8173861 L19.9896703,11.8506535 C19.9925934,11.8914059 19.9942637,11.901802 19.9942637,11.9425545 C19.9946813,12.004099 19.9896703,12.0656436 19.9792308,12.1263564 C19.9454066,12.3238812 19.8543736,12.5097624 19.7190769,12.6582178 C19.6881758,12.6923168 19.6547692,12.7247525 19.6192747,12.7546931 C19.587956,12.7808911 19.5791868,12.7867129 19.5461978,12.8108317 L19.5457802,12.8112475 C19.514044,12.8328713 19.5061099,12.8386931 19.4731209,12.8582376 C19.435956,12.8798614 19.3975385,12.8998218 19.3582857,12.9168713 C19.3186154,12.9343366 19.2781099,12.9488911 19.2367692,12.9613663 C19.222989,12.9655248 19.2087912,12.9688515 19.195011,12.9730099 L19.1945934,12.9730099 C19.1553407,12.9821584 19.1457363,12.9850693 19.1060659,12.9917228 C19.0764176,12.996297 19.0463516,13.0000396 19.0162857,13.0025347 C19.0016703,13.0037822 18.9862198,13.004198 18.9711868,13.0050297 C18.9561538,13.0054455 18.9411209,13.0058614 18.9260879,13.0058614 L18.9260879,13.0058614 Z M19.8247253,11.3749307 C19.8096923,11.3487327 19.8096923,11.3491485 19.7904835,11.3258614 L19.7992527,11.3370891 C19.8076044,11.3499802 19.815956,11.3624554 19.8247253,11.3749307 Z M19.7207473,11.240198 C19.6622857,11.1682574 19.661033,11.1682574 19.5854505,11.1146139 L19.6109231,11.1345743 C19.646,11.1649307 19.646,11.1649307 19.6794066,11.1965347 C19.7011209,11.2189901 19.7015385,11.2181584 19.7207473,11.240198 L19.7207473,11.240198 Z" id="Shape" fill="#BE7234" fill-rule="nonzero"></path>
                <polygon id="Shape" fill="#E6505E" points="12.7281444 10.8026337 12.8568901 10.8055446 12.9852336 10.8092871 13.1077684 10.8142772 13.2298988 10.820099 13.3524645 10.8271683 13.4746235 10.8350693 13.5967987 10.8442178 13.7189811 10.854198 13.841177 10.8654257 13.9629614 10.8774851 14.0847566 10.8907921 14.2065543 10.9049307 14.3279438 10.9203168 14.4497497 10.9365347 14.5707223 10.9535842 14.6921153 10.9718812 14.8130889 10.9910099 14.9340641 11.0113861 15.0546176 11.0325941 15.1751646 11.0546337 15.2957094 11.0779208 15.4158293 11.1020396 15.5355235 11.1269901 15.6556276 11.1531881 15.7748877 11.1802178 15.8941349 11.2080792 16.0133681 11.2367723 16.1321745 11.2667129 16.250549 11.2974851 16.3689064 11.3290891 16.4868335 11.3619406 16.6047379 11.3952079 16.72221 11.4297228 16.8392453 11.4650693 17.0191291 11.5212079 17.198127 11.5794257 17.3762354 11.6397228 17.5538665 11.702099 17.7306017 11.7665545 17.9064378 11.8330891 18.0817865 11.901703 18.2558137 11.9719802 18.4168964 12.0393465 18.577079 12.1083762 18.7367738 12.1790693 18.895564 12.2510099 19.0348154 12.221901 19.1625037 12.164099 19.3528815 12.0809307 19.5446076 11.9994257 19.7372627 11.9204158 19.9312564 11.8443168 20.1215996 11.7719604 20.312855 11.702099 20.5050184 11.6347327 20.6980878 11.5694455 20.8920545 11.5070693 21.0869192 11.4467723 21.282675 11.3889703 21.4788983 11.3340792 21.6097395 11.2991485 21.7406037 11.2650495 21.8714858 11.232198 22.0032161 11.2005941 22.1349655 11.1698218 22.2671399 11.1407129 22.3993306 11.1124356 22.5319477 11.0854059 22.6649895 11.0596238 22.7980385 11.0350891 22.9315145 11.0113861 23.064989 10.9893465 23.1984716 10.9681386 23.3323712 10.9481782 23.4666863 10.9294653 23.6009925 10.9124158 23.7353008 10.896198 23.8696034 10.8812277 24.0043148 10.867505 24.139017 10.8550297 24.2741248 10.843802 24.4088037 10.8338218 24.5438771 10.825505 24.678942 10.8180198 24.8139894 10.8117822 24.9494256 10.8072079 25.084424 10.8038812 25.2198244 10.8013861 25.3547751 10.8005545 25.4901158 10.8009703 25.6250026 10.8030495 25.760285 10.8059604 25.8951097 10.8105347 26.0294844 10.8163564 26.1638236 10.8234257 26.2985423 10.8317426 26.4327954 10.8417228 26.566602 10.8525347 26.700772 10.8650099 26.8344706 10.8791485 26.9677177 10.8941188 27.1013224 10.9107525 27.2344612 10.9286337 27.3671325 10.9477624 27.499739 10.9685545 27.6318745 10.9905941 27.7639535 11.0138812 27.8959618 11.0388317 28.039081 11.0671089 28.1816925 11.0974653 28.3238065 11.1294851 28.4654338 11.1627525 28.6069619 11.198099 28.7475833 11.2346931 28.8881004 11.2733663 29.027707 11.3132871 29.1667887 11.3552871 29.3053717 11.3985347 29.443425 11.4438614 29.5805602 11.4904356 29.7171762 11.5386733 29.8532558 11.5889901 29.9884117 11.6405545 30.1230423 11.6937822 30.3188137 11.7752871 30.5135164 11.8601188 30.7058835 11.9486931 30.8967556 12.0405941 31.0852811 12.1362376 31.2723008 12.2352079 31.456981 12.337505 31.6392996 12.4435446 31.7357927 12.5013465 31.831365 12.560396 31.9264659 12.6198614 32.0210403 12.6809901 32.1147286 12.7425347 32.2074935 12.8053267 32.2997668 12.8689505 32.3915478 12.9334059 32.4824037 12.9991089 32.572353 13.0656436 32.6618086 13.1330099 32.7503569 13.2012079 32.8383913 13.2706535 32.9255372 13.3405149 33.0117552 13.4116238 33.0970649 13.4835644 33.2293608 13.5983366 33.3594062 13.7147723 33.4875726 13.833703 33.6134878 13.954297 33.7375223 14.0773861 33.8592842 14.2025545 33.9787946 14.3293861 34.0960326 14.458297 34.2109983 14.5892871 34.3241029 14.7223564 34.4345464 14.8570891 34.5431513 14.9934851 34.649075 15.1319604 34.7527511 15.272099 34.8537481 15.4143168 34.9525225 15.5577822 35.029373 15.6733861 35.1044969 15.7894059 35.1782592 15.9066733 35.250251 16.0251881 35.3209056 16.1445347 35.3898151 16.2647129 35.4573895 16.3857228 35.5231975 16.5079802 35.5876724 16.6310693 35.6504307 16.7545743 35.7114264 16.8793267 35.7710925 17.0049109 35.8290224 17.1313267 35.885625 17.2585743 35.9401113 17.3862376 35.9936805 17.5147327 36.0373566 17.6236832 36.0797505 17.7330495 36.1212453 17.8432475 36.1614844 17.9534455 36.2004198 18.0644752 36.2384833 18.1759208 36.2757006 18.2873663 36.3112111 18.3996436 36.3458528 18.5123366 36.3796512 18.6250297 36.4121519 18.7385545 36.4433812 18.852495 36.4737704 18.9664356 36.5028905 19.0807921 36.5311474 19.1955644 36.5581375 19.3107525 36.58073 19.4113861 36.6025194 19.511604 36.6234304 19.6126535 36.6439439 19.7132871 36.6631763 19.8147525 36.6816089 19.915802 36.6995696 20.0176832 36.7163285 20.1191485 36.7326168 20.2214455 36.7481083 20.3233267 36.7627529 20.4256238 36.7765769 20.5279208 36.7895554 20.6306337 36.8021176 20.7333465 36.8134332 20.8364752 36.8243597 20.9391881 36.8344696 21.041901 36.8433876 21.144198 36.8518671 21.2469109 36.8599601 21.3492079 36.8667864 21.4523366 36.8732276 21.5550495 36.8788312 21.6581782 36.8836499 21.7608911 36.8876215 21.8577822 36.8908107 21.9542574 36.8935669 22.0511485 36.8955161 22.1480396 36.8970594 22.2449307 36.8981972 22.3418218 36.8985299 22.4387129 36.898032 22.5360198 36.8962175 22.7052673 36.8923686 22.8749307 36.8869406 23.0441782 36.879884 23.2138416 36.8708289 23.383505 36.8601776 23.5531683 36.847959 23.7224158 36.8341237 23.8920792 36.8187267 24.0613267 36.8017188 24.2309901 36.7827576 24.4002376 36.7626148 24.5694851 36.7408956 24.7387327 36.717629 24.9075644 36.6927656 25.0768119 36.6667827 25.2452277 36.6392082 25.4140594 36.610097 25.5824752 36.5794259 25.7508911 36.547619 25.9188911 36.5142572 26.0868911 36.4797642 26.2544752 36.444116 26.4220594 36.4069463 26.5892277 36.368232 26.756396 36.3287894 26.9231485 36.2878067 27.089901 36.2457314 27.2558218 36.202121 27.4217426 36.1577897 27.5872475 36.111928 27.7527525 36.0653741 27.9174257 36.0316034 28.0338614 35.997488 28.1498812 35.9626362 28.2654851 35.9273904 28.381505 35.8914099 28.4971089 35.8550869 28.612297 35.8180054 28.7274851 35.7805576 28.8426733 35.7427688 28.9574455 35.7042238 29.0722178 35.6653141 29.1869901 35.6260651 29.3013465 35.5860619 29.415703 35.5457204 29.5296436 35.5046262 29.6435842 35.4635848 29.7571089 35.4171827 29.8826931 35.3704507 30.0078614 35.3229754 30.1330297 35.2751713 30.2577822 35.2266256 30.3825347 35.1777523 30.5068713 35.1285277 30.6312079 35.0785877 30.7551287 35.0373394 30.8570099 34.9957528 30.9584752 34.9541924 31.0599406 34.9122941 31.1609901 34.8700106 31.2624554 34.8273898 31.363505 34.7848197 31.4641386 34.741478 31.5651881 34.6786013 31.7107327 34.6150081 31.8562772 34.5510865 32.0018218 34.4864972 32.1465347 34.4211944 32.2912475 34.3551793 32.4359604 34.2884993 32.5798416 34.2215178 32.7233069 34.1534412 32.8667723 34.0850648 33.0098218 34.0160038 33.1524554 33.946259 33.2946733 33.8758314 33.4364752 33.8046995 33.5782772 33.7332935 33.7192475 33.6608228 33.859802 33.6000261 33.9770693 33.5385304 34.0939208 33.4767202 34.2103564 33.4141903 34.3267921 33.3513687 34.442396 33.2882118 34.558 33.2243372 34.673604 33.1601717 34.7883762 33.0952897 34.9031485 33.029735 35.0170891 32.96423 35.1310297 32.8976494 35.2445545 32.8307373 35.3580792 32.7635363 35.4707723 32.6956435 35.5830495 32.6270596 35.6949109 32.558146 35.8067723 32.4885631 35.917802 32.4186514 36.0288317 32.3480712 36.1390297 32.2771833 36.2488119 32.2052265 36.3581782 32.1333435 36.4671287 32.0603929 36.5756634 31.9871361 36.6837822 31.9131933 36.7914851 31.8389645 36.8983564 31.7636707 37.0048119 31.6884514 37.1108515 31.6121682 37.2164752 31.5355806 37.3216832 31.4579495 37.4260594 31.3529685 37.566198 31.2462335 37.705505 31.1389009 37.8435644 31.0301951 37.9807921 30.920514 38.1167723 30.8098579 38.251505 30.6982272 38.3849901 30.5852263 38.5176436 30.4712696 38.6486337 30.3559618 38.7783762 30.2396806 38.9068713 30.1224261 39.0341188 30.0038217 39.1601188 29.8842613 39.2844554 29.7637444 39.4071287 29.6418775 39.5285545 29.5042106 39.6624554 29.3652366 39.7946931 29.2249871 39.9244356 29.0830537 40.0525149 28.9398272 40.1785149 28.7953218 40.3020198 28.6495207 40.4234455 28.5020477 40.5427921 28.3536659 40.6596436 28.2036238 40.774 28.0526683 40.8858614 27.9000484 40.9952277 27.7461225 41.1025149 27.5912897 41.2068911 27.4347987 41.3083564 27.2773811 41.4073267 27.1224708 41.5013069 26.9666347 41.5923762 26.8094836 41.6809505 26.6513996 41.7666139 26.4923789 41.8493663 26.3320444 41.9292079 26.1711265 42.0065545 26.0088981 42.0805743 25.8261308 42.16 25.6420754 42.2356832 25.4570977 42.3076238 25.2711908 42.3758218 25.0843669 42.4394455 24.8965896 42.4997426 24.7078794 42.5554653 24.51821 42.6074455 24.311147 42.6590099 24.1035166 42.7055842 23.8949357 42.7471683 23.6857648 42.7837624 23.4759994 42.8149505 23.2659853 42.8415644 23.0557307 42.8623564 22.8448324 42.8785743 22.6340396 42.8889703 22.4233278 42.8943762 22.2123185 42.8943762 22.0017373 42.8893861 21.7912094 42.8785743 21.5807169 42.8623564 21.3709901 42.8407327 21.1616448 42.813703 21.0514026 42.7974851 20.9411621 42.7791881 20.8312867 42.7596436 20.7217775 42.7384356 20.612261 42.7155644 20.5031044 42.6914455 20.3943085 42.6656634 20.2854994 42.6382178 20.1774209 42.6086931 20.0693232 42.5779208 19.961949 42.545901 19.8545556 42.511802 19.7478833 42.4760396 19.6415585 42.4386139 19.5355792 42.3995248 19.4303159 42.3587723 19.3079049 42.3088713 19.1865668 42.2564752 19.0659263 42.202 18.9456085 42.1454455 18.8398329 42.1903564 18.6470024 42.2768515 18.5483983 42.3188515 18.4479607 42.3591881 18.3471784 42.3982772 18.2456767 42.435703 18.137881 42.4739604 18.0237918 42.5122178 17.908983 42.548396 17.793826 42.5829109 17.6783189 42.6157624 17.5620855 42.6465347 17.4458669 42.6752277 17.3289194 42.7022574 17.2119846 42.7276238 17.0946855 42.7509109 16.9770228 42.7725347 16.8593658 42.792495 16.7413407 42.8107921 16.6229418 42.8270099 16.5045417 42.8415644 16.3857625 42.8540396 16.2487937 42.8669307 16.0932442 42.8781584 15.9373028 42.8864752 15.7813408 42.892297 15.6398317 42.8947921 15.4986637 42.8947921 15.3444591 42.892297 15.1902097 42.8868911 15.0362821 42.8785743 14.8826776 42.8677624 14.7301216 42.8536238 14.5775148 42.8374059 14.4255823 42.8182772 14.273576 42.7962376 14.1214987 42.771703 13.9700815 42.7442574 13.8189562 42.7143168 13.6498168 42.6777228 13.4626174 42.6332277 13.2763815 42.5845743 13.0907293 42.5317624 12.9056619 42.4752079 12.7219164 42.4149109 12.5387315 42.3504554 12.3564819 42.2822574 12.1921024 42.2173861 12.0456339 42.1566733 11.8997778 42.0934653 11.7545306 42.0277624 11.6102616 41.9595644 11.4669795 41.8892871 11.3239358 41.8169307 11.1822347 41.7420792 11.0536541 41.671802 10.9378501 41.6065149 10.8226988 41.5399802 10.7085727 41.472198 10.5947108 41.4027525 10.4814982 41.3320594 10.3689205 41.259703 10.2569899 41.186099 10.1131685 41.0887921 10.0254763 41.0280792 9.93846521 40.9665347 9.85138652 40.9041584 9.76498815 40.8409505 9.67889539 40.7769109 9.59348227 40.7120396 9.50837391 40.6463366 9.36995431 40.5373861 9.23284903 40.4263564 9.09668172 40.3132475 8.96221685 40.1984752 8.85278371 40.1032475 8.7443542 40.0067723 8.63653633 39.9086337 8.52975351 39.8100792 8.42395732 39.7098614 8.31880412 39.6088119 8.21427714 39.5065149 8.1107522 39.4029703 8.00786971 39.2985941 7.90598916 39.1929703 7.80512782 39.0865149 7.70451472 38.9788119 7.60492085 38.8702772 7.50632894 38.760495 7.40837954 38.6498812 7.3110727 38.5384356 7.21478626 38.4261584 7.11952078 38.3130495 7.02450227 38.1986931 6.9305236 38.0839208 6.83754837 37.967901 6.74483854 37.8510495 6.65317026 37.7337822 6.56252548 37.6156832 6.47212752 37.4963366 6.38315218 37.3765743 6.29446288 37.256396 6.20677962 37.1349703 6.11976256 37.0131287 6.03341237 36.8908713 5.94770969 36.7677822 5.86303508 36.6438614 5.76712543 36.5016436 5.67224408 36.3590099 5.57835137 36.2151287 5.48548923 36.0708317 5.42345451 35.9731089 5.36216221 35.875802 5.30078771 35.7776634 5.24011471 35.6791089 5.17978313 35.5805545 5.12015409 35.4815842 5.06086741 35.3826139 5.00152002 35.2832277 4.94287624 35.1834257 4.8849367 35.0832079 4.82693681 34.9825743 4.76928073 34.8819406 4.71235174 34.7813069 4.65572404 34.6798416 4.59946329 34.5787921 4.54350422 34.4769109 4.4878909 34.3750297 4.4329852 34.2727327 4.37804252 34.1704356 4.32380831 34.0677228 4.2695152 33.9645941 4.21595369 33.8614653 4.16274035 33.7583366 4.10983049 33.6543762 4.05729202 33.5508317 4.00508017 33.4468713 3.95319518 33.342495 3.90166011 33.2381188 3.85045249 33.1333267 3.79959554 33.0285347 3.7490897 32.9237426 3.69929791 32.8185347 3.65206523 32.7183168 3.60482546 32.6185149 3.55830426 32.518297 3.51211609 32.4176634 3.46628462 32.3170297 3.42042383 32.216396 3.37489676 32.1153465 3.32972727 32.014297 3.28491577 31.9132475 3.24043898 31.8117822 3.19632091 31.7103168 3.1521747 31.6088515 3.10875134 31.5069703 3.0653003 31.4050891 3.02220929 31.3032079 2.97945469 31.2009109 2.90506586 31.022099 2.8313226 30.8424554 2.75866319 30.6628119 2.687041 30.4823366 2.61650684 30.3018614 2.54662434 30.1205545 2.4782232 29.9392475 2.410867 29.7571089 2.36380902 29.6286139 2.31786057 29.499703 2.27224219 29.3703762 2.22736991 29.2410495 2.18282893 29.1113069 2.13903576 28.9815644 2.09596631 28.8514059 2.05364673 28.7212475 2.01205285 28.5906733 1.97081922 28.460099 1.93031292 28.3291089 1.89056032 28.1981188 1.85156253 28.0671287 1.81326962 27.9353069 1.7757591 27.803901 1.73898101 27.6720792 1.69336559 27.5057426 1.64925568 27.3389901 1.6062604 27.1718218 1.56440751 27.0046535 1.52367328 26.8370693 1.48445391 26.6690693 1.44638357 26.5010693 1.40943841 26.3326535 1.37401536 26.1638218 1.33974803 25.9949901 1.30703395 25.8261584 1.27584986 25.6569109 1.24580262 25.4872475 1.21731658 25.3175842 1.18999822 25.1479208 1.16464287 24.9782574 1.14043422 24.8081782 1.11779766 24.638099 1.09670979 24.467604 1.07722598 24.2975248 1.05929655 24.1270297 1.04334867 23.9565347 1.02858938 23.7860396 1.01541934 23.6155446 1.00424016 23.4450495 0.99465643 23.2745545 0.986644739 23.1036436 0.980260534 22.9331485 0.97588009 22.7626535 0.97353325 22.5925743 0.972770882 22.4220792 0.973622127 22.2515842 0.977131056 22.0594653 0.982665757 21.8673465 0.991058869 21.6756436 1.00151296 21.4843564 1.00902476 21.3737426 1.0169756 21.2635446 1.02614373 21.1533465 1.03572633 21.0431485 1.04655438 20.9333663 1.0582008 20.8235842 1.07026394 20.713802 1.08357564 20.6044356 1.09713568 20.4988119 1.11191957 20.3931881 1.12714816 20.2879802 1.14319929 20.1827723 1.16007386 20.0775644 1.17820208 19.9727723 1.19677766 19.868396 1.21617919 19.7640198 1.23640752 19.6596436 1.25789332 19.5556832 1.2798291 19.4521386 1.30259415 19.3485941 1.32661943 19.2454653 1.35109656 19.1427525 1.37681031 19.0400396 1.40295186 18.9373267 1.43534946 18.8171485 1.46899625 18.6969703 1.50351333 18.5772079 1.53971297 18.4578614 1.57681021 18.3393465 1.61556791 18.2208317 1.65522535 18.1031485 1.69616471 17.9858812 1.73838724 17.8690297 1.78189423 17.7525941 1.82630462 17.6369901 1.87240853 17.521802 1.91980044 17.4070297 1.96809859 17.2930891 2.01768668 17.1795644 2.0689978 17.0668713 2.13169561 16.9317228 2.19657121 16.7978218 2.2636026 16.6647525 2.33199885 16.5329307 2.40214559 16.4019406 2.47445316 16.2717822 2.5481291 16.1428713 2.6239923 16.0152079 2.70120251 15.8883762 2.78060272 15.7627921 2.86137508 15.6384554 2.94431694 15.5149505 3.02865544 15.3931089 3.11518842 15.2725149 3.20307405 15.1527525 3.29276816 15.0346535 3.40194596 14.8953465 3.51378797 14.757703 3.62790631 14.6221386 3.74430124 14.4886535 3.86297295 14.3572475 3.98392154 14.2279208 4.10714701 14.1006733 4.23262841 13.9750891 4.35999534 13.852 4.49005067 13.7309901 4.62198984 13.6124752 4.75577111 13.4956238 4.89184677 13.3812673 5.0298026 13.2694059 5.1700305 13.1596238 5.3121357 13.0523366 5.40527464 12.9837228 5.49892896 12.9163564 5.59392487 12.8502376 5.68939712 12.7845347 5.78540139 12.720495 5.88229474 12.6568713 5.98011392 12.594495 6.07844416 12.5333663 6.17768052 12.4730693 6.27740843 12.413604 6.37805932 12.3553861 6.47921801 12.2984158 6.58086598 12.2422772 6.68343439 12.1873861 6.78649065 12.1333267 6.89005109 12.0805149 6.99165991 12.0297822 7.09376925 11.980297 7.1967763 11.9316436 7.29986712 11.8842376 7.40385413 11.8376634 7.50790669 11.7919208 7.61287014 11.7474257 7.71832833 11.7041782 7.82384914 11.6617624 7.9302623 11.6201782 8.03716726 11.5798416 8.14413218 11.5403366 8.25158668 11.5020792 8.35994509 11.4650693 8.46834564 11.4284752 8.5768317 11.3935446 8.72033053 11.3486337 8.86436006 11.305802 9.0089034 11.2646337 9.15395828 11.2251287 9.2999519 11.187703 9.44603618 11.1519406 9.59304067 11.1178416 9.74013104 11.0854059 9.88814977 11.0550495 10.0362366 11.0259406 10.1848305 10.9989109 10.3339285 10.9739604 10.4830874 10.9502574 10.6327334 10.9282178 10.7828755 10.9082574 10.9330829 10.8899604 11.0605202 10.8758218 11.1880024 10.8629307 11.3159444 10.8512871 11.4439281 10.8408911 11.5719416 10.8313267 11.7000042 10.8234257 11.8281037 10.8167723 11.9566451 10.8109505 12.0852302 10.8067921 12.2134215 10.8034653 12.34206 10.8013861 12.4707278 10.8005545 12.5994231 10.8009703"></polygon>
                <path d="M17.9748352,8.41372277 C11.4751648,7.68475248 8.85775824,4.44617822 7.70564835,0.260732673 C13.4741319,0.872435644 17.4486813,3.09510891 17.9748352,8.41372277 Z" id="Shape" fill="#3D9C64"></path>
            </g>
        </g>
    </g>
</svg>