<svg xmlns="http://www.w3.org/2000/svg" width="43" height="43" viewBox="0 0 43 43"><g fill="none" fill-rule="evenodd"><path fill="#BE7234" fill-rule="nonzero" d="M21.926 13.006c-.04-.001-.05-.001-.09-.004a1.072 1.072 0 0 1-.09-.012l-.044-.01c-.037-.008-.047-.01-.082-.02a1.08 1.08 0 0 1-.233-.103l-.071-.047a1.072 1.072 0 0 1-.21-.195v-.001a.965.965 0 0 1-.054-.072l-.048-.076v-.001l-.018-.033a1.14 1.14 0 0 1-.032-.069l-.017-.04a1.025 1.025 0 0 1-.047-.156c-.005-.02-.008-.041-.011-.062a1.41 1.41 0 0 1-.017-.23c0-.096.004-.193.01-.289a7.61 7.61 0 0 1 .097-.765c.092-.527.227-1.045.4-1.551a10.12 10.12 0 0 1 1.67-3.069 1.068 1.068 0 0 1 1.306-.245 1.064 1.064 0 0 1 .557.852 1.056 1.056 0 0 1-.195.696c-.018.025-.03.04-.049.063l-.057.075-.075.1c-.15.202-.289.411-.418.626a8.322 8.322 0 0 0-1.094 3.133 3.783 3.783 0 0 0-.026.28l-.002.027v.01l.004.033c.003.04.004.05.004.092a1.043 1.043 0 0 1-.275.715 1.04 1.04 0 0 1-.1.097c-.031.026-.04.032-.073.056-.032.022-.04.028-.073.047a1.104 1.104 0 0 1-.236.103l-.042.012a1.29 1.29 0 0 1-.178.03l-.046.002h-.045zm.899-1.631c-.015-.026-.015-.026-.035-.05l.01.012.025.038zm-.104-.135c-.059-.072-.06-.072-.136-.125l.026.02c.035.03.035.03.068.062.022.022.023.021.042.043z"/><path fill="#E6505E" d="M15.73 10.8l.13.01h.25l.12.01.12.01.12.01h.13l.12.01.12.02.12.01.12.01.13.01.12.02.12.02.12.01.12.02.12.02.12.02.12.02.13.02.12.03.12.02.12.03.12.02.11.03.12.03.12.03.12.03.12.03.12.03.12.03.11.04.12.03.12.04.18.05.18.06.18.06.17.06.18.07.18.06.17.07.18.07.16.07.16.07.16.07.16.07.13-.03.13-.06.19-.08.19-.08.2-.08.19-.08.19-.07.19-.07.2-.07.19-.06.19-.06.2-.06.19-.06.2-.06.13-.03.13-.03.13-.04.13-.03.13-.03.14-.03.13-.03.13-.02.13-.03.14-.02.13-.03.13-.02.14-.02.13-.02.14-.02.13-.02.14-.01.13-.02.13-.01.14-.01.13-.02.14-.01h.13l.14-.01.13-.01h.14l.13-.01h.55l.13.01h.14l.13.01h.13l.14.01.13.01.14.01.13.02.13.01.14.01.13.02.13.02.14.02.13.02.13.02.13.02.14.03.14.03.14.03.14.03.15.03.14.04.14.03.14.04.14.04.14.05.14.04.13.04.14.05.14.05.13.05.14.05.13.05.2.09.19.08.2.09.19.09.19.1.18.1.19.1.18.1.1.06.09.06.1.06.09.06.09.06.1.07.09.06.09.06.09.07.09.07.09.06.09.07.09.07.09.07.08.07.09.07.13.12.13.11.13.12.12.12.13.13.12.12.12.13.12.13.11.13.11.13.11.14.11.13.11.14.1.14.1.14.1.15.08.11.07.12.08.12.07.12.07.11.07.12.07.13.06.12.07.12.06.12.06.13.06.12.06.13.06.13.05.13.05.12.05.11.04.11.04.11.04.11.04.11.04.12.04.11.03.11.04.11.03.12.03.11.03.11.03.12.03.11.03.12.03.11.02.1.02.1.02.1.02.1.02.1.02.11.02.1.02.1.01.1.02.1.01.11.02.1.01.1.01.1.01.11.01.1.01.1.01.1.01.11.01.1.01.1v.11l.01.1v.1l.01.1v.19l.01.1v.56l-.01.16v.17l-.01.17-.01.17-.01.17-.01.17-.02.17-.01.17-.02.17-.02.17-.02.17-.02.17-.02.17-.03.17-.02.17-.03.16-.03.17-.03.17-.03.17-.04.17-.03.16-.04.17-.03.17-.04.17-.04.16-.04.17-.04.17-.05.16-.04.17-.05.16-.04.17-.04.11-.03.12-.04.12-.03.11-.04.12-.03.11-.04.12-.04.11-.04.12-.04.11-.03.12-.04.11-.04.12-.04.11-.05.11-.04.12-.04.12-.05.13-.05.12-.04.13-.05.12-.05.13-.05.12-.05.13-.04.1-.04.1-.05.1-.04.1-.04.1-.04.1-.05.1-.04.11-.06.14-.06.15-.07.14-.06.15-.07.14-.06.15-.07.14-.07.14-.07.15-.06.14-.07.14-.07.14-.07.15-.08.14-.07.14-.07.14-.06.12-.06.11-.06.12-.07.12-.06.11-.06.12-.07.11-.06.12-.06.11-.07.12-.07.11-.06.11-.07.12-.07.11-.06.11-.07.11-.07.12-.07.11-.07.11-.07.11-.07.11-.07.11-.08.11-.07.11-.07.1-.08.11-.07.11-.08.1-.07.11-.08.11-.07.1-.08.11-.11.14-.1.14-.11.13-.11.14-.11.14-.11.13-.11.13-.11.14-.12.13-.11.13-.12.13-.12.12-.12.13-.12.12-.12.13-.12.12-.14.13-.13.13-.15.13-.14.13-.14.13-.14.12-.15.12-.15.12-.15.12-.15.11-.15.12-.15.11-.15.1-.16.11-.16.1-.15.1-.16.09-.15.09-.16.09-.16.09-.16.08-.16.08-.16.08-.16.07-.18.08-.19.08-.18.07-.19.07-.19.06-.18.06-.19.06-.19.05-.21.05-.21.05-.21.04-.2.03-.21.03-.21.03-.21.02-.22.02-.21.01H25l-.21-.01-.21-.02-.21-.02-.21-.03-.11-.01-.11-.02-.11-.02-.11-.02-.11-.02-.11-.03-.11-.02-.1-.03-.11-.03-.11-.03-.11-.03-.11-.04-.1-.03-.11-.04-.1-.04-.11-.04-.12-.05-.12-.05-.12-.06-.12-.05-.11.04-.19.09-.1.04-.1.04-.1.04-.1.04-.11.03-.12.04-.11.04-.12.03-.11.04-.12.03-.11.03-.12.02-.12.03-.12.02-.11.02-.12.02-.12.02-.12.02-.12.01-.11.01-.14.02-.16.01-.15.01h-.75l-.15-.01-.16-.01-.15-.02-.15-.01-.15-.02-.16-.02-.15-.03-.15-.03-.15-.03-.17-.03-.19-.05-.18-.05-.19-.05-.18-.05-.19-.07-.18-.06-.18-.07-.17-.06-.14-.06-.15-.07-.15-.06-.14-.07-.14-.07-.15-.07-.14-.08-.13-.07-.11-.06-.12-.07-.11-.07-.12-.07-.11-.07-.11-.07-.11-.07-.15-.1-.08-.06-.09-.06-.09-.07-.09-.06-.08-.06-.09-.07-.08-.06-.14-.11-.14-.11-.13-.12-.14-.11-.11-.1-.11-.09-.1-.1-.11-.1-.11-.1-.1-.1-.11-.1-.1-.11-.1-.1-.1-.11-.1-.1-.11-.11-.1-.11-.09-.11-.1-.11-.1-.11-.1-.11-.09-.12-.1-.11-.09-.12-.09-.11-.1-.12-.09-.12-.09-.11-.09-.12-.09-.12-.09-.12-.08-.13-.09-.12-.09-.12-.08-.12-.09-.13-.09-.14-.1-.14-.09-.14-.09-.15-.07-.1-.06-.09-.06-.1-.06-.1-.06-.1-.06-.1-.06-.1-.06-.1-.06-.1-.06-.1-.05-.1-.06-.1-.06-.1-.05-.1-.06-.1-.06-.1-.05-.1-.06-.11-.05-.1-.06-.1-.05-.11-.05-.1-.06-.1-.05-.11-.05-.1-.05-.1-.06-.11-.05-.1-.05-.11-.05-.1-.05-.11-.05-.1-.05-.1-.05-.1-.04-.1-.05-.1-.04-.1-.05-.1-.05-.1-.04-.11-.05-.1-.04-.1-.04-.1-.05-.1-.04-.1-.04-.1-.05-.11-.04-.1-.07-.18-.08-.18-.07-.18-.07-.18-.07-.18-.07-.18-.07-.18-.07-.18-.05-.13-.04-.13-.05-.13-.04-.13-.05-.13-.04-.13-.04-.13-.05-.13-.04-.13-.04-.13-.04-.13-.04-.13-.04-.13-.04-.13-.03-.14-.04-.13-.05-.16-.04-.17-.04-.17-.05-.17-.04-.16-.04-.17-.03-.17-.04-.17-.04-.17-.03-.17-.03-.16-.03-.17-.03-.17-.03-.17-.03-.17-.03-.17-.02-.17-.02-.17-.02-.17-.02-.17-.02-.17-.02-.17-.01-.17-.01-.17-.02-.17-.01-.18v-.17l-.01-.17v-.17l-.01-.17v-.34l.01-.19v-.19l.01-.19.01-.2.01-.11.01-.11.01-.11.01-.11.01-.11.01-.11.01-.11.01-.11.02-.1.01-.11.02-.1.01-.11.02-.1.02-.11.02-.1.02-.11.02-.1.02-.1.02-.11.02-.1.03-.1.02-.11.03-.1.02-.1.04-.12.03-.12.03-.12.04-.12.04-.12.04-.12.04-.12.04-.11.04-.12.04-.12.05-.11.04-.12.05-.11.05-.12.05-.11.05-.11.06-.14.07-.13.06-.14.07-.13.07-.13.07-.13.08-.13.07-.12.08-.13.08-.13.08-.12.08-.13.09-.12.09-.12.08-.12.09-.12.11-.13.11-.14.12-.14.11-.13.12-.13.12-.13.13-.13.12-.12.13-.13.13-.12.13-.12.14-.11.13-.12.14-.11.14-.11.14-.11.1-.07.09-.06.09-.07.1-.07.1-.06.09-.06.1-.07.1-.06.1-.06.1-.06.1-.05.1-.06.1-.06.1-.05.11-.06.1-.05.1-.05.1-.05.11-.05.1-.05.1-.04.11-.05.1-.04.11-.05.1-.04.11-.04.11-.04.1-.04.11-.04.11-.03.11-.04.11-.04.14-.04.14-.04.15-.05.14-.03.15-.04.15-.04.14-.03.15-.03.15-.03.15-.03.14-.03.15-.03.15-.02.15-.02.15-.02.15-.02.13-.01.13-.02.13-.01.12-.01.13-.01.13-.01h.13l.13-.01h.13l.12-.01h.39z"/><path fill="#3D9C64" d="M20.975 8.414c-6.5-.73-9.117-3.968-10.27-8.153 5.77.611 9.744 2.834 10.27 8.153z"/></g></svg>