<svg xmlns="http://www.w3.org/2000/svg" width="50" height="43" viewBox="0 0 50 43">
  <g fill="none" fill-rule="evenodd" transform="translate(-6 -7)">
    <g transform="rotate(-15 35.692 1.213)">
      <path fill="#3D9C64" d="M16.503312,8.41372277 C10.184188,7.68475248 7.63948718,4.44617822 6.51938034,0.260732673 C12.1276282,0.872435644 15.9917735,3.09510891 16.503312,8.41372277 Z"/>
      <path fill="#BE7234" fill-rule="nonzero" d="M18.4205018,17.0416059 C18.5047351,17.5870525 18.1431305,18.0994599 17.6128352,18.1860999 C17.0825399,18.2727398 16.5843661,17.9008036 16.5001328,17.355357 C16.4864318,17.2666375 16.468378,17.1167875 16.4511376,16.9107699 C16.1706781,13.5593535 16.9316437,9.51660613 19.6085544,5.63712924 C19.6166219,5.62544393 19.6166219,5.62544393 19.6247069,5.6137589 C19.9361562,5.16387481 20.5432082,5.05886494 20.9805955,5.37921279 C21.4179828,5.69956065 21.5200758,6.32395701 21.2086265,6.7738411 C21.2014157,6.7842626 21.2014157,6.7842626 21.1942209,6.79468384 C18.8185868,10.2375396 18.1441663,13.820503 18.3884188,16.7392544 C18.4015827,16.89656 18.4139332,16.9990715 18.4205018,17.0416059 Z"/>
      <path fill="#E6505E" fill-rule="nonzero" d="M17.5,11.440869 L17.5,41.440869 C11.2717691,46.0418843 0.972222222,35.437878 0.972222222,22.440869 C0.972222222,8.87338856 12.4567923,8.60133553 17.5,11.440869 Z M17.5,11.440869 C22.5432077,8.60133553 34.5138889,8.87338856 34.5138889,22.440869 C34.5138889,35.437878 23.7282309,46.0418843 17.5,41.440869 L17.5,11.440869 Z"/>
    </g>
    <g transform="scale(-1 1) rotate(-15 29.777 238.181)">
      <path fill="#3D9C64" d="M15.0887424,7.64883888 C9.31125763,6.98613861 6.98467399,4.0419802 5.96057631,0.237029703 C11.0881172,0.793123312 14.6210501,2.81373537 15.0887424,7.64883888 Z"/>
      <path fill="#C6D645" fill-rule="nonzero" d="M16,10.40079 L16,37.6735173 C10.3056175,41.8562585 0.888888889,32.2162528 0.888888889,20.40079 C0.888888889,8.06671687 11.3890672,7.81939594 16,10.40079 Z M16,10.40079 C20.6109328,7.81939594 31.5555556,8.06671687 31.5555556,20.40079 C31.5555556,32.2162528 21.6943825,41.8562585 16,37.6735173 L16,10.40079 Z"/>
      <path fill="#BE7234" fill-rule="nonzero" d="M16.8416017,15.492369 C16.918615,15.9882296 16.588005,16.4540544 16.1031636,16.5328181 C15.6183222,16.6115817 15.162849,16.2734578 15.0858357,15.7775973 C15.0733091,15.6969432 15.0568027,15.5607159 15.0410401,15.3734272 C14.7846199,12.326685 15.4803599,8.65146012 17.9278212,5.12466294 C17.9351972,5.11403994 17.9351972,5.11403994 17.9425891,5.10341718 C18.2273428,4.69443164 18.7823618,4.59896812 19.1822588,4.89019345 C19.5821557,5.18141877 19.6754978,5.74905183 19.3907442,6.15803737 C19.3841515,6.16751145 19.3841515,6.16751145 19.3775734,6.17698531 C17.2055651,9.30685421 16.588952,12.5640936 16.8122686,15.217504 C16.8243042,15.3605091 16.8355961,15.4537014 16.8416017,15.492369 Z"/>
      <path fill="#FAF0B8" fill-rule="nonzero" d="M16,15.4545455 C18.372587,8.11250339 32,6.83755615 32,20.7240336 C32,31.5493206 21.2362199,43.1308923 16,34.5454545 C16,31.8250495 16,20.8351622 16,15.4545455 Z M16,15.3973942 C16,20.778011 16,31.7678983 16,34.4883033 C10.7637801,43.073741 4.08942567e-13,31.4921694 4.08562073e-13,20.6668823 C4.08562073e-13,6.78040494 13.627413,8.05535219 16,15.3973942 Z"/>
      <g fill="#BE7234" transform="translate(11.556 21.818)">
        <path d="M7.54585372,4.57494261 C6.26251192,5.23869448 5.33333333,1.71280388 5.33333333,2.22044605e-14 C8.52038683,0.350697925 8.82919553,3.91119074 7.54585372,4.57494261 Z"/>
        <path d="M2.84825648,4.57494261 C1.56491467,5.23869448 0.635736089,1.71280388 0.635736089,2.22044605e-14 C3.82278959,0.350697925 4.13159829,3.91119074 2.84825648,4.57494261 Z" transform="matrix(-1 0 0 1 4.191 0)"/>
      </g>
    </g>
  </g>
</svg>
