<svg xmlns="http://www.w3.org/2000/svg" width="40" height="40" viewBox="0 0 40 40">
  <g fill="none" fill-rule="evenodd" stroke="#FFF" stroke-width="4" transform="translate(10 4)">
    <rect width="20" height="20" y="6" rx="6"/>
    <path d="M3,26 L17,26 L17,30 C17,31.1045695 16.1045695,32 15,32 L5,32 C3.8954305,32 3,31.1045695 3,30 L3,26 L3,26 Z"/>
    <path d="M3,0 L17,0 L17,4 C17,5.1045695 16.1045695,6 15,6 L5,6 C3.8954305,6 3,5.1045695 3,4 L3,0 L3,0 Z" transform="rotate(-180 10 3)"/>
    <line x1="22.5" x2="22.5" y1="11.5" y2="14.5" stroke-linecap="round" stroke-linejoin="round"/>
  </g>
</svg>
