<?xml version="1.0" standalone="no"?><!DOCTYPE svg PUBLIC "-//W3C//DTD SVG 1.1//EN" "http://www.w3.org/Graphics/SVG/1.1/DTD/svg11.dtd"><svg width="100%" height="100%" viewBox="0 0 100 40" version="1.1" xmlns="http://www.w3.org/2000/svg" xmlns:xlink="http://www.w3.org/1999/xlink" xml:space="preserve" style="fill-rule:evenodd;clip-rule:evenodd;stroke-linejoin:round;stroke-miterlimit:1.41421;"><g id="arrow Canvas"><path id="arrow" d="M50,38.906c-0.133,-0.005 -0.266,-0.005 -0.399,-0.016c-0.397,-0.031 -0.791,-0.111 -1.17,-0.236c-0.253,-0.084 -0.498,-0.187 -0.735,-0.31c-0.118,-0.061 -0.231,-0.132 -0.346,-0.198l-44.5,-27.812c-0.114,-0.078 -0.231,-0.151 -0.341,-0.234c-0.221,-0.165 -0.428,-0.347 -0.619,-0.547c-0.669,-0.697 -1.126,-1.587 -1.304,-2.537c-0.153,-0.814 -0.1,-1.662 0.153,-2.45c0.211,-0.657 0.558,-1.267 1.015,-1.784c0.274,-0.31 0.586,-0.585 0.928,-0.818c0.455,-0.311 0.962,-0.546 1.493,-0.692c0.532,-0.146 1.087,-0.203 1.638,-0.168c0.55,0.034 1.094,0.16 1.603,0.371c0.34,0.141 0.415,0.197 0.734,0.379l41.85,26.156l41.85,-26.156l0.359,-0.205c0.333,-0.154 0.413,-0.204 0.763,-0.316c0.525,-0.169 1.077,-0.249 1.629,-0.238c0.413,0.008 0.825,0.068 1.224,0.177c0.664,0.183 1.289,0.504 1.825,0.939c0.643,0.521 1.151,1.202 1.468,1.967c0.212,0.509 0.338,1.053 0.372,1.603c0.035,0.55 -0.023,1.106 -0.169,1.637c-0.256,0.933 -0.785,1.781 -1.509,2.422c-0.276,0.243 -0.359,0.287 -0.662,0.494l-44.5,27.812c-0.115,0.066 -0.228,0.137 -0.346,0.198c-0.237,0.123 -0.482,0.226 -0.735,0.31c-0.253,0.083 -0.512,0.146 -0.774,0.189c-0.132,0.021 -0.264,0.031 -0.396,0.047c-0.133,0.006 -0.266,0.011 -0.399,0.016Z" style="fill:#fff;fill-opacity:0.4;fill-rule:nonzero;"/></g></svg>