<svg xmlns="http://www.w3.org/2000/svg" fill-rule="evenodd" stroke-linejoin="round" stroke-miterlimit="1.41" clip-rule="evenodd" viewBox="0 0 100 40" width="100" height="40"><path fill="#fff" fill-opacity=".4" fill-rule="nonzero" d="M50 38.906c-.133-.005-.266-.005-.399-.016a4.98 4.98 0 0 1-1.905-.546c-.118-.061-.231-.132-.346-.198L2.85 10.334c-.114-.078-.231-.151-.341-.234A5.014 5.014 0 0 1 .586 7.016a5.014 5.014 0 0 1 .153-2.45 5.014 5.014 0 0 1 1.943-2.602 5.003 5.003 0 0 1 3.131-.86c.55.034 1.094.16 1.603.371.34.141.415.197.734.379L50 28.01 91.85 1.854l.359-.205c.333-.154.413-.204.763-.316a4.998 4.998 0 0 1 6.146 2.845 4.976 4.976 0 0 1 .203 3.24 5.024 5.024 0 0 1-1.509 2.422c-.276.243-.359.287-.662.494l-44.5 27.812c-.115.066-.228.137-.346.198a5.04 5.04 0 0 1-1.509.499c-.132.021-.264.031-.396.047l-.399.016z"/></svg>