<?xml version="1.0" encoding="UTF-8" standalone="no"?><!DOCTYPE svg PUBLIC "-//W3C//DTD SVG 1.1//EN" "http://www.w3.org/Graphics/SVG/1.1/DTD/svg11.dtd"><svg width="100%" height="100%" viewBox="0 0 1280 720" version="1.1" xmlns="http://www.w3.org/2000/svg" xmlns:xlink="http://www.w3.org/1999/xlink" xml:space="preserve" xmlns:serif="http://www.serif.com/" style="fill-rule:evenodd;clip-rule:evenodd;stroke-linejoin:round;stroke-miterlimit:2;"><g id="Autodazzler"><path d="M242.441,377.336l10.913,0l-5.493,-45.337l-5.42,45.337Zm-34.057,41.382l22.046,-121.436l34.57,0l21.826,121.436l-27.173,0l-3.808,-24.243l-15.747,0l-3.662,24.243l-28.052,0Z" style="fill:#fff;fill-rule:nonzero;"/><path d="M335.312,420.622c-7.031,0 -12.939,-0.793 -17.724,-2.38c-4.785,-1.587 -8.594,-4.053 -11.426,-7.398c-2.832,-3.344 -4.846,-7.336 -6.042,-11.975c-1.197,-4.639 -1.795,-10.254 -1.795,-16.846l0,-84.741l29.59,0l0,89.722c0,1.66 0.073,3.076 0.22,4.248c0.146,1.172 0.439,2.454 0.879,3.845c0.439,1.392 1.196,2.466 2.27,3.223c1.074,0.757 2.417,1.135 4.028,1.135c1.612,0 2.955,-0.378 4.029,-1.135c1.074,-0.757 1.831,-1.831 2.27,-3.223c0.44,-1.391 0.721,-2.673 0.843,-3.845c0.122,-1.172 0.183,-2.588 0.183,-4.248l0,-89.722l29.663,0l0,84.741c0,6.592 -0.611,12.207 -1.831,16.846c-1.221,4.639 -3.235,8.631 -6.043,11.975c-2.807,3.345 -6.616,5.811 -11.426,7.398c-4.809,1.587 -10.705,2.38 -17.688,2.38Z" style="fill:#fff;fill-rule:nonzero;"/><path d="M400.059,418.718l0,-99.463l-17.725,0l0,-21.973l65.112,0l0,21.973l-17.651,0l0,99.463l-29.736,0Z" style="fill:#fff;fill-rule:nonzero;"/><path d="M511.973,417.985c-4.883,1.758 -10.791,2.637 -17.725,2.637c-6.934,0 -12.842,-0.891 -17.725,-2.673c-4.882,-1.782 -8.764,-4.444 -11.645,-7.984c-2.881,-3.54 -4.956,-7.715 -6.226,-12.524c-1.269,-4.81 -1.904,-10.486 -1.904,-17.029l0,-44.824c0,-6.543 0.635,-12.219 1.904,-17.029c1.27,-4.809 3.345,-8.984 6.226,-12.524c2.881,-3.54 6.763,-6.202 11.645,-7.984c4.883,-1.782 10.791,-2.673 17.725,-2.673c6.934,0 12.854,0.891 17.761,2.673c4.908,1.782 8.814,4.444 11.719,7.984c2.905,3.54 5.005,7.715 6.299,12.524c1.294,4.81 1.941,10.486 1.941,17.029l0,44.824c0,6.543 -0.647,12.219 -1.941,17.029c-1.294,4.809 -3.394,8.984 -6.299,12.524c-2.905,3.54 -6.824,6.214 -11.755,8.02Zm-17.725,-17.944c1.611,0 2.93,-0.354 3.955,-1.062c1.026,-0.708 1.758,-1.746 2.197,-3.113c0.44,-1.367 0.721,-2.612 0.843,-3.735c0.122,-1.123 0.183,-2.515 0.183,-4.175l0,-59.985c0,-1.66 -0.061,-3.052 -0.183,-4.175c-0.122,-1.123 -0.403,-2.356 -0.843,-3.699c-0.439,-1.343 -1.171,-2.368 -2.197,-3.076c-1.025,-0.708 -2.344,-1.062 -3.955,-1.062c-1.318,0 -2.441,0.269 -3.369,0.806c-0.928,0.537 -1.624,1.159 -2.087,1.867c-0.464,0.708 -0.818,1.685 -1.063,2.93c-0.244,1.245 -0.378,2.271 -0.402,3.076c-0.025,0.806 -0.037,1.917 -0.037,3.333l0,59.985c0,1.367 0.012,2.466 0.037,3.296c0.024,0.83 0.158,1.868 0.402,3.113c0.245,1.245 0.599,2.221 1.063,2.929c0.463,0.708 1.159,1.343 2.087,1.905c0.928,0.561 2.051,0.842 3.369,0.842Z" style="fill:#fff;fill-rule:nonzero;"/><path d="M548.081,418.718l0,-121.436l32.007,0c8.349,0 15.222,0.696 20.618,2.088c5.395,1.391 9.704,3.698 12.927,6.921c3.222,3.223 5.481,7.19 6.775,11.902c1.294,4.712 1.941,10.657 1.941,17.834l0,43.799c0,7.227 -0.647,13.196 -1.941,17.908c-1.294,4.712 -3.553,8.691 -6.775,11.938c-3.223,3.247 -7.532,5.567 -12.927,6.958c-5.396,1.392 -12.244,2.088 -20.545,2.088l-32.08,0Zm29.736,-20.508l2.784,0c2.539,0 4.553,-0.208 6.042,-0.623c1.489,-0.415 2.612,-1.159 3.369,-2.233c0.757,-1.075 1.245,-2.259 1.465,-3.553c0.22,-1.294 0.33,-3.113 0.33,-5.456l0,-56.983c0,-2.343 -0.11,-4.15 -0.33,-5.42c-0.22,-1.269 -0.708,-2.417 -1.465,-3.442c-0.757,-1.025 -1.88,-1.733 -3.369,-2.124c-1.489,-0.391 -3.503,-0.586 -6.042,-0.586l-2.784,0l0,80.42Z" style="fill:#fff;fill-rule:nonzero;"/><path d="M667.1,377.336l10.913,0l-5.493,-45.337l-5.42,45.337Zm-34.058,41.382l22.046,-121.436l34.57,0l21.826,121.436l-27.172,0l-3.809,-24.243l-15.747,0l-3.662,24.243l-28.052,0Z" style="fill:#fff;fill-rule:nonzero;"/><path d="M719.028,418.718l0,-17.359l27.832,-84.155l-26.88,0l0,-19.922l55.738,0l0,17.285l-28.052,84.302l28.418,0l0,19.849l-57.056,0Z" style="fill:#fff;fill-rule:nonzero;"/><path d="M784.507,418.718l0,-17.359l27.832,-84.155l-26.88,0l0,-19.922l55.737,0l0,17.285l-28.051,84.302l28.417,0l0,19.849l-57.055,0Z" style="fill:#fff;fill-rule:nonzero;"/><path d="M854.673,418.718l0,-121.436l29.736,0l0,101.587l27.027,0l0,19.849l-56.763,0Z" style="fill:#fff;fill-rule:nonzero;"/><path d="M923.081,418.718l0,-121.436l56.836,0l0,19.922l-27.1,0l0,27.1l20.215,0l0,20.654l-20.215,0l0,33.911l27.393,0l0,19.849l-57.129,0Z" style="fill:#fff;fill-rule:nonzero;"/><path d="M1021.74,348.698l7.764,0c4.883,0 8.264,-1.404 10.144,-4.211c1.88,-2.808 2.82,-6.799 2.82,-11.975c0,-4.981 -0.891,-8.826 -2.674,-11.536c-1.782,-2.71 -4.724,-4.065 -8.825,-4.065l-9.229,0l0,31.787Zm-29.736,70.02l0,-121.436l36.255,0c5.176,0 9.753,0.269 13.733,0.806c3.979,0.537 7.788,1.514 11.426,2.93c3.637,1.416 6.616,3.308 8.935,5.676c2.319,2.368 4.163,5.444 5.53,9.228c1.367,3.785 2.051,8.24 2.051,13.367c0,8.154 -1.026,14.649 -3.077,19.482c-2.05,4.834 -5.981,8.765 -11.792,11.792l16.553,58.155l-31.128,0l-12.597,-53.687l-6.153,0l0,53.687l-29.736,0Z" style="fill:#fff;fill-rule:nonzero;"/></g></svg>