<svg xmlns="http://www.w3.org/2000/svg" width="40" height="40" viewBox="0 0 40 40">
  <path fill="#0089D6" d="M18.5049924,34.2910838 C23.6440636,33.3534386 27.8886429,32.5775373 27.9373927,32.5668595 L28.0260295,32.5474446 L23.1742396,26.5868457 C20.5057573,23.3085157 18.3224522,20.6135349 18.3224522,20.5979996 C18.3224522,20.5685867 23.332335,6.31932527 23.3604989,6.26859579 C23.3699154,6.25168216 26.7792928,12.3312079 31.6250534,21.0058031 C36.1617432,29.1271146 39.9020239,35.8231651 39.9367887,35.8859123 L40,36 L24.5806118,35.9979458 L9.16122651,35.9958999 L18.5049924,34.2910897 L18.5049924,34.2910838 Z M0,32.4733883 C0,32.4649961 2.28613985,28.3660914 5.08031069,23.3647078 L10.1606206,14.2712839 L16.0811345,9.13958849 C19.3374171,6.31715665 22.0104173,4.00444351 22.0211339,4.00010975 C22.0318505,3.99600869 21.9890148,4.10736159 21.9259434,4.24767815 C21.862872,4.38799471 18.9698918,10.7969371 15.4970986,18.4897718 L9.18293053,32.4767436 L4.59146527,32.4826891 C2.06615994,32.4859625 0,32.4817706 0,32.473385 L0,32.4733883 Z"/>
</svg>
