<?xml version="1.0" encoding="UTF-8"?>
<svg width="40px" height="40px" viewBox="0 0 40 40" version="1.1" xmlns="http://www.w3.org/2000/svg" xmlns:xlink="http://www.w3.org/1999/xlink">
    <!-- Generator: Sketch 42 (36781) - http://www.bohemiancoding.com/sketch -->
    <title>bluetooth-icon</title>
    <desc>Created with Sketch.</desc>
    <defs></defs>
    <g id="Page-1" stroke="none" stroke-width="1" fill="none" fill-rule="evenodd">
        <g id="bluetooth-icon" fill-rule="nonzero">
            <g id="Group-8" transform="translate(6.000000, 0.500000)">
                <path d="M0.0233410747,19.6728325 C0.0233410747,19.6728325 -1.14210423,0 13.6924646,0 C29.9157911,0 27.832098,20.3511628 27.832098,20.3511628 C27.832098,20.3511628 29.4453026,39.119562 12.9975292,38.6673562 C-1.14210423,38.4412533 0.0233410747,19.6728325 0.0233410747,19.6728325" id="path1929" fill="#0071BB"></path>
                <path d="M22.4988813,26.0042108 L15.8883918,19.2206266 L22.3866686,12.6627567 L12.5270193,2.71329976 L12.5270193,15.8286294 L7.08197506,10.4016843 L5.1101094,12.4366537 L11.9442966,19.4467296 L5.1101094,26.2303137 L7.19380251,28.2652831 L12.5270193,23.064441 L12.5270193,36.1797922 L22.4988813,26.0042108 Z M15.3056691,9.49725107 L18.5548075,12.6627567 L15.3056691,15.8286294 L15.3056691,9.49725107 Z M18.4429587,26.0042108 L15.4402473,29.3962081 L15.3056691,22.8383381 L18.4429587,26.0042108 L18.4429587,26.0042108 Z" id="path1941" fill="#FFFFFF"></path>
            </g>
        </g>
    </g>
</svg>