<svg xmlns="http://www.w3.org/2000/svg" width="40" height="40" viewBox="0 0 40 40">
  <g fill="none" fill-rule="evenodd">
    <path fill="#0071BB" fill-rule="nonzero" d="M6.02340868,20.3466113 C6.02340868,20.3466113 4.85458772,0 19.7321242,0 C36.0024408,0 33.9127124,21.0481739 33.9127124,21.0481739 C33.9127124,21.0481739 35.5305895,40.4593758 19.035176,39.9916823 C4.85458772,39.7578355 6.02340868,20.3466113 6.02340868,20.3466113"/>
    <path fill="#FFF" fill-rule="nonzero" d="M28.8346378,26.8881139 L22.0546486,19.9305917 L28.7195479,13.2045712 L18.607087,3 L18.607087,16.4516201 L13.0224263,10.8855226 L11,12.9726708 L18.0094228,20.1624921 L11,27.1200143 L13.1371211,29.2071624 L18.607087,23.8729654 L18.607087,37.3246076 L28.8346378,26.8881139 Z M21.4569843,9.95789878 L24.789434,13.2045712 L21.4569843,16.4516201 L21.4569843,9.95789878 Z M24.6747172,26.8881139 L21.5950132,30.3670854 L21.4569843,23.6410649 L24.6747172,26.8881139 L24.6747172,26.8881139 Z"/>
  </g>
</svg>
