<svg xmlns="http://www.w3.org/2000/svg" width="40" height="40" viewBox="0 0 40 40"><g fill="none"><path fill="#0071BB" d="M6.023 20.173S4.858.5 19.693.5c16.223 0 14.14 20.351 14.14 20.351s1.612 18.769-14.835 18.316C4.858 38.941 6.023 20.173 6.023 20.173"/><path fill="#FFF" d="M28.499 26.504l-6.61-6.783 6.498-6.558-9.86-9.95V16.33l-5.445-5.427-1.972 2.035 6.834 7.01-6.834 6.783 2.084 2.035 5.333-5.2V36.68l9.972-10.176zM21.306 9.997l3.249 3.166-3.25 3.166V9.997zm3.137 16.507l-3.003 3.392-.134-6.558 3.137 3.166z"/></g></svg>