<svg xmlns="http://www.w3.org/2000/svg" width="154" height="154" viewBox="0 0 154 154"><g fill="none" fill-rule="evenodd"><path fill="#FCFAF8" d="M0 0h154v154H0z"/><path stroke="#539A9C" stroke-linecap="round" stroke-linejoin="round" stroke-width="3" d="M78.618 101.784c3.924 6.947 10.712 3.785 16.97 13.297 2.823 4.293 6.215-12.892.247-23.456-2.529-4.478-7.872-4.839-12.628-2.036-4.752 2.804-7.118 7.716-4.589 12.195zM62.986 38.805a23509.32 23509.32 0 0 1 22.653 47.478c.907 1.865 1.255 1.603-.897 2.803-1.174.655-2.37 1.287-3.5 1.985-.827.523-1.283.416-1.801-.451-2.702-4.443-5.47-8.821-8.193-13.243-6.528-10.664-13.1-21.352-19.584-32.035-2.365-3.895.178-6.084 3.01-7.661 2.899-1.614 6.629-2.498 8.312 1.124z"/></g></svg>