<svg xmlns="http://www.w3.org/2000/svg" width="40" height="40" viewBox="0 0 40 40">
  <g fill="none">
    <circle cx="20" cy="20" r="20" fill="#05930C"/>
    <path fill="#FFF" d="M6.1375,5.625 L34.375,33.8625 C34.2072982,34.0506943 34.036525,34.2352091 33.8628004,34.4160072 C30.2674787,37.874148 25.381999,40 20,40 C8.954305,40 0,31.045695 0,20 C0,14.618001 2.12585196,9.7325213 5.58366589,6.13745092 L5.84378739,5.8919813 L6.1375,5.625 Z" opacity=".1"/>
    <path fill="#FFF" d="M19.01875 27.21875C17.6581807 27.8807343 16.1558307 28.198374 14.64375 28.14375 12.6221358 28.2323456 10.6606504 27.4441064 9.2625 25.98125 7.87324154 24.4239403 7.14864691 22.3847561 7.24375 20.3 7.14596145 18.0408154 7.96658328 15.8382123 9.51875 14.19375 11.0360518 12.641427 13.1368612 11.7997421 15.30625 11.875 16.5735098 11.8266373 17.8371782 12.0393761 19.01875 12.5L19.01875 14.46875C17.8727308 13.8317906 16.5797538 13.5063914 15.26875 13.525 13.6173257 13.4702587 12.0226268 14.1309197 10.89375 15.3375 9.7234327 16.6715943 9.11822469 18.4087654 9.20625 20.18125 9.11967744 21.8563542 9.68400773 23.5000781 10.78125 24.76875 11.845818 25.9133458 13.3568195 26.5364627 14.91875 26.475 16.3589973 26.5107912 17.7807888 26.145064 19.025 25.41875L19.01875 27.21875zM32.975 16.5375L32.725 17.7 29.85 17.7 29.1625 21 32.25 21 31.95625 22.1625 28.93125 22.1625 27.9625 26.5375 26.58125 26.5375 27.525 22.1625 24.775 22.1625 23.85 26.5375 22.5 26.5375 23.425 22.1625 20.525 22.1625 20.74375 21 23.65625 21 24.325 17.70625 21.28125 17.70625 21.5125 16.54375 24.55625 16.54375 25.48125 12.125 26.875 12.125 25.95 16.54375 28.71875 16.54375 29.6625 12.125 31.0125 12.125 30.0875 16.54375 32.975 16.5375zM28.49375 17.7L25.71875 17.7 25 21 27.7875 21 28.49375 17.7z"/>
  </g>
</svg>
