<?xml version="1.0" encoding="UTF-8"?>
<svg width="60px" height="60px" viewBox="0 0 60 60" version="1.1" xmlns="http://www.w3.org/2000/svg" xmlns:xlink="http://www.w3.org/1999/xlink">
    <!-- Generator: Sketch 42 (36781) - http://www.bohemiancoding.com/sketch -->
    <title>close-icon</title>
    <desc>Created with Sketch.</desc>
    <defs></defs>
    <g id="Page-1" stroke="none" stroke-width="1" fill="none" fill-rule="evenodd">
        <g id="Desktop-HD" transform="translate(-63.000000, -58.000000)" fill-rule="nonzero" fill="#000000">
            <path d="M93,80.9289322 L71.9665684,59.8955006 C70.0139469,57.9428791 66.848122,57.9428791 64.8955006,59.8955006 C62.9428791,61.848122 62.9428791,65.0139469 64.8955006,66.9665684 L85.9289322,88 L64.7784289,109.150503 C62.8258074,111.103125 62.8258074,114.26895 64.7784289,116.221571 C66.7310504,118.174193 69.8968753,118.174193 71.8494967,116.221571 L93,95.0710678 L114.150503,116.221571 C116.103125,118.174193 119.26895,118.174193 121.221571,116.221571 C123.174193,114.26895 123.174193,111.103125 121.221571,109.150503 L100.071068,88 L121.104499,66.9665684 C123.057121,65.0139469 123.057121,61.848122 121.104499,59.8955006 C119.151878,57.9428791 115.986053,57.9428791 114.033432,59.8955006 L93,80.9289322 L93,80.9289322 Z" id="close-icon"></path>
        </g>
    </g>
</svg>