<svg xmlns="http://www.w3.org/2000/svg" xml:space="preserve" style="fill-rule:evenodd;clip-rule:evenodd;stroke-linejoin:round;stroke-miterlimit:2" viewBox="0 0 5334 3009"><path d="M1965.14 2074.41c10.57 0 17.531 7.658 17.531 16.939 0 3.869-.998 8.895-6.588 14.417l-.038.038c-18.098 17.425-42.198 27.141-72.838 27.141-69.824 0-115.541-48.05-115.541-112.489 0-64.444 45.717-112.493 115.541-112.493 24.607 0 51.521 8.773 70.093 25.746.04.037.08.075.119.114 4.979 4.924 7.027 9.384 7.027 14.855 0 9.79-8.073 17.38-17.981 17.38-4.711 0-8.57-.694-17.991-9.49l-.008-.008c-8.329-7.818-22.493-15.169-40.809-15.169-46.077 0-75.579 34.356-75.579 79.065 0 44.278 29.065 78.62 75.129 78.62 20.6 0 34.898-6.623 47.08-17.831l.036-.033c5.993-5.388 10.454-6.802 14.817-6.802Zm156.589 58.535c-67.054 0-115.108-48.045-115.108-112.489 0-64.449 48.054-112.493 115.108-112.493 67.515 0 115.541 48.049 115.541 112.493 0 64.439-48.026 112.489-115.541 112.489Zm0-191.554c-45.646 0-74.697 35.198-74.697 79.065 0 43.855 29.058 78.62 74.697 78.62 46.071 0 75.129-34.759 75.129-78.62 0-43.873-29.051-79.065-75.129-79.065Zm190.077-1.123c14.476-19.387 38.936-32.305 65.814-32.305 22.333 0 49.126 7.628 64.593 38.483 15.516-24.928 40.545-38.483 72.636-38.483 27.919 0 48.74 9.082 62.642 24.737 13.801 15.539 20.821 37.708 20.821 64.415v113.171c0 7.013-2.197 11.607-5.035 14.66-4.364 4.693-10.528 5.804-14.271 5.804-3.76 0-9.928-1.112-14.292-5.803-2.841-3.053-5.039-7.648-5.039-14.661v-100.838c0-24.553-4.705-44.393-16.749-56.261-7.767-7.653-18.6-11.796-32.984-11.796-41.027 0-55.083 36.454-55.083 72.461v96.434c0 7.013-2.199 11.609-5.04 14.661-4.366 4.692-10.534 5.803-14.283 5.803-3.748 0-9.914-1.111-14.277-5.804-2.839-3.052-5.037-7.647-5.037-14.66v-107.007c0-22.676-2.932-40.678-13.854-51.365-7.067-6.915-17.475-10.523-32.322-10.523-27.279 0-56.424 24.562-56.424 76.425v92.47c0 7.013-2.197 11.608-5.036 14.66-4.364 4.693-10.529 5.804-14.278 5.804-3.749 0-9.914-1.111-14.278-5.804-2.839-3.052-5.037-7.647-5.037-14.66V1962.77c0-7.89-.44-21.04-.888-32.866l-.001-.016c-.229-6.733 1.884-11.17 4.673-14.133 4.224-4.488 10.314-5.593 13.748-5.593 3.789 0 9.583.952 13.779 5.4 2.705 2.868 4.863 7.237 5.09 14.027l.412 10.679Zm362.548 1.599c19.128-22.258 47.897-33.904 75.579-33.904 67.556 0 111.984 49.381 111.984 112.494 0 63.107-44.427 112.489-111.984 112.489-27.687 0-56.459-11.654-75.579-33.283v10.624c0 7.013-2.198 11.607-5.037 14.66-4.364 4.692-10.529 5.803-14.278 5.803-3.749 0-9.912-1.111-14.273-5.804-2.837-3.052-5.033-7.647-5.033-14.659v-306.484c0-7.015 2.196-11.61 5.033-14.662 4.361-4.693 10.524-5.803 14.273-5.803 3.749 0 9.914 1.11 14.278 5.802 2.839 3.052 5.037 7.647 5.037 14.663v138.064Zm72.463-.475c-44.4 0-76.03 34.349-76.03 79.065 0 44.709 31.637 78.619 76.03 78.619 47.756 0 74.696-35.182 74.696-78.619 0-43.45-26.932-79.065-74.696-79.065ZM2979 2081.315l60.406-156.573c4.467-12.091 12.468-14.58 18.593-14.58 11.413 0 19.756 8.118 19.756 18.254 0 2.098-.465 5.234-2.055 9.411-.013.033-.025.065-.039.097l-98.459 240.43c-13.629 33.458-31.269 54.989-69.338 54.989-5.676 0-13.708-.502-18.906-1.902l-.076-.021c-9.776-2.831-14.139-9.254-14.139-17.216 0-9.324 7.051-16.929 17.073-16.929 2.42 0 4.835.445 7.784.928 3.232.394 4.877.392 6.922.392 18.317 0 27.625-12.556 35.76-33.873a.534.534 0 0 1 .014-.036l16.293-41.524-82.152-184.24c-.031-.07-.06-.14-.087-.211-1.578-4.136-2.065-7.262-2.065-9.845 0-10.679 8.96-18.704 19.764-18.704 6.081 0 14.02 1.934 19.002 14.476L2979 2081.315Zm169.793-140.979c14.948-19.394 42.032-32.373 68.486-32.373 27.923 0 48.744 9.083 62.645 24.737 13.8 15.54 20.818 37.708 20.818 64.415v113.171c0 7.012-2.196 11.607-5.032 14.659-4.362 4.693-10.525 5.805-14.274 5.805-3.749 0-9.914-1.111-14.278-5.804-2.839-3.052-5.036-7.647-5.036-14.66v-100.838c0-24.526-4.052-44.355-16.511-56.21-8.106-7.714-19.76-11.847-35.906-11.847-30.247 0-59.09 24.521-59.09 76.425v92.47c0 7.013-2.198 11.608-5.037 14.66-4.364 4.693-10.529 5.804-14.278 5.804-3.754 0-9.921-1.112-14.285-5.803-2.839-3.053-5.037-7.648-5.037-14.661V1962.77c0-7.865-.445-25.78-.883-32.763a2.43 2.43 0 0 1-.006-.122c-.225-6.731 1.886-11.167 4.673-14.129 4.222-4.488 10.306-5.594 13.747-5.594 3.789 0 9.588.952 13.782 5.401 2.704 2.868 4.86 7.238 5.08 14.028l.422 10.745Zm227.92 101.194c8.094 36.389 41.902 61.36 80.483 56.003 27.205-3.78 43.376-19.118 52.912-33.099 4.22-6.195 9.078-8.419 13.536-9.038 9.236-1.282 18.696 3.893 20.229 14.715.556 3.847.166 8.433-3.59 14.002l-.017.025c-18.182 26.534-45.341 42.354-78.324 46.937-63.684 8.842-117.644-32.134-126.723-95.98-9.077-63.896 31.452-117.98 92.418-126.451 31.009-4.307 58.182 2.547 78.739 18.212 20.54 15.653 34.536 40.159 38.987 71.458.903 6.372-.304 11.407-3.272 15.137-2.892 3.636-7.608 6.164-14.43 7.113l-150.948 20.966Zm127.902-50.191c-3.838-16.074-11.686-29.427-23.149-38.345-12.419-9.661-29.04-14.036-49.141-11.243-36.15 5.022-59.307 36.139-59.426 67.882l131.716-18.294Z" style="fill:#fff"/><path d="M2666.77 840.91c151.176 0 276.847 101.311 276.847 253.884 0 82.887-47.935 175.598-94.64 208.138-41.48 36.837-7.988 54.334 43.941 54.334 15.977 0 33.802-1.836 51.93-4.909 38.716-7.061 78.045-34.995 101.706-34.995 8.298 0 14.746 3.376 18.438 11.97 35.025 79.511-116.15 126.784-205.869 126.784-16.285 0-30.728-1.533-41.486-4.909h-.303c-5.843 0 45.165 66.002 150.254 81.663 47.008 7.06 37.789 53.413 18.431 70.91-11.982 10.746-41.481 18.116-78.046 18.116-96.173 0-241.203-50.044-241.203-217.041 0 166.997-144.72 217.041-241.203 217.041-36.565 0-66.063-7.37-78.045-18.116-19.359-17.497-28.577-64.159 18.437-70.91 105.083-15.352 156.091-81.663 150.254-81.663h-.309c-10.752 3.376-25.195 4.909-41.48 4.909-89.725 0-240.901-47.273-205.869-126.784 3.994-8.594 10.14-11.97 18.437-11.97 23.655 0 62.99 27.625 101.701 34.995 18.128 3.376 35.953 4.909 51.929 4.909 51.929 0 85.422-17.497 43.941-54.334-46.705-32.54-94.64-124.942-94.64-208.138-.309-152.573 125.369-253.884 276.847-253.884Zm0-75.517c-93.409 0-180.673 31.316-245.506 88.414-69.136 61.092-107.235 146.434-107.235 240.678 0 54.643 15.977 114.202 42.093 165.161-21.504-9.515-43.935-18.419-69.13-18.419-39.335 0-71.9 21.492-87.882 57.408-18.437 41.752-14.746 85.959 9.837 123.717 18.431 28.243 47.008 50.038 79.888 66.311-12.904 12.279-22.432 27.934-27.965 45.74-12.904 42.667 1.848 94.244 35.953 124.942 34.413 31.007 89.106 37.758 128.744 37.758 87.876 0 179.443-30.388 241.203-94.244 13.522 14.121 27.656 25.479 41.178 35.001 54.383 37.758 127.204 59.243 199.722 59.243 39.941 0 94.634-6.442 128.745-37.758 34.104-31.007 48.856-82.275 35.946-124.942-5.527-17.806-15.055-33.158-27.958-45.74 32.874-16.583 61.451-38.377 79.888-66.311 24.892-38.067 28.267-81.965 9.83-123.717-15.667-35.916-48.547-57.099-87.876-57.099-25.195 0-47.626 8.904-69.136 18.11 25.814-50.959 42.099-110.518 42.099-165.161.303-187.568-151.175-329.092-352.438-329.092Z" style="fill:#fff;fill-rule:nonzero"/></svg>