<svg xmlns="http://www.w3.org/2000/svg" xml:space="preserve" style="fill-rule:evenodd;clip-rule:evenodd;stroke-linejoin:round;stroke-miterlimit:2" viewBox="0 0 5334 3005"><path d="m5333.33 3.716-1237.5.451 991.667 2999.55h245.833v-3000Z" style="fill:#e94848"/><path d="M0 3004.17V1687.5l1175 1316.67H0Z" style="fill:#88a2fe"/><path d="M379.167 3.716h2383.33l1854.17 3000-2824.83.451L379.167 3.717Z" style="fill:#ff8338"/><path d="M0 3.716h513.41c243.65 184.81 501.624 468.123 646.496 701.509 396.389 638.575 214.964 1338.34 810.927 2298.94l-964.688-.451C638.89 2739.009 321.836 2400.98.005 1845.654V3.714Z" style="fill:#b888fe"/><path d="M1800 4.167h2408.33c83.959 117.806 148.094 267.601 208.421 404.049 342.261 774.118 214.482 1684.01 916.579 2366.78v229.167l-879.166-.451c-735.02-1641.12-1335.72-1687.72-2413.65-2643.52-107.16-95.019-240.515-356.03-240.515-356.03Z" style="fill:#ff536d"/></svg>