<svg xmlns="http://www.w3.org/2000/svg" width="40" height="40" viewBox="0 0 40 40"><g fill="none" fill-rule="evenodd"><path fill="#9060C1" fill-rule="nonzero" d="M40 9.936c0-.849-.085-1.783-.255-2.632a9.987 9.987 0 0 0-.849-2.548c-.425-.764-.934-1.529-1.529-2.123-.594-.595-1.359-1.19-2.123-1.529-.764-.425-1.613-.68-2.463-.85-.849-.17-1.783-.17-2.632-.254H9.172c-.68 0-1.359.085-1.953.17A6.747 6.747 0 0 0 5.35.68c-.17.084-.424.17-.594.254-.595.34-1.104.68-1.614 1.104-.17.17-.34.255-.51.425-.594.594-1.188 1.359-1.528 2.123C.679 5.35.424 6.2.254 7.134.085 7.983.085 8.917 0 9.766v20.298c0 .849.085 1.783.255 2.632.17.85.424 1.699.849 2.548.425.764.934 1.529 1.529 2.123.594.595 1.359 1.19 2.123 1.529.764.425 1.613.68 2.463.85.849.17 1.783.17 2.632.254H30.15c.849 0 1.783-.085 2.632-.255.85-.17 1.699-.424 2.463-.849s1.529-.934 2.123-1.529c.595-.594 1.19-1.359 1.529-2.123.425-.764.68-1.613.85-2.548.17-.849.17-1.783.254-2.632V9.936z"/><path fill="#FFF" d="M20 33c7.18 0 13-5.82 13-13S27.18 7 20 7 7 12.82 7 20h13v13z"/></g></svg>