<svg xmlns="http://www.w3.org/2000/svg" width="1083" height="142" viewBox="0 0 1083 142">
  <g fill="#FFF">
    <path d="M97.4 25.4C83.2 7.8 60.2 3.9 43.3 3.9L.3 3.9.3 15 11.4 15 11.4 15 43.2 15C57.8 15 77.3 18.1 88.5 32.3 96.9 44.2 101.5 57.2 101.5 70.3 101.5 106.4 80.8 127.1 44.7 127.1L10.9 127.1 10.9 27.4.2 27.4.2 137.4 44.7 137.4C87.3 137.4 112.2 112.1 112.2 69.9 112.4 55 107.4 39.6 97.4 25.4zM811.7 3.9L768.7 3.9 768.7 15 779.8 15 779.8 15 811.6 15C826.2 15 845.7 18.1 856.9 32.3 865.3 44.2 869.9 57.2 869.9 70.3 869.9 106.4 849.2 127.1 813.1 127.1L779.3 127.1 779.3 27.4 768.2 27.4 768.2 137.4 813.5 137.4C856.1 137.4 881 112.1 881 69.9 881 54.9 875.6 39.6 865.7 25.4 852 7.8 829 3.9 811.7 3.9zM720 15.1L729.2 15.1 729.2 86.1C729.2 99.5 728.4 112.2 718.1 121L717.7 121.4C711.9 127.2 702 131 692 131 683.6 131 672.1 129.5 664 121.4L663.6 121C652.5 111.4 652.5 101.4 652.5 86.5L652.5 4 641.4 4 641.4 85.7C641.4 101 641.4 115.6 656.4 128.7 667.1 139 681.7 141.3 692 141.3 705 141.3 717.3 136.7 725.4 128.6 739.2 117.1 740.4 100.2 740.4 85.6L740.4 3.9 720 3.9 720 15.1zM1011.6 1.6C971.3 1.6 940.6 31.9 940.6 72.6 940.6 111.3 971.7 141.6 1011.6 141.6 1050.7 141.6 1082.6 110.5 1082.6 72.6 1082.5 32.7 1051.5 1.6 1011.6 1.6zM1011.6 130.5C978.2 130.5 951.8 104.8 951.8 72.2 951.8 33.5 982.5 12.4 1011.6 12.4 1045.4 12.4 1071.4 38.9 1071.4 72.2 1071.4 104.4 1044.6 130.5 1011.6 130.5z"/>
    <polygon points="252 3.9 252 15.1 334.5 15.1 244.4 137.8 344.5 137.8 344.5 127.1 266.2 127.1 356 3.9"/>
    <path d="M455.7,61.1 C436.9,58.8 426.2,56.9 425,41.2 C424.6,33.9 426.2,28.2 430.4,23.9 C439.2,14.7 455.7,14.7 455.7,14.7 L491.8,14.7 L491.8,3.6 L455.7,3.6 C454.9,3.6 434.2,3.2 422.3,16.3 C416.2,22.8 413.5,31.6 414.2,42 C416.1,67.7 437.2,70.4 454.5,72.3 C475.6,74.6 488.3,77.3 488.3,100.3 C488.3,111.4 483.3,119.1 473.3,123.3 C465.2,126.8 456.8,127.1 456.8,127.1 L418.1,127.1 L418.1,138.2 L456.8,138.2 C457.2,138.2 467.2,138.2 477.5,133.6 C491.7,127.5 499.4,116 499.4,100.2 C499.1,66.5 474.1,63.4 455.7,61.1 Z"/>
    <polygon points="517.9 15.1 563.1 15.1 563.1 137.8 574.3 137.8 574.3 15.1 619.1 15.1 619.1 3.9 517.9 3.9"/>
    <rect width="11.1" height="133.9" x="904.9" y="3.9"/>
    <polygon points="199.1 137.8 199.1 127.1 128.1 127.1 212.1 30.4 212.1 137.8 222.9 137.8 222.9 .9 104.4 137.8"/>
  </g>
</svg>
