<svg xmlns="http://www.w3.org/2000/svg" width="935" height="674" viewBox="0 0 935 674"><g fill="none" fill-rule="evenodd" opacity=".3"><g fill="#A5988B"><path d="M1.05 423.453V175.98c0-.67.414-1.781.528-2.273.114-.49.315-1.224.315-1.847v-70.81c0-.359-.13-1.775-.283-2.026-.152-.251-.56-1.884-.56-2.212V37.82C1.05 15.124 13.932.013 37.237.013h151.259c23.304 0 36.187 15.111 36.187 37.806v59.433c0 .15-.17.3-.267.464-.1.164-.31.544-.31 1.402v31.966c0 .858.21 1.237.31 1.402.097.162.267.316.267.463v.001l.132 290.503c0 22.694-12.883 37.802-36.187 37.802h-61.262c-.993 0-2.403-.79-3.396-.79h-22.075c-.993 0-2.403.79-3.396.79H37.237c-23.304 0-36.187-15.108-36.187-37.802z"/><path d="M223.64 132.399h1.472c.338 0 .88-.28.88-.887V99.013c0-.607-.542-.887-.88-.887h-1.472V132.4zM2.353 140.247H.88c-.338 0-.88.28-.88.887v32.499c0 .607.542.887.88.887h1.472v-34.273zm0-7.848H.88c-.338 0-.88-.28-.88-.887V99.013c0-.607.542-.887.88-.887h1.472V132.4zm-.781-73.603V77.11H.554a.555.555 0 0 1-.55-.56V59.29c0-.373.33-.494.53-.494h1.038z"/></g><path fill="#F9F5F1" d="M202.734 5.895c-4.164-1.644-8.956-2.478-14.241-2.478H37.239c-5.286 0-10.078.834-14.242 2.478-3.951 1.56-7.351 3.857-10.105 6.827-5.526 5.958-8.446 14.636-8.446 25.097v385.898c0 10.462 2.92 19.14 8.446 25.098 2.754 2.972 6.154 5.266 10.105 6.828 4.164 1.643 8.956 2.477 14.242 2.477h151.254c5.285 0 10.077-.834 14.241-2.477 3.953-1.562 7.352-3.856 10.106-6.828 5.525-5.958 8.446-14.636 8.446-25.098V37.82c0-10.46-2.92-19.139-8.446-25.097-2.754-2.97-6.153-5.267-10.106-6.827z"/><path fill="#F9F5F1" d="M202.734 5.895c-4.164-1.644-8.956-2.478-14.241-2.478H37.239c-5.286 0-10.078.834-14.242 2.478-3.951 1.56-7.351 3.857-10.105 6.827-5.526 5.958-8.446 14.636-8.446 25.097v385.898c0 10.462 2.92 19.14 8.446 25.098 2.754 2.972 6.154 5.266 10.105 6.828 4.164 1.643 8.956 2.477 14.242 2.477h151.254c5.285 0 10.077-.834 14.241-2.477 3.953-1.562 7.352-3.856 10.106-6.828 5.525-5.958 8.446-14.636 8.446-25.098V37.82c0-10.46-2.92-19.139-8.446-25.097-2.754-2.97-6.153-5.267-10.106-6.827z"/><path fill="#A5988B" d="M112.864 415.361c8.838 0 16.03 7.202 16.03 16.052s-7.192 16.051-16.03 16.051c-8.837 0-16.029-7.202-16.029-16.051 0-8.85 7.192-16.052 16.03-16.052zm0-1.738c-9.812 0-17.765 7.964-17.765 17.79 0 9.826 7.953 17.79 17.765 17.79 9.813 0 17.766-7.964 17.766-17.79 0-9.826-7.953-17.79-17.766-17.79z"/><path stroke="#A5988B" stroke-width="2.38" d="M14.893 55.22l-.4.08-.339.227-.226.34-.08.4V405.27l.08.4.226.34.34.227.4.08h195.944l.4-.08.34-.227.226-.34.08-.4V56.267l-.08-.4c-.225-.338-.23-.341-.566-.567l-.4-.08H14.893zm58.522-26.03a3.79 3.79 0 0 0 3.789 3.793 3.79 3.79 0 0 0 3.788-3.794 3.79 3.79 0 0 0-3.788-3.793 3.79 3.79 0 0 0-3.789 3.793zm39.451-16.614a2.353 2.353 0 0 1 2.351 2.355c0 1.3-1.053 2.355-2.351 2.355a2.353 2.353 0 0 1-2.352-2.355c0-1.3 1.053-2.355 2.352-2.355zm-18.03 16.482c0 1.157.949 2.095 2.119 2.095h32.083c1.17 0 2.119-.938 2.119-2.095 0-1.156-.949-2.094-2.12-2.094H96.956c-1.17 0-2.119.938-2.119 2.094z"/><path fill="#A5988B" d="M145.667 84.282c-24.2 0-34.487 12.406-34.487 35.32v435.285c0 24.031 13.955 33.11 34.32 33.11h645.072c20.366 0 34.32-9.079 34.32-33.11V119.602c0-22.914-10.286-35.32-34.486-35.32H145.667z"/><path fill="#F9F5F1" d="M122.051 96.343c-4.936 5.261-7.335 12.964-7.335 23.548v435.034c0 5.15.73 9.724 2.173 13.594 1.41 3.782 3.504 6.907 6.228 9.287 5.14 4.493 12.61 6.771 22.203 6.771h645.072c9.555 0 17.017-2.286 22.177-6.796 5.592-4.887 8.427-12.493 8.427-22.606V119.89c0-10.82-2.344-18.58-7.165-23.718-2.394-2.552-5.5-4.505-9.232-5.804-3.98-1.387-8.817-2.09-14.373-2.09H145.488c-5.558 0-10.393.703-14.374 2.09-3.455 1.203-6.42 3.157-9.062 5.974v.001z"/><path fill="#A5988B" d="M779.159 336.284c0-8.58 6.98-15.545 15.577-15.545 8.598 0 15.578 6.965 15.578 15.545s-6.98 15.545-15.578 15.545c-8.597 0-15.577-6.966-15.577-15.545zm1.163 0c0-7.94 6.46-14.386 14.416-14.386 7.957 0 14.416 6.446 14.416 14.386 0 7.94-6.46 14.386-14.416 14.386s-14.416-6.447-14.416-14.386z"/><path stroke="#A5988B" stroke-width="2.38" d="M173.775 117.372v438.112a2.284 2.284 0 0 0 2.286 2.281H761.44a2.28 2.28 0 0 0 2.287-2.282v-438.11a2.285 2.285 0 0 0-2.287-2.282H176.06a2.285 2.285 0 0 0-2.286 2.282zm-32.871 219.34a3.855 3.855 0 0 1 3.86-3.85 3.854 3.854 0 0 1 3.858 3.85 3.854 3.854 0 0 1-3.859 3.85 3.855 3.855 0 0 1-3.859-3.85z"/><g fill="#F9F5F1"><path stroke="#A5988B" stroke-width="2.38" d="M864.033 534.897h-78.038c7.385-4.074 8.853-7.112 10.167-15.588.12-.766.983-13.934 2.365-16.769 2.114-4.336 24.113-4.486 26.482-4.487h.01c2.369 0 24.368.15 26.482 4.487 1.383 2.835 2.246 16.003 2.365 16.77 1.315 8.475 2.783 11.513 10.167 15.587zm0 102.029h-78.038c7.385 4.075 8.853 7.112 10.167 15.588.12.767.983 13.935 2.365 16.769 2.114 4.337 24.113 4.487 26.482 4.487h.01c2.369 0 24.368-.15 26.482-4.487 1.383-2.834 2.246-16.002 2.365-16.769 1.315-8.476 2.783-11.513 10.167-15.588z"/><path stroke="#A5988B" stroke-width="2.38" d="M871.342 546.476c0-8.15-6.624-14.767-14.784-14.767h-63.57c-8.16 0-14.785 6.617-14.785 14.767v78.871c0 8.15 6.624 14.768 14.784 14.768h63.57c8.16 0 14.785-6.617 14.785-14.768v-78.87z"/><path d="M867.343 546.637c0-6.028-4.9-10.924-10.936-10.924h-63.248c-6.036 0-10.937 4.896-10.937 10.924v78.528c0 6.03 4.9 10.925 10.937 10.925h63.248c6.036 0 10.936-4.895 10.936-10.925v-78.528z"/><path stroke="#A5988B" stroke-width="2.38" d="M875.619 570.678c0 .291-.19 3.595-2.128 4.488h-2.601c-.874-.427-2.795-1.898-2.837-8.975v-.473c.042-7.077 1.963-8.548 2.837-8.974h2.6c1.94.892 2.129 4.196 2.129 4.487v9.447zm-3.31 45.111a.46.46 0 0 1-.473.472h-.71c-.407 0-.709-.875-.709-1.654v-24.326c0-.779.302-1.653.71-1.653h.709a.46.46 0 0 1 .473.472v26.689z"/></g></g></svg>