<?xml version="1.0" encoding="UTF-8"?>
<svg width="935px" height="674px" viewBox="0 0 935 674" version="1.1" xmlns="http://www.w3.org/2000/svg" xmlns:xlink="http://www.w3.org/1999/xlink">
    <!-- Generator: Sketch 42 (36781) - http://www.bohemiancoding.com/sketch -->
    <title>device-background</title>
    <desc>Created with Sketch.</desc>
    <defs></defs>
    <g id="Page-1" stroke="none" stroke-width="1" fill="none" fill-rule="evenodd" opacity="0.29517663">
        <g id="device-background">
            <g id="Group-4">
                <g id="iPhone-7-Silver">
                    <g id="Frame" fill="#A5988B">
                        <path d="M1.05027188,423.452819 L1.05027188,175.980187 C1.05027188,175.310441 1.46358387,174.198732 1.57777155,173.706887 C1.69192438,173.217484 1.89309394,172.482507 1.89309394,171.859852 L1.89309394,101.050582 C1.89309394,100.691291 1.76274304,99.2750564 1.61041153,99.0239016 C1.45811485,98.7727467 1.05027188,97.1402402 1.05027188,96.8123436 L1.05027188,37.818862 C1.05027188,15.1242315 13.9321949,0.0130818411 37.2371047,0.0130818411 L188.495711,0.0130818411 C211.800028,0.0130818411 224.682544,15.1242315 224.682544,37.818862 L224.682544,97.2518646 C224.682544,97.4018599 224.512899,97.5518551 224.416059,97.7158034 C224.316781,97.8797517 224.105335,98.2599722 224.105335,99.1180846 L224.105335,131.083817 C224.105335,131.941929 224.316781,132.321103 224.416059,132.486098 C224.512899,132.648302 224.682544,132.802484 224.682544,132.948991 L224.682544,132.950386 L224.814567,423.452819 C224.814567,446.14738 211.932051,461.255355 188.627734,461.25546 L127.366291,461.25546 C126.37281,461.25546 124.963055,460.465124 123.969922,460.465124 L101.894916,460.465124 C100.902131,460.465124 99.4920286,461.25546 98.4985471,461.25546 L37.2371047,461.25546 C13.9329613,461.25546 1.05027188,446.14745 1.05027188,423.452819 Z" id="Shape"></path>
                        <g id="Button" transform="translate(0.000000, 58.603071)">
                            <path d="M223.640201,73.795656 L225.111881,73.795656 C225.450213,73.795656 225.991545,73.5157217 225.991545,72.9087613 L225.991545,40.4102188 C225.991545,39.8032584 225.450213,39.5233241 225.111881,39.5233241 L223.640201,39.5233241 L223.640201,73.795656 L223.640201,73.795656 Z" id="Power-Button"></path>
                            <path d="M2.35264982,81.6442816 L0.880970039,81.6442816 C0.542637833,81.6442816 0.00130630196,81.9242159 0.00130630196,82.5311763 L0.00130630196,115.029719 C0.00130630196,115.636679 0.542637833,115.916614 0.880970039,115.916614 L2.35264982,115.916614 L2.35264982,81.6442816 L2.35264982,81.6442816 Z" id="Volume-Down"></path>
                            <path d="M2.35264982,73.795656 L0.880970039,73.795656 C0.542637833,73.795656 0.00130630196,73.5157217 0.00130630196,72.9087613 L0.00130630196,40.4102188 C0.00130630196,39.8032584 0.542637833,39.5233241 0.880970039,39.5233241 L2.35264982,39.5233241 L2.35264982,73.795656 L2.35264982,73.795656 Z" id="Volume-Up"></path>
                            <path d="M1.57226503,0.19307619 L1.57226503,18.506536 L0.55439455,18.506536 C0.294179201,18.506536 0.00391890587,18.2982858 0.00391890587,17.9474522 L0.00391890587,0.686231501 C0.00391890587,0.313683404 0.33415204,0.19307619 0.5342775,0.19307619 L1.57226503,0.19307619 L1.57226503,0.19307619 Z" id="Mute-Switch"></path>
                        </g>
                    </g>
                    <g id="Body" transform="translate(4.441427, 3.401071)">
                        <path d="M198.292718,2.4940316 C194.128227,0.849744535 189.336712,0.0156972513 184.051414,0.0156972513 L32.7973232,0.0156972513 C27.511503,0.0156972513 22.7199874,0.849744535 18.5552355,2.4940316 C14.6041946,4.05433838 11.2044131,6.35110786 8.45046735,9.32050456 C2.92481008,15.2789195 0.00418016626,23.9571449 0.00418016626,34.4175315 L0.00418016626,420.31614 C0.00418016626,430.778358 2.92481008,439.456322 8.45046735,445.413429 C11.2044131,448.385442 14.6041946,450.679857 18.5552355,452.241733 C22.7199874,453.884712 27.511503,454.719283 32.7973232,454.719283 L184.051414,454.719283 C189.336712,454.719283 194.128227,453.884712 198.292718,452.241733 C202.245588,450.679857 205.644585,448.385442 208.39827,445.413429 C213.923927,439.456322 216.844818,430.778358 216.844818,420.31614 L216.844818,34.4175315 C216.844818,23.9571449 213.923927,15.2789195 208.39827,9.32050456 C205.644585,6.35110786 202.245588,4.05433838 198.292718,2.4940316 L198.292718,2.4940316 Z" id="Front" fill="#F9F5F1"></path>
                        <path d="M198.292718,2.4940316 C194.128227,0.849744535 189.336712,0.0156972513 184.051414,0.0156972513 L32.7973232,0.0156972513 C27.511503,0.0156972513 22.7199874,0.849744535 18.5552355,2.4940316 C14.6041946,4.05433838 11.2044131,6.35110786 8.45046735,9.32050456 C2.92481008,15.2789195 0.00418016626,23.9571449 0.00418016626,34.4175315 L0.00418016626,420.31614 C0.00418016626,430.778358 2.92481008,439.456322 8.45046735,445.413429 C11.2044131,448.385442 14.6041946,450.679857 18.5552355,452.241733 C22.7199874,453.884712 27.511503,454.719283 32.7973232,454.719283 L184.051414,454.719283 C189.336712,454.719283 194.128227,453.884712 198.292718,452.241733 C202.245588,450.679857 205.644585,448.385442 208.39827,445.413429 C213.923927,439.456322 216.844818,430.778358 216.844818,420.31614 L216.844818,34.4175315 C216.844818,23.9571449 213.923927,15.2789195 208.39827,9.32050456 C205.644585,6.35110786 202.245588,4.05433838 198.292718,2.4940316 L198.292718,2.4940316 Z" id="Front" fill="#F9F5F1"></path>
                        <path d="M108.423062,411.960393 C117.2605,411.960393 124.452271,419.162087 124.452271,428.011718 C124.452271,436.861348 117.2605,444.063042 108.423062,444.063042 C99.5856251,444.063042 92.3938534,436.861348 92.3938534,428.011718 C92.3938534,419.162087 99.5856251,411.960393 108.423062,411.960393 L108.423062,411.960393 Z M108.423062,410.2215 C98.6105149,410.2215 90.6573558,418.185632 90.6573558,428.011718 C90.6573558,437.837804 98.6105149,445.801936 108.423062,445.801936 C118.23561,445.801936 126.188769,437.837804 126.188769,428.011718 C126.188769,418.185632 118.23561,410.2215 108.423062,410.2215 L108.423062,410.2215 Z" id="Home-Button" fill="#A5988B"></path>
                        <g id="Screen" transform="translate(9.405374, 51.800929)" stroke="#A5988B" stroke-width="2.38">
                            <path d="M1.04634787,0.0185750807 L0.646358208,0.0981078204 L0.30750348,0.325194722 L0.0807294609,0.66451697 L0.00130630196,1.0650585 L0.00130630196,350.067278 L0.0807294609,350.46782 L0.30750348,350.807142 L0.646358208,351.034229 L1.04634787,351.113762 L196.991641,351.113762 L197.391631,351.034229 L197.730486,350.807142 L197.95726,350.46782 L198.036683,350.067278 L198.036683,1.0650585 L197.95726,0.66451697 C197.732053,0.327287689 197.728134,0.323624997 197.391631,0.0981078204 L196.991641,0.0185750807 L1.04634787,0.0185750807 L1.04634787,0.0185750807 Z" id="Screen-Panel"></path>
                        </g>
                        <g id="Top-Sensors" transform="translate(68.972743, 9.156730)" stroke="#A5988B" stroke-width="2.38">
                            <path d="M0.00130630196,16.6314993 C0.00130630196,18.7265591 1.69688624,20.4250017 3.78958197,20.4250017 C5.88227771,20.4250017 7.57785765,18.7265591 7.57785765,16.6314993 C7.57785765,14.5364395 5.88227771,12.8379969 3.78958197,12.8379969 C1.69688624,12.8379969 0.00130630196,14.5364395 0.00130630196,16.6314993 L0.00130630196,16.6314993 Z" id="Camera"></path>
                            <path d="M39.4516254,0.0185750807 C40.7500895,0.0185750807 41.8029689,1.0726455 41.8029689,2.37316277 C41.8029689,3.67341842 40.7500895,4.72775046 39.4516254,4.72775046 C38.1531612,4.72775046 37.1002819,3.67341842 37.1002819,2.37316277 C37.1002819,1.0726455 38.1531612,0.0185750807 39.4516254,0.0185750807 L39.4516254,0.0185750807 Z" id="Light-Sensor"></path>
                            <path d="M21.4220458,16.5006889 C21.4220458,17.6573147 22.370421,18.5947022 23.5408676,18.5947022 L55.6236436,18.5947022 C56.7940901,18.5947022 57.7424654,17.6573147 57.7424654,16.5006889 C57.7424654,15.3440631 56.7940901,14.4066756 55.6236436,14.4066756 L23.5408676,14.4066756 C22.370421,14.4066756 21.4220458,15.3440631 21.4220458,16.5006889 L21.4220458,16.5006889 Z" id="Speaker"></path>
                        </g>
                    </g>
                </g>
                <g id="iPad-Air-Silver" transform="translate(468.000000, 336.000000) rotate(-90.000000) translate(-468.000000, -336.000000) translate(216.000000, -21.000000)">
                    <path d="M503.717623,34.6667294 C503.717623,10.4661882 491.311579,0.180357886 468.398261,0.180357886 L33.1128285,0.180357886 C9.08198302,0.180357886 0.00256706282,14.1345132 0.00256706282,34.4998054 L0.00256706282,679.572223 C0.00256706282,699.937516 9.08198302,713.891671 33.1128285,713.891671 L468.398261,713.891671 C491.311579,713.891671 503.717623,703.605841 503.717623,679.405585 L503.717623,34.6675869 L503.717623,34.6667294 Z" id="Frame" fill="#A5988B"></path>
                    <g id="Body" transform="translate(3.422750, 3.715773)">
                        <path d="M488.233956,7.33550681 C482.972903,2.39953163 475.270003,-5.68434189e-14 464.686289,-5.68434189e-14 L29.6518574,-5.68434189e-14 C24.5017589,-5.68434189e-14 19.9283939,0.73114972 16.0584041,2.1728695 C12.2759796,3.58229063 9.15100849,5.67770056 6.7707708,8.40136189 C2.27812564,13.5417046 0,21.0118367 0,30.6039608 L0,675.676379 C0,685.231631 2.28668251,692.693188 6.7961562,697.852967 C11.6832733,703.444919 19.28891,706.280054 29.4022818,706.280054 L464.687715,706.280054 C475.50817,706.280054 483.266689,703.936544 488.405664,699.115187 C490.957324,696.721371 492.910003,693.615271 494.209508,689.883492 C495.596007,685.902471 496.299097,681.06625 496.299097,675.509741 L496.299097,30.7717422 C496.299097,25.2146613 495.596007,20.3792978 494.209508,16.3982762 C493.006126,12.9431793 491.05202,9.97885028 488.235382,7.33636429 L488.233956,7.33550681 Z" id="Body1" fill="#F9F5F1"></path>
                        <g id="Home-Button" transform="translate(232.747029, 664.265813)" fill="#A5988B">
                            <path d="M15.5464177,0.177213771 C24.1258268,0.177213771 31.0914092,7.15714972 31.0914092,15.7548759 C31.0914092,24.3523163 24.1258268,31.332538 15.5464177,31.332538 C6.96672326,31.332538 0.00142614601,24.3523163 0.00142614601,15.7548759 C0.00142614601,7.15714972 6.96672326,0.177213771 15.5464177,0.177213771 L15.5464177,0.177213771 Z M15.5464177,1.34053643 C23.4860577,1.34053643 29.9319525,7.80026421 29.9319525,15.7565909 C29.9319525,23.7129175 23.4860577,30.1723595 15.5464177,30.1723595 C7.60677759,30.1723595 1.16059762,23.7129175 1.16059762,15.7565909 C1.16059762,7.80026421 7.60677759,1.34053643 15.5464177,1.34053643 L15.5464177,1.34053643 Z" id="Home-Button-Circle"></path>
                        </g>
                        <g id="Screen" transform="translate(26.811545, 58.880705)" stroke="#A5988B" stroke-width="2.38">
                            <path d="M440.393888,0.178357086 L2.28183362,0.178357086 C1.02197623,0.178357086 0.000285229202,1.20219536 0.000285229202,2.46498639 L0.000285229202,587.842088 C0.000285229202,588.448616 0.240448217,589.030278 0.66829202,589.459307 C1.09642105,589.88805 1.67657725,590.128717 2.28183362,590.128717 L440.393888,590.128717 C441.654031,590.128717 442.676007,589.104879 442.676007,587.842088 L442.676007,2.46498639 C442.676007,1.20219536 441.654031,0.178357086 440.393888,0.178357086 L440.393888,0.178357086 Z" id="Screen-Frame"></path>
                        </g>
                        <g id="Top-Sensors" transform="translate(243.112150, 26.010408)" stroke="#A5988B" stroke-width="2.38">
                            <path d="M4.75345229,0.178071257 C6.88012122,0.178071257 8.60404651,1.9056197 8.60404651,4.03704404 C8.60404651,6.16818255 6.88012122,7.89544516 4.75345229,7.89544516 C2.62678336,7.89544516 0.902858058,6.16818255 0.902858058,4.03704404 C0.902858058,1.9056197 2.62678336,0.178071257 4.75345229,0.178071257 L4.75345229,0.178071257 Z" id="Camera"></path>
                        </g>
                    </g>
                </g>
                <g id="Apple-Watch-42mm" transform="translate(778.000000, 498.000000)" fill="#F9F5F1">
                    <g id="Bracelet" transform="translate(7.696107, 0.000000)" stroke="#A5988B" stroke-width="2.38">
                        <path d="M78.3370579,36.8972874 L0.298933017,36.8972874 C7.68355068,32.8225839 9.15148192,29.785269 10.4663011,21.3093517 C10.5849832,20.5426391 11.4485675,7.3750069 12.8306264,4.5403954 C14.9450306,0.203917241 36.9437463,0.0538114943 39.3129322,0.0530022989 L39.3129322,0.0530022989 L39.3177929,0.0530022989 L39.3230587,0.0530022989 C41.6918396,0.0538114943 63.6909603,0.203917241 65.8053646,4.5403954 C67.1874234,7.3750069 68.0510077,20.5426391 68.1696898,21.3093517 C69.484509,29.785269 70.9524402,32.8225839 78.3370579,36.8972874 L78.3370579,36.8972874 Z" id="Bracelet-Top"></path>
                        <path d="M78.3370579,138.926308 L0.298933017,138.926308 C7.68355068,143.001011 9.15148192,146.038326 10.4663011,154.514244 C10.5849832,155.280956 11.4485675,168.448589 12.8306264,171.282795 C14.9450306,175.619678 36.9437463,175.769784 39.3129322,175.770189 L39.3129322,175.770189 L39.3177929,175.770189 L39.3230587,175.770189 C41.6918396,175.769784 63.6909603,175.619678 65.8053646,171.282795 C67.1874234,168.448589 68.0510077,155.280956 68.1696898,154.514244 C69.484509,146.038326 70.9524402,143.001011 78.3370579,138.926308 L78.3370579,138.926308 Z" id="Bracelet-Bottom"></path>
                    </g>
                    <g id="Body" transform="translate(0.000000, 33.581609)">
                        <path d="M93.3424422,14.8948598 C93.3424422,6.74423908 86.7177139,0.127043678 78.5578147,0.127043678 L14.9871567,0.127043678 C6.82725746,0.127043678 0.202529144,6.74423908 0.202529144,14.8948598 L0.202529144,93.7655172 C0.202529144,101.916138 6.82725746,108.533333 14.9871567,108.533333 L78.5578147,108.533333 C86.7177139,108.533333 93.3424422,101.916138 93.3424422,93.7655172 L93.3424422,14.8948598 L93.3424422,14.8948598 Z" id="Body1" stroke="#A5988B" stroke-width="2.38"></path>
                        <path d="M89.3433017,15.0558897 C89.3433017,9.02697931 84.4429065,4.13175172 78.4067279,4.13175172 L15.1589014,4.13175172 C9.12272278,4.13175172 4.2223276,9.02697931 4.2223276,15.0558897 L4.2223276,93.5838529 C4.2223276,99.6131678 9.12272278,104.507991 15.1589014,104.507991 L78.4067279,104.507991 C84.4429065,104.507991 89.3433017,99.6131678 89.3433017,93.5838529 L89.3433017,15.0558897 L89.3433017,15.0558897 Z" id="Glace-Frame"></path>
                    </g>
                    <g id="Buttons" transform="translate(89.922940, 58.666667)" stroke="#A5988B" stroke-width="2.38">
                        <path d="M7.69610749,14.011623 C7.69610749,14.3025287 7.50613515,17.606069 5.56793124,18.4990161 L2.96705197,18.4990161 C2.09293618,18.0725701 0.172149773,16.6014529 0.130428769,9.52422989 L0.129618652,9.52422989 L0.129618652,9.05165977 L0.130428769,9.05165977 C0.172149773,1.97443678 2.09293618,0.50331954 2.96705197,0.0768735632 L5.56793124,0.0768735632 C7.50613515,0.96982069 7.69610749,4.27336092 7.69610749,4.56426667 L7.69610749,14.011623 L7.69610749,14.011623 Z" id="Crown"></path>
                        <path d="M4.38597115,59.1218391 C4.38597115,59.3811862 4.19721399,59.5940046 3.91286307,59.5940046 L3.20360601,59.5940046 C2.79611737,59.5940046 2.49434894,58.719669 2.49434894,57.9408184 L2.49434894,33.6143816 C2.49434894,32.835531 2.79611737,31.9611954 3.20360601,31.9611954 L3.91286307,31.9611954 C4.19721399,31.9611954 4.38597115,32.1740138 4.38597115,32.4333609 L4.38597115,59.1218391 L4.38597115,59.1218391 Z" id="Button"></path>
                    </g>
                </g>
            </g>
        </g>
    </g>
</svg>