<svg xmlns="http://www.w3.org/2000/svg" xmlns:xlink="http://www.w3.org/1999/xlink" width="4500" height="3400" viewBox="0 0 4500 3400">
  <defs>
    <path id="device-background-a" d="M335.22,567.52 L154.56,567.52 C88.48,567.52 57.84,552.66 30.6,523.42 C3.34,494.22 0.888,448.22 0.888,390.34 L0.888,178.48 C0.888,120.6 3.34,74.62 30.6,45.4 C57.84,16.18 88.48,1.3 154.56,1.3 L335.22,1.3 C401.3,1.3 431.94,16.18 459.18,45.4 C478.08,65.66 485.04,93.96 487.56,128.72 L486.74,128.72 C482.24,131.2 475.98,145.24 475.98,157.44 L475.98,195.48 C475.98,207.68 482.24,221.72 486.74,224.2 L488.88,224.2 L488.88,390.34 C488.88,448.22 486.44,494.22 459.18,523.42 C431.94,552.66 401.3,567.52 335.22,567.52 Z"/>
    <path id="device-background-c" d="M335.22,566.52 L154.56,566.52 C88.48,566.52 57.84,551.66 30.6,522.42 C3.34,493.22 0.888,447.22 0.888,389.34 L0.888,177.48 C0.888,119.6 3.34,73.62 30.6,44.4 C57.84,15.18 88.48,0.3 154.56,0.3 L335.22,0.3 C401.3,0.3 431.94,15.18 459.18,44.4 C478.08,64.66 485.04,92.96 487.56,127.72 L486.74,127.72 C482.24,130.2 475.98,144.24 475.98,156.44 L475.98,194.48 C475.98,206.68 482.24,220.72 486.74,223.2 L488.88,223.2 L488.88,389.34 C488.88,447.22 486.44,493.22 459.18,522.42 C431.94,551.66 401.3,566.52 335.22,566.52 Z"/>
  </defs>
  <g fill="none" fill-rule="evenodd" opacity=".3" transform="translate(31 52)">
    <g transform="translate(.461 .576)">
      <g transform="translate(.12 277.89)">
        <path fill="#A4988B" d="M9.89456174.31592771L9.89456174 76.2579239 4.25946534 76.2579239C2.52121044 76.2579239.478039592 74.2045101.478039592 72.7055882L.478039592 3.57970924C.478039592 1.9942211 2.78791443.31592771 4.12455368.31592771L9.89456174.31592771zM9.9990598 138.980162L9.9990598 282.920337 6.69021479 282.920337C4.95195989 282.920337.581757807 278.532753.581757807 277.04085L.581757807 144.578893C.581757807 142.993405 5.21944371 138.980162 6.55608296 138.980162L9.9990598 138.980162z"/>
        <path fill="#3E3E3E" d="M1034.00042,185.902968 L1034.00042,413.825661 L1037.30692,413.825661 C1039.04596,413.825661 1041.29969,409.445097 1041.29969,407.946175 L1041.29969,191.49312 C1041.29969,189.908412 1038.78861,185.902968 1037.44729,185.902968 L1034.00042,185.902968 Z"/>
        <path fill="#A4988B" d="M9.9990598,316.808293 L9.9990598,460.644744 L6.69021479,460.644744 C4.95195989,460.644744 0.581757807,456.296155 0.581757807,454.812051 L0.581757807,322.36725 C0.581757807,320.790341 5.21944371,316.808293 6.55608296,316.808293 L9.9990598,316.808293 Z"/>
      </g>
      <g transform="translate(6.36)">
        <path fill="#A4988B" d="M0,1815.89842 L0,739.892522 C0,739.892522 3.45420914,739.775921 3.49130558,728.243008 C3.50296447,724.511772 3.53264162,627.626826 3.49130558,604.317199 C3.47116751,592.724926 0,592.669805 0,592.669805 L0,562.170127 C0,562.170127 3.47010761,562.100167 3.49130558,550.521674 C3.50826396,541.184042 3.49130558,449.833411 3.49130558,426.497283 C3.49130558,414.89547 0,414.847769 0,414.847769 L0,356.277958 C0,356.277958 2.32859695,355.161767 2.32753706,352.779923 L2.32753706,280.441637 C2.31057868,278.114915 0,276.943603 0,276.943603 L0,160.034002 C0,71.7096999 71.7010721,0.00106001035 160.017113,0 L870.208447,0 C958.519188,0.00106001035 1030.22132,71.7096999 1030.22132,160.034002 L1030.22132,462.717837 C1030.22132,462.717837 1027.90014,463.06552 1027.88954,473.203459 C1027.84715,510.266721 1027.87894,645.138197 1027.88954,683.118368 C1027.90014,692.944664 1030.22132,693.082465 1030.22132,693.082465 L1030.22132,1886.84492 C1030.22132,1975.17558 958.519188,2046.88528 870.208447,2046.88528 L160.017113,2046.88528 C71.7010721,2046.88528 0,1975.17558 0,1886.84492 L0,1815.89842 Z"/>
        <path fill="#F9F5F1" d="M1009.09469,157.195353 C1009.09469,81.24937 947.450727,19.5949471 871.514081,19.5949471 L158.851454,19.5949471 C82.9197132,19.5949471 21.2708498,81.24937 21.2708498,157.195353 L21.2708498,1887.55205 C21.2708498,1963.48874 82.9197132,2025.14317 158.851454,2025.14317 L871.514081,2025.14317 C947.450727,2025.14317 1009.09469,1963.48874 1009.09469,1887.55205 L1009.09469,157.195353 Z"/>
      </g>
    </g>
    <path stroke="#A4988B" stroke-width="5" d="M.234730697 16.1699513C.234730697 21.3233727 3.42582044 24.3290152 7.36399327 24.3290152L115.315159 24.3290152C119.253332 24.3290152 122.444422 21.3233727 122.444422 16.1699513 122.444422 11.01653 119.253332 8.01088743 115.315159 8.01088743L7.36399327 8.01088743C3.42582044 8.01088743.234730697 11.01653.234730697 16.1699513zM149.503958 16.1699513C149.503958 24.8523121 156.534961 31.8945934 165.213758 31.8945934 173.891776 31.8945934 180.923559 24.8523121 180.923559 16.1699513 180.923559 7.47979179 173.891776.437510499 165.213758.437510499 156.534961.437510499 149.503958 7.47979179 149.503958 16.1699513z" transform="translate(459.565 72.779)"/>
    <g transform="rotate(-90 1697 1175)">
      <path fill="#A4988B" d="M168.696565 17.5987611L.100224719 17.5987611.100224719 12.040775C.100224719 9.12096565 4.84166934 6.82121026e-13 7.3564687 6.82121026e-13L161.911846 6.82121026e-13C164.570722 6.82121026e-13 168.696565 9.57026785 168.696565 11.8154689L168.696565 17.5987611zM333.62549 416.65771L333.62549 280.788986 339.179005 280.788986C342.099839 280.788986 351.215987 285.538753 351.215987 288.044628L351.215987 409.874949C351.215987 412.536705 341.65451 416.65771 339.401669 416.65771L333.62549 416.65771zM333.62549 581.707497L333.62549 445.838774 339.179005 445.838774C342.099839 445.838774 351.215987 450.58854 351.215987 453.094415L351.215987 574.924737C351.215987 577.586492 341.65451 581.707497 339.401669 581.707497L333.62549 581.707497z" transform="translate(2096.666)"/>
      <path fill="#A4988B" d="M2261.80006,8.66249402 C2320.24295,8.94150675 2377.31056,40.1450861 2409.073,89.0089927 C2427.2791,117.01375 2437.16803,150.076104 2437.42998,183.722682 L2437.42998,184.289877 C2439.30299,1195.32855 2439.30299,2206.37508 2437.42998,3217.40983 C2437.18112,3277.6661 2404.59352,3335.25014 2353.94388,3366.67509 C2326.62164,3383.62544 2294.49246,3392.78178 2262.37637,3393.03066 L2261.80006,3393.03066 C1566.82478,3394.31438 871.840334,3394.31438 176.861124,3393.03066 C115.329746,3392.76868 56.6956276,3358.82868 25.6679807,3306.36642 C9.83391332,3279.60478 1.37266132,3248.45491 1.22727448,3217.40983 C-0.408654896,2206.37508 -0.408654896,1195.32855 1.22727448,184.288567 C1.50102087,126.111137 32.6413098,68.6122447 82.0230626,36.7327472 C110.067005,18.6283574 143.046241,8.82492397 176.859814,8.66249402 C871.840334,7.59229024 1566.82478,7.59229024 2261.80006,8.66249402 Z"/>
      <path fill="#343434" d="M2261.32854,24.2335006 C2349.89663,24.2335006 2421.80417,96.1519807 2421.80417,184.73394 L2421.80417,3217.12164 C2421.80417,3305.71146 2349.89663,3377.62601 2261.32854,3377.62601 L177.516019,3377.62601 C88.9413804,3377.62601 17.0312167,3305.71146 17.0312167,3217.12164 L17.0312167,184.73394 C17.0312167,96.1519807 88.9413804,24.2335006 177.516019,24.2335006 L2261.32854,24.2335006 Z"/>
      <path stroke="#A4988B" stroke-width="2" d="M2311.7817,185.353531 C2311.7817,158.603677 2290.06536,136.88653 2263.31942,136.88653 L175.515968,136.88653 C148.768719,136.88653 127.053689,158.603677 127.053689,185.353531 L127.053689,3216.50598 C127.053689,3243.25453 148.768719,3264.97298 175.515968,3264.97298 L2263.31942,3264.97298 C2290.06536,3264.97298 2311.7817,3243.25453 2311.7817,3216.50598 L2311.7817,185.353531 Z"/>
      <path fill="#F9F5F1" d="M2261.32854,24.2335006 C2349.89663,24.2335006 2421.80417,96.1519807 2421.80417,184.73394 L2421.80417,3217.12164 C2421.80417,3305.71146 2349.89663,3377.62601 2261.32854,3377.62601 L177.516019,3377.62601 C88.9413804,3377.62601 17.0312167,3305.71146 17.0312167,3217.12164 L17.0312167,184.73394 C17.0312167,96.1519807 88.9413804,24.2335006 177.516019,24.2335006 L2261.32854,24.2335006 Z"/>
      <ellipse cx="1219.42" cy="74.665" stroke="#A4988B" stroke-width="5" rx="18.992" ry="18.994"/>
    </g>
    <g transform="translate(3661 2433)">
      <g fill="#F9F5F1" stroke="#A4988B" stroke-width="10" transform="translate(45)">
        <path d="M197,5.0000003 C191.973144,5.00176069 182.884778,5.18799483 173.106817,5.57704685 C158.69044,6.1506553 144.364734,7.08367979 131.03338,8.43741894 C96.3248754,11.9619117 72.9228676,18.151451 69.4952473,25.1892355 C67.1023988,30.1025697 64.6323289,44.7468242 62.4041395,65.6287356 C60.9301102,79.4428879 58.4423686,110.025191 58.382564,110.369796 C52.1780714,146.170908 43.1411085,163.606139 18.3689995,180.39 L375.630995,180.39 C350.858895,163.606164 341.821959,146.171085 335.617635,110.370946 C335.557631,110.025191 333.06989,79.4428879 331.595861,65.6287356 C329.367671,44.7468242 326.897601,30.1025697 324.504788,25.1893082 C321.077132,18.151451 297.675125,11.9619117 262.96662,8.43741894 C249.635266,7.08367979 235.30956,6.1506553 220.893183,5.57704685 C211.115222,5.18799483 202.026856,5.00176069 197,5.0000003 Z M197,5.0000003 C196.99943,5.0000001 196.99886,4.9999999 196.99829,4.99999971 L197.00171,4.99999971 C197.00114,4.9999999 197.00057,5.0000001 197,5.0000003 Z"/>
        <path d="M197,697 C191.973144,697.001761 182.884778,697.187995 173.106817,697.577047 C158.69044,698.150655 144.364734,699.08368 131.03338,700.437419 C96.3248754,703.961912 72.9228676,710.151451 69.4952473,717.189235 C67.1023988,722.10257 64.6323289,736.746824 62.4041395,757.628736 C60.9301102,771.442888 58.4423686,802.025191 58.382564,802.369796 C52.1780714,838.170908 43.1411085,855.606139 18.3689994,872.39 L375.630995,872.39 C350.858895,855.606164 341.821959,838.171085 335.617635,802.370946 C335.557631,802.025191 333.06989,771.442888 331.595861,757.628736 C329.367671,736.746824 326.897601,722.10257 324.504788,717.189308 C321.077132,710.151451 297.675125,703.961912 262.96662,700.437419 C249.635266,699.08368 235.30956,698.150655 220.893183,697.577047 C211.115222,697.187995 202.026856,697.001761 197,697 Z M197,697 C196.99943,697 196.99886,697 196.99829,697 L197.00171,697 C197.00114,697 197.00057,697 197,697 Z" transform="matrix(1 0 0 -1 0 1569.39)"/>
      </g>
      <g transform="translate(474 283)">
        <rect width="14" height="92" y="2" fill="#83776C"/>
        <path fill="#A4988B" d="M34.5,75.24 C34.5,91.4 28.16,96.56 22.24,96.56 L12.86,96.56 C10.44,95.22 7.48,90.5 5.28,84.5 C5.28,82.72 5.28,14.26 5.28,12.48 C7.48,6.48 10.44,1.76 12.86,0.42 L22.24,0.42 C28.16,0.42 34.5,5.58 34.5,21.76 L34.5,75.24 Z"/>
      </g>
      <g transform="translate(0 154)">
        <path fill="#4A4A4A" d="M335.332,568.22 L154.672,568.22 C88.592,568.22 57.952,553.36 30.712,524.12 C3.452,494.92 1,448.92 1,391.04 L1,179.18 C1,121.3 3.452,75.32 30.712,46.1 C57.952,16.88 88.592,2 154.672,2 L335.332,2 C401.412,2 432.052,16.88 459.292,46.1 C478.192,66.36 485.152,94.66 487.672,129.42 L486.852,129.42 C482.352,131.9 476.092,145.94 476.092,158.14 L476.092,196.18 C476.092,208.38 482.352,222.42 486.852,224.9 L488.992,224.9 L488.992,391.04 C488.992,448.92 486.552,494.92 459.292,524.12 C432.052,553.36 401.412,568.22 335.332,568.22 Z"/>
        <g transform="translate(.112 .7)">
          <mask id="device-background-b" fill="#fff">
            <use xlink:href="#device-background-a"/>
          </mask>
          <path fill="#111" d="M490.2,302.28 C485.82,306.8 485.36,313.68 484.9,320.24 C484.68,323.46 484.6,326.7 484.58,329.94 C484.54,360.58 484.5,391.2 484.58,421.84 C484.64,430.06 484.64,438.78 487.78,445.7 L488.28,446.8 L486.6,447.6 L486.08,446.5 C482.72,439.04 482.78,430.3 482.72,421.84 C482.64,391 482.58,360.18 482.72,329.34 C482.78,321.36 482.84,313.1 485.64,305.94 C486.36,304.08 488.12,301.76 488.12,301.76 L488.86,300.98 C489.32,301.42 489.76,301.86 490.2,302.28 Z" mask="url(#device-background-b)"/>
        </g>
        <g transform="translate(.112 1.7)">
          <mask id="device-background-d" fill="#fff">
            <use xlink:href="#device-background-c"/>
          </mask>
          <use fill="#A4988B" xlink:href="#device-background-c"/>
          <path fill="#83776C" d="M487.56,128.64 C487.56,128.64 487.08,128.58 486.68,128.88 C484.18,130.82 482.7,133.88 481.36,136.86 C478.62,142.94 477,149.52 476.92,156.16 C476.86,169.12 476.76,182.08 476.92,195.04 C477.1,204.46 479.5,214.5 485.68,221.12 C486.18,221.66 487,222.28 487,222.28 L488.88,222.28 L488.88,224.14 L486.58,224.12 C486.44,224.08 486.3,224.02 486.18,223.96 C486.04,223.88 485.92,223.8 485.78,223.7 C483.6,222.2 482.16,219.76 480.88,217.32 C477.26,210.5 475.2,202.8 475.06,195.06 C474.9,182.1 475,169.12 475.04,156.14 C475.16,146.76 477.76,137.1 483.22,129.82 C484.24,128.48 486.18,126.98 486.18,126.98 C486.62,126.72 487.56,126.78 487.56,126.78 C487.56,127.4 487.56,128.02 487.56,128.64 Z" mask="url(#device-background-d)"/>
        </g>
        <path fill="#F9F5F1" d="M18.112,388.6 C18.112,387.7 18.112,180.98 18.112,180.08 C18.832,128.68 17.732,85.76 42.132,55.52 C68.752,22.54 104.652,18.7 172.252,18.7 L318.112,18.7 C385.712,18.7 421.612,22.54 448.212,55.52 C472.632,85.76 471.532,128.68 472.232,180.08 C472.252,180.98 472.252,387.7 472.232,388.6 C471.532,440 472.632,482.92 448.212,513.16 C421.612,546.14 385.712,549.98 318.112,549.98 L172.252,549.98 C104.652,549.98 68.752,546.14 42.132,513.16 C17.732,482.92 18.832,440 18.112,388.6 Z"/>
      </g>
      <path fill="#83776C" d="M5.88,88.34 C5.88,108.54 5.58,127.26 4.04,144.34 C1.48,139.08 0.64,129.5 0.64,118.84 L0.64,28.54 C0.64,15.64 1.88,4.36 5.88,0.3 L5.88,88.34 Z" transform="translate(483.112 456.7)"/>
    </g>
  </g>
</svg>
