<?xml version="1.0" encoding="UTF-8" standalone="no"?><!DOCTYPE svg PUBLIC "-//W3C//DTD SVG 1.1//EN" "http://www.w3.org/Graphics/SVG/1.1/DTD/svg11.dtd"><svg width="100%" height="100%" viewBox="0 0 1280 720" version="1.1" xmlns="http://www.w3.org/2000/svg" xmlns:xlink="http://www.w3.org/1999/xlink" xml:space="preserve" xmlns:serif="http://www.serif.com/" style="fill-rule:evenodd;clip-rule:evenodd;stroke-linejoin:round;stroke-miterlimit:2;"><g id="Sophisticate"><path d="M409.3,388.6l0,-71.4l45,0l0,6.2l-38.2,0l0,26.1l34.2,0l0,6.4l-34.2,0l0,26.3l39.6,0l0,6.4l-46.4,0Z" style="fill:#fff;fill-rule:nonzero;"/><path d="M507.9,320.9l-2.5,5.5c-2.333,-0.933 -4.917,-1.733 -7.75,-2.4c-2.833,-0.667 -5.583,-1 -8.25,-1c-2.4,0 -4.55,0.3 -6.45,0.9c-1.9,0.6 -3.517,1.433 -4.85,2.5c-1.333,1.067 -2.35,2.283 -3.05,3.65c-0.7,1.367 -1.05,2.85 -1.05,4.45c0,1.933 0.533,3.583 1.6,4.95c1.067,1.367 2.467,2.55 4.2,3.55c1.733,1 3.7,1.917 5.9,2.75c2.2,0.833 4.45,1.683 6.75,2.55c2.3,0.867 4.55,1.85 6.75,2.95c2.2,1.1 4.167,2.45 5.9,4.05c1.733,1.6 3.133,3.5 4.2,5.7c1.067,2.2 1.6,4.867 1.6,8c0,3.133 -0.567,5.95 -1.7,8.45c-1.133,2.5 -2.767,4.633 -4.9,6.4c-2.133,1.767 -4.75,3.133 -7.85,4.1c-3.1,0.967 -6.617,1.45 -10.55,1.45c-2.8,0 -5.383,-0.25 -7.75,-0.75c-2.367,-0.5 -4.467,-1.1 -6.3,-1.8c-1.833,-0.7 -3.433,-1.417 -4.8,-2.15c-1.367,-0.733 -2.45,-1.367 -3.25,-1.9l3.1,-6c1.2,0.733 2.55,1.467 4.05,2.2c1.5,0.733 3.067,1.367 4.7,1.9c1.633,0.533 3.317,0.967 5.05,1.3c1.733,0.333 3.433,0.5 5.1,0.5c1.8,0 3.783,-0.25 5.95,-0.75c2.167,-0.5 4.167,-1.317 6,-2.45c1.833,-1.133 3.367,-2.583 4.6,-4.35c1.233,-1.767 1.85,-3.917 1.85,-6.45c0,-3.133 -0.917,-5.667 -2.75,-7.6c-1.833,-1.933 -4.117,-3.583 -6.85,-4.95c-2.733,-1.367 -5.7,-2.583 -8.9,-3.65c-3.2,-1.067 -6.167,-2.317 -8.9,-3.75c-2.733,-1.433 -5.017,-3.217 -6.85,-5.35c-1.833,-2.133 -2.75,-4.9 -2.75,-8.3c0,-2.4 0.483,-4.717 1.45,-6.95c0.967,-2.233 2.383,-4.183 4.25,-5.85c1.867,-1.667 4.133,-3 6.8,-4c2.667,-1 5.667,-1.5 9,-1.5c1.867,0 3.783,0.15 5.75,0.45c1.967,0.3 3.817,0.667 5.55,1.1c1.733,0.433 3.3,0.883 4.7,1.35c1.4,0.467 2.467,0.867 3.2,1.2Z" style="fill:#fff;fill-rule:nonzero;"/><path d="M548.2,358.4c0,-1.467 0.267,-2.85 0.8,-4.15c0.533,-1.3 1.283,-2.433 2.25,-3.4c0.967,-0.967 2.083,-1.733 3.35,-2.3c1.267,-0.567 2.633,-0.85 4.1,-0.85c1.467,0 2.85,0.283 4.15,0.85c1.3,0.567 2.417,1.333 3.35,2.3c0.933,0.967 1.683,2.1 2.25,3.4c0.567,1.3 0.85,2.683 0.85,4.15c0,1.467 -0.283,2.833 -0.85,4.1c-0.567,1.267 -1.317,2.367 -2.25,3.3c-0.933,0.933 -2.05,1.667 -3.35,2.2c-1.3,0.533 -2.683,0.8 -4.15,0.8c-1.467,0 -2.833,-0.267 -4.1,-0.8c-1.267,-0.533 -2.383,-1.267 -3.35,-2.2c-0.967,-0.933 -1.717,-2.033 -2.25,-3.3c-0.533,-1.267 -0.8,-2.633 -0.8,-4.1Z" style="fill:#fff;fill-rule:nonzero;"/><path d="M593.9,403.2l0,-6.4c2.4,-0.133 4.6,-0.65 6.6,-1.55c2,-0.9 3.717,-2.183 5.15,-3.85c1.433,-1.667 2.567,-3.733 3.4,-6.2c0.833,-2.467 1.25,-5.3 1.25,-8.5l0,-59.5l6.9,0l0,59.8c0,4.133 -0.6,7.817 -1.8,11.05c-1.2,3.233 -2.85,5.95 -4.95,8.15c-2.1,2.2 -4.567,3.9 -7.4,5.1c-2.833,1.2 -5.883,1.833 -9.15,1.9Z" style="fill:#fff;fill-rule:nonzero;"/><path d="M674.9,320.9l-2.5,5.5c-2.333,-0.933 -4.917,-1.733 -7.75,-2.4c-2.833,-0.667 -5.583,-1 -8.25,-1c-2.4,0 -4.55,0.3 -6.45,0.9c-1.9,0.6 -3.517,1.433 -4.85,2.5c-1.333,1.067 -2.35,2.283 -3.05,3.65c-0.7,1.367 -1.05,2.85 -1.05,4.45c0,1.933 0.533,3.583 1.6,4.95c1.067,1.367 2.467,2.55 4.2,3.55c1.733,1 3.7,1.917 5.9,2.75c2.2,0.833 4.45,1.683 6.75,2.55c2.3,0.867 4.55,1.85 6.75,2.95c2.2,1.1 4.167,2.45 5.9,4.05c1.733,1.6 3.133,3.5 4.2,5.7c1.067,2.2 1.6,4.867 1.6,8c0,3.133 -0.567,5.95 -1.7,8.45c-1.133,2.5 -2.767,4.633 -4.9,6.4c-2.133,1.767 -4.75,3.133 -7.85,4.1c-3.1,0.967 -6.617,1.45 -10.55,1.45c-2.8,0 -5.383,-0.25 -7.75,-0.75c-2.367,-0.5 -4.467,-1.1 -6.3,-1.8c-1.833,-0.7 -3.433,-1.417 -4.8,-2.15c-1.367,-0.733 -2.45,-1.367 -3.25,-1.9l3.1,-6c1.2,0.733 2.55,1.467 4.05,2.2c1.5,0.733 3.067,1.367 4.7,1.9c1.633,0.533 3.317,0.967 5.05,1.3c1.733,0.333 3.433,0.5 5.1,0.5c1.8,0 3.783,-0.25 5.95,-0.75c2.167,-0.5 4.167,-1.317 6,-2.45c1.833,-1.133 3.367,-2.583 4.6,-4.35c1.233,-1.767 1.85,-3.917 1.85,-6.45c0,-3.133 -0.917,-5.667 -2.75,-7.6c-1.833,-1.933 -4.117,-3.583 -6.85,-4.95c-2.733,-1.367 -5.7,-2.583 -8.9,-3.65c-3.2,-1.067 -6.167,-2.317 -8.9,-3.75c-2.733,-1.433 -5.017,-3.217 -6.85,-5.35c-1.833,-2.133 -2.75,-4.9 -2.75,-8.3c0,-2.4 0.483,-4.717 1.45,-6.95c0.967,-2.233 2.383,-4.183 4.25,-5.85c1.867,-1.667 4.133,-3 6.8,-4c2.667,-1 5.667,-1.5 9,-1.5c1.867,0 3.783,0.15 5.75,0.45c1.967,0.3 3.817,0.667 5.55,1.1c1.733,0.433 3.3,0.883 4.7,1.35c1.4,0.467 2.467,0.867 3.2,1.2Z" style="fill:#fff;fill-rule:nonzero;"/><path d="M715.2,358.4c0,-1.467 0.267,-2.85 0.8,-4.15c0.533,-1.3 1.283,-2.433 2.25,-3.4c0.967,-0.967 2.083,-1.733 3.35,-2.3c1.267,-0.567 2.633,-0.85 4.1,-0.85c1.467,0 2.85,0.283 4.15,0.85c1.3,0.567 2.417,1.333 3.35,2.3c0.933,0.967 1.683,2.1 2.25,3.4c0.567,1.3 0.85,2.683 0.85,4.15c0,1.467 -0.283,2.833 -0.85,4.1c-0.567,1.267 -1.317,2.367 -2.25,3.3c-0.933,0.933 -2.05,1.667 -3.35,2.2c-1.3,0.533 -2.683,0.8 -4.15,0.8c-1.467,0 -2.833,-0.267 -4.1,-0.8c-1.267,-0.533 -2.383,-1.267 -3.35,-2.2c-0.967,-0.933 -1.717,-2.033 -2.25,-3.3c-0.533,-1.267 -0.8,-2.633 -0.8,-4.1Z" style="fill:#fff;fill-rule:nonzero;"/><path d="M815.5,317.2l0,6.5l-19,0l0,64.9l-6.9,0l0,-64.9l-18.8,0l0,-6.5l44.7,0Z" style="fill:#fff;fill-rule:nonzero;"/><path d="M867.7,320.9l-2.5,5.5c-2.333,-0.933 -4.917,-1.733 -7.75,-2.4c-2.833,-0.667 -5.583,-1 -8.25,-1c-2.4,0 -4.55,0.3 -6.45,0.9c-1.9,0.6 -3.517,1.433 -4.85,2.5c-1.333,1.067 -2.35,2.283 -3.05,3.65c-0.7,1.367 -1.05,2.85 -1.05,4.45c0,1.933 0.533,3.583 1.6,4.95c1.067,1.367 2.467,2.55 4.2,3.55c1.733,1 3.7,1.917 5.9,2.75c2.2,0.833 4.45,1.683 6.75,2.55c2.3,0.867 4.55,1.85 6.75,2.95c2.2,1.1 4.167,2.45 5.9,4.05c1.733,1.6 3.133,3.5 4.2,5.7c1.067,2.2 1.6,4.867 1.6,8c0,3.133 -0.567,5.95 -1.7,8.45c-1.133,2.5 -2.767,4.633 -4.9,6.4c-2.133,1.767 -4.75,3.133 -7.85,4.1c-3.1,0.967 -6.617,1.45 -10.55,1.45c-2.8,0 -5.383,-0.25 -7.75,-0.75c-2.367,-0.5 -4.467,-1.1 -6.3,-1.8c-1.833,-0.7 -3.433,-1.417 -4.8,-2.15c-1.367,-0.733 -2.45,-1.367 -3.25,-1.9l3.1,-6c1.2,0.733 2.55,1.467 4.05,2.2c1.5,0.733 3.067,1.367 4.7,1.9c1.633,0.533 3.317,0.967 5.05,1.3c1.733,0.333 3.433,0.5 5.1,0.5c1.8,0 3.783,-0.25 5.95,-0.75c2.167,-0.5 4.167,-1.317 6,-2.45c1.833,-1.133 3.367,-2.583 4.6,-4.35c1.233,-1.767 1.85,-3.917 1.85,-6.45c0,-3.133 -0.917,-5.667 -2.75,-7.6c-1.833,-1.933 -4.117,-3.583 -6.85,-4.95c-2.733,-1.367 -5.7,-2.583 -8.9,-3.65c-3.2,-1.067 -6.167,-2.317 -8.9,-3.75c-2.733,-1.433 -5.017,-3.217 -6.85,-5.35c-1.833,-2.133 -2.75,-4.9 -2.75,-8.3c0,-2.4 0.483,-4.717 1.45,-6.95c0.967,-2.233 2.383,-4.183 4.25,-5.85c1.867,-1.667 4.133,-3 6.8,-4c2.667,-1 5.667,-1.5 9,-1.5c1.867,0 3.783,0.15 5.75,0.45c1.967,0.3 3.817,0.667 5.55,1.1c1.733,0.433 3.3,0.883 4.7,1.35c1.4,0.467 2.467,0.867 3.2,1.2Z" style="fill:#fff;fill-rule:nonzero;"/></g></svg>