<svg xmlns="http://www.w3.org/2000/svg" width="40" height="40" viewBox="0 0 40 40"><g fill="none" fill-rule="evenodd"><path d="M0 0h40v40H0z"/><path fill="#FFC24A" fill-rule="nonzero" d="M5 32.25l.249-.338L17.015 10.2l.025-.23L11.853.497c-.435-.794-1.658-.593-1.8.295L5 32.25z"/><path fill="#FFA712" d="M5.147 31.992l.188-.357 11.643-21.483L11.804.639c-.43-.785-1.522-.585-1.663.294l-4.994 31.06z"/><path fill="#FFA50E" fill-rule="nonzero" d="M5.147 31.992l.188-.357 11.643-21.483L11.804.639c-.43-.785-1.522-.585-1.663.294l-4.994 31.06z"/><path fill="#F4BD62" fill-rule="nonzero" d="M20.82 17.137l3.863-3.846L20.82 6.12c-.367-.68-1.39-.681-1.754 0l-2.064 3.827v.326l3.819 6.864z"/><path fill="#FFA50E" d="M20.752 16.977l3.754-3.74-3.754-6.952c-.357-.66-1.223-.729-1.575-.067l-2.075 3.887-.062.199 3.712 6.673z"/><path fill="#FFA50E" fill-rule="nonzero" d="M20.752 16.977l3.755-3.74-3.755-6.952c-.356-.66-1.223-.729-1.575-.067l-2.075 3.887-.062.199 3.712 6.673z"/><path fill="#F6820C" fill-rule="nonzero" d="M5 32.25l.11-.11.41-.16 15.06-14.59.19-.5-3.76-6.96z"/><path fill="#F07F0D" fill-rule="nonzero" d="M5.146 32.189l-.093.09L5 32.25l.029-.176 11.984-22.27 3.82 7.078-.2.53-15.07 14.607-.417.17zm.025-.133l-.055.088.373-.214 15.039-14.57.177-.47-3.692-6.84L5.171 32.055z"/><path fill="#FDE068" fill-rule="nonzero" d="M21.303 39.607l13.626-7.39-3.89-23.304c-.123-.73-1.042-1.018-1.58-.495L5 32.25l13.548 7.356a2.897 2.897 0 0 0 2.755.001"/><path fill="#FCCA3F" fill-rule="nonzero" d="M30.946 9.028c-.121-.724-.886-1.023-1.419-.504L5.151 32.205l13.4 7.283a2.873 2.873 0 0 0 2.734 0l13.522-7.333-3.861-23.127z"/><path fill="#EEAB37" fill-rule="nonzero" d="M21.303 39.39a2.9 2.9 0 0 1-2.755-.001l-13.439-7.25L5 32.25l13.548 7.356a2.897 2.897 0 0 0 2.755.001l13.626-7.39-.033-.2-13.593 7.372z"/></g></svg>