<svg xmlns="http://www.w3.org/2000/svg" width="40" height="40" viewBox="0 0 40 40">
  <g fill="none" fill-rule="evenodd">
    <rect width="40" height="40"/>
    <g transform="translate(5)">
      <path fill="#FFC24A" fill-rule="nonzero" d="M0,32.2504843 L0.248789063,31.9117949 L12.0148828,10.2007977 L12.0397266,9.97094017 L6.853125,0.496638177 C6.41835938,-0.296980057 5.19492188,-0.0962962963 5.05242188,0.792136752 L0,32.2504843 Z"/>
      <path fill="#FFA712" d="M0.0296484375,31.8782906 L0.217734375,31.5214815 L11.8606641,10.0379487 L6.68683594,0.525128205 C6.256875,-0.26017094 5.16492187,-0.0599430199 5.02382812,0.819145299 L0.0296484375,31.8782906 Z" transform="translate(.117 .114)"/>
      <path fill="#FFA50E" fill-rule="nonzero" d="M0.146835937,31.9922507 L0.334921875,31.6354416 L11.9778516,10.1519088 L6.80402344,0.639088319 C6.3740625,-0.146210826 5.28210937,0.054017094 5.14101562,0.933105413 L0.146835937,31.9922507 Z"/>
      <path fill="#F4BD62" fill-rule="nonzero" d="M15.8208984,17.1373219 L19.6828125,13.2911681 L15.8197266,6.11965812 C15.4530469,5.44079772 14.4291797,5.43874644 14.0663672,6.11965812 L12.0023438,9.94723647 L12.0023438,10.2731624 L15.8207813,17.1373219 L15.8208984,17.1373219 Z"/>
      <path fill="#FFA50E" d="M3.79886719,11.2790883 L7.5534375,7.53982906 L3.79886719,0.587464387 C3.44238281,-0.0724786325 2.57625,-0.141652422 2.22351563,0.52022792 L0.148710938,4.40729345 L0.0866015625,4.60603989 L3.79886719,11.2790883 L3.79886719,11.2790883 Z" transform="translate(11.953 5.698)"/>
      <path fill="#FFA50E" fill-rule="nonzero" d="M15.7519922,16.977094 L19.5065625,13.2378348 L15.7519922,6.28547009 C15.3955078,5.62552707 14.529375,5.55635328 14.1766406,6.21823362 L12.1018359,10.1052991 L12.0397266,10.3040456 L15.7519922,16.977094 L15.7519922,16.977094 Z"/>
      <polygon fill="#F6820C" fill-rule="nonzero" points="0 32.25 .113 32.14 .522 31.978 15.578 17.391 15.769 16.886 12.013 9.926"/>
      <path fill="#F07F0D" fill-rule="nonzero" d="M0.145864719,32.1885857 L0.0530849733,32.279373 L0.000212788582,32.2504688 L0.0289550755,32.0737859 L12.0131698,9.80373849 L15.8330686,16.8824102 L15.6333193,17.4111037 L0.563776785,32.0187134 L0.145864719,32.1885857 Z M0.170968879,32.0556677 L0.11641236,32.1435597 L0.489431943,31.9298773 L15.5277887,17.359978 L15.7051346,16.8905813 L12.0133146,10.049253 L0.170968879,32.0556677 Z"/>
      <path fill="#FDE068" fill-rule="nonzero" d="M16.3032422,39.6069516 L29.9292188,32.2169801 L26.038125,8.91270655 C25.9163672,8.18358974 24.9965625,7.89538462 24.4598438,8.41811966 L0,32.2504843 L13.5478125,39.6063818 C14.4040336,40.0712556 15.4468179,40.0714713 16.3032422,39.6069516"/>
      <path fill="#FCCA3F" fill-rule="nonzero" d="M25.9455469,9.02769231 C25.8248438,8.30404558 25.0598438,8.00467236 24.5272266,8.52353276 L0.151171875,32.2051282 L13.5502734,39.4880912 C14.3999591,39.9494481 15.434797,39.9497069 16.2847266,39.4887749 L29.8072266,32.1548718 L25.9455469,9.02769231 Z"/>
      <path fill="#EEAB37" fill-rule="nonzero" d="M16.303125,39.3891738 C15.4467311,39.8536511 14.4040032,39.8534355 13.5478125,39.388604 L0.109101562,32.1384615 L0.000117187499,32.2504843 L13.5478125,39.6063818 C14.4040336,40.0712556 15.4468179,40.0714713 16.3032422,39.6069516 L29.9292187,32.2169801 L29.8958203,32.0173219 L16.3032422,39.3892877 L16.303125,39.3891738 Z"/>
    </g>
  </g>
</svg>
