<svg xmlns="http://www.w3.org/2000/svg" width="40" height="40" viewBox="0 0 40 40">
  <g fill="none" transform="translate(0 1)">
    <path fill="#414042" d="M13.7306139,19.6787559 C13.7306139,18.2481164 12.5711051,17.0886076 11.1393918,17.0886076 C9.70839435,17.0886076 8.54816969,18.2481164 8.54816969,19.6787559 C8.54816969,21.1093954 9.70839435,22.269978 11.1393918,22.269978 C12.5711051,22.269978 13.7306139,21.1093954 13.7306139,19.6787559" transform="matrix(1 0 0 -1 0 39.359)"/>
    <path fill="#478CBF" d="M31.6460901,27.6845734 L37.4686891,27.1229838 L37.4574144,28.5713408 C37.4574144,34.6615377 29.8116075,37.6204443 20.2510968,37.7120067 L19.937002,37.7139039 C10.3383952,37.6802408 2.59397112,34.7818995 2.4400425,28.754934 L2.42784717,27.2987476 L2.42784717,27.2987476 L2.42696944,27.1229838 L8.251716,27.6845734 L8.45233483,30.5592747 C8.4758047,30.89585 8.73655621,31.1657163 9.06905436,31.2036666 L9.09857442,31.2064091 L15.9985377,31.6987395 C16.352623,31.7247034 16.6680237,31.4791971 16.7334442,31.1328761 L16.7381965,31.1045785 L17.1338863,28.4211898 L22.7639199,28.4211898 L23.1596096,31.1045785 C23.2102565,31.4489055 23.5060842,31.7005291 23.8489796,31.7005291 L23.8740569,31.7001041 L23.8740569,31.7001041 L23.8992685,31.6987395 L30.7992317,31.2064091 C31.1358071,31.1822438 31.4055045,30.9213035 31.4427889,30.5887952 L31.4454713,30.5592747 L31.6460901,27.6845734 Z M24.0060736,0.0894277941 C25.8295395,0.494602656 27.6322455,1.05869769 29.322741,1.90949332 C29.2839057,3.40205442 29.187444,4.83215704 28.9923731,6.28480913 C29.6475609,6.70537491 30.3383626,7.06634563 30.9513148,7.55867603 L31.4200415,7.91615135 C31.8883041,8.27357075 32.3513067,8.63657718 32.7742438,9.05696399 C33.9011811,8.31157826 35.0943352,7.61111253 36.3227452,6.99279136 C37.6472589,8.4182409 38.8864068,9.9567958 39.8977332,11.678431 C39.1810344,12.8372766 38.4354833,13.9277963 37.6348202,14.9652088 L37.4840436,15.159105 L37.4600624,15.159105 L37.4600624,24.8813331 L37.4573779,24.8822279 L37.4573779,25.7253281 L37.4284976,25.7260663 L37.3997515,25.7280125 L30.9244702,26.3525974 C30.595134,26.3845583 30.335089,26.6426007 30.298314,26.9686548 L30.2955901,26.9984791 L30.0960451,29.8579685 L24.4452517,30.2611747 L24.0560046,27.6219902 C24.0069787,27.2895873 23.7286086,27.0407818 23.3956167,27.0268357 L23.3660978,27.0262185 L16.5318144,27.0262185 C16.1955868,27.0262185 15.9090109,27.2655268 15.8466452,27.5928814 L15.8417286,27.6219902 L15.4524816,30.2611747 L9.80186712,29.8579685 L9.60214312,26.9984791 C9.57921465,26.6684481 9.32801306,26.4014704 9.00300798,26.3561065 L8.97326305,26.3525974 L2.49547627,25.7280125 L2.46664067,25.7260663 L2.43767084,25.7253281 L2.43767084,15.159105 L2.41368964,15.159105 C1.55573545,14.0638443 0.761134578,12.9097045 0,11.678431 C1.0116844,9.9567958 2.2501164,8.4182409 3.57463016,6.99279136 C4.80339809,7.61111253 5.99619423,8.31157826 7.12313155,9.05696399 C7.68722659,8.49644824 8.32344418,8.03794206 8.94641843,7.55867603 C9.55954964,7.06634563 10.2494565,6.70537491 10.905897,6.28480913 C10.7102892,4.83215704 10.6138275,3.40205442 10.5751713,1.90949332 C12.2654878,1.05869769 14.0683727,0.494602656 15.8909437,0.0894277941 C16.6200437,1.31300577 17.2854325,2.63805642 17.8649184,3.93339902 C18.5035521,3.82671081 19.144346,3.78236422 19.7874436,3.76998204 L19.9358917,3.7676782 C19.9401869,3.76660442 19.944661,3.7676782 19.9489561,3.7676782 L19.9623784,3.76660442 C20.6540749,3.77591055 21.3448766,3.81850403 22.0324569,3.93339902 C22.6123008,2.63805642 23.2780474,1.31300577 24.0060736,0.0894277941 Z M19.9485807,17.8298407 C19.2665235,17.8298407 18.7115084,18.3243537 18.6925727,18.9393344 L18.6920733,18.9718111 L18.6920733,22.5655904 C18.6920733,23.1960811 19.2545576,23.7075607 19.9485807,23.7075607 C20.6306378,23.7075607 21.1868628,23.2135663 21.2058403,22.5980938 L21.2063408,22.5655904 L21.2063408,18.9718111 C21.2063408,18.3418572 20.6426037,17.8298407 19.9485807,17.8298407 Z M10.7661803,15.5465087 C8.61109391,15.5465087 6.86297198,17.292841 6.86297198,19.4482854 C6.86297198,21.6051615 8.61109391,23.3523886 10.7661803,23.3523886 C12.9223406,23.3523886 14.6699256,21.6051615 14.6699256,19.4482854 C14.6699256,17.292841 12.9223406,15.5465087 10.7661803,15.5465087 Z M29.1319845,15.5465087 C26.9754663,15.5465087 25.2278813,17.292841 25.2278813,19.4482854 C25.2278813,21.6051615 26.9754663,23.3523886 29.1319845,23.3523886 C31.2868919,23.3523886 33.0348349,21.6051615 33.0348349,19.4482854 C33.0348349,17.292841 31.2868919,15.5465087 29.1319845,15.5465087 Z"/>
    <path fill="#414042" d="M26.1674256,19.6787559 C26.1674256,18.2481164 27.3265765,17.0886076 28.757216,17.0886076 C30.1892872,17.0886076 31.3484381,18.2481164 31.3484381,19.6787559 C31.3484381,21.1093954 30.1892872,22.269978 28.757216,22.269978 C27.3265765,22.269978 26.1674256,21.1093954 26.1674256,19.6787559" transform="matrix(1 0 0 -1 0 39.359)"/>
  </g>
</svg>
