<?xml version="1.0" encoding="UTF-8" standalone="no"?><!DOCTYPE svg PUBLIC "-//W3C//DTD SVG 1.1//EN" "http://www.w3.org/Graphics/SVG/1.1/DTD/svg11.dtd"><svg width="100%" height="100%" viewBox="0 0 1280 720" version="1.1" xmlns="http://www.w3.org/2000/svg" xmlns:xlink="http://www.w3.org/1999/xlink" xml:space="preserve" xmlns:serif="http://www.serif.com/" style="fill-rule:evenodd;clip-rule:evenodd;stroke-linejoin:round;stroke-miterlimit:2;"><g id="Genetrainer"><g><path d="M629.378,311.8c0,0.216 -0.735,0.604 -1.6,0.863c-2.507,0.648 -6.096,2.894 -8.171,5.053c-3.589,3.67 -4.41,6.304 -6.27,19.562c-0.216,1.554 -0.562,4.059 -0.821,5.613c-0.259,1.555 -0.649,4.146 -0.865,5.83c-0.216,1.641 -0.605,4.189 -0.821,5.614c-0.216,1.425 -0.649,4.059 -0.908,5.83c-0.649,4.188 -0.995,6.391 -2.421,15.545c-0.649,4.146 -1.168,7.946 -1.211,8.421c-0.043,0.821 0.259,0.864 6.572,0.993c7.609,0.13 7.047,0.432 7.609,-4.663c0.606,-5.269 5.88,-41.974 6.14,-42.363c0.13,-0.216 3.329,-0.389 7.091,-0.389c7.912,0 6.961,0.691 7.782,-5.397c0.303,-1.9 0.605,-3.887 0.735,-4.448l0.216,-0.95l-6.745,0c-5.75,0 -6.831,-0.087 -7.047,-0.691c-0.13,-0.346 0.086,-2.937 0.519,-5.7c1.167,-7.816 1.254,-9.155 0.692,-9.155c-0.26,0 -0.476,0.173 -0.476,0.432Z" style="fill:#fff;"/><path d="M668.29,326.741c-3.761,0.561 -6.269,1.339 -9.511,2.85c-7.005,3.325 -12.15,9.932 -14.874,19.087c-0.605,1.9 -2.075,9.802 -3.242,17.532c-1.211,7.73 -2.378,15.071 -2.551,16.323c-0.476,2.807 -0.692,2.764 7.696,2.591l6.226,-0.129l1.599,-11.444c2.206,-15.718 2.465,-17.489 3.459,-21.073c2.421,-9.155 7.48,-14.034 14.874,-14.38c1.08,-0.086 2.161,-0.345 2.377,-0.604c0.217,-0.26 0.735,-2.678 1.211,-5.355l0.778,-4.88l-0.994,-0.388c-0.995,-0.389 -4.843,-0.432 -7.048,-0.13Z" style="fill:#fff;"/><path d="M894.631,326.827c-2.465,0.087 -4.886,0.648 -8.647,1.944c-10.291,3.497 -18.03,12.393 -20.97,24.052c-0.908,3.714 -5.102,31.74 -4.799,32.085c0.173,0.173 3.199,0.259 6.745,0.216l6.442,-0.129l0.303,-1.209c0.173,-0.691 0.518,-2.807 0.778,-4.751c2.248,-18.05 3.199,-22.757 5.794,-29.105c1.902,-4.664 5.274,-8.809 8.387,-10.321c0.908,-0.431 2.897,-0.993 4.454,-1.252l2.767,-0.475l0.519,-2.764c1.643,-8.809 1.729,-8.507 -1.773,-8.291Z" style="fill:#fff;"/><path d="M467.459,327.561c-14.008,3.066 -23.088,12.48 -26.374,27.292c-1.945,8.896 -1.427,17.791 1.427,23.017c5.491,10.148 19.932,11.573 35.108,3.411c3.415,-1.857 8.344,-5.312 9.728,-6.909l0.864,-0.907l-3.848,-3.584l-3.848,-3.541l-2.637,2.116c-5.448,4.404 -13.36,7.082 -17.554,5.959c-4.54,-1.209 -7.35,-6.218 -7.35,-12.998c0,-13.257 8.82,-23.837 19.327,-23.189c1.599,0.086 3.502,0.431 4.237,0.82c2.68,1.296 2.853,4.362 0.389,7.212c-1.773,2.116 -3.891,3.152 -7.523,3.757l-2.767,0.475l-0.519,2.547c-0.26,1.425 -0.605,3.325 -0.735,4.189l-0.26,1.641l2.249,0c5.188,0 12.798,-2.461 17.208,-5.527c4.583,-3.196 7.306,-8.507 7.306,-14.121c0,-6.089 -3.848,-10.148 -11.198,-11.703c-3.545,-0.734 -9.771,-0.734 -13.23,0.043Z" style="fill:#fff;"/><path d="M523.536,327.346c-6.745,0.95 -14.311,3.929 -20.494,8.118c-3.286,2.202 -3.286,2.245 -3.588,4.491c-0.13,1.252 -0.433,3.239 -0.649,4.448c-0.173,1.166 -0.562,3.627 -0.864,5.398c-0.26,1.77 -1.514,10.148 -2.811,18.568c-1.297,8.421 -2.378,15.676 -2.378,16.108c0,0.69 0.519,0.734 6.615,0.647l6.572,-0.129l0.519,-3.023c0.303,-1.684 1.254,-7.773 2.075,-13.603c2.767,-19.259 3.2,-21.505 4.367,-23.362c2.465,-3.972 8.345,-6.866 13.922,-6.866c2.81,0 4.583,0.864 5.534,2.678c0.822,1.554 0.735,2.461 -1.124,14.595c-0.259,1.771 -0.648,4.319 -0.864,5.614c-0.217,1.296 -1.038,6.78 -1.903,12.135c-0.865,5.354 -1.6,10.234 -1.643,10.795l-0.13,1.037l14.225,0l0.951,-6.694c1.557,-10.839 1.946,-13.473 2.335,-15.977c0.216,-1.296 0.605,-3.8 0.822,-5.528c0.994,-6.779 1.426,-9.457 1.816,-11.443c0.605,-3.109 0.475,-7.212 -0.26,-9.716c-1.167,-3.887 -4.107,-6.391 -9.079,-7.687c-2.811,-0.777 -10.507,-1.079 -13.966,-0.604Z" style="fill:#fff;"/><path d="M580.954,327.216c-18.159,3.066 -29.141,17.489 -29.098,38.346c0,4.923 0.173,6.564 0.865,8.723c1.772,5.355 4.539,8.507 9.511,10.839c2.379,1.123 2.811,1.166 8.777,1.123c5.881,0 6.529,-0.086 10.377,-1.425c4.886,-1.641 9.382,-3.973 13.922,-7.255c5.491,-3.973 5.448,-3.498 1.167,-7.47c-1.988,-1.857 -3.891,-3.412 -4.194,-3.455c-0.345,0 -1.556,0.864 -2.767,1.9c-2.853,2.505 -7.739,4.88 -11.673,5.7c-4.454,0.95 -6.961,0.346 -9.599,-2.245c-6.01,-6.046 -4.28,-20.642 3.416,-28.458c3.199,-3.282 6.529,-4.966 10.333,-5.268c3.632,-0.302 5.578,0.086 7.221,1.468c1.21,1.036 1.34,1.339 1.124,3.023c-0.389,3.541 -3.373,6.132 -8.172,7.039c-1.253,0.259 -2.68,0.561 -3.199,0.647c-0.778,0.173 -0.951,0.648 -1.254,3.11c-0.173,1.641 -0.346,3.497 -0.389,4.188l-0.043,1.296l2.378,-0.13c3.675,-0.172 9.382,-1.684 13.23,-3.498c4.41,-2.116 8.258,-6.002 9.685,-9.759c1.167,-3.152 1.297,-9.284 0.259,-11.357c-2.464,-4.664 -8.863,-7.427 -17.121,-7.298c-2.032,0 -4.151,0.13 -4.756,0.216Z" style="fill:#fff;"/><path d="M684.979,327.389c-0.129,0.345 -0.389,2.245 -0.691,4.275c-0.26,2.029 -0.562,4.189 -0.692,4.836l-0.259,1.209l5.577,0c6.615,0 9.815,0.475 12.798,1.857c2.897,1.339 4.929,3.369 6.312,6.348c0.952,1.987 1.124,2.98 1.124,6.262c0,5.57 -1.47,9.802 -5.318,15.071c-5.534,7.6 -16.516,10.709 -21.228,6.002c-1.298,-1.296 -1.427,-1.598 -1.168,-3.196c0.865,-5.311 5.621,-8.593 12.409,-8.593l2.94,0l0.432,-2.289c0.216,-1.209 0.562,-3.282 0.692,-4.534l0.303,-2.245l-3.243,0c-1.773,0 -4.669,0.259 -6.442,0.604c-12.063,2.332 -18.808,9.457 -19.067,20.339c-0.087,3.066 0.043,3.671 1.081,5.441c3.113,5.312 7.869,7.298 17.467,7.298c4.842,0 6.269,-0.172 9.512,-1.122c5.923,-1.685 9.339,-3.714 13.619,-7.946c3.07,-3.066 4.021,-4.362 5.707,-7.773c3.027,-6.132 4.324,-11.789 4.324,-18.785c0,-4.707 -0.13,-6.045 -0.951,-8.377c-2.508,-7.212 -7.696,-11.703 -15.911,-13.905c-4.367,-1.166 -19.024,-1.77 -19.327,-0.777Z" style="fill:#fff;"/><path d="M733.188,327.864c-0.217,0.561 -1.081,5.959 -1.946,12.005c-1.556,10.579 -1.989,13.516 -2.897,19.216c-0.216,1.425 -0.605,3.93 -0.865,5.614c-0.216,1.641 -1.08,6.823 -1.859,11.443c-0.951,5.7 -1.254,8.507 -0.908,8.723c0.649,0.475 13.533,0.432 13.836,-0.043c0.13,-0.259 0.605,-3.023 1.081,-6.175c0.951,-6.909 2.507,-17.36 3.026,-20.642c0.217,-1.295 0.606,-3.843 0.865,-5.613c0.259,-1.771 0.692,-4.491 0.908,-6.046c0.259,-1.555 0.649,-3.973 0.865,-5.398c1.21,-8.161 -0.649,-11.702 -7.005,-13.43c-3.415,-0.863 -4.669,-0.777 -5.101,0.346Z" style="fill:#fff;"/><path d="M780.488,327.216c-7.393,0.907 -14.268,3.541 -21.229,8.162l-3.545,2.331l-0.26,2.462c-0.173,1.382 -0.475,3.584 -0.692,4.88c-0.216,1.295 -0.605,3.843 -0.864,5.613c-0.26,1.771 -0.649,4.448 -0.865,5.916c-0.259,1.512 -0.605,3.973 -0.865,5.528c-0.648,4.318 -1.167,7.6 -2.378,14.984c-0.605,3.714 -1.081,7.082 -1.081,7.428c0,0.604 0.865,0.691 6.443,0.691c4.323,0 6.571,-0.173 6.788,-0.475c0.173,-0.259 0.864,-4.319 1.513,-8.982c2.508,-16.928 3.502,-23.621 4.107,-27.206c0.692,-4.145 4.583,-7.859 9.988,-9.543c6.572,-2.03 11.371,-0.389 11.371,3.93c0,0.82 -0.303,3.454 -0.649,5.829c-0.345,2.332 -0.864,5.614 -1.124,7.298c-0.865,5.83 -1.21,7.859 -2.724,17.489c-0.864,5.355 -1.599,10.105 -1.686,10.58c-0.086,0.821 0.216,0.864 6.961,0.993c5.405,0.087 7.091,0 7.221,-0.432c0.129,-0.302 0.907,-5.441 1.772,-11.357c0.822,-5.959 1.73,-11.961 1.903,-13.386c0.216,-1.425 0.605,-3.973 0.864,-5.614c0.217,-1.684 0.649,-4.189 0.865,-5.614c0.259,-1.425 0.562,-4.448 0.692,-6.736c0.475,-6.91 -1.513,-10.753 -6.615,-13.042c-3.675,-1.641 -10.636,-2.375 -15.911,-1.727Z" style="fill:#fff;"/><path d="M833.582,327.993c-6.226,1.598 -10.463,4.016 -15.09,8.637c-3.286,3.282 -4.194,4.534 -5.88,7.989c-3.718,7.6 -4.799,12.35 -4.799,20.943c0.043,5.312 0.173,6.435 1.124,9.155c2.421,6.953 7.048,10.71 14.571,11.746c4.626,0.604 9.901,-0.13 15.478,-2.159c5.016,-1.814 11.631,-5.744 15.262,-9.025l1.903,-1.685l-3.675,-3.454c-2.032,-1.9 -3.848,-3.455 -4.021,-3.498c-0.173,0 -1.6,0.95 -3.113,2.116c-5.621,4.318 -13.014,6.78 -16.992,5.7c-5.448,-1.511 -8.69,-8.637 -7.436,-16.409c1.513,-9.846 6.658,-16.842 13.921,-19.13c5.837,-1.814 11.588,-0.216 11.588,3.195c0,1.684 -0.951,3.8 -2.205,4.966c-1.47,1.339 -4.67,2.677 -7.177,2.98c-2.638,0.388 -3.157,0.777 -3.157,2.72c0,0.864 -0.216,2.419 -0.475,3.455c-0.649,2.85 -0.519,2.936 3.199,2.591c7.134,-0.691 14.138,-3.498 18.03,-7.298c4.539,-4.405 6.442,-11.832 4.323,-16.755c-2.248,-5.182 -8.085,-7.859 -17.078,-7.816c-3.113,0 -5.448,0.302 -8.301,1.036Z" style="fill:#fff;"/><path d="M409.739,328.209c-4.107,0.518 -8.474,1.9 -11.674,3.757c-3.718,2.159 -9.382,7.816 -11.327,11.357c-2.551,4.578 -4.238,10.58 -4.238,15.028c0,2.979 1.47,8.377 3.027,11.141c2.464,4.275 7.826,8.205 13.23,9.63c4.843,1.295 11.933,0.216 17.424,-2.634c1.254,-0.648 2.465,-1.209 2.724,-1.209c0.562,0 0.087,2.806 -0.951,5.57c-1.773,4.837 -4.929,8.291 -9.815,10.666c-3.069,1.512 -4.669,1.9 -10.679,2.462l-5.102,0.518l-0.562,1.727c-1.6,4.923 -2.378,7.557 -2.378,7.989c0,0.561 5.405,0.561 9.815,0c12.668,-1.641 17.51,-3.498 22.872,-8.852c4.366,-4.319 7.22,-10.537 8.431,-18.353c0.518,-3.412 1.124,-7.471 1.686,-11.444c0.259,-1.9 0.648,-4.62 0.865,-6.045c0.216,-1.425 0.605,-3.843 0.821,-5.398c0.216,-1.555 0.649,-4.275 0.908,-6.046c0.259,-1.77 0.649,-4.318 0.865,-5.613c1.383,-9.155 1.772,-11.789 1.599,-11.919c-0.259,-0.302 -4.323,-0.95 -9.641,-1.641c-6.745,-0.82 -14.398,-1.123 -17.9,-0.691Zm10.593,10.494c2.421,0.518 2.594,0.647 2.724,1.813c0.086,0.734 -0.043,2.764 -0.346,4.535c-0.26,1.77 -0.692,4.491 -0.908,6.045c-1.34,8.594 -3.978,12.912 -9.771,15.762c-2.205,1.079 -2.984,1.209 -6.356,1.166c-2.119,0 -4.021,-0.216 -4.28,-0.475c-0.26,-0.259 -0.822,-0.475 -1.254,-0.475c-0.476,0 -1.73,-0.907 -2.854,-2.073c-2.983,-2.98 -3.718,-6.348 -2.508,-11.314c2.033,-8.291 6.183,-12.998 13.144,-14.898c2.594,-0.734 9.08,-0.777 12.409,-0.086Z" style="fill:#fff;"/></g></g></svg>