<svg xmlns="http://www.w3.org/2000/svg" fill-rule="evenodd" stroke-linejoin="round" stroke-miterlimit="1.41" clip-rule="evenodd" viewBox="0 0 1280 720" width="1280" height="720"><path fill="#fff" d="M629.378 311.8c0 .216-.735.604-1.6.863-2.507.648-6.096 2.894-8.171 5.053-3.589 3.67-4.41 6.304-6.27 19.562-.216 1.554-.562 4.059-.821 5.613a188.345 188.345 0 0 0-.865 5.83c-.216 1.641-.605 4.189-.821 5.614-.216 1.425-.649 4.059-.908 5.83-.649 4.188-.995 6.391-2.421 15.545-.649 4.146-1.168 7.946-1.211 8.421-.043.821.259.864 6.572.993 7.609.13 7.047.432 7.609-4.663.606-5.269 5.88-41.974 6.14-42.363.13-.216 3.329-.389 7.091-.389 7.912 0 6.961.691 7.782-5.397.303-1.9.605-3.887.735-4.448l.216-.95h-6.745c-5.75 0-6.831-.087-7.047-.691-.13-.346.086-2.937.519-5.7 1.167-7.816 1.254-9.155.692-9.155-.26 0-.476.173-.476.432zm38.912 14.941c-3.761.561-6.269 1.339-9.511 2.85-7.005 3.325-12.15 9.932-14.874 19.087-.605 1.9-2.075 9.802-3.242 17.532-1.211 7.73-2.378 15.071-2.551 16.323-.476 2.807-.692 2.764 7.696 2.591l6.226-.129 1.599-11.444c2.206-15.718 2.465-17.489 3.459-21.073 2.421-9.155 7.48-14.034 14.874-14.38 1.08-.086 2.161-.345 2.377-.604.217-.26.735-2.678 1.211-5.355l.778-4.88-.994-.388c-.995-.389-4.843-.432-7.048-.13zm226.341.086c-2.465.087-4.886.648-8.647 1.944-10.291 3.497-18.03 12.393-20.97 24.052-.908 3.714-5.102 31.74-4.799 32.085.173.173 3.199.259 6.745.216l6.442-.129.303-1.209c.173-.691.518-2.807.778-4.751 2.248-18.05 3.199-22.757 5.794-29.105 1.902-4.664 5.274-8.809 8.387-10.321.908-.431 2.897-.993 4.454-1.252l2.767-.475.519-2.764c1.643-8.809 1.729-8.507-1.773-8.291zm-427.172.734c-14.008 3.066-23.088 12.48-26.374 27.292-1.945 8.896-1.427 17.791 1.427 23.017 5.491 10.148 19.932 11.573 35.108 3.411 3.415-1.857 8.344-5.312 9.728-6.909l.864-.907-3.848-3.584-3.848-3.541-2.637 2.116c-5.448 4.404-13.36 7.082-17.554 5.959-4.54-1.209-7.35-6.218-7.35-12.998 0-13.257 8.82-23.837 19.327-23.189 1.599.086 3.502.431 4.237.82 2.68 1.296 2.853 4.362.389 7.212-1.773 2.116-3.891 3.152-7.523 3.757l-2.767.475-.519 2.547c-.26 1.425-.605 3.325-.735 4.189l-.26 1.641h2.249c5.188 0 12.798-2.461 17.208-5.527 4.583-3.196 7.306-8.507 7.306-14.121 0-6.089-3.848-10.148-11.198-11.703-3.545-.734-9.771-.734-13.23.043zm56.077-.215c-6.745.95-14.311 3.929-20.494 8.118-3.286 2.202-3.286 2.245-3.588 4.491-.13 1.252-.433 3.239-.649 4.448a311.407 311.407 0 0 1-.864 5.398c-.26 1.77-1.514 10.148-2.811 18.568-1.297 8.421-2.378 15.676-2.378 16.108 0 .69.519.734 6.615.647l6.572-.129.519-3.023c.303-1.684 1.254-7.773 2.075-13.603 2.767-19.259 3.2-21.505 4.367-23.362 2.465-3.972 8.345-6.866 13.922-6.866 2.81 0 4.583.864 5.534 2.678.822 1.554.735 2.461-1.124 14.595a358.204 358.204 0 0 1-.864 5.614c-.217 1.296-1.038 6.78-1.903 12.135-.865 5.354-1.6 10.234-1.643 10.795l-.13 1.037h14.225l.951-6.694c1.557-10.839 1.946-13.473 2.335-15.977.216-1.296.605-3.8.822-5.528.994-6.779 1.426-9.457 1.816-11.443.605-3.109.475-7.212-.26-9.716-1.167-3.887-4.107-6.391-9.079-7.687-2.811-.777-10.507-1.079-13.966-.604zm57.418-.13c-18.159 3.066-29.141 17.489-29.098 38.346 0 4.923.173 6.564.865 8.723 1.772 5.355 4.539 8.507 9.511 10.839 2.379 1.123 2.811 1.166 8.777 1.123 5.881 0 6.529-.086 10.377-1.425 4.886-1.641 9.382-3.973 13.922-7.255 5.491-3.973 5.448-3.498 1.167-7.47-1.988-1.857-3.891-3.412-4.194-3.455-.345 0-1.556.864-2.767 1.9-2.853 2.505-7.739 4.88-11.673 5.7-4.454.95-6.961.346-9.599-2.245-6.01-6.046-4.28-20.642 3.416-28.458 3.199-3.282 6.529-4.966 10.333-5.268 3.632-.302 5.578.086 7.221 1.468 1.21 1.036 1.34 1.339 1.124 3.023-.389 3.541-3.373 6.132-8.172 7.039-1.253.259-2.68.561-3.199.647-.778.173-.951.648-1.254 3.11-.173 1.641-.346 3.497-.389 4.188l-.043 1.296 2.378-.13c3.675-.172 9.382-1.684 13.23-3.498 4.41-2.116 8.258-6.002 9.685-9.759 1.167-3.152 1.297-9.284.259-11.357-2.464-4.664-8.863-7.427-17.121-7.298-2.032 0-4.151.13-4.756.216zm104.025.173c-.129.345-.389 2.245-.691 4.275-.26 2.029-.562 4.189-.692 4.836l-.259 1.209h5.577c6.615 0 9.815.475 12.798 1.857 2.897 1.339 4.929 3.369 6.312 6.348.952 1.987 1.124 2.98 1.124 6.262 0 5.57-1.47 9.802-5.318 15.071-5.534 7.6-16.516 10.709-21.228 6.002-1.298-1.296-1.427-1.598-1.168-3.196.865-5.311 5.621-8.593 12.409-8.593h2.94l.432-2.289c.216-1.209.562-3.282.692-4.534l.303-2.245h-3.243c-1.773 0-4.669.259-6.442.604-12.063 2.332-18.808 9.457-19.067 20.339-.087 3.066.043 3.671 1.081 5.441 3.113 5.312 7.869 7.298 17.467 7.298 4.842 0 6.269-.172 9.512-1.122 5.923-1.685 9.339-3.714 13.619-7.946 3.07-3.066 4.021-4.362 5.707-7.773 3.027-6.132 4.324-11.789 4.324-18.785 0-4.707-.13-6.045-.951-8.377-2.508-7.212-7.696-11.703-15.911-13.905-4.367-1.166-19.024-1.77-19.327-.777zm48.209.475c-.217.561-1.081 5.959-1.946 12.005-1.556 10.579-1.989 13.516-2.897 19.216-.216 1.425-.605 3.93-.865 5.614-.216 1.641-1.08 6.823-1.859 11.443-.951 5.7-1.254 8.507-.908 8.723.649.475 13.533.432 13.836-.043.13-.259.605-3.023 1.081-6.175.951-6.909 2.507-17.36 3.026-20.642.217-1.295.606-3.843.865-5.613.259-1.771.692-4.491.908-6.046.259-1.555.649-3.973.865-5.398 1.21-8.161-.649-11.702-7.005-13.43-3.415-.863-4.669-.777-5.101.346zm47.3-.648c-7.393.907-14.268 3.541-21.229 8.162l-3.545 2.331-.26 2.462a145.532 145.532 0 0 1-.692 4.88 359.761 359.761 0 0 0-.864 5.613c-.26 1.771-.649 4.448-.865 5.916-.259 1.512-.605 3.973-.865 5.528-.648 4.318-1.167 7.6-2.378 14.984-.605 3.714-1.081 7.082-1.081 7.428 0 .604.865.691 6.443.691 4.323 0 6.571-.173 6.788-.475.173-.259.864-4.319 1.513-8.982 2.508-16.928 3.502-23.621 4.107-27.206.692-4.145 4.583-7.859 9.988-9.543 6.572-2.03 11.371-.389 11.371 3.93 0 .82-.303 3.454-.649 5.829-.345 2.332-.864 5.614-1.124 7.298-.865 5.83-1.21 7.859-2.724 17.489-.864 5.355-1.599 10.105-1.686 10.58-.086.821.216.864 6.961.993 5.405.087 7.091 0 7.221-.432.129-.302.907-5.441 1.772-11.357.822-5.959 1.73-11.961 1.903-13.386.216-1.425.605-3.973.864-5.614.217-1.684.649-4.189.865-5.614.259-1.425.562-4.448.692-6.736.475-6.91-1.513-10.753-6.615-13.042-3.675-1.641-10.636-2.375-15.911-1.727zm53.094.777c-6.226 1.598-10.463 4.016-15.09 8.637-3.286 3.282-4.194 4.534-5.88 7.989-3.718 7.6-4.799 12.35-4.799 20.943.043 5.312.173 6.435 1.124 9.155 2.421 6.953 7.048 10.71 14.571 11.746 4.626.604 9.901-.13 15.478-2.159 5.016-1.814 11.631-5.744 15.262-9.025l1.903-1.685-3.675-3.454c-2.032-1.9-3.848-3.455-4.021-3.498-.173 0-1.6.95-3.113 2.116-5.621 4.318-13.014 6.78-16.992 5.7-5.448-1.511-8.69-8.637-7.436-16.409 1.513-9.846 6.658-16.842 13.921-19.13 5.837-1.814 11.588-.216 11.588 3.195 0 1.684-.951 3.8-2.205 4.966-1.47 1.339-4.67 2.677-7.177 2.98-2.638.388-3.157.777-3.157 2.72 0 .864-.216 2.419-.475 3.455-.649 2.85-.519 2.936 3.199 2.591 7.134-.691 14.138-3.498 18.03-7.298 4.539-4.405 6.442-11.832 4.323-16.755-2.248-5.182-8.085-7.859-17.078-7.816-3.113 0-5.448.302-8.301 1.036zm-423.843.216c-4.107.518-8.474 1.9-11.674 3.757-3.718 2.159-9.382 7.816-11.327 11.357-2.551 4.578-4.238 10.58-4.238 15.028 0 2.979 1.47 8.377 3.027 11.141 2.464 4.275 7.826 8.205 13.23 9.63 4.843 1.295 11.933.216 17.424-2.634 1.254-.648 2.465-1.209 2.724-1.209.562 0 .087 2.806-.951 5.57-1.773 4.837-4.929 8.291-9.815 10.666-3.069 1.512-4.669 1.9-10.679 2.462l-5.102.518-.562 1.727c-1.6 4.923-2.378 7.557-2.378 7.989 0 .561 5.405.561 9.815 0 12.668-1.641 17.51-3.498 22.872-8.852 4.366-4.319 7.22-10.537 8.431-18.353.518-3.412 1.124-7.471 1.686-11.444.259-1.9.648-4.62.865-6.045.216-1.425.605-3.843.821-5.398.216-1.555.649-4.275.908-6.046.259-1.77.649-4.318.865-5.613 1.383-9.155 1.772-11.789 1.599-11.919-.259-.302-4.323-.95-9.641-1.641-6.745-.82-14.398-1.123-17.9-.691zm10.593 10.494c2.421.518 2.594.647 2.724 1.813.086.734-.043 2.764-.346 4.535-.26 1.77-.692 4.491-.908 6.045-1.34 8.594-3.978 12.912-9.771 15.762-2.205 1.079-2.984 1.209-6.356 1.166-2.119 0-4.021-.216-4.28-.475-.26-.259-.822-.475-1.254-.475-.476 0-1.73-.907-2.854-2.073-2.983-2.98-3.718-6.348-2.508-11.314 2.033-8.291 6.183-12.998 13.144-14.898 2.594-.734 9.08-.777 12.409-.086z"/></svg>