<?xml version="1.0" encoding="UTF-8" standalone="no"?><!DOCTYPE svg PUBLIC "-//W3C//DTD SVG 1.1//EN" "http://www.w3.org/Graphics/SVG/1.1/DTD/svg11.dtd"><svg width="100%" height="100%" viewBox="0 0 1280 720" version="1.1" xmlns="http://www.w3.org/2000/svg" xmlns:xlink="http://www.w3.org/1999/xlink" xml:space="preserve" style="fill-rule:evenodd;clip-rule:evenodd;stroke-linejoin:round;stroke-miterlimit:1.41421;"><g id="Genetrainer"><g><path d="M625.294,294.037c0,0.299 -1.017,0.837 -2.214,1.196c-3.472,0.897 -8.441,4.006 -11.314,6.995c-4.968,5.082 -6.105,8.728 -8.679,27.083c-0.3,2.152 -0.779,5.619 -1.138,7.772c-0.359,2.152 -0.898,5.739 -1.197,8.071c-0.299,2.271 -0.838,5.799 -1.137,7.772c-0.3,1.973 -0.898,5.62 -1.257,8.071c-0.898,5.799 -1.377,8.848 -3.352,21.522c-0.898,5.74 -1.617,11.001 -1.677,11.659c-0.059,1.135 0.36,1.195 9.099,1.375c10.535,0.179 9.757,0.597 10.535,-6.457c0.838,-7.294 8.141,-58.111 8.5,-58.65c0.18,-0.298 4.609,-0.538 9.817,-0.538c10.954,0 9.637,0.957 10.775,-7.473c0.419,-2.63 0.838,-5.38 1.017,-6.158l0.3,-1.315l-9.338,0c-7.962,0 -9.458,-0.12 -9.757,-0.956c-0.18,-0.479 0.119,-4.066 0.718,-7.892c1.616,-10.821 1.736,-12.675 0.958,-12.675c-0.36,0 -0.659,0.24 -0.659,0.598Z" style="fill:#fff;"/><path d="M679.167,314.723c-5.208,0.777 -8.679,1.853 -13.169,3.946c-9.697,4.603 -16.82,13.75 -20.591,26.425c-0.838,2.63 -2.874,13.571 -4.49,24.273c-1.676,10.701 -3.292,20.865 -3.531,22.599c-0.659,3.886 -0.958,3.826 10.655,3.587l8.619,-0.18l2.215,-15.843c3.053,-21.762 3.412,-24.213 4.789,-29.175c3.352,-12.675 10.355,-19.43 20.591,-19.909c1.497,-0.119 2.993,-0.478 3.292,-0.837c0.3,-0.358 1.018,-3.706 1.676,-7.413l1.078,-6.756l-1.377,-0.538c-1.377,-0.538 -6.704,-0.598 -9.757,-0.179Z" style="fill:#fff;"/><path d="M992.528,314.842c-3.412,0.12 -6.764,0.897 -11.972,2.691c-14.246,4.842 -24.961,17.158 -29.031,33.3c-1.257,5.142 -7.064,43.942 -6.645,44.421c0.24,0.239 4.43,0.358 9.338,0.299l8.919,-0.18l0.419,-1.674c0.24,-0.956 0.719,-3.886 1.078,-6.576c3.113,-24.99 4.429,-31.507 8.021,-40.295c2.634,-6.457 7.303,-12.197 11.612,-14.289c1.258,-0.598 4.011,-1.375 6.166,-1.734l3.831,-0.657l0.718,-3.827c2.275,-12.196 2.394,-11.777 -2.454,-11.479Z" style="fill:#fff;"/><path d="M401.123,315.859c-19.394,4.245 -31.965,17.278 -36.514,37.784c-2.694,12.316 -1.975,24.632 1.975,31.866c7.602,14.049 27.595,16.022 48.606,4.723c4.729,-2.571 11.553,-7.354 13.468,-9.566l1.197,-1.255l-5.327,-4.963l-5.328,-4.902l-3.651,2.93c-7.542,6.098 -18.496,9.804 -24.303,8.25c-6.285,-1.674 -10.176,-8.609 -10.176,-17.995c0,-18.355 12.211,-33.002 26.757,-32.105c2.215,0.119 4.849,0.598 5.866,1.136c3.712,1.793 3.951,6.038 0.539,9.984c-2.454,2.929 -5.387,4.364 -10.415,5.201l-3.831,0.658l-0.719,3.527c-0.359,1.973 -0.838,4.604 -1.017,5.799l-0.359,2.272l3.112,0c7.183,0 17.718,-3.408 23.824,-7.652c6.345,-4.424 10.116,-11.778 10.116,-19.55c0,-8.43 -5.327,-14.05 -15.503,-16.202c-4.909,-1.016 -13.528,-1.016 -18.317,0.06Z" style="fill:#fff;"/><path d="M478.76,315.56c-9.338,1.315 -19.813,5.44 -28.373,11.24c-4.55,3.049 -4.55,3.108 -4.969,6.217c-0.179,1.734 -0.598,4.484 -0.897,6.158c-0.24,1.614 -0.779,5.022 -1.198,7.473c-0.359,2.451 -2.095,14.05 -3.89,25.708c-1.796,11.658 -3.293,21.702 -3.293,22.3c0,0.956 0.719,1.016 9.159,0.897l9.098,-0.18l0.719,-4.185c0.419,-2.331 1.735,-10.761 2.873,-18.832c3.831,-26.664 4.429,-29.773 6.046,-32.344c3.412,-5.5 11.552,-9.506 19.274,-9.506c3.891,0 6.345,1.196 7.662,3.707c1.137,2.152 1.018,3.408 -1.556,20.207c-0.36,2.452 -0.898,5.979 -1.197,7.772c-0.3,1.794 -1.437,9.387 -2.634,16.8c-1.197,7.413 -2.215,14.169 -2.275,14.946l-0.179,1.435l19.693,0l1.317,-9.266c2.155,-15.007 2.694,-18.653 3.232,-22.121c0.3,-1.794 0.838,-5.261 1.138,-7.653c1.376,-9.386 1.975,-13.092 2.514,-15.843c0.838,-4.304 0.658,-9.984 -0.359,-13.451c-1.617,-5.381 -5.687,-8.849 -12.571,-10.642c-3.891,-1.076 -14.545,-1.495 -19.334,-0.837Z" style="fill:#fff;"/><path d="M558.252,315.381c-25.14,4.244 -40.345,24.213 -40.285,53.089c0,6.815 0.24,9.087 1.198,12.077c2.454,7.413 6.285,11.777 13.168,15.006c3.293,1.554 3.891,1.614 12.152,1.554c8.141,0 9.039,-0.12 14.366,-1.973c6.764,-2.272 12.989,-5.5 19.275,-10.044c7.602,-5.5 7.542,-4.842 1.616,-10.343c-2.754,-2.57 -5.388,-4.723 -5.807,-4.782c-0.479,0 -2.155,1.195 -3.831,2.63c-3.95,3.468 -10.714,6.756 -16.162,7.892c-6.165,1.315 -9.637,0.478 -13.288,-3.109c-8.321,-8.37 -5.926,-28.577 4.729,-39.399c4.429,-4.543 9.038,-6.875 14.306,-7.293c5.028,-0.419 7.722,0.119 9.996,2.032c1.676,1.435 1.856,1.854 1.557,4.185c-0.539,4.903 -4.669,8.49 -11.314,9.745c-1.735,0.359 -3.711,0.777 -4.429,0.897c-1.078,0.239 -1.317,0.897 -1.736,4.305c-0.239,2.271 -0.479,4.842 -0.539,5.799l-0.06,1.793l3.293,-0.179c5.087,-0.239 12.989,-2.332 18.316,-4.843c6.106,-2.929 11.433,-8.31 13.409,-13.511c1.616,-4.364 1.796,-12.854 0.359,-15.724c-3.412,-6.456 -12.271,-10.283 -23.704,-10.103c-2.814,0 -5.747,0.179 -6.585,0.299Z" style="fill:#fff;"/><path d="M702.273,315.62c-0.18,0.478 -0.539,3.109 -0.958,5.918c-0.359,2.81 -0.778,5.8 -0.958,6.696l-0.359,1.674l7.722,0c9.158,0 13.588,0.658 17.718,2.571c4.01,1.854 6.824,4.663 8.739,8.789c1.317,2.75 1.557,4.125 1.557,8.668c0,7.713 -2.036,13.572 -7.363,20.866c-7.662,10.522 -22.866,14.826 -29.391,8.31c-1.795,-1.794 -1.975,-2.212 -1.616,-4.424c1.197,-7.354 7.782,-11.898 17.18,-11.898l4.07,0l0.599,-3.168c0.299,-1.674 0.778,-4.544 0.958,-6.278l0.418,-3.109l-4.489,0c-2.454,0 -6.465,0.359 -8.919,0.837c-16.701,3.229 -26.038,13.093 -26.398,28.159c-0.119,4.245 0.06,5.082 1.497,7.533c4.31,7.354 10.894,10.104 24.183,10.104c6.704,0 8.679,-0.239 13.169,-1.555c8.2,-2.331 12.929,-5.141 18.855,-11c4.25,-4.245 5.567,-6.038 7.902,-10.761c4.19,-8.49 5.985,-16.322 5.985,-26.007c0,-6.517 -0.179,-8.37 -1.316,-11.598c-3.472,-9.984 -10.655,-16.202 -22.028,-19.251c-6.046,-1.614 -26.338,-2.451 -26.757,-1.076Z" style="fill:#fff;"/><path d="M769.015,316.277c-0.299,0.778 -1.496,8.251 -2.693,16.621c-2.155,14.647 -2.754,18.712 -4.011,26.604c-0.299,1.973 -0.838,5.441 -1.197,7.772c-0.299,2.272 -1.497,9.446 -2.574,15.843c-1.317,7.892 -1.736,11.778 -1.257,12.077c0.898,0.658 18.736,0.598 19.155,-0.06c0.179,-0.359 0.838,-4.185 1.496,-8.549c1.317,-9.566 3.472,-24.034 4.19,-28.578c0.3,-1.793 0.838,-5.32 1.197,-7.772c0.36,-2.451 0.958,-6.217 1.257,-8.37c0.36,-2.152 0.898,-5.5 1.198,-7.473c1.676,-11.299 -0.898,-16.202 -9.697,-18.593c-4.729,-1.196 -6.465,-1.076 -7.064,0.478Z" style="fill:#fff;"/><path d="M834.501,315.381c-10.236,1.255 -19.754,4.902 -29.391,11.299l-4.908,3.228l-0.359,3.408c-0.24,1.913 -0.659,4.962 -0.958,6.756c-0.3,1.793 -0.838,5.321 -1.197,7.772c-0.36,2.451 -0.898,6.158 -1.198,8.191c-0.359,2.092 -0.838,5.5 -1.197,7.652c-0.898,5.979 -1.616,10.522 -3.292,20.746c-0.838,5.141 -1.497,9.804 -1.497,10.283c0,0.837 1.198,0.956 8.919,0.956c5.986,0 9.099,-0.239 9.398,-0.657c0.24,-0.359 1.198,-5.979 2.095,-12.436c3.472,-23.436 4.849,-32.702 5.687,-37.665c0.958,-5.739 6.345,-10.88 13.827,-13.212c9.099,-2.81 15.743,-0.538 15.743,5.44c0,1.136 -0.419,4.783 -0.898,8.071c-0.478,3.229 -1.197,7.773 -1.556,10.104c-1.197,8.071 -1.676,10.881 -3.771,24.213c-1.197,7.414 -2.215,13.99 -2.335,14.648c-0.119,1.135 0.3,1.195 9.638,1.375c7.482,0.119 9.816,0 9.996,-0.598c0.18,-0.419 1.257,-7.533 2.454,-15.724c1.138,-8.25 2.395,-16.56 2.634,-18.533c0.299,-1.973 0.838,-5.5 1.197,-7.772c0.3,-2.332 0.898,-5.799 1.197,-7.772c0.36,-1.973 0.779,-6.158 0.958,-9.327c0.659,-9.566 -2.095,-14.886 -9.158,-18.055c-5.088,-2.272 -14.725,-3.288 -22.028,-2.391Z" style="fill:#fff;"/><path d="M908.007,316.457c-8.619,2.212 -14.485,5.56 -20.89,11.957c-4.55,4.543 -5.807,6.277 -8.141,11.06c-5.148,10.522 -6.644,17.099 -6.644,28.996c0.059,7.353 0.239,8.908 1.556,12.674c3.352,9.626 9.757,14.827 20.172,16.262c6.405,0.837 13.708,-0.179 21.43,-2.989c6.943,-2.511 16.102,-7.952 21.13,-12.495l2.634,-2.332l-5.088,-4.783c-2.814,-2.63 -5.328,-4.783 -5.567,-4.842c-0.24,0 -2.215,1.315 -4.31,2.929c-7.782,5.979 -18.018,9.386 -23.525,7.892c-7.542,-2.093 -12.031,-11.957 -10.295,-22.719c2.095,-13.631 9.218,-23.316 19.274,-26.485c8.081,-2.511 16.043,-0.299 16.043,4.424c0,2.332 -1.317,5.262 -3.053,6.876c-2.036,1.853 -6.465,3.706 -9.937,4.125c-3.651,0.538 -4.37,1.076 -4.37,3.766c0,1.196 -0.299,3.348 -0.658,4.783c-0.898,3.946 -0.718,4.066 4.429,3.587c9.877,-0.956 19.574,-4.842 24.962,-10.103c6.285,-6.098 8.919,-16.381 5.986,-23.197c-3.113,-7.174 -11.194,-10.881 -23.645,-10.821c-4.31,0 -7.542,0.418 -11.493,1.435Z" style="fill:#fff;"/><path d="M321.211,316.756c-5.686,0.717 -11.732,2.63 -16.161,5.201c-5.148,2.989 -12.99,10.821 -15.683,15.723c-3.532,6.338 -5.867,14.648 -5.867,20.806c0,4.125 2.036,11.598 4.19,15.424c3.412,5.919 10.835,11.36 18.317,13.332c6.704,1.794 16.521,0.299 24.123,-3.646c1.736,-0.897 3.412,-1.674 3.771,-1.674c0.779,0 0.12,3.886 -1.316,7.712c-2.455,6.696 -6.824,11.479 -13.588,14.767c-4.25,2.092 -6.465,2.63 -14.785,3.408l-7.064,0.717l-0.778,2.391c-2.215,6.816 -3.292,10.463 -3.292,11.061c0,0.777 7.482,0.777 13.588,0c17.538,-2.272 24.243,-4.843 31.665,-12.256c6.046,-5.979 9.996,-14.588 11.673,-25.409c0.718,-4.723 1.556,-10.343 2.334,-15.843c0.359,-2.631 0.898,-6.397 1.197,-8.37c0.299,-1.973 0.838,-5.321 1.138,-7.473c0.299,-2.152 0.897,-5.919 1.257,-8.37c0.359,-2.451 0.897,-5.979 1.197,-7.772c1.915,-12.675 2.454,-16.322 2.215,-16.501c-0.36,-0.418 -5.986,-1.315 -13.349,-2.272c-9.338,-1.136 -19.933,-1.554 -24.782,-0.956Zm14.666,14.527c3.352,0.718 3.591,0.897 3.771,2.511c0.12,1.017 -0.06,3.827 -0.479,6.278c-0.359,2.451 -0.958,6.218 -1.257,8.37c-1.856,11.897 -5.507,17.876 -13.528,21.821c-3.053,1.495 -4.13,1.674 -8.799,1.615c-2.933,0 -5.567,-0.299 -5.926,-0.658c-0.359,-0.359 -1.138,-0.658 -1.736,-0.658c-0.659,0 -2.395,-1.255 -3.951,-2.869c-4.13,-4.125 -5.148,-8.789 -3.472,-15.664c2.814,-11.479 8.56,-17.995 18.197,-20.626c3.592,-1.016 12.571,-1.076 17.18,-0.12Z" style="fill:#fff;"/></g></g></svg>