<?xml version="1.0" standalone="no"?><!DOCTYPE svg PUBLIC "-//W3C//DTD SVG 1.1//EN" "http://www.w3.org/Graphics/SVG/1.1/DTD/svg11.dtd"><svg width="100%" height="100%" viewBox="0 0 1280 720" version="1.1" xmlns="http://www.w3.org/2000/svg" xmlns:xlink="http://www.w3.org/1999/xlink" xml:space="preserve" style="fill-rule:evenodd;clip-rule:evenodd;stroke-linejoin:round;stroke-miterlimit:1.41421;"><g id="Gimmicode"><rect id="Background" x="0" y="0" width="1280" height="720" style="fill:#1a9bcf;"/><g id="Gimmicode-logo"><g transform="matrix(1,0,0,1,-230.477,94.3921)"><path d="M606.165,230.49l0,-2.016l18.432,0c2.976,0 5.112,0.384 6.408,1.152c1.296,0.768 1.944,2.544 1.944,5.328l0,30.672c-3.84,2.208 -7.944,3.96 -12.312,5.256c-4.368,1.296 -9,1.944 -13.896,1.944c-7.104,0 -13.776,-1.344 -20.016,-4.032c-6.24,-2.688 -11.688,-6.36 -16.344,-11.016c-4.656,-4.656 -8.328,-10.104 -11.016,-16.344c-2.688,-6.24 -4.032,-12.912 -4.032,-20.016c0,-7.104 1.344,-13.8 4.032,-20.088c2.688,-6.288 6.36,-11.76 11.016,-16.416c4.656,-4.656 10.104,-8.352 16.344,-11.088c6.24,-2.736 12.912,-4.104 20.016,-4.104c4.896,0 9.528,0.624 13.896,1.872c4.368,1.248 8.52,3.024 12.456,5.328l-1.152,1.728c-3.648,-2.208 -7.608,-3.912 -11.88,-5.112c-4.272,-1.2 -8.712,-1.8 -13.32,-1.8c-6.816,0 -13.224,1.32 -19.224,3.96c-6,2.64 -11.232,6.216 -15.696,10.728c-4.464,4.512 -7.992,9.792 -10.584,15.84c-2.592,6.048 -3.888,12.48 -3.888,19.296c0,6.816 1.296,13.2 3.888,19.152c2.592,5.952 6.096,11.16 10.512,15.624c4.416,4.464 9.6,7.992 15.552,10.584c5.952,2.592 12.288,3.888 19.008,3.888c4.512,0 8.832,-0.552 12.96,-1.656c4.128,-1.104 8.016,-2.712 11.664,-4.824l0,-20.304l0,-10.224c0,-0.864 -0.312,-1.632 -0.936,-2.304c-0.624,-0.672 -1.752,-1.008 -3.384,-1.008l-20.448,0Z" style="fill:#fff;fill-rule:nonzero;"/><path d="M651.237,199.674c0,-0.768 0.288,-1.44 0.864,-2.016c0.576,-0.576 1.248,-0.864 2.016,-0.864c0.768,0 1.44,0.288 2.016,0.864c0.576,0.576 0.864,1.248 0.864,2.016c0,0.768 -0.288,1.44 -0.864,2.016c-0.576,0.576 -1.248,0.864 -2.016,0.864c-0.768,0 -1.44,-0.288 -2.016,-0.864c-0.576,-0.576 -0.864,-1.248 -0.864,-2.016ZM655.125,271.674l-2.016,0l0,-54l2.016,0l0,54Z" style="fill:#fff;fill-rule:nonzero;"/><path d="M680.469,217.674l2.016,0l0,7.632l-0.432,6.48c1.92,-4.512 4.992,-8.16 9.216,-10.944c4.224,-2.784 9.072,-4.176 14.544,-4.176c4.704,0 8.52,1.32 11.448,3.96c2.928,2.64 4.632,6.12 5.112,10.44c2.016,-4.32 5.112,-7.8 9.288,-10.44c4.176,-2.64 8.904,-3.96 14.184,-3.96c5.088,0 9.096,1.488 12.024,4.464c2.928,2.976 4.488,6.864 4.68,11.664l0,38.88l-2.016,0l0,-39.888c-0.192,-3.456 -1.464,-6.456 -3.816,-9c-2.352,-2.544 -5.64,-3.912 -9.864,-4.104c-3.168,0 -6.192,0.504 -9.072,1.512c-2.88,1.008 -5.424,2.424 -7.632,4.248c-2.208,1.824 -4.008,3.984 -5.4,6.48c-1.392,2.496 -2.136,5.232 -2.232,8.208l0,32.544l-2.016,0l0,-39.888c-0.192,-3.456 -1.464,-6.456 -3.816,-9c-2.352,-2.544 -5.64,-3.912 -9.864,-4.104c-3.264,0 -6.36,0.528 -9.288,1.584c-2.928,1.056 -5.52,2.52 -7.776,4.392c-2.256,1.872 -4.032,4.128 -5.328,6.768c-1.296,2.64 -1.944,5.496 -1.944,8.568l0,31.68l-2.016,0l0,-54Z" style="fill:#fff;fill-rule:nonzero;"/><path d="M783.573,217.674l2.016,0l0,7.632l-0.432,6.48c1.92,-4.512 4.992,-8.16 9.216,-10.944c4.224,-2.784 9.072,-4.176 14.544,-4.176c4.704,0 8.52,1.32 11.448,3.96c2.928,2.64 4.632,6.12 5.112,10.44c2.016,-4.32 5.112,-7.8 9.288,-10.44c4.176,-2.64 8.904,-3.96 14.184,-3.96c5.088,0 9.096,1.488 12.024,4.464c2.928,2.976 4.488,6.864 4.68,11.664l0,38.88l-2.016,0l0,-39.888c-0.192,-3.456 -1.464,-6.456 -3.816,-9c-2.352,-2.544 -5.64,-3.912 -9.864,-4.104c-3.168,0 -6.192,0.504 -9.072,1.512c-2.88,1.008 -5.424,2.424 -7.632,4.248c-2.208,1.824 -4.008,3.984 -5.4,6.48c-1.392,2.496 -2.136,5.232 -2.232,8.208l0,32.544l-2.016,0l0,-39.888c-0.192,-3.456 -1.464,-6.456 -3.816,-9c-2.352,-2.544 -5.64,-3.912 -9.864,-4.104c-3.264,0 -6.36,0.528 -9.288,1.584c-2.928,1.056 -5.52,2.52 -7.776,4.392c-2.256,1.872 -4.032,4.128 -5.328,6.768c-1.296,2.64 -1.944,5.496 -1.944,8.568l0,31.68l-2.016,0l0,-54Z" style="fill:#fff;fill-rule:nonzero;"/><path d="M911.589,218.538c-3.648,0 -7.032,0.672 -10.152,2.016c-3.12,1.344 -5.856,3.216 -8.208,5.616c-2.352,2.4 -4.2,5.184 -5.544,8.352c-1.344,3.168 -2.016,6.528 -2.016,10.08c0,2.784 0.336,5.328 1.008,7.632c7.776,-3.168 15.552,-6.312 23.328,-9.432c7.776,-3.12 15.552,-6.264 23.328,-9.432c-1.92,-4.416 -4.824,-7.992 -8.712,-10.728c-3.888,-2.736 -8.232,-4.104 -13.032,-4.104ZM935.925,234.378c-8.16,3.36 -16.248,6.648 -24.264,9.864c-8.016,3.216 -16.104,6.504 -24.264,9.864c1.92,4.896 5.04,8.856 9.36,11.88c4.32,3.024 9.264,4.536 14.832,4.536c3.456,0 6.72,-0.624 9.792,-1.872c3.072,-1.248 5.76,-2.976 8.064,-5.184c0.192,0.288 0.408,0.552 0.648,0.792c0.24,0.24 0.456,0.504 0.648,0.792c-2.496,2.304 -5.376,4.128 -8.64,5.472c-3.264,1.344 -6.768,2.016 -10.512,2.016c-3.936,0 -7.584,-0.72 -10.944,-2.16c-3.36,-1.44 -6.312,-3.432 -8.856,-5.976c-2.544,-2.544 -4.536,-5.496 -5.976,-8.856c-1.44,-3.36 -2.16,-7.008 -2.16,-10.944c0,-3.84 0.72,-7.488 2.16,-10.944c1.44,-3.456 3.432,-6.432 5.976,-8.928c2.544,-2.496 5.496,-4.488 8.856,-5.976c3.36,-1.488 7.008,-2.232 10.944,-2.232c5.568,0 10.536,1.656 14.904,4.968c4.368,3.312 7.512,7.608 9.432,12.888Z" style="fill:#fff;fill-rule:nonzero;"/><path d="M989.925,264.906l1.44,1.44c-2.496,1.92 -5.232,3.432 -8.208,4.536c-2.976,1.104 -6.144,1.656 -9.504,1.656c-3.936,0 -7.584,-0.72 -10.944,-2.16c-3.36,-1.44 -6.312,-3.432 -8.856,-5.976c-2.544,-2.544 -4.536,-5.496 -5.976,-8.856c-1.44,-3.36 -2.16,-7.008 -2.16,-10.944c0,-3.84 0.72,-7.488 2.16,-10.944c1.44,-3.456 3.432,-6.432 5.976,-8.928c2.544,-2.496 5.496,-4.488 8.856,-5.976c3.36,-1.488 7.008,-2.232 10.944,-2.232c3.36,0 6.552,0.552 9.576,1.656c3.024,1.104 5.736,2.616 8.136,4.536c-0.192,0.288 -0.432,0.552 -0.72,0.792c-0.288,0.24 -0.528,0.504 -0.72,0.792c-2.208,-1.824 -4.704,-3.24 -7.488,-4.248c-2.784,-1.008 -5.712,-1.512 -8.784,-1.512c-3.648,0 -7.032,0.672 -10.152,2.016c-3.12,1.344 -5.856,3.216 -8.208,5.616c-2.352,2.4 -4.2,5.184 -5.544,8.352c-1.344,3.168 -2.016,6.528 -2.016,10.08c0,3.648 0.672,7.032 2.016,10.152c1.344,3.12 3.192,5.856 5.544,8.208c2.352,2.352 5.088,4.2 8.208,5.544c3.12,1.344 6.504,2.016 10.152,2.016c3.072,0 6,-0.504 8.784,-1.512c2.784,-1.008 5.28,-2.376 7.488,-4.104Z" style="fill:#fff;fill-rule:nonzero;"/><path d="M997.989,244.602c0,-3.84 0.72,-7.488 2.16,-10.944c1.44,-3.456 3.432,-6.456 5.976,-9c2.544,-2.544 5.496,-4.56 8.856,-6.048c3.36,-1.488 7.008,-2.232 10.944,-2.232c3.84,0 7.488,0.744 10.944,2.232c3.456,1.488 6.456,3.504 9,6.048c2.544,2.544 4.56,5.544 6.048,9c1.488,3.456 2.232,7.104 2.232,10.944c0,3.936 -0.744,7.584 -2.232,10.944c-1.488,3.36 -3.504,6.312 -6.048,8.856c-2.544,2.544 -5.544,4.536 -9,5.976c-3.456,1.44 -7.104,2.16 -10.944,2.16c-3.936,0 -7.584,-0.72 -10.944,-2.16c-3.36,-1.44 -6.312,-3.432 -8.856,-5.976c-2.544,-2.544 -4.536,-5.496 -5.976,-8.856c-1.44,-3.36 -2.16,-7.008 -2.16,-10.944ZM1000,244.602c0,3.648 0.672,7.032 2.016,10.152c1.344,3.12 3.192,5.856 5.544,8.208c2.352,2.352 5.088,4.2 8.208,5.544c3.12,1.344 6.504,2.016 10.152,2.016c3.552,0 6.912,-0.672 10.08,-2.016c3.168,-1.344 5.952,-3.192 8.352,-5.544c2.4,-2.352 4.272,-5.088 5.616,-8.208c1.344,-3.12 2.016,-6.504 2.016,-10.152c0,-3.552 -0.672,-6.912 -2.016,-10.08c-1.344,-3.168 -3.216,-5.952 -5.616,-8.352c-2.4,-2.4 -5.184,-4.272 -8.352,-5.616c-3.168,-1.344 -6.528,-2.016 -10.08,-2.016c-3.648,0 -7.032,0.672 -10.152,2.016c-3.12,1.344 -5.856,3.216 -8.208,5.616c-2.352,2.4 -4.2,5.184 -5.544,8.352c-1.344,3.168 -2.016,6.528 -2.016,10.08Z" style="fill:#fff;fill-rule:nonzero;"/><path d="M1067.25,244.602c0,3.648 0.672,7.032 2.016,10.152c1.344,3.12 3.192,5.856 5.544,8.208c2.352,2.352 5.088,4.2 8.208,5.544c3.12,1.344 6.504,2.016 10.152,2.016c3.552,0 6.912,-0.672 10.08,-2.016c3.168,-1.344 5.952,-3.192 8.352,-5.544c2.4,-2.352 4.272,-5.088 5.616,-8.208c1.344,-3.12 2.016,-6.504 2.016,-10.152c0,-3.552 -0.672,-6.912 -2.016,-10.08c-1.344,-3.168 -3.216,-5.952 -5.616,-8.352c-2.4,-2.4 -5.184,-4.272 -8.352,-5.616c-3.168,-1.344 -6.528,-2.016 -10.08,-2.016c-3.648,0 -7.032,0.672 -10.152,2.016c-3.12,1.344 -5.856,3.216 -8.208,5.616c-2.352,2.4 -4.2,5.184 -5.544,8.352c-1.344,3.168 -2.016,6.528 -2.016,10.08ZM1065.24,244.602c0,-3.84 0.72,-7.488 2.16,-10.944c1.44,-3.456 3.432,-6.432 5.976,-8.928c2.544,-2.496 5.496,-4.488 8.856,-5.976c3.36,-1.488 7.008,-2.232 10.944,-2.232c2.976,0 5.832,0.432 8.568,1.296c2.736,0.864 5.232,2.088 7.488,3.672c2.256,1.584 4.224,3.456 5.904,5.616c1.68,2.16 3.048,4.536 4.104,7.128l0,-7.776l0,-62.784l2.016,0l0,108l-2.016,0l0,-7.776c0,-1.536 0.024,-3.048 0.072,-4.536c0.048,-1.488 0.072,-3 0.072,-4.536c-1.056,2.592 -2.448,4.968 -4.176,7.128c-1.728,2.16 -3.72,4.032 -5.976,5.616c-2.256,1.584 -4.752,2.808 -7.488,3.672c-2.736,0.864 -5.592,1.296 -8.568,1.296c-3.936,0 -7.584,-0.72 -10.944,-2.16c-3.36,-1.44 -6.312,-3.432 -8.856,-5.976c-2.544,-2.544 -4.536,-5.496 -5.976,-8.856c-1.44,-3.36 -2.16,-7.008 -2.16,-10.944Z" style="fill:#fff;fill-rule:nonzero;"/><path d="M1162.73,218.538c-3.648,0 -7.032,0.672 -10.152,2.016c-3.12,1.344 -5.856,3.216 -8.208,5.616c-2.352,2.4 -4.2,5.184 -5.544,8.352c-1.344,3.168 -2.016,6.528 -2.016,10.08c0,2.784 0.336,5.328 1.008,7.632c7.776,-3.168 15.552,-6.312 23.328,-9.432c7.776,-3.12 15.552,-6.264 23.328,-9.432c-1.92,-4.416 -4.824,-7.992 -8.712,-10.728c-3.888,-2.736 -8.232,-4.104 -13.032,-4.104ZM1187.06,234.378c-8.16,3.36 -16.248,6.648 -24.264,9.864c-8.016,3.216 -16.104,6.504 -24.264,9.864c1.92,4.896 5.04,8.856 9.36,11.88c4.32,3.024 9.264,4.536 14.832,4.536c3.456,0 6.72,-0.624 9.792,-1.872c3.072,-1.248 5.76,-2.976 8.064,-5.184c0.192,0.288 0.408,0.552 0.648,0.792c0.24,0.24 0.456,0.504 0.648,0.792c-2.496,2.304 -5.376,4.128 -8.64,5.472c-3.264,1.344 -6.768,2.016 -10.512,2.016c-3.936,0 -7.584,-0.72 -10.944,-2.16c-3.36,-1.44 -6.312,-3.432 -8.856,-5.976c-2.544,-2.544 -4.536,-5.496 -5.976,-8.856c-1.44,-3.36 -2.16,-7.008 -2.16,-10.944c0,-3.84 0.72,-7.488 2.16,-10.944c1.44,-3.456 3.432,-6.432 5.976,-8.928c2.544,-2.496 5.496,-4.488 8.856,-5.976c3.36,-1.488 7.008,-2.232 10.944,-2.232c5.568,0 10.536,1.656 14.904,4.968c4.368,3.312 7.512,7.608 9.432,12.888Z" style="fill:#fff;fill-rule:nonzero;"/></g><path d="M452.152,439.326l0,-3.792l6.624,0c0.928,0 1.544,0.232 1.848,0.696c0.304,0.464 0.456,1.192 0.456,2.184l0,9.504c-1.28,0.736 -2.648,1.32 -4.104,1.752c-1.456,0.432 -3,0.648 -4.632,0.648c-2.368,0 -4.592,-0.448 -6.672,-1.344c-2.08,-0.896 -3.896,-2.12 -5.448,-3.672c-1.552,-1.552 -2.776,-3.368 -3.672,-5.448c-0.896,-2.08 -1.344,-4.304 -1.344,-6.672c0,-2.368 0.448,-4.6 1.344,-6.696c0.896,-2.096 2.12,-3.92 3.672,-5.472c1.552,-1.552 3.368,-2.784 5.448,-3.696c2.08,-0.912 4.304,-1.368 6.672,-1.368c1.632,0 3.176,0.208 4.632,0.624c1.456,0.416 2.84,1.008 4.152,1.776c-0.352,0.544 -0.72,1.08 -1.104,1.608c-0.384,0.528 -0.752,1.064 -1.104,1.608c-0.992,-0.576 -2.032,-1.024 -3.12,-1.344c-1.088,-0.32 -2.24,-0.48 -3.456,-0.48c-1.824,0 -3.528,0.352 -5.112,1.056c-1.584,0.704 -2.976,1.672 -4.176,2.904c-1.2,1.232 -2.144,2.664 -2.832,4.296c-0.688,1.632 -1.032,3.36 -1.032,5.184c0,1.824 0.344,3.552 1.032,5.184c0.688,1.632 1.632,3.048 2.832,4.248c1.2,1.2 2.592,2.152 4.176,2.856c1.584,0.704 3.288,1.056 5.112,1.056c1.664,0 3.248,-0.288 4.752,-0.864l0,-4.896c0,-0.544 -0.056,-0.92 -0.168,-1.128c-0.112,-0.208 -0.424,-0.312 -0.936,-0.312l-3.84,0Z" style="fill:#fff;fill-rule:nonzero;stroke-width:1.5px;stroke:#fff;"/><rect x="469.24" y="416.334" width="3.984" height="33.6" style="fill:#fff;fill-rule:nonzero;stroke-width:1.5px;stroke:#fff;"/><path d="M505.24,416.334l3.984,0c-2.496,5.888 -4.976,11.744 -7.44,17.568c-2.464,5.824 -4.944,11.68 -7.44,17.568c-2.496,-5.888 -4.976,-11.744 -7.44,-17.568c-2.464,-5.824 -4.944,-11.68 -7.44,-17.568l3.984,0c1.76,4.16 3.504,8.28 5.232,12.36c1.728,4.08 3.472,8.2 5.232,12.36l0.432,1.584l0.432,-1.584c1.76,-4.16 3.504,-8.28 5.232,-12.36c1.728,-4.08 3.472,-8.2 5.232,-12.36Z" style="fill:#fff;fill-rule:nonzero;stroke-width:1.5px;stroke:#fff;"/><path d="M513.88,449.934l0,-33.6l20.688,0l0,3.792l-16.704,0l0,10.992l14.832,0l0,3.792l-14.832,0l0,11.232l17.376,0l0,3.792l-21.36,0Z" style="fill:#fff;fill-rule:nonzero;stroke-width:1.5px;stroke:#fff;"/><path d="M556.696,414.798c2.944,3.808 5.872,7.608 8.784,11.4c2.912,3.792 5.84,7.592 8.784,11.4c2.944,-3.808 5.872,-7.608 8.784,-11.4c2.912,-3.792 5.84,-7.592 8.784,-11.4l0,35.136l-3.984,0l0,-22.56c0.032,-0.256 0.056,-0.512 0.072,-0.768c0.016,-0.256 0.04,-0.512 0.072,-0.768c-2.112,3.136 -4.352,6.184 -6.72,9.144c-2.368,2.96 -4.704,5.944 -7.008,8.952c-2.144,-2.816 -4.288,-5.616 -6.432,-8.4c-2.144,-2.784 -4.288,-5.584 -6.432,-8.4l-0.864,-1.296c0.032,0.256 0.056,0.512 0.072,0.768c0.016,0.256 0.04,0.512 0.072,0.768l0,22.56l-3.984,0l0,-35.136Z" style="fill:#fff;fill-rule:nonzero;stroke-width:1.5px;stroke:#fff;"/><path d="M599.224,449.934l0,-33.6l20.688,0l0,3.792l-16.704,0l0,10.992l14.832,0l0,3.792l-14.832,0l0,11.232l17.376,0l0,3.792l-21.36,0Z" style="fill:#fff;fill-rule:nonzero;stroke-width:1.5px;stroke:#fff;"/><path d="M652.984,450.318c-1.728,0 -3.328,-0.24 -4.8,-0.72c-1.472,-0.48 -2.752,-1.192 -3.84,-2.136c-1.088,-0.944 -1.936,-2.12 -2.544,-3.528c-0.608,-1.408 -0.912,-3.024 -0.912,-4.848l0,-22.752l3.984,0l0,22.608c0,1.216 0.2,2.296 0.6,3.24c0.4,0.944 0.96,1.736 1.68,2.376c0.72,0.64 1.576,1.128 2.568,1.464c0.992,0.336 2.08,0.504 3.264,0.504c1.184,0 2.272,-0.168 3.264,-0.504c0.992,-0.336 1.848,-0.824 2.568,-1.464c0.72,-0.64 1.288,-1.432 1.704,-2.376c0.416,-0.944 0.624,-2.024 0.624,-3.24l0,-22.608l3.984,0l0,22.752c0,1.824 -0.312,3.44 -0.936,4.848c-0.624,1.408 -1.48,2.584 -2.568,3.528c-1.088,0.944 -2.368,1.656 -3.84,2.136c-1.472,0.48 -3.072,0.72 -4.8,0.72Z" style="fill:#fff;fill-rule:nonzero;stroke-width:1.5px;stroke:#fff;"/><path d="M701.704,416.334l0,35.136c-4.128,-4.384 -8.224,-8.736 -12.288,-13.056c-4.064,-4.32 -8.16,-8.672 -12.288,-13.056c-0.16,-0.224 -0.312,-0.432 -0.456,-0.624c-0.144,-0.192 -0.296,-0.4 -0.456,-0.624c0.032,0.256 0.056,0.512 0.072,0.768c0.016,0.256 0.04,0.512 0.072,0.768l0,24.288l-3.984,0l0,-35.136c4.128,4.48 8.224,8.92 12.288,13.32c4.064,4.4 8.16,8.84 12.288,13.32c0.16,0.224 0.312,0.432 0.456,0.624c0.144,0.192 0.296,0.4 0.456,0.624c-0.032,-0.256 -0.056,-0.512 -0.072,-0.768c-0.016,-0.256 -0.04,-0.512 -0.072,-0.768l0,-24.816l3.984,0Z" style="fill:#fff;fill-rule:nonzero;stroke-width:1.5px;stroke:#fff;"/><rect x="710.392" y="416.334" width="3.984" height="33.6" style="fill:#fff;fill-rule:nonzero;stroke-width:1.5px;stroke:#fff;"/><path d="M744.712,444.75l2.16,3.168c-1.28,0.736 -2.648,1.32 -4.104,1.752c-1.456,0.432 -3,0.648 -4.632,0.648c-2.368,0 -4.592,-0.448 -6.672,-1.344c-2.08,-0.896 -3.896,-2.12 -5.448,-3.672c-1.552,-1.552 -2.776,-3.368 -3.672,-5.448c-0.896,-2.08 -1.344,-4.304 -1.344,-6.672c0,-2.368 0.448,-4.6 1.344,-6.696c0.896,-2.096 2.12,-3.92 3.672,-5.472c1.552,-1.552 3.368,-2.784 5.448,-3.696c2.08,-0.912 4.304,-1.368 6.672,-1.368c1.632,0 3.176,0.208 4.632,0.624c1.456,0.416 2.84,1.008 4.152,1.776c-0.352,0.544 -0.72,1.08 -1.104,1.608c-0.384,0.528 -0.752,1.064 -1.104,1.608c-0.992,-0.576 -2.032,-1.024 -3.12,-1.344c-1.088,-0.32 -2.24,-0.48 -3.456,-0.48c-1.824,0 -3.528,0.352 -5.112,1.056c-1.584,0.704 -2.976,1.672 -4.176,2.904c-1.2,1.232 -2.144,2.664 -2.832,4.296c-0.688,1.632 -1.032,3.36 -1.032,5.184c0,1.824 0.344,3.552 1.032,5.184c0.688,1.632 1.632,3.048 2.832,4.248c1.2,1.2 2.592,2.152 4.176,2.856c1.584,0.704 3.288,1.056 5.112,1.056c2.368,0 4.56,-0.592 6.576,-1.776Z" style="fill:#fff;fill-rule:nonzero;stroke-width:1.5px;stroke:#fff;"/><path d="M752.2,433.182c0,-2.336 0.448,-4.552 1.344,-6.648c0.896,-2.096 2.12,-3.928 3.672,-5.496c1.552,-1.568 3.368,-2.808 5.448,-3.72c2.08,-0.912 4.304,-1.368 6.672,-1.368c2.336,0 4.552,0.456 6.648,1.368c2.096,0.912 3.928,2.152 5.496,3.72c1.568,1.568 2.808,3.4 3.72,5.496c0.912,2.096 1.368,4.312 1.368,6.648c0,2.368 -0.456,4.592 -1.368,6.672c-0.912,2.08 -2.152,3.896 -3.72,5.448c-1.568,1.552 -3.4,2.776 -5.496,3.672c-2.096,0.896 -4.312,1.344 -6.648,1.344c-2.368,0 -4.592,-0.448 -6.672,-1.344c-2.08,-0.896 -3.896,-2.12 -5.448,-3.672c-1.552,-1.552 -2.776,-3.368 -3.672,-5.448c-0.896,-2.08 -1.344,-4.304 -1.344,-6.672ZM756.184,433.182c0,1.856 0.344,3.592 1.032,5.208c0.688,1.616 1.632,3.024 2.832,4.224c1.2,1.2 2.6,2.152 4.2,2.856c1.6,0.704 3.312,1.056 5.136,1.056c1.824,0 3.536,-0.352 5.136,-1.056c1.6,-0.704 3,-1.656 4.2,-2.856c1.2,-1.2 2.144,-2.608 2.832,-4.224c0.688,-1.616 1.032,-3.352 1.032,-5.208c0,-1.856 -0.344,-3.592 -1.032,-5.208c-0.688,-1.616 -1.632,-3.032 -2.832,-4.248c-1.2,-1.216 -2.6,-2.176 -4.2,-2.88c-1.6,-0.704 -3.312,-1.056 -5.136,-1.056c-1.824,0 -3.536,0.352 -5.136,1.056c-1.6,0.704 -3,1.664 -4.2,2.88c-1.2,1.216 -2.144,2.632 -2.832,4.248c-0.688,1.616 -1.032,3.352 -1.032,5.208Z" style="fill:#fff;fill-rule:nonzero;stroke-width:1.5px;stroke:#fff;"/><path d="M791.464,416.334l7.824,0c2.304,0 4.48,0.392 6.528,1.176c2.048,0.784 3.84,1.912 5.376,3.384c1.536,1.472 2.752,3.24 3.648,5.304c0.896,2.064 1.344,4.392 1.344,6.984c0,1.888 -0.328,3.824 -0.984,5.808c-0.656,1.984 -1.72,3.784 -3.192,5.4c-1.472,1.616 -3.384,2.944 -5.736,3.984c-2.352,1.04 -5.224,1.56 -8.616,1.56l-6.192,0l0,-33.6ZM795.448,420.126l0,25.968l3.36,0c1.888,0 3.648,-0.304 5.28,-0.912c1.632,-0.608 3.048,-1.48 4.248,-2.616c1.2,-1.136 2.144,-2.496 2.832,-4.08c0.688,-1.584 1.032,-3.368 1.032,-5.352c0,-1.984 -0.344,-3.776 -1.032,-5.376c-0.688,-1.6 -1.632,-2.968 -2.832,-4.104c-1.2,-1.136 -2.616,-2.008 -4.248,-2.616c-1.632,-0.608 -3.392,-0.912 -5.28,-0.912l-3.36,0Z" style="fill:#fff;fill-rule:nonzero;stroke-width:1.5px;stroke:#fff;"/><path d="M822.232,449.934l0,-33.6l20.688,0l0,3.792l-16.704,0l0,10.992l14.832,0l0,3.792l-14.832,0l0,11.232l17.376,0l0,3.792l-21.36,0Z" style="fill:#fff;fill-rule:nonzero;stroke-width:1.5px;stroke:#fff;"/></g></g></svg>