<?xml version="1.0" standalone="no"?>
<!DOCTYPE svg PUBLIC "-//W3C//DTD SVG 1.1//EN" "http://www.w3.org/Graphics/SVG/1.1/DTD/svg11.dtd">
<svg width="1280px" height="720px" viewBox="0 0 1280 720" version="1.1" xmlns="http://www.w3.org/2000/svg" xmlns:xlink="http://www.w3.org/1999/xlink" xml:space="preserve" style="fill-rule:evenodd;clip-rule:evenodd;stroke-linejoin:round;stroke-miterlimit:1.41421;">
    <g id="Layer1">
        <rect x="0" y="3.55271e-15" width="1280" height="720" style="fill:rgb(26,155,207);"/>
        <g>
            <g transform="matrix(1,0,0,1,-230.477,94.3921)">
                <path d="M607.605,230.49L607.605,228.474L626.037,228.474C629.013,228.474 631.149,228.858 632.445,229.626C633.741,230.394 634.389,232.17 634.389,234.954L634.389,265.626C630.549,267.834 626.445,269.586 622.077,270.882C617.709,272.178 613.077,272.826 608.181,272.826C601.077,272.826 594.405,271.482 588.165,268.794C581.925,266.106 576.477,262.434 571.821,257.778C567.165,253.122 563.493,247.674 560.805,241.434C558.117,235.194 556.773,228.522 556.773,221.418C556.773,214.314 558.117,207.618 560.805,201.33C563.493,195.042 567.165,189.57 571.821,184.914C576.477,180.258 581.925,176.562 588.165,173.826C594.405,171.09 601.077,169.722 608.181,169.722C613.077,169.722 617.709,170.346 622.077,171.594C626.445,172.842 630.597,174.618 634.533,176.922L633.381,178.65C629.733,176.442 625.773,174.738 621.501,173.538C617.229,172.338 612.789,171.738 608.181,171.738C601.365,171.738 594.957,173.058 588.957,175.698C582.957,178.338 577.725,181.914 573.261,186.426C568.797,190.938 565.269,196.218 562.677,202.266C560.085,208.314 558.789,214.746 558.789,221.562C558.789,228.378 560.085,234.762 562.677,240.714C565.269,246.666 568.773,251.874 573.189,256.338C577.605,260.802 582.789,264.33 588.741,266.922C594.693,269.514 601.029,270.81 607.749,270.81C612.261,270.81 616.581,270.258 620.709,269.154C624.837,268.05 628.725,266.442 632.373,264.33L632.373,244.026L632.373,233.802C632.373,232.938 632.061,232.17 631.437,231.498C630.813,230.826 629.685,230.49 628.053,230.49L607.605,230.49Z" style="fill:white;fill-rule:nonzero;"/>
                <path d="M652.677,199.674C652.677,198.906 652.965,198.234 653.541,197.658C654.117,197.082 654.789,196.794 655.557,196.794C656.325,196.794 656.997,197.082 657.573,197.658C658.149,198.234 658.437,198.906 658.437,199.674C658.437,200.442 658.149,201.114 657.573,201.69C656.997,202.266 656.325,202.554 655.557,202.554C654.789,202.554 654.117,202.266 653.541,201.69C652.965,201.114 652.677,200.442 652.677,199.674ZM656.565,271.674L654.549,271.674L654.549,217.674L656.565,217.674L656.565,271.674Z" style="fill:white;fill-rule:nonzero;"/>
                <path d="M681.909,217.674L683.925,217.674L683.925,225.306L683.493,231.786C685.413,227.274 688.485,223.626 692.709,220.842C696.933,218.058 701.781,216.666 707.253,216.666C711.957,216.666 715.773,217.986 718.701,220.626C721.629,223.266 723.333,226.746 723.813,231.066C725.829,226.746 728.925,223.266 733.101,220.626C737.277,217.986 742.005,216.666 747.285,216.666C752.373,216.666 756.381,218.154 759.309,221.13C762.237,224.106 763.797,227.994 763.989,232.794L763.989,271.674L761.973,271.674L761.973,231.786C761.781,228.33 760.509,225.33 758.157,222.786C755.805,220.242 752.517,218.874 748.293,218.682C745.125,218.682 742.101,219.186 739.221,220.194C736.341,221.202 733.797,222.618 731.589,224.442C729.381,226.266 727.581,228.426 726.189,230.922C724.797,233.418 724.053,236.154 723.957,239.13L723.957,271.674L721.941,271.674L721.941,231.786C721.749,228.33 720.477,225.33 718.125,222.786C715.773,220.242 712.485,218.874 708.261,218.682C704.997,218.682 701.901,219.21 698.973,220.266C696.045,221.322 693.453,222.786 691.197,224.658C688.941,226.53 687.165,228.786 685.869,231.426C684.573,234.066 683.925,236.922 683.925,239.994L683.925,271.674L681.909,271.674L681.909,217.674Z" style="fill:white;fill-rule:nonzero;"/>
                <path d="M785.013,217.674L787.029,217.674L787.029,225.306L786.597,231.786C788.517,227.274 791.589,223.626 795.813,220.842C800.037,218.058 804.885,216.666 810.357,216.666C815.061,216.666 818.877,217.986 821.805,220.626C824.733,223.266 826.437,226.746 826.917,231.066C828.933,226.746 832.029,223.266 836.205,220.626C840.381,217.986 845.109,216.666 850.389,216.666C855.477,216.666 859.485,218.154 862.413,221.13C865.341,224.106 866.901,227.994 867.093,232.794L867.093,271.674L865.077,271.674L865.077,231.786C864.885,228.33 863.613,225.33 861.261,222.786C858.909,220.242 855.621,218.874 851.397,218.682C848.229,218.682 845.205,219.186 842.325,220.194C839.445,221.202 836.901,222.618 834.693,224.442C832.485,226.266 830.685,228.426 829.293,230.922C827.901,233.418 827.157,236.154 827.061,239.13L827.061,271.674L825.045,271.674L825.045,231.786C824.853,228.33 823.581,225.33 821.229,222.786C818.877,220.242 815.589,218.874 811.365,218.682C808.101,218.682 805.005,219.21 802.077,220.266C799.149,221.322 796.557,222.786 794.301,224.658C792.045,226.53 790.269,228.786 788.973,231.426C787.677,234.066 787.029,236.922 787.029,239.994L787.029,271.674L785.013,271.674L785.013,217.674Z" style="fill:white;fill-rule:nonzero;"/>
                <path d="M913.029,218.538C909.381,218.538 905.997,219.21 902.877,220.554C899.757,221.898 897.021,223.77 894.669,226.17C892.317,228.57 890.469,231.354 889.125,234.522C887.781,237.69 887.109,241.05 887.109,244.602C887.109,247.386 887.445,249.93 888.117,252.234C895.893,249.066 903.669,245.922 911.445,242.802C919.221,239.682 926.997,236.538 934.773,233.37C932.853,228.954 929.949,225.378 926.061,222.642C922.173,219.906 917.829,218.538 913.029,218.538ZM937.365,234.378C929.205,237.738 921.117,241.026 913.101,244.242C905.085,247.458 896.997,250.746 888.837,254.106C890.757,259.002 893.877,262.962 898.197,265.986C902.517,269.01 907.461,270.522 913.029,270.522C916.485,270.522 919.749,269.898 922.821,268.65C925.893,267.402 928.581,265.674 930.885,263.466C931.077,263.754 931.293,264.018 931.533,264.258C931.773,264.498 931.989,264.762 932.181,265.05C929.685,267.354 926.805,269.178 923.541,270.522C920.277,271.866 916.773,272.538 913.029,272.538C909.093,272.538 905.445,271.818 902.085,270.378C898.725,268.938 895.773,266.946 893.229,264.402C890.685,261.858 888.693,258.906 887.253,255.546C885.813,252.186 885.093,248.538 885.093,244.602C885.093,240.762 885.813,237.114 887.253,233.658C888.693,230.202 890.685,227.226 893.229,224.73C895.773,222.234 898.725,220.242 902.085,218.754C905.445,217.266 909.093,216.522 913.029,216.522C918.597,216.522 923.565,218.178 927.933,221.49C932.301,224.802 935.445,229.098 937.365,234.378Z" style="fill:white;fill-rule:nonzero;"/>
                <path d="M991.365,264.906L992.805,266.346C990.309,268.266 987.573,269.778 984.597,270.882C981.621,271.986 978.453,272.538 975.093,272.538C971.157,272.538 967.509,271.818 964.149,270.378C960.789,268.938 957.837,266.946 955.293,264.402C952.749,261.858 950.757,258.906 949.317,255.546C947.877,252.186 947.157,248.538 947.157,244.602C947.157,240.762 947.877,237.114 949.317,233.658C950.757,230.202 952.749,227.226 955.293,224.73C957.837,222.234 960.789,220.242 964.149,218.754C967.509,217.266 971.157,216.522 975.093,216.522C978.453,216.522 981.645,217.074 984.669,218.178C987.693,219.282 990.405,220.794 992.805,222.714C992.613,223.002 992.373,223.266 992.085,223.506C991.797,223.746 991.557,224.01 991.365,224.298C989.157,222.474 986.661,221.058 983.877,220.05C981.093,219.042 978.165,218.538 975.093,218.538C971.445,218.538 968.061,219.21 964.941,220.554C961.821,221.898 959.085,223.77 956.733,226.17C954.381,228.57 952.533,231.354 951.189,234.522C949.845,237.69 949.173,241.05 949.173,244.602C949.173,248.25 949.845,251.634 951.189,254.754C952.533,257.874 954.381,260.61 956.733,262.962C959.085,265.314 961.821,267.162 964.941,268.506C968.061,269.85 971.445,270.522 975.093,270.522C978.165,270.522 981.093,270.018 983.877,269.01C986.661,268.002 989.157,266.634 991.365,264.906Z" style="fill:white;fill-rule:nonzero;"/>
                <path d="M999.429,244.602C999.429,240.762 1000.15,237.114 1001.59,233.658C1003.03,230.202 1005.02,227.202 1007.56,224.658C1010.11,222.114 1013.06,220.098 1016.42,218.61C1019.78,217.122 1023.43,216.378 1027.36,216.378C1031.2,216.378 1034.85,217.122 1038.31,218.61C1041.76,220.098 1044.76,222.114 1047.31,224.658C1049.85,227.202 1051.87,230.202 1053.36,233.658C1054.84,237.114 1055.59,240.762 1055.59,244.602C1055.59,248.538 1054.84,252.186 1053.36,255.546C1051.87,258.906 1049.85,261.858 1047.31,264.402C1044.76,266.946 1041.76,268.938 1038.31,270.378C1034.85,271.818 1031.2,272.538 1027.36,272.538C1023.43,272.538 1019.78,271.818 1016.42,270.378C1013.06,268.938 1010.11,266.946 1007.56,264.402C1005.02,261.858 1003.03,258.906 1001.59,255.546C1000.15,252.186 999.429,248.538 999.429,244.602ZM1001.44,244.602C1001.44,248.25 1002.12,251.634 1003.46,254.754C1004.8,257.874 1006.65,260.61 1009,262.962C1011.36,265.314 1014.09,267.162 1017.21,268.506C1020.33,269.85 1023.72,270.522 1027.36,270.522C1030.92,270.522 1034.28,269.85 1037.44,268.506C1040.61,267.162 1043.4,265.314 1045.8,262.962C1048.2,260.61 1050.07,257.874 1051.41,254.754C1052.76,251.634 1053.43,248.25 1053.43,244.602C1053.43,241.05 1052.76,237.69 1051.41,234.522C1050.07,231.354 1048.2,228.57 1045.8,226.17C1043.4,223.77 1040.61,221.898 1037.44,220.554C1034.28,219.21 1030.92,218.538 1027.36,218.538C1023.72,218.538 1020.33,219.21 1017.21,220.554C1014.09,221.898 1011.36,223.77 1009,226.17C1006.65,228.57 1004.8,231.354 1003.46,234.522C1002.12,237.69 1001.44,241.05 1001.44,244.602Z" style="fill:white;fill-rule:nonzero;"/>
                <path d="M1068.69,244.602C1068.69,248.25 1069.36,251.634 1070.71,254.754C1072.05,257.874 1073.9,260.61 1076.25,262.962C1078.6,265.314 1081.34,267.162 1084.46,268.506C1087.58,269.85 1090.96,270.522 1094.61,270.522C1098.16,270.522 1101.52,269.85 1104.69,268.506C1107.86,267.162 1110.64,265.314 1113.04,262.962C1115.44,260.61 1117.32,257.874 1118.66,254.754C1120,251.634 1120.68,248.25 1120.68,244.602C1120.68,241.05 1120,237.69 1118.66,234.522C1117.32,231.354 1115.44,228.57 1113.04,226.17C1110.64,223.77 1107.86,221.898 1104.69,220.554C1101.52,219.21 1098.16,218.538 1094.61,218.538C1090.96,218.538 1087.58,219.21 1084.46,220.554C1081.34,221.898 1078.6,223.77 1076.25,226.17C1073.9,228.57 1072.05,231.354 1070.71,234.522C1069.36,237.69 1068.69,241.05 1068.69,244.602ZM1066.68,244.602C1066.68,240.762 1067.4,237.114 1068.84,233.658C1070.28,230.202 1072.27,227.226 1074.81,224.73C1077.36,222.234 1080.31,220.242 1083.67,218.754C1087.03,217.266 1090.68,216.522 1094.61,216.522C1097.59,216.522 1100.44,216.954 1103.18,217.818C1105.92,218.682 1108.41,219.906 1110.67,221.49C1112.92,223.074 1114.89,224.946 1116.57,227.106C1118.25,229.266 1119.62,231.642 1120.68,234.234L1120.68,226.458L1120.68,163.674L1122.69,163.674L1122.69,271.674L1120.68,271.674L1120.68,263.898C1120.68,262.362 1120.7,260.85 1120.75,259.362C1120.8,257.874 1120.82,256.362 1120.82,254.826C1119.76,257.418 1118.37,259.794 1116.64,261.954C1114.92,264.114 1112.92,265.986 1110.67,267.57C1108.41,269.154 1105.92,270.378 1103.18,271.242C1100.44,272.106 1097.59,272.538 1094.61,272.538C1090.68,272.538 1087.03,271.818 1083.67,270.378C1080.31,268.938 1077.36,266.946 1074.81,264.402C1072.27,261.858 1070.28,258.906 1068.84,255.546C1067.4,252.186 1066.68,248.538 1066.68,244.602Z" style="fill:white;fill-rule:nonzero;"/>
                <path d="M1164.16,218.538C1160.52,218.538 1157.13,219.21 1154.01,220.554C1150.89,221.898 1148.16,223.77 1145.8,226.17C1143.45,228.57 1141.6,231.354 1140.26,234.522C1138.92,237.69 1138.24,241.05 1138.24,244.602C1138.24,247.386 1138.58,249.93 1139.25,252.234C1147.03,249.066 1154.8,245.922 1162.58,242.802C1170.36,239.682 1178.13,236.538 1185.91,233.37C1183.99,228.954 1181.08,225.378 1177.2,222.642C1173.31,219.906 1168.96,218.538 1164.16,218.538ZM1188.5,234.378C1180.34,237.738 1172.25,241.026 1164.24,244.242C1156.22,247.458 1148.13,250.746 1139.97,254.106C1141.89,259.002 1145.01,262.962 1149.33,265.986C1153.65,269.01 1158.6,270.522 1164.16,270.522C1167.62,270.522 1170.88,269.898 1173.96,268.65C1177.03,267.402 1179.72,265.674 1182.02,263.466C1182.21,263.754 1182.43,264.018 1182.67,264.258C1182.91,264.498 1183.12,264.762 1183.32,265.05C1180.82,267.354 1177.94,269.178 1174.68,270.522C1171.41,271.866 1167.91,272.538 1164.16,272.538C1160.23,272.538 1156.58,271.818 1153.22,270.378C1149.86,268.938 1146.91,266.946 1144.36,264.402C1141.82,261.858 1139.83,258.906 1138.39,255.546C1136.95,252.186 1136.23,248.538 1136.23,244.602C1136.23,240.762 1136.95,237.114 1138.39,233.658C1139.83,230.202 1141.82,227.226 1144.36,224.73C1146.91,222.234 1149.86,220.242 1153.22,218.754C1156.58,217.266 1160.23,216.522 1164.16,216.522C1169.73,216.522 1174.7,218.178 1179.07,221.49C1183.44,224.802 1186.58,229.098 1188.5,234.378Z" style="fill:white;fill-rule:nonzero;"/>
            </g>
            <g transform="matrix(1,0,0,1,-230.477,178.259)">
                <path d="M683.109,261.066L683.109,257.274L689.733,257.274C690.661,257.274 691.277,257.506 691.581,257.97C691.885,258.434 692.037,259.162 692.037,260.154L692.037,269.658C690.757,270.394 689.389,270.978 687.933,271.41C686.477,271.842 684.933,272.058 683.301,272.058C680.933,272.058 678.709,271.61 676.629,270.714C674.549,269.818 672.733,268.594 671.181,267.042C669.629,265.49 668.405,263.674 667.509,261.594C666.613,259.514 666.165,257.29 666.165,254.922C666.165,252.554 666.613,250.322 667.509,248.226C668.405,246.13 669.629,244.306 671.181,242.754C672.733,241.202 674.549,239.97 676.629,239.058C678.709,238.146 680.933,237.69 683.301,237.69C684.933,237.69 686.477,237.898 687.933,238.314C689.389,238.73 690.773,239.322 692.085,240.09C691.733,240.634 691.365,241.17 690.981,241.698C690.597,242.226 690.229,242.762 689.877,243.306C688.885,242.73 687.845,242.282 686.757,241.962C685.669,241.642 684.517,241.482 683.301,241.482C681.477,241.482 679.773,241.834 678.189,242.538C676.605,243.242 675.213,244.21 674.013,245.442C672.813,246.674 671.869,248.106 671.181,249.738C670.493,251.37 670.149,253.098 670.149,254.922C670.149,256.746 670.493,258.474 671.181,260.106C671.869,261.738 672.813,263.154 674.013,264.354C675.213,265.554 676.605,266.506 678.189,267.21C679.773,267.914 681.477,268.266 683.301,268.266C684.965,268.266 686.549,267.978 688.053,267.402L688.053,262.506C688.053,261.962 687.997,261.586 687.885,261.378C687.773,261.17 687.461,261.066 686.949,261.066L683.109,261.066Z" style="fill:white;fill-rule:nonzero;"/>
                <rect x="700.197" y="238.074" width="3.984" height="33.6" style="fill:white;fill-rule:nonzero;"/>
                <path d="M736.197,238.074L740.181,238.074C737.685,243.962 735.205,249.818 732.741,255.642C730.277,261.466 727.797,267.322 725.301,273.21C722.805,267.322 720.325,261.466 717.861,255.642C715.397,249.818 712.917,243.962 710.421,238.074L714.405,238.074C716.165,242.234 717.909,246.354 719.637,250.434C721.365,254.514 723.109,258.634 724.869,262.794L725.301,264.378L725.733,262.794C727.493,258.634 729.237,254.514 730.965,250.434C732.693,246.354 734.437,242.234 736.197,238.074Z" style="fill:white;fill-rule:nonzero;"/>
                <path d="M744.837,271.674L744.837,238.074L765.525,238.074L765.525,241.866L748.821,241.866L748.821,252.858L763.653,252.858L763.653,256.65L748.821,256.65L748.821,267.882L766.197,267.882L766.197,271.674L744.837,271.674Z" style="fill:white;fill-rule:nonzero;"/>
                <path d="M787.653,236.538C790.597,240.346 793.525,244.146 796.437,247.938C799.349,251.73 802.277,255.53 805.221,259.338C808.165,255.53 811.093,251.73 814.005,247.938C816.917,244.146 819.845,240.346 822.789,236.538L822.789,271.674L818.805,271.674L818.805,249.114C818.837,248.858 818.861,248.602 818.877,248.346C818.893,248.09 818.917,247.834 818.949,247.578C816.837,250.714 814.597,253.762 812.229,256.722C809.861,259.682 807.525,262.666 805.221,265.674C803.077,262.858 800.933,260.058 798.789,257.274C796.645,254.49 794.501,251.69 792.357,248.874L791.493,247.578C791.525,247.834 791.549,248.09 791.565,248.346C791.581,248.602 791.605,248.858 791.637,249.114L791.637,271.674L787.653,271.674L787.653,236.538Z" style="fill:white;fill-rule:nonzero;"/>
                <path d="M830.181,271.674L830.181,238.074L850.869,238.074L850.869,241.866L834.165,241.866L834.165,252.858L848.997,252.858L848.997,256.65L834.165,256.65L834.165,267.882L851.541,267.882L851.541,271.674L830.181,271.674Z" style="fill:white;fill-rule:nonzero;"/>
                <path d="M883.941,272.058C882.213,272.058 880.613,271.818 879.141,271.338C877.669,270.858 876.389,270.146 875.301,269.202C874.213,268.258 873.365,267.082 872.757,265.674C872.149,264.266 871.845,262.65 871.845,260.826L871.845,238.074L875.829,238.074L875.829,260.682C875.829,261.898 876.029,262.978 876.429,263.922C876.829,264.866 877.389,265.658 878.109,266.298C878.829,266.938 879.685,267.426 880.677,267.762C881.669,268.098 882.757,268.266 883.941,268.266C885.125,268.266 886.213,268.098 887.205,267.762C888.197,267.426 889.053,266.938 889.773,266.298C890.493,265.658 891.061,264.866 891.477,263.922C891.893,262.978 892.101,261.898 892.101,260.682L892.101,238.074L896.085,238.074L896.085,260.826C896.085,262.65 895.773,264.266 895.149,265.674C894.525,267.082 893.669,268.258 892.581,269.202C891.493,270.146 890.213,270.858 888.741,271.338C887.269,271.818 885.669,272.058 883.941,272.058Z" style="fill:white;fill-rule:nonzero;"/>
                <path d="M932.661,238.074L932.661,273.21C928.533,268.826 924.437,264.474 920.373,260.154C916.309,255.834 912.213,251.482 908.085,247.098C907.925,246.874 907.773,246.666 907.629,246.474C907.485,246.282 907.333,246.074 907.173,245.85C907.205,246.106 907.229,246.362 907.245,246.618C907.261,246.874 907.285,247.13 907.317,247.386L907.317,271.674L903.333,271.674L903.333,236.538C907.461,241.018 911.557,245.458 915.621,249.858C919.685,254.258 923.781,258.698 927.909,263.178C928.069,263.402 928.221,263.61 928.365,263.802C928.509,263.994 928.661,264.202 928.821,264.426C928.789,264.17 928.765,263.914 928.749,263.658C928.733,263.402 928.709,263.146 928.677,262.89L928.677,238.074L932.661,238.074Z" style="fill:white;fill-rule:nonzero;"/>
                <rect x="941.349" y="238.074" width="3.984" height="33.6" style="fill:white;fill-rule:nonzero;"/>
                <path d="M975.669,266.49L977.829,269.658C976.549,270.394 975.181,270.978 973.725,271.41C972.269,271.842 970.725,272.058 969.093,272.058C966.725,272.058 964.501,271.61 962.421,270.714C960.341,269.818 958.525,268.594 956.973,267.042C955.421,265.49 954.197,263.674 953.301,261.594C952.405,259.514 951.957,257.29 951.957,254.922C951.957,252.554 952.405,250.322 953.301,248.226C954.197,246.13 955.421,244.306 956.973,242.754C958.525,241.202 960.341,239.97 962.421,239.058C964.501,238.146 966.725,237.69 969.093,237.69C970.725,237.69 972.269,237.898 973.725,238.314C975.181,238.73 976.565,239.322 977.877,240.09C977.525,240.634 977.157,241.17 976.773,241.698C976.389,242.226 976.021,242.762 975.669,243.306C974.677,242.73 973.637,242.282 972.549,241.962C971.461,241.642 970.309,241.482 969.093,241.482C967.269,241.482 965.565,241.834 963.981,242.538C962.397,243.242 961.005,244.21 959.805,245.442C958.605,246.674 957.661,248.106 956.973,249.738C956.285,251.37 955.941,253.098 955.941,254.922C955.941,256.746 956.285,258.474 956.973,260.106C957.661,261.738 958.605,263.154 959.805,264.354C961.005,265.554 962.397,266.506 963.981,267.21C965.565,267.914 967.269,268.266 969.093,268.266C971.461,268.266 973.653,267.674 975.669,266.49Z" style="fill:white;fill-rule:nonzero;"/>
                <path d="M983.157,254.922C983.157,252.586 983.605,250.37 984.501,248.274C985.397,246.178 986.621,244.346 988.173,242.778C989.725,241.21 991.541,239.97 993.621,239.058C995.701,238.146 997.925,237.69 1000.29,237.69C1002.63,237.69 1004.84,238.146 1006.94,239.058C1009.04,239.97 1010.87,241.21 1012.44,242.778C1014,244.346 1015.24,246.178 1016.16,248.274C1017.07,250.37 1017.52,252.586 1017.52,254.922C1017.52,257.29 1017.07,259.514 1016.16,261.594C1015.24,263.674 1014,265.49 1012.44,267.042C1010.87,268.594 1009.04,269.818 1006.94,270.714C1004.84,271.61 1002.63,272.058 1000.29,272.058C997.925,272.058 995.701,271.61 993.621,270.714C991.541,269.818 989.725,268.594 988.173,267.042C986.621,265.49 985.397,263.674 984.501,261.594C983.605,259.514 983.157,257.29 983.157,254.922ZM987.141,254.922C987.141,256.778 987.485,258.514 988.173,260.13C988.861,261.746 989.805,263.154 991.005,264.354C992.205,265.554 993.605,266.506 995.205,267.21C996.805,267.914 998.517,268.266 1000.34,268.266C1002.16,268.266 1003.88,267.914 1005.48,267.21C1007.08,266.506 1008.48,265.554 1009.68,264.354C1010.88,263.154 1011.82,261.746 1012.51,260.13C1013.2,258.514 1013.54,256.778 1013.54,254.922C1013.54,253.066 1013.2,251.33 1012.51,249.714C1011.82,248.098 1010.88,246.682 1009.68,245.466C1008.48,244.25 1007.08,243.29 1005.48,242.586C1003.88,241.882 1002.16,241.53 1000.34,241.53C998.517,241.53 996.805,241.882 995.205,242.586C993.605,243.29 992.205,244.25 991.005,245.466C989.805,246.682 988.861,248.098 988.173,249.714C987.485,251.33 987.141,253.066 987.141,254.922Z" style="fill:white;fill-rule:nonzero;"/>
                <path d="M1022.42,238.074L1030.24,238.074C1032.55,238.074 1034.72,238.466 1036.77,239.25C1038.82,240.034 1040.61,241.162 1042.15,242.634C1043.68,244.106 1044.9,245.874 1045.8,247.938C1046.69,250.002 1047.14,252.33 1047.14,254.922C1047.14,256.81 1046.81,258.746 1046.16,260.73C1045.5,262.714 1044.44,264.514 1042.96,266.13C1041.49,267.746 1039.58,269.074 1037.23,270.114C1034.88,271.154 1032,271.674 1028.61,271.674L1022.42,271.674L1022.42,238.074ZM1026.4,241.866L1026.4,267.834L1029.76,267.834C1031.65,267.834 1033.41,267.53 1035.04,266.922C1036.68,266.314 1038.09,265.442 1039.29,264.306C1040.49,263.17 1041.44,261.81 1042.12,260.226C1042.81,258.642 1043.16,256.858 1043.16,254.874C1043.16,252.89 1042.81,251.098 1042.12,249.498C1041.44,247.898 1040.49,246.53 1039.29,245.394C1038.09,244.258 1036.68,243.386 1035.04,242.778C1033.41,242.17 1031.65,241.866 1029.76,241.866L1026.4,241.866Z" style="fill:white;fill-rule:nonzero;"/>
                <path d="M1053.19,271.674L1053.19,238.074L1073.88,238.074L1073.88,241.866L1057.17,241.866L1057.17,252.858L1072,252.858L1072,256.65L1057.17,256.65L1057.17,267.882L1074.55,267.882L1074.55,271.674L1053.19,271.674Z" style="fill:white;fill-rule:nonzero;"/>
                <path d="M683.109,261.066L683.109,257.274L689.733,257.274C690.661,257.274 691.277,257.506 691.581,257.97C691.885,258.434 692.037,259.162 692.037,260.154L692.037,269.658C690.757,270.394 689.389,270.978 687.933,271.41C686.477,271.842 684.933,272.058 683.301,272.058C680.933,272.058 678.709,271.61 676.629,270.714C674.549,269.818 672.733,268.594 671.181,267.042C669.629,265.49 668.405,263.674 667.509,261.594C666.613,259.514 666.165,257.29 666.165,254.922C666.165,252.554 666.613,250.322 667.509,248.226C668.405,246.13 669.629,244.306 671.181,242.754C672.733,241.202 674.549,239.97 676.629,239.058C678.709,238.146 680.933,237.69 683.301,237.69C684.933,237.69 686.477,237.898 687.933,238.314C689.389,238.73 690.773,239.322 692.085,240.09C691.733,240.634 691.365,241.17 690.981,241.698C690.597,242.226 690.229,242.762 689.877,243.306C688.885,242.73 687.845,242.282 686.757,241.962C685.669,241.642 684.517,241.482 683.301,241.482C681.477,241.482 679.773,241.834 678.189,242.538C676.605,243.242 675.213,244.21 674.013,245.442C672.813,246.674 671.869,248.106 671.181,249.738C670.493,251.37 670.149,253.098 670.149,254.922C670.149,256.746 670.493,258.474 671.181,260.106C671.869,261.738 672.813,263.154 674.013,264.354C675.213,265.554 676.605,266.506 678.189,267.21C679.773,267.914 681.477,268.266 683.301,268.266C684.965,268.266 686.549,267.978 688.053,267.402L688.053,262.506C688.053,261.962 687.997,261.586 687.885,261.378C687.773,261.17 687.461,261.066 686.949,261.066L683.109,261.066Z" style="fill:none;stroke-width:1.5px;stroke:white;"/>
                <rect x="700.197" y="238.074" width="3.984" height="33.6" style="fill:none;stroke-width:1.5px;stroke:white;"/>
                <path d="M736.197,238.074L740.181,238.074C737.685,243.962 735.205,249.818 732.741,255.642C730.277,261.466 727.797,267.322 725.301,273.21C722.805,267.322 720.325,261.466 717.861,255.642C715.397,249.818 712.917,243.962 710.421,238.074L714.405,238.074C716.165,242.234 717.909,246.354 719.637,250.434C721.365,254.514 723.109,258.634 724.869,262.794L725.301,264.378L725.733,262.794C727.493,258.634 729.237,254.514 730.965,250.434C732.693,246.354 734.437,242.234 736.197,238.074Z" style="fill:none;stroke-width:1.5px;stroke:white;"/>
                <path d="M744.837,271.674L744.837,238.074L765.525,238.074L765.525,241.866L748.821,241.866L748.821,252.858L763.653,252.858L763.653,256.65L748.821,256.65L748.821,267.882L766.197,267.882L766.197,271.674L744.837,271.674Z" style="fill:none;stroke-width:1.5px;stroke:white;"/>
                <path d="M787.653,236.538C790.597,240.346 793.525,244.146 796.437,247.938C799.349,251.73 802.277,255.53 805.221,259.338C808.165,255.53 811.093,251.73 814.005,247.938C816.917,244.146 819.845,240.346 822.789,236.538L822.789,271.674L818.805,271.674L818.805,249.114C818.837,248.858 818.861,248.602 818.877,248.346C818.893,248.09 818.917,247.834 818.949,247.578C816.837,250.714 814.597,253.762 812.229,256.722C809.861,259.682 807.525,262.666 805.221,265.674C803.077,262.858 800.933,260.058 798.789,257.274C796.645,254.49 794.501,251.69 792.357,248.874L791.493,247.578C791.525,247.834 791.549,248.09 791.565,248.346C791.581,248.602 791.605,248.858 791.637,249.114L791.637,271.674L787.653,271.674L787.653,236.538Z" style="fill:none;stroke-width:1.5px;stroke:white;"/>
                <path d="M830.181,271.674L830.181,238.074L850.869,238.074L850.869,241.866L834.165,241.866L834.165,252.858L848.997,252.858L848.997,256.65L834.165,256.65L834.165,267.882L851.541,267.882L851.541,271.674L830.181,271.674Z" style="fill:none;stroke-width:1.5px;stroke:white;"/>
                <path d="M883.941,272.058C882.213,272.058 880.613,271.818 879.141,271.338C877.669,270.858 876.389,270.146 875.301,269.202C874.213,268.258 873.365,267.082 872.757,265.674C872.149,264.266 871.845,262.65 871.845,260.826L871.845,238.074L875.829,238.074L875.829,260.682C875.829,261.898 876.029,262.978 876.429,263.922C876.829,264.866 877.389,265.658 878.109,266.298C878.829,266.938 879.685,267.426 880.677,267.762C881.669,268.098 882.757,268.266 883.941,268.266C885.125,268.266 886.213,268.098 887.205,267.762C888.197,267.426 889.053,266.938 889.773,266.298C890.493,265.658 891.061,264.866 891.477,263.922C891.893,262.978 892.101,261.898 892.101,260.682L892.101,238.074L896.085,238.074L896.085,260.826C896.085,262.65 895.773,264.266 895.149,265.674C894.525,267.082 893.669,268.258 892.581,269.202C891.493,270.146 890.213,270.858 888.741,271.338C887.269,271.818 885.669,272.058 883.941,272.058Z" style="fill:none;stroke-width:1.5px;stroke:white;"/>
                <path d="M932.661,238.074L932.661,273.21C928.533,268.826 924.437,264.474 920.373,260.154C916.309,255.834 912.213,251.482 908.085,247.098C907.925,246.874 907.773,246.666 907.629,246.474C907.485,246.282 907.333,246.074 907.173,245.85C907.205,246.106 907.229,246.362 907.245,246.618C907.261,246.874 907.285,247.13 907.317,247.386L907.317,271.674L903.333,271.674L903.333,236.538C907.461,241.018 911.557,245.458 915.621,249.858C919.685,254.258 923.781,258.698 927.909,263.178C928.069,263.402 928.221,263.61 928.365,263.802C928.509,263.994 928.661,264.202 928.821,264.426C928.789,264.17 928.765,263.914 928.749,263.658C928.733,263.402 928.709,263.146 928.677,262.89L928.677,238.074L932.661,238.074Z" style="fill:none;stroke-width:1.5px;stroke:white;"/>
                <rect x="941.349" y="238.074" width="3.984" height="33.6" style="fill:none;stroke-width:1.5px;stroke:white;"/>
                <path d="M975.669,266.49L977.829,269.658C976.549,270.394 975.181,270.978 973.725,271.41C972.269,271.842 970.725,272.058 969.093,272.058C966.725,272.058 964.501,271.61 962.421,270.714C960.341,269.818 958.525,268.594 956.973,267.042C955.421,265.49 954.197,263.674 953.301,261.594C952.405,259.514 951.957,257.29 951.957,254.922C951.957,252.554 952.405,250.322 953.301,248.226C954.197,246.13 955.421,244.306 956.973,242.754C958.525,241.202 960.341,239.97 962.421,239.058C964.501,238.146 966.725,237.69 969.093,237.69C970.725,237.69 972.269,237.898 973.725,238.314C975.181,238.73 976.565,239.322 977.877,240.09C977.525,240.634 977.157,241.17 976.773,241.698C976.389,242.226 976.021,242.762 975.669,243.306C974.677,242.73 973.637,242.282 972.549,241.962C971.461,241.642 970.309,241.482 969.093,241.482C967.269,241.482 965.565,241.834 963.981,242.538C962.397,243.242 961.005,244.21 959.805,245.442C958.605,246.674 957.661,248.106 956.973,249.738C956.285,251.37 955.941,253.098 955.941,254.922C955.941,256.746 956.285,258.474 956.973,260.106C957.661,261.738 958.605,263.154 959.805,264.354C961.005,265.554 962.397,266.506 963.981,267.21C965.565,267.914 967.269,268.266 969.093,268.266C971.461,268.266 973.653,267.674 975.669,266.49Z" style="fill:none;stroke-width:1.5px;stroke:white;"/>
                <path d="M983.157,254.922C983.157,252.586 983.605,250.37 984.501,248.274C985.397,246.178 986.621,244.346 988.173,242.778C989.725,241.21 991.541,239.97 993.621,239.058C995.701,238.146 997.925,237.69 1000.29,237.69C1002.63,237.69 1004.84,238.146 1006.94,239.058C1009.04,239.97 1010.87,241.21 1012.44,242.778C1014,244.346 1015.24,246.178 1016.16,248.274C1017.07,250.37 1017.52,252.586 1017.52,254.922C1017.52,257.29 1017.07,259.514 1016.16,261.594C1015.24,263.674 1014,265.49 1012.44,267.042C1010.87,268.594 1009.04,269.818 1006.94,270.714C1004.84,271.61 1002.63,272.058 1000.29,272.058C997.925,272.058 995.701,271.61 993.621,270.714C991.541,269.818 989.725,268.594 988.173,267.042C986.621,265.49 985.397,263.674 984.501,261.594C983.605,259.514 983.157,257.29 983.157,254.922ZM987.141,254.922C987.141,256.778 987.485,258.514 988.173,260.13C988.861,261.746 989.805,263.154 991.005,264.354C992.205,265.554 993.605,266.506 995.205,267.21C996.805,267.914 998.517,268.266 1000.34,268.266C1002.16,268.266 1003.88,267.914 1005.48,267.21C1007.08,266.506 1008.48,265.554 1009.68,264.354C1010.88,263.154 1011.82,261.746 1012.51,260.13C1013.2,258.514 1013.54,256.778 1013.54,254.922C1013.54,253.066 1013.2,251.33 1012.51,249.714C1011.82,248.098 1010.88,246.682 1009.68,245.466C1008.48,244.25 1007.08,243.29 1005.48,242.586C1003.88,241.882 1002.16,241.53 1000.34,241.53C998.517,241.53 996.805,241.882 995.205,242.586C993.605,243.29 992.205,244.25 991.005,245.466C989.805,246.682 988.861,248.098 988.173,249.714C987.485,251.33 987.141,253.066 987.141,254.922Z" style="fill:none;stroke-width:1.5px;stroke:white;"/>
                <path d="M1022.42,238.074L1030.24,238.074C1032.55,238.074 1034.72,238.466 1036.77,239.25C1038.82,240.034 1040.61,241.162 1042.15,242.634C1043.68,244.106 1044.9,245.874 1045.8,247.938C1046.69,250.002 1047.14,252.33 1047.14,254.922C1047.14,256.81 1046.81,258.746 1046.16,260.73C1045.5,262.714 1044.44,264.514 1042.96,266.13C1041.49,267.746 1039.58,269.074 1037.23,270.114C1034.88,271.154 1032,271.674 1028.61,271.674L1022.42,271.674L1022.42,238.074ZM1026.4,241.866L1026.4,267.834L1029.76,267.834C1031.65,267.834 1033.41,267.53 1035.04,266.922C1036.68,266.314 1038.09,265.442 1039.29,264.306C1040.49,263.17 1041.44,261.81 1042.12,260.226C1042.81,258.642 1043.16,256.858 1043.16,254.874C1043.16,252.89 1042.81,251.098 1042.12,249.498C1041.44,247.898 1040.49,246.53 1039.29,245.394C1038.09,244.258 1036.68,243.386 1035.04,242.778C1033.41,242.17 1031.65,241.866 1029.76,241.866L1026.4,241.866Z" style="fill:none;stroke-width:1.5px;stroke:white;"/>
                <path d="M1053.19,271.674L1053.19,238.074L1073.88,238.074L1073.88,241.866L1057.17,241.866L1057.17,252.858L1072,252.858L1072,256.65L1057.17,256.65L1057.17,267.882L1074.55,267.882L1074.55,271.674L1053.19,271.674Z" style="fill:none;stroke-width:1.5px;stroke:white;"/>
            </g>
        </g>
    </g>
</svg>
