<svg xmlns="http://www.w3.org/2000/svg" fill-rule="evenodd" stroke-linejoin="round" stroke-miterlimit="1.41" clip-rule="evenodd" viewBox="0 0 1280 720" width="1280" height="720"><path fill="#1a9bcf" d="M0 0h1280v720H0z"/><g fill="#fff" fill-rule="nonzero"><path d="M375.688 324.882v-2.016h18.432c2.976 0 5.112.384 6.408 1.152 1.296.768 1.944 2.544 1.944 5.328v30.672a57.3 57.3 0 0 1-12.312 5.256c-4.368 1.296-9 1.944-13.896 1.944-7.104 0-13.776-1.344-20.016-4.032-6.24-2.688-11.688-6.36-16.344-11.016-4.656-4.656-8.328-10.104-11.016-16.344-2.688-6.24-4.032-12.912-4.032-20.016 0-7.104 1.344-13.8 4.032-20.088 2.688-6.288 6.36-11.76 11.016-16.416 4.656-4.656 10.104-8.352 16.344-11.088 6.24-2.736 12.912-4.104 20.016-4.104 4.896 0 9.528.624 13.896 1.872a53.843 53.843 0 0 1 12.456 5.328l-1.152 1.728c-3.648-2.208-7.608-3.912-11.88-5.112-4.272-1.2-8.712-1.8-13.32-1.8-6.816 0-13.224 1.32-19.224 3.96-6 2.64-11.232 6.216-15.696 10.728s-7.992 9.792-10.584 15.84c-2.592 6.048-3.888 12.48-3.888 19.296 0 6.816 1.296 13.2 3.888 19.152 2.592 5.952 6.096 11.16 10.512 15.624s9.6 7.992 15.552 10.584c5.952 2.592 12.288 3.888 19.008 3.888 4.512 0 8.832-.552 12.96-1.656a47.84 47.84 0 0 0 11.664-4.824v-30.528c0-.864-.312-1.632-.936-2.304-.624-.672-1.752-1.008-3.384-1.008h-20.448zm45.072-30.816c0-.768.288-1.44.864-2.016.576-.576 1.248-.864 2.016-.864s1.44.288 2.016.864c.576.576.864 1.248.864 2.016s-.288 1.44-.864 2.016c-.576.576-1.248.864-2.016.864s-1.44-.288-2.016-.864c-.576-.576-.864-1.248-.864-2.016zm3.888 72h-2.016v-54h2.016v54zm25.344-54h2.016v7.632l-.432 6.48c1.92-4.512 4.992-8.16 9.216-10.944 4.224-2.784 9.072-4.176 14.544-4.176 4.704 0 8.52 1.32 11.448 3.96 2.928 2.64 4.632 6.12 5.112 10.44 2.016-4.32 5.112-7.8 9.288-10.44 4.176-2.64 8.904-3.96 14.184-3.96 5.088 0 9.096 1.488 12.024 4.464 2.928 2.976 4.488 6.864 4.68 11.664v38.88h-2.016v-39.888c-.192-3.456-1.464-6.456-3.816-9-2.352-2.544-5.64-3.912-9.864-4.104-3.168 0-6.192.504-9.072 1.512-2.88 1.008-5.424 2.424-7.632 4.248a22.634 22.634 0 0 0-5.4 6.48c-1.392 2.496-2.136 5.232-2.232 8.208v32.544h-2.016v-39.888c-.192-3.456-1.464-6.456-3.816-9-2.352-2.544-5.64-3.912-9.864-4.104-3.264 0-6.36.528-9.288 1.584s-5.52 2.52-7.776 4.392a20.348 20.348 0 0 0-5.328 6.768c-1.296 2.64-1.944 5.496-1.944 8.568v31.68h-2.016v-54zm103.104 0h2.016v7.632l-.432 6.48c1.92-4.512 4.992-8.16 9.216-10.944 4.224-2.784 9.072-4.176 14.544-4.176 4.704 0 8.52 1.32 11.448 3.96 2.928 2.64 4.632 6.12 5.112 10.44 2.016-4.32 5.112-7.8 9.288-10.44 4.176-2.64 8.904-3.96 14.184-3.96 5.088 0 9.096 1.488 12.024 4.464 2.928 2.976 4.488 6.864 4.68 11.664v38.88h-2.016v-39.888c-.192-3.456-1.464-6.456-3.816-9-2.352-2.544-5.64-3.912-9.864-4.104-3.168 0-6.192.504-9.072 1.512-2.88 1.008-5.424 2.424-7.632 4.248a22.634 22.634 0 0 0-5.4 6.48c-1.392 2.496-2.136 5.232-2.232 8.208v32.544h-2.016v-39.888c-.192-3.456-1.464-6.456-3.816-9-2.352-2.544-5.64-3.912-9.864-4.104-3.264 0-6.36.528-9.288 1.584s-5.52 2.52-7.776 4.392a20.348 20.348 0 0 0-5.328 6.768c-1.296 2.64-1.944 5.496-1.944 8.568v31.68h-2.016v-54zm128.016.864c-3.648 0-7.032.672-10.152 2.016a25.505 25.505 0 0 0-8.208 5.616c-2.352 2.4-4.2 5.184-5.544 8.352-1.344 3.168-2.016 6.528-2.016 10.08 0 2.784.336 5.328 1.008 7.632a4742.737 4742.737 0 0 1 23.328-9.432c7.776-3.12 15.552-6.264 23.328-9.432-1.92-4.416-4.824-7.992-8.712-10.728-3.888-2.736-8.232-4.104-13.032-4.104zm24.336 15.84a2888.47 2888.47 0 0 1-24.264 9.864 2888.47 2888.47 0 0 0-24.264 9.864c1.92 4.896 5.04 8.856 9.36 11.88 4.32 3.024 9.264 4.536 14.832 4.536 3.456 0 6.72-.624 9.792-1.872 3.072-1.248 5.76-2.976 8.064-5.184.192.288.408.552.648.792.24.24.456.504.648.792-2.496 2.304-5.376 4.128-8.64 5.472-3.264 1.344-6.768 2.016-10.512 2.016-3.936 0-7.584-.72-10.944-2.16a27.997 27.997 0 0 1-8.856-5.976 27.997 27.997 0 0 1-5.976-8.856c-1.44-3.36-2.16-7.008-2.16-10.944 0-3.84.72-7.488 2.16-10.944 1.44-3.456 3.432-6.432 5.976-8.928 2.544-2.496 5.496-4.488 8.856-5.976 3.36-1.488 7.008-2.232 10.944-2.232 5.568 0 10.536 1.656 14.904 4.968 4.368 3.312 7.512 7.608 9.432 12.888zm54 30.528l1.44 1.44a31.154 31.154 0 0 1-8.208 4.536c-2.976 1.104-6.144 1.656-9.504 1.656-3.936 0-7.584-.72-10.944-2.16a27.997 27.997 0 0 1-8.856-5.976 27.997 27.997 0 0 1-5.976-8.856c-1.44-3.36-2.16-7.008-2.16-10.944 0-3.84.72-7.488 2.16-10.944 1.44-3.456 3.432-6.432 5.976-8.928 2.544-2.496 5.496-4.488 8.856-5.976 3.36-1.488 7.008-2.232 10.944-2.232 3.36 0 6.552.552 9.576 1.656 3.024 1.104 5.736 2.616 8.136 4.536a3.714 3.714 0 0 1-.72.792c-.288.24-.528.504-.72.792-2.208-1.824-4.704-3.24-7.488-4.248-2.784-1.008-5.712-1.512-8.784-1.512-3.648 0-7.032.672-10.152 2.016a25.505 25.505 0 0 0-8.208 5.616c-2.352 2.4-4.2 5.184-5.544 8.352-1.344 3.168-2.016 6.528-2.016 10.08 0 3.648.672 7.032 2.016 10.152 1.344 3.12 3.192 5.856 5.544 8.208 2.352 2.352 5.088 4.2 8.208 5.544 3.12 1.344 6.504 2.016 10.152 2.016 3.072 0 6-.504 8.784-1.512 2.784-1.008 5.28-2.376 7.488-4.104zm8.064-20.304c0-3.84.72-7.488 2.16-10.944 1.44-3.456 3.432-6.456 5.976-9 2.544-2.544 5.496-4.56 8.856-6.048 3.36-1.488 7.008-2.232 10.944-2.232 3.84 0 7.488.744 10.944 2.232 3.456 1.488 6.456 3.504 9 6.048 2.544 2.544 4.56 5.544 6.048 9 1.488 3.456 2.232 7.104 2.232 10.944 0 3.936-.744 7.584-2.232 10.944-1.488 3.36-3.504 6.312-6.048 8.856-2.544 2.544-5.544 4.536-9 5.976-3.456 1.44-7.104 2.16-10.944 2.16-3.936 0-7.584-.72-10.944-2.16a27.997 27.997 0 0 1-8.856-5.976 27.997 27.997 0 0 1-5.976-8.856c-1.44-3.36-2.16-7.008-2.16-10.944zm2.011 0c0 3.648.672 7.032 2.016 10.152 1.344 3.12 3.192 5.856 5.544 8.208 2.352 2.352 5.088 4.2 8.208 5.544 3.12 1.344 6.504 2.016 10.152 2.016 3.552 0 6.912-.672 10.08-2.016 3.168-1.344 5.952-3.192 8.352-5.544a25.505 25.505 0 0 0 5.616-8.208c1.344-3.12 2.016-6.504 2.016-10.152 0-3.552-.672-6.912-2.016-10.08a26.12 26.12 0 0 0-5.616-8.352 26.12 26.12 0 0 0-8.352-5.616c-3.168-1.344-6.528-2.016-10.08-2.016-3.648 0-7.032.672-10.152 2.016a25.505 25.505 0 0 0-8.208 5.616c-2.352 2.4-4.2 5.184-5.544 8.352-1.344 3.168-2.016 6.528-2.016 10.08zm67.25 0c0 3.648.672 7.032 2.016 10.152 1.344 3.12 3.192 5.856 5.544 8.208 2.352 2.352 5.088 4.2 8.208 5.544 3.12 1.344 6.504 2.016 10.152 2.016 3.552 0 6.912-.672 10.08-2.016 3.168-1.344 5.952-3.192 8.352-5.544a25.505 25.505 0 0 0 5.616-8.208c1.344-3.12 2.016-6.504 2.016-10.152 0-3.552-.672-6.912-2.016-10.08a26.12 26.12 0 0 0-5.616-8.352 26.12 26.12 0 0 0-8.352-5.616c-3.168-1.344-6.528-2.016-10.08-2.016-3.648 0-7.032.672-10.152 2.016a25.505 25.505 0 0 0-8.208 5.616c-2.352 2.4-4.2 5.184-5.544 8.352-1.344 3.168-2.016 6.528-2.016 10.08zm-2.01 0c0-3.84.72-7.488 2.16-10.944 1.44-3.456 3.432-6.432 5.976-8.928 2.544-2.496 5.496-4.488 8.856-5.976 3.36-1.488 7.008-2.232 10.944-2.232 2.976 0 5.832.432 8.568 1.296 2.736.864 5.232 2.088 7.488 3.672a27.331 27.331 0 0 1 5.904 5.616 29.957 29.957 0 0 1 4.104 7.128v-70.56h2.016v108h-2.016v-7.776c0-1.536.024-3.048.072-4.536.048-1.488.072-3 .072-4.536a28.838 28.838 0 0 1-10.152 12.744c-2.256 1.584-4.752 2.808-7.488 3.672-2.736.864-5.592 1.296-8.568 1.296-3.936 0-7.584-.72-10.944-2.16a27.997 27.997 0 0 1-8.856-5.976 27.997 27.997 0 0 1-5.976-8.856c-1.44-3.36-2.16-7.008-2.16-10.944zm97.49-26.064c-3.648 0-7.032.672-10.152 2.016a25.505 25.505 0 0 0-8.208 5.616c-2.352 2.4-4.2 5.184-5.544 8.352-1.344 3.168-2.016 6.528-2.016 10.08 0 2.784.336 5.328 1.008 7.632a4742.737 4742.737 0 0 1 23.328-9.432c7.776-3.12 15.552-6.264 23.328-9.432-1.92-4.416-4.824-7.992-8.712-10.728-3.888-2.736-8.232-4.104-13.032-4.104zm24.33 15.84a2888.47 2888.47 0 0 1-24.264 9.864 2888.47 2888.47 0 0 0-24.264 9.864c1.92 4.896 5.04 8.856 9.36 11.88 4.32 3.024 9.264 4.536 14.832 4.536 3.456 0 6.72-.624 9.792-1.872 3.072-1.248 5.76-2.976 8.064-5.184.192.288.408.552.648.792.24.24.456.504.648.792-2.496 2.304-5.376 4.128-8.64 5.472-3.264 1.344-6.768 2.016-10.512 2.016-3.936 0-7.584-.72-10.944-2.16a27.997 27.997 0 0 1-8.856-5.976 27.997 27.997 0 0 1-5.976-8.856c-1.44-3.36-2.16-7.008-2.16-10.944 0-3.84.72-7.488 2.16-10.944 1.44-3.456 3.432-6.432 5.976-8.928 2.544-2.496 5.496-4.488 8.856-5.976 3.36-1.488 7.008-2.232 10.944-2.232 5.568 0 10.536 1.656 14.904 4.968 4.368 3.312 7.512 7.608 9.432 12.888z"/><path stroke="#fff" stroke-width="1.5" d="M452.152 439.326v-3.792h6.624c.928 0 1.544.232 1.848.696.304.464.456 1.192.456 2.184v9.504a19.1 19.1 0 0 1-4.104 1.752c-1.456.432-3 .648-4.632.648-2.368 0-4.592-.448-6.672-1.344a17.304 17.304 0 0 1-5.448-3.672 17.304 17.304 0 0 1-3.672-5.448c-.896-2.08-1.344-4.304-1.344-6.672 0-2.368.448-4.6 1.344-6.696.896-2.096 2.12-3.92 3.672-5.472 1.552-1.552 3.368-2.784 5.448-3.696 2.08-.912 4.304-1.368 6.672-1.368 1.632 0 3.176.208 4.632.624a17.948 17.948 0 0 1 4.152 1.776c-.352.544-.72 1.08-1.104 1.608a35.793 35.793 0 0 0-1.104 1.608 14.138 14.138 0 0 0-3.12-1.344c-1.088-.32-2.24-.48-3.456-.48-1.824 0-3.528.352-5.112 1.056a13.335 13.335 0 0 0-4.176 2.904 13.748 13.748 0 0 0-2.832 4.296 13.208 13.208 0 0 0-1.032 5.184c0 1.824.344 3.552 1.032 5.184.688 1.632 1.632 3.048 2.832 4.248 1.2 1.2 2.592 2.152 4.176 2.856 1.584.704 3.288 1.056 5.112 1.056 1.664 0 3.248-.288 4.752-.864v-4.896c0-.544-.056-.92-.168-1.128-.112-.208-.424-.312-.936-.312h-3.84zm17.088-22.996h3.98v33.6h-3.98zm36 .004h3.984a26910.83 26910.83 0 0 0-7.44 17.568 26910.83 26910.83 0 0 1-7.44 17.568 26910.83 26910.83 0 0 1-7.44-17.568 26910.83 26910.83 0 0 0-7.44-17.568h3.984l5.232 12.36 5.232 12.36.432 1.584.432-1.584 5.232-12.36 5.232-12.36zm8.64 33.6v-33.6h20.688v3.792h-16.704v10.992h14.832v3.792h-14.832v11.232h17.376v3.792h-21.36zm42.816-35.136a4430.6 4430.6 0 0 1 8.784 11.4 4430.6 4430.6 0 0 0 8.784 11.4 4430.6 4430.6 0 0 0 8.784-11.4 4430.6 4430.6 0 0 1 8.784-11.4v35.136h-3.984v-22.56c.032-.256.056-.512.072-.768.016-.256.04-.512.072-.768a138.294 138.294 0 0 1-6.72 9.144 538.673 538.673 0 0 0-7.008 8.952 1917.81 1917.81 0 0 0-6.432-8.4 1917.81 1917.81 0 0 1-6.432-8.4l-.864-1.296c.032.256.056.512.072.768.016.256.04.512.072.768v22.56h-3.984v-35.136zm42.528 35.136v-33.6h20.688v3.792h-16.704v10.992h14.832v3.792h-14.832v11.232h17.376v3.792h-21.36zm53.76.384c-1.728 0-3.328-.24-4.8-.72s-2.752-1.192-3.84-2.136c-1.088-.944-1.936-2.12-2.544-3.528-.608-1.408-.912-3.024-.912-4.848v-22.752h3.984v22.608c0 1.216.2 2.296.6 3.24.4.944.96 1.736 1.68 2.376.72.64 1.576 1.128 2.568 1.464.992.336 2.08.504 3.264.504 1.184 0 2.272-.168 3.264-.504.992-.336 1.848-.824 2.568-1.464a6.795 6.795 0 0 0 1.704-2.376c.416-.944.624-2.024.624-3.24v-22.608h3.984v22.752c0 1.824-.312 3.44-.936 4.848-.624 1.408-1.48 2.584-2.568 3.528s-2.368 1.656-3.84 2.136c-1.472.48-3.072.72-4.8.72zm48.72-33.984v35.136c-4.128-4.384-8.224-8.736-12.288-13.056-4.064-4.32-8.16-8.672-12.288-13.056-.16-.224-.312-.432-.456-.624-.144-.192-.296-.4-.456-.624.032.256.056.512.072.768.016.256.04.512.072.768v24.288h-3.984v-35.136c4.128 4.48 8.224 8.92 12.288 13.32s8.16 8.84 12.288 13.32c.16.224.312.432.456.624.144.192.296.4.456.624a12.453 12.453 0 0 1-.072-.768c-.016-.256-.04-.512-.072-.768v-24.816h3.984zm8.686-.004h3.98v33.6h-3.98zm34.322 28.42l2.16 3.168a19.1 19.1 0 0 1-4.104 1.752c-1.456.432-3 .648-4.632.648-2.368 0-4.592-.448-6.672-1.344a17.304 17.304 0 0 1-5.448-3.672 17.304 17.304 0 0 1-3.672-5.448c-.896-2.08-1.344-4.304-1.344-6.672 0-2.368.448-4.6 1.344-6.696.896-2.096 2.12-3.92 3.672-5.472 1.552-1.552 3.368-2.784 5.448-3.696 2.08-.912 4.304-1.368 6.672-1.368 1.632 0 3.176.208 4.632.624a17.948 17.948 0 0 1 4.152 1.776c-.352.544-.72 1.08-1.104 1.608a35.793 35.793 0 0 0-1.104 1.608 14.138 14.138 0 0 0-3.12-1.344c-1.088-.32-2.24-.48-3.456-.48-1.824 0-3.528.352-5.112 1.056a13.335 13.335 0 0 0-4.176 2.904 13.748 13.748 0 0 0-2.832 4.296 13.208 13.208 0 0 0-1.032 5.184c0 1.824.344 3.552 1.032 5.184.688 1.632 1.632 3.048 2.832 4.248 1.2 1.2 2.592 2.152 4.176 2.856 1.584.704 3.288 1.056 5.112 1.056 2.368 0 4.56-.592 6.576-1.776zm7.488-11.568c0-2.336.448-4.552 1.344-6.648.896-2.096 2.12-3.928 3.672-5.496a17.436 17.436 0 0 1 5.448-3.72c2.08-.912 4.304-1.368 6.672-1.368 2.336 0 4.552.456 6.648 1.368a17.65 17.65 0 0 1 5.496 3.72 17.65 17.65 0 0 1 3.72 5.496 16.483 16.483 0 0 1 1.368 6.648c0 2.368-.456 4.592-1.368 6.672a17.436 17.436 0 0 1-3.72 5.448c-1.568 1.552-3.4 2.776-5.496 3.672a16.736 16.736 0 0 1-6.648 1.344c-2.368 0-4.592-.448-6.672-1.344a17.304 17.304 0 0 1-5.448-3.672 17.304 17.304 0 0 1-3.672-5.448c-.896-2.08-1.344-4.304-1.344-6.672zm3.984 0c0 1.856.344 3.592 1.032 5.208a13.245 13.245 0 0 0 2.832 4.224c1.2 1.2 2.6 2.152 4.2 2.856 1.6.704 3.312 1.056 5.136 1.056 1.824 0 3.536-.352 5.136-1.056 1.6-.704 3-1.656 4.2-2.856 1.2-1.2 2.144-2.608 2.832-4.224.688-1.616 1.032-3.352 1.032-5.208 0-1.856-.344-3.592-1.032-5.208a13.531 13.531 0 0 0-2.832-4.248 13.452 13.452 0 0 0-4.2-2.88c-1.6-.704-3.312-1.056-5.136-1.056-1.824 0-3.536.352-5.136 1.056-1.6.704-3 1.664-4.2 2.88a13.531 13.531 0 0 0-2.832 4.248c-.688 1.616-1.032 3.352-1.032 5.208zm35.28-16.848h7.824c2.304 0 4.48.392 6.528 1.176a15.891 15.891 0 0 1 5.376 3.384c1.536 1.472 2.752 3.24 3.648 5.304.896 2.064 1.344 4.392 1.344 6.984 0 1.888-.328 3.824-.984 5.808-.656 1.984-1.72 3.784-3.192 5.4-1.472 1.616-3.384 2.944-5.736 3.984s-5.224 1.56-8.616 1.56h-6.192v-33.6zm3.984 3.792v25.968h3.36c1.888 0 3.648-.304 5.28-.912 1.632-.608 3.048-1.48 4.248-2.616 1.2-1.136 2.144-2.496 2.832-4.08.688-1.584 1.032-3.368 1.032-5.352 0-1.984-.344-3.776-1.032-5.376-.688-1.6-1.632-2.968-2.832-4.104-1.2-1.136-2.616-2.008-4.248-2.616-1.632-.608-3.392-.912-5.28-.912h-3.36zm26.784 29.808v-33.6h20.688v3.792h-16.704v10.992h14.832v3.792h-14.832v11.232h17.376v3.792h-21.36z"/></g></svg>