<svg xmlns="http://www.w3.org/2000/svg" width="65" height="65" viewBox="0 0 65 65"><path fill="#3D9A9C" fill-rule="evenodd" d="M0 32.5C0 14.55 14.55 0 32.5 0S65 14.55 65 32.5 50.45 65 32.5 65 0 50.45 0 32.5zm14 .002c0 8.175 5.3 15.111 12.652 17.558.924.17 1.264-.402 1.264-.89 0-.442-.018-1.9-.026-3.445-5.146 1.119-6.232-2.183-6.232-2.183-.842-2.14-2.054-2.708-2.054-2.708-1.679-1.148.126-1.125.126-1.125 1.858.13 2.836 1.907 2.836 1.907 1.65 2.829 4.328 2.011 5.384 1.538.166-1.195.645-2.012 1.174-2.474-4.109-.468-8.429-2.054-8.429-9.144 0-2.02.723-3.67 1.907-4.966-.193-.467-.826-2.348.179-4.897 0 0 1.553-.497 5.089 1.897a17.73 17.73 0 0 1 4.63-.623 17.78 17.78 0 0 1 4.635.623c3.53-2.394 5.082-1.897 5.082-1.897 1.007 2.549.374 4.43.181 4.897 1.187 1.295 1.904 2.946 1.904 4.966 0 7.107-4.327 8.671-8.447 9.13.664.574 1.255 1.7 1.255 3.426 0 2.475-.022 4.468-.022 5.077 0 .493.333 1.07 1.271.888C45.706 47.607 51 40.675 51 32.502 51 22.283 42.717 14 32.5 14 22.284 14 14 22.283 14 32.502z"/></svg>