<svg xmlns="http://www.w3.org/2000/svg" width="40" height="40" viewBox="0 0 40 40">
  <defs>
    <linearGradient id="grdb-icon-a" x1="57.662%" x2="57.662%" y1="97.954%" y2="5.561%">
      <stop offset="0%" stop-color="#97D9F6"/>
      <stop offset="92.025%" stop-color="#0F80CC"/>
      <stop offset="100%" stop-color="#0F80CC"/>
    </linearGradient>
  </defs>
  <g fill="none" transform="matrix(1 0 0 -1 4.083 39.687)">
    <path fill="#0F80CC" d="M19.3425711,8.90753183 C19.3248159,9.13239981 19.3142251,9.27852195 19.3142251,9.27852195 C19.3142251,9.27852195 18.6323633,13.8754975 17.8206706,15.2472888 C17.6922725,15.4647432 17.8346567,16.3578606 18.1930001,17.680716 C18.4024803,17.3184789 19.2868135,15.7690423 19.4643655,15.2698098 C19.664345,14.7053504 19.7063968,14.5436224 19.7063968,14.5436224 C19.7063968,14.5436224 19.2213997,17.0391305 18.4255309,18.4953057 C18.5999679,19.0840305 18.8083578,19.7347428 19.0441592,20.4303104 C19.345686,19.9013925 20.0674191,18.620838 20.2262814,18.1766466 C20.2583653,18.0853787 20.2854653,18.0078165 20.3097619,17.9367958 C20.3175493,17.9794705 20.3253367,18.0221453 20.333124,18.0648201 C20.1508997,18.8379498 19.7929923,20.1832951 19.3030113,21.1772745 C20.3901275,26.8355746 24.0978482,34.3986644 27.8990173,37.7730858 L3.1025489,37.7730858 C1.4406627,37.7730858 0.0809263071,36.4131003 0.0809263071,34.7512764 L0.0809263071,7.40541124 C0.0809263071,5.74368079 1.4406627,4.38391324 3.1025489,4.38391324 L19.4341505,4.38391324 C19.3164055,5.80937501 19.2771572,7.38644121 19.3425711,8.90753183"/>
    <path fill="url(#grdb-icon-a)" d="M18.1930001,17.680716 C18.4024803,17.3184789 19.2868135,15.7690423 19.4643655,15.2698098 C19.664345,14.7053504 19.7063968,14.5436224 19.7063968,14.5436224 C19.7063968,14.5436224 19.2213997,17.0391305 18.4255309,18.4953057 C18.5999679,19.0840305 18.8083578,19.7347428 19.0441592,20.4303104 C19.319832,19.9465592 19.9462477,18.8354578 20.1727043,18.3090319 C20.1811146,18.4083987 20.189525,18.5077654 20.1982468,18.6061978 C19.9976443,19.377147 19.6930025,20.3863896 19.3030113,21.1772745 C20.304155,26.3870223 23.5265671,33.2087549 26.9981748,36.891556 L3.1025489,36.891556 C1.92251376,36.891556 0.962238088,35.9315295 0.962238088,34.7512764 L0.962238088,9.40056555 C6.37408364,11.4776118 12.8996471,13.3762651 18.5158643,13.2948715 C18.3073809,14.0989015 18.0699597,14.82593 17.8206706,15.2472888 C17.6922725,15.4647432 17.8346567,16.3578606 18.1930001,17.680716"/>
    <path fill="#003B57" d="M33.6828498,38.6680099 C31.984581,40.1824969 29.9284049,39.5741478 27.8990173,37.7730858 C27.597802,37.505512 27.2972097,37.2086576 26.9981748,36.891556 C23.5265671,33.2087549 20.304155,26.3870223 19.3030113,21.1772745 C19.6930025,20.3863896 19.9976443,19.377147 20.1982468,18.6061978 C20.2496435,18.4083987 20.2960562,18.2227479 20.333124,18.0648201 C20.421277,17.6910577 20.4686242,17.4486837 20.4686242,17.4486837 C20.4686242,17.4486837 20.4374747,17.5664598 20.3097619,17.9367958 C20.2854653,18.0078165 20.2583653,18.0853787 20.2262814,18.1766466 C20.2125756,18.2143375 20.1935744,18.2601272 20.1727043,18.3090319 C19.9462477,18.8354578 19.319832,19.9465592 19.0441592,20.4303104 C18.8083578,19.7347428 18.5999679,19.0840305 18.4255309,18.4953057 C19.2213997,17.0391305 19.7063968,14.5436224 19.7063968,14.5436224 C19.7063968,14.5436224 19.664345,14.7053504 19.4643655,15.2698098 C19.2868135,15.7690423 18.4024803,17.3184789 18.1930001,17.680716 C17.8346567,16.3578606 17.6922725,15.4647432 17.8206706,15.2472888 C18.0699597,14.82593 18.3073809,14.0989015 18.5158643,13.2948715 C18.9868442,11.4835613 19.3142251,9.27852195 19.3142251,9.27852195 C19.3142251,9.27852195 19.3248159,9.13239981 19.3425711,8.90753183 C19.2771572,7.38644121 19.3164055,5.80937501 19.4341505,4.38391324 C19.5902093,2.49694102 19.8839488,0.875954073 20.2583653,0.00841035524 L20.5125449,0.14699432 C19.9627569,1.85619655 19.7394152,4.0961545 19.8372246,6.67937953 C19.9851845,10.6279167 20.8938144,15.389673 22.5727705,20.3527482 C25.4092407,27.8448172 29.3446639,33.8560408 32.9464764,36.7267754 C29.6636344,33.7619694 25.2204749,24.1651311 23.8903928,20.6112887 C22.4011369,16.6316332 21.3457931,12.8970929 20.709721,9.3190474 C21.8071167,12.6734397 25.3553521,14.1153172 25.3553521,14.1153172 C25.3553521,14.1153172 27.0956726,16.2616088 29.1294211,19.3279308 C27.9111656,19.0500776 25.910747,18.5744253 25.2407221,18.2928341 C24.2523496,17.8782348 23.9860217,17.7368162 23.9860217,17.7368162 C23.9860217,17.7368162 27.1875635,19.6864612 29.9343233,20.569237 C33.7118188,26.5187846 37.8272859,34.9708801 33.6828498,38.6680099"/>
  </g>
</svg>
