<?xml version="1.0" encoding="UTF-8"?>
<svg width="154px" height="154px" viewBox="0 0 154 154" version="1.1" xmlns="http://www.w3.org/2000/svg" xmlns:xlink="http://www.w3.org/1999/xlink">
    <!-- Generator: Sketch 42 (36781) - http://www.bohemiancoding.com/sketch -->
    <title>hammer-icon</title>
    <desc>Created with Sketch.</desc>
    <defs></defs>
    <g id="Page-1" stroke="none" stroke-width="1" fill="none" fill-rule="evenodd">
        <g id="Desktop-HD" transform="translate(-645.000000, -1844.000000)">
            <g id="hammer-icon" transform="translate(645.000000, 1844.000000)">
                <rect id="Rectangle-8" fill="#FCFAF8" x="0" y="0" width="154" height="154"></rect>
                <g transform="translate(78.500000, 75.500000) rotate(-360.000000) translate(-78.500000, -75.500000) translate(54.000000, 32.000000)" stroke="#539A9C" fill-rule="nonzero" id="Shape" stroke-width="3" stroke-linecap="round" stroke-linejoin="round">
                    <path d="M18.1834136,33.0163894 C18.905381,30.4527224 21.6000744,18.3204517 21.2921228,14.7560754 C21.0681579,12.19418 20.7042151,9.68797794 18.9964834,7.51593617 C17.4007341,5.48312784 15.2450727,4.67557385 12.8374509,4.36926026 C9.28200943,3.89586654 5.75456355,3.95155992 2.03114846,4.25787351 C1.97725671,3.82371536 2.27885004,1.52765404 2.67078847,1.24918715 C5.38636188,-0.67223442 25.3794807,-0.0305166633 31.7344824,2.14152511 C33.946135,2.89338572 35.7938447,4.17433344 37.4175896,5.78944142 C38.9573477,7.32100934 40.6930751,7.62732292 42.596776,6.84761562 C43.7725913,6.34637521 44.780433,6.51345535 45.9002571,6.903309 C48.5878349,7.85009644 48.5878349,7.82224975 47.7759624,10.579072 C47.0480768,13.001734 46.3488372,15.4291738 45.6203011,17.8749046 C45.3147429,18.9006779 43.0727013,18.2647583 42.456798,18.1812182 C41.1410047,17.9862914 40.1891542,17.3458175 39.4052774,16.23195 C38.1454753,14.5333019 36.2417743,14.6725353 34.4220602,14.8674622 C31.6784912,15.1737758 29.9147682,16.6496503 28.878931,19.2672391 C26.8704238,24.2979033 24.8618513,29.351543 23.3940083,34.5475994"></path>
                    <path d="M1.03137795,79.6027268 C6.32254676,64.5933613 11.6753055,49.4864664 16.99447,34.5049475 C17.6103732,32.7227594 17.2184348,32.667066 19.3740962,33.2796932 C20.5499114,33.6138535 21.7257267,33.9758604 22.901542,34.2543273 C23.7694057,34.4492542 23.9933705,34.8112611 23.7694057,35.7023552 C22.6495816,40.2970589 21.6137443,44.8917627 20.5219158,49.4864664 C17.8623336,60.5416021 15.2148419,71.6401119 12.5151535,82.6797952 C11.5308038,86.7050409 8.4880165,86.4773412 5.65241716,85.6700317 C2.75115339,84.8440272 -0.215732691,83.0140388 1.03137795,79.6027268 Z"></path>
                </g>
            </g>
        </g>
    </g>
</svg>