<svg xmlns="http://www.w3.org/2000/svg" width="154" height="154" viewBox="0 0 154 154"><g fill="none" fill-rule="evenodd"><path fill="#FCFAF8" d="M0 0h154v154H0z"/><g fill-rule="nonzero" stroke="#539A9C" stroke-linecap="round" stroke-linejoin="round" stroke-width="3"><path d="M72.183 65.016c.722-2.563 3.417-14.696 3.11-18.26-.225-2.562-.589-5.068-2.297-7.24-1.595-2.033-3.75-2.84-6.159-3.147-3.555-.473-7.082-.417-10.806-.111-.054-.434.248-2.73.64-3.009 2.715-1.921 22.708-1.28 29.063.893 2.212.751 4.06 2.032 5.684 3.647 1.54 1.532 3.275 1.838 5.179 1.059 1.176-.502 2.183-.335 3.303.055 2.688.947 2.688.92 1.876 3.676-.728 2.423-1.427 4.85-2.156 7.296-.305 1.026-2.547.39-3.163.306-1.316-.195-2.268-.835-3.052-1.949-1.26-1.699-3.163-1.56-4.983-1.365-2.744.307-4.507 1.783-5.543 4.4-2.009 5.03-4.017 10.085-5.485 15.28"/><path d="M55.031 111.603c5.292-15.01 10.644-30.117 15.963-45.098.616-1.782.224-1.838 2.38-1.225 1.176.334 2.352.696 3.528.974.867.195 1.091.557.867 1.448-1.12 4.595-2.155 9.19-3.247 13.784-2.66 11.056-5.307 22.154-8.007 33.194-.984 4.025-4.027 3.797-6.863 2.99-2.9-.826-5.868-2.656-4.62-6.067z"/></g></g></svg>