<?xml version="1.0" encoding="UTF-8" standalone="no"?><!DOCTYPE svg PUBLIC "-//W3C//DTD SVG 1.1//EN" "http://www.w3.org/Graphics/SVG/1.1/DTD/svg11.dtd"><svg width="100%" height="100%" viewBox="0 0 1280 722" version="1.1" xmlns="http://www.w3.org/2000/svg" xmlns:xlink="http://www.w3.org/1999/xlink" xml:space="preserve" xmlns:serif="http://www.serif.com/" style="fill-rule:evenodd;clip-rule:evenodd;stroke-linejoin:round;stroke-miterlimit:1.41421;"><g id="Genetrainer"><g><path d="M384.719,235.247c4.793,-0.639 9.586,-0.958 14.379,-0.958c4.793,0 9.346,0.319 13.66,0.958l0,12.582c0,7.189 -0.24,13.899 -0.719,20.13c2.397,0.959 5.991,1.438 10.784,1.438c3.355,0 7.429,-0.24 12.222,-0.719c0,-4.314 -0.239,-10.065 -0.719,-17.255c-0.479,-7.828 -0.719,-13.42 -0.719,-16.775l26.601,0c0.48,4.793 0.719,10.864 0.719,18.213c0,8.148 0.559,30.595 1.678,67.341c-8.308,-0.239 -14.858,-0.359 -19.651,-0.359c-2.397,0 -4.554,0.04 -6.471,0.12c0,-24.604 -0.24,-36.906 -0.719,-36.906l0,0.719c-7.669,0.958 -14.139,1.438 -19.411,1.438l-5.033,0c0,1.917 -0.319,13.18 -0.958,33.79c-4.234,0.479 -8.468,0.719 -12.702,0.719c-3.834,0 -7.668,-0.24 -11.503,-0.719c0,-40.261 -0.479,-68.18 -1.438,-83.757Z" style="fill:#fff;fill-rule:nonzero;"/><path d="M468.776,277.066l0,-4.314c0,-12.462 3.355,-22.287 10.065,-29.477c6.231,-7.189 14.139,-10.784 23.725,-10.784l2.157,0c10.065,0.48 18.692,4.314 25.882,11.503c7.668,7.669 11.503,17.734 11.503,30.196l0,2.157c-0.48,29.716 -11.983,44.574 -34.51,44.574l-0.718,0c-23.007,-0.479 -35.708,-15.098 -38.104,-43.855Zm23.725,6.41c1.438,7.709 5.991,11.563 13.66,11.563c7.189,-0.559 11.023,-4.693 11.503,-12.402l0,-5.751c0,-11.543 -4.314,-17.315 -12.941,-17.315c-8.628,0.56 -12.941,6.052 -12.941,16.476c0,2.197 0.239,4.673 0.719,7.429Z" style="fill:#fff;fill-rule:nonzero;"/><path d="M622.33,235.727c0.958,5.112 2.636,12.481 5.032,22.107c1.917,9.107 3.595,16.336 5.033,21.688l2.876,9.646l5.751,-18.453c1.558,-5.911 3.235,-11.543 5.033,-16.895c2.396,-6.95 4.134,-13.281 5.212,-18.992c1.917,-0.28 3.894,-0.42 5.931,-0.42c5.073,0 10.465,-0.219 16.177,-0.659c-15.498,57.436 -24.445,86.154 -26.841,86.154c-3.395,-0.24 -6.311,-0.36 -8.747,-0.36l-0.719,0c-1.039,0.04 -2.257,0.06 -3.655,0.06c-2.077,0 -4.573,-0.04 -7.489,-0.12c-6.27,-14.498 -11.822,-33.051 -16.655,-55.658c-4.234,17.415 -9.706,35.907 -16.416,55.479c-3.355,0.279 -6.71,0.419 -10.065,0.419c-3.835,0 -7.669,-0.14 -11.503,-0.419c-3.355,-11.504 -7.669,-26.102 -12.941,-43.796c-6.231,-20.33 -10.545,-34.05 -12.941,-41.159c2.876,-0.28 5.991,-0.42 9.346,-0.42c3.834,0 7.908,0.4 12.222,1.198l4.314,19.532l0,-0.839c1.837,6.99 4.234,14.758 7.189,23.306l2.876,7.249c5.751,-13.38 11.503,-29.716 17.255,-49.008c3.834,0 8.627,0.06 14.378,0.18c4.793,0.12 7.909,0.18 9.347,0.18Z" style="fill:#fff;fill-rule:nonzero;"/><path d="M465.569,468.301c4.333,-0.811 10.722,-1.258 19.166,-1.342c1.118,2.712 2.348,4.459 3.69,5.242c1.65,0.504 3.229,0.755 4.739,0.755c1.23,0 2.419,-0.168 3.565,-0.503c1.09,-0.308 2.055,-1.104 2.894,-2.391c0.894,-1.37 1.342,-2.614 1.342,-3.732c0,-0.699 -0.112,-1.44 -0.336,-2.223c-0.671,-2.265 -2.67,-3.551 -5.997,-3.858c-0.643,-0.056 -1.398,-0.084 -2.265,-0.084c-0.838,0 -1.775,0.028 -2.81,0.084c-1.705,0.056 -2.907,0.084 -3.606,0.084l-0.504,0c-4.976,-0.168 -9.352,-1.888 -13.126,-5.159c-3.439,-2.991 -5.159,-6.416 -5.159,-10.275c0,-0.727 0.07,-1.481 0.21,-2.264c0.979,-6.067 3.816,-10.736 8.514,-14.008c4.137,-2.879 9.142,-4.319 15.013,-4.319l0.336,0c5.815,0.056 11.239,1.482 16.272,4.277c5.312,2.964 9.059,6.906 11.239,11.827c-8.89,1.51 -14.734,2.265 -17.53,2.265c-0.531,0 -0.922,-0.028 -1.174,-0.084c-0.755,-1.314 -1.999,-2.279 -3.732,-2.894c-1.315,-0.419 -2.671,-0.629 -4.069,-0.629c-0.587,0 -1.188,0.042 -1.803,0.126c-1.174,0.419 -2.062,1.034 -2.663,1.845c-0.601,0.811 -0.902,1.748 -0.902,2.81c0,0.503 0.098,1.034 0.294,1.594c0.811,2.32 2.349,3.858 4.613,4.613c1.342,0.251 3.257,0.489 5.746,0.713c3.271,0.279 5.354,0.475 6.249,0.587c5.088,0.615 8.862,1.845 11.323,3.69c3.327,2.489 4.991,6.417 4.991,11.785c0,6.179 -2.503,11.156 -7.507,14.93c-4.53,3.439 -10.233,5.34 -17.111,5.704c-0.727,0.028 -1.44,0.042 -2.139,0.042c-5.955,0 -11.379,-1.244 -16.272,-3.733c-5.983,-3.327 -9.814,-8.485 -11.491,-15.475Z" style="fill:#fff;fill-rule:nonzero;"/><path d="M523.611,426.95l5.536,0c3.691,0 7.549,-0.168 11.575,-0.503c0.671,6.318 1.007,12.665 1.007,19.04l0,6.542c-0.336,10.345 -0.504,17.195 -0.504,20.55c14.763,-1.79 24.157,-2.684 28.183,-2.684l1.006,0c0.671,0.671 1.007,2.851 1.007,6.542c0,2.684 -0.168,5.871 -0.503,9.562l-4.026,0c-4.362,0 -11.408,0.056 -21.137,0.168c-5.033,0.335 -9.562,0.503 -13.588,0.503c-3.691,0 -6.878,-0.168 -9.562,-0.503c1.677,-16.105 2.516,-29.497 2.516,-40.177c0,-7.717 -0.503,-14.063 -1.51,-19.04Z" style="fill:#fff;fill-rule:nonzero;"/><path d="M576.621,427.369l4.53,0c5.032,0 10.904,-0.195 17.614,-0.587c8.052,-0.783 14.93,-1.174 20.633,-1.174l3.523,0l0,14.259l-28.686,0l0.504,9.562l0,-0.503c3.019,0 5.871,-0.336 8.555,-1.007c2.684,-0.336 5.536,-0.503 8.555,-0.503l0,13.084c-7.716,0 -13.588,-0.167 -17.614,-0.503l0,12.582c17.447,-1.79 27.176,-2.684 29.189,-2.684l0,16.104l-3.522,0c-4.362,0 -11.408,0.056 -21.137,0.168c-5.368,0.335 -9.898,0.503 -13.588,0.503c-4.026,0 -7.214,-0.168 -9.562,-0.503c1.677,-16.105 2.516,-29.357 2.516,-39.758c0,-7.716 -0.503,-14.063 -1.51,-19.04Z" style="fill:#fff;fill-rule:nonzero;"/><path d="M628.625,427.369l4.529,0c5.033,0 10.904,-0.195 17.614,-0.587c8.052,-0.783 14.93,-1.174 20.634,-1.174l3.523,0l0,14.259l-28.686,0l0.503,9.562l0,-0.503c3.02,0 5.871,-0.336 8.556,-1.007c2.684,-0.336 5.535,-0.503 8.555,-0.503l0,13.084c-7.717,0 -13.588,-0.167 -17.614,-0.503l0,12.582c17.446,-1.79 27.176,-2.684 29.189,-2.684l0,16.104l-3.523,0c-4.361,0 -11.407,0.056 -21.137,0.168c-5.368,0.335 -9.897,0.503 -13.588,0.503c-4.026,0 -7.213,-0.168 -9.562,-0.503c1.678,-16.105 2.517,-29.357 2.517,-39.758c0,-7.716 -0.504,-14.063 -1.51,-19.04Z" style="fill:#fff;fill-rule:nonzero;"/><path d="M681.635,486.67c0.335,-6.319 0.503,-12.498 0.503,-18.537c0,-13.756 -0.839,-27.511 -2.516,-41.267l32.712,0c7.716,0 13.588,3.858 17.614,11.575c1.677,3.355 2.516,6.375 2.516,9.059c0,4.026 -2.013,7.548 -6.039,10.568c-5.368,4.026 -12.917,6.039 -22.647,6.039l-2.516,0l0,4.529c0,5.033 -0.336,10.876 -1.007,17.531c-1.957,-0.224 -3.802,-0.336 -5.535,-0.336c-1.231,0 -2.405,0.056 -3.523,0.168c-3.355,0 -6.543,0.224 -9.562,0.671Zm19.124,-31.622l2.516,0c6.375,0 9.562,-2.18 9.562,-6.542c-0.336,-4.026 -3.187,-6.039 -8.556,-6.039c-1.677,0 -3.355,0.168 -5.032,0.503c1.006,2.684 1.51,6.71 1.51,12.078Z" style="fill:#fff;fill-rule:nonzero;"/><path d="M734.98,468.301c4.334,-0.811 10.722,-1.258 19.166,-1.342c1.118,2.712 2.349,4.459 3.691,5.242c1.649,0.504 3.229,0.755 4.739,0.755c1.23,0 2.418,-0.168 3.564,-0.503c1.091,-0.308 2.055,-1.104 2.894,-2.391c0.895,-1.37 1.342,-2.614 1.342,-3.732c0,-0.699 -0.112,-1.44 -0.335,-2.223c-0.671,-2.265 -2.67,-3.551 -5.997,-3.858c-0.644,-0.056 -1.398,-0.084 -2.265,-0.084c-0.839,0 -1.776,0.028 -2.81,0.084c-1.706,0.056 -2.908,0.084 -3.607,0.084l-0.503,0c-4.977,-0.168 -9.352,-1.888 -13.127,-5.159c-3.439,-2.991 -5.158,-6.416 -5.158,-10.275c0,-0.727 0.07,-1.481 0.21,-2.264c0.978,-6.067 3.816,-10.736 8.513,-14.008c4.138,-2.879 9.143,-4.319 15.014,-4.319l0.336,0c5.815,0.056 11.239,1.482 16.272,4.277c5.312,2.964 9.058,6.906 11.239,11.827c-8.891,1.51 -14.734,2.265 -17.53,2.265c-0.531,0 -0.923,-0.028 -1.174,-0.084c-0.755,-1.314 -2,-2.279 -3.733,-2.894c-1.314,-0.419 -2.67,-0.629 -4.068,-0.629c-0.587,0 -1.188,0.042 -1.803,0.126c-1.175,0.419 -2.062,1.034 -2.663,1.845c-0.602,0.811 -0.902,1.748 -0.902,2.81c0,0.503 0.098,1.034 0.293,1.594c0.811,2.32 2.349,3.858 4.614,4.613c1.342,0.251 3.257,0.489 5.745,0.713c3.271,0.279 5.354,0.475 6.249,0.587c5.089,0.615 8.863,1.845 11.323,3.69c3.327,2.489 4.991,6.417 4.991,11.785c0,6.179 -2.502,11.156 -7.507,14.93c-4.529,3.439 -10.233,5.34 -17.111,5.704c-0.727,0.028 -1.44,0.042 -2.139,0.042c-5.955,0 -11.379,-1.244 -16.272,-3.733c-5.983,-3.327 -9.813,-8.485 -11.491,-15.475Z" style="fill:#fff;fill-rule:nonzero;"/><path d="M818.689,467.462c-2.013,-0.335 -4.194,-0.503 -6.542,-0.503c-2.349,0 -4.865,0.168 -7.549,0.503c0,-6.374 3.523,-12.749 10.568,-19.124c1.678,-1.677 2.517,-3.187 2.517,-4.529c0,-3.355 -1.007,-5.033 -3.02,-5.033c-0.671,0 -1.342,0.168 -2.013,0.504c-3.691,1.342 -5.704,4.026 -6.039,8.052c-8.052,-1.007 -12.917,-1.51 -14.595,-1.51c0.671,-5.704 2.684,-10.233 6.039,-13.588c4.027,-4.026 8.556,-6.039 13.588,-6.039c3.691,0 7.549,1.006 11.575,3.02c7.046,3.355 10.569,7.548 10.569,12.581c0,2.684 -0.839,5.368 -2.516,8.052c-0.671,1.342 -3.188,4.026 -7.549,8.052c-3.355,3.02 -5.033,6.207 -5.033,9.562Zm-14.594,5.033c3.69,-0.336 6.71,-0.503 9.058,-0.503c3.355,0 5.368,0.335 6.039,1.006c0.336,2.349 0.504,4.697 0.504,7.046c0,2.348 -0.168,4.529 -0.504,6.542c-3.019,0.336 -5.871,0.503 -8.555,0.503c-2.349,0 -4.529,-0.167 -6.542,-0.503c0.335,-2.348 0.503,-4.697 0.503,-7.046c0,-2.348 -0.168,-4.697 -0.503,-7.045Z" style="fill:#fff;fill-rule:nonzero;"/><path d="M611.778,335.545c3.451,0.128 7.764,0.351 12.941,0.671c4.218,-0.32 8.627,-0.543 13.228,-0.671l9.778,41.219c1.534,-7.285 3.451,-14.954 5.752,-23.006c2.3,-7.285 3.642,-13.356 4.026,-18.213c2.684,0.192 5.751,0.288 9.202,0.288c5.752,0 12.078,0.032 18.98,0.095c0,9.203 -0.096,20.706 -0.287,34.51c-0.448,14.187 -0.671,25.083 -0.671,32.688c0,0.383 -1.151,0.575 -3.451,0.575c-3.963,0 -8.628,-0.032 -13.996,-0.096l0,-23.965c0.384,-9.586 0.575,-17.063 0.575,-22.431c-1.533,7.285 -5.559,21.856 -12.078,43.712c-3.802,-0.543 -7.908,-0.815 -12.318,-0.815c-1.054,0 -2.125,0.016 -3.211,0.048c-1.15,-6.007 -3.259,-13.229 -6.327,-21.664c-2.684,-8.052 -4.793,-14.954 -6.326,-20.706c0,5.752 0.191,13.229 0.575,22.431c0.383,9.203 0.575,16.999 0.575,23.39c-2.301,0.447 -4.985,0.671 -8.052,0.671c-2.684,0 -5.943,-0.224 -9.778,-0.671c0.575,-13.293 0.863,-35.979 0.863,-68.06Z" style="fill:#fff;fill-rule:nonzero;"/><path d="M734.717,393.156c-3.451,-0.767 -7.094,-1.15 -10.928,-1.15c-3.451,0 -6.902,0.383 -10.353,1.15c-1.533,3.835 -2.875,7.541 -4.026,11.12c-2.684,-0.511 -5.751,-0.767 -9.202,-0.767c-3.451,0 -7.094,0.256 -10.928,0.767c9.969,-22.942 18.021,-46.108 24.156,-69.498c3.068,0.767 6.519,1.15 10.353,1.15c4.218,0 8.819,-0.383 13.804,-1.15c11.119,34.893 18.596,57.899 22.431,69.019l-21.281,0c-0.767,-1.982 -1.534,-3.963 -2.301,-5.944c-0.766,-1.981 -1.342,-3.546 -1.725,-4.697Zm-3.259,-12.557c-1.151,-3.835 -3.259,-11.439 -6.327,-22.815c-2.013,7.477 -4.697,15.082 -8.052,22.815c2.684,-0.384 5.176,-0.575 7.477,-0.575c2.301,0 4.601,0.191 6.902,0.575Z" style="fill:#fff;fill-rule:nonzero;"/><path d="M785.091,340.434c9.586,17.318 16.296,28.086 20.13,32.304c0.767,-8.435 1.151,-15.529 1.151,-21.28c0,-7.35 -0.384,-12.558 -1.151,-15.625c1.917,0 5.177,-0.096 9.778,-0.288c4.218,-0.192 7.477,-0.288 9.777,-0.288c-1.533,15.402 -2.3,29.813 -2.3,43.233c0,4.984 0.192,10.768 0.575,17.35c0,2.684 -0.192,5.177 -0.575,7.477c-1.917,0.384 -4.218,0.575 -6.902,0.575c-2.684,0 -5.943,-0.191 -9.778,-0.575c-4.026,-5.623 -9.969,-14.666 -17.829,-27.128c-1.918,-3.451 -4.793,-7.669 -8.628,-12.653l0,2.876c0,6.135 0.959,18.756 2.876,37.864c-3.451,-0.447 -6.71,-0.671 -9.778,-0.671c-3.067,0 -5.943,0.224 -8.627,0.671l0,-25.211c-0.767,-12.27 -1.15,-20.706 -1.15,-25.307c0,-9.266 0.192,-15.114 0.575,-17.542c4.218,-0.256 8.627,-0.383 13.229,-0.383c1.917,0 3.834,0.191 5.751,0.575l2.876,4.026Z" style="fill:#fff;fill-rule:nonzero;"/><path d="M850.419,335.066c3.834,6.838 7.477,13.276 10.928,19.315c4.345,-5.655 8.243,-12.094 11.694,-19.315c3.835,0.479 7.989,0.719 12.462,0.719c3.068,0 6.327,-0.048 9.778,-0.144c-1.917,2.46 -5.936,7.413 -12.055,14.858c-6.119,7.445 -10.824,13.66 -14.115,18.645c-0.383,5.048 -0.575,9.857 -0.575,14.426c0,7.062 0.447,13.564 1.342,19.508c-4.218,0.798 -8.02,1.198 -11.407,1.198c-3.387,0 -6.231,-0.4 -8.532,-1.198c0.384,-8.244 1.119,-19.556 2.205,-33.934c-0.383,0 -8.627,-11.168 -24.731,-33.503c3.834,0.096 7.477,0.144 10.927,0.144c4.218,0 8.244,-0.24 12.079,-0.719Z" style="fill:#fff;fill-rule:nonzero;"/></g></g></svg>