<svg xmlns="http://www.w3.org/2000/svg" width="427" height="200" viewBox="0 0 427 200">
  <g fill="none" fill-rule="evenodd">
    <path fill="#FFF" d="M71.026072,161.600583 L85.0347303,161.600583 C73.198973,186.904627 56.6476545,199.556459 35.3802782,199.556459 C26.7808608,199.556459 20.3082782,197.749054 15.9623361,194.134191 C11.616394,190.519327 9.4434555,185.143457 9.4434555,178.006419 C9.4434555,173.835423 11.2465321,166.513117 14.8527394,156.039282 L31.4966898,108.073066 C32.7912257,104.365514 33.438484,101.955641 33.438484,100.843375 C33.438484,99.7311095 33.184204,98.9200946 32.6756363,98.4103062 C32.1670686,97.9005177 31.3579958,97.6456274 30.2483935,97.6456274 C25.532584,97.6456274 19.984656,103.670309 13.6044431,115.719854 L0.289282775,115.719854 C12.2175069,89.8596774 29.0462218,76.9297831 50.7759324,76.9297831 C58.4506812,76.9297831 64.4147038,78.8067032 68.668179,82.5605998 C72.9216543,86.3144964 75.04836,91.4818198 75.04836,98.0627249 C75.04836,102.882543 73.152818,110.529254 69.361677,121.003089 L53.2725249,164.937363 C50.9608536,171.147513 49.8050352,175.040384 49.8050352,176.616094 C49.8050352,177.635671 50.105548,178.423514 50.7065826,178.979647 C51.3076171,179.53578 52.1629227,179.813842 53.2725249,179.813842 C55.6766631,179.813842 58.7511399,177.728375 62.4960474,173.557379 C66.240955,169.386383 69.0842681,165.400824 71.026072,161.600583 Z M98.3498906,195.246451 L124.980211,108.212098 C126.367214,103.763036 127.060705,100.843382 127.060705,99.45305 C127.060705,98.2480955 126.737076,97.3675651 126.089808,96.8114323 C125.44254,96.2552995 124.471653,95.9772372 123.177117,95.9772372 C117.351705,95.9772372 111.52638,102.650731 105.700969,115.997919 L94.188903,115.997919 C104.26779,89.9523648 120.125618,76.9297831 141.762861,76.9297831 C149.067743,76.9297831 154.754369,78.7371877 158.82291,82.352051 C162.891452,85.9669144 164.925692,90.8793474 164.925692,97.0894973 C164.925692,105.060735 162.382892,117.063755 157.297215,133.098918 C178.841992,95.6526408 200.340213,76.9297831 221.792523,76.9297831 C227.525468,76.9297831 232.541719,78.7140158 236.841428,82.2825348 C241.141137,85.8510538 243.290959,90.6476275 243.290959,96.6723998 C243.290959,100.194574 242.366304,105.01432 240.516967,111.131781 L226.369609,157.429608 C223.68807,166.327733 222.347321,171.518228 222.347321,173.001249 C222.347321,176.059979 223.780536,177.589322 226.647008,177.589322 C232.379953,177.589322 238.436441,171.657327 244.816654,159.79316 L258.547913,159.79316 C247.451891,184.355693 229.698521,196.636776 205.287272,196.636776 C196.317987,196.636776 189.93787,194.759856 186.146729,191.005959 C182.355588,187.252063 180.460046,182.779895 180.460046,177.589322 C180.460046,174.530591 181.800795,168.598597 184.482334,159.79316 L197.381396,117.527277 C198.860865,112.707459 199.600589,109.741461 199.600589,108.629196 C199.600589,105.848532 198.074909,104.45822 195.023503,104.45822 C187.903555,104.45822 178.610775,114.514805 167.144886,134.628276 C155.678996,154.741746 147.357104,171.657199 142.17896,185.375142 L139.543668,195.246451 L98.3498906,195.246451 Z M267.008588,195.246451 L315.692143,35.4980945 C316.616812,32.5320527 317.079139,30.2148674 317.079139,28.5464689 C317.079139,23.6339622 311.300047,21.1777458 299.741691,21.1777458 L304.180077,6.71836452 C327.296791,6.71836452 343.801877,5.42074071 353.69583,2.82545418 L366.872291,2.82545418 L330.1169,123.644707 C353.141147,101.306705 369.368836,87.9365456 378.800455,83.5338274 C388.232074,79.1311092 396.692664,76.9297831 404.182479,76.9297831 C410.747626,76.9297831 416.110623,78.2969224 420.271631,81.0312422 C424.43264,83.7655619 426.513113,87.3571992 426.513113,91.8062619 C426.513113,95.6065028 425.149247,98.9432498 422.421475,101.816603 C419.693703,104.689956 415.83327,106.126611 410.84006,106.126611 C406.494117,106.126611 401.824611,104.550925 396.831401,101.399505 C393.779995,99.4530403 390.867333,98.4798224 388.093327,98.4798224 C378.476775,98.4798224 364.976816,106.868033 347.593048,123.644707 C355.082863,123.644707 361.994657,125.42894 368.328636,128.997459 C374.662616,132.565978 378.985376,137.130833 381.297048,142.692161 C383.608719,148.25349 385.226865,156.780732 386.151533,168.274143 C386.706334,175.781937 388.509411,179.535777 391.560817,179.535777 C396.091693,179.535777 401.870785,172.95497 408.898265,159.79316 L421.658627,159.79316 C411.857141,184.726449 395.490753,197.192906 372.558974,197.192906 C364.884225,197.192906 358.272944,195.200127 352.724933,191.214508 C347.176922,187.228889 344.402958,181.389582 344.402958,173.696411 C344.402958,170.544992 344.95775,165.725246 346.067353,159.23703 C347.084488,152.841503 347.593048,148.43885 347.593048,146.028942 C347.593048,138.150393 343.894429,134.211178 336.497081,134.211178 L322.904522,147.280234 L308.202365,195.246451 L267.008588,195.246451 Z"/>
    <polygon fill="#FFF" points="72.061 2.825 80.203 4.064 85.936 6.85 91.887 9.702 94.189 15.813 94.189 23.773 87.787 39.048 83.125 44.72 76.142 47.226 63.174 26.911 67.625 4.064"/>
    <path fill="#000" d="M70.4028549,0.305457556 C75.5663397,0.305457556 80.1696894,2.44099981 85.1667452,4.89574189 C91.2632136,7.89055681 96.7570141,10.2970814 96.7570141,20.9379515 C96.7570141,32.6779781 84.4131104,49.0438115 74.0901512,49.0438115 C62.2492277,49.0438115 49.9865361,38.5315847 49.9865361,21.4458241 C49.9865361,7.13694771 59.5020706,0.423827315 70.4028549,0.305457556 Z M74.3170772,4.06358116 C72.4869644,4.06358116 69.0246938,4.73426787 68.8100284,8.99289394 C68.5953631,13.25152 70.8485809,14.1684379 70.8470148,16.2267291 C70.8454488,18.2850204 69.7268906,19.7983046 70.6497681,20.4901979 C71.5726456,21.1820912 75.474433,28.70847 79.2446125,28.70847 C83.0147919,28.70847 84.8509204,31.8622386 87.9319668,31.8622386 C91.0130132,31.8622386 93.2976464,24.1456564 93.2976464,18.3778177 C93.2976464,6.8635809 85.3622558,9.19021386 81.6522335,6.8635809 C77.9422111,4.53694795 76.14719,4.06358116 74.3170772,4.06358116 Z M78.7939701,45.584101 C81.9122734,45.584101 85.2219504,42.1509568 85.2219504,41.1034411 C85.2219504,40.0559254 84.1902531,39.0484359 82.4717857,39.0484359 C78.5167299,39.0484359 75.1838414,41.3984312 75.1838414,42.8292875 C75.1838414,44.2601439 76.7834915,45.584101 78.7939701,45.584101 Z"/>
  </g>
</svg>
