<?xml version="1.0" encoding="UTF-8" standalone="no"?><!DOCTYPE svg PUBLIC "-//W3C//DTD SVG 1.1//EN" "http://www.w3.org/Graphics/SVG/1.1/DTD/svg11.dtd"><svg width="100%" height="100%" viewBox="0 0 1280 720" version="1.1" xmlns="http://www.w3.org/2000/svg" xmlns:xlink="http://www.w3.org/1999/xlink" xml:space="preserve" xmlns:serif="http://www.serif.com/" style="fill-rule:evenodd;clip-rule:evenodd;stroke-linejoin:round;stroke-miterlimit:2;"><g id="ink"><g><path d="M497.625,421.67l14.009,0c-11.836,25.304 -28.388,37.956 -49.655,37.956c-8.599,0 -15.072,-1.808 -19.418,-5.423c-4.346,-3.615 -6.519,-8.991 -6.519,-16.128c0,-4.171 1.803,-11.493 5.41,-21.967l16.643,-47.966c1.295,-3.707 1.942,-6.117 1.942,-7.23c0,-1.112 -0.254,-1.923 -0.763,-2.433c-0.508,-0.509 -1.317,-0.764 -2.427,-0.764c-4.716,0 -10.264,6.024 -16.644,18.074l-13.315,0c11.928,-25.86 28.757,-38.79 50.487,-38.79c7.674,0 13.639,1.877 17.892,5.631c4.253,3.754 6.38,8.921 6.38,15.502c0,4.82 -1.895,12.466 -5.687,22.94l-16.089,43.934c-2.311,6.211 -3.467,10.103 -3.467,11.679c0,1.02 0.3,1.808 0.901,2.364c0.601,0.556 1.457,0.834 2.566,0.834c2.404,0 5.479,-2.086 9.224,-6.257c3.745,-4.171 6.588,-8.156 8.53,-11.956Zm27.324,33.645l26.63,-87.034c1.387,-4.449 2.081,-7.369 2.081,-8.759c0,-1.205 -0.324,-2.085 -0.971,-2.642c-0.648,-0.556 -1.619,-0.834 -2.913,-0.834c-5.825,0 -11.651,6.674 -17.476,20.021l-11.512,0c10.079,-26.046 25.936,-39.068 47.574,-39.068c7.305,0 12.991,1.807 17.06,5.422c4.068,3.615 6.102,8.527 6.102,14.738c0,7.971 -2.542,19.974 -7.628,36.009c21.545,-37.446 43.043,-56.169 64.495,-56.169c5.733,0 10.75,1.784 15.049,5.353c4.3,3.568 6.45,8.365 6.45,14.389c0,3.523 -0.925,8.342 -2.774,14.46l-14.148,46.298c-2.681,8.898 -4.022,14.088 -4.022,15.571c0,3.059 1.433,4.588 4.3,4.588c5.733,0 11.789,-5.932 18.169,-17.796l13.732,0c-11.096,24.563 -28.85,36.844 -53.261,36.844c-8.969,0 -15.349,-1.877 -19.14,-5.631c-3.792,-3.754 -5.687,-8.226 -5.687,-13.417c0,-3.058 1.341,-8.99 4.022,-17.796l12.899,-42.266c1.48,-4.819 2.219,-7.785 2.219,-8.898c0,-2.78 -1.525,-4.171 -4.577,-4.171c-7.12,0 -16.412,10.057 -27.878,30.17c-11.466,20.114 -19.788,37.029 -24.966,50.747l-2.636,9.871l-41.193,0Zm168.658,0l48.684,-159.748c0.925,-2.966 1.387,-5.283 1.387,-6.951c0,-4.913 -5.779,-7.369 -17.338,-7.369l4.439,-14.46c23.117,0 39.622,-1.297 49.516,-3.893l13.176,0l-36.755,120.82c23.024,-22.338 39.252,-35.708 48.683,-40.111c9.432,-4.403 17.892,-6.604 25.382,-6.604c6.565,0 11.928,1.367 16.089,4.101c4.161,2.735 6.242,6.326 6.242,10.775c0,3.801 -1.364,7.137 -4.092,10.011c-2.727,2.873 -6.588,4.31 -11.581,4.31c-4.346,0 -9.016,-1.576 -14.009,-4.727c-3.051,-1.947 -5.964,-2.92 -8.738,-2.92c-9.616,0 -23.116,8.388 -40.5,25.165c7.49,0 14.401,1.784 20.735,5.353c6.334,3.568 10.657,8.133 12.969,13.694c2.312,5.562 3.93,14.089 4.854,25.582c0.555,7.508 2.358,11.262 5.41,11.262c4.53,0 10.31,-6.581 17.337,-19.743l12.76,0c-9.801,24.933 -26.167,37.4 -49.099,37.4c-7.675,0 -14.286,-1.993 -19.834,-5.978c-5.548,-3.986 -8.322,-9.825 -8.322,-17.519c0,-3.151 0.555,-7.971 1.664,-14.459c1.017,-6.395 1.526,-10.798 1.526,-13.208c0,-7.879 -3.699,-11.818 -11.096,-11.818l-13.593,13.069l-14.702,47.966l-41.194,0Z"/><path d="M498.66,262.894l8.142,1.239l5.733,2.786l5.951,2.852l2.302,6.111l0,7.96l-6.402,15.275l-4.662,5.672l-6.983,2.506l-12.968,-20.315l4.451,-22.847l4.436,-1.239Z" style="fill:#fff;"/><path d="M497.002,260.374c5.163,0 9.766,2.136 14.764,4.591c6.096,2.995 11.59,5.401 11.59,16.042c0,11.74 -12.344,28.106 -22.667,28.106c-11.841,0 -24.104,-10.512 -24.104,-27.598c0,-14.309 9.516,-21.022 20.417,-21.141Zm3.914,3.759c-1.83,0 -5.293,0.67 -5.507,4.929c-0.215,4.259 2.038,5.175 2.037,7.234c-0.002,2.058 -1.12,3.571 -0.197,4.263c0.922,0.692 4.824,8.219 8.594,8.219c3.771,0 5.607,3.153 8.688,3.153c3.081,0 5.365,-7.716 5.365,-13.484c0,-11.514 -7.935,-9.188 -11.645,-11.514c-3.71,-2.327 -5.505,-2.8 -7.335,-2.8Zm4.477,41.52c3.118,0 6.428,-3.433 6.428,-4.481c0,-1.047 -1.032,-2.055 -2.75,-2.055c-3.955,0 -7.288,2.35 -7.288,3.781c0,1.431 1.599,2.755 3.61,2.755Z"/></g></g></svg>