<?xml version="1.0" encoding="UTF-8" standalone="no"?><!DOCTYPE svg PUBLIC "-//W3C//DTD SVG 1.1//EN" "http://www.w3.org/Graphics/SVG/1.1/DTD/svg11.dtd"><svg width="100%" height="100%" viewBox="0 0 1280 720" version="1.1" xmlns="http://www.w3.org/2000/svg" xmlns:xlink="http://www.w3.org/1999/xlink" xml:space="preserve" xmlns:serif="http://www.serif.com/" style="fill-rule:evenodd;clip-rule:evenodd;stroke-linejoin:round;stroke-miterlimit:2;"><g id="Instructions"><g><g><path d="M662.098,384.864l182.902,0c16.557,0 30,13.443 30,30l0,64.384c0,16.557 -13.443,30 -30,30l-410,0c-16.557,0 -30,-13.443 -30,-30l0,-64.384c0,-16.557 13.443,-30 30,-30l182.902,0l22.098,-21.613l22.098,21.613Z" style="fill:#fff;"/><path d="M664.544,378.864l180.456,0c19.869,0 36,16.131 36,36l0,64.384c0,19.869 -16.131,36 -36,36c0,0 -410,0 -410,0c-19.869,0 -36,-16.131 -36,-36l0,-64.384c0,-19.869 16.131,-36 36,-36l180.456,0l24.544,-24.006l24.544,24.006Zm-2.446,6l182.902,0c16.557,0 30,13.443 30,30l0,64.384c0,16.557 -13.443,30 -30,30l-410,0c-16.557,0 -30,-13.443 -30,-30l0,-64.384c0,-16.557 13.443,-30 30,-30l182.902,0l22.098,-21.613l22.098,21.613Z" style="fill:#fff;fill-opacity:0.2;"/><rect x="460.94" y="419.956" width="6.93" height="49.56" style="fill:#333;fill-rule:nonzero;"/><path d="M485.51,436.336c0.093,0.84 0.163,1.785 0.21,2.835c0.047,1.05 0.07,1.925 0.07,2.625l0.21,0c0.42,-0.887 0.992,-1.715 1.715,-2.485c0.723,-0.77 1.552,-1.447 2.485,-2.03c0.933,-0.583 1.96,-1.038 3.08,-1.365c1.12,-0.327 2.287,-0.49 3.5,-0.49c2.147,0 3.99,0.362 5.53,1.085c1.54,0.723 2.823,1.692 3.85,2.905c1.027,1.213 1.785,2.637 2.275,4.27c0.49,1.633 0.735,3.383 0.735,5.25l0,20.58l-6.58,0l0,-18.41c0,-1.353 -0.105,-2.637 -0.315,-3.85c-0.21,-1.213 -0.595,-2.287 -1.155,-3.22c-0.56,-0.933 -1.33,-1.68 -2.31,-2.24c-0.98,-0.56 -2.24,-0.84 -3.78,-0.84c-2.613,0 -4.748,0.992 -6.405,2.975c-1.657,1.983 -2.485,4.632 -2.485,7.945l0,17.64l-6.58,0l0,-26.04c0,-0.887 -0.023,-2.03 -0.07,-3.43c-0.047,-1.4 -0.117,-2.637 -0.21,-3.71l6.23,0Z" style="fill:#333;fill-rule:nonzero;"/><path d="M538.22,444.736c-0.747,-1.213 -1.797,-2.205 -3.15,-2.975c-1.353,-0.77 -2.87,-1.155 -4.55,-1.155c-0.747,0 -1.493,0.082 -2.24,0.245c-0.747,0.163 -1.412,0.42 -1.995,0.77c-0.583,0.35 -1.05,0.793 -1.4,1.33c-0.35,0.537 -0.525,1.202 -0.525,1.995c0,1.4 0.63,2.438 1.89,3.115c1.26,0.677 3.15,1.295 5.67,1.855c1.587,0.373 3.057,0.817 4.41,1.33c1.353,0.513 2.532,1.155 3.535,1.925c1.003,0.77 1.785,1.692 2.345,2.765c0.56,1.073 0.84,2.333 0.84,3.78c0,1.96 -0.373,3.617 -1.12,4.97c-0.747,1.353 -1.738,2.462 -2.975,3.325c-1.237,0.863 -2.648,1.482 -4.235,1.855c-1.587,0.373 -3.22,0.56 -4.9,0.56c-2.52,0 -4.982,-0.49 -7.385,-1.47c-2.403,-0.98 -4.398,-2.473 -5.985,-4.48l4.69,-3.99c0.887,1.307 2.112,2.403 3.675,3.29c1.563,0.887 3.278,1.33 5.145,1.33c0.84,0 1.645,-0.082 2.415,-0.245c0.77,-0.163 1.47,-0.432 2.1,-0.805c0.63,-0.373 1.132,-0.863 1.505,-1.47c0.373,-0.607 0.56,-1.377 0.56,-2.31c0,-1.54 -0.735,-2.683 -2.205,-3.43c-1.47,-0.747 -3.628,-1.447 -6.475,-2.1c-1.12,-0.28 -2.252,-0.618 -3.395,-1.015c-1.143,-0.397 -2.182,-0.945 -3.115,-1.645c-0.933,-0.7 -1.692,-1.575 -2.275,-2.625c-0.583,-1.05 -0.875,-2.345 -0.875,-3.885c0,-1.773 0.362,-3.302 1.085,-4.585c0.723,-1.283 1.668,-2.333 2.835,-3.15c1.167,-0.817 2.497,-1.423 3.99,-1.82c1.493,-0.397 3.033,-0.595 4.62,-0.595c2.38,0 4.678,0.467 6.895,1.4c2.217,0.933 3.932,2.287 5.145,4.06l-4.55,3.85Z" style="fill:#333;fill-rule:nonzero;"/><path d="M567.62,441.726l-8.82,0l0,17.29c0,2.007 0.373,3.442 1.12,4.305c0.747,0.863 1.937,1.295 3.57,1.295c0.607,0 1.26,-0.07 1.96,-0.21c0.7,-0.14 1.33,-0.35 1.89,-0.63l0.21,5.39c-0.793,0.28 -1.668,0.502 -2.625,0.665c-0.957,0.163 -1.948,0.245 -2.975,0.245c-3.127,0 -5.518,-0.863 -7.175,-2.59c-1.657,-1.727 -2.485,-4.317 -2.485,-7.77l0,-17.99l-6.37,0l0,-5.39l6.37,0l0,-9.52l6.51,0l0,9.52l8.82,0l0,5.39Z" style="fill:#333;fill-rule:nonzero;"/><path d="M574.41,443.476c0,-0.887 -0.023,-2.03 -0.07,-3.43c-0.047,-1.4 -0.117,-2.637 -0.21,-3.71l6.23,0c0.093,0.84 0.163,1.808 0.21,2.905c0.047,1.097 0.07,1.995 0.07,2.695l0.21,0c0.933,-1.96 2.298,-3.535 4.095,-4.725c1.797,-1.19 3.815,-1.785 6.055,-1.785c1.027,0 1.89,0.093 2.59,0.28l-0.28,6.09c-0.933,-0.233 -1.937,-0.35 -3.01,-0.35c-1.587,0 -2.963,0.292 -4.13,0.875c-1.167,0.583 -2.135,1.365 -2.905,2.345c-0.77,0.98 -1.342,2.112 -1.715,3.395c-0.373,1.283 -0.56,2.625 -0.56,4.025l0,17.43l-6.58,0l0,-26.04Z" style="fill:#333;fill-rule:nonzero;"/><path d="M623.13,469.516c-0.093,-0.84 -0.163,-1.785 -0.21,-2.835c-0.047,-1.05 -0.07,-1.925 -0.07,-2.625l-0.14,0c-0.84,1.773 -2.252,3.278 -4.235,4.515c-1.983,1.237 -4.188,1.855 -6.615,1.855c-2.147,0 -4.002,-0.35 -5.565,-1.05c-1.563,-0.7 -2.847,-1.668 -3.85,-2.905c-1.003,-1.237 -1.75,-2.672 -2.24,-4.305c-0.49,-1.633 -0.735,-3.383 -0.735,-5.25l0,-20.58l6.58,0l0,18.34c0,1.353 0.105,2.648 0.315,3.885c0.21,1.237 0.595,2.322 1.155,3.255c0.56,0.933 1.33,1.68 2.31,2.24c0.98,0.56 2.24,0.84 3.78,0.84c2.66,0 4.807,-0.992 6.44,-2.975c1.633,-1.983 2.45,-4.632 2.45,-7.945l0,-17.64l6.58,0l0,26.04c0,0.887 0.023,2.03 0.07,3.43c0.047,1.4 0.117,2.637 0.21,3.71l-6.23,0Z" style="fill:#333;fill-rule:nonzero;"/><path d="M663.73,444.736c-0.7,-1.073 -1.75,-1.972 -3.15,-2.695c-1.4,-0.723 -2.893,-1.085 -4.48,-1.085c-1.727,0 -3.255,0.327 -4.585,0.98c-1.33,0.653 -2.462,1.528 -3.395,2.625c-0.933,1.097 -1.645,2.368 -2.135,3.815c-0.49,1.447 -0.735,2.963 -0.735,4.55c0,1.587 0.245,3.103 0.735,4.55c0.49,1.447 1.202,2.718 2.135,3.815c0.933,1.097 2.077,1.972 3.43,2.625c1.353,0.653 2.893,0.98 4.62,0.98c1.68,0 3.208,-0.327 4.585,-0.98c1.377,-0.653 2.508,-1.54 3.395,-2.66l4.41,3.99c-1.4,1.633 -3.15,2.905 -5.25,3.815c-2.1,0.91 -4.48,1.365 -7.14,1.365c-2.567,0 -4.935,-0.42 -7.105,-1.26c-2.17,-0.84 -4.048,-2.018 -5.635,-3.535c-1.587,-1.517 -2.835,-3.348 -3.745,-5.495c-0.91,-2.147 -1.365,-4.55 -1.365,-7.21c0,-2.613 0.443,-4.993 1.33,-7.14c0.887,-2.147 2.123,-3.99 3.71,-5.53c1.587,-1.54 3.465,-2.73 5.635,-3.57c2.17,-0.84 4.515,-1.26 7.035,-1.26c2.333,0 4.655,0.467 6.965,1.4c2.31,0.933 4.142,2.287 5.495,4.06l-4.76,3.85Z" style="fill:#333;fill-rule:nonzero;"/><path d="M691.31,441.726l-8.82,0l0,17.29c0,2.007 0.373,3.442 1.12,4.305c0.747,0.863 1.937,1.295 3.57,1.295c0.607,0 1.26,-0.07 1.96,-0.21c0.7,-0.14 1.33,-0.35 1.89,-0.63l0.21,5.39c-0.793,0.28 -1.668,0.502 -2.625,0.665c-0.957,0.163 -1.948,0.245 -2.975,0.245c-3.127,0 -5.518,-0.863 -7.175,-2.59c-1.657,-1.727 -2.485,-4.317 -2.485,-7.77l0,-17.99l-6.37,0l0,-5.39l6.37,0l0,-9.52l6.51,0l0,9.52l8.82,0l0,5.39Z" style="fill:#333;fill-rule:nonzero;"/><path d="M704.75,469.516l-6.58,0l0,-33.18l6.58,0l0,33.18Zm1.12,-45.15c0,1.213 -0.432,2.217 -1.295,3.01c-0.863,0.793 -1.902,1.19 -3.115,1.19c-1.213,0 -2.24,-0.408 -3.08,-1.225c-0.84,-0.817 -1.26,-1.808 -1.26,-2.975c0,-1.213 0.42,-2.228 1.26,-3.045c0.84,-0.817 1.867,-1.225 3.08,-1.225c1.213,0 2.252,0.408 3.115,1.225c0.863,0.817 1.295,1.832 1.295,3.045Z" style="fill:#333;fill-rule:nonzero;"/><path d="M749.83,452.856c0,2.567 -0.455,4.923 -1.365,7.07c-0.91,2.147 -2.17,4.002 -3.78,5.565c-1.61,1.563 -3.512,2.777 -5.705,3.64c-2.193,0.863 -4.55,1.295 -7.07,1.295c-2.52,0 -4.877,-0.432 -7.07,-1.295c-2.193,-0.863 -4.083,-2.077 -5.67,-3.64c-1.587,-1.563 -2.835,-3.418 -3.745,-5.565c-0.91,-2.147 -1.365,-4.503 -1.365,-7.07c0,-2.567 0.455,-4.912 1.365,-7.035c0.91,-2.123 2.158,-3.955 3.745,-5.495c1.587,-1.54 3.477,-2.742 5.67,-3.605c2.193,-0.863 4.55,-1.295 7.07,-1.295c2.52,0 4.877,0.432 7.07,1.295c2.193,0.863 4.095,2.065 5.705,3.605c1.61,1.54 2.87,3.372 3.78,5.495c0.91,2.123 1.365,4.468 1.365,7.035Zm-6.86,0c0,-1.587 -0.245,-3.103 -0.735,-4.55c-0.49,-1.447 -1.202,-2.718 -2.135,-3.815c-0.933,-1.097 -2.088,-1.972 -3.465,-2.625c-1.377,-0.653 -2.952,-0.98 -4.725,-0.98c-1.773,0 -3.348,0.327 -4.725,0.98c-1.377,0.653 -2.532,1.528 -3.465,2.625c-0.933,1.097 -1.645,2.368 -2.135,3.815c-0.49,1.447 -0.735,2.963 -0.735,4.55c0,1.587 0.245,3.103 0.735,4.55c0.49,1.447 1.202,2.73 2.135,3.85c0.933,1.12 2.088,2.007 3.465,2.66c1.377,0.653 2.952,0.98 4.725,0.98c1.773,0 3.348,-0.327 4.725,-0.98c1.377,-0.653 2.532,-1.54 3.465,-2.66c0.933,-1.12 1.645,-2.403 2.135,-3.85c0.49,-1.447 0.735,-2.963 0.735,-4.55Z" style="fill:#333;fill-rule:nonzero;"/><path d="M764.88,436.336c0.093,0.84 0.163,1.785 0.21,2.835c0.047,1.05 0.07,1.925 0.07,2.625l0.21,0c0.42,-0.887 0.992,-1.715 1.715,-2.485c0.723,-0.77 1.552,-1.447 2.485,-2.03c0.933,-0.583 1.96,-1.038 3.08,-1.365c1.12,-0.327 2.287,-0.49 3.5,-0.49c2.147,0 3.99,0.362 5.53,1.085c1.54,0.723 2.823,1.692 3.85,2.905c1.027,1.213 1.785,2.637 2.275,4.27c0.49,1.633 0.735,3.383 0.735,5.25l0,20.58l-6.58,0l0,-18.41c0,-1.353 -0.105,-2.637 -0.315,-3.85c-0.21,-1.213 -0.595,-2.287 -1.155,-3.22c-0.56,-0.933 -1.33,-1.68 -2.31,-2.24c-0.98,-0.56 -2.24,-0.84 -3.78,-0.84c-2.613,0 -4.748,0.992 -6.405,2.975c-1.657,1.983 -2.485,4.632 -2.485,7.945l0,17.64l-6.58,0l0,-26.04c0,-0.887 -0.023,-2.03 -0.07,-3.43c-0.047,-1.4 -0.117,-2.637 -0.21,-3.71l6.23,0Z" style="fill:#333;fill-rule:nonzero;"/><path d="M817.59,444.736c-0.747,-1.213 -1.797,-2.205 -3.15,-2.975c-1.353,-0.77 -2.87,-1.155 -4.55,-1.155c-0.747,0 -1.493,0.082 -2.24,0.245c-0.747,0.163 -1.412,0.42 -1.995,0.77c-0.583,0.35 -1.05,0.793 -1.4,1.33c-0.35,0.537 -0.525,1.202 -0.525,1.995c0,1.4 0.63,2.438 1.89,3.115c1.26,0.677 3.15,1.295 5.67,1.855c1.587,0.373 3.057,0.817 4.41,1.33c1.353,0.513 2.532,1.155 3.535,1.925c1.003,0.77 1.785,1.692 2.345,2.765c0.56,1.073 0.84,2.333 0.84,3.78c0,1.96 -0.373,3.617 -1.12,4.97c-0.747,1.353 -1.738,2.462 -2.975,3.325c-1.237,0.863 -2.648,1.482 -4.235,1.855c-1.587,0.373 -3.22,0.56 -4.9,0.56c-2.52,0 -4.982,-0.49 -7.385,-1.47c-2.403,-0.98 -4.398,-2.473 -5.985,-4.48l4.69,-3.99c0.887,1.307 2.112,2.403 3.675,3.29c1.563,0.887 3.278,1.33 5.145,1.33c0.84,0 1.645,-0.082 2.415,-0.245c0.77,-0.163 1.47,-0.432 2.1,-0.805c0.63,-0.373 1.132,-0.863 1.505,-1.47c0.373,-0.607 0.56,-1.377 0.56,-2.31c0,-1.54 -0.735,-2.683 -2.205,-3.43c-1.47,-0.747 -3.628,-1.447 -6.475,-2.1c-1.12,-0.28 -2.252,-0.618 -3.395,-1.015c-1.143,-0.397 -2.182,-0.945 -3.115,-1.645c-0.933,-0.7 -1.692,-1.575 -2.275,-2.625c-0.583,-1.05 -0.875,-2.345 -0.875,-3.885c0,-1.773 0.362,-3.302 1.085,-4.585c0.723,-1.283 1.668,-2.333 2.835,-3.15c1.167,-0.817 2.497,-1.423 3.99,-1.82c1.493,-0.397 3.033,-0.595 4.62,-0.595c2.38,0 4.678,0.467 6.895,1.4c2.217,0.933 3.932,2.287 5.145,4.06l-4.55,3.85Z" style="fill:#333;fill-rule:nonzero;"/></g><g><path d="M640,320.752c30.376,0 55,-24.624 55,-55c0,-30.376 -24.624,-55 -55,-55c-30.376,0 -55,24.624 -55,55c0,30.376 24.624,55 55,55Z" style="fill:#fff;fill-opacity:0.2;"/><path d="M640,305.752c22.091,0 40,-17.909 40,-40c0,-22.091 -17.909,-40 -40,-40c-22.091,0 -40,17.909 -40,40c0,22.091 17.909,40 40,40Z" style="fill:#fff;"/></g></g></g></svg>