<svg xmlns="http://www.w3.org/2000/svg" fill-rule="evenodd" stroke-linejoin="round" stroke-miterlimit="1.41" clip-rule="evenodd" viewBox="0 0 1280 720" width="1280" height="720"><path fill="#fff" d="M642.006 194.948l.317.003.318.005.317.007.316.009.316.011.315.012.315.015.314.017.314.019.313.021.313.023.312.024.312.027.311.028.311.031.31.032.31.034.308.037.309.038.308.04.307.041.306.044.306.046.306.047.305.049.304.052.303.053.303.055.302.056.302.059.301.06.3.062.3.064.299.066.298.068.297.069.297.071.296.073.296.075.295.077.294.078.293.08.293.082.291.083.292.086.29.087.29.088.288.091.289.092.287.094.286.095.286.098.285.099.284.1.283.103.283.104.282.106.281.107.28.109.279.111.278.112.278.114.276.115.276.118.275.118.274.121.274.122.272.124.271.125.271.127.269.128.269.13.268.132.267.133.266.134.265.137.264.137.263.14.262.141.261.142.261.144.259.145.258.147.258.149.256.15.255.151.255.153.253.154.252.156.252.157.25.159.249.161.249.161.247.163.246.165.245.166.244.167.243.169.242.171.241.171.24.173.238.175.238.176.236.177.235.179.235.18.233.181.232.183.231.184.229.185.229.187.227.188.227.189.225.191.224.192.223.194.221.194.221.196.219.198.218.198.217.2.215.201.215.203.213.203.212.205.21.206.21.208.208.209.207.209.206.211.204.213.203.213.202.215.201.216.199.217.198.219.197.219.196.221.194.222.193.223.191.224.19.226.189.226.188.228.186.229.185.23.183.231.182.232.181.234.179.234.178.236.177.236.175.238.174.239.172.24.171.241.17.242.168.243.167.244.165.246.164.246.162.247.161.248.159.25.158.25.157.252.155.252.153.254.152.254.151.255.149.257.147.257.147.259.144.259.143.26.141.261.14.263.139.263.136.264.136.265.133.266.132.266.131.268.129.269.127.269.126.271.124.271.123.272.121.274.119.274.118.275.116.275.114.277.113.277.111.278.11.279.107.28.107.281.104.282.103.282.101.283.099.284.098.285.096.285.094.287.093.287.091.288.089.288.087.29.086.29.084.29.082.292.08.292.079.293.077.294.075.294.073.296.072.296.069.296.068.297.066.298.065.299.062.299.061.3.059.3.057.301.055.303.053.302.051.303.05.304.047.304.046.305.044.306.042.306.04.306.039.308.036.308.034.308.033.309.03.309.029.311.027.31.025.312.022.311.021.313.019.312.017.314.015.314.013.314.011.314.009.316.007.316.005.316.003.316.001.317-.001.318-.003.316-.005.316-.007.316-.009.316-.011.314-.013.314-.015.314-.017.314-.019.312-.021.312-.022.312-.025.311-.027.311-.029.31-.03.31-.033.309-.034.308-.036.308-.039.307-.04.307-.042.306-.044.306-.046.305-.047.304-.05.304-.051.303-.053.302-.055.302-.057.301-.059.301-.061.3-.062.299-.065.299-.066.297-.068.298-.069.296-.072.296-.073.295-.075.295-.077.293-.079.293-.08.293-.082.291-.084.291-.086.29-.087.29-.089.288-.091.288-.093.287-.094.286-.096.286-.098.285-.099.284-.101.283-.103.282-.104.282-.107.28-.107.28-.11.279-.111.279-.113.277-.114.277-.116.275-.118.275-.119.274-.121.273-.123.272-.124.272-.126.27-.127.27-.129.269-.131.267-.132.267-.133.266-.136.265-.136.264-.139.263-.14.262-.141.262-.143.26-.144.259-.147.259-.147.257-.149.256-.151.256-.152.254-.153.254-.155.252-.157.251-.158.251-.159.249-.161.249-.162.247-.164.246-.165.245-.167.245-.168.243-.17.242-.171.241-.172.24-.174.238-.175.238-.177.237-.178.236-.179.234-.181.233-.182.233-.183.231-.185.23-.186.229-.188.227-.189.227-.19.225-.191.224-.193.224-.194.221-.196.221-.197.22-.198.218-.199.217-.201.216-.202.215-.203.214-.204.212-.206.211-.207.21-.208.209-.21.207-.21.206-.212.205-.213.204-.215.202-.215.201-.217.2-.218.199-.22.197-.22.196-.221.195-.223.193-.224.192-.225.191-.227.19-.227.188-.229.186-.229.186-.231.184-.232.183-.233.181-.235.18-.235.179-.236.177-.238.176-.238.174-.24.173-.241.172-.242.17-.243.169-.244.168-.245.166-.246.164-.247.163-.249.162-.249.16-.25.159-.252.157-.252.156-.253.155-.255.153-.255.151-.256.15-.258.148-.258.147-.259.146-.261.144-.261.142-.262.141-.263.139-.264.138-.265.136-.266.135-.267.133-.268.131-.269.13-.269.129-.271.127-.271.125-.272.124-.274.122-.274.12-.275.119-.276.117-.276.116-.278.114-.278.112-.279.111-.28.109-.281.107-.282.106-.283.104-.283.102-.284.101-.285.099-.286.097-.286.096-.287.094-.289.092-.288.09-.29.089-.29.087-.292.085-.291.084-.293.082-.293.08-.294.078-.295.076-.296.075-.296.073-.297.071-.297.07-.298.067-.299.066-.3.064-.3.062-.301.061-.302.058-.302.057-.303.055-.303.053-.304.051-.305.049-.306.048-.306.045-.306.044-.307.042-.308.04-.309.038-.308.036-.31.034-.31.033-.311.03-.311.029-.312.026-.312.025-.313.023-.313.02-.314.019-.314.017-.315.015-.315.013-.316.011-.316.009-.317.007-.318.005-.317.003-.319.001-.318-.001-.318-.003-.317-.005-.317-.007-.316-.009-.316-.011-.315-.013-.315-.015-.314-.017-.314-.019-.313-.02-.313-.023-.313-.025-.311-.026-.311-.029-.311-.03-.31-.033-.31-.034-.309-.036-.308-.038-.308-.04-.307-.042-.306-.044-.306-.045-.306-.048-.305-.049-.304-.051-.303-.053-.303-.055-.302-.057-.302-.058-.301-.061-.3-.062-.3-.064-.299-.066-.298-.067-.297-.07-.297-.071-.296-.073-.296-.075-.295-.076-.294-.078-.293-.08-.293-.082-.291-.084-.292-.085-.29-.087-.29-.089-.288-.09-.288-.092-.288-.094-.286-.096-.286-.097-.285-.099-.284-.101-.284-.102-.282-.104-.282-.106-.281-.107-.28-.109-.279-.111-.278-.112-.278-.114-.276-.116-.276-.117-.275-.119-.274-.12-.273-.122-.273-.124-.271-.125-.271-.127-.269-.129-.269-.13-.268-.131-.267-.133-.266-.135-.265-.136-.264-.138-.263-.139-.262-.141-.261-.142-.261-.144-.259-.146-.258-.147-.258-.148-.256-.15-.255-.151-.255-.153-.253-.155-.252-.156-.252-.157-.25-.159-.249-.16-.249-.162-.247-.163-.246-.164-.245-.166-.244-.168-.243-.169-.242-.17-.241-.172-.239-.173-.239-.174-.238-.176-.236-.177-.235-.179-.235-.18-.233-.181-.232-.183-.231-.184-.229-.186-.229-.186-.227-.188-.227-.19-.225-.191-.224-.192-.222-.193-.222-.195-.22-.196-.22-.197-.218-.199-.216-.2-.216-.201-.214-.202-.214-.204-.212-.205-.21-.206-.21-.207-.208-.209-.207-.21-.206-.211-.204-.212-.203-.214-.202-.215-.201-.216-.199-.217-.198-.218-.197-.22-.196-.22-.194-.222-.193-.224-.191-.224-.19-.225-.189-.227-.188-.227-.186-.229-.185-.23-.183-.231-.182-.233-.181-.233-.179-.234-.178-.236-.177-.237-.175-.237-.174-.239-.172-.24-.171-.241-.17-.242-.168-.243-.166-.245-.166-.245-.163-.246-.163-.247-.161-.249-.159-.249-.158-.251-.157-.251-.155-.252-.153-.254-.152-.254-.151-.256-.149-.256-.147-.258-.146-.258-.145-.259-.143-.26-.141-.262-.14-.262-.139-.263-.136-.264-.136-.265-.133-.266-.132-.267-.131-.268-.129-.268-.127-.27-.126-.27-.124-.272-.123-.272-.121-.273-.119-.274-.118-.275-.116-.276-.114-.276-.113-.277-.111-.279-.109-.279-.108-.28-.106-.28-.105-.282-.103-.282-.101-.283-.099-.284-.098-.285-.096-.286-.094-.286-.093-.287-.091-.288-.089-.288-.087-.29-.086-.29-.084-.291-.082-.291-.08-.293-.079-.293-.077-.293-.075-.295-.073-.295-.072-.296-.069-.296-.068-.298-.066-.297-.065-.299-.062-.299-.061-.3-.058-.301-.057-.301-.056-.302-.053-.302-.051-.303-.05-.304-.047-.304-.046-.305-.044-.306-.042-.306-.04-.307-.038-.307-.037-.308-.034-.308-.033-.309-.03-.31-.029-.31-.027-.311-.024-.311-.023-.312-.021-.312-.019-.312-.017-.314-.015-.314-.013-.314-.011-.315-.009-.315-.007-.316-.005-.316-.003-.316-.001-.318.001-.317.003-.316.005-.317.007-.315.009-.316.011-.314.013-.315.015-.313.017-.314.019-.312.021-.313.023-.311.024-.312.027-.31.029-.31.03-.31.033-.309.034-.308.037-.308.038-.308.04-.306.042-.306.044-.306.046-.305.047-.304.05-.304.051-.303.053-.303.056-.301.057-.302.058-.3.061-.3.062-.299.065-.299.066-.298.068-.297.069-.297.072-.295.073-.295.075-.295.077-.294.079-.293.08-.292.082-.292.084-.29.086-.291.087-.289.089-.288.091-.288.093-.287.094-.287.096-.285.098-.285.099-.284.101-.283.103-.282.105-.282.106-.281.108-.28.109-.279.111-.278.113-.277.114-.277.116-.275.118-.275.119-.274.121-.273.123-.273.124-.271.126-.27.127-.27.129-.269.131-.268.132-.266.133-.266.136-.265.137-.264.138-.263.14-.263.141-.261.143-.26.145-.259.146-.259.147-.257.149-.257.151-.255.152-.254.153-.254.155-.252.157-.252.158-.25.159-.25.161-.248.163-.247.163-.247.166-.245.166-.244.168-.243.17-.242.171-.241.172-.24.174-.239.175-.238.177-.236.178-.236.179-.234.181-.234.182-.232.183-.231.185-.23.186-.229.188-.228.189-.226.19-.226.191-.224.193-.223.194-.222.196-.221.197-.219.198-.219.199-.217.201-.216.202-.215.203-.213.204-.212.206-.212.207-.209.208-.209.21-.208.21-.206.212-.205.214-.203.214-.203.216-.201.216-.2.218-.198.22-.198.22-.196.222-.194.222-.194.224-.192.225-.191.227-.189.227-.188.229-.187.229-.185.231-.184.232-.183.233-.181.235-.18.235-.179.236-.177.238-.176.239-.175.239-.173.241-.171.242-.171.243-.169.244-.167.245-.166.246-.165.247-.163.249-.161.249-.161.25-.158.252-.158.252-.156.253-.154.255-.153.255-.151.256-.15.258-.149.258-.147.259-.145.261-.144.261-.142.262-.141.263-.14.264-.137.265-.137.266-.134.267-.133.268-.132.269-.13.269-.128.271-.127.271-.125.273-.124.273-.122.274-.121.275-.118.276-.118.276-.115.278-.114.278-.112.279-.111.28-.109.281-.107.282-.106.282-.104.284-.103.284-.1.285-.099.286-.098.286-.095.288-.094.288-.092.288-.091.29-.088.29-.087.292-.086.291-.083.293-.082.293-.08.294-.078.295-.077.296-.075.296-.073.297-.071.297-.069.298-.068.299-.066.3-.064.3-.062.301-.06.302-.059.302-.056.303-.055.303-.053.304-.052.305-.049.306-.047.306-.046.306-.044.307-.041.308-.04.308-.038.309-.037.31-.034.31-.032.311-.031.311-.028.311-.027.313-.024.313-.023.313-.021.314-.019.314-.017.315-.015.315-.012.316-.011.316-.009.317-.007.317-.005.318-.003.318-.001.319.001zm-.611 4l-.293.002-.292.005-.292.006-.291.009-.29.01-.291.012-.289.013-.289.016-.289.017-.288.019-.288.021-.287.023-.287.024-.286.026-.285.028-.286.03-.284.032-.284.033-.283.035-.283.037-.283.038-.281.04-.282.042-.28.044-.28.045-.28.047-.278.049-.279.05-.277.052-.277.054-.277.056-.276.057-.275.058-.274.061-.274.062-.274.064-.272.065-.273.067-.271.069-.271.07-.27.072-.269.074-.269.075-.268.076-.267.079-.267.08-.266.081-.265.083-.265.085-.263.086-.264.088-.262.089-.262.091-.261.093-.26.094-.259.095-.259.097-.258.099-.257.1-.257.102-.255.103-.255.104-.254.107-.254.107-.252.109-.252.111-.251.112-.25.114-.249.115-.249.116-.248.118-.246.12-.246.12-.246.123-.244.123-.243.126-.243.126-.242.128-.241.13-.24.13-.239.133-.238.133-.237.135-.237.137-.235.137-.235.139-.233.141-.233.142-.232.143-.231.145-.23.145-.229.148-.228.148-.227.15-.227.151-.225.153-.224.154-.223.155-.223.157-.221.157-.22.159-.22.161-.218.161-.217.163-.217.165-.215.165-.214.167-.213.168-.213.169-.211.17-.21.172-.209.173-.208.174-.207.175-.205.177-.205.177-.204.179-.202.181-.202.181-.2.182-.2.184-.198.185-.197.186-.196.187-.195.189-.193.189-.193.191-.191.192-.19.192-.19.194-.187.196-.187.196-.186.197-.184.199-.183.199-.182.201-.181.202-.18.203-.178.204-.178.205-.176.206-.174.207-.174.208-.172.209-.171.211-.17.211-.169.213-.167.213-.166.214-.165.216-.163.216-.162.218-.161.218-.16.22-.159.22-.157.221-.155.223-.155.223-.153.224-.152.226-.15.226-.149.227-.148.228-.147.229-.145.23-.143.231-.143.232-.141.233-.139.233-.139.235-.137.235-.135.237-.134.237-.133.238-.131.239-.13.24-.128.241-.127.241-.126.243-.124.243-.123.244-.121.245-.12.246-.118.247-.117.247-.116.248-.114.25-.112.249-.111.251-.11.252-.108.252-.106.253-.105.254-.104.254-.102.256-.1.256-.099.257-.098.257-.096.259-.094.259-.093.26-.091.26-.09.261-.088.262-.086.263-.085.264-.083.264-.082.265-.08.265-.079.266-.077.267-.075.268-.074.268-.072.269-.071.269-.069.271-.067.27-.066.272-.064.272-.062.273-.061.273-.059.274-.057.275-.055.275-.054.276-.053.276-.05.277-.049.278-.047.278-.046.279-.044.28-.042.279-.04.281-.039.281-.036.282-.035.282-.034.283-.031.283-.03.284-.028.284-.027.285-.024.285-.023.286-.021.287-.019.287-.017.287-.016.288-.014.288-.012.289-.01.29-.008.289-.007.291-.004.29-.003.292-.001.291.001.292.003.291.004.291.007.29.008.29.01.29.012.288.014.289.016.288.017.287.019.287.021.287.023.285.024.286.027.285.028.284.03.284.031.283.034.283.035.282.036.282.039.281.04.28.042.28.044.28.046.278.047.279.049.277.05.277.053.277.054.276.055.275.057.274.059.275.061.273.062.273.064.272.066.271.067.271.069.27.071.27.072.269.074.268.075.268.077.266.079.267.08.265.082.265.083.264.085.264.086.262.088.262.09.262.091.26.093.26.094.259.096.258.098.258.099.257.1.256.102.255.104.255.105.254.106.253.108.252.11.252.111.25.112.25.114.249.116.249.117.247.118.247.12.245.121.245.123.245.124.243.126.242.127.242.128.241.13.239.131.239.133.239.134.237.135.236.137.236.139.234.139.234.141.233.143.231.143.231.145.23.147.229.148.229.149.227.15.226.152.225.153.225.155.223.155.222.157.222.159.22.159.219.161.219.163.217.163.217.165.215.166.215.167.213.169.213.17.211.171.21.172.209.174.208.174.208.176.206.178.205.178.204.18.203.181.201.182.201.183.2.184.198.186.198.187.196.187.195.19.194.19.193.191.192.193.191.193.189.195.188.196.188.197.186.198.184.2.184.2.183.201.181.203.18.204.179.205.178.205.176.207.176.208.174.209.173.21.171.211.171.213.169.213.168.214.167.215.165.217.164.217.163.218.162.22.16.22.159.221.158.223.156.223.156.224.153.225.153.227.151.227.15.228.149.229.147.23.146.231.144.232.144.233.142.233.14.235.139.235.138.237.136.237.135.238.134.239.132.24.131.241.129.242.128.243.127.243.125.244.124.246.122.246.121.246.119.248.118.249.117.249.115.25.113.251.112.252.111.252.109.254.108.254.106.255.105.255.103.257.101.257.101.258.098.259.097.259.096.26.094.261.092.262.091.262.09.264.087.263.087.265.084.265.083.266.082.267.08.267.078.268.077.269.075.269.073.27.072.271.071.271.068.273.067.272.066.274.063.273.063.275.06.275.059.276.057.277.055.277.054.277.052.279.051.278.048.28.047.28.046.28.043.282.042.281.04.283.039.283.037.283.034.284.034.284.031.286.03.285.028.286.026.287.025.287.022.288.021.288.019.289.018.289.015.289.014.291.012.29.01.291.008.292.007.292.004.293.003.292.001.293-.001.293-.003.292-.004.292-.007.291-.008.29-.01.29-.012.29-.014.289-.015.289-.018.288-.019.288-.021.287-.022.287-.025.286-.026.285-.028.285-.03.285-.031.284-.034.283-.034.283-.037.283-.039.281-.04.281-.042.281-.043.28-.046.28-.047.278-.048.279-.051.277-.052.277-.054.277-.055.276-.057.275-.059.274-.06.274-.063.274-.063.272-.066.272-.067.272-.068.271-.071.27-.072.269-.073.269-.075.268-.077.267-.078.267-.08.266-.082.265-.083.265-.084.263-.087.264-.087.262-.09.262-.091.261-.092.26-.094.259-.096.259-.097.258-.098.257-.101.257-.101.255-.103.255-.105.254-.106.254-.108.252-.109.252-.111.251-.112.25-.113.249-.115.249-.117.248-.118.246-.119.247-.121.245-.122.244-.124.243-.125.243-.127.242-.128.241-.129.24-.131.239-.132.238-.134.237-.135.237-.136.235-.138.235-.139.234-.14.232-.142.232-.143.231-.145.23-.146.229-.147.228-.149.228-.15.226-.151.225-.153.224-.153.224-.156.222-.156.221-.158.22-.159.22-.16.218-.162.217-.163.217-.164.215-.165.214-.167.213-.168.213-.169.211-.171.21-.171.209-.173.208-.174.207-.176.206-.176.204-.178.204-.179.203-.18.201-.181.201-.183.199-.184.198-.184.197-.186.196-.188.195-.188.193-.189.193-.191.191-.192.191-.193.189-.194.188-.195.186-.196.186-.198.184-.198.184-.2.182-.201.181-.201.179-.203.178-.204.178-.205.176-.206.175-.208.173-.208.172-.209.171-.21.17-.212.169-.212.167-.213.166-.215.165-.215.163-.217.163-.217.161-.218.159-.22.159-.22.157-.222.155-.222.155-.223.153-.225.152-.225.15-.226.149-.227.148-.229.147-.229.145-.23.144-.231.142-.231.141-.233.14-.234.138-.234.137-.236.135-.236.134-.237.133-.238.131-.24.13-.239.128-.241.128-.242.125-.242.124-.243.123-.245.121-.245.12-.246.119-.246.116-.248.116-.248.114-.249.112-.25.111-.25.11-.252.108-.252.106-.253.105-.254.104-.255.102-.255.1-.256.099-.257.098-.258.096-.258.094-.259.093-.26.091-.26.09-.262.088-.262.086-.262.085-.264.084-.264.081-.265.081-.265.078-.267.077-.267.076-.267.073-.268.073-.269.07-.27.069-.27.067-.271.066-.271.064-.272.062-.273.061-.273.059-.275.057-.274.056-.275.054-.276.052-.277.05-.277.049-.277.048-.279.045-.278.044-.28.042-.28.04-.28.039-.281.037-.282.035-.282.033-.283.032-.283.029-.284.029-.284.026-.285.024-.286.023-.285.021-.287.019-.287.018-.287.015-.288.014-.288.012-.289.01-.29.008-.29.007-.29.004-.291.003-.291.001-.292-.001-.291-.003-.291-.004-.291-.007-.291-.008-.289-.01-.29-.012-.289-.014-.288-.015-.288-.018-.287-.019-.287-.021-.287-.023-.286-.024-.285-.026-.285-.029-.284-.029-.284-.032-.283-.033-.283-.035-.282-.037-.282-.039-.281-.04-.28-.042-.28-.044-.28-.045-.279-.048-.278-.049-.278-.05-.276-.052-.277-.054-.276-.056-.275-.057-.275-.059-.274-.061-.273-.062-.273-.064-.272-.066-.272-.067-.27-.069-.271-.07-.269-.073-.269-.073-.268-.076-.268-.077-.267-.078-.266-.081-.266-.081-.264-.084-.264-.085-.264-.086-.263-.088-.262-.09-.261-.091-.26-.093-.26-.094-.259-.096-.259-.098-.257-.099-.257-.1-.256-.102-.256-.104-.254-.105-.254-.106-.253-.108-.253-.11-.251-.111-.251-.112-.25-.114-.249-.116-.248-.116-.247-.119-.247-.12-.246-.121-.245-.123-.244-.124-.243-.125-.243-.128-.241-.128-.241-.13-.24-.131-.239-.133-.238-.134-.237-.135-.237-.137-.235-.138-.235-.14-.233-.141-.233-.142-.232-.144-.231-.145-.23-.147-.229-.148-.228-.149-.227-.15-.226-.152-.226-.153-.224-.155-.223-.155-.223-.157-.221-.159-.22-.159-.22-.161-.218-.163-.218-.163-.216-.165-.216-.166-.214-.167-.214-.169-.212-.17-.211-.171-.211-.172-.209-.173-.208-.175-.207-.176-.206-.178-.205-.178-.204-.179-.203-.181-.202-.182-.201-.184-.199-.184-.199-.186-.197-.186-.196-.188-.195-.189-.195-.191-.193-.191-.191-.193-.191-.193-.189-.195-.189-.196-.187-.197-.186-.198-.185-.199-.184-.201-.182-.201-.181-.203-.181-.204-.179-.204-.177-.206-.177-.207-.175-.208-.174-.209-.173-.21-.172-.211-.17-.213-.169-.213-.168-.214-.167-.215-.165-.217-.165-.217-.163-.218-.161-.22-.161-.22-.159-.221-.157-.222-.157-.224-.155-.224-.154-.225-.153-.226-.151-.228-.15-.228-.148-.229-.148-.23-.145-.231-.145-.232-.143-.232-.142-.234-.141-.235-.139-.235-.137-.237-.137-.237-.135-.238-.133-.239-.133-.24-.13-.241-.13-.242-.128-.243-.126-.243-.126-.244-.123-.246-.123-.246-.12-.246-.12-.248-.118-.249-.116-.249-.115-.25-.114-.251-.112-.252-.111-.252-.109-.253-.107-.255-.107-.255-.104-.255-.103-.257-.102-.257-.1-.258-.099-.259-.097-.259-.095-.26-.094-.261-.093-.262-.091-.262-.089-.264-.088-.263-.086-.265-.085-.265-.083-.266-.081-.267-.08-.267-.079-.268-.076-.269-.075-.269-.074-.27-.072-.271-.07-.272-.069-.272-.067-.272-.065-.274-.064-.274-.062-.274-.061-.275-.058-.276-.057-.277-.056-.277-.054-.277-.052-.279-.05-.278-.049-.28-.047-.28-.045-.281-.044-.281-.042-.281-.04-.283-.038-.283-.037-.283-.035-.284-.033-.285-.032-.285-.03-.285-.028-.286-.026-.287-.024-.287-.023-.288-.021-.288-.019-.289-.017-.289-.016-.29-.013-.29-.012-.29-.01-.291-.009-.292-.006-.292-.005-.293-.002-.293-.001-.292.001z"/><path fill="none" d="M642.678 333.444l-.173-.19h.345l-.172.19zm-3.495-.19l-.173.19-.173-.19h.346zm-19.75 18.996H335.047c-19.485 0-35.271 15.789-35.271 35.273v96.258c0 19.485 15.789 35.272 35.271 35.272h609.906c19.485 0 35.271-15.789 35.271-35.272v-96.258c0-19.486-15.789-35.273-35.271-35.273H662.254l2.007.887-21.411-23.534-2.006-2.206-2.007 2.206-21.411 23.534 2.007-.887z"/><path fill="#fff" d="M663.139 352.963h282.038l.222.002.223.004.222.005.222.006.222.008.221.009.221.011.22.011.221.014.219.014.22.016.219.018.219.018.218.02.218.022.218.023.217.024.217.025.216.027.216.028.216.03.215.03.214.033.215.033.214.035.213.036.213.037.213.039.212.04.211.041.212.042.21.044.21.045.21.047.21.047.208.049.209.05.208.052.207.052.207.054.206.055.206.057.206.057.204.059.205.06.203.062.204.062.202.064.203.065.201.066.201.067.201.069.2.069.199.071.199.072.198.074.198.074.197.076.197.077.196.077.195.08.195.08.194.081.194.083.193.083.192.085.192.086.191.087.19.089.19.089.189.09.189.092.188.092.187.094.187.095.186.096.185.097.185.098.184.099.183.101.183.101.182.103.181.103.18.104.18.106.18.107.178.107.178.109.177.11.176.111.176.112.175.112.174.114.173.115.173.116.172.117.171.118.171.119.169.12.169.121.168.121.168.123.167.124.166.125.165.126.164.127.164.127.162.129.162.13.162.13.16.132.159.132.159.134.158.134.157.135.156.136.156.138.155.138.153.138.153.14.153.141.151.141.15.143.15.144.148.144.148.145.147.146.146.147.146.148.144.149.143.149.143.151.142.151.14.152.14.153.139.154.138.154.137.156.136.156.136.157.134.158.133.159.133.159.132.161.13.161.13.162.128.162.128.164.127.165.126.164.124.166.124.167.123.168.122.168.121.169.12.169.119.171.118.171.117.172.116.173.115.174.114.173.112.175.112.176.111.176.11.178.109.177.107.179.107.179.106.18.104.181.104.181.102.182.101.182.101.184.099.184.098.184.097.186.096.186.095.186.094.188.093.188.091.188.091.189.089.191.088.19.087.191.086.192.085.192.084.193.082.194.082.194.08.195.079.195.078.196.077.197.076.197.074.198.073.198.073.199.071.2.069.2.069.2.067.201.066.202.065.202.064.203.063.203.061.204.06.204.059.205.057.205.057.207.055.206.054.207.053.207.051.208.05.209.049.208.048.21.046.21.045.21.044.211.042.211.042.212.04.212.038.212.038.214.036.214.034.213.034.214.032.215.031.216.029.215.028.216.027.217.026.217.024.217.023.217.021.218.02.219.019.219.017.219.016.219.015.221.013.22.012.22.011.222.009.22.007.222.007.223.005.222.003.222.002.224.001.22v96.263l-.001.221-.002.223-.003.222-.005.222-.007.223-.007.221-.009.221-.011.221-.012.221-.013.22-.015.22-.016.219-.017.219-.019.219-.02.219-.021.218-.023.217-.024.217-.026.218-.026.216-.028.215-.03.216-.031.215-.032.215-.033.214-.035.214-.036.214-.037.213-.039.212-.04.212-.041.212-.043.211-.044.211-.044.21-.047.21-.048.21-.048.208-.05.209-.052.208-.053.207-.053.207-.056.206-.056.206-.058.205-.058.205-.06.204-.062.204-.062.204-.064.203-.065.201-.066.202-.067.201-.069.201-.07.2-.07.199-.073.199-.073.199-.074.197-.076.197-.077.197-.078.196-.079.195-.08.195-.081.194-.083.194-.084.193-.084.192-.086.192-.087.191-.089.19-.089.19-.09.189-.092.189-.092.188-.094.187-.095.187-.096.186-.097.186-.098.184-.099.184-.101.183-.101.183-.102.182-.104.181-.104.181-.106.18-.107.179-.107.178-.109.178-.11.177-.111.177-.111.175-.113.175-.114.174-.115.174-.116.172-.117.172-.118.172-.119.17-.119.17-.121.169-.122.168-.123.168-.124.166-.125.166-.126.165-.126.164-.128.164-.129.163-.129.162-.131.161-.131.161-.133.159-.133.159-.134.158-.136.157-.136.156-.137.156-.138.155-.139.153-.14.153-.14.152-.142.152-.143.15-.143.149-.144.149-.146.148-.146.147-.146.146-.148.145-.149.145-.149.143-.151.143-.151.141-.152.141-.153.14-.154.139-.155.138-.155.137-.156.136-.157.136-.158.134-.159.133-.16.133-.16.131-.161.131-.162.13-.163.129-.163.127-.164.127-.166.126-.165.125-.167.124-.168.123-.168.121-.169.121-.169.12-.171.119-.171.118-.172.117-.173.116-.173.115-.175.114-.174.113-.176.112-.177.11-.176.11-.178.109-.179.108-.179.106-.18.106-.18.105-.182.103-.181.102-.183.102-.184.1-.183.099-.185.099-.186.097-.185.096-.187.094-.187.094-.189.093-.188.092-.189.09-.19.089-.191.089-.191.087-.191.086-.193.085-.193.083-.193.083-.195.081-.194.081-.196.079-.195.078-.197.077-.198.075-.197.075-.199.073-.198.072-.2.071-.2.07-.2.068-.202.068-.201.066-.202.065-.203.064-.203.062-.204.061-.205.061-.204.058-.206.058-.206.056-.206.056-.207.053-.207.053-.208.052-.209.05-.209.049-.209.047-.21.047-.21.045-.211.044-.211.042-.212.041-.212.04-.213.039-.213.037-.213.036-.214.035-.215.033-.215.033-.215.03-.215.03-.216.028-.217.027-.217.025-.217.024-.217.023-.219.022-.218.02-.219.019-.219.017-.219.016-.22.015-.221.013-.22.012-.221.01-.222.009-.221.008-.222.006-.223.005-.222.004-.223.002-.22.001H335.044l-.221-.001-.222-.002-.223-.004-.222-.005-.222-.006-.222-.008-.221-.009-.221-.01-.221-.012-.22-.013-.219-.015-.22-.016-.219-.017-.219-.019-.218-.02-.218-.022-.218-.022-.217-.025-.217-.025-.216-.027-.216-.028-.215-.029-.216-.031-.215-.032-.214-.034-.213-.034-.214-.036-.213-.038-.213-.038-.212-.04-.211-.042-.212-.042-.21-.044-.21-.045-.21-.046-.21-.048-.209-.049-.208-.05-.208-.051-.207-.053-.207-.054-.206-.055-.206-.056-.206-.058-.204-.059-.205-.06-.203-.061-.204-.063-.203-.064-.202-.064-.201-.067-.201-.067-.201-.068-.2-.07-.199-.071-.199-.072-.198-.073-.198-.075-.197-.075-.197-.077-.196-.078-.195-.079-.195-.081-.194-.081-.194-.083-.193-.083-.192-.085-.192-.086-.191-.087-.19-.088-.19-.09-.189-.09-.189-.092-.188-.092-.187-.094-.187-.095-.186-.096-.185-.097-.185-.098-.184-.099-.183-.1-.183-.102-.182-.102-.181-.104-.18-.104-.18-.106-.18-.107-.178-.107-.178-.109-.177-.11-.176-.11-.176-.112-.175-.113-.174-.114-.173-.115-.173-.116-.172-.117-.171-.118-.171-.119-.169-.119-.169-.121-.168-.122-.168-.123-.167-.124-.166-.125-.165-.126-.164-.126-.164-.128-.162-.129-.162-.129-.161-.131-.161-.131-.159-.133-.159-.133-.158-.135-.157-.135-.156-.136-.156-.137-.155-.138-.153-.139-.153-.14-.152-.141-.152-.141-.15-.143-.15-.143-.148-.145-.148-.145-.147-.146-.146-.147-.146-.148-.144-.148-.143-.15-.143-.15-.141-.152-.141-.152-.14-.153-.139-.153-.138-.155-.137-.156-.136-.156-.136-.157-.134-.158-.133-.159-.133-.159-.131-.16-.131-.162-.13-.162-.128-.162-.128-.164-.127-.164-.126-.165-.125-.166-.123-.167-.123-.167-.122-.169-.121-.168-.12-.17-.119-.171-.118-.171-.117-.172-.116-.173-.115-.173-.114-.174-.112-.175-.112-.176-.111-.176-.11-.177-.109-.178-.107-.179-.107-.179-.106-.18-.104-.18-.104-.181-.102-.183-.102-.182-.1-.183-.099-.184-.098-.185-.097-.185-.096-.186-.095-.187-.094-.187-.093-.188-.091-.189-.091-.189-.089-.19-.088-.191-.087-.191-.086-.191-.085-.193-.084-.193-.082-.193-.082-.195-.08-.194-.079-.196-.078-.196-.077-.196-.076-.198-.074-.197-.073-.199-.073-.199-.07-.199-.07-.2-.069-.201-.067-.201-.066-.201-.065-.203-.064-.202-.063-.204-.061-.204-.06-.204-.059-.205-.057-.205-.057-.206-.055-.207-.054-.206-.053-.208-.051-.208-.05-.208-.049-.209-.048-.21-.046-.209-.045-.211-.044-.211-.042-.211-.042-.212-.04-.212-.038-.212-.038-.213-.036-.214-.034-.214-.034-.214-.032-.215-.031-.215-.029-.216-.028-.216-.027-.216-.026-.217-.024-.218-.023-.217-.021-.218-.02-.219-.019-.218-.017-.22-.016-.219-.015-.22-.013-.22-.012-.221-.01-.221-.01-.221-.007-.222-.007-.222-.005-.223-.003-.222-.002-.223-.001-.22V387.52l.001-.22.002-.223.003-.223.005-.222.007-.222.007-.222.009-.221.011-.221.012-.221.013-.22.015-.22.016-.219.017-.219.019-.219.02-.218.021-.218.023-.218.024-.217.026-.217.026-.216.029-.216.029-.216.031-.215.032-.215.033-.214.035-.214.036-.213.037-.214.039-.212.04-.212.041-.212.043-.211.044-.211.045-.21.046-.21.048-.209.048-.209.051-.208.051-.208.053-.208.053-.206.056-.207.056-.206.058-.205.058-.205.06-.204.062-.204.062-.203.064-.203.065-.202.066-.202.067-.201.069-.201.07-.2.071-.199.072-.199.073-.198.074-.198.076-.197.077-.197.078-.195.079-.196.08-.195.081-.194.083-.194.084-.192.084-.193.086-.192.087-.191.089-.19.089-.19.09-.189.092-.189.093-.188.093-.187.095-.187.096-.186.097-.185.098-.185.099-.184.101-.183.101-.183.102-.182.104-.181.104-.181.106-.179.107-.18.107-.178.109-.178.11-.177.111-.176.111-.176.113-.175.114-.174.115-.174.116-.172.117-.172.118-.171.119-.171.119-.17.121-.169.122-.168.123-.167.124-.167.125-.166.125-.165.127-.164.128-.164.129-.163.129-.162.131-.161.131-.16.133-.16.133-.159.134-.158.136-.157.136-.156.137-.155.138-.155.139-.154.14-.153.14-.152.142-.151.143-.151.143-.149.144-.149.145-.148.147-.147.147-.146.147-.145.149-.144.149-.144.151-.142.151-.142.152-.141.153-.14.154-.139.155-.138.155-.137.156-.136.157-.135.158-.135.159-.133.16-.133.16-.131.161-.131.162-.129.163-.129.163-.128.165-.127.165-.126.166-.124.166-.124.168-.123.168-.122.169-.121.169-.12.171-.119.171-.118.172-.117.173-.116.173-.115.174-.114.175-.112.176-.112.176-.111.177-.11.178-.109.179-.107.179-.107.18-.106.18-.104.182-.104.182-.102.182-.102.184-.1.184-.099.184-.098.185-.097.187-.096.186-.095.187-.094.188-.093.189-.091.189-.091.19-.089.191-.088.191-.088.191-.085.193-.085.193-.084.193-.083.195-.081.194-.08.196-.08.196-.077.196-.077.197-.076.198-.074.199-.074.198-.072.2-.071.2-.07.2-.068.202-.067.201-.067.202-.065.203-.063.203-.063.204-.061.205-.06.205-.059.205-.058.206-.056.206-.055.207-.054.207-.053.208-.051.209-.05.209-.049.209-.048.21-.046.21-.045.211-.044.211-.043.212-.041.212-.04.213-.039.213-.037.213-.036.214-.035.215-.033.214-.032.216-.031.215-.03.216-.028.217-.027.217-.025.217-.024.218-.023.218-.021.218-.021.219-.018.219-.018.22-.016.22-.014.22-.014.22-.011.221-.011.222-.009.221-.008.223-.006.222-.005.222-.004.223-.002h283.726l22.295-24.507 22.295 24.507zm-42.822 4H334.849l-.198.002-.197.003-.197.005-.197.005-.196.007-.196.008-.196.009-.195.011-.196.012-.194.013-.195.014-.194.015-.193.017-.193.018-.193.019-.193.02-.192.021-.192.023-.191.023-.192.025-.19.026-.19.027-.19.029-.19.029-.189.031-.189.032-.188.033-.188.034-.187.036-.187.036-.187.038-.186.038-.186.04-.186.041-.185.042-.184.043-.184.045-.184.045-.183.047-.183.047-.183.049-.181.05-.182.051-.181.052-.18.053-.18.054-.18.055-.179.057-.179.057-.178.058-.178.06-.177.06-.176.062-.177.063-.175.063-.176.065-.174.066-.174.067-.174.068-.173.069-.173.07-.172.07-.171.072-.172.073-.17.074-.17.075-.169.076-.169.077-.169.078-.168.079-.167.08-.166.081-.166.082-.166.083-.165.084-.164.085-.164.085-.163.087-.163.088-.162.089-.162.089-.16.091-.161.091-.159.093-.159.093-.159.094-.158.096-.157.096-.156.097-.156.098-.156.099-.154.1-.154.1-.154.102-.152.103-.152.103-.152.104-.151.106-.15.106-.149.107-.149.107-.148.109-.148.11-.146.11-.146.112-.146.112-.144.113-.144.114-.144.114-.142.116-.142.116-.141.117-.141.119-.139.118-.139.12-.139.121-.137.121-.137.122-.136.123-.136.124-.134.124-.134.126-.133.126-.132.127-.132.128-.131.128-.13.129-.129.13-.128.131-.128.132-.127.132-.126.133-.125.134-.125.135-.124.135-.123.136-.122.137-.121.138-.121.138-.119.139-.119.14-.118.14-.117.141-.117.142-.115.143-.115.143-.114.144-.113.145-.112.145-.111.146-.11.147-.11.147-.109.149-.107.148-.107.15-.107.15-.105.151-.104.151-.103.152-.103.153-.101.154-.101.154-.1.154-.099.156-.098.156-.097.156-.096.157-.095.158-.094.159-.094.159-.092.159-.092.161-.09.161-.09.161-.088.162-.088.163-.087.163-.086.164-.084.164-.084.165-.083.166-.082.166-.081.166-.08.168-.079.167-.078.169-.077.169-.076.169-.074.17-.074.171-.073.171-.072.171-.071.172-.07.173-.069.173-.068.174-.067.174-.065.175-.065.175-.064.176-.062.176-.062.176-.06.178-.06.177-.058.178-.058.179-.056.179-.055.18-.054.18-.053.18-.052.181-.051.182-.05.181-.049.183-.047.183-.047.183-.045.183-.045.185-.043.184-.042.185-.041.185-.04.186-.038.187-.038.186-.036.187-.036.188-.034.188-.033.188-.032.188-.03.19-.03.189-.028.19-.027.19-.027.191-.024.191-.024.191-.023.192-.021.192-.02.193-.019.192-.018.194-.016.193-.016.194-.014.195-.013.194-.012.195-.01.195-.009.196-.008.196-.007.196-.006.197-.004.197-.003.197-.002.198-.001.201v96.251l.001.202.002.197.003.198.004.197.006.196.007.197.008.196.009.195.01.196.012.195.013.195.014.194.016.194.016.194.018.193.019.193.02.192.021.193.023.191.024.192.025.191.026.191.027.19.028.19.03.189.031.19.031.188.033.189.035.188.035.187.036.187.038.187.039.186.04.186.04.185.043.185.043.185.044.184.046.184.046.183.048.183.048.182.05.182.051.182.052.181.053.18.054.18.056.18.056.179.057.179.059.178.059.177.061.178.061.176.063.176.064.176.065.175.065.175.067.174.068.174.069.173.07.173.071.172.072.172.073.171.074.17.075.17.076.17.077.168.077.169.079.168.08.167.081.167.082.166.083.165.084.165.085.165.086.163.086.164.088.162.089.162.089.162.091.161.091.16.093.16.093.159.095.158.095.158.096.157.097.157.098.156.099.155.1.155.101.154.101.153.103.153.103.152.104.151.106.151.106.15.107.15.107.149.109.148.11.147.11.147.111.146.113.145.113.145.114.144.114.143.116.143.116.142.118.141.118.141.118.139.12.139.121.139.121.137.122.137.123.136.124.135.124.135.126.134.126.133.127.132.127.132.129.13.129.131.13.129.131.128.132.128.132.127.133.126.134.125.134.125.136.124.136.123.137.122.137.121.139.12.139.12.139.119.141.118.141.117.142.117.142.115.144.115.144.114.144.113.146.112.146.111.147.111.147.109.148.109.149.108.149.107.151.106.15.105.152.104.152.104.153.102.153.102.154.1.155.1.155.099.156.098.157.097.157.096.158.095.158.095.159.093.16.092.16.092.161.09.161.09.162.089.163.088.163.086.164.086.164.085.165.084.166.082.166.082.167.081.167.08.168.079.168.078.169.077.169.076.17.075.171.074.171.073.171.072.172.071.173.07.173.069.174.067.174.067.175.066.175.065.176.063.176.063.176.061.177.061.178.06.178.058.179.057.179.057.179.055.181.054.18.053.181.052.182.051.181.05.183.048.182.048.183.047.184.045.184.044.185.043.185.043.185.04.186.04.186.039.187.038.187.036.187.035.188.034.188.033.189.032.189.031.19.03.19.028.19.027.19.026.191.025.192.024.191.022.192.022.193.02.193.019.193.018.193.016.195.015.194.015.194.013.195.011.196.011.195.009.196.008.196.007.197.006.197.004.197.003.198.002.201.001h609.9l.201-.001.198-.002.197-.003.197-.004.197-.006.196-.007.196-.008.196-.009.196-.011.194-.011.195-.013.195-.015.194-.015.193-.017.193-.017.193-.019.193-.02.192-.022.192-.022.191-.024.191-.025.191-.026.19-.027.19-.029.19-.029.189-.031.189-.032.188-.033.188-.034.188-.035.186-.037.187-.037.186-.039.186-.04.186-.041.185-.042.184-.043.184-.044.184-.046.183-.046.183-.048.183-.049.181-.05.182-.051.181-.052.18-.053.18-.054.18-.055.179-.056.179-.058.178-.058.177-.06.178-.06.176-.062.177-.062.175-.064.176-.065.174-.066.174-.067.174-.067.173-.069.173-.07.172-.071.171-.072.171-.073.171-.074.17-.075.169-.076.169-.077.169-.078.167-.079.168-.08.167-.081.165-.082.166-.083.165-.083.164-.085.164-.086.163-.087.163-.088.162-.088.161-.09.161-.09.161-.092.159-.092.159-.094.159-.094.158-.095.157-.097.156-.097.156-.098.155-.098.155-.1.154-.101.154-.102.153-.102.151-.104.152-.104.151-.105.15-.106.149-.107.149-.108.148-.109.147-.109.147-.111.146-.111.146-.112.145-.114.144-.113.143-.115.142-.115.142-.117.141-.117.14-.118.14-.119.139-.12.139-.12.137-.122.137-.122.136-.123.135-.123.135-.125.134-.126.133-.126.132-.127.132-.127.13-.129.131-.129.129-.13.128-.131.128-.131.127-.133.126-.133.125-.134.125-.134.124-.136.123-.136.122-.137.121-.137.12-.138.12-.14.119-.139.118-.141.117-.141.117-.142.115-.142.115-.144.114-.144.112-.144.113-.146.111-.146.11-.147.11-.147.109-.149.107-.148.107-.149.107-.151.105-.151.104-.151.103-.152.103-.153.101-.153.101-.154.1-.155.099-.156.098-.155.097-.157.096-.157.095-.158.094-.158.094-.16.092-.159.092-.16.09-.161.09-.162.088-.162.088-.163.087-.163.086-.163.084-.165.084-.165.083-.165.082-.166.081-.167.08-.168.079-.167.078-.169.077-.168.075-.169.075-.171.074-.17.073-.171.072-.172.071-.172.07-.173.069-.173.068-.173.067-.175.065-.175.065-.175.064-.175.062-.177.062-.177.061-.176.059-.178.058-.178.058-.179.056-.179.055-.18.054-.179.053-.181.052-.181.051-.181.05-.182.049-.182.047-.183.047-.184.045-.183.045-.184.043-.185.042-.185.041-.185.04-.186.038-.186.038-.187.036-.187.036-.188.034-.187.033-.189.032-.188.03-.189.03-.19.028-.19.028-.19.026-.19.024-.192.024-.191.023-.192.021-.192.02-.193.019-.192.018-.193.016-.194.016-.194.014-.194.013-.195.012-.195.01-.195.009-.196.009-.196.006-.196.006-.196.004-.197.003-.198.002-.197.001-.201v-96.252l-.001-.201-.002-.198-.003-.198-.004-.197-.006-.196-.006-.196-.009-.197-.009-.195-.01-.195-.012-.196-.013-.194-.014-.195-.016-.194-.016-.193-.018-.194-.019-.192-.02-.193-.021-.193-.023-.191-.024-.191-.025-.192-.026-.191-.027-.19-.028-.189-.03-.19-.031-.19-.031-.188-.033-.188-.035-.188-.035-.188-.036-.187-.038-.187-.039-.186-.039-.186-.041-.185-.043-.185-.043-.185-.044-.184-.045-.183-.047-.184-.048-.183-.048-.182-.05-.182-.051-.181-.052-.181-.053-.181-.054-.18-.055-.179-.057-.18-.057-.178-.059-.178-.059-.178-.061-.178-.061-.176-.063-.176-.064-.176-.065-.175-.065-.175-.067-.174-.068-.174-.069-.173-.07-.173-.071-.172-.072-.171-.073-.171-.074-.171-.075-.17-.075-.169-.078-.169-.078-.169-.078-.167-.08-.167-.081-.167-.082-.167-.083-.165-.084-.165-.085-.164-.086-.164-.087-.164-.087-.162-.089-.162-.089-.162-.091-.161-.091-.16-.093-.159-.093-.159-.095-.159-.095-.158-.096-.157-.097-.156-.098-.156-.099-.156-.1-.154-.101-.155-.101-.153-.103-.153-.103-.152-.104-.151-.106-.151-.106-.15-.107-.15-.108-.148-.108-.149-.11-.147-.11-.147-.112-.146-.112-.145-.113-.145-.114-.144-.114-.143-.116-.143-.116-.142-.117-.141-.118-.14-.119-.14-.12-.139-.121-.138-.121-.138-.122-.137-.123-.136-.124-.135-.124-.135-.126-.133-.126-.134-.127-.132-.127-.132-.129-.13-.129-.13-.13-.13-.131-.128-.132-.128-.132-.127-.133-.126-.134-.125-.134-.125-.136-.123-.136-.123-.137-.123-.137-.121-.138-.12-.14-.12-.139-.119-.141-.118-.141-.117-.142-.117-.142-.115-.144-.115-.144-.113-.144-.113-.146-.113-.146-.111-.147-.11-.147-.11-.148-.108-.149-.108-.15-.107-.149-.106-.151-.106-.152-.104-.152-.103-.153-.103-.153-.101-.154-.101-.155-.1-.155-.099-.156-.098-.157-.097-.157-.096-.158-.095-.158-.094-.159-.094-.16-.092-.16-.092-.161-.09-.161-.09-.162-.089-.163-.087-.163-.087-.164-.086-.164-.084-.165-.084-.166-.083-.166-.082-.167-.081-.167-.08-.168-.079-.168-.078-.169-.077-.169-.076-.17-.075-.171-.074-.171-.073-.171-.072-.172-.07-.173-.07-.173-.069-.174-.068-.174-.067-.175-.066-.175-.064-.175-.064-.177-.063-.176-.061-.178-.061-.177-.059-.178-.059-.179-.057-.179-.056-.18-.056-.18-.054-.18-.053-.181-.052-.181-.051-.182-.049-.182-.049-.183-.048-.183-.046-.184-.046-.184-.044-.185-.043-.185-.042-.185-.041-.186-.04-.186-.039-.187-.037-.187-.037-.187-.035-.188-.034-.188-.033-.189-.032-.189-.031-.19-.029-.189-.029-.191-.027-.19-.026-.191-.025-.192-.024-.191-.022-.192-.021-.193-.021-.193-.019-.193-.017-.194-.017-.193-.015-.195-.014-.194-.013-.195-.012-.196-.011-.195-.009-.196-.008-.196-.007-.197-.005-.197-.005-.197-.003-.198-.002H661.37L640.844 334.4l-20.527 22.563z"/><path fill="#fff" fill-rule="nonzero" d="M400.81 401.2h6.81v66.96h-6.81zm29.981 22.702c.126 1.198.221 2.522.284 3.972.063 1.45.095 2.648.095 3.594h.189c1.261-2.585 3.31-4.682 6.147-6.289 2.838-1.608 5.833-2.412 8.985-2.412 5.612 0 9.821 1.671 12.627 5.012 2.806 3.342 4.209 7.756 4.209 13.242v27.144h-6.432v-24.496c0-2.333-.189-4.445-.567-6.337-.379-1.892-1.025-3.515-1.939-4.871-.914-1.355-2.144-2.412-3.689-3.168-1.545-.757-3.483-1.135-5.816-1.135-1.703 0-3.358.347-4.966 1.04-1.608.694-3.042 1.75-4.303 3.169-1.261 1.418-2.27 3.215-3.027 5.391-.756 2.175-1.135 4.744-1.135 7.708v22.699h-6.431v-34.522c0-1.198-.031-2.742-.095-4.634a103.674 103.674 0 0 0-.283-5.107h6.147zm72.732 10.498c-.946-1.829-2.381-3.326-4.304-4.492-1.923-1.167-4.114-1.75-6.573-1.75-1.135 0-2.27.126-3.405.378-1.135.252-2.144.662-3.026 1.23a6.668 6.668 0 0 0-2.128 2.175c-.536.883-.804 1.923-.804 3.121 0 2.081.851 3.673 2.553 4.776 1.703 1.104 4.382 2.034 8.04 2.79 5.233 1.072 9.095 2.633 11.585 4.682 2.491 2.049 3.736 4.808 3.736 8.276 0 2.522-.488 4.65-1.466 6.384-.977 1.734-2.254 3.152-3.83 4.256-1.576 1.103-3.358 1.891-5.344 2.364-1.986.473-3.988.71-6.006.71-3.341 0-6.589-.694-9.741-2.081-3.153-1.387-5.738-3.563-7.756-6.526l5.108-3.783c1.135 1.954 2.805 3.594 5.012 4.918 2.207 1.324 4.635 1.986 7.283 1.986 1.387 0 2.711-.126 3.972-.378 1.261-.252 2.365-.694 3.31-1.324a7.223 7.223 0 0 0 2.27-2.412c.568-.977.852-2.191.852-3.641 0-2.333-1.12-4.083-3.358-5.25-2.238-1.166-5.47-2.254-9.694-3.263a58.192 58.192 0 0 1-4.209-1.182 14.453 14.453 0 0 1-4.114-2.08 11.315 11.315 0 0 1-3.121-3.453c-.82-1.387-1.23-3.121-1.23-5.201 0-2.27.441-4.209 1.324-5.817a11.61 11.61 0 0 1 3.547-3.972c1.482-1.041 3.168-1.813 5.06-2.318a22.674 22.674 0 0 1 5.864-.756c3.089 0 6.084.693 8.985 2.081 2.9 1.387 5.075 3.341 6.526 5.863l-4.918 3.689zm38.399-5.107h-12.485v25.82c0 1.639.158 2.995.473 4.067.315 1.072.772 1.907 1.371 2.506a4.684 4.684 0 0 0 2.129 1.23c.819.22 1.702.331 2.648.331.882 0 1.812-.127 2.79-.379a14.116 14.116 0 0 0 2.79-1.04l.284 5.58a19.11 19.11 0 0 1-3.547.993c-1.23.221-2.569.331-4.02.331-1.198 0-2.459-.157-3.783-.473-1.324-.315-2.553-.914-3.688-1.797-1.135-.882-2.065-2.08-2.791-3.594-.725-1.513-1.087-3.499-1.087-5.958v-27.617h-9.174v-5.391h9.174v-12.485h6.431v12.485h12.485v5.391zm10.025 4.35c0-1.198-.032-2.742-.095-4.634a103.674 103.674 0 0 0-.283-5.107h6.147c.126 1.198.221 2.522.284 3.972.063 1.45.095 2.648.095 3.594h.189c1.261-2.585 3.152-4.682 5.675-6.289 2.522-1.608 5.359-2.412 8.512-2.412.819 0 1.56.031 2.222.094.662.063 1.34.19 2.034.379l-.852 6.053c-.378-.126-1.008-.252-1.891-.379a18.726 18.726 0 0 0-2.648-.189 13.13 13.13 0 0 0-4.918.946c-1.577.631-2.948 1.624-4.115 2.979-1.166 1.356-2.112 3.09-2.837 5.202-.725 2.112-1.088 4.65-1.088 7.614v22.699h-6.431v-34.522zm66.205 34.522a65.308 65.308 0 0 1-.283-3.973 84.113 84.113 0 0 1-.095-3.594h-.189c-1.261 2.586-3.31 4.682-6.148 6.29-2.837 1.608-5.832 2.412-8.985 2.412-5.612 0-9.82-1.671-12.626-5.013-2.806-3.342-4.209-7.756-4.209-13.241v-27.144h6.431v24.496c0 2.333.19 4.445.568 6.336.378 1.892 1.025 3.516 1.939 4.871.914 1.356 2.144 2.412 3.688 3.169 1.545.756 3.484 1.135 5.817 1.135 1.702 0 3.358-.347 4.965-1.041 1.608-.693 3.043-1.749 4.304-3.168 1.261-1.419 2.27-3.216 3.026-5.391.757-2.175 1.135-4.745 1.135-7.708v-22.699h6.432v34.521c0 1.198.031 2.743.094 4.634.063 1.892.158 3.594.284 5.108h-6.148zm54.667-34.143c-1.072-1.703-2.633-3.106-4.682-4.209-2.049-1.103-4.272-1.655-6.668-1.655-2.585 0-4.918.457-6.998 1.371-2.081.914-3.862 2.176-5.344 3.783-1.482 1.608-2.617 3.5-3.405 5.675-.788 2.175-1.182 4.524-1.182 7.046 0 2.522.394 4.855 1.182 6.999.788 2.144 1.907 4.02 3.358 5.628 1.45 1.607 3.215 2.868 5.296 3.783 2.081.914 4.414 1.371 6.999 1.371 2.837 0 5.233-.536 7.188-1.608 1.954-1.072 3.562-2.459 4.823-4.161l4.824 3.594c-1.892 2.333-4.209 4.193-6.952 5.58-2.742 1.387-6.037 2.081-9.883 2.081-3.594 0-6.841-.584-9.742-1.75-2.9-1.167-5.375-2.79-7.424-4.871-2.049-2.081-3.642-4.54-4.776-7.377-1.135-2.837-1.703-5.927-1.703-9.269 0-3.342.568-6.431 1.703-9.269 1.134-2.837 2.727-5.296 4.776-7.377 2.049-2.08 4.524-3.704 7.424-4.87 2.901-1.167 6.148-1.75 9.742-1.75 2.963 0 5.974.646 9.032 1.939 3.058 1.292 5.533 3.2 7.425 5.722l-5.013 3.594zm35.372-4.729h-12.484v25.82c0 1.639.158 2.995.473 4.067.315 1.072.772 1.907 1.371 2.506a4.686 4.686 0 0 0 2.128 1.23c.82.22 1.703.331 2.649.331.882 0 1.812-.127 2.79-.379a14.116 14.116 0 0 0 2.79-1.04l.283 5.58a19.1 19.1 0 0 1-3.546.993c-1.23.221-2.57.331-4.02.331-1.198 0-2.459-.157-3.783-.473-1.324-.315-2.554-.914-3.689-1.797-1.135-.882-2.065-2.08-2.79-3.594-.725-1.513-1.087-3.499-1.087-5.958v-27.617h-9.175v-5.391h9.175v-12.485h6.431v12.485h12.484v5.391zm16.552 38.872h-6.432v-44.263h6.432v44.263zm1.324-61.287c0 1.324-.473 2.411-1.419 3.263-.946.851-1.986 1.276-3.121 1.276s-2.175-.425-3.121-1.276c-.946-.852-1.419-1.939-1.419-3.263 0-1.325.473-2.412 1.419-3.263.946-.852 1.986-1.277 3.121-1.277s2.175.425 3.121 1.277c.946.851 1.419 1.938 1.419 3.263zm59.774 39.155c0 3.342-.583 6.432-1.75 9.269-1.166 2.837-2.79 5.296-4.871 7.377-2.081 2.081-4.571 3.704-7.472 4.871-2.9 1.166-6.084 1.75-9.552 1.75-3.405 0-6.557-.584-9.458-1.75-2.9-1.167-5.391-2.79-7.472-4.871-2.08-2.081-3.704-4.54-4.87-7.377-1.167-2.837-1.75-5.927-1.75-9.269 0-3.342.583-6.431 1.75-9.269 1.166-2.837 2.79-5.296 4.87-7.377 2.081-2.08 4.572-3.704 7.472-4.87 2.901-1.167 6.053-1.75 9.458-1.75 3.468 0 6.652.583 9.552 1.75 2.901 1.166 5.391 2.79 7.472 4.87 2.081 2.081 3.705 4.54 4.871 7.377 1.167 2.838 1.75 5.927 1.75 9.269zm-6.81 0c0-2.459-.394-4.776-1.182-6.951-.788-2.176-1.908-4.067-3.358-5.675-1.45-1.608-3.215-2.885-5.296-3.831-2.081-.945-4.414-1.418-6.999-1.418s-4.902.473-6.952 1.418c-2.049.946-3.798 2.223-5.249 3.831-1.45 1.608-2.569 3.499-3.357 5.675-.788 2.175-1.182 4.492-1.182 6.951 0 2.459.394 4.776 1.182 6.952.788 2.175 1.907 4.067 3.357 5.675 1.451 1.607 3.2 2.868 5.249 3.783 2.05.914 4.367 1.371 6.952 1.371s4.918-.457 6.999-1.371c2.081-.915 3.846-2.176 5.296-3.783 1.45-1.608 2.57-3.5 3.358-5.675.788-2.176 1.182-4.493 1.182-6.952zm26.388-22.131a65.33 65.33 0 0 1 .283 3.972c.063 1.45.095 2.648.095 3.594h.189c1.261-2.585 3.31-4.682 6.148-6.289 2.837-1.608 5.832-2.412 8.985-2.412 5.611 0 9.82 1.671 12.626 5.012 2.806 3.342 4.209 7.756 4.209 13.242v27.144h-6.432v-24.496c0-2.333-.189-4.445-.567-6.337-.378-1.892-1.025-3.515-1.939-4.871-.914-1.355-2.144-2.412-3.689-3.168-1.544-.757-3.483-1.135-5.816-1.135-1.703 0-3.358.347-4.966 1.04-1.607.694-3.042 1.75-4.303 3.169-1.261 1.418-2.27 3.215-3.026 5.391-.757 2.175-1.135 4.744-1.135 7.708v22.699h-6.432v-34.522c0-1.198-.031-2.742-.094-4.634a103.586 103.586 0 0 0-.284-5.107h6.148zM878.15 434.4c-.946-1.829-2.38-3.326-4.304-4.492-1.923-1.167-4.114-1.75-6.573-1.75-1.135 0-2.27.126-3.405.378-1.135.252-2.143.662-3.026 1.23a6.668 6.668 0 0 0-2.128 2.175c-.536.883-.804 1.923-.804 3.121 0 2.081.851 3.673 2.554 4.776 1.702 1.104 4.382 2.034 8.039 2.79 5.233 1.072 9.095 2.633 11.586 4.682 2.49 2.049 3.736 4.808 3.736 8.276 0 2.522-.489 4.65-1.466 6.384-.978 1.734-2.255 3.152-3.831 4.256-1.576 1.103-3.357 1.891-5.344 2.364-1.986.473-3.988.71-6.005.71-3.342 0-6.589-.694-9.742-2.081-3.153-1.387-5.738-3.563-7.755-6.526l5.107-3.783c1.135 1.954 2.806 3.594 5.012 4.918 2.207 1.324 4.635 1.986 7.283 1.986 1.387 0 2.711-.126 3.972-.378 1.261-.252 2.365-.694 3.311-1.324a7.243 7.243 0 0 0 2.27-2.412c.567-.977.851-2.191.851-3.641 0-2.333-1.119-4.083-3.358-5.25-2.238-1.166-5.47-2.254-9.694-3.263a58.192 58.192 0 0 1-4.209-1.182 14.453 14.453 0 0 1-4.114-2.08 11.315 11.315 0 0 1-3.121-3.453c-.82-1.387-1.23-3.121-1.23-5.201 0-2.27.442-4.209 1.324-5.817a11.61 11.61 0 0 1 3.547-3.972c1.482-1.041 3.168-1.813 5.06-2.318a22.68 22.68 0 0 1 5.864-.756c3.09 0 6.085.693 8.985 2.081 2.9 1.387 5.076 3.341 6.526 5.863l-4.918 3.689z"/></svg>