<?xml version="1.0" standalone="no"?><!DOCTYPE svg PUBLIC "-//W3C//DTD SVG 1.1//EN" "http://www.w3.org/Graphics/SVG/1.1/DTD/svg11.dtd"><svg width="100%" height="100%" viewBox="0 0 1280 720" version="1.1" xmlns="http://www.w3.org/2000/svg" xmlns:xlink="http://www.w3.org/1999/xlink" xml:space="preserve" style="fill-rule:evenodd;clip-rule:evenodd;stroke-linejoin:round;stroke-miterlimit:1.41421;"><g id="Instructions"><rect id="Background" x="0" y="0" width="1280" height="720" style="fill:#7abf6a;"/><g id="Instructions-logo"><path d="M634.331,319.219l-0.22,-0.001l-0.219,-0.002l-0.218,-0.003l-0.219,-0.005l-0.218,-0.006l-0.218,-0.008l-0.217,-0.009l-0.217,-0.01l-0.217,-0.012l-0.217,-0.012l-0.216,-0.015l-0.215,-0.015l-0.216,-0.017l-0.215,-0.019l-0.214,-0.02l-0.215,-0.02l-0.214,-0.023l-0.213,-0.023l-0.213,-0.025l-0.213,-0.027l-0.212,-0.027l-0.212,-0.029l-0.211,-0.03l-0.211,-0.032l-0.211,-0.032l-0.21,-0.034l-0.21,-0.036l-0.21,-0.036l-0.208,-0.038l-0.209,-0.039l-0.208,-0.041l-0.207,-0.041l-0.208,-0.043l-0.206,-0.044l-0.207,-0.046l-0.205,-0.046l-0.206,-0.048l-0.204,-0.049l-0.205,-0.051l-0.204,-0.051l-0.203,-0.053l-0.203,-0.054l-0.202,-0.055l-0.202,-0.057l-0.201,-0.057l-0.201,-0.059l-0.2,-0.06l-0.2,-0.061l-0.2,-0.063l-0.198,-0.063l-0.198,-0.065l-0.198,-0.066l-0.197,-0.067l-0.197,-0.069l-0.196,-0.069l-0.195,-0.071l-0.195,-0.071l-0.195,-0.073l-0.193,-0.074l-0.194,-0.076l-0.192,-0.076l-0.192,-0.077l-0.192,-0.079l-0.191,-0.08l-0.19,-0.081l-0.189,-0.082l-0.189,-0.083l-0.189,-0.084l-0.188,-0.085l-0.187,-0.087l-0.187,-0.087l-0.186,-0.089l-0.185,-0.089l-0.185,-0.091l-0.184,-0.092l-0.183,-0.093l-0.183,-0.094l-0.183,-0.095l-0.181,-0.096l-0.181,-0.097l-0.18,-0.098l-0.18,-0.1l-0.178,-0.1l-0.179,-0.101l-0.177,-0.103l-0.177,-0.103l-0.176,-0.104l-0.176,-0.106l-0.174,-0.107l-0.174,-0.107l-0.174,-0.108l-0.172,-0.11l-0.172,-0.111l-0.172,-0.111l-0.17,-0.113l-0.17,-0.113l-0.169,-0.115l-0.168,-0.115l-0.168,-0.117l-0.167,-0.117l-0.166,-0.118l-0.165,-0.12l-0.165,-0.12l-0.164,-0.121l-0.163,-0.123l-0.162,-0.123l-0.162,-0.124l-0.16,-0.125l-0.16,-0.126l-0.16,-0.127l-0.158,-0.128l-0.158,-0.129l-0.157,-0.13l-0.156,-0.13l-0.155,-0.132l-0.155,-0.133l-0.153,-0.133l-0.153,-0.134l-0.152,-0.135l-0.151,-0.137l-0.151,-0.136l-0.149,-0.138l-0.149,-0.139l-0.148,-0.14l-0.147,-0.14l-0.146,-0.141l-0.145,-0.143l-0.145,-0.143l-0.143,-0.144l-0.143,-0.144l-0.142,-0.146l-0.141,-0.147l-0.14,-0.147l-0.14,-0.148l-0.138,-0.149l-0.137,-0.15l-0.137,-0.15l-0.136,-0.152l-0.135,-0.152l-0.134,-0.153l-0.133,-0.154l-0.132,-0.155l-0.131,-0.155l-0.13,-0.157l-0.13,-0.157l-0.128,-0.157l-0.127,-0.159l-0.127,-0.16l-0.126,-0.16l-0.124,-0.161l-0.124,-0.161l-0.123,-0.163l-0.122,-0.163l-0.12,-0.164l-0.12,-0.165l-0.119,-0.166l-0.118,-0.166l-0.117,-0.167l-0.116,-0.167l-0.115,-0.169l-0.114,-0.169l-0.113,-0.17l-0.112,-0.171l-0.111,-0.171l-0.11,-0.172l-0.109,-0.173l-0.108,-0.173l-0.107,-0.174l-0.106,-0.175l-0.105,-0.176l-0.103,-0.176l-0.103,-0.177l-0.102,-0.177l-0.101,-0.179l-0.1,-0.179l-0.098,-0.179l-0.098,-0.18l-0.096,-0.181l-0.096,-0.182l-0.094,-0.182l-0.093,-0.183l-0.093,-0.183l-0.091,-0.184l-0.09,-0.185l-0.089,-0.185l-0.088,-0.186l-0.086,-0.187l-0.086,-0.187l-0.085,-0.188l-0.083,-0.188l-0.082,-0.19l-0.082,-0.189l-0.08,-0.19l-0.079,-0.191l-0.078,-0.192l-0.076,-0.191l-0.076,-0.193l-0.074,-0.193l-0.073,-0.194l-0.072,-0.194l-0.071,-0.195l-0.07,-0.195l-0.069,-0.196l-0.067,-0.197l-0.066,-0.197l-0.065,-0.197l-0.064,-0.198l-0.063,-0.199l-0.062,-0.199l-0.06,-0.2l-0.059,-0.2l-0.058,-0.2l-0.056,-0.202l-0.056,-0.201l-0.054,-0.203l-0.053,-0.202l-0.052,-0.203l-0.051,-0.204l-0.049,-0.204l-0.048,-0.205l-0.047,-0.205l-0.045,-0.205l-0.045,-0.206l-0.043,-0.207l-0.042,-0.207l-0.04,-0.207l-0.04,-0.208l-0.038,-0.208l-0.036,-0.209l-0.036,-0.209l-0.034,-0.21l-0.033,-0.21l-0.031,-0.21l-0.031,-0.211l-0.029,-0.211l-0.027,-0.212l-0.027,-0.212l-0.025,-0.212l-0.024,-0.213l-0.022,-0.213l-0.021,-0.213l-0.02,-0.214l-0.018,-0.215l-0.017,-0.214l-0.016,-0.215l-0.014,-0.216l-0.014,-0.216l-0.011,-0.216l-0.011,-0.216l-0.008,-0.217l-0.008,-0.217l-0.006,-0.217l-0.005,-0.218l-0.004,-0.218l-0.002,-0.218l0,-0.219l0,-0.219l0.002,-0.219l0.004,-0.217l0.005,-0.218l0.006,-0.218l0.008,-0.217l0.008,-0.216l0.011,-0.217l0.011,-0.216l0.014,-0.216l0.014,-0.215l0.016,-0.215l0.017,-0.215l0.018,-0.214l0.02,-0.214l0.021,-0.214l0.022,-0.213l0.024,-0.213l0.025,-0.212l0.027,-0.212l0.027,-0.212l0.029,-0.211l0.031,-0.211l0.031,-0.21l0.033,-0.21l0.034,-0.21l0.036,-0.209l0.036,-0.208l0.038,-0.209l0.04,-0.207l0.04,-0.208l0.042,-0.207l0.043,-0.206l0.045,-0.206l0.045,-0.206l0.047,-0.205l0.048,-0.204l0.049,-0.205l0.051,-0.203l0.052,-0.203l0.053,-0.203l0.054,-0.202l0.056,-0.202l0.056,-0.201l0.058,-0.201l0.059,-0.2l0.06,-0.2l0.062,-0.199l0.063,-0.199l0.064,-0.198l0.065,-0.197l0.066,-0.197l0.067,-0.197l0.069,-0.195l0.07,-0.196l0.071,-0.195l0.072,-0.194l0.073,-0.194l0.074,-0.193l0.076,-0.192l0.076,-0.192l0.078,-0.192l0.079,-0.191l0.08,-0.19l0.082,-0.189l0.082,-0.189l0.083,-0.189l0.085,-0.187l0.086,-0.188l0.086,-0.186l0.088,-0.186l0.089,-0.186l0.09,-0.185l0.091,-0.184l0.093,-0.183l0.093,-0.183l0.094,-0.182l0.096,-0.182l0.096,-0.181l0.098,-0.18l0.098,-0.179l0.1,-0.179l0.101,-0.179l0.102,-0.177l0.102,-0.177l0.104,-0.176l0.105,-0.176l0.106,-0.175l0.107,-0.174l0.108,-0.173l0.109,-0.173l0.11,-0.172l0.111,-0.171l0.112,-0.171l0.113,-0.17l0.114,-0.169l0.115,-0.168l0.116,-0.168l0.117,-0.167l0.118,-0.166l0.119,-0.166l0.12,-0.165l0.12,-0.164l0.122,-0.163l0.123,-0.162l0.124,-0.162l0.124,-0.161l0.126,-0.16l0.127,-0.16l0.127,-0.158l0.128,-0.158l0.13,-0.157l0.13,-0.157l0.131,-0.155l0.132,-0.155l0.133,-0.154l0.134,-0.153l0.135,-0.152l0.136,-0.151l0.136,-0.151l0.138,-0.15l0.138,-0.149l0.14,-0.148l0.14,-0.147l0.141,-0.147l0.142,-0.145l0.143,-0.145l0.143,-0.144l0.145,-0.143l0.145,-0.142l0.146,-0.142l0.147,-0.14l0.148,-0.14l0.149,-0.139l0.149,-0.137l0.151,-0.137l0.151,-0.136l0.152,-0.136l0.153,-0.134l0.154,-0.133l0.154,-0.133l0.155,-0.131l0.156,-0.131l0.157,-0.13l0.158,-0.129l0.158,-0.128l0.159,-0.126l0.161,-0.127l0.16,-0.125l0.162,-0.124l0.162,-0.123l0.163,-0.122l0.164,-0.122l0.165,-0.12l0.165,-0.119l0.166,-0.119l0.167,-0.117l0.168,-0.117l0.168,-0.115l0.169,-0.115l0.17,-0.113l0.17,-0.113l0.172,-0.111l0.172,-0.111l0.172,-0.109l0.174,-0.109l0.174,-0.107l0.174,-0.107l0.176,-0.105l0.176,-0.105l0.177,-0.103l0.177,-0.103l0.179,-0.101l0.178,-0.1l0.18,-0.1l0.18,-0.098l0.181,-0.097l0.182,-0.096l0.182,-0.095l0.182,-0.094l0.184,-0.093l0.184,-0.092l0.185,-0.091l0.185,-0.089l0.186,-0.089l0.187,-0.087l0.187,-0.087l0.188,-0.085l0.188,-0.084l0.19,-0.083l0.189,-0.082l0.19,-0.081l0.191,-0.08l0.192,-0.078l0.192,-0.078l0.192,-0.076l0.194,-0.076l0.193,-0.074l0.195,-0.072l0.195,-0.072l0.195,-0.071l0.196,-0.069l0.197,-0.069l0.197,-0.067l0.198,-0.066l0.198,-0.064l0.198,-0.064l0.2,-0.062l0.2,-0.062l0.2,-0.06l0.201,-0.059l0.201,-0.057l0.202,-0.057l0.202,-0.055l0.203,-0.054l0.203,-0.053l0.204,-0.051l0.205,-0.051l0.204,-0.049l0.206,-0.048l0.205,-0.046l0.207,-0.046l0.206,-0.044l0.208,-0.043l0.207,-0.041l0.208,-0.041l0.209,-0.039l0.208,-0.038l0.21,-0.036l0.21,-0.035l0.21,-0.034l0.21,-0.033l0.212,-0.032l0.211,-0.03l0.212,-0.029l0.212,-0.027l0.213,-0.027l0.213,-0.024l0.213,-0.024l0.214,-0.022l0.215,-0.021l0.214,-0.02l0.215,-0.018l0.216,-0.017l0.215,-0.016l0.216,-0.014l0.217,-0.013l0.216,-0.012l0.218,-0.01l0.217,-0.009l0.218,-0.008l0.218,-0.006l0.219,-0.005l0.218,-0.003l0.219,-0.002l0.22,-0.001l0.219,0.001l0.219,0.002l0.219,0.003l0.219,0.005l0.218,0.006l0.217,0.008l0.218,0.009l0.217,0.01l0.217,0.012l0.216,0.013l0.216,0.014l0.216,0.016l0.215,0.017l0.215,0.018l0.215,0.02l0.214,0.021l0.214,0.022l0.214,0.024l0.213,0.024l0.212,0.027l0.213,0.027l0.212,0.029l0.211,0.03l0.211,0.032l0.211,0.033l0.21,0.034l0.21,0.035l0.209,0.036l0.209,0.038l0.209,0.039l0.208,0.041l0.207,0.041l0.207,0.043l0.207,0.044l0.206,0.046l0.206,0.046l0.205,0.048l0.205,0.049l0.204,0.051l0.204,0.051l0.204,0.053l0.203,0.054l0.202,0.055l0.202,0.057l0.201,0.057l0.201,0.059l0.2,0.06l0.2,0.062l0.199,0.062l0.199,0.064l0.198,0.064l0.198,0.066l0.197,0.067l0.197,0.069l0.196,0.069l0.195,0.071l0.195,0.072l0.194,0.072l0.194,0.074l0.193,0.076l0.193,0.076l0.192,0.078l0.191,0.078l0.191,0.08l0.191,0.081l0.189,0.082l0.189,0.083l0.189,0.084l0.188,0.085l0.187,0.087l0.186,0.087l0.187,0.089l0.185,0.089l0.185,0.091l0.184,0.092l0.183,0.093l0.183,0.094l0.182,0.095l0.182,0.096l0.181,0.097l0.18,0.098l0.179,0.1l0.179,0.1l0.178,0.101l0.178,0.103l0.177,0.103l0.176,0.105l0.175,0.105l0.175,0.107l0.174,0.107l0.174,0.109l0.172,0.109l0.172,0.111l0.171,0.111l0.171,0.113l0.17,0.113l0.169,0.115l0.168,0.115l0.168,0.117l0.166,0.117l0.167,0.119l0.165,0.119l0.165,0.12l0.163,0.122l0.163,0.122l0.163,0.123l0.161,0.124l0.161,0.125l0.16,0.127l0.16,0.126l0.158,0.128l0.158,0.129l0.157,0.13l0.156,0.131l0.155,0.131l0.154,0.133l0.154,0.133l0.153,0.134l0.152,0.136l0.151,0.136l0.15,0.137l0.15,0.137l0.149,0.139l0.148,0.14l0.147,0.14l0.146,0.142l0.145,0.142l0.145,0.143l0.143,0.144l0.143,0.145l0.142,0.145l0.141,0.147l0.14,0.147l0.139,0.148l0.139,0.149l0.137,0.15l0.137,0.151l0.136,0.151l0.134,0.152l0.134,0.153l0.133,0.154l0.133,0.155l0.131,0.156l0.13,0.156l0.129,0.157l0.129,0.158l0.127,0.158l0.127,0.16l0.125,0.16l0.125,0.161l0.124,0.162l0.122,0.162l0.122,0.163l0.121,0.165l0.12,0.164l0.119,0.166l0.118,0.166l0.117,0.167l0.116,0.168l0.115,0.168l0.114,0.169l0.113,0.17l0.112,0.171l0.111,0.171l0.11,0.172l0.109,0.173l0.108,0.173l0.107,0.174l0.105,0.175l0.105,0.176l0.104,0.176l0.103,0.177l0.102,0.178l0.101,0.178l0.099,0.179l0.099,0.179l0.098,0.18l0.096,0.181l0.096,0.182l0.094,0.182l0.093,0.183l0.092,0.183l0.092,0.185l0.09,0.184l0.089,0.185l0.087,0.187l0.087,0.186l0.086,0.187l0.084,0.188l0.084,0.189l0.082,0.189l0.081,0.189l0.08,0.19l0.079,0.191l0.078,0.192l0.077,0.192l0.076,0.192l0.074,0.193l0.073,0.194l0.072,0.195l0.071,0.194l0.07,0.196l0.068,0.195l0.068,0.197l0.066,0.197l0.065,0.197l0.064,0.199l0.063,0.198l0.061,0.199l0.061,0.2l0.059,0.2l0.058,0.201l0.056,0.201l0.056,0.202l0.054,0.202l0.053,0.203l0.052,0.203l0.05,0.203l0.05,0.204l0.048,0.205l0.047,0.205l0.045,0.206l0.045,0.206l0.043,0.206l0.042,0.207l0.04,0.207l0.039,0.208l0.038,0.209l0.037,0.208l0.036,0.209l0.034,0.21l0.033,0.21l0.031,0.21l0.031,0.211l0.029,0.211l0.027,0.212l0.027,0.212l0.025,0.212l0.023,0.213l0.023,0.213l0.021,0.214l0.02,0.214l0.018,0.214l0.017,0.215l0.016,0.215l0.014,0.215l0.013,0.216l0.012,0.216l0.01,0.217l0.009,0.216l0.008,0.217l0.006,0.218l0.005,0.217l0.003,0.219l0.003,0.218l0,0.219l0,0.218l-0.003,0.219l-0.003,0.218l-0.005,0.218l-0.006,0.217l-0.008,0.217l-0.009,0.217l-0.01,0.216l-0.012,0.216l-0.013,0.216l-0.014,0.216l-0.016,0.215l-0.017,0.214l-0.018,0.215l-0.02,0.213l-0.021,0.214l-0.023,0.213l-0.023,0.213l-0.025,0.213l-0.027,0.211l-0.027,0.212l-0.029,0.211l-0.031,0.211l-0.031,0.21l-0.033,0.21l-0.034,0.21l-0.036,0.209l-0.037,0.209l-0.038,0.208l-0.039,0.208l-0.04,0.207l-0.042,0.207l-0.043,0.207l-0.045,0.206l-0.045,0.205l-0.047,0.205l-0.048,0.205l-0.05,0.204l-0.05,0.204l-0.052,0.203l-0.053,0.202l-0.054,0.203l-0.056,0.201l-0.056,0.201l-0.058,0.201l-0.059,0.2l-0.061,0.2l-0.061,0.199l-0.063,0.199l-0.064,0.198l-0.065,0.197l-0.066,0.197l-0.068,0.197l-0.068,0.196l-0.07,0.195l-0.071,0.195l-0.072,0.194l-0.073,0.194l-0.074,0.193l-0.076,0.193l-0.077,0.191l-0.078,0.192l-0.079,0.191l-0.08,0.19l-0.081,0.189l-0.082,0.189l-0.084,0.189l-0.084,0.188l-0.086,0.187l-0.087,0.187l-0.087,0.186l-0.089,0.185l-0.09,0.185l-0.092,0.184l-0.092,0.183l-0.093,0.183l-0.094,0.182l-0.096,0.182l-0.096,0.181l-0.098,0.18l-0.099,0.18l-0.099,0.179l-0.101,0.178l-0.102,0.177l-0.103,0.177l-0.104,0.176l-0.105,0.176l-0.105,0.175l-0.107,0.174l-0.108,0.173l-0.109,0.173l-0.11,0.172l-0.111,0.171l-0.112,0.171l-0.113,0.17l-0.114,0.169l-0.115,0.169l-0.116,0.167l-0.117,0.167l-0.118,0.166l-0.119,0.166l-0.12,0.165l-0.121,0.164l-0.122,0.163l-0.122,0.163l-0.124,0.161l-0.125,0.161l-0.125,0.161l-0.127,0.159l-0.127,0.159l-0.129,0.157l-0.129,0.157l-0.13,0.157l-0.131,0.155l-0.133,0.155l-0.133,0.154l-0.134,0.153l-0.134,0.152l-0.136,0.152l-0.137,0.15l-0.137,0.15l-0.139,0.149l-0.139,0.148l-0.14,0.147l-0.141,0.147l-0.142,0.146l-0.143,0.144l-0.143,0.144l-0.145,0.143l-0.145,0.143l-0.146,0.141l-0.147,0.14l-0.148,0.14l-0.149,0.139l-0.15,0.138l-0.15,0.136l-0.151,0.137l-0.152,0.135l-0.153,0.134l-0.154,0.133l-0.154,0.133l-0.155,0.131l-0.156,0.131l-0.157,0.13l-0.158,0.129l-0.159,0.128l-0.159,0.127l-0.16,0.126l-0.161,0.125l-0.161,0.124l-0.163,0.123l-0.163,0.122l-0.163,0.122l-0.165,0.12l-0.165,0.12l-0.167,0.118l-0.166,0.117l-0.168,0.117l-0.168,0.115l-0.169,0.115l-0.17,0.113l-0.171,0.113l-0.171,0.111l-0.172,0.111l-0.172,0.11l-0.174,0.108l-0.174,0.108l-0.175,0.106l-0.175,0.105l-0.176,0.105l-0.177,0.103l-0.178,0.103l-0.178,0.101l-0.179,0.1l-0.179,0.1l-0.18,0.098l-0.181,0.097l-0.182,0.096l-0.182,0.095l-0.183,0.094l-0.183,0.093l-0.184,0.092l-0.185,0.091l-0.185,0.089l-0.187,0.089l-0.186,0.087l-0.187,0.087l-0.188,0.085l-0.189,0.084l-0.189,0.083l-0.189,0.082l-0.191,0.081l-0.191,0.08l-0.191,0.079l-0.192,0.077l-0.193,0.076l-0.193,0.076l-0.194,0.074l-0.194,0.073l-0.195,0.071l-0.196,0.071l-0.195,0.069l-0.197,0.069l-0.197,0.067l-0.198,0.066l-0.198,0.065l-0.199,0.063l-0.199,0.063l-0.2,0.061l-0.2,0.06l-0.201,0.059l-0.201,0.057l-0.202,0.057l-0.203,0.055l-0.202,0.054l-0.204,0.053l-0.203,0.051l-0.205,0.051l-0.205,0.049l-0.205,0.048l-0.206,0.046l-0.206,0.046l-0.207,0.044l-0.207,0.043l-0.207,0.041l-0.208,0.041l-0.209,0.039l-0.209,0.038l-0.209,0.036l-0.21,0.036l-0.21,0.034l-0.211,0.032l-0.211,0.032l-0.211,0.03l-0.212,0.029l-0.213,0.027l-0.212,0.027l-0.213,0.025l-0.214,0.023l-0.214,0.023l-0.214,0.02l-0.215,0.02l-0.215,0.019l-0.215,0.017l-0.216,0.015l-0.216,0.015l-0.216,0.012l-0.217,0.012l-0.217,0.01l-0.217,0.009l-0.218,0.008l-0.219,0.006l-0.218,0.005l-0.219,0.003l-0.219,0.002l-0.219,0.001ZM634.331,315.219l0.194,-0.001l0.194,-0.001l0.193,-0.003l0.194,-0.005l0.193,-0.005l0.192,-0.007l0.192,-0.008l0.192,-0.009l0.192,-0.01l0.191,-0.012l0.191,-0.012l0.191,-0.014l0.19,-0.015l0.19,-0.016l0.189,-0.018l0.19,-0.018l0.189,-0.02l0.188,-0.021l0.188,-0.022l0.188,-0.023l0.187,-0.024l0.187,-0.026l0.187,-0.026l0.186,-0.028l0.186,-0.029l0.186,-0.03l0.185,-0.031l0.184,-0.032l0.185,-0.034l0.184,-0.034l0.183,-0.036l0.183,-0.037l0.183,-0.038l0.182,-0.038l0.182,-0.04l0.182,-0.042l0.181,-0.042l0.18,-0.043l0.18,-0.045l0.18,-0.045l0.18,-0.047l0.178,-0.047l0.179,-0.049l0.178,-0.05l0.177,-0.05l0.177,-0.052l0.177,-0.053l0.176,-0.054l0.176,-0.055l0.175,-0.056l0.175,-0.057l0.174,-0.059l0.174,-0.059l0.173,-0.06l0.173,-0.061l0.172,-0.063l0.172,-0.063l0.172,-0.064l0.171,-0.065l0.17,-0.067l0.17,-0.067l0.169,-0.068l0.169,-0.07l0.168,-0.07l0.168,-0.071l0.167,-0.073l0.167,-0.073l0.166,-0.074l0.166,-0.075l0.165,-0.077l0.165,-0.077l0.164,-0.078l0.163,-0.079l0.163,-0.08l0.162,-0.081l0.162,-0.082l0.162,-0.083l0.16,-0.083l0.16,-0.085l0.16,-0.086l0.159,-0.087l0.158,-0.087l0.158,-0.089l0.157,-0.089l0.157,-0.091l0.156,-0.091l0.155,-0.092l0.155,-0.093l0.154,-0.094l0.154,-0.095l0.153,-0.096l0.152,-0.096l0.152,-0.098l0.151,-0.098l0.151,-0.1l0.149,-0.1l0.15,-0.101l0.148,-0.102l0.148,-0.102l0.147,-0.104l0.147,-0.105l0.146,-0.105l0.145,-0.106l0.145,-0.107l0.144,-0.108l0.143,-0.109l0.143,-0.11l0.142,-0.11l0.141,-0.111l0.14,-0.112l0.14,-0.113l0.14,-0.114l0.138,-0.114l0.138,-0.116l0.137,-0.116l0.136,-0.117l0.136,-0.118l0.135,-0.118l0.134,-0.12l0.133,-0.12l0.133,-0.121l0.132,-0.121l0.132,-0.123l0.13,-0.123l0.13,-0.124l0.129,-0.125l0.128,-0.125l0.128,-0.127l0.126,-0.127l0.127,-0.128l0.125,-0.128l0.124,-0.129l0.124,-0.13l0.123,-0.131l0.122,-0.132l0.121,-0.132l0.121,-0.133l0.12,-0.134l0.119,-0.134l0.118,-0.135l0.117,-0.136l0.117,-0.136l0.116,-0.137l0.115,-0.138l0.114,-0.139l0.113,-0.139l0.113,-0.14l0.111,-0.141l0.111,-0.141l0.11,-0.142l0.109,-0.143l0.109,-0.143l0.107,-0.145l0.107,-0.144l0.105,-0.146l0.105,-0.145l0.104,-0.147l0.104,-0.148l0.102,-0.147l0.101,-0.149l0.101,-0.149l0.099,-0.15l0.099,-0.151l0.098,-0.151l0.097,-0.151l0.096,-0.153l0.095,-0.153l0.095,-0.153l0.093,-0.155l0.093,-0.154l0.091,-0.155l0.091,-0.156l0.089,-0.157l0.089,-0.157l0.088,-0.158l0.087,-0.158l0.086,-0.159l0.085,-0.159l0.084,-0.16l0.084,-0.161l0.082,-0.161l0.081,-0.162l0.08,-0.162l0.08,-0.163l0.078,-0.163l0.078,-0.164l0.076,-0.164l0.076,-0.165l0.074,-0.166l0.073,-0.166l0.073,-0.166l0.072,-0.167l0.07,-0.168l0.07,-0.168l0.068,-0.169l0.068,-0.169l0.066,-0.169l0.066,-0.17l0.064,-0.171l0.064,-0.171l0.062,-0.172l0.062,-0.172l0.06,-0.172l0.06,-0.173l0.058,-0.174l0.057,-0.174l0.056,-0.174l0.056,-0.175l0.054,-0.176l0.053,-0.175l0.052,-0.177l0.051,-0.176l0.05,-0.177l0.049,-0.178l0.047,-0.178l0.047,-0.179l0.046,-0.179l0.044,-0.179l0.044,-0.18l0.042,-0.18l0.041,-0.18l0.04,-0.181l0.04,-0.182l0.038,-0.182l0.036,-0.182l0.036,-0.183l0.035,-0.183l0.033,-0.183l0.033,-0.184l0.031,-0.184l0.03,-0.185l0.029,-0.185l0.028,-0.185l0.026,-0.186l0.026,-0.186l0.024,-0.187l0.024,-0.187l0.022,-0.187l0.021,-0.188l0.019,-0.188l0.019,-0.188l0.017,-0.189l0.017,-0.189l0.015,-0.189l0.014,-0.19l0.012,-0.19l0.012,-0.19l0.01,-0.191l0.009,-0.191l0.008,-0.191l0.007,-0.192l0.005,-0.192l0.005,-0.193l0.003,-0.192l0.002,-0.193l0,-0.193l0,-0.194l-0.002,-0.193l-0.003,-0.192l-0.005,-0.192l-0.005,-0.193l-0.007,-0.191l-0.008,-0.192l-0.009,-0.191l-0.01,-0.19l-0.012,-0.191l-0.012,-0.19l-0.014,-0.189l-0.015,-0.19l-0.017,-0.189l-0.017,-0.189l-0.019,-0.188l-0.019,-0.188l-0.021,-0.188l-0.022,-0.187l-0.024,-0.187l-0.024,-0.186l-0.026,-0.186l-0.026,-0.186l-0.028,-0.186l-0.029,-0.185l-0.03,-0.184l-0.031,-0.184l-0.033,-0.185l-0.033,-0.183l-0.035,-0.183l-0.036,-0.183l-0.037,-0.182l-0.037,-0.182l-0.04,-0.181l-0.04,-0.181l-0.041,-0.181l-0.042,-0.18l-0.044,-0.18l-0.044,-0.179l-0.046,-0.179l-0.047,-0.179l-0.047,-0.178l-0.049,-0.177l-0.05,-0.178l-0.051,-0.176l-0.052,-0.177l-0.053,-0.175l-0.054,-0.175l-0.056,-0.176l-0.056,-0.174l-0.057,-0.174l-0.058,-0.173l-0.06,-0.173l-0.06,-0.173l-0.062,-0.172l-0.062,-0.172l-0.064,-0.171l-0.064,-0.17l-0.066,-0.17l-0.066,-0.17l-0.068,-0.169l-0.068,-0.169l-0.07,-0.168l-0.07,-0.167l-0.072,-0.168l-0.073,-0.166l-0.073,-0.166l-0.074,-0.165l-0.076,-0.165l-0.076,-0.165l-0.078,-0.163l-0.078,-0.164l-0.08,-0.163l-0.08,-0.162l-0.081,-0.162l-0.082,-0.161l-0.084,-0.16l-0.084,-0.16l-0.085,-0.16l-0.086,-0.159l-0.087,-0.158l-0.088,-0.157l-0.089,-0.158l-0.089,-0.156l-0.091,-0.156l-0.091,-0.156l-0.093,-0.154l-0.093,-0.154l-0.095,-0.154l-0.095,-0.153l-0.096,-0.152l-0.097,-0.152l-0.098,-0.151l-0.099,-0.151l-0.099,-0.149l-0.101,-0.15l-0.101,-0.148l-0.102,-0.148l-0.104,-0.148l-0.104,-0.146l-0.105,-0.146l-0.105,-0.146l-0.107,-0.144l-0.107,-0.144l-0.109,-0.144l-0.109,-0.142l-0.11,-0.142l-0.111,-0.142l-0.111,-0.141l-0.113,-0.139l-0.113,-0.14l-0.114,-0.138l-0.115,-0.138l-0.116,-0.138l-0.117,-0.136l-0.117,-0.136l-0.118,-0.135l-0.119,-0.134l-0.12,-0.134l-0.121,-0.133l-0.121,-0.132l-0.122,-0.132l-0.123,-0.13l-0.124,-0.13l-0.124,-0.13l-0.125,-0.128l-0.127,-0.128l-0.126,-0.127l-0.128,-0.126l-0.128,-0.126l-0.129,-0.125l-0.13,-0.124l-0.13,-0.123l-0.132,-0.122l-0.132,-0.122l-0.133,-0.121l-0.133,-0.12l-0.134,-0.12l-0.135,-0.118l-0.136,-0.118l-0.136,-0.117l-0.137,-0.116l-0.138,-0.115l-0.138,-0.115l-0.14,-0.113l-0.14,-0.113l-0.14,-0.113l-0.141,-0.111l-0.142,-0.11l-0.143,-0.11l-0.143,-0.109l-0.144,-0.108l-0.145,-0.107l-0.145,-0.106l-0.146,-0.105l-0.147,-0.105l-0.147,-0.103l-0.148,-0.103l-0.148,-0.102l-0.15,-0.101l-0.149,-0.1l-0.151,-0.1l-0.151,-0.098l-0.152,-0.098l-0.152,-0.096l-0.153,-0.096l-0.154,-0.095l-0.154,-0.094l-0.155,-0.093l-0.155,-0.092l-0.156,-0.091l-0.157,-0.091l-0.157,-0.089l-0.158,-0.089l-0.158,-0.087l-0.159,-0.087l-0.16,-0.085l-0.16,-0.085l-0.16,-0.084l-0.162,-0.083l-0.162,-0.082l-0.162,-0.081l-0.163,-0.08l-0.163,-0.079l-0.164,-0.078l-0.165,-0.077l-0.165,-0.077l-0.166,-0.075l-0.166,-0.074l-0.167,-0.073l-0.167,-0.073l-0.168,-0.071l-0.168,-0.07l-0.169,-0.07l-0.169,-0.068l-0.17,-0.067l-0.17,-0.066l-0.171,-0.066l-0.172,-0.064l-0.172,-0.063l-0.172,-0.063l-0.173,-0.061l-0.173,-0.06l-0.174,-0.059l-0.174,-0.058l-0.175,-0.058l-0.175,-0.056l-0.176,-0.055l-0.176,-0.054l-0.177,-0.053l-0.177,-0.051l-0.177,-0.051l-0.178,-0.05l-0.179,-0.049l-0.179,-0.047l-0.179,-0.047l-0.18,-0.045l-0.18,-0.045l-0.18,-0.043l-0.181,-0.042l-0.182,-0.041l-0.182,-0.04l-0.182,-0.039l-0.183,-0.038l-0.183,-0.037l-0.183,-0.036l-0.184,-0.034l-0.185,-0.033l-0.184,-0.033l-0.185,-0.031l-0.186,-0.03l-0.186,-0.029l-0.186,-0.028l-0.187,-0.026l-0.187,-0.026l-0.187,-0.024l-0.188,-0.023l-0.188,-0.022l-0.188,-0.021l-0.189,-0.02l-0.19,-0.018l-0.189,-0.018l-0.19,-0.016l-0.19,-0.015l-0.191,-0.014l-0.191,-0.012l-0.191,-0.012l-0.192,-0.01l-0.192,-0.009l-0.192,-0.008l-0.192,-0.007l-0.193,-0.005l-0.194,-0.005l-0.193,-0.003l-0.194,-0.001l-0.194,-0.001l-0.194,0.001l-0.194,0.001l-0.194,0.003l-0.193,0.005l-0.193,0.005l-0.193,0.007l-0.192,0.008l-0.192,0.009l-0.191,0.01l-0.192,0.012l-0.191,0.012l-0.19,0.014l-0.19,0.015l-0.19,0.016l-0.19,0.018l-0.189,0.018l-0.189,0.02l-0.188,0.021l-0.189,0.022l-0.187,0.023l-0.188,0.024l-0.187,0.026l-0.186,0.026l-0.187,0.028l-0.185,0.029l-0.186,0.03l-0.185,0.031l-0.185,0.033l-0.184,0.033l-0.184,0.034l-0.183,0.036l-0.184,0.037l-0.182,0.038l-0.183,0.039l-0.182,0.04l-0.181,0.041l-0.181,0.042l-0.181,0.043l-0.18,0.045l-0.18,0.045l-0.179,0.047l-0.179,0.047l-0.178,0.049l-0.178,0.05l-0.178,0.051l-0.177,0.051l-0.176,0.053l-0.176,0.054l-0.176,0.055l-0.175,0.056l-0.175,0.058l-0.174,0.058l-0.174,0.059l-0.173,0.06l-0.173,0.061l-0.173,0.063l-0.172,0.063l-0.171,0.064l-0.171,0.066l-0.17,0.066l-0.17,0.067l-0.169,0.068l-0.169,0.07l-0.168,0.07l-0.168,0.071l-0.167,0.073l-0.167,0.073l-0.166,0.074l-0.166,0.075l-0.165,0.077l-0.165,0.077l-0.164,0.078l-0.163,0.079l-0.163,0.08l-0.163,0.081l-0.161,0.082l-0.162,0.083l-0.161,0.084l-0.16,0.085l-0.159,0.085l-0.159,0.087l-0.158,0.087l-0.158,0.089l-0.158,0.089l-0.156,0.091l-0.156,0.091l-0.156,0.092l-0.154,0.093l-0.155,0.094l-0.153,0.095l-0.153,0.096l-0.152,0.096l-0.152,0.098l-0.151,0.098l-0.151,0.1l-0.15,0.1l-0.149,0.101l-0.148,0.102l-0.148,0.103l-0.147,0.103l-0.147,0.105l-0.146,0.105l-0.145,0.106l-0.145,0.108l-0.144,0.107l-0.143,0.109l-0.143,0.11l-0.142,0.11l-0.141,0.111l-0.141,0.113l-0.14,0.113l-0.139,0.113l-0.138,0.115l-0.138,0.115l-0.137,0.116l-0.136,0.117l-0.136,0.118l-0.135,0.118l-0.134,0.12l-0.133,0.12l-0.133,0.121l-0.132,0.122l-0.132,0.122l-0.13,0.123l-0.13,0.124l-0.129,0.125l-0.128,0.125l-0.128,0.127l-0.127,0.127l-0.126,0.128l-0.125,0.128l-0.124,0.13l-0.124,0.13l-0.123,0.13l-0.122,0.132l-0.122,0.132l-0.12,0.133l-0.12,0.134l-0.119,0.134l-0.118,0.135l-0.118,0.136l-0.116,0.137l-0.116,0.137l-0.115,0.138l-0.114,0.138l-0.113,0.14l-0.113,0.14l-0.111,0.14l-0.111,0.142l-0.11,0.142l-0.109,0.142l-0.109,0.144l-0.107,0.144l-0.107,0.144l-0.106,0.146l-0.105,0.146l-0.104,0.147l-0.103,0.147l-0.102,0.148l-0.101,0.148l-0.101,0.149l-0.1,0.15l-0.098,0.151l-0.098,0.151l-0.097,0.152l-0.096,0.152l-0.096,0.153l-0.094,0.154l-0.093,0.154l-0.093,0.154l-0.091,0.156l-0.091,0.156l-0.09,0.156l-0.089,0.157l-0.087,0.158l-0.087,0.158l-0.086,0.159l-0.085,0.16l-0.085,0.16l-0.083,0.16l-0.082,0.161l-0.081,0.162l-0.081,0.162l-0.079,0.163l-0.078,0.163l-0.078,0.164l-0.076,0.165l-0.076,0.164l-0.074,0.166l-0.074,0.166l-0.072,0.166l-0.072,0.168l-0.07,0.167l-0.07,0.168l-0.068,0.169l-0.068,0.169l-0.066,0.17l-0.066,0.17l-0.065,0.17l-0.063,0.171l-0.062,0.172l-0.062,0.172l-0.06,0.173l-0.06,0.173l-0.058,0.173l-0.057,0.174l-0.057,0.175l-0.055,0.174l-0.054,0.176l-0.053,0.175l-0.052,0.177l-0.051,0.177l-0.05,0.177l-0.049,0.177l-0.048,0.178l-0.046,0.179l-0.046,0.179l-0.044,0.179l-0.044,0.18l-0.042,0.18l-0.042,0.181l-0.04,0.181l-0.039,0.181l-0.038,0.182l-0.037,0.182l-0.035,0.183l-0.035,0.183l-0.033,0.183l-0.033,0.184l-0.031,0.185l-0.03,0.184l-0.029,0.185l-0.028,0.186l-0.027,0.186l-0.025,0.186l-0.025,0.186l-0.023,0.187l-0.022,0.187l-0.021,0.188l-0.02,0.188l-0.018,0.188l-0.018,0.189l-0.016,0.189l-0.015,0.189l-0.014,0.19l-0.013,0.19l-0.011,0.191l-0.01,0.19l-0.009,0.191l-0.008,0.192l-0.007,0.192l-0.006,0.192l-0.004,0.192l-0.003,0.193l-0.002,0.193l0,0.193l0,0.193l0.002,0.193l0.003,0.193l0.004,0.192l0.006,0.192l0.007,0.192l0.008,0.191l0.009,0.191l0.01,0.191l0.011,0.19l0.013,0.19l0.014,0.19l0.015,0.189l0.016,0.189l0.018,0.189l0.018,0.188l0.02,0.188l0.021,0.188l0.022,0.187l0.023,0.187l0.025,0.187l0.025,0.186l0.027,0.185l0.028,0.186l0.029,0.185l0.03,0.185l0.031,0.184l0.033,0.184l0.033,0.183l0.035,0.183l0.035,0.183l0.037,0.182l0.038,0.182l0.039,0.182l0.04,0.181l0.042,0.18l0.042,0.181l0.044,0.179l0.044,0.179l0.046,0.179l0.046,0.179l0.048,0.178l0.049,0.178l0.05,0.177l0.051,0.176l0.052,0.177l0.053,0.176l0.054,0.175l0.055,0.175l0.057,0.174l0.057,0.174l0.058,0.174l0.06,0.173l0.06,0.172l0.062,0.172l0.062,0.172l0.063,0.171l0.065,0.171l0.066,0.17l0.066,0.169l0.068,0.169l0.068,0.169l0.07,0.168l0.07,0.168l0.072,0.167l0.072,0.166l0.074,0.166l0.074,0.166l0.076,0.165l0.076,0.164l0.078,0.164l0.078,0.163l0.079,0.163l0.081,0.162l0.081,0.162l0.082,0.161l0.083,0.161l0.085,0.16l0.085,0.159l0.086,0.159l0.087,0.158l0.087,0.158l0.089,0.157l0.09,0.157l0.091,0.156l0.091,0.155l0.093,0.155l0.093,0.154l0.094,0.153l0.096,0.153l0.096,0.152l0.097,0.152l0.098,0.151l0.098,0.151l0.1,0.15l0.101,0.149l0.101,0.149l0.102,0.148l0.103,0.147l0.105,0.147l0.104,0.145l0.106,0.146l0.107,0.145l0.107,0.144l0.108,0.143l0.11,0.143l0.11,0.142l0.111,0.141l0.111,0.141l0.113,0.14l0.113,0.139l0.114,0.139l0.115,0.137l0.116,0.138l0.116,0.136l0.118,0.136l0.118,0.135l0.119,0.135l0.12,0.133l0.12,0.133l0.122,0.132l0.122,0.132l0.123,0.131l0.124,0.13l0.124,0.129l0.125,0.128l0.126,0.128l0.127,0.127l0.128,0.127l0.128,0.125l0.129,0.125l0.13,0.124l0.13,0.123l0.132,0.123l0.132,0.121l0.133,0.121l0.133,0.12l0.134,0.12l0.135,0.118l0.136,0.118l0.136,0.117l0.137,0.116l0.138,0.116l0.138,0.114l0.139,0.114l0.14,0.113l0.141,0.112l0.141,0.111l0.142,0.11l0.143,0.11l0.143,0.109l0.144,0.108l0.145,0.107l0.145,0.106l0.146,0.105l0.147,0.105l0.147,0.104l0.148,0.102l0.148,0.102l0.149,0.101l0.15,0.1l0.151,0.1l0.151,0.098l0.152,0.098l0.152,0.096l0.153,0.096l0.154,0.095l0.154,0.094l0.154,0.093l0.156,0.092l0.156,0.091l0.156,0.091l0.158,0.089l0.158,0.089l0.158,0.087l0.159,0.087l0.159,0.086l0.161,0.084l0.16,0.084l0.161,0.083l0.162,0.082l0.163,0.081l0.163,0.08l0.163,0.079l0.164,0.078l0.165,0.077l0.165,0.077l0.166,0.075l0.166,0.074l0.167,0.073l0.167,0.073l0.168,0.071l0.168,0.07l0.169,0.07l0.169,0.068l0.17,0.067l0.17,0.067l0.171,0.065l0.171,0.064l0.172,0.063l0.173,0.063l0.173,0.061l0.173,0.06l0.174,0.059l0.174,0.059l0.175,0.057l0.175,0.056l0.176,0.055l0.176,0.054l0.176,0.053l0.177,0.052l0.178,0.05l0.178,0.05l0.178,0.049l0.179,0.047l0.179,0.047l0.18,0.045l0.18,0.045l0.181,0.043l0.181,0.042l0.182,0.042l0.181,0.04l0.183,0.038l0.182,0.038l0.184,0.037l0.183,0.036l0.184,0.034l0.184,0.034l0.185,0.032l0.185,0.031l0.185,0.03l0.186,0.029l0.187,0.028l0.186,0.026l0.187,0.026l0.188,0.024l0.187,0.023l0.189,0.022l0.188,0.021l0.189,0.02l0.189,0.018l0.19,0.018l0.19,0.016l0.19,0.015l0.19,0.014l0.191,0.012l0.192,0.012l0.191,0.01l0.192,0.009l0.193,0.008l0.192,0.007l0.193,0.005l0.193,0.005l0.194,0.003l0.194,0.001l0.194,0.001Z" style="fill:#fff;"/><path d="M426.835,467.647l412.708,0l0.133,-0.001l0.129,-0.001l0.13,-0.002l0.129,-0.003l0.129,-0.004l0.129,-0.004l0.128,-0.005l0.129,-0.007l0.128,-0.006l0.128,-0.008l0.127,-0.009l0.128,-0.009l0.127,-0.01l0.127,-0.011l0.127,-0.011l0.126,-0.013l0.126,-0.013l0.126,-0.014l0.126,-0.015l0.126,-0.015l0.125,-0.017l0.125,-0.017l0.125,-0.018l0.124,-0.018l0.124,-0.02l0.124,-0.02l0.124,-0.021l0.124,-0.021l0.123,-0.023l0.123,-0.023l0.122,-0.024l0.122,-0.024l0.122,-0.026l0.122,-0.026l0.122,-0.027l0.121,-0.027l0.121,-0.029l0.121,-0.029l0.12,-0.029l0.12,-0.031l0.12,-0.031l0.12,-0.032l0.119,-0.033l0.118,-0.033l0.119,-0.034l0.119,-0.035l0.118,-0.036l0.117,-0.036l0.117,-0.037l0.118,-0.037l0.116,-0.038l0.117,-0.04l0.116,-0.039l0.116,-0.041l0.115,-0.041l0.115,-0.041l0.116,-0.043l0.114,-0.043l0.114,-0.044l0.113,-0.044l0.114,-0.046l0.113,-0.045l0.113,-0.047l0.113,-0.047l0.112,-0.048l0.111,-0.048l0.112,-0.049l0.111,-0.05l0.11,-0.05l0.111,-0.052l0.11,-0.052l0.109,-0.052l0.109,-0.053l0.11,-0.054l0.108,-0.054l0.109,-0.055l0.107,-0.055l0.107,-0.057l0.107,-0.057l0.107,-0.057l0.106,-0.058l0.106,-0.059l0.105,-0.059l0.105,-0.06l0.105,-0.061l0.104,-0.061l0.104,-0.062l0.103,-0.062l0.103,-0.063l0.103,-0.064l0.102,-0.064l0.102,-0.065l0.102,-0.066l0.1,-0.066l0.101,-0.066l0.101,-0.068l0.099,-0.067l0.099,-0.069l0.099,-0.069l0.099,-0.069l0.097,-0.07l0.098,-0.071l0.097,-0.071l0.097,-0.072l0.096,-0.073l0.096,-0.073l0.095,-0.073l0.095,-0.074l0.095,-0.075l0.093,-0.075l0.094,-0.076l0.093,-0.076l0.092,-0.077l0.093,-0.078l0.091,-0.077l0.091,-0.079l0.091,-0.079l0.09,-0.079l0.09,-0.08l0.089,-0.081l0.089,-0.081l0.088,-0.082l0.087,-0.082l0.088,-0.083l0.087,-0.083l0.086,-0.084l0.086,-0.084l0.085,-0.085l0.084,-0.085l0.085,-0.086l0.084,-0.086l0.083,-0.087l0.083,-0.087l0.082,-0.088l0.081,-0.088l0.081,-0.089l0.081,-0.089l0.08,-0.09l0.079,-0.09l0.079,-0.09l0.079,-0.092l0.078,-0.091l0.077,-0.092l0.077,-0.093l0.077,-0.094l0.075,-0.093l0.075,-0.093l0.075,-0.095l0.074,-0.095l0.074,-0.095l0.072,-0.096l0.073,-0.096l0.072,-0.097l0.071,-0.097l0.071,-0.098l0.07,-0.097l0.069,-0.099l0.069,-0.099l0.069,-0.099l0.067,-0.1l0.068,-0.1l0.066,-0.1l0.066,-0.102l0.066,-0.101l0.064,-0.102l0.065,-0.102l0.064,-0.103l0.062,-0.102l0.063,-0.104l0.062,-0.104l0.061,-0.104l0.06,-0.105l0.06,-0.105l0.059,-0.105l0.059,-0.106l0.058,-0.106l0.058,-0.107l0.057,-0.107l0.056,-0.107l0.055,-0.108l0.056,-0.108l0.054,-0.109l0.053,-0.109l0.054,-0.109l0.052,-0.11l0.051,-0.109l0.052,-0.111l0.05,-0.111l0.05,-0.111l0.049,-0.111l0.049,-0.112l0.047,-0.112l0.047,-0.112l0.047,-0.113l0.046,-0.114l0.045,-0.112l0.044,-0.115l0.044,-0.114l0.043,-0.114l0.043,-0.115l0.041,-0.115l0.041,-0.115l0.041,-0.117l0.04,-0.116l0.038,-0.115l0.039,-0.118l0.037,-0.117l0.037,-0.117l0.036,-0.117l0.036,-0.118l0.035,-0.119l0.034,-0.119l0.033,-0.119l0.033,-0.119l0.032,-0.119l0.031,-0.12l0.03,-0.12l0.03,-0.12l0.029,-0.121l0.028,-0.121l0.028,-0.122l0.027,-0.121l0.026,-0.121l0.025,-0.122l0.025,-0.123l0.024,-0.122l0.023,-0.124l0.022,-0.123l0.022,-0.123l0.021,-0.124l0.02,-0.123l0.019,-0.125l0.019,-0.125l0.018,-0.124l0.017,-0.125l0.016,-0.125l0.016,-0.125l0.014,-0.126l0.014,-0.126l0.013,-0.126l0.013,-0.127l0.012,-0.127l0.011,-0.127l0.01,-0.127l0.009,-0.127l0.008,-0.128l0.008,-0.127l0.007,-0.129l0.006,-0.128l0.005,-0.129l0.005,-0.128l0.003,-0.129l0.003,-0.129l0.002,-0.13l0.002,-0.13l0,-0.133l0,-65.129l0,-0.133l-0.002,-0.13l-0.002,-0.129l-0.003,-0.13l-0.003,-0.128l-0.005,-0.129l-0.005,-0.129l-0.006,-0.128l-0.007,-0.129l-0.008,-0.128l-0.008,-0.127l-0.009,-0.127l-0.011,-0.128l-0.01,-0.127l-0.012,-0.127l-0.012,-0.126l-0.014,-0.126l-0.014,-0.126l-0.015,-0.126l-0.015,-0.125l-0.016,-0.126l-0.017,-0.125l-0.018,-0.124l-0.019,-0.125l-0.019,-0.124l-0.02,-0.124l-0.021,-0.124l-0.022,-0.123l-0.022,-0.123l-0.023,-0.123l-0.024,-0.123l-0.025,-0.122l-0.025,-0.123l-0.026,-0.121l-0.027,-0.122l-0.028,-0.121l-0.028,-0.121l-0.029,-0.121l-0.03,-0.12l-0.03,-0.12l-0.032,-0.12l-0.032,-0.119l-0.032,-0.12l-0.034,-0.119l-0.034,-0.118l-0.035,-0.119l-0.035,-0.118l-0.036,-0.117l-0.037,-0.117l-0.038,-0.117l-0.038,-0.118l-0.039,-0.116l-0.04,-0.116l-0.04,-0.116l-0.041,-0.115l-0.042,-0.115l-0.042,-0.115l-0.043,-0.114l-0.044,-0.115l-0.045,-0.114l-0.045,-0.113l-0.046,-0.114l-0.046,-0.112l-0.047,-0.113l-0.048,-0.111l-0.049,-0.113l-0.049,-0.111l-0.049,-0.111l-0.051,-0.11l-0.051,-0.111l-0.052,-0.11l-0.052,-0.11l-0.053,-0.109l-0.054,-0.109l-0.054,-0.108l-0.055,-0.108l-0.056,-0.108l-0.056,-0.108l-0.057,-0.107l-0.058,-0.106l-0.057,-0.106l-0.06,-0.106l-0.059,-0.106l-0.059,-0.104l-0.061,-0.105l-0.062,-0.105l-0.061,-0.103l-0.063,-0.103l-0.063,-0.104l-0.064,-0.103l-0.064,-0.102l-0.065,-0.102l-0.065,-0.101l-0.066,-0.101l-0.067,-0.101l-0.067,-0.1l-0.068,-0.1l-0.068,-0.099l-0.069,-0.098l-0.07,-0.099l-0.07,-0.098l-0.07,-0.097l-0.071,-0.097l-0.073,-0.097l-0.072,-0.097l-0.073,-0.095l-0.073,-0.096l-0.074,-0.094l-0.075,-0.095l-0.075,-0.094l-0.076,-0.093l-0.077,-0.093l-0.076,-0.093l-0.077,-0.092l-0.079,-0.091l-0.078,-0.092l-0.079,-0.09l-0.08,-0.091l-0.08,-0.089l-0.08,-0.089l-0.082,-0.089l-0.081,-0.089l-0.082,-0.087l-0.083,-0.087l-0.083,-0.087l-0.084,-0.086l-0.084,-0.086l-0.085,-0.086l-0.085,-0.084l-0.086,-0.084l-0.087,-0.084l-0.086,-0.083l-0.087,-0.083l-0.088,-0.082l-0.088,-0.082l-0.089,-0.081l-0.089,-0.081l-0.09,-0.08l-0.09,-0.079l-0.091,-0.079l-0.091,-0.079l-0.092,-0.078l-0.092,-0.077l-0.092,-0.077l-0.093,-0.076l-0.094,-0.076l-0.094,-0.075l-0.094,-0.075l-0.095,-0.074l-0.095,-0.073l-0.096,-0.073l-0.096,-0.073l-0.097,-0.072l-0.097,-0.071l-0.097,-0.07l-0.099,-0.071l-0.098,-0.069l-0.099,-0.069l-0.099,-0.068l-0.1,-0.068l-0.1,-0.068l-0.1,-0.066l-0.102,-0.066l-0.101,-0.066l-0.102,-0.064l-0.102,-0.064l-0.103,-0.064l-0.103,-0.063l-0.103,-0.063l-0.104,-0.062l-0.104,-0.061l-0.105,-0.06l-0.105,-0.06l-0.105,-0.06l-0.106,-0.058l-0.106,-0.058l-0.107,-0.058l-0.107,-0.057l-0.107,-0.056l-0.108,-0.056l-0.108,-0.054l-0.109,-0.055l-0.109,-0.054l-0.109,-0.052l-0.109,-0.053l-0.11,-0.052l-0.111,-0.051l-0.11,-0.05l-0.111,-0.05l-0.112,-0.049l-0.112,-0.049l-0.112,-0.047l-0.112,-0.047l-0.113,-0.047l-0.113,-0.046l-0.113,-0.045l-0.114,-0.044l-0.115,-0.044l-0.114,-0.043l-0.115,-0.043l-0.115,-0.041l-0.115,-0.041l-0.116,-0.041l-0.116,-0.039l-0.116,-0.039l-0.117,-0.039l-0.117,-0.037l-0.118,-0.037l-0.118,-0.036l-0.117,-0.036l-0.118,-0.035l-0.119,-0.034l-0.119,-0.033l-0.119,-0.033l-0.12,-0.032l-0.12,-0.031l-0.12,-0.03l-0.12,-0.03l-0.121,-0.029l-0.121,-0.028l-0.121,-0.028l-0.121,-0.027l-0.122,-0.026l-0.122,-0.025l-0.122,-0.025l-0.123,-0.024l-0.123,-0.023l-0.123,-0.022l-0.123,-0.022l-0.124,-0.021l-0.124,-0.02l-0.124,-0.019l-0.125,-0.019l-0.124,-0.018l-0.125,-0.017l-0.125,-0.016l-0.126,-0.016l-0.126,-0.015l-0.126,-0.014l-0.126,-0.013l-0.126,-0.012l-0.127,-0.012l-0.127,-0.011l-0.127,-0.01l-0.127,-0.009l-0.128,-0.008l-0.128,-0.008l-0.128,-0.007l-0.128,-0.006l-0.129,-0.005l-0.128,-0.005l-0.129,-0.004l-0.129,-0.002l-0.13,-0.003l-0.13,-0.001l-0.133,0l-192.178,0l-13.604,-14.953l-13.604,14.953l-193.321,0l-0.133,0l-0.129,0.001l-0.13,0.003l-0.129,0.002l-0.129,0.004l-0.129,0.005l-0.128,0.005l-0.129,0.006l-0.128,0.007l-0.128,0.008l-0.127,0.008l-0.128,0.009l-0.127,0.01l-0.127,0.011l-0.127,0.012l-0.126,0.012l-0.127,0.014l-0.125,0.014l-0.126,0.014l-0.126,0.016l-0.125,0.016l-0.125,0.017l-0.125,0.018l-0.124,0.019l-0.124,0.019l-0.124,0.02l-0.124,0.021l-0.124,0.022l-0.123,0.022l-0.123,0.023l-0.122,0.024l-0.123,0.025l-0.122,0.025l-0.122,0.026l-0.121,0.027l-0.121,0.028l-0.121,0.028l-0.121,0.029l-0.12,0.03l-0.12,0.03l-0.12,0.032l-0.12,0.032l-0.119,0.032l-0.119,0.034l-0.118,0.034l-0.119,0.034l-0.118,0.036l-0.117,0.036l-0.118,0.037l-0.117,0.038l-0.117,0.038l-0.116,0.039l-0.116,0.04l-0.116,0.04l-0.115,0.041l-0.115,0.042l-0.115,0.042l-0.115,0.043l-0.114,0.044l-0.114,0.045l-0.113,0.045l-0.113,0.046l-0.113,0.046l-0.113,0.047l-0.112,0.048l-0.111,0.049l-0.112,0.049l-0.111,0.05l-0.111,0.05l-0.11,0.051l-0.11,0.052l-0.11,0.052l-0.109,0.053l-0.109,0.054l-0.108,0.054l-0.108,0.055l-0.108,0.056l-0.107,0.056l-0.107,0.057l-0.107,0.057l-0.106,0.059l-0.106,0.058l-0.105,0.06l-0.105,0.06l-0.105,0.06l-0.104,0.061l-0.104,0.062l-0.104,0.063l-0.103,0.063l-0.102,0.063l-0.102,0.065l-0.102,0.065l-0.102,0.065l-0.101,0.066l-0.1,0.067l-0.1,0.067l-0.1,0.068l-0.099,0.068l-0.099,0.069l-0.099,0.07l-0.098,0.07l-0.097,0.07l-0.097,0.072l-0.097,0.071l-0.096,0.073l-0.096,0.073l-0.095,0.074l-0.095,0.073l-0.095,0.075l-0.093,0.075l-0.094,0.076l-0.093,0.077l-0.092,0.076l-0.092,0.078l-0.092,0.078l-0.091,0.078l-0.091,0.079l-0.09,0.08l-0.09,0.08l-0.089,0.08l-0.089,0.082l-0.088,0.081l-0.088,0.082l-0.087,0.083l-0.087,0.083l-0.086,0.084l-0.086,0.084l-0.085,0.085l-0.085,0.085l-0.084,0.086l-0.084,0.087l-0.083,0.086l-0.082,0.087l-0.083,0.088l-0.081,0.088l-0.081,0.089l-0.081,0.09l-0.08,0.089l-0.08,0.09l-0.078,0.091l-0.079,0.091l-0.078,0.092l-0.077,0.092l-0.077,0.092l-0.076,0.093l-0.076,0.094l-0.076,0.094l-0.074,0.094l-0.074,0.095l-0.074,0.096l-0.073,0.095l-0.072,0.097l-0.072,0.096l-0.071,0.097l-0.071,0.098l-0.07,0.098l-0.069,0.098l-0.069,0.099l-0.069,0.099l-0.067,0.1l-0.068,0.1l-0.066,0.101l-0.066,0.101l-0.066,0.101l-0.065,0.102l-0.064,0.103l-0.063,0.102l-0.063,0.103l-0.063,0.104l-0.062,0.103l-0.061,0.105l-0.06,0.104l-0.06,0.105l-0.06,0.106l-0.058,0.106l-0.059,0.106l-0.057,0.107l-0.057,0.107l-0.056,0.107l-0.056,0.108l-0.055,0.108l-0.054,0.108l-0.054,0.109l-0.053,0.109l-0.052,0.11l-0.052,0.11l-0.051,0.11l-0.05,0.111l-0.05,0.111l-0.049,0.112l-0.049,0.111l-0.047,0.112l-0.048,0.113l-0.046,0.112l-0.046,0.114l-0.045,0.113l-0.044,0.114l-0.044,0.114l-0.043,0.115l-0.043,0.114l-0.041,0.116l-0.041,0.115l-0.041,0.116l-0.039,0.116l-0.039,0.116l-0.039,0.117l-0.037,0.117l-0.037,0.117l-0.036,0.118l-0.036,0.118l-0.035,0.118l-0.034,0.119l-0.033,0.119l-0.033,0.119l-0.032,0.12l-0.031,0.12l-0.03,0.119l-0.03,0.121l-0.029,0.12l-0.028,0.121l-0.028,0.122l-0.027,0.121l-0.026,0.122l-0.025,0.122l-0.025,0.122l-0.024,0.123l-0.023,0.123l-0.022,0.123l-0.022,0.123l-0.021,0.124l-0.02,0.124l-0.019,0.124l-0.019,0.125l-0.018,0.124l-0.017,0.125l-0.016,0.125l-0.016,0.126l-0.014,0.126l-0.014,0.126l-0.014,0.126l-0.012,0.126l-0.012,0.127l-0.011,0.127l-0.01,0.127l-0.009,0.128l-0.008,0.127l-0.008,0.128l-0.007,0.128l-0.006,0.128l-0.005,0.129l-0.005,0.129l-0.003,0.129l-0.003,0.129l-0.002,0.129l-0.002,0.13l0,0.133l0,65.129l0,0.134l0.002,0.129l0.002,0.13l0.003,0.129l0.003,0.129l0.005,0.129l0.005,0.128l0.006,0.129l0.007,0.128l0.008,0.128l0.008,0.127l0.009,0.128l0.011,0.127l0.01,0.127l0.012,0.127l0.012,0.126l0.014,0.126l0.014,0.127l0.014,0.125l0.016,0.126l0.016,0.125l0.017,0.125l0.018,0.125l0.019,0.124l0.019,0.125l0.02,0.123l0.021,0.124l0.022,0.124l0.022,0.123l0.023,0.123l0.024,0.122l0.025,0.123l0.025,0.122l0.027,0.122l0.026,0.121l0.028,0.121l0.028,0.121l0.029,0.121l0.03,0.121l0.03,0.119l0.032,0.12l0.032,0.12l0.032,0.119l0.034,0.119l0.034,0.119l0.035,0.118l0.035,0.118l0.036,0.118l0.037,0.117l0.038,0.117l0.038,0.117l0.039,0.116l0.04,0.116l0.04,0.116l0.041,0.116l0.042,0.115l0.042,0.115l0.043,0.114l0.044,0.114l0.045,0.114l0.045,0.114l0.046,0.113l0.046,0.112l0.047,0.113l0.048,0.112l0.049,0.112l0.049,0.111l0.05,0.111l0.05,0.111l0.051,0.11l0.052,0.11l0.052,0.11l0.053,0.109l0.054,0.109l0.054,0.108l0.055,0.109l0.056,0.108l0.056,0.107l0.057,0.107l0.057,0.107l0.059,0.106l0.058,0.105l0.06,0.106l0.06,0.105l0.06,0.105l0.062,0.104l0.061,0.104l0.063,0.103l0.063,0.103l0.063,0.103l0.065,0.102l0.065,0.102l0.065,0.101l0.066,0.101l0.067,0.101l0.067,0.1l0.068,0.1l0.068,0.099l0.069,0.099l0.069,0.098l0.071,0.098l0.07,0.098l0.072,0.097l0.071,0.097l0.073,0.096l0.073,0.096l0.073,0.095l0.074,0.095l0.075,0.094l0.075,0.094l0.076,0.094l0.076,0.093l0.077,0.092l0.078,0.092l0.078,0.092l0.078,0.091l0.079,0.091l0.08,0.09l0.08,0.09l0.08,0.089l0.081,0.089l0.082,0.088l0.082,0.088l0.083,0.087l0.083,0.087l0.084,0.086l0.084,0.086l0.085,0.085l0.085,0.085l0.086,0.084l0.086,0.084l0.087,0.083l0.087,0.083l0.088,0.082l0.088,0.081l0.089,0.081l0.089,0.081l0.09,0.08l0.09,0.08l0.091,0.079l0.091,0.078l0.092,0.078l0.092,0.077l0.092,0.077l0.093,0.077l0.094,0.075l0.094,0.076l0.094,0.074l0.095,0.074l0.095,0.074l0.096,0.073l0.096,0.072l0.097,0.072l0.097,0.071l0.097,0.071l0.099,0.07l0.098,0.07l0.099,0.069l0.099,0.068l0.1,0.068l0.1,0.067l0.101,0.067l0.1,0.065l0.102,0.066l0.102,0.065l0.102,0.064l0.103,0.064l0.103,0.063l0.103,0.062l0.104,0.062l0.104,0.061l0.105,0.061l0.105,0.06l0.105,0.059l0.106,0.059l0.106,0.058l0.107,0.057l0.107,0.057l0.107,0.056l0.108,0.056l0.108,0.055l0.109,0.054l0.108,0.054l0.11,0.053l0.11,0.052l0.109,0.052l0.111,0.051l0.11,0.051l0.111,0.049l0.112,0.049l0.112,0.049l0.112,0.048l0.112,0.047l0.113,0.046l0.113,0.046l0.113,0.045l0.114,0.045l0.114,0.044l0.115,0.043l0.115,0.042l0.115,0.042l0.115,0.041l0.116,0.04l0.116,0.04l0.116,0.039l0.117,0.038l0.117,0.038l0.118,0.037l0.117,0.036l0.118,0.035l0.119,0.035l0.118,0.034l0.119,0.034l0.119,0.032l0.12,0.032l0.12,0.031l0.119,0.031l0.121,0.029l0.121,0.03l0.12,0.028l0.122,0.027l0.121,0.027l0.122,0.026l0.122,0.026l0.122,0.024l0.123,0.024l0.123,0.023l0.123,0.023l0.123,0.021l0.124,0.021l0.124,0.02l0.124,0.02l0.125,0.018l0.124,0.018l0.125,0.017l0.126,0.017l0.125,0.015l0.125,0.015l0.127,0.014l0.126,0.013l0.126,0.013l0.126,0.011l0.128,0.011l0.127,0.01l0.127,0.009l0.128,0.009l0.128,0.008l0.128,0.006l0.128,0.007l0.129,0.005l0.128,0.004l0.129,0.004l0.129,0.003l0.13,0.002l0.129,0.001l0.133,0.001ZM426.829,471.647l-0.152,-0.001l-0.155,-0.001l-0.154,-0.003l-0.155,-0.003l-0.154,-0.005l-0.154,-0.005l-0.154,-0.006l-0.154,-0.008l-0.153,-0.008l-0.153,-0.009l-0.153,-0.01l-0.153,-0.011l-0.152,-0.012l-0.152,-0.013l-0.152,-0.014l-0.152,-0.015l-0.151,-0.016l-0.15,-0.017l-0.151,-0.018l-0.151,-0.018l-0.15,-0.02l-0.15,-0.02l-0.15,-0.022l-0.149,-0.022l-0.149,-0.023l-0.149,-0.024l-0.148,-0.026l-0.148,-0.025l-0.148,-0.027l-0.147,-0.028l-0.148,-0.029l-0.147,-0.029l-0.146,-0.031l-0.146,-0.031l-0.146,-0.032l-0.146,-0.034l-0.145,-0.034l-0.145,-0.034l-0.144,-0.036l-0.145,-0.037l-0.144,-0.037l-0.143,-0.039l-0.144,-0.039l-0.142,-0.04l-0.143,-0.041l-0.142,-0.042l-0.141,-0.042l-0.142,-0.044l-0.141,-0.044l-0.14,-0.045l-0.141,-0.046l-0.14,-0.047l-0.139,-0.048l-0.139,-0.048l-0.139,-0.049l-0.138,-0.051l-0.138,-0.051l-0.138,-0.051l-0.137,-0.053l-0.137,-0.053l-0.136,-0.055l-0.136,-0.055l-0.135,-0.055l-0.135,-0.057l-0.135,-0.058l-0.134,-0.058l-0.134,-0.059l-0.133,-0.059l-0.133,-0.061l-0.133,-0.061l-0.132,-0.063l-0.131,-0.062l-0.131,-0.064l-0.131,-0.065l-0.13,-0.065l-0.13,-0.066l-0.129,-0.066l-0.129,-0.068l-0.129,-0.068l-0.128,-0.069l-0.127,-0.07l-0.127,-0.07l-0.127,-0.072l-0.126,-0.072l-0.126,-0.072l-0.124,-0.074l-0.125,-0.074l-0.124,-0.075l-0.124,-0.075l-0.123,-0.077l-0.123,-0.077l-0.121,-0.077l-0.122,-0.079l-0.121,-0.079l-0.121,-0.08l-0.12,-0.081l-0.12,-0.081l-0.119,-0.082l-0.118,-0.083l-0.118,-0.083l-0.118,-0.084l-0.117,-0.085l-0.116,-0.085l-0.116,-0.086l-0.115,-0.087l-0.115,-0.088l-0.114,-0.088l-0.114,-0.089l-0.114,-0.089l-0.112,-0.09l-0.112,-0.091l-0.112,-0.091l-0.111,-0.092l-0.11,-0.093l-0.11,-0.094l-0.109,-0.094l-0.109,-0.094l-0.108,-0.096l-0.107,-0.096l-0.107,-0.096l-0.107,-0.097l-0.105,-0.098l-0.106,-0.099l-0.104,-0.099l-0.104,-0.1l-0.104,-0.1l-0.102,-0.101l-0.102,-0.101l-0.102,-0.103l-0.101,-0.103l-0.1,-0.103l-0.1,-0.104l-0.099,-0.104l-0.099,-0.106l-0.097,-0.105l-0.098,-0.107l-0.096,-0.107l-0.096,-0.107l-0.096,-0.108l-0.094,-0.109l-0.095,-0.109l-0.093,-0.11l-0.093,-0.11l-0.092,-0.111l-0.091,-0.112l-0.091,-0.112l-0.09,-0.112l-0.09,-0.113l-0.088,-0.114l-0.089,-0.115l-0.087,-0.114l-0.087,-0.116l-0.086,-0.116l-0.085,-0.116l-0.085,-0.117l-0.084,-0.117l-0.084,-0.118l-0.082,-0.119l-0.082,-0.119l-0.082,-0.12l-0.08,-0.12l-0.08,-0.12l-0.079,-0.121l-0.079,-0.122l-0.078,-0.122l-0.077,-0.123l-0.076,-0.123l-0.076,-0.123l-0.075,-0.125l-0.074,-0.125l-0.073,-0.124l-0.073,-0.126l-0.072,-0.126l-0.071,-0.127l-0.071,-0.127l-0.069,-0.127l-0.069,-0.128l-0.069,-0.129l-0.067,-0.129l-0.067,-0.129l-0.066,-0.129l-0.065,-0.131l-0.065,-0.131l-0.063,-0.131l-0.063,-0.132l-0.062,-0.131l-0.062,-0.133l-0.06,-0.133l-0.06,-0.133l-0.059,-0.134l-0.058,-0.134l-0.058,-0.135l-0.056,-0.135l-0.056,-0.135l-0.055,-0.136l-0.055,-0.137l-0.053,-0.137l-0.053,-0.137l-0.051,-0.137l-0.051,-0.138l-0.05,-0.138l-0.05,-0.139l-0.048,-0.139l-0.048,-0.14l-0.047,-0.14l-0.046,-0.14l-0.045,-0.141l-0.044,-0.141l-0.044,-0.141l-0.042,-0.142l-0.042,-0.142l-0.041,-0.142l-0.04,-0.143l-0.04,-0.144l-0.038,-0.143l-0.037,-0.144l-0.037,-0.144l-0.036,-0.145l-0.035,-0.145l-0.034,-0.145l-0.033,-0.146l-0.032,-0.146l-0.031,-0.146l-0.031,-0.147l-0.029,-0.147l-0.029,-0.147l-0.028,-0.147l-0.027,-0.148l-0.026,-0.148l-0.025,-0.149l-0.024,-0.149l-0.023,-0.149l-0.023,-0.149l-0.021,-0.15l-0.021,-0.15l-0.019,-0.15l-0.019,-0.15l-0.017,-0.151l-0.017,-0.151l-0.016,-0.152l-0.015,-0.151l-0.014,-0.152l-0.013,-0.152l-0.012,-0.153l-0.011,-0.152l-0.01,-0.153l-0.01,-0.154l-0.008,-0.153l-0.007,-0.153l-0.006,-0.155l-0.006,-0.153l-0.004,-0.155l-0.004,-0.154l-0.002,-0.155l-0.002,-0.155l0,-0.152l0,-65.143l0,-0.151l0.002,-0.155l0.002,-0.155l0.004,-0.155l0.004,-0.154l0.006,-0.154l0.006,-0.154l0.007,-0.153l0.008,-0.154l0.01,-0.153l0.01,-0.153l0.011,-0.152l0.012,-0.153l0.013,-0.152l0.014,-0.151l0.015,-0.152l0.016,-0.151l0.016,-0.151l0.018,-0.151l0.019,-0.15l0.019,-0.151l0.021,-0.15l0.021,-0.149l0.023,-0.15l0.023,-0.149l0.024,-0.148l0.025,-0.149l0.026,-0.148l0.027,-0.148l0.028,-0.147l0.028,-0.148l0.03,-0.146l0.03,-0.147l0.032,-0.146l0.032,-0.146l0.033,-0.146l0.034,-0.145l0.035,-0.145l0.036,-0.144l0.036,-0.145l0.038,-0.144l0.038,-0.143l0.039,-0.143l0.04,-0.143l0.041,-0.143l0.042,-0.142l0.043,-0.142l0.043,-0.141l0.044,-0.141l0.046,-0.141l0.046,-0.14l0.046,-0.14l0.048,-0.139l0.049,-0.139l0.049,-0.139l0.05,-0.138l0.051,-0.138l0.052,-0.138l0.052,-0.137l0.054,-0.137l0.054,-0.136l0.055,-0.136l0.056,-0.135l0.056,-0.135l0.058,-0.135l0.058,-0.134l0.059,-0.134l0.06,-0.133l0.06,-0.133l0.062,-0.133l0.062,-0.132l0.063,-0.131l0.063,-0.132l0.065,-0.13l0.065,-0.13l0.066,-0.13l0.067,-0.13l0.067,-0.129l0.068,-0.128l0.069,-0.128l0.07,-0.127l0.07,-0.127l0.072,-0.127l0.072,-0.126l0.072,-0.126l0.074,-0.125l0.074,-0.124l0.075,-0.124l0.075,-0.124l0.077,-0.123l0.077,-0.123l0.077,-0.122l0.079,-0.122l0.079,-0.121l0.08,-0.12l0.081,-0.121l0.081,-0.119l0.082,-0.119l0.083,-0.119l0.083,-0.118l0.084,-0.117l0.085,-0.117l0.085,-0.117l0.086,-0.116l0.087,-0.115l0.087,-0.115l0.089,-0.114l0.089,-0.114l0.089,-0.113l0.09,-0.113l0.091,-0.111l0.091,-0.112l0.092,-0.111l0.093,-0.11l0.094,-0.11l0.093,-0.109l0.095,-0.109l0.096,-0.108l0.096,-0.108l0.096,-0.107l0.097,-0.106l0.098,-0.106l0.099,-0.105l0.099,-0.104l0.1,-0.105l0.1,-0.103l0.101,-0.103l0.101,-0.102l0.102,-0.101l0.103,-0.101l0.104,-0.101l0.104,-0.1l0.104,-0.099l0.105,-0.098l0.106,-0.098l0.106,-0.097l0.107,-0.097l0.108,-0.096l0.108,-0.095l0.109,-0.095l0.109,-0.094l0.11,-0.093l0.11,-0.093l0.111,-0.092l0.111,-0.092l0.112,-0.091l0.113,-0.09l0.113,-0.089l0.114,-0.089l0.114,-0.088l0.115,-0.088l0.115,-0.087l0.116,-0.086l0.117,-0.085l0.117,-0.085l0.117,-0.084l0.118,-0.083l0.119,-0.083l0.119,-0.082l0.119,-0.082l0.12,-0.08l0.121,-0.08l0.121,-0.079l0.122,-0.079l0.122,-0.078l0.122,-0.077l0.124,-0.076l0.123,-0.076l0.124,-0.074l0.125,-0.075l0.125,-0.073l0.126,-0.073l0.126,-0.072l0.126,-0.071l0.127,-0.071l0.128,-0.069l0.128,-0.069l0.128,-0.069l0.129,-0.067l0.129,-0.067l0.13,-0.066l0.13,-0.065l0.131,-0.065l0.131,-0.063l0.132,-0.063l0.132,-0.062l0.132,-0.062l0.133,-0.06l0.134,-0.06l0.133,-0.059l0.135,-0.058l0.134,-0.058l0.135,-0.056l0.136,-0.056l0.136,-0.055l0.136,-0.054l0.137,-0.054l0.137,-0.053l0.137,-0.051l0.138,-0.051l0.139,-0.05l0.138,-0.05l0.14,-0.048l0.139,-0.048l0.14,-0.047l0.14,-0.046l0.141,-0.045l0.141,-0.044l0.141,-0.044l0.142,-0.043l0.142,-0.041l0.143,-0.041l0.143,-0.04l0.143,-0.04l0.143,-0.038l0.144,-0.037l0.145,-0.037l0.144,-0.036l0.145,-0.035l0.145,-0.034l0.146,-0.033l0.146,-0.032l0.146,-0.032l0.147,-0.03l0.147,-0.03l0.147,-0.028l0.147,-0.028l0.148,-0.027l0.148,-0.026l0.149,-0.025l0.149,-0.024l0.149,-0.023l0.149,-0.023l0.15,-0.021l0.15,-0.021l0.15,-0.019l0.15,-0.019l0.151,-0.018l0.152,-0.016l0.151,-0.016l0.151,-0.015l0.152,-0.014l0.152,-0.013l0.153,-0.012l0.152,-0.011l0.153,-0.011l0.154,-0.009l0.153,-0.008l0.153,-0.007l0.154,-0.007l0.154,-0.005l0.155,-0.004l0.154,-0.004l0.155,-0.002l0.155,-0.002l0.152,0l191.558,0l15.373,-16.897l15.373,16.897l190.416,0l0.152,0l0.155,0.002l0.155,0.002l0.154,0.004l0.154,0.004l0.154,0.005l0.154,0.007l0.154,0.007l0.153,0.008l0.153,0.009l0.153,0.011l0.152,0.011l0.153,0.012l0.152,0.013l0.152,0.014l0.151,0.015l0.152,0.016l0.151,0.016l0.151,0.018l0.15,0.019l0.15,0.019l0.15,0.021l0.149,0.021l0.15,0.022l0.149,0.024l0.149,0.024l0.148,0.025l0.148,0.026l0.148,0.027l0.148,0.028l0.147,0.028l0.146,0.03l0.147,0.03l0.146,0.032l0.146,0.032l0.146,0.033l0.145,0.034l0.145,0.035l0.145,0.036l0.144,0.036l0.144,0.038l0.143,0.038l0.144,0.039l0.142,0.04l0.143,0.041l0.142,0.042l0.142,0.043l0.141,0.043l0.141,0.044l0.141,0.046l0.14,0.046l0.14,0.046l0.139,0.048l0.139,0.049l0.139,0.049l0.138,0.05l0.138,0.051l0.138,0.052l0.137,0.052l0.136,0.054l0.137,0.054l0.136,0.055l0.135,0.056l0.135,0.056l0.135,0.058l0.134,0.058l0.134,0.059l0.133,0.06l0.133,0.06l0.133,0.062l0.132,0.062l0.131,0.063l0.131,0.064l0.131,0.064l0.13,0.065l0.13,0.066l0.129,0.067l0.129,0.067l0.129,0.069l0.127,0.068l0.128,0.07l0.127,0.071l0.127,0.071l0.126,0.072l0.125,0.073l0.125,0.073l0.125,0.074l0.124,0.075l0.124,0.076l0.123,0.076l0.122,0.077l0.123,0.078l0.121,0.078l0.121,0.079l0.121,0.08l0.12,0.081l0.119,0.081l0.12,0.082l0.118,0.083l0.118,0.083l0.118,0.084l0.117,0.085l0.116,0.086l0.116,0.086l0.115,0.086l0.115,0.088l0.115,0.088l0.114,0.089l0.112,0.09l0.113,0.09l0.112,0.09l0.111,0.092l0.112,0.092l0.11,0.093l0.11,0.093l0.109,0.094l0.109,0.095l0.108,0.095l0.107,0.096l0.107,0.097l0.106,0.097l0.106,0.098l0.105,0.098l0.105,0.099l0.104,0.1l0.103,0.1l0.103,0.101l0.103,0.102l0.101,0.102l0.101,0.103l0.1,0.103l0.1,0.104l0.099,0.105l0.099,0.105l0.098,0.106l0.096,0.106l0.097,0.107l0.096,0.107l0.096,0.109l0.095,0.109l0.093,0.108l0.094,0.11l0.093,0.111l0.092,0.111l0.091,0.111l0.091,0.112l0.09,0.113l0.089,0.113l0.089,0.114l0.089,0.114l0.087,0.115l0.087,0.115l0.086,0.116l0.085,0.116l0.085,0.118l0.084,0.117l0.083,0.118l0.083,0.118l0.083,0.12l0.081,0.119l0.08,0.12l0.08,0.121l0.079,0.121l0.079,0.122l0.078,0.122l0.077,0.122l0.076,0.124l0.075,0.123l0.075,0.124l0.075,0.125l0.073,0.125l0.073,0.125l0.072,0.127l0.071,0.126l0.07,0.127l0.071,0.128l0.068,0.128l0.069,0.128l0.067,0.129l0.067,0.129l0.066,0.13l0.065,0.13l0.064,0.131l0.064,0.131l0.063,0.132l0.062,0.132l0.061,0.132l0.061,0.133l0.06,0.134l0.059,0.134l0.058,0.133l0.058,0.136l0.056,0.135l0.056,0.135l0.055,0.136l0.054,0.136l0.054,0.137l0.052,0.137l0.052,0.138l0.051,0.137l0.05,0.138l0.05,0.14l0.048,0.139l0.048,0.14l0.047,0.139l0.046,0.14l0.045,0.141l0.044,0.141l0.044,0.141l0.042,0.142l0.042,0.142l0.041,0.143l0.04,0.143l0.039,0.143l0.039,0.143l0.037,0.144l0.037,0.145l0.036,0.145l0.034,0.144l0.035,0.146l0.033,0.145l0.032,0.146l0.031,0.146l0.031,0.147l0.029,0.147l0.029,0.147l0.028,0.148l0.027,0.148l0.026,0.148l0.025,0.148l0.024,0.149l0.023,0.149l0.023,0.149l0.021,0.151l0.02,0.149l0.02,0.15l0.019,0.151l0.017,0.151l0.017,0.15l0.016,0.152l0.015,0.152l0.014,0.152l0.013,0.152l0.012,0.152l0.011,0.153l0.01,0.153l0.009,0.153l0.009,0.153l0.007,0.154l0.006,0.154l0.006,0.154l0.004,0.155l0.004,0.154l0.002,0.154l0.002,0.155l0,0.152l0,65.143l0,0.152l-0.002,0.155l-0.002,0.154l-0.004,0.155l-0.004,0.154l-0.006,0.154l-0.006,0.154l-0.007,0.154l-0.008,0.153l-0.01,0.153l-0.01,0.153l-0.011,0.153l-0.012,0.152l-0.013,0.152l-0.014,0.152l-0.015,0.151l-0.016,0.152l-0.017,0.151l-0.017,0.15l-0.019,0.151l-0.019,0.15l-0.021,0.15l-0.021,0.15l-0.023,0.149l-0.023,0.148l-0.024,0.15l-0.025,0.148l-0.026,0.148l-0.027,0.148l-0.028,0.147l-0.028,0.148l-0.03,0.147l-0.03,0.146l-0.032,0.147l-0.032,0.146l-0.033,0.145l-0.034,0.145l-0.035,0.145l-0.036,0.145l-0.036,0.144l-0.038,0.144l-0.038,0.144l-0.039,0.143l-0.04,0.143l-0.041,0.142l-0.042,0.142l-0.042,0.141l-0.044,0.143l-0.045,0.141l-0.045,0.14l-0.045,0.14l-0.048,0.14l-0.047,0.14l-0.049,0.138l-0.049,0.139l-0.05,0.139l-0.051,0.137l-0.052,0.138l-0.053,0.138l-0.053,0.136l-0.054,0.137l-0.055,0.135l-0.056,0.135l-0.056,0.136l-0.058,0.135l-0.058,0.134l-0.059,0.134l-0.06,0.133l-0.06,0.133l-0.062,0.132l-0.062,0.132l-0.063,0.132l-0.063,0.131l-0.065,0.131l-0.065,0.13l-0.066,0.13l-0.066,0.129l-0.068,0.129l-0.069,0.129l-0.068,0.127l-0.07,0.128l-0.07,0.126l-0.072,0.127l-0.072,0.127l-0.072,0.125l-0.074,0.126l-0.074,0.124l-0.075,0.123l-0.076,0.125l-0.076,0.123l-0.077,0.122l-0.078,0.123l-0.078,0.121l-0.079,0.121l-0.08,0.121l-0.081,0.12l-0.081,0.12l-0.082,0.118l-0.083,0.119l-0.083,0.118l-0.084,0.118l-0.085,0.117l-0.085,0.116l-0.087,0.116l-0.086,0.115l-0.088,0.115l-0.088,0.115l-0.089,0.113l-0.089,0.113l-0.09,0.113l-0.091,0.112l-0.092,0.112l-0.091,0.11l-0.093,0.111l-0.094,0.11l-0.093,0.109l-0.095,0.108l-0.096,0.109l-0.096,0.107l-0.096,0.107l-0.097,0.106l-0.098,0.106l-0.099,0.106l-0.099,0.104l-0.1,0.104l-0.1,0.104l-0.101,0.102l-0.101,0.102l-0.103,0.102l-0.102,0.101l-0.104,0.101l-0.104,0.099l-0.104,0.099l-0.105,0.098l-0.106,0.099l-0.106,0.097l-0.107,0.096l-0.108,0.096l-0.108,0.096l-0.108,0.094l-0.11,0.095l-0.11,0.093l-0.11,0.093l-0.111,0.092l-0.111,0.091l-0.112,0.091l-0.113,0.09l-0.113,0.089l-0.114,0.089l-0.114,0.089l-0.115,0.087l-0.115,0.087l-0.116,0.086l-0.117,0.086l-0.117,0.084l-0.117,0.084l-0.118,0.084l-0.118,0.082l-0.12,0.083l-0.12,0.081l-0.12,0.081l-0.12,0.079l-0.121,0.08l-0.121,0.078l-0.123,0.078l-0.123,0.077l-0.122,0.076l-0.124,0.076l-0.124,0.075l-0.125,0.074l-0.125,0.074l-0.126,0.072l-0.126,0.072l-0.126,0.072l-0.127,0.07l-0.128,0.07l-0.128,0.069l-0.128,0.068l-0.129,0.067l-0.13,0.067l-0.129,0.066l-0.13,0.065l-0.131,0.065l-0.131,0.063l-0.132,0.064l-0.132,0.062l-0.132,0.061l-0.133,0.061l-0.134,0.059l-0.134,0.06l-0.134,0.058l-0.134,0.057l-0.135,0.057l-0.136,0.056l-0.136,0.055l-0.136,0.054l-0.137,0.053l-0.137,0.053l-0.138,0.052l-0.137,0.051l-0.139,0.05l-0.139,0.049l-0.139,0.049l-0.139,0.047l-0.14,0.047l-0.14,0.046l-0.141,0.045l-0.141,0.045l-0.141,0.043l-0.142,0.043l-0.142,0.042l-0.142,0.041l-0.143,0.04l-0.144,0.039l-0.143,0.038l-0.144,0.038l-0.144,0.036l-0.145,0.036l-0.145,0.035l-0.145,0.034l-0.146,0.033l-0.146,0.033l-0.146,0.031l-0.147,0.03l-0.147,0.03l-0.147,0.029l-0.148,0.027l-0.147,0.027l-0.148,0.026l-0.149,0.025l-0.149,0.025l-0.149,0.023l-0.149,0.022l-0.15,0.022l-0.15,0.02l-0.15,0.02l-0.151,0.018l-0.15,0.018l-0.151,0.017l-0.152,0.016l-0.152,0.015l-0.151,0.013l-0.153,0.014l-0.152,0.012l-0.152,0.011l-0.153,0.01l-0.154,0.009l-0.153,0.008l-0.154,0.008l-0.153,0.006l-0.154,0.005l-0.155,0.005l-0.154,0.003l-0.155,0.003l-0.155,0.001l-0.152,0.001l-412.72,0Z" style="fill:#fff;"/><path d="M474.785,438.915l-4.596,0l0,-45.194l4.596,0l0,45.194ZM490.424,409.041c0.085,0.808 0.149,1.702 0.192,2.681c0.042,0.979 0.064,1.787 0.064,2.426l0.127,0c0.851,-1.745 2.235,-3.16 4.15,-4.245c1.915,-1.086 3.936,-1.628 6.064,-1.628c3.787,0 6.628,1.128 8.522,3.383c1.893,2.256 2.84,5.234 2.84,8.937l0,18.32l-4.34,0l0,-16.533c0,-1.574 -0.128,-3 -0.384,-4.277c-0.255,-1.276 -0.691,-2.372 -1.308,-3.287c-0.617,-0.915 -1.447,-1.628 -2.49,-2.139c-1.042,-0.51 -2.351,-0.766 -3.925,-0.766c-1.149,0 -2.267,0.234 -3.352,0.703c-1.085,0.468 -2.053,1.18 -2.904,2.138c-0.851,0.958 -1.532,2.17 -2.043,3.639c-0.51,1.468 -0.766,3.202 -0.766,5.202l0,15.32l-4.341,0l0,-23.299c0,-0.809 -0.021,-1.851 -0.063,-3.128c-0.043,-1.277 -0.107,-2.426 -0.192,-3.447l4.149,0ZM539.513,416.126c-0.639,-1.234 -1.607,-2.244 -2.905,-3.032c-1.298,-0.787 -2.777,-1.181 -4.436,-1.181c-0.766,0 -1.532,0.086 -2.298,0.256c-0.766,0.17 -1.447,0.447 -2.043,0.83c-0.596,0.383 -1.075,0.872 -1.436,1.468c-0.362,0.596 -0.543,1.298 -0.543,2.106c0,1.405 0.575,2.479 1.724,3.224c1.149,0.745 2.957,1.372 5.426,1.883c3.532,0.723 6.138,1.777 7.819,3.16c1.681,1.383 2.522,3.245 2.522,5.585c0,1.702 -0.33,3.139 -0.99,4.309c-0.659,1.17 -1.521,2.128 -2.585,2.873c-1.064,0.744 -2.266,1.276 -3.607,1.595c-1.34,0.32 -2.691,0.479 -4.053,0.479c-2.256,0 -4.447,-0.468 -6.575,-1.404c-2.128,-0.936 -3.873,-2.405 -5.234,-4.405l3.447,-2.553c0.766,1.319 1.893,2.426 3.383,3.319c1.489,0.894 3.128,1.341 4.915,1.341c0.936,0 1.83,-0.085 2.681,-0.256c0.851,-0.17 1.596,-0.468 2.234,-0.893c0.639,-0.426 1.149,-0.968 1.532,-1.628c0.383,-0.66 0.575,-1.479 0.575,-2.458c0,-1.574 -0.756,-2.755 -2.266,-3.542c-1.511,-0.788 -3.692,-1.522 -6.543,-2.203c-0.894,-0.212 -1.841,-0.478 -2.841,-0.798c-1,-0.319 -1.926,-0.787 -2.777,-1.404c-0.851,-0.617 -1.553,-1.394 -2.106,-2.33c-0.553,-0.936 -0.83,-2.106 -0.83,-3.511c0,-1.532 0.298,-2.84 0.894,-3.926c0.595,-1.085 1.393,-1.978 2.393,-2.681c1,-0.702 2.139,-1.223 3.416,-1.563c1.276,-0.341 2.595,-0.511 3.957,-0.511c2.085,0 4.107,0.468 6.064,1.404c1.958,0.936 3.426,2.256 4.405,3.958l-3.319,2.489ZM565.429,412.679l-8.426,0l0,17.427c0,1.107 0.107,2.021 0.319,2.745c0.213,0.723 0.522,1.287 0.926,1.692c0.404,0.404 0.883,0.68 1.436,0.829c0.553,0.149 1.149,0.224 1.788,0.224c0.595,0 1.223,-0.085 1.883,-0.256c0.659,-0.17 1.287,-0.404 1.883,-0.702l0.191,3.766c-0.766,0.298 -1.564,0.522 -2.394,0.671c-0.829,0.149 -1.734,0.223 -2.712,0.223c-0.809,0 -1.66,-0.106 -2.554,-0.319c-0.894,-0.213 -1.723,-0.617 -2.489,-1.213c-0.766,-0.596 -1.394,-1.404 -1.883,-2.426c-0.49,-1.021 -0.735,-2.361 -0.735,-4.021l0,-18.64l-6.191,0l0,-3.638l6.191,0l0,-8.426l4.341,0l0,8.426l8.426,0l0,3.638ZM572.196,415.616c0,-0.809 -0.022,-1.851 -0.064,-3.128c-0.043,-1.277 -0.107,-2.426 -0.192,-3.447l4.15,0c0.085,0.808 0.148,1.702 0.191,2.681c0.043,0.979 0.064,1.787 0.064,2.426l0.128,0c0.851,-1.745 2.127,-3.16 3.83,-4.245c1.702,-1.086 3.617,-1.628 5.745,-1.628c0.553,0 1.053,0.021 1.5,0.064c0.447,0.042 0.904,0.127 1.372,0.255l-0.574,4.085c-0.256,-0.085 -0.681,-0.17 -1.277,-0.255c-0.596,-0.085 -1.192,-0.128 -1.787,-0.128c-1.149,0 -2.256,0.213 -3.32,0.639c-1.064,0.425 -1.989,1.096 -2.777,2.011c-0.787,0.914 -1.425,2.085 -1.914,3.51c-0.49,1.426 -0.735,3.139 -0.735,5.139l0,15.32l-4.34,0l0,-23.299ZM616.879,438.915c-0.085,-0.808 -0.148,-1.702 -0.191,-2.681c-0.043,-0.979 -0.064,-1.787 -0.064,-2.426l-0.128,0c-0.851,1.745 -2.234,3.16 -4.149,4.245c-1.915,1.086 -3.936,1.628 -6.064,1.628c-3.788,0 -6.628,-1.128 -8.522,-3.383c-1.894,-2.256 -2.841,-5.234 -2.841,-8.937l0,-18.32l4.341,0l0,16.533c0,1.574 0.128,3 0.383,4.277c0.256,1.276 0.692,2.372 1.309,3.287c0.617,0.915 1.447,1.628 2.489,2.139c1.043,0.51 2.352,0.766 3.926,0.766c1.149,0 2.266,-0.234 3.352,-0.703c1.085,-0.468 2.053,-1.18 2.904,-2.138c0.851,-0.957 1.532,-2.17 2.042,-3.639c0.511,-1.468 0.767,-3.202 0.767,-5.202l0,-15.32l4.34,0l0,23.299c0,0.809 0.022,1.851 0.064,3.128c0.043,1.277 0.107,2.426 0.192,3.447l-4.15,0ZM653.776,415.871c-0.724,-1.149 -1.777,-2.096 -3.16,-2.841c-1.383,-0.744 -2.883,-1.117 -4.501,-1.117c-1.745,0 -3.319,0.309 -4.723,0.926c-1.405,0.617 -2.607,1.468 -3.607,2.553c-1,1.086 -1.766,2.362 -2.298,3.83c-0.532,1.469 -0.798,3.054 -0.798,4.756c0,1.702 0.266,3.277 0.798,4.724c0.532,1.447 1.287,2.713 2.266,3.798c0.979,1.085 2.171,1.936 3.575,2.553c1.404,0.617 2.979,0.926 4.724,0.926c1.914,0 3.532,-0.362 4.851,-1.085c1.319,-0.724 2.404,-1.66 3.255,-2.809l3.256,2.426c-1.277,1.574 -2.841,2.83 -4.692,3.766c-1.851,0.936 -4.075,1.404 -6.67,1.404c-2.426,0 -4.618,-0.393 -6.575,-1.181c-1.958,-0.787 -3.628,-1.883 -5.011,-3.287c-1.383,-1.405 -2.458,-3.064 -3.224,-4.979c-0.766,-1.915 -1.149,-4.001 -1.149,-6.256c0,-2.255 0.383,-4.341 1.149,-6.256c0.766,-1.915 1.841,-3.574 3.224,-4.979c1.383,-1.404 3.053,-2.5 5.011,-3.287c1.957,-0.787 4.149,-1.181 6.575,-1.181c2,0 4.032,0.436 6.096,1.308c2.064,0.873 3.734,2.16 5.011,3.862l-3.383,2.426ZM677.649,412.679l-8.426,0l0,17.427c0,1.107 0.107,2.021 0.319,2.745c0.213,0.723 0.522,1.287 0.926,1.692c0.404,0.404 0.883,0.68 1.436,0.829c0.553,0.149 1.149,0.224 1.788,0.224c0.595,0 1.223,-0.085 1.883,-0.256c0.659,-0.17 1.287,-0.404 1.883,-0.702l0.191,3.766c-0.766,0.298 -1.564,0.522 -2.393,0.671c-0.83,0.149 -1.735,0.223 -2.713,0.223c-0.809,0 -1.66,-0.106 -2.554,-0.319c-0.893,-0.213 -1.723,-0.617 -2.489,-1.213c-0.766,-0.596 -1.394,-1.404 -1.883,-2.426c-0.49,-1.021 -0.734,-2.361 -0.734,-4.021l0,-18.64l-6.192,0l0,-3.638l6.192,0l0,-8.426l4.34,0l0,8.426l8.426,0l0,3.638ZM688.82,438.915l-4.341,0l0,-29.874l4.341,0l0,29.874ZM689.714,397.551c0,0.893 -0.319,1.628 -0.958,2.202c-0.638,0.575 -1.34,0.862 -2.106,0.862c-0.766,0 -1.468,-0.287 -2.107,-0.862c-0.638,-0.574 -0.957,-1.309 -0.957,-2.202c0,-0.894 0.319,-1.628 0.957,-2.203c0.639,-0.574 1.341,-0.861 2.107,-0.861c0.766,0 1.468,0.287 2.106,0.861c0.639,0.575 0.958,1.309 0.958,2.203ZM730.057,423.978c0,2.255 -0.394,4.341 -1.181,6.256c-0.787,1.915 -1.883,3.574 -3.287,4.979c-1.405,1.404 -3.086,2.5 -5.043,3.287c-1.958,0.788 -4.107,1.181 -6.447,1.181c-2.298,0 -4.426,-0.393 -6.384,-1.181c-1.957,-0.787 -3.639,-1.883 -5.043,-3.287c-1.404,-1.405 -2.5,-3.064 -3.287,-4.979c-0.787,-1.915 -1.181,-4.001 -1.181,-6.256c0,-2.255 0.394,-4.341 1.181,-6.256c0.787,-1.915 1.883,-3.574 3.287,-4.979c1.404,-1.404 3.086,-2.5 5.043,-3.287c1.958,-0.787 4.086,-1.181 6.384,-1.181c2.34,0 4.489,0.394 6.447,1.181c1.957,0.787 3.638,1.883 5.043,3.287c1.404,1.405 2.5,3.064 3.287,4.979c0.787,1.915 1.181,4.001 1.181,6.256ZM725.461,423.978c0,-1.66 -0.266,-3.224 -0.798,-4.692c-0.532,-1.468 -1.287,-2.745 -2.266,-3.83c-0.979,-1.085 -2.171,-1.947 -3.575,-2.585c-1.404,-0.638 -2.979,-0.958 -4.723,-0.958c-1.745,0 -3.309,0.32 -4.692,0.958c-1.383,0.638 -2.564,1.5 -3.543,2.585c-0.979,1.085 -1.734,2.362 -2.266,3.83c-0.532,1.468 -0.798,3.032 -0.798,4.692c0,1.66 0.266,3.224 0.798,4.692c0.532,1.468 1.287,2.745 2.266,3.83c0.979,1.085 2.16,1.936 3.543,2.553c1.383,0.617 2.947,0.926 4.692,0.926c1.744,0 3.319,-0.309 4.723,-0.926c1.404,-0.617 2.596,-1.468 3.575,-2.553c0.979,-1.085 1.734,-2.362 2.266,-3.83c0.532,-1.468 0.798,-3.032 0.798,-4.692ZM743.271,409.041c0.085,0.808 0.149,1.702 0.191,2.681c0.043,0.979 0.064,1.787 0.064,2.426l0.128,0c0.851,-1.745 2.234,-3.16 4.149,-4.245c1.915,-1.086 3.936,-1.628 6.064,-1.628c3.788,0 6.628,1.128 8.522,3.383c1.894,2.256 2.84,5.234 2.84,8.937l0,18.32l-4.34,0l0,-16.533c0,-1.574 -0.128,-3 -0.383,-4.277c-0.256,-1.276 -0.692,-2.372 -1.309,-3.287c-0.617,-0.915 -1.447,-1.628 -2.489,-2.139c-1.043,-0.51 -2.352,-0.766 -3.926,-0.766c-1.149,0 -2.266,0.234 -3.351,0.703c-1.086,0.468 -2.054,1.18 -2.905,2.138c-0.851,0.958 -1.532,2.17 -2.042,3.639c-0.511,1.468 -0.767,3.202 -0.767,5.202l0,15.32l-4.34,0l0,-23.299c0,-0.809 -0.022,-1.851 -0.064,-3.128c-0.043,-1.277 -0.106,-2.426 -0.192,-3.447l4.15,0ZM792.359,416.126c-0.638,-1.234 -1.607,-2.244 -2.904,-3.032c-1.298,-0.787 -2.777,-1.181 -4.437,-1.181c-0.766,0 -1.532,0.086 -2.298,0.256c-0.766,0.17 -1.447,0.447 -2.043,0.83c-0.596,0.383 -1.074,0.872 -1.436,1.468c-0.362,0.596 -0.542,1.298 -0.542,2.106c0,1.405 0.574,2.479 1.723,3.224c1.149,0.745 2.958,1.372 5.426,1.883c3.532,0.723 6.138,1.777 7.82,3.16c1.681,1.383 2.521,3.245 2.521,5.585c0,1.702 -0.33,3.139 -0.989,4.309c-0.66,1.17 -1.522,2.128 -2.586,2.873c-1.064,0.744 -2.266,1.276 -3.606,1.595c-1.341,0.32 -2.692,0.479 -4.054,0.479c-2.255,0 -4.447,-0.468 -6.575,-1.404c-2.127,-0.936 -3.872,-2.405 -5.234,-4.405l3.447,-2.553c0.766,1.319 1.894,2.426 3.383,3.319c1.49,0.894 3.128,1.341 4.915,1.341c0.937,0 1.83,-0.085 2.681,-0.256c0.851,-0.17 1.596,-0.468 2.235,-0.893c0.638,-0.426 1.149,-0.968 1.532,-1.628c0.383,-0.66 0.574,-1.479 0.574,-2.458c0,-1.574 -0.755,-2.755 -2.266,-3.542c-1.511,-0.788 -3.692,-1.522 -6.543,-2.203c-0.894,-0.212 -1.841,-0.478 -2.841,-0.798c-1,-0.319 -1.925,-0.787 -2.776,-1.404c-0.852,-0.617 -1.554,-1.394 -2.107,-2.33c-0.553,-0.936 -0.83,-2.106 -0.83,-3.511c0,-1.532 0.298,-2.84 0.894,-3.926c0.596,-1.085 1.394,-1.978 2.394,-2.681c1,-0.702 2.138,-1.223 3.415,-1.563c1.276,-0.341 2.596,-0.511 3.958,-0.511c2.085,0 4.106,0.468 6.064,1.404c1.957,0.936 3.426,2.256 4.404,3.958l-3.319,2.489Z" style="fill:#fff;"/></g></g></svg>