<?xml version="1.0" encoding="UTF-8" standalone="no"?><!DOCTYPE svg PUBLIC "-//W3C//DTD SVG 1.1//EN" "http://www.w3.org/Graphics/SVG/1.1/DTD/svg11.dtd"><svg width="100%" height="100%" viewBox="0 0 1280 720" version="1.1" xmlns="http://www.w3.org/2000/svg" xmlns:xlink="http://www.w3.org/1999/xlink" xml:space="preserve" style="fill-rule:evenodd;clip-rule:evenodd;stroke-linejoin:round;stroke-miterlimit:1.41421;"><g id="Instructions"><g><g id="Instructions.-logo"><path d="M642.006,194.948l0.317,0.003l0.318,0.005l0.317,0.007l0.316,0.009l0.316,0.011l0.315,0.012l0.315,0.015l0.314,0.017l0.314,0.019l0.313,0.021l0.313,0.023l0.312,0.024l0.312,0.027l0.311,0.028l0.311,0.031l0.31,0.032l0.31,0.034l0.308,0.037l0.309,0.038l0.308,0.04l0.307,0.041l0.306,0.044l0.306,0.046l0.306,0.047l0.305,0.049l0.304,0.052l0.303,0.053l0.303,0.055l0.302,0.056l0.302,0.059l0.301,0.06l0.3,0.062l0.3,0.064l0.299,0.066l0.298,0.068l0.297,0.069l0.297,0.071l0.296,0.073l0.296,0.075l0.295,0.077l0.294,0.078l0.293,0.08l0.293,0.082l0.291,0.083l0.292,0.086l0.29,0.087l0.29,0.088l0.288,0.091l0.289,0.092l0.287,0.094l0.286,0.095l0.286,0.098l0.285,0.099l0.284,0.1l0.283,0.103l0.283,0.104l0.282,0.106l0.281,0.107l0.28,0.109l0.279,0.111l0.278,0.112l0.278,0.114l0.276,0.115l0.276,0.118l0.275,0.118l0.274,0.121l0.274,0.122l0.272,0.124l0.271,0.125l0.271,0.127l0.269,0.128l0.269,0.13l0.268,0.132l0.267,0.133l0.266,0.134l0.265,0.137l0.264,0.137l0.263,0.14l0.262,0.141l0.261,0.142l0.261,0.144l0.259,0.145l0.258,0.147l0.258,0.149l0.256,0.15l0.255,0.151l0.255,0.153l0.253,0.154l0.252,0.156l0.252,0.157l0.25,0.159l0.249,0.161l0.249,0.161l0.247,0.163l0.246,0.165l0.245,0.166l0.244,0.167l0.243,0.169l0.242,0.171l0.241,0.171l0.24,0.173l0.238,0.175l0.238,0.176l0.236,0.177l0.235,0.179l0.235,0.18l0.233,0.181l0.232,0.183l0.231,0.184l0.229,0.185l0.229,0.187l0.227,0.188l0.227,0.189l0.225,0.191l0.224,0.192l0.223,0.194l0.221,0.194l0.221,0.196l0.219,0.198l0.218,0.198l0.217,0.2l0.215,0.201l0.215,0.203l0.213,0.203l0.212,0.205l0.21,0.206l0.21,0.208l0.208,0.209l0.207,0.209l0.206,0.211l0.204,0.213l0.203,0.213l0.202,0.215l0.201,0.216l0.199,0.217l0.198,0.219l0.197,0.219l0.196,0.221l0.194,0.222l0.193,0.223l0.191,0.224l0.19,0.226l0.189,0.226l0.188,0.228l0.186,0.229l0.185,0.23l0.183,0.231l0.182,0.232l0.181,0.234l0.179,0.234l0.178,0.236l0.177,0.236l0.175,0.238l0.174,0.239l0.172,0.24l0.171,0.241l0.17,0.242l0.168,0.243l0.167,0.244l0.165,0.246l0.164,0.246l0.162,0.247l0.161,0.248l0.159,0.25l0.158,0.25l0.157,0.252l0.155,0.252l0.153,0.254l0.152,0.254l0.151,0.255l0.149,0.257l0.147,0.257l0.147,0.259l0.144,0.259l0.143,0.26l0.141,0.261l0.14,0.263l0.139,0.263l0.136,0.264l0.136,0.265l0.133,0.266l0.132,0.266l0.131,0.268l0.129,0.269l0.127,0.269l0.126,0.271l0.124,0.271l0.123,0.272l0.121,0.274l0.119,0.274l0.118,0.275l0.116,0.275l0.114,0.277l0.113,0.277l0.111,0.278l0.11,0.279l0.107,0.28l0.107,0.281l0.104,0.282l0.103,0.282l0.101,0.283l0.099,0.284l0.098,0.285l0.096,0.285l0.094,0.287l0.093,0.287l0.091,0.288l0.089,0.288l0.087,0.29l0.086,0.29l0.084,0.29l0.082,0.292l0.08,0.292l0.079,0.293l0.077,0.294l0.075,0.294l0.073,0.296l0.072,0.296l0.069,0.296l0.068,0.297l0.066,0.298l0.065,0.299l0.062,0.299l0.061,0.3l0.059,0.3l0.057,0.301l0.055,0.303l0.053,0.302l0.051,0.303l0.05,0.304l0.047,0.304l0.046,0.305l0.044,0.306l0.042,0.306l0.04,0.306l0.039,0.308l0.036,0.308l0.034,0.308l0.033,0.309l0.03,0.309l0.029,0.311l0.027,0.31l0.025,0.312l0.022,0.311l0.021,0.313l0.019,0.312l0.017,0.314l0.015,0.314l0.013,0.314l0.011,0.314l0.009,0.316l0.007,0.316l0.005,0.316l0.003,0.316l0.001,0.317l-0.001,0.318l-0.003,0.316l-0.005,0.316l-0.007,0.316l-0.009,0.316l-0.011,0.314l-0.013,0.314l-0.015,0.314l-0.017,0.314l-0.019,0.312l-0.021,0.312l-0.022,0.312l-0.025,0.311l-0.027,0.311l-0.029,0.31l-0.03,0.31l-0.033,0.309l-0.034,0.308l-0.036,0.308l-0.039,0.307l-0.04,0.307l-0.042,0.306l-0.044,0.306l-0.046,0.305l-0.047,0.304l-0.05,0.304l-0.051,0.303l-0.053,0.302l-0.055,0.302l-0.057,0.301l-0.059,0.301l-0.061,0.3l-0.062,0.299l-0.065,0.299l-0.066,0.297l-0.068,0.298l-0.069,0.296l-0.072,0.296l-0.073,0.295l-0.075,0.295l-0.077,0.293l-0.079,0.293l-0.08,0.293l-0.082,0.291l-0.084,0.291l-0.086,0.29l-0.087,0.29l-0.089,0.288l-0.091,0.288l-0.093,0.287l-0.094,0.286l-0.096,0.286l-0.098,0.285l-0.099,0.284l-0.101,0.283l-0.103,0.282l-0.104,0.282l-0.107,0.28l-0.107,0.28l-0.11,0.279l-0.111,0.279l-0.113,0.277l-0.114,0.277l-0.116,0.275l-0.118,0.275l-0.119,0.274l-0.121,0.273l-0.123,0.272l-0.124,0.272l-0.126,0.27l-0.127,0.27l-0.129,0.269l-0.131,0.267l-0.132,0.267l-0.133,0.266l-0.136,0.265l-0.136,0.264l-0.139,0.263l-0.14,0.262l-0.141,0.262l-0.143,0.26l-0.144,0.259l-0.147,0.259l-0.147,0.257l-0.149,0.256l-0.151,0.256l-0.152,0.254l-0.153,0.254l-0.155,0.252l-0.157,0.251l-0.158,0.251l-0.159,0.249l-0.161,0.249l-0.162,0.247l-0.164,0.246l-0.165,0.245l-0.167,0.245l-0.168,0.243l-0.17,0.242l-0.171,0.241l-0.172,0.24l-0.174,0.238l-0.175,0.238l-0.177,0.237l-0.178,0.236l-0.179,0.234l-0.181,0.233l-0.182,0.233l-0.183,0.231l-0.185,0.23l-0.186,0.229l-0.188,0.227l-0.189,0.227l-0.19,0.225l-0.191,0.224l-0.193,0.224l-0.194,0.221l-0.196,0.221l-0.197,0.22l-0.198,0.218l-0.199,0.217l-0.201,0.216l-0.202,0.215l-0.203,0.214l-0.204,0.212l-0.206,0.211l-0.207,0.21l-0.208,0.209l-0.21,0.207l-0.21,0.206l-0.212,0.205l-0.213,0.204l-0.215,0.202l-0.215,0.201l-0.217,0.2l-0.218,0.199l-0.22,0.197l-0.22,0.196l-0.221,0.195l-0.223,0.193l-0.224,0.192l-0.225,0.191l-0.227,0.19l-0.227,0.188l-0.229,0.186l-0.229,0.186l-0.231,0.184l-0.232,0.183l-0.233,0.181l-0.235,0.18l-0.235,0.179l-0.236,0.177l-0.238,0.176l-0.238,0.174l-0.24,0.173l-0.241,0.172l-0.242,0.17l-0.243,0.169l-0.244,0.168l-0.245,0.166l-0.246,0.164l-0.247,0.163l-0.249,0.162l-0.249,0.16l-0.25,0.159l-0.252,0.157l-0.252,0.156l-0.253,0.155l-0.255,0.153l-0.255,0.151l-0.256,0.15l-0.258,0.148l-0.258,0.147l-0.259,0.146l-0.261,0.144l-0.261,0.142l-0.262,0.141l-0.263,0.139l-0.264,0.138l-0.265,0.136l-0.266,0.135l-0.267,0.133l-0.268,0.131l-0.269,0.13l-0.269,0.129l-0.271,0.127l-0.271,0.125l-0.272,0.124l-0.274,0.122l-0.274,0.12l-0.275,0.119l-0.276,0.117l-0.276,0.116l-0.278,0.114l-0.278,0.112l-0.279,0.111l-0.28,0.109l-0.281,0.107l-0.282,0.106l-0.283,0.104l-0.283,0.102l-0.284,0.101l-0.285,0.099l-0.286,0.097l-0.286,0.096l-0.287,0.094l-0.289,0.092l-0.288,0.09l-0.29,0.089l-0.29,0.087l-0.292,0.085l-0.291,0.084l-0.293,0.082l-0.293,0.08l-0.294,0.078l-0.295,0.076l-0.296,0.075l-0.296,0.073l-0.297,0.071l-0.297,0.07l-0.298,0.067l-0.299,0.066l-0.3,0.064l-0.3,0.062l-0.301,0.061l-0.302,0.058l-0.302,0.057l-0.303,0.055l-0.303,0.053l-0.304,0.051l-0.305,0.049l-0.306,0.048l-0.306,0.045l-0.306,0.044l-0.307,0.042l-0.308,0.04l-0.309,0.038l-0.308,0.036l-0.31,0.034l-0.31,0.033l-0.311,0.03l-0.311,0.029l-0.312,0.026l-0.312,0.025l-0.313,0.023l-0.313,0.02l-0.314,0.019l-0.314,0.017l-0.315,0.015l-0.315,0.013l-0.316,0.011l-0.316,0.009l-0.317,0.007l-0.318,0.005l-0.317,0.003l-0.319,0.001l-0.318,-0.001l-0.318,-0.003l-0.317,-0.005l-0.317,-0.007l-0.316,-0.009l-0.316,-0.011l-0.315,-0.013l-0.315,-0.015l-0.314,-0.017l-0.314,-0.019l-0.313,-0.02l-0.313,-0.023l-0.313,-0.025l-0.311,-0.026l-0.311,-0.029l-0.311,-0.03l-0.31,-0.033l-0.31,-0.034l-0.309,-0.036l-0.308,-0.038l-0.308,-0.04l-0.307,-0.042l-0.306,-0.044l-0.306,-0.045l-0.306,-0.048l-0.305,-0.049l-0.304,-0.051l-0.303,-0.053l-0.303,-0.055l-0.302,-0.057l-0.302,-0.058l-0.301,-0.061l-0.3,-0.062l-0.3,-0.064l-0.299,-0.066l-0.298,-0.067l-0.297,-0.07l-0.297,-0.071l-0.296,-0.073l-0.296,-0.075l-0.295,-0.076l-0.294,-0.078l-0.293,-0.08l-0.293,-0.082l-0.291,-0.084l-0.292,-0.085l-0.29,-0.087l-0.29,-0.089l-0.288,-0.09l-0.288,-0.092l-0.288,-0.094l-0.286,-0.096l-0.286,-0.097l-0.285,-0.099l-0.284,-0.101l-0.284,-0.102l-0.282,-0.104l-0.282,-0.106l-0.281,-0.107l-0.28,-0.109l-0.279,-0.111l-0.278,-0.112l-0.278,-0.114l-0.276,-0.116l-0.276,-0.117l-0.275,-0.119l-0.274,-0.12l-0.273,-0.122l-0.273,-0.124l-0.271,-0.125l-0.271,-0.127l-0.269,-0.129l-0.269,-0.13l-0.268,-0.131l-0.267,-0.133l-0.266,-0.135l-0.265,-0.136l-0.264,-0.138l-0.263,-0.139l-0.262,-0.141l-0.261,-0.142l-0.261,-0.144l-0.259,-0.146l-0.258,-0.147l-0.258,-0.148l-0.256,-0.15l-0.255,-0.151l-0.255,-0.153l-0.253,-0.155l-0.252,-0.156l-0.252,-0.157l-0.25,-0.159l-0.249,-0.16l-0.249,-0.162l-0.247,-0.163l-0.246,-0.164l-0.245,-0.166l-0.244,-0.168l-0.243,-0.169l-0.242,-0.17l-0.241,-0.172l-0.239,-0.173l-0.239,-0.174l-0.238,-0.176l-0.236,-0.177l-0.235,-0.179l-0.235,-0.18l-0.233,-0.181l-0.232,-0.183l-0.231,-0.184l-0.229,-0.186l-0.229,-0.186l-0.227,-0.188l-0.227,-0.19l-0.225,-0.191l-0.224,-0.192l-0.222,-0.193l-0.222,-0.195l-0.22,-0.196l-0.22,-0.197l-0.218,-0.199l-0.216,-0.2l-0.216,-0.201l-0.214,-0.202l-0.214,-0.204l-0.212,-0.205l-0.21,-0.206l-0.21,-0.207l-0.208,-0.209l-0.207,-0.21l-0.206,-0.211l-0.204,-0.212l-0.203,-0.214l-0.202,-0.215l-0.201,-0.216l-0.199,-0.217l-0.198,-0.218l-0.197,-0.22l-0.196,-0.22l-0.194,-0.222l-0.193,-0.224l-0.191,-0.224l-0.19,-0.225l-0.189,-0.227l-0.188,-0.227l-0.186,-0.229l-0.185,-0.23l-0.183,-0.231l-0.182,-0.233l-0.181,-0.233l-0.179,-0.234l-0.178,-0.236l-0.177,-0.237l-0.175,-0.237l-0.174,-0.239l-0.172,-0.24l-0.171,-0.241l-0.17,-0.242l-0.168,-0.243l-0.166,-0.245l-0.166,-0.245l-0.163,-0.246l-0.163,-0.247l-0.161,-0.249l-0.159,-0.249l-0.158,-0.251l-0.157,-0.251l-0.155,-0.252l-0.153,-0.254l-0.152,-0.254l-0.151,-0.256l-0.149,-0.256l-0.147,-0.258l-0.146,-0.258l-0.145,-0.259l-0.143,-0.26l-0.141,-0.262l-0.14,-0.262l-0.139,-0.263l-0.136,-0.264l-0.136,-0.265l-0.133,-0.266l-0.132,-0.267l-0.131,-0.268l-0.129,-0.268l-0.127,-0.27l-0.126,-0.27l-0.124,-0.272l-0.123,-0.272l-0.121,-0.273l-0.119,-0.274l-0.118,-0.275l-0.116,-0.276l-0.114,-0.276l-0.113,-0.277l-0.111,-0.279l-0.109,-0.279l-0.108,-0.28l-0.106,-0.28l-0.105,-0.282l-0.103,-0.282l-0.101,-0.283l-0.099,-0.284l-0.098,-0.285l-0.096,-0.286l-0.094,-0.286l-0.093,-0.287l-0.091,-0.288l-0.089,-0.288l-0.087,-0.29l-0.086,-0.29l-0.084,-0.291l-0.082,-0.291l-0.08,-0.293l-0.079,-0.293l-0.077,-0.293l-0.075,-0.295l-0.073,-0.295l-0.072,-0.296l-0.069,-0.296l-0.068,-0.298l-0.066,-0.297l-0.065,-0.299l-0.062,-0.299l-0.061,-0.3l-0.058,-0.301l-0.057,-0.301l-0.056,-0.302l-0.053,-0.302l-0.051,-0.303l-0.05,-0.304l-0.047,-0.304l-0.046,-0.305l-0.044,-0.306l-0.042,-0.306l-0.04,-0.307l-0.038,-0.307l-0.037,-0.308l-0.034,-0.308l-0.033,-0.309l-0.03,-0.31l-0.029,-0.31l-0.027,-0.311l-0.024,-0.311l-0.023,-0.312l-0.021,-0.312l-0.019,-0.312l-0.017,-0.314l-0.015,-0.314l-0.013,-0.314l-0.011,-0.315l-0.009,-0.315l-0.007,-0.316l-0.005,-0.316l-0.003,-0.316l-0.001,-0.318l0.001,-0.317l0.003,-0.316l0.005,-0.317l0.007,-0.315l0.009,-0.316l0.011,-0.314l0.013,-0.315l0.015,-0.313l0.017,-0.314l0.019,-0.312l0.021,-0.313l0.023,-0.311l0.024,-0.312l0.027,-0.31l0.029,-0.31l0.03,-0.31l0.033,-0.309l0.034,-0.308l0.037,-0.308l0.038,-0.308l0.04,-0.306l0.042,-0.306l0.044,-0.306l0.046,-0.305l0.047,-0.304l0.05,-0.304l0.051,-0.303l0.053,-0.303l0.056,-0.301l0.057,-0.302l0.058,-0.3l0.061,-0.3l0.062,-0.299l0.065,-0.299l0.066,-0.298l0.068,-0.297l0.069,-0.297l0.072,-0.295l0.073,-0.295l0.075,-0.295l0.077,-0.294l0.079,-0.293l0.08,-0.292l0.082,-0.292l0.084,-0.29l0.086,-0.291l0.087,-0.289l0.089,-0.288l0.091,-0.288l0.093,-0.287l0.094,-0.287l0.096,-0.285l0.098,-0.285l0.099,-0.284l0.101,-0.283l0.103,-0.282l0.105,-0.282l0.106,-0.281l0.108,-0.28l0.109,-0.279l0.111,-0.278l0.113,-0.277l0.114,-0.277l0.116,-0.275l0.118,-0.275l0.119,-0.274l0.121,-0.273l0.123,-0.273l0.124,-0.271l0.126,-0.27l0.127,-0.27l0.129,-0.269l0.131,-0.268l0.132,-0.266l0.133,-0.266l0.136,-0.265l0.137,-0.264l0.138,-0.263l0.14,-0.263l0.141,-0.261l0.143,-0.26l0.145,-0.259l0.146,-0.259l0.147,-0.257l0.149,-0.257l0.151,-0.255l0.152,-0.254l0.153,-0.254l0.155,-0.252l0.157,-0.252l0.158,-0.25l0.159,-0.25l0.161,-0.248l0.163,-0.247l0.163,-0.247l0.166,-0.245l0.166,-0.244l0.168,-0.243l0.17,-0.242l0.171,-0.241l0.172,-0.24l0.174,-0.239l0.175,-0.238l0.177,-0.236l0.178,-0.236l0.179,-0.234l0.181,-0.234l0.182,-0.232l0.183,-0.231l0.185,-0.23l0.186,-0.229l0.188,-0.228l0.189,-0.226l0.19,-0.226l0.191,-0.224l0.193,-0.223l0.194,-0.222l0.196,-0.221l0.197,-0.219l0.198,-0.219l0.199,-0.217l0.201,-0.216l0.202,-0.215l0.203,-0.213l0.204,-0.212l0.206,-0.212l0.207,-0.209l0.208,-0.209l0.21,-0.208l0.21,-0.206l0.212,-0.205l0.214,-0.203l0.214,-0.203l0.216,-0.201l0.216,-0.2l0.218,-0.198l0.22,-0.198l0.22,-0.196l0.222,-0.194l0.222,-0.194l0.224,-0.192l0.225,-0.191l0.227,-0.189l0.227,-0.188l0.229,-0.187l0.229,-0.185l0.231,-0.184l0.232,-0.183l0.233,-0.181l0.235,-0.18l0.235,-0.179l0.236,-0.177l0.238,-0.176l0.239,-0.175l0.239,-0.173l0.241,-0.171l0.242,-0.171l0.243,-0.169l0.244,-0.167l0.245,-0.166l0.246,-0.165l0.247,-0.163l0.249,-0.161l0.249,-0.161l0.25,-0.158l0.252,-0.158l0.252,-0.156l0.253,-0.154l0.255,-0.153l0.255,-0.151l0.256,-0.15l0.258,-0.149l0.258,-0.147l0.259,-0.145l0.261,-0.144l0.261,-0.142l0.262,-0.141l0.263,-0.14l0.264,-0.137l0.265,-0.137l0.266,-0.134l0.267,-0.133l0.268,-0.132l0.269,-0.13l0.269,-0.128l0.271,-0.127l0.271,-0.125l0.273,-0.124l0.273,-0.122l0.274,-0.121l0.275,-0.118l0.276,-0.118l0.276,-0.115l0.278,-0.114l0.278,-0.112l0.279,-0.111l0.28,-0.109l0.281,-0.107l0.282,-0.106l0.282,-0.104l0.284,-0.103l0.284,-0.1l0.285,-0.099l0.286,-0.098l0.286,-0.095l0.288,-0.094l0.288,-0.092l0.288,-0.091l0.29,-0.088l0.29,-0.087l0.292,-0.086l0.291,-0.083l0.293,-0.082l0.293,-0.08l0.294,-0.078l0.295,-0.077l0.296,-0.075l0.296,-0.073l0.297,-0.071l0.297,-0.069l0.298,-0.068l0.299,-0.066l0.3,-0.064l0.3,-0.062l0.301,-0.06l0.302,-0.059l0.302,-0.056l0.303,-0.055l0.303,-0.053l0.304,-0.052l0.305,-0.049l0.306,-0.047l0.306,-0.046l0.306,-0.044l0.307,-0.041l0.308,-0.04l0.308,-0.038l0.309,-0.037l0.31,-0.034l0.31,-0.032l0.311,-0.031l0.311,-0.028l0.311,-0.027l0.313,-0.024l0.313,-0.023l0.313,-0.021l0.314,-0.019l0.314,-0.017l0.315,-0.015l0.315,-0.012l0.316,-0.011l0.316,-0.009l0.317,-0.007l0.317,-0.005l0.318,-0.003l0.318,-0.001l0.319,0.001Zm-0.611,4l-0.293,0.002l-0.292,0.005l-0.292,0.006l-0.291,0.009l-0.29,0.01l-0.291,0.012l-0.289,0.013l-0.289,0.016l-0.289,0.017l-0.288,0.019l-0.288,0.021l-0.287,0.023l-0.287,0.024l-0.286,0.026l-0.285,0.028l-0.286,0.03l-0.284,0.032l-0.284,0.033l-0.283,0.035l-0.283,0.037l-0.283,0.038l-0.281,0.04l-0.282,0.042l-0.28,0.044l-0.28,0.045l-0.28,0.047l-0.278,0.049l-0.279,0.05l-0.277,0.052l-0.277,0.054l-0.277,0.056l-0.276,0.057l-0.275,0.058l-0.274,0.061l-0.274,0.062l-0.274,0.064l-0.272,0.065l-0.273,0.067l-0.271,0.069l-0.271,0.07l-0.27,0.072l-0.269,0.074l-0.269,0.075l-0.268,0.076l-0.267,0.079l-0.267,0.08l-0.266,0.081l-0.265,0.083l-0.265,0.085l-0.263,0.086l-0.264,0.088l-0.262,0.089l-0.262,0.091l-0.261,0.093l-0.26,0.094l-0.259,0.095l-0.259,0.097l-0.258,0.099l-0.257,0.1l-0.257,0.102l-0.255,0.103l-0.255,0.104l-0.254,0.107l-0.254,0.107l-0.252,0.109l-0.252,0.111l-0.251,0.112l-0.25,0.114l-0.249,0.115l-0.249,0.116l-0.248,0.118l-0.246,0.12l-0.246,0.12l-0.246,0.123l-0.244,0.123l-0.243,0.126l-0.243,0.126l-0.242,0.128l-0.241,0.13l-0.24,0.13l-0.239,0.133l-0.238,0.133l-0.237,0.135l-0.237,0.137l-0.235,0.137l-0.235,0.139l-0.233,0.141l-0.233,0.142l-0.232,0.143l-0.231,0.145l-0.23,0.145l-0.229,0.148l-0.228,0.148l-0.227,0.15l-0.227,0.151l-0.225,0.153l-0.224,0.154l-0.223,0.155l-0.223,0.157l-0.221,0.157l-0.22,0.159l-0.22,0.161l-0.218,0.161l-0.217,0.163l-0.217,0.165l-0.215,0.165l-0.214,0.167l-0.213,0.168l-0.213,0.169l-0.211,0.17l-0.21,0.172l-0.209,0.173l-0.208,0.174l-0.207,0.175l-0.205,0.177l-0.205,0.177l-0.204,0.179l-0.202,0.181l-0.202,0.181l-0.2,0.182l-0.2,0.184l-0.198,0.185l-0.197,0.186l-0.196,0.187l-0.195,0.189l-0.193,0.189l-0.193,0.191l-0.191,0.192l-0.19,0.192l-0.19,0.194l-0.187,0.196l-0.187,0.196l-0.186,0.197l-0.184,0.199l-0.183,0.199l-0.182,0.201l-0.181,0.202l-0.18,0.203l-0.178,0.204l-0.178,0.205l-0.176,0.206l-0.174,0.207l-0.174,0.208l-0.172,0.209l-0.171,0.211l-0.17,0.211l-0.169,0.213l-0.167,0.213l-0.166,0.214l-0.165,0.216l-0.163,0.216l-0.162,0.218l-0.161,0.218l-0.16,0.22l-0.159,0.22l-0.157,0.221l-0.155,0.223l-0.155,0.223l-0.153,0.224l-0.152,0.226l-0.15,0.226l-0.149,0.227l-0.148,0.228l-0.147,0.229l-0.145,0.23l-0.143,0.231l-0.143,0.232l-0.141,0.233l-0.139,0.233l-0.139,0.235l-0.137,0.235l-0.135,0.237l-0.134,0.237l-0.133,0.238l-0.131,0.239l-0.13,0.24l-0.128,0.241l-0.127,0.241l-0.126,0.243l-0.124,0.243l-0.123,0.244l-0.121,0.245l-0.12,0.246l-0.118,0.247l-0.117,0.247l-0.116,0.248l-0.114,0.25l-0.112,0.249l-0.111,0.251l-0.11,0.252l-0.108,0.252l-0.106,0.253l-0.105,0.254l-0.104,0.254l-0.102,0.256l-0.1,0.256l-0.099,0.257l-0.098,0.257l-0.096,0.259l-0.094,0.259l-0.093,0.26l-0.091,0.26l-0.09,0.261l-0.088,0.262l-0.086,0.263l-0.085,0.264l-0.083,0.264l-0.082,0.265l-0.08,0.265l-0.079,0.266l-0.077,0.267l-0.075,0.268l-0.074,0.268l-0.072,0.269l-0.071,0.269l-0.069,0.271l-0.067,0.27l-0.066,0.272l-0.064,0.272l-0.062,0.273l-0.061,0.273l-0.059,0.274l-0.057,0.275l-0.055,0.275l-0.054,0.276l-0.053,0.276l-0.05,0.277l-0.049,0.278l-0.047,0.278l-0.046,0.279l-0.044,0.28l-0.042,0.279l-0.04,0.281l-0.039,0.281l-0.036,0.282l-0.035,0.282l-0.034,0.283l-0.031,0.283l-0.03,0.284l-0.028,0.284l-0.027,0.285l-0.024,0.285l-0.023,0.286l-0.021,0.287l-0.019,0.287l-0.017,0.287l-0.016,0.288l-0.014,0.288l-0.012,0.289l-0.01,0.29l-0.008,0.289l-0.007,0.291l-0.004,0.29l-0.003,0.292l-0.001,0.291l0.001,0.292l0.003,0.291l0.004,0.291l0.007,0.29l0.008,0.29l0.01,0.29l0.012,0.288l0.014,0.289l0.016,0.288l0.017,0.287l0.019,0.287l0.021,0.287l0.023,0.285l0.024,0.286l0.027,0.285l0.028,0.284l0.03,0.284l0.031,0.283l0.034,0.283l0.035,0.282l0.036,0.282l0.039,0.281l0.04,0.28l0.042,0.28l0.044,0.28l0.046,0.278l0.047,0.279l0.049,0.277l0.05,0.277l0.053,0.277l0.054,0.276l0.055,0.275l0.057,0.274l0.059,0.275l0.061,0.273l0.062,0.273l0.064,0.272l0.066,0.271l0.067,0.271l0.069,0.27l0.071,0.27l0.072,0.269l0.074,0.268l0.075,0.268l0.077,0.266l0.079,0.267l0.08,0.265l0.082,0.265l0.083,0.264l0.085,0.264l0.086,0.262l0.088,0.262l0.09,0.262l0.091,0.26l0.093,0.26l0.094,0.259l0.096,0.258l0.098,0.258l0.099,0.257l0.1,0.256l0.102,0.255l0.104,0.255l0.105,0.254l0.106,0.253l0.108,0.252l0.11,0.252l0.111,0.25l0.112,0.25l0.114,0.249l0.116,0.249l0.117,0.247l0.118,0.247l0.12,0.245l0.121,0.245l0.123,0.245l0.124,0.243l0.126,0.242l0.127,0.242l0.128,0.241l0.13,0.239l0.131,0.239l0.133,0.239l0.134,0.237l0.135,0.236l0.137,0.236l0.139,0.234l0.139,0.234l0.141,0.233l0.143,0.231l0.143,0.231l0.145,0.23l0.147,0.229l0.148,0.229l0.149,0.227l0.15,0.226l0.152,0.225l0.153,0.225l0.155,0.223l0.155,0.222l0.157,0.222l0.159,0.22l0.159,0.219l0.161,0.219l0.163,0.217l0.163,0.217l0.165,0.215l0.166,0.215l0.167,0.213l0.169,0.213l0.17,0.211l0.171,0.21l0.172,0.209l0.174,0.208l0.174,0.208l0.176,0.206l0.178,0.205l0.178,0.204l0.18,0.203l0.181,0.201l0.182,0.201l0.183,0.2l0.184,0.198l0.186,0.198l0.187,0.196l0.187,0.195l0.19,0.194l0.19,0.193l0.191,0.192l0.193,0.191l0.193,0.189l0.195,0.188l0.196,0.188l0.197,0.186l0.198,0.184l0.2,0.184l0.2,0.183l0.201,0.181l0.203,0.18l0.204,0.179l0.205,0.178l0.205,0.176l0.207,0.176l0.208,0.174l0.209,0.173l0.21,0.171l0.211,0.171l0.213,0.169l0.213,0.168l0.214,0.167l0.215,0.165l0.217,0.164l0.217,0.163l0.218,0.162l0.22,0.16l0.22,0.159l0.221,0.158l0.223,0.156l0.223,0.156l0.224,0.153l0.225,0.153l0.227,0.151l0.227,0.15l0.228,0.149l0.229,0.147l0.23,0.146l0.231,0.144l0.232,0.144l0.233,0.142l0.233,0.14l0.235,0.139l0.235,0.138l0.237,0.136l0.237,0.135l0.238,0.134l0.239,0.132l0.24,0.131l0.241,0.129l0.242,0.128l0.243,0.127l0.243,0.125l0.244,0.124l0.246,0.122l0.246,0.121l0.246,0.119l0.248,0.118l0.249,0.117l0.249,0.115l0.25,0.113l0.251,0.112l0.252,0.111l0.252,0.109l0.254,0.108l0.254,0.106l0.255,0.105l0.255,0.103l0.257,0.101l0.257,0.101l0.258,0.098l0.259,0.097l0.259,0.096l0.26,0.094l0.261,0.092l0.262,0.091l0.262,0.09l0.264,0.087l0.263,0.087l0.265,0.084l0.265,0.083l0.266,0.082l0.267,0.08l0.267,0.078l0.268,0.077l0.269,0.075l0.269,0.073l0.27,0.072l0.271,0.071l0.271,0.068l0.273,0.067l0.272,0.066l0.274,0.063l0.273,0.063l0.275,0.06l0.275,0.059l0.276,0.057l0.277,0.055l0.277,0.054l0.277,0.052l0.279,0.051l0.278,0.048l0.28,0.047l0.28,0.046l0.28,0.043l0.282,0.042l0.281,0.04l0.283,0.039l0.283,0.037l0.283,0.034l0.284,0.034l0.284,0.031l0.286,0.03l0.285,0.028l0.286,0.026l0.287,0.025l0.287,0.022l0.288,0.021l0.288,0.019l0.289,0.018l0.289,0.015l0.289,0.014l0.291,0.012l0.29,0.01l0.291,0.008l0.292,0.007l0.292,0.004l0.293,0.003l0.292,0.001l0.293,-0.001l0.293,-0.003l0.292,-0.004l0.292,-0.007l0.291,-0.008l0.29,-0.01l0.29,-0.012l0.29,-0.014l0.289,-0.015l0.289,-0.018l0.288,-0.019l0.288,-0.021l0.287,-0.022l0.287,-0.025l0.286,-0.026l0.285,-0.028l0.285,-0.03l0.285,-0.031l0.284,-0.034l0.283,-0.034l0.283,-0.037l0.283,-0.039l0.281,-0.04l0.281,-0.042l0.281,-0.043l0.28,-0.046l0.28,-0.047l0.278,-0.048l0.279,-0.051l0.277,-0.052l0.277,-0.054l0.277,-0.055l0.276,-0.057l0.275,-0.059l0.274,-0.06l0.274,-0.063l0.274,-0.063l0.272,-0.066l0.272,-0.067l0.272,-0.068l0.271,-0.071l0.27,-0.072l0.269,-0.073l0.269,-0.075l0.268,-0.077l0.267,-0.078l0.267,-0.08l0.266,-0.082l0.265,-0.083l0.265,-0.084l0.263,-0.087l0.264,-0.087l0.262,-0.09l0.262,-0.091l0.261,-0.092l0.26,-0.094l0.259,-0.096l0.259,-0.097l0.258,-0.098l0.257,-0.101l0.257,-0.101l0.255,-0.103l0.255,-0.105l0.254,-0.106l0.254,-0.108l0.252,-0.109l0.252,-0.111l0.251,-0.112l0.25,-0.113l0.249,-0.115l0.249,-0.117l0.248,-0.118l0.246,-0.119l0.247,-0.121l0.245,-0.122l0.244,-0.124l0.243,-0.125l0.243,-0.127l0.242,-0.128l0.241,-0.129l0.24,-0.131l0.239,-0.132l0.238,-0.134l0.237,-0.135l0.237,-0.136l0.235,-0.138l0.235,-0.139l0.234,-0.14l0.232,-0.142l0.232,-0.143l0.231,-0.145l0.23,-0.146l0.229,-0.147l0.228,-0.149l0.228,-0.15l0.226,-0.151l0.225,-0.153l0.224,-0.153l0.224,-0.156l0.222,-0.156l0.221,-0.158l0.22,-0.159l0.22,-0.16l0.218,-0.162l0.217,-0.163l0.217,-0.164l0.215,-0.165l0.214,-0.167l0.213,-0.168l0.213,-0.169l0.211,-0.171l0.21,-0.171l0.209,-0.173l0.208,-0.174l0.207,-0.176l0.206,-0.176l0.204,-0.178l0.204,-0.179l0.203,-0.18l0.201,-0.181l0.201,-0.183l0.199,-0.184l0.198,-0.184l0.197,-0.186l0.196,-0.188l0.195,-0.188l0.193,-0.189l0.193,-0.191l0.191,-0.192l0.191,-0.193l0.189,-0.194l0.188,-0.195l0.186,-0.196l0.186,-0.198l0.184,-0.198l0.184,-0.2l0.182,-0.201l0.181,-0.201l0.179,-0.203l0.178,-0.204l0.178,-0.205l0.176,-0.206l0.175,-0.208l0.173,-0.208l0.172,-0.209l0.171,-0.21l0.17,-0.212l0.169,-0.212l0.167,-0.213l0.166,-0.215l0.165,-0.215l0.163,-0.217l0.163,-0.217l0.161,-0.218l0.159,-0.22l0.159,-0.22l0.157,-0.222l0.155,-0.222l0.155,-0.223l0.153,-0.225l0.152,-0.225l0.15,-0.226l0.149,-0.227l0.148,-0.229l0.147,-0.229l0.145,-0.23l0.144,-0.231l0.142,-0.231l0.141,-0.233l0.14,-0.234l0.138,-0.234l0.137,-0.236l0.135,-0.236l0.134,-0.237l0.133,-0.238l0.131,-0.24l0.13,-0.239l0.128,-0.241l0.128,-0.242l0.125,-0.242l0.124,-0.243l0.123,-0.245l0.121,-0.245l0.12,-0.246l0.119,-0.246l0.116,-0.248l0.116,-0.248l0.114,-0.249l0.112,-0.25l0.111,-0.25l0.11,-0.252l0.108,-0.252l0.106,-0.253l0.105,-0.254l0.104,-0.255l0.102,-0.255l0.1,-0.256l0.099,-0.257l0.098,-0.258l0.096,-0.258l0.094,-0.259l0.093,-0.26l0.091,-0.26l0.09,-0.262l0.088,-0.262l0.086,-0.262l0.085,-0.264l0.084,-0.264l0.081,-0.265l0.081,-0.265l0.078,-0.267l0.077,-0.267l0.076,-0.267l0.073,-0.268l0.073,-0.269l0.07,-0.27l0.069,-0.27l0.067,-0.271l0.066,-0.271l0.064,-0.272l0.062,-0.273l0.061,-0.273l0.059,-0.275l0.057,-0.274l0.056,-0.275l0.054,-0.276l0.052,-0.277l0.05,-0.277l0.049,-0.277l0.048,-0.279l0.045,-0.278l0.044,-0.28l0.042,-0.28l0.04,-0.28l0.039,-0.281l0.037,-0.282l0.035,-0.282l0.033,-0.283l0.032,-0.283l0.029,-0.284l0.029,-0.284l0.026,-0.285l0.024,-0.286l0.023,-0.285l0.021,-0.287l0.019,-0.287l0.018,-0.287l0.015,-0.288l0.014,-0.288l0.012,-0.289l0.01,-0.29l0.008,-0.29l0.007,-0.29l0.004,-0.291l0.003,-0.291l0.001,-0.292l-0.001,-0.291l-0.003,-0.291l-0.004,-0.291l-0.007,-0.291l-0.008,-0.289l-0.01,-0.29l-0.012,-0.289l-0.014,-0.288l-0.015,-0.288l-0.018,-0.287l-0.019,-0.287l-0.021,-0.287l-0.023,-0.286l-0.024,-0.285l-0.026,-0.285l-0.029,-0.284l-0.029,-0.284l-0.032,-0.283l-0.033,-0.283l-0.035,-0.282l-0.037,-0.282l-0.039,-0.281l-0.04,-0.28l-0.042,-0.28l-0.044,-0.28l-0.045,-0.279l-0.048,-0.278l-0.049,-0.278l-0.05,-0.276l-0.052,-0.277l-0.054,-0.276l-0.056,-0.275l-0.057,-0.275l-0.059,-0.274l-0.061,-0.273l-0.062,-0.273l-0.064,-0.272l-0.066,-0.272l-0.067,-0.27l-0.069,-0.271l-0.07,-0.269l-0.073,-0.269l-0.073,-0.268l-0.076,-0.268l-0.077,-0.267l-0.078,-0.266l-0.081,-0.266l-0.081,-0.264l-0.084,-0.264l-0.085,-0.264l-0.086,-0.263l-0.088,-0.262l-0.09,-0.261l-0.091,-0.26l-0.093,-0.26l-0.094,-0.259l-0.096,-0.259l-0.098,-0.257l-0.099,-0.257l-0.1,-0.256l-0.102,-0.256l-0.104,-0.254l-0.105,-0.254l-0.106,-0.253l-0.108,-0.253l-0.11,-0.251l-0.111,-0.251l-0.112,-0.25l-0.114,-0.249l-0.116,-0.248l-0.116,-0.247l-0.119,-0.247l-0.12,-0.246l-0.121,-0.245l-0.123,-0.244l-0.124,-0.243l-0.125,-0.243l-0.128,-0.241l-0.128,-0.241l-0.13,-0.24l-0.131,-0.239l-0.133,-0.238l-0.134,-0.237l-0.135,-0.237l-0.137,-0.235l-0.138,-0.235l-0.14,-0.233l-0.141,-0.233l-0.142,-0.232l-0.144,-0.231l-0.145,-0.23l-0.147,-0.229l-0.148,-0.228l-0.149,-0.227l-0.15,-0.226l-0.152,-0.226l-0.153,-0.224l-0.155,-0.223l-0.155,-0.223l-0.157,-0.221l-0.159,-0.22l-0.159,-0.22l-0.161,-0.218l-0.163,-0.218l-0.163,-0.216l-0.165,-0.216l-0.166,-0.214l-0.167,-0.214l-0.169,-0.212l-0.17,-0.211l-0.171,-0.211l-0.172,-0.209l-0.173,-0.208l-0.175,-0.207l-0.176,-0.206l-0.178,-0.205l-0.178,-0.204l-0.179,-0.203l-0.181,-0.202l-0.182,-0.201l-0.184,-0.199l-0.184,-0.199l-0.186,-0.197l-0.186,-0.196l-0.188,-0.195l-0.189,-0.195l-0.191,-0.193l-0.191,-0.191l-0.193,-0.191l-0.193,-0.189l-0.195,-0.189l-0.196,-0.187l-0.197,-0.186l-0.198,-0.185l-0.199,-0.184l-0.201,-0.182l-0.201,-0.181l-0.203,-0.181l-0.204,-0.179l-0.204,-0.177l-0.206,-0.177l-0.207,-0.175l-0.208,-0.174l-0.209,-0.173l-0.21,-0.172l-0.211,-0.17l-0.213,-0.169l-0.213,-0.168l-0.214,-0.167l-0.215,-0.165l-0.217,-0.165l-0.217,-0.163l-0.218,-0.161l-0.22,-0.161l-0.22,-0.159l-0.221,-0.157l-0.222,-0.157l-0.224,-0.155l-0.224,-0.154l-0.225,-0.153l-0.226,-0.151l-0.228,-0.15l-0.228,-0.148l-0.229,-0.148l-0.23,-0.145l-0.231,-0.145l-0.232,-0.143l-0.232,-0.142l-0.234,-0.141l-0.235,-0.139l-0.235,-0.137l-0.237,-0.137l-0.237,-0.135l-0.238,-0.133l-0.239,-0.133l-0.24,-0.13l-0.241,-0.13l-0.242,-0.128l-0.243,-0.126l-0.243,-0.126l-0.244,-0.123l-0.246,-0.123l-0.246,-0.12l-0.246,-0.12l-0.248,-0.118l-0.249,-0.116l-0.249,-0.115l-0.25,-0.114l-0.251,-0.112l-0.252,-0.111l-0.252,-0.109l-0.253,-0.107l-0.255,-0.107l-0.255,-0.104l-0.255,-0.103l-0.257,-0.102l-0.257,-0.1l-0.258,-0.099l-0.259,-0.097l-0.259,-0.095l-0.26,-0.094l-0.261,-0.093l-0.262,-0.091l-0.262,-0.089l-0.264,-0.088l-0.263,-0.086l-0.265,-0.085l-0.265,-0.083l-0.266,-0.081l-0.267,-0.08l-0.267,-0.079l-0.268,-0.076l-0.269,-0.075l-0.269,-0.074l-0.27,-0.072l-0.271,-0.07l-0.272,-0.069l-0.272,-0.067l-0.272,-0.065l-0.274,-0.064l-0.274,-0.062l-0.274,-0.061l-0.275,-0.058l-0.276,-0.057l-0.277,-0.056l-0.277,-0.054l-0.277,-0.052l-0.279,-0.05l-0.278,-0.049l-0.28,-0.047l-0.28,-0.045l-0.281,-0.044l-0.281,-0.042l-0.281,-0.04l-0.283,-0.038l-0.283,-0.037l-0.283,-0.035l-0.284,-0.033l-0.285,-0.032l-0.285,-0.03l-0.285,-0.028l-0.286,-0.026l-0.287,-0.024l-0.287,-0.023l-0.288,-0.021l-0.288,-0.019l-0.289,-0.017l-0.289,-0.016l-0.29,-0.013l-0.29,-0.012l-0.29,-0.01l-0.291,-0.009l-0.292,-0.006l-0.292,-0.005l-0.293,-0.002l-0.293,-0.001l-0.292,0.001Z" style="fill:#fff;"/><path d="M642.678,333.444l-0.173,-0.19l0.345,0l-0.172,0.19Zm-3.495,-0.19l-0.173,0.19l-0.173,-0.19l0.346,0Zm-19.75,18.996l-284.386,0c-19.485,0 -35.271,15.789 -35.271,35.273l0,96.258c0,19.485 15.789,35.272 35.271,35.272l609.906,0c19.485,0 35.271,-15.789 35.271,-35.272l0,-96.258c0,-19.486 -15.789,-35.273 -35.271,-35.273l-282.699,0l2.007,0.887l-21.411,-23.534l-2.006,-2.206l-2.007,2.206l-21.411,23.534l2.007,-0.887Z" style="fill:none;"/><path d="M663.139,352.963l281.817,0l0.221,0l0.222,0.002l0.223,0.004l0.222,0.005l0.222,0.006l0.222,0.008l0.221,0.009l0.221,0.011l0.22,0.011l0.221,0.014l0.219,0.014l0.22,0.016l0.219,0.018l0.219,0.018l0.218,0.02l0.218,0.022l0.218,0.023l0.217,0.024l0.217,0.025l0.216,0.027l0.216,0.028l0.216,0.03l0.215,0.03l0.214,0.033l0.215,0.033l0.214,0.035l0.213,0.036l0.213,0.037l0.213,0.039l0.212,0.04l0.211,0.041l0.212,0.042l0.21,0.044l0.21,0.045l0.21,0.047l0.21,0.047l0.208,0.049l0.209,0.05l0.208,0.052l0.207,0.052l0.207,0.054l0.206,0.055l0.206,0.057l0.206,0.057l0.204,0.059l0.205,0.06l0.203,0.062l0.204,0.062l0.202,0.064l0.203,0.065l0.201,0.066l0.201,0.067l0.201,0.069l0.2,0.069l0.199,0.071l0.199,0.072l0.198,0.074l0.198,0.074l0.197,0.076l0.197,0.077l0.196,0.077l0.195,0.08l0.195,0.08l0.194,0.081l0.194,0.083l0.193,0.083l0.192,0.085l0.192,0.086l0.191,0.087l0.19,0.089l0.19,0.089l0.189,0.09l0.189,0.092l0.188,0.092l0.187,0.094l0.187,0.095l0.186,0.096l0.185,0.097l0.185,0.098l0.184,0.099l0.183,0.101l0.183,0.101l0.182,0.103l0.181,0.103l0.18,0.104l0.18,0.106l0.18,0.107l0.178,0.107l0.178,0.109l0.177,0.11l0.176,0.111l0.176,0.112l0.175,0.112l0.174,0.114l0.173,0.115l0.173,0.116l0.172,0.117l0.171,0.118l0.171,0.119l0.169,0.12l0.169,0.121l0.168,0.121l0.168,0.123l0.167,0.124l0.166,0.125l0.165,0.126l0.164,0.127l0.164,0.127l0.162,0.129l0.162,0.13l0.162,0.13l0.16,0.132l0.159,0.132l0.159,0.134l0.158,0.134l0.157,0.135l0.156,0.136l0.156,0.138l0.155,0.138l0.153,0.138l0.153,0.14l0.153,0.141l0.151,0.141l0.15,0.143l0.15,0.144l0.148,0.144l0.148,0.145l0.147,0.146l0.146,0.147l0.146,0.148l0.144,0.149l0.143,0.149l0.143,0.151l0.142,0.151l0.14,0.152l0.14,0.153l0.139,0.154l0.138,0.154l0.137,0.156l0.136,0.156l0.136,0.157l0.134,0.158l0.133,0.159l0.133,0.159l0.132,0.161l0.13,0.161l0.13,0.162l0.128,0.162l0.128,0.164l0.127,0.165l0.126,0.164l0.124,0.166l0.124,0.167l0.123,0.168l0.122,0.168l0.121,0.169l0.12,0.169l0.119,0.171l0.118,0.171l0.117,0.172l0.116,0.173l0.115,0.174l0.114,0.173l0.112,0.175l0.112,0.176l0.111,0.176l0.11,0.178l0.109,0.177l0.107,0.179l0.107,0.179l0.106,0.18l0.104,0.181l0.104,0.181l0.102,0.182l0.101,0.182l0.101,0.184l0.099,0.184l0.098,0.184l0.097,0.186l0.096,0.186l0.095,0.186l0.094,0.188l0.093,0.188l0.091,0.188l0.091,0.189l0.089,0.191l0.088,0.19l0.087,0.191l0.086,0.192l0.085,0.192l0.084,0.193l0.082,0.194l0.082,0.194l0.08,0.195l0.079,0.195l0.078,0.196l0.077,0.197l0.076,0.197l0.074,0.198l0.073,0.198l0.073,0.199l0.071,0.2l0.069,0.2l0.069,0.2l0.067,0.201l0.066,0.202l0.065,0.202l0.064,0.203l0.063,0.203l0.061,0.204l0.06,0.204l0.059,0.205l0.057,0.205l0.057,0.207l0.055,0.206l0.054,0.207l0.053,0.207l0.051,0.208l0.05,0.209l0.049,0.208l0.048,0.21l0.046,0.21l0.045,0.21l0.044,0.211l0.042,0.211l0.042,0.212l0.04,0.212l0.038,0.212l0.038,0.214l0.036,0.214l0.034,0.213l0.034,0.214l0.032,0.215l0.031,0.216l0.029,0.215l0.028,0.216l0.027,0.217l0.026,0.217l0.024,0.217l0.023,0.217l0.021,0.218l0.02,0.219l0.019,0.219l0.017,0.219l0.016,0.219l0.015,0.221l0.013,0.22l0.012,0.22l0.011,0.222l0.009,0.22l0.007,0.222l0.007,0.223l0.005,0.222l0.003,0.222l0.002,0.224l0.001,0.22l0,96.263l-0.001,0.221l-0.002,0.223l-0.003,0.222l-0.005,0.222l-0.007,0.223l-0.007,0.221l-0.009,0.221l-0.011,0.221l-0.012,0.221l-0.013,0.22l-0.015,0.22l-0.016,0.219l-0.017,0.219l-0.019,0.219l-0.02,0.219l-0.021,0.218l-0.023,0.217l-0.024,0.217l-0.026,0.218l-0.026,0.216l-0.028,0.215l-0.03,0.216l-0.031,0.215l-0.032,0.215l-0.033,0.214l-0.035,0.214l-0.036,0.214l-0.037,0.213l-0.039,0.212l-0.04,0.212l-0.041,0.212l-0.043,0.211l-0.044,0.211l-0.044,0.21l-0.047,0.21l-0.048,0.21l-0.048,0.208l-0.05,0.209l-0.052,0.208l-0.053,0.207l-0.053,0.207l-0.056,0.206l-0.056,0.206l-0.058,0.205l-0.058,0.205l-0.06,0.204l-0.062,0.204l-0.062,0.204l-0.064,0.203l-0.065,0.201l-0.066,0.202l-0.067,0.201l-0.069,0.201l-0.07,0.2l-0.07,0.199l-0.073,0.199l-0.073,0.199l-0.074,0.197l-0.076,0.197l-0.077,0.197l-0.078,0.196l-0.079,0.195l-0.08,0.195l-0.081,0.194l-0.083,0.194l-0.084,0.193l-0.084,0.192l-0.086,0.192l-0.087,0.191l-0.089,0.19l-0.089,0.19l-0.09,0.189l-0.092,0.189l-0.092,0.188l-0.094,0.187l-0.095,0.187l-0.096,0.186l-0.097,0.186l-0.098,0.184l-0.099,0.184l-0.101,0.183l-0.101,0.183l-0.102,0.182l-0.104,0.181l-0.104,0.181l-0.106,0.18l-0.107,0.179l-0.107,0.178l-0.109,0.178l-0.11,0.177l-0.111,0.177l-0.111,0.175l-0.113,0.175l-0.114,0.174l-0.115,0.174l-0.116,0.172l-0.117,0.172l-0.118,0.172l-0.119,0.17l-0.119,0.17l-0.121,0.169l-0.122,0.168l-0.123,0.168l-0.124,0.166l-0.125,0.166l-0.126,0.165l-0.126,0.164l-0.128,0.164l-0.129,0.163l-0.129,0.162l-0.131,0.161l-0.131,0.161l-0.133,0.159l-0.133,0.159l-0.134,0.158l-0.136,0.157l-0.136,0.156l-0.137,0.156l-0.138,0.155l-0.139,0.153l-0.14,0.153l-0.14,0.152l-0.142,0.152l-0.143,0.15l-0.143,0.149l-0.144,0.149l-0.146,0.148l-0.146,0.147l-0.146,0.146l-0.148,0.145l-0.149,0.145l-0.149,0.143l-0.151,0.143l-0.151,0.141l-0.152,0.141l-0.153,0.14l-0.154,0.139l-0.155,0.138l-0.155,0.137l-0.156,0.136l-0.157,0.136l-0.158,0.134l-0.159,0.133l-0.16,0.133l-0.16,0.131l-0.161,0.131l-0.162,0.13l-0.163,0.129l-0.163,0.127l-0.164,0.127l-0.166,0.126l-0.165,0.125l-0.167,0.124l-0.168,0.123l-0.168,0.121l-0.169,0.121l-0.169,0.12l-0.171,0.119l-0.171,0.118l-0.172,0.117l-0.173,0.116l-0.173,0.115l-0.175,0.114l-0.174,0.113l-0.176,0.112l-0.177,0.11l-0.176,0.11l-0.178,0.109l-0.179,0.108l-0.179,0.106l-0.18,0.106l-0.18,0.105l-0.182,0.103l-0.181,0.102l-0.183,0.102l-0.184,0.1l-0.183,0.099l-0.185,0.099l-0.186,0.097l-0.185,0.096l-0.187,0.094l-0.187,0.094l-0.189,0.093l-0.188,0.092l-0.189,0.09l-0.19,0.089l-0.191,0.089l-0.191,0.087l-0.191,0.086l-0.193,0.085l-0.193,0.083l-0.193,0.083l-0.195,0.081l-0.194,0.081l-0.196,0.079l-0.195,0.078l-0.197,0.077l-0.198,0.075l-0.197,0.075l-0.199,0.073l-0.198,0.072l-0.2,0.071l-0.2,0.07l-0.2,0.068l-0.202,0.068l-0.201,0.066l-0.202,0.065l-0.203,0.064l-0.203,0.062l-0.204,0.061l-0.205,0.061l-0.204,0.058l-0.206,0.058l-0.206,0.056l-0.206,0.056l-0.207,0.053l-0.207,0.053l-0.208,0.052l-0.209,0.05l-0.209,0.049l-0.209,0.047l-0.21,0.047l-0.21,0.045l-0.211,0.044l-0.211,0.042l-0.212,0.041l-0.212,0.04l-0.213,0.039l-0.213,0.037l-0.213,0.036l-0.214,0.035l-0.215,0.033l-0.215,0.033l-0.215,0.03l-0.215,0.03l-0.216,0.028l-0.217,0.027l-0.217,0.025l-0.217,0.024l-0.217,0.023l-0.219,0.022l-0.218,0.02l-0.219,0.019l-0.219,0.017l-0.219,0.016l-0.22,0.015l-0.221,0.013l-0.22,0.012l-0.221,0.01l-0.222,0.009l-0.221,0.008l-0.222,0.006l-0.223,0.005l-0.222,0.004l-0.223,0.002l-0.22,0.001l-609.913,0l-0.221,-0.001l-0.222,-0.002l-0.223,-0.004l-0.222,-0.005l-0.222,-0.006l-0.222,-0.008l-0.221,-0.009l-0.221,-0.01l-0.221,-0.012l-0.22,-0.013l-0.219,-0.015l-0.22,-0.016l-0.219,-0.017l-0.219,-0.019l-0.218,-0.02l-0.218,-0.022l-0.218,-0.022l-0.217,-0.025l-0.217,-0.025l-0.216,-0.027l-0.216,-0.028l-0.215,-0.029l-0.216,-0.031l-0.215,-0.032l-0.214,-0.034l-0.213,-0.034l-0.214,-0.036l-0.213,-0.038l-0.213,-0.038l-0.212,-0.04l-0.211,-0.042l-0.212,-0.042l-0.21,-0.044l-0.21,-0.045l-0.21,-0.046l-0.21,-0.048l-0.209,-0.049l-0.208,-0.05l-0.208,-0.051l-0.207,-0.053l-0.207,-0.054l-0.206,-0.055l-0.206,-0.056l-0.206,-0.058l-0.204,-0.059l-0.205,-0.06l-0.203,-0.061l-0.204,-0.063l-0.203,-0.064l-0.202,-0.064l-0.201,-0.067l-0.201,-0.067l-0.201,-0.068l-0.2,-0.07l-0.199,-0.071l-0.199,-0.072l-0.198,-0.073l-0.198,-0.075l-0.197,-0.075l-0.197,-0.077l-0.196,-0.078l-0.195,-0.079l-0.195,-0.081l-0.194,-0.081l-0.194,-0.083l-0.193,-0.083l-0.192,-0.085l-0.192,-0.086l-0.191,-0.087l-0.19,-0.088l-0.19,-0.09l-0.189,-0.09l-0.189,-0.092l-0.188,-0.092l-0.187,-0.094l-0.187,-0.095l-0.186,-0.096l-0.185,-0.097l-0.185,-0.098l-0.184,-0.099l-0.183,-0.1l-0.183,-0.102l-0.182,-0.102l-0.181,-0.104l-0.18,-0.104l-0.18,-0.106l-0.18,-0.107l-0.178,-0.107l-0.178,-0.109l-0.177,-0.11l-0.176,-0.11l-0.176,-0.112l-0.175,-0.113l-0.174,-0.114l-0.173,-0.115l-0.173,-0.116l-0.172,-0.117l-0.171,-0.118l-0.171,-0.119l-0.169,-0.119l-0.169,-0.121l-0.168,-0.122l-0.168,-0.123l-0.167,-0.124l-0.166,-0.125l-0.165,-0.126l-0.164,-0.126l-0.164,-0.128l-0.162,-0.129l-0.162,-0.129l-0.161,-0.131l-0.161,-0.131l-0.159,-0.133l-0.159,-0.133l-0.158,-0.135l-0.157,-0.135l-0.156,-0.136l-0.156,-0.137l-0.155,-0.138l-0.153,-0.139l-0.153,-0.14l-0.152,-0.141l-0.152,-0.141l-0.15,-0.143l-0.15,-0.143l-0.148,-0.145l-0.148,-0.145l-0.147,-0.146l-0.146,-0.147l-0.146,-0.148l-0.144,-0.148l-0.143,-0.15l-0.143,-0.15l-0.141,-0.152l-0.141,-0.152l-0.14,-0.153l-0.139,-0.153l-0.138,-0.155l-0.137,-0.156l-0.136,-0.156l-0.136,-0.157l-0.134,-0.158l-0.133,-0.159l-0.133,-0.159l-0.131,-0.16l-0.131,-0.162l-0.13,-0.162l-0.128,-0.162l-0.128,-0.164l-0.127,-0.164l-0.126,-0.165l-0.125,-0.166l-0.123,-0.167l-0.123,-0.167l-0.122,-0.169l-0.121,-0.168l-0.12,-0.17l-0.119,-0.171l-0.118,-0.171l-0.117,-0.172l-0.116,-0.173l-0.115,-0.173l-0.114,-0.174l-0.112,-0.175l-0.112,-0.176l-0.111,-0.176l-0.11,-0.177l-0.109,-0.178l-0.107,-0.179l-0.107,-0.179l-0.106,-0.18l-0.104,-0.18l-0.104,-0.181l-0.102,-0.183l-0.102,-0.182l-0.1,-0.183l-0.099,-0.184l-0.098,-0.185l-0.097,-0.185l-0.096,-0.186l-0.095,-0.187l-0.094,-0.187l-0.093,-0.188l-0.091,-0.189l-0.091,-0.189l-0.089,-0.19l-0.088,-0.191l-0.087,-0.191l-0.086,-0.191l-0.085,-0.193l-0.084,-0.193l-0.082,-0.193l-0.082,-0.195l-0.08,-0.194l-0.079,-0.196l-0.078,-0.196l-0.077,-0.196l-0.076,-0.198l-0.074,-0.197l-0.073,-0.199l-0.073,-0.199l-0.07,-0.199l-0.07,-0.2l-0.069,-0.201l-0.067,-0.201l-0.066,-0.201l-0.065,-0.203l-0.064,-0.202l-0.063,-0.204l-0.061,-0.204l-0.06,-0.204l-0.059,-0.205l-0.057,-0.205l-0.057,-0.206l-0.055,-0.207l-0.054,-0.206l-0.053,-0.208l-0.051,-0.208l-0.05,-0.208l-0.049,-0.209l-0.048,-0.21l-0.046,-0.209l-0.045,-0.211l-0.044,-0.211l-0.042,-0.211l-0.042,-0.212l-0.04,-0.212l-0.038,-0.212l-0.038,-0.213l-0.036,-0.214l-0.034,-0.214l-0.034,-0.214l-0.032,-0.215l-0.031,-0.215l-0.029,-0.216l-0.028,-0.216l-0.027,-0.216l-0.026,-0.217l-0.024,-0.218l-0.023,-0.217l-0.021,-0.218l-0.02,-0.219l-0.019,-0.218l-0.017,-0.22l-0.016,-0.219l-0.015,-0.22l-0.013,-0.22l-0.012,-0.221l-0.01,-0.221l-0.01,-0.221l-0.007,-0.222l-0.007,-0.222l-0.005,-0.223l-0.003,-0.222l-0.002,-0.223l-0.001,-0.22l0,-96.264l0.001,-0.22l0.002,-0.223l0.003,-0.223l0.005,-0.222l0.007,-0.222l0.007,-0.222l0.009,-0.221l0.011,-0.221l0.012,-0.221l0.013,-0.22l0.015,-0.22l0.016,-0.219l0.017,-0.219l0.019,-0.219l0.02,-0.218l0.021,-0.218l0.023,-0.218l0.024,-0.217l0.026,-0.217l0.026,-0.216l0.029,-0.216l0.029,-0.216l0.031,-0.215l0.032,-0.215l0.033,-0.214l0.035,-0.214l0.036,-0.213l0.037,-0.214l0.039,-0.212l0.04,-0.212l0.041,-0.212l0.043,-0.211l0.044,-0.211l0.045,-0.21l0.046,-0.21l0.048,-0.209l0.048,-0.209l0.051,-0.208l0.051,-0.208l0.053,-0.208l0.053,-0.206l0.056,-0.207l0.056,-0.206l0.058,-0.205l0.058,-0.205l0.06,-0.204l0.062,-0.204l0.062,-0.203l0.064,-0.203l0.065,-0.202l0.066,-0.202l0.067,-0.201l0.069,-0.201l0.07,-0.2l0.071,-0.199l0.072,-0.199l0.073,-0.198l0.074,-0.198l0.076,-0.197l0.077,-0.197l0.078,-0.195l0.079,-0.196l0.08,-0.195l0.081,-0.194l0.083,-0.194l0.084,-0.192l0.084,-0.193l0.086,-0.192l0.087,-0.191l0.089,-0.19l0.089,-0.19l0.09,-0.189l0.092,-0.189l0.093,-0.188l0.093,-0.187l0.095,-0.187l0.096,-0.186l0.097,-0.185l0.098,-0.185l0.099,-0.184l0.101,-0.183l0.101,-0.183l0.102,-0.182l0.104,-0.181l0.104,-0.181l0.106,-0.179l0.107,-0.18l0.107,-0.178l0.109,-0.178l0.11,-0.177l0.111,-0.176l0.111,-0.176l0.113,-0.175l0.114,-0.174l0.115,-0.174l0.116,-0.172l0.117,-0.172l0.118,-0.171l0.119,-0.171l0.119,-0.17l0.121,-0.169l0.122,-0.168l0.123,-0.167l0.124,-0.167l0.125,-0.166l0.125,-0.165l0.127,-0.164l0.128,-0.164l0.129,-0.163l0.129,-0.162l0.131,-0.161l0.131,-0.16l0.133,-0.16l0.133,-0.159l0.134,-0.158l0.136,-0.157l0.136,-0.156l0.137,-0.155l0.138,-0.155l0.139,-0.154l0.14,-0.153l0.14,-0.152l0.142,-0.151l0.143,-0.151l0.143,-0.149l0.144,-0.149l0.145,-0.148l0.147,-0.147l0.147,-0.146l0.147,-0.145l0.149,-0.144l0.149,-0.144l0.151,-0.142l0.151,-0.142l0.152,-0.141l0.153,-0.14l0.154,-0.139l0.155,-0.138l0.155,-0.137l0.156,-0.136l0.157,-0.135l0.158,-0.135l0.159,-0.133l0.16,-0.133l0.16,-0.131l0.161,-0.131l0.162,-0.129l0.163,-0.129l0.163,-0.128l0.165,-0.127l0.165,-0.126l0.166,-0.124l0.166,-0.124l0.168,-0.123l0.168,-0.122l0.169,-0.121l0.169,-0.12l0.171,-0.119l0.171,-0.118l0.172,-0.117l0.173,-0.116l0.173,-0.115l0.174,-0.114l0.175,-0.112l0.176,-0.112l0.176,-0.111l0.177,-0.11l0.178,-0.109l0.179,-0.107l0.179,-0.107l0.18,-0.106l0.18,-0.104l0.182,-0.104l0.182,-0.102l0.182,-0.102l0.184,-0.1l0.184,-0.099l0.184,-0.098l0.185,-0.097l0.187,-0.096l0.186,-0.095l0.187,-0.094l0.188,-0.093l0.189,-0.091l0.189,-0.091l0.19,-0.089l0.191,-0.088l0.191,-0.088l0.191,-0.085l0.193,-0.085l0.193,-0.084l0.193,-0.083l0.195,-0.081l0.194,-0.08l0.196,-0.08l0.196,-0.077l0.196,-0.077l0.197,-0.076l0.198,-0.074l0.199,-0.074l0.198,-0.072l0.2,-0.071l0.2,-0.07l0.2,-0.068l0.202,-0.067l0.201,-0.067l0.202,-0.065l0.203,-0.063l0.203,-0.063l0.204,-0.061l0.205,-0.06l0.205,-0.059l0.205,-0.058l0.206,-0.056l0.206,-0.055l0.207,-0.054l0.207,-0.053l0.208,-0.051l0.209,-0.05l0.209,-0.049l0.209,-0.048l0.21,-0.046l0.21,-0.045l0.211,-0.044l0.211,-0.043l0.212,-0.041l0.212,-0.04l0.213,-0.039l0.213,-0.037l0.213,-0.036l0.214,-0.035l0.215,-0.033l0.214,-0.032l0.216,-0.031l0.215,-0.03l0.216,-0.028l0.217,-0.027l0.217,-0.025l0.217,-0.024l0.218,-0.023l0.218,-0.021l0.218,-0.021l0.219,-0.018l0.219,-0.018l0.22,-0.016l0.22,-0.014l0.22,-0.014l0.22,-0.011l0.221,-0.011l0.222,-0.009l0.221,-0.008l0.223,-0.006l0.222,-0.005l0.222,-0.004l0.223,-0.002l0.221,0l283.505,0l22.295,-24.507l22.295,24.507Zm-42.822,4l-285.267,0l-0.201,0l-0.198,0.002l-0.197,0.003l-0.197,0.005l-0.197,0.005l-0.196,0.007l-0.196,0.008l-0.196,0.009l-0.195,0.011l-0.196,0.012l-0.194,0.013l-0.195,0.014l-0.194,0.015l-0.193,0.017l-0.193,0.018l-0.193,0.019l-0.193,0.02l-0.192,0.021l-0.192,0.023l-0.191,0.023l-0.192,0.025l-0.19,0.026l-0.19,0.027l-0.19,0.029l-0.19,0.029l-0.189,0.031l-0.189,0.032l-0.188,0.033l-0.188,0.034l-0.187,0.036l-0.187,0.036l-0.187,0.038l-0.186,0.038l-0.186,0.04l-0.186,0.041l-0.185,0.042l-0.184,0.043l-0.184,0.045l-0.184,0.045l-0.183,0.047l-0.183,0.047l-0.183,0.049l-0.181,0.05l-0.182,0.051l-0.181,0.052l-0.18,0.053l-0.18,0.054l-0.18,0.055l-0.179,0.057l-0.179,0.057l-0.178,0.058l-0.178,0.06l-0.177,0.06l-0.176,0.062l-0.177,0.063l-0.175,0.063l-0.176,0.065l-0.174,0.066l-0.174,0.067l-0.174,0.068l-0.173,0.069l-0.173,0.07l-0.172,0.07l-0.171,0.072l-0.172,0.073l-0.17,0.074l-0.17,0.075l-0.169,0.076l-0.169,0.077l-0.169,0.078l-0.168,0.079l-0.167,0.08l-0.166,0.081l-0.166,0.082l-0.166,0.083l-0.165,0.084l-0.164,0.085l-0.164,0.085l-0.163,0.087l-0.163,0.088l-0.162,0.089l-0.162,0.089l-0.16,0.091l-0.161,0.091l-0.159,0.093l-0.159,0.093l-0.159,0.094l-0.158,0.096l-0.157,0.096l-0.156,0.097l-0.156,0.098l-0.156,0.099l-0.154,0.1l-0.154,0.1l-0.154,0.102l-0.152,0.103l-0.152,0.103l-0.152,0.104l-0.151,0.106l-0.15,0.106l-0.149,0.107l-0.149,0.107l-0.148,0.109l-0.148,0.11l-0.146,0.11l-0.146,0.112l-0.146,0.112l-0.144,0.113l-0.144,0.114l-0.144,0.114l-0.142,0.116l-0.142,0.116l-0.141,0.117l-0.141,0.119l-0.139,0.118l-0.139,0.12l-0.139,0.121l-0.137,0.121l-0.137,0.122l-0.136,0.123l-0.136,0.124l-0.134,0.124l-0.134,0.126l-0.133,0.126l-0.132,0.127l-0.132,0.128l-0.131,0.128l-0.13,0.129l-0.129,0.13l-0.128,0.131l-0.128,0.132l-0.127,0.132l-0.126,0.133l-0.125,0.134l-0.125,0.135l-0.124,0.135l-0.123,0.136l-0.122,0.137l-0.121,0.138l-0.121,0.138l-0.119,0.139l-0.119,0.14l-0.118,0.14l-0.117,0.141l-0.117,0.142l-0.115,0.143l-0.115,0.143l-0.114,0.144l-0.113,0.145l-0.112,0.145l-0.111,0.146l-0.11,0.147l-0.11,0.147l-0.109,0.149l-0.107,0.148l-0.107,0.15l-0.107,0.15l-0.105,0.151l-0.104,0.151l-0.103,0.152l-0.103,0.153l-0.101,0.154l-0.101,0.154l-0.1,0.154l-0.099,0.156l-0.098,0.156l-0.097,0.156l-0.096,0.157l-0.095,0.158l-0.094,0.159l-0.094,0.159l-0.092,0.159l-0.092,0.161l-0.09,0.161l-0.09,0.161l-0.088,0.162l-0.088,0.163l-0.087,0.163l-0.086,0.164l-0.084,0.164l-0.084,0.165l-0.083,0.166l-0.082,0.166l-0.081,0.166l-0.08,0.168l-0.079,0.167l-0.078,0.169l-0.077,0.169l-0.076,0.169l-0.074,0.17l-0.074,0.171l-0.073,0.171l-0.072,0.171l-0.071,0.172l-0.07,0.173l-0.069,0.173l-0.068,0.174l-0.067,0.174l-0.065,0.175l-0.065,0.175l-0.064,0.176l-0.062,0.176l-0.062,0.176l-0.06,0.178l-0.06,0.177l-0.058,0.178l-0.058,0.179l-0.056,0.179l-0.055,0.18l-0.054,0.18l-0.053,0.18l-0.052,0.181l-0.051,0.182l-0.05,0.181l-0.049,0.183l-0.047,0.183l-0.047,0.183l-0.045,0.183l-0.045,0.185l-0.043,0.184l-0.042,0.185l-0.041,0.185l-0.04,0.186l-0.038,0.187l-0.038,0.186l-0.036,0.187l-0.036,0.188l-0.034,0.188l-0.033,0.188l-0.032,0.188l-0.03,0.19l-0.03,0.189l-0.028,0.19l-0.027,0.19l-0.027,0.191l-0.024,0.191l-0.024,0.191l-0.023,0.192l-0.021,0.192l-0.02,0.193l-0.019,0.192l-0.018,0.194l-0.016,0.193l-0.016,0.194l-0.014,0.195l-0.013,0.194l-0.012,0.195l-0.01,0.195l-0.009,0.196l-0.008,0.196l-0.007,0.196l-0.006,0.197l-0.004,0.197l-0.003,0.197l-0.002,0.198l-0.001,0.201l0,96.251l0.001,0.202l0.002,0.197l0.003,0.198l0.004,0.197l0.006,0.196l0.007,0.197l0.008,0.196l0.009,0.195l0.01,0.196l0.012,0.195l0.013,0.195l0.014,0.194l0.016,0.194l0.016,0.194l0.018,0.193l0.019,0.193l0.02,0.192l0.021,0.193l0.023,0.191l0.024,0.192l0.025,0.191l0.026,0.191l0.027,0.19l0.028,0.19l0.03,0.189l0.031,0.19l0.031,0.188l0.033,0.189l0.035,0.188l0.035,0.187l0.036,0.187l0.038,0.187l0.039,0.186l0.04,0.186l0.04,0.185l0.043,0.185l0.043,0.185l0.044,0.184l0.046,0.184l0.046,0.183l0.048,0.183l0.048,0.182l0.05,0.182l0.051,0.182l0.052,0.181l0.053,0.18l0.054,0.18l0.056,0.18l0.056,0.179l0.057,0.179l0.059,0.178l0.059,0.177l0.061,0.178l0.061,0.176l0.063,0.176l0.064,0.176l0.065,0.175l0.065,0.175l0.067,0.174l0.068,0.174l0.069,0.173l0.07,0.173l0.071,0.172l0.072,0.172l0.073,0.171l0.074,0.17l0.075,0.17l0.076,0.17l0.077,0.168l0.077,0.169l0.079,0.168l0.08,0.167l0.081,0.167l0.082,0.166l0.083,0.165l0.084,0.165l0.085,0.165l0.086,0.163l0.086,0.164l0.088,0.162l0.089,0.162l0.089,0.162l0.091,0.161l0.091,0.16l0.093,0.16l0.093,0.159l0.095,0.158l0.095,0.158l0.096,0.157l0.097,0.157l0.098,0.156l0.099,0.155l0.1,0.155l0.101,0.154l0.101,0.153l0.103,0.153l0.103,0.152l0.104,0.151l0.106,0.151l0.106,0.15l0.107,0.15l0.107,0.149l0.109,0.148l0.11,0.147l0.11,0.147l0.111,0.146l0.113,0.145l0.113,0.145l0.114,0.144l0.114,0.143l0.116,0.143l0.116,0.142l0.118,0.141l0.118,0.141l0.118,0.139l0.12,0.139l0.121,0.139l0.121,0.137l0.122,0.137l0.123,0.136l0.124,0.135l0.124,0.135l0.126,0.134l0.126,0.133l0.127,0.132l0.127,0.132l0.129,0.13l0.129,0.131l0.13,0.129l0.131,0.128l0.132,0.128l0.132,0.127l0.133,0.126l0.134,0.125l0.134,0.125l0.136,0.124l0.136,0.123l0.137,0.122l0.137,0.121l0.139,0.12l0.139,0.12l0.139,0.119l0.141,0.118l0.141,0.117l0.142,0.117l0.142,0.115l0.144,0.115l0.144,0.114l0.144,0.113l0.146,0.112l0.146,0.111l0.147,0.111l0.147,0.109l0.148,0.109l0.149,0.108l0.149,0.107l0.151,0.106l0.15,0.105l0.152,0.104l0.152,0.104l0.153,0.102l0.153,0.102l0.154,0.1l0.155,0.1l0.155,0.099l0.156,0.098l0.157,0.097l0.157,0.096l0.158,0.095l0.158,0.095l0.159,0.093l0.16,0.092l0.16,0.092l0.161,0.09l0.161,0.09l0.162,0.089l0.163,0.088l0.163,0.086l0.164,0.086l0.164,0.085l0.165,0.084l0.166,0.082l0.166,0.082l0.167,0.081l0.167,0.08l0.168,0.079l0.168,0.078l0.169,0.077l0.169,0.076l0.17,0.075l0.171,0.074l0.171,0.073l0.171,0.072l0.172,0.071l0.173,0.07l0.173,0.069l0.174,0.067l0.174,0.067l0.175,0.066l0.175,0.065l0.176,0.063l0.176,0.063l0.176,0.061l0.177,0.061l0.178,0.06l0.178,0.058l0.179,0.057l0.179,0.057l0.179,0.055l0.181,0.054l0.18,0.053l0.181,0.052l0.182,0.051l0.181,0.05l0.183,0.048l0.182,0.048l0.183,0.047l0.184,0.045l0.184,0.044l0.185,0.043l0.185,0.043l0.185,0.04l0.186,0.04l0.186,0.039l0.187,0.038l0.187,0.036l0.187,0.035l0.188,0.034l0.188,0.033l0.189,0.032l0.189,0.031l0.19,0.03l0.19,0.028l0.19,0.027l0.19,0.026l0.191,0.025l0.192,0.024l0.191,0.022l0.192,0.022l0.193,0.02l0.193,0.019l0.193,0.018l0.193,0.016l0.195,0.015l0.194,0.015l0.194,0.013l0.195,0.011l0.196,0.011l0.195,0.009l0.196,0.008l0.196,0.007l0.197,0.006l0.197,0.004l0.197,0.003l0.198,0.002l0.201,0.001l609.9,0l0.201,-0.001l0.198,-0.002l0.197,-0.003l0.197,-0.004l0.197,-0.006l0.196,-0.007l0.196,-0.008l0.196,-0.009l0.196,-0.011l0.194,-0.011l0.195,-0.013l0.195,-0.015l0.194,-0.015l0.193,-0.017l0.193,-0.017l0.193,-0.019l0.193,-0.02l0.192,-0.022l0.192,-0.022l0.191,-0.024l0.191,-0.025l0.191,-0.026l0.19,-0.027l0.19,-0.029l0.19,-0.029l0.189,-0.031l0.189,-0.032l0.188,-0.033l0.188,-0.034l0.188,-0.035l0.186,-0.037l0.187,-0.037l0.186,-0.039l0.186,-0.04l0.186,-0.041l0.185,-0.042l0.184,-0.043l0.184,-0.044l0.184,-0.046l0.183,-0.046l0.183,-0.048l0.183,-0.049l0.181,-0.05l0.182,-0.051l0.181,-0.052l0.18,-0.053l0.18,-0.054l0.18,-0.055l0.179,-0.056l0.179,-0.058l0.178,-0.058l0.177,-0.06l0.178,-0.06l0.176,-0.062l0.177,-0.062l0.175,-0.064l0.176,-0.065l0.174,-0.066l0.174,-0.067l0.174,-0.067l0.173,-0.069l0.173,-0.07l0.172,-0.071l0.171,-0.072l0.171,-0.073l0.171,-0.074l0.17,-0.075l0.169,-0.076l0.169,-0.077l0.169,-0.078l0.167,-0.079l0.168,-0.08l0.167,-0.081l0.165,-0.082l0.166,-0.083l0.165,-0.083l0.164,-0.085l0.164,-0.086l0.163,-0.087l0.163,-0.088l0.162,-0.088l0.161,-0.09l0.161,-0.09l0.161,-0.092l0.159,-0.092l0.159,-0.094l0.159,-0.094l0.158,-0.095l0.157,-0.097l0.156,-0.097l0.156,-0.098l0.155,-0.098l0.155,-0.1l0.154,-0.101l0.154,-0.102l0.153,-0.102l0.151,-0.104l0.152,-0.104l0.151,-0.105l0.15,-0.106l0.149,-0.107l0.149,-0.108l0.148,-0.109l0.147,-0.109l0.147,-0.111l0.146,-0.111l0.146,-0.112l0.145,-0.114l0.144,-0.113l0.143,-0.115l0.142,-0.115l0.142,-0.117l0.141,-0.117l0.14,-0.118l0.14,-0.119l0.139,-0.12l0.139,-0.12l0.137,-0.122l0.137,-0.122l0.136,-0.123l0.135,-0.123l0.135,-0.125l0.134,-0.126l0.133,-0.126l0.132,-0.127l0.132,-0.127l0.13,-0.129l0.131,-0.129l0.129,-0.13l0.128,-0.131l0.128,-0.131l0.127,-0.133l0.126,-0.133l0.125,-0.134l0.125,-0.134l0.124,-0.136l0.123,-0.136l0.122,-0.137l0.121,-0.137l0.12,-0.138l0.12,-0.14l0.119,-0.139l0.118,-0.141l0.117,-0.141l0.117,-0.142l0.115,-0.142l0.115,-0.144l0.114,-0.144l0.112,-0.144l0.113,-0.146l0.111,-0.146l0.11,-0.147l0.11,-0.147l0.109,-0.149l0.107,-0.148l0.107,-0.149l0.107,-0.151l0.105,-0.151l0.104,-0.151l0.103,-0.152l0.103,-0.153l0.101,-0.153l0.101,-0.154l0.1,-0.155l0.099,-0.156l0.098,-0.155l0.097,-0.157l0.096,-0.157l0.095,-0.158l0.094,-0.158l0.094,-0.16l0.092,-0.159l0.092,-0.16l0.09,-0.161l0.09,-0.162l0.088,-0.162l0.088,-0.163l0.087,-0.163l0.086,-0.163l0.084,-0.165l0.084,-0.165l0.083,-0.165l0.082,-0.166l0.081,-0.167l0.08,-0.168l0.079,-0.167l0.078,-0.169l0.077,-0.168l0.075,-0.169l0.075,-0.171l0.074,-0.17l0.073,-0.171l0.072,-0.172l0.071,-0.172l0.07,-0.173l0.069,-0.173l0.068,-0.173l0.067,-0.175l0.065,-0.175l0.065,-0.175l0.064,-0.175l0.062,-0.177l0.062,-0.177l0.061,-0.176l0.059,-0.178l0.058,-0.178l0.058,-0.179l0.056,-0.179l0.055,-0.18l0.054,-0.179l0.053,-0.181l0.052,-0.181l0.051,-0.181l0.05,-0.182l0.049,-0.182l0.047,-0.183l0.047,-0.184l0.045,-0.183l0.045,-0.184l0.043,-0.185l0.042,-0.185l0.041,-0.185l0.04,-0.186l0.038,-0.186l0.038,-0.187l0.036,-0.187l0.036,-0.188l0.034,-0.187l0.033,-0.189l0.032,-0.188l0.03,-0.189l0.03,-0.19l0.028,-0.19l0.028,-0.19l0.026,-0.19l0.024,-0.192l0.024,-0.191l0.023,-0.192l0.021,-0.192l0.02,-0.193l0.019,-0.192l0.018,-0.193l0.016,-0.194l0.016,-0.194l0.014,-0.194l0.013,-0.195l0.012,-0.195l0.01,-0.195l0.009,-0.196l0.009,-0.196l0.006,-0.196l0.006,-0.196l0.004,-0.197l0.003,-0.198l0.002,-0.197l0.001,-0.201l0,-96.252l-0.001,-0.201l-0.002,-0.198l-0.003,-0.198l-0.004,-0.197l-0.006,-0.196l-0.006,-0.196l-0.009,-0.197l-0.009,-0.195l-0.01,-0.195l-0.012,-0.196l-0.013,-0.194l-0.014,-0.195l-0.016,-0.194l-0.016,-0.193l-0.018,-0.194l-0.019,-0.192l-0.02,-0.193l-0.021,-0.193l-0.023,-0.191l-0.024,-0.191l-0.025,-0.192l-0.026,-0.191l-0.027,-0.19l-0.028,-0.189l-0.03,-0.19l-0.031,-0.19l-0.031,-0.188l-0.033,-0.188l-0.035,-0.188l-0.035,-0.188l-0.036,-0.187l-0.038,-0.187l-0.039,-0.186l-0.039,-0.186l-0.041,-0.185l-0.043,-0.185l-0.043,-0.185l-0.044,-0.184l-0.045,-0.183l-0.047,-0.184l-0.048,-0.183l-0.048,-0.182l-0.05,-0.182l-0.051,-0.181l-0.052,-0.181l-0.053,-0.181l-0.054,-0.18l-0.055,-0.179l-0.057,-0.18l-0.057,-0.178l-0.059,-0.178l-0.059,-0.178l-0.061,-0.178l-0.061,-0.176l-0.063,-0.176l-0.064,-0.176l-0.065,-0.175l-0.065,-0.175l-0.067,-0.174l-0.068,-0.174l-0.069,-0.173l-0.07,-0.173l-0.071,-0.172l-0.072,-0.171l-0.073,-0.171l-0.074,-0.171l-0.075,-0.17l-0.075,-0.169l-0.078,-0.169l-0.078,-0.169l-0.078,-0.167l-0.08,-0.167l-0.081,-0.167l-0.082,-0.167l-0.083,-0.165l-0.084,-0.165l-0.085,-0.164l-0.086,-0.164l-0.087,-0.164l-0.087,-0.162l-0.089,-0.162l-0.089,-0.162l-0.091,-0.161l-0.091,-0.16l-0.093,-0.159l-0.093,-0.159l-0.095,-0.159l-0.095,-0.158l-0.096,-0.157l-0.097,-0.156l-0.098,-0.156l-0.099,-0.156l-0.1,-0.154l-0.101,-0.155l-0.101,-0.153l-0.103,-0.153l-0.103,-0.152l-0.104,-0.151l-0.106,-0.151l-0.106,-0.15l-0.107,-0.15l-0.108,-0.148l-0.108,-0.149l-0.11,-0.147l-0.11,-0.147l-0.112,-0.146l-0.112,-0.145l-0.113,-0.145l-0.114,-0.144l-0.114,-0.143l-0.116,-0.143l-0.116,-0.142l-0.117,-0.141l-0.118,-0.14l-0.119,-0.14l-0.12,-0.139l-0.121,-0.138l-0.121,-0.138l-0.122,-0.137l-0.123,-0.136l-0.124,-0.135l-0.124,-0.135l-0.126,-0.133l-0.126,-0.134l-0.127,-0.132l-0.127,-0.132l-0.129,-0.13l-0.129,-0.13l-0.13,-0.13l-0.131,-0.128l-0.132,-0.128l-0.132,-0.127l-0.133,-0.126l-0.134,-0.125l-0.134,-0.125l-0.136,-0.123l-0.136,-0.123l-0.137,-0.123l-0.137,-0.121l-0.138,-0.12l-0.14,-0.12l-0.139,-0.119l-0.141,-0.118l-0.141,-0.117l-0.142,-0.117l-0.142,-0.115l-0.144,-0.115l-0.144,-0.113l-0.144,-0.113l-0.146,-0.113l-0.146,-0.111l-0.147,-0.11l-0.147,-0.11l-0.148,-0.108l-0.149,-0.108l-0.15,-0.107l-0.149,-0.106l-0.151,-0.106l-0.152,-0.104l-0.152,-0.103l-0.153,-0.103l-0.153,-0.101l-0.154,-0.101l-0.155,-0.1l-0.155,-0.099l-0.156,-0.098l-0.157,-0.097l-0.157,-0.096l-0.158,-0.095l-0.158,-0.094l-0.159,-0.094l-0.16,-0.092l-0.16,-0.092l-0.161,-0.09l-0.161,-0.09l-0.162,-0.089l-0.163,-0.087l-0.163,-0.087l-0.164,-0.086l-0.164,-0.084l-0.165,-0.084l-0.166,-0.083l-0.166,-0.082l-0.167,-0.081l-0.167,-0.08l-0.168,-0.079l-0.168,-0.078l-0.169,-0.077l-0.169,-0.076l-0.17,-0.075l-0.171,-0.074l-0.171,-0.073l-0.171,-0.072l-0.172,-0.07l-0.173,-0.07l-0.173,-0.069l-0.174,-0.068l-0.174,-0.067l-0.175,-0.066l-0.175,-0.064l-0.175,-0.064l-0.177,-0.063l-0.176,-0.061l-0.178,-0.061l-0.177,-0.059l-0.178,-0.059l-0.179,-0.057l-0.179,-0.056l-0.18,-0.056l-0.18,-0.054l-0.18,-0.053l-0.181,-0.052l-0.181,-0.051l-0.182,-0.049l-0.182,-0.049l-0.183,-0.048l-0.183,-0.046l-0.184,-0.046l-0.184,-0.044l-0.185,-0.043l-0.185,-0.042l-0.185,-0.041l-0.186,-0.04l-0.186,-0.039l-0.187,-0.037l-0.187,-0.037l-0.187,-0.035l-0.188,-0.034l-0.188,-0.033l-0.189,-0.032l-0.189,-0.031l-0.19,-0.029l-0.189,-0.029l-0.191,-0.027l-0.19,-0.026l-0.191,-0.025l-0.192,-0.024l-0.191,-0.022l-0.192,-0.021l-0.193,-0.021l-0.193,-0.019l-0.193,-0.017l-0.194,-0.017l-0.193,-0.015l-0.195,-0.014l-0.194,-0.013l-0.195,-0.012l-0.196,-0.011l-0.195,-0.009l-0.196,-0.008l-0.196,-0.007l-0.197,-0.005l-0.197,-0.005l-0.197,-0.003l-0.198,-0.002l-0.201,0l-283.58,0l-20.526,-22.563l-20.527,22.563Z" style="fill:#fff;"/><g transform="matrix(1.93969,0,0,1.93969,-282.509,-535.335)"><rect x="352.282" y="482.828" width="3.511" height="34.522" style="fill:none;"/><path d="M367.739,494.531c0.065,0.617 0.114,1.3 0.146,2.048c0.033,0.747 0.049,1.365 0.049,1.853l0.098,0c0.65,-1.333 1.706,-2.414 3.169,-3.243c1.463,-0.829 3.007,-1.243 4.632,-1.243c2.893,0 5.063,0.861 6.51,2.584c1.446,1.723 2.17,3.998 2.17,6.826l0,13.994l-3.316,0l0,-12.628c0,-1.203 -0.098,-2.292 -0.293,-3.267c-0.195,-0.976 -0.528,-1.813 -0.999,-2.511c-0.472,-0.699 -1.105,-1.244 -1.902,-1.634c-0.796,-0.39 -1.796,-0.585 -2.999,-0.585c-0.877,0 -1.731,0.179 -2.559,0.536c-0.829,0.358 -1.569,0.902 -2.219,1.634c-0.65,0.731 -1.17,1.658 -1.56,2.779c-0.39,1.122 -0.585,2.446 -0.585,3.974l0,11.702l-3.316,0l0,-17.797c0,-0.618 -0.016,-1.414 -0.049,-2.389c-0.032,-0.975 -0.081,-1.853 -0.146,-2.633l3.169,0Z" style="fill:none;"/><path d="M405.236,499.943c-0.488,-0.943 -1.228,-1.715 -2.219,-2.316c-0.991,-0.601 -2.121,-0.902 -3.389,-0.902c-0.585,0 -1.17,0.065 -1.755,0.195c-0.585,0.13 -1.105,0.341 -1.561,0.634c-0.455,0.292 -0.82,0.666 -1.097,1.121c-0.276,0.455 -0.414,0.992 -0.414,1.609c0,1.073 0.439,1.894 1.316,2.463c0.878,0.569 2.26,1.048 4.145,1.438c2.698,0.553 4.689,1.357 5.973,2.414c1.284,1.056 1.926,2.478 1.926,4.266c0,1.301 -0.252,2.398 -0.756,3.292c-0.504,0.894 -1.162,1.625 -1.974,2.194c-0.813,0.569 -1.731,0.975 -2.755,1.219c-1.024,0.244 -2.056,0.366 -3.097,0.366c-1.722,0 -3.397,-0.358 -5.022,-1.073c-1.625,-0.715 -2.958,-1.837 -3.998,-3.365l2.633,-1.95c0.585,1.008 1.446,1.853 2.584,2.535c1.138,0.683 2.389,1.024 3.755,1.024c0.715,0 1.397,-0.065 2.048,-0.195c0.65,-0.13 1.219,-0.357 1.706,-0.682c0.488,-0.325 0.878,-0.74 1.17,-1.244c0.293,-0.503 0.439,-1.129 0.439,-1.877c0,-1.203 -0.577,-2.105 -1.731,-2.706c-1.154,-0.601 -2.82,-1.162 -4.998,-1.682c-0.682,-0.163 -1.406,-0.366 -2.169,-0.61c-0.764,-0.244 -1.471,-0.601 -2.122,-1.072c-0.65,-0.472 -1.186,-1.065 -1.609,-1.78c-0.422,-0.715 -0.633,-1.609 -0.633,-2.682c0,-1.17 0.227,-2.17 0.682,-2.999c0.455,-0.829 1.065,-1.511 1.829,-2.048c0.764,-0.536 1.633,-0.934 2.608,-1.194c0.976,-0.26 1.983,-0.39 3.023,-0.39c1.593,0 3.137,0.357 4.633,1.072c1.495,0.716 2.616,1.723 3.364,3.023l-2.535,1.902Z" style="fill:none;"/><path d="M425.032,497.31l-6.436,0l0,13.312c0,0.845 0.081,1.544 0.244,2.096c0.162,0.553 0.398,0.984 0.707,1.292c0.308,0.309 0.674,0.52 1.097,0.634c0.422,0.114 0.877,0.171 1.365,0.171c0.455,0 0.934,-0.065 1.438,-0.195c0.504,-0.13 0.984,-0.309 1.439,-0.537l0.146,2.877c-0.585,0.228 -1.195,0.399 -1.828,0.512c-0.634,0.114 -1.325,0.171 -2.073,0.171c-0.617,0 -1.268,-0.081 -1.95,-0.244c-0.683,-0.162 -1.317,-0.471 -1.902,-0.926c-0.585,-0.455 -1.064,-1.073 -1.438,-1.853c-0.374,-0.78 -0.561,-1.804 -0.561,-3.072l0,-14.238l-4.73,0l0,-2.779l4.73,0l0,-6.437l3.316,0l0,6.437l6.436,0l0,2.779Z" style="fill:none;"/><path d="M430.201,499.553c0,-0.618 -0.017,-1.414 -0.049,-2.389c-0.033,-0.975 -0.081,-1.853 -0.146,-2.633l3.169,0c0.065,0.617 0.114,1.3 0.146,2.048c0.033,0.747 0.049,1.365 0.049,1.853l0.097,0c0.651,-1.333 1.626,-2.414 2.926,-3.243c1.3,-0.829 2.763,-1.243 4.388,-1.243c0.423,0 0.805,0.016 1.146,0.048c0.342,0.033 0.691,0.098 1.049,0.195l-0.439,3.121c-0.195,-0.065 -0.52,-0.13 -0.975,-0.195c-0.455,-0.065 -0.911,-0.097 -1.366,-0.097c-0.877,0 -1.723,0.162 -2.535,0.487c-0.813,0.325 -1.52,0.837 -2.121,1.536c-0.602,0.699 -1.089,1.593 -1.463,2.682c-0.374,1.089 -0.561,2.397 -0.561,3.925l0,11.702l-3.315,0l0,-17.797Z" style="fill:none;"/><path d="M464.332,517.35c-0.065,-0.617 -0.113,-1.3 -0.146,-2.048c-0.032,-0.747 -0.049,-1.365 -0.049,-1.852l-0.097,0c-0.65,1.332 -1.707,2.413 -3.169,3.242c-1.463,0.829 -3.007,1.244 -4.633,1.244c-2.893,0 -5.063,-0.862 -6.509,-2.585c-1.447,-1.723 -2.17,-3.998 -2.17,-6.826l0,-13.994l3.316,0l0,12.629c0,1.202 0.097,2.291 0.292,3.266c0.195,0.976 0.529,1.813 1,2.512c0.471,0.699 1.105,1.243 1.902,1.633c0.796,0.39 1.795,0.585 2.998,0.585c0.878,0 1.731,-0.179 2.56,-0.536c0.829,-0.358 1.569,-0.902 2.219,-1.634c0.65,-0.731 1.17,-1.657 1.56,-2.779c0.39,-1.121 0.585,-2.446 0.585,-3.974l0,-11.702l3.316,0l0,17.797c0,0.618 0.016,1.414 0.049,2.389c0.032,0.976 0.081,1.853 0.146,2.633l-3.17,0Z" style="fill:none;"/><path d="M492.516,499.748c-0.553,-0.878 -1.358,-1.601 -2.414,-2.17c-1.056,-0.569 -2.202,-0.853 -3.438,-0.853c-1.332,0 -2.535,0.236 -3.608,0.707c-1.072,0.471 -1.991,1.121 -2.755,1.95c-0.764,0.829 -1.349,1.804 -1.755,2.926c-0.406,1.121 -0.61,2.332 -0.61,3.633c0,1.3 0.204,2.503 0.61,3.608c0.406,1.105 0.983,2.072 1.731,2.901c0.748,0.829 1.658,1.479 2.73,1.95c1.073,0.472 2.276,0.707 3.609,0.707c1.462,0 2.698,-0.276 3.705,-0.828c1.008,-0.553 1.837,-1.268 2.487,-2.146l2.487,1.853c-0.975,1.203 -2.17,2.162 -3.584,2.877c-1.414,0.715 -3.112,1.073 -5.095,1.073c-1.853,0 -3.527,-0.301 -5.023,-0.903c-1.495,-0.601 -2.771,-1.438 -3.827,-2.511c-1.057,-1.072 -1.877,-2.34 -2.463,-3.803c-0.585,-1.463 -0.877,-3.056 -0.877,-4.778c0,-1.723 0.292,-3.316 0.877,-4.779c0.586,-1.463 1.406,-2.73 2.463,-3.803c1.056,-1.073 2.332,-1.91 3.827,-2.511c1.496,-0.602 3.17,-0.902 5.023,-0.902c1.528,0 3.08,0.333 4.656,0.999c1.577,0.667 2.853,1.65 3.828,2.95l-2.584,1.853Z" style="fill:none;"/><path d="M510.752,497.31l-6.436,0l0,13.312c0,0.845 0.081,1.544 0.243,2.096c0.163,0.553 0.399,0.984 0.707,1.292c0.309,0.309 0.675,0.52 1.097,0.634c0.423,0.114 0.878,0.171 1.366,0.171c0.455,0 0.934,-0.065 1.438,-0.195c0.504,-0.13 0.983,-0.309 1.439,-0.537l0.146,2.877c-0.585,0.228 -1.195,0.399 -1.829,0.512c-0.634,0.114 -1.324,0.171 -2.072,0.171c-0.618,0 -1.268,-0.081 -1.95,-0.244c-0.683,-0.162 -1.317,-0.471 -1.902,-0.926c-0.585,-0.455 -1.065,-1.073 -1.438,-1.853c-0.374,-0.78 -0.561,-1.804 -0.561,-3.072l0,-14.238l-4.73,0l0,-2.779l4.73,0l0,-6.437l3.316,0l0,6.437l6.436,0l0,2.779Z" style="fill:none;"/><path d="M519.285,517.35l-3.316,0l0,-22.819l3.316,0l0,22.819Zm0.682,-31.596c0,0.683 -0.243,1.243 -0.731,1.682c-0.488,0.439 -1.024,0.658 -1.609,0.658c-0.585,0 -1.122,-0.219 -1.609,-0.658c-0.488,-0.439 -0.732,-0.999 -0.732,-1.682c0,-0.683 0.244,-1.243 0.732,-1.682c0.487,-0.439 1.024,-0.658 1.609,-0.658c0.585,0 1.121,0.219 1.609,0.658c0.488,0.439 0.731,0.999 0.731,1.682Z" style="fill:none;"/><path d="M550.784,505.941c0,1.722 -0.301,3.315 -0.902,4.778c-0.602,1.463 -1.439,2.731 -2.512,3.803c-1.072,1.073 -2.356,1.91 -3.852,2.511c-1.495,0.602 -3.136,0.903 -4.924,0.903c-1.756,0 -3.381,-0.301 -4.876,-0.903c-1.496,-0.601 -2.78,-1.438 -3.852,-2.511c-1.073,-1.072 -1.91,-2.34 -2.511,-3.803c-0.602,-1.463 -0.903,-3.056 -0.903,-4.778c0,-1.723 0.301,-3.316 0.903,-4.779c0.601,-1.463 1.438,-2.73 2.511,-3.803c1.072,-1.073 2.356,-1.91 3.852,-2.511c1.495,-0.602 3.12,-0.902 4.876,-0.902c1.788,0 3.429,0.3 4.924,0.902c1.496,0.601 2.78,1.438 3.852,2.511c1.073,1.073 1.91,2.34 2.512,3.803c0.601,1.463 0.902,3.056 0.902,4.779Zm-3.511,0c0,-1.268 -0.203,-2.463 -0.61,-3.584c-0.406,-1.122 -0.983,-2.097 -1.731,-2.926c-0.747,-0.829 -1.657,-1.487 -2.73,-1.975c-1.073,-0.487 -2.276,-0.731 -3.608,-0.731c-1.333,0 -2.528,0.244 -3.584,0.731c-1.057,0.488 -1.959,1.146 -2.706,1.975c-0.748,0.829 -1.325,1.804 -1.731,2.926c-0.407,1.121 -0.61,2.316 -0.61,3.584c0,1.267 0.203,2.462 0.61,3.583c0.406,1.122 0.983,2.097 1.731,2.926c0.747,0.829 1.649,1.479 2.706,1.95c1.056,0.472 2.251,0.707 3.584,0.707c1.332,0 2.535,-0.235 3.608,-0.707c1.073,-0.471 1.983,-1.121 2.73,-1.95c0.748,-0.829 1.325,-1.804 1.731,-2.926c0.407,-1.121 0.61,-2.316 0.61,-3.583Z" style="fill:none;"/><path d="M560.877,494.531c0.065,0.617 0.114,1.3 0.146,2.048c0.033,0.747 0.049,1.365 0.049,1.853l0.097,0c0.651,-1.333 1.707,-2.414 3.17,-3.243c1.463,-0.829 3.007,-1.243 4.632,-1.243c2.893,0 5.063,0.861 6.51,2.584c1.446,1.723 2.169,3.998 2.169,6.826l0,13.994l-3.315,0l0,-12.628c0,-1.203 -0.098,-2.292 -0.293,-3.267c-0.195,-0.976 -0.528,-1.813 -0.999,-2.511c-0.472,-0.699 -1.106,-1.244 -1.902,-1.634c-0.797,-0.39 -1.796,-0.585 -2.999,-0.585c-0.878,0 -1.731,0.179 -2.56,0.536c-0.829,0.358 -1.568,0.902 -2.218,1.634c-0.65,0.731 -1.171,1.658 -1.561,2.779c-0.39,1.122 -0.585,2.446 -0.585,3.974l0,11.702l-3.315,0l0,-17.797c0,-0.618 -0.017,-1.414 -0.049,-2.389c-0.033,-0.975 -0.081,-1.853 -0.146,-2.633l3.169,0Z" style="fill:none;"/><path d="M598.373,499.943c-0.487,-0.943 -1.227,-1.715 -2.218,-2.316c-0.992,-0.601 -2.121,-0.902 -3.389,-0.902c-0.585,0 -1.17,0.065 -1.755,0.195c-0.586,0.13 -1.106,0.341 -1.561,0.634c-0.455,0.292 -0.821,0.666 -1.097,1.121c-0.276,0.455 -0.414,0.992 -0.414,1.609c0,1.073 0.438,1.894 1.316,2.463c0.878,0.569 2.259,1.048 4.145,1.438c2.698,0.553 4.689,1.357 5.973,2.414c1.284,1.056 1.926,2.478 1.926,4.266c0,1.301 -0.252,2.398 -0.756,3.292c-0.504,0.894 -1.162,1.625 -1.975,2.194c-0.812,0.569 -1.731,0.975 -2.755,1.219c-1.024,0.244 -2.056,0.366 -3.096,0.366c-1.723,0 -3.397,-0.358 -5.022,-1.073c-1.625,-0.715 -2.958,-1.837 -3.998,-3.365l2.633,-1.95c0.585,1.008 1.446,1.853 2.584,2.535c1.138,0.683 2.389,1.024 3.754,1.024c0.715,0 1.398,-0.065 2.048,-0.195c0.65,-0.13 1.219,-0.357 1.707,-0.682c0.487,-0.325 0.878,-0.74 1.17,-1.244c0.293,-0.503 0.439,-1.129 0.439,-1.877c0,-1.203 -0.577,-2.105 -1.731,-2.706c-1.154,-0.601 -2.82,-1.162 -4.998,-1.682c-0.683,-0.163 -1.406,-0.366 -2.17,-0.61c-0.764,-0.244 -1.471,-0.601 -2.121,-1.072c-0.65,-0.472 -1.186,-1.065 -1.609,-1.78c-0.422,-0.715 -0.634,-1.609 -0.634,-2.682c0,-1.17 0.228,-2.17 0.683,-2.999c0.455,-0.829 1.064,-1.511 1.828,-2.048c0.764,-0.536 1.634,-0.934 2.609,-1.194c0.975,-0.26 1.983,-0.39 3.023,-0.39c1.593,0 3.137,0.357 4.632,1.072c1.496,0.716 2.617,1.723 3.365,3.023l-2.536,1.902Z" style="fill:none;"/><rect x="352.282" y="482.828" width="3.511" height="34.522" style="fill:#fff;fill-rule:nonzero;"/><path d="M367.739,494.531c0.065,0.617 0.114,1.3 0.146,2.048c0.033,0.747 0.049,1.365 0.049,1.853l0.098,0c0.65,-1.333 1.706,-2.414 3.169,-3.243c1.463,-0.829 3.007,-1.243 4.632,-1.243c2.893,0 5.063,0.861 6.51,2.584c1.446,1.723 2.17,3.998 2.17,6.826l0,13.994l-3.316,0l0,-12.628c0,-1.203 -0.098,-2.292 -0.293,-3.267c-0.195,-0.976 -0.528,-1.813 -0.999,-2.511c-0.472,-0.699 -1.105,-1.244 -1.902,-1.634c-0.796,-0.39 -1.796,-0.585 -2.999,-0.585c-0.877,0 -1.731,0.179 -2.559,0.536c-0.829,0.358 -1.569,0.902 -2.219,1.634c-0.65,0.731 -1.17,1.658 -1.56,2.779c-0.39,1.122 -0.585,2.446 -0.585,3.974l0,11.702l-3.316,0l0,-17.797c0,-0.618 -0.016,-1.414 -0.049,-2.389c-0.032,-0.975 -0.081,-1.853 -0.146,-2.633l3.169,0Z" style="fill:#fff;fill-rule:nonzero;"/><path d="M405.236,499.943c-0.488,-0.943 -1.228,-1.715 -2.219,-2.316c-0.991,-0.601 -2.121,-0.902 -3.389,-0.902c-0.585,0 -1.17,0.065 -1.755,0.195c-0.585,0.13 -1.105,0.341 -1.561,0.634c-0.455,0.292 -0.82,0.666 -1.097,1.121c-0.276,0.455 -0.414,0.992 -0.414,1.609c0,1.073 0.439,1.894 1.316,2.463c0.878,0.569 2.26,1.048 4.145,1.438c2.698,0.553 4.689,1.357 5.973,2.414c1.284,1.056 1.926,2.478 1.926,4.266c0,1.301 -0.252,2.398 -0.756,3.292c-0.504,0.894 -1.162,1.625 -1.974,2.194c-0.813,0.569 -1.731,0.975 -2.755,1.219c-1.024,0.244 -2.056,0.366 -3.097,0.366c-1.722,0 -3.397,-0.358 -5.022,-1.073c-1.625,-0.715 -2.958,-1.837 -3.998,-3.365l2.633,-1.95c0.585,1.008 1.446,1.853 2.584,2.535c1.138,0.683 2.389,1.024 3.755,1.024c0.715,0 1.397,-0.065 2.048,-0.195c0.65,-0.13 1.219,-0.357 1.706,-0.682c0.488,-0.325 0.878,-0.74 1.17,-1.244c0.293,-0.503 0.439,-1.129 0.439,-1.877c0,-1.203 -0.577,-2.105 -1.731,-2.706c-1.154,-0.601 -2.82,-1.162 -4.998,-1.682c-0.682,-0.163 -1.406,-0.366 -2.169,-0.61c-0.764,-0.244 -1.471,-0.601 -2.122,-1.072c-0.65,-0.472 -1.186,-1.065 -1.609,-1.78c-0.422,-0.715 -0.633,-1.609 -0.633,-2.682c0,-1.17 0.227,-2.17 0.682,-2.999c0.455,-0.829 1.065,-1.511 1.829,-2.048c0.764,-0.536 1.633,-0.934 2.608,-1.194c0.976,-0.26 1.983,-0.39 3.023,-0.39c1.593,0 3.137,0.357 4.633,1.072c1.495,0.716 2.616,1.723 3.364,3.023l-2.535,1.902Z" style="fill:#fff;fill-rule:nonzero;"/><path d="M425.032,497.31l-6.436,0l0,13.312c0,0.845 0.081,1.544 0.244,2.096c0.162,0.553 0.398,0.984 0.707,1.292c0.308,0.309 0.674,0.52 1.097,0.634c0.422,0.114 0.877,0.171 1.365,0.171c0.455,0 0.934,-0.065 1.438,-0.195c0.504,-0.13 0.984,-0.309 1.439,-0.537l0.146,2.877c-0.585,0.228 -1.195,0.399 -1.828,0.512c-0.634,0.114 -1.325,0.171 -2.073,0.171c-0.617,0 -1.268,-0.081 -1.95,-0.244c-0.683,-0.162 -1.317,-0.471 -1.902,-0.926c-0.585,-0.455 -1.064,-1.073 -1.438,-1.853c-0.374,-0.78 -0.561,-1.804 -0.561,-3.072l0,-14.238l-4.73,0l0,-2.779l4.73,0l0,-6.437l3.316,0l0,6.437l6.436,0l0,2.779Z" style="fill:#fff;fill-rule:nonzero;"/><path d="M430.201,499.553c0,-0.618 -0.017,-1.414 -0.049,-2.389c-0.033,-0.975 -0.081,-1.853 -0.146,-2.633l3.169,0c0.065,0.617 0.114,1.3 0.146,2.048c0.033,0.747 0.049,1.365 0.049,1.853l0.097,0c0.651,-1.333 1.626,-2.414 2.926,-3.243c1.3,-0.829 2.763,-1.243 4.388,-1.243c0.423,0 0.805,0.016 1.146,0.048c0.342,0.033 0.691,0.098 1.049,0.195l-0.439,3.121c-0.195,-0.065 -0.52,-0.13 -0.975,-0.195c-0.455,-0.065 -0.911,-0.097 -1.366,-0.097c-0.877,0 -1.723,0.162 -2.535,0.487c-0.813,0.325 -1.52,0.837 -2.121,1.536c-0.602,0.699 -1.089,1.593 -1.463,2.682c-0.374,1.089 -0.561,2.397 -0.561,3.925l0,11.702l-3.315,0l0,-17.797Z" style="fill:#fff;fill-rule:nonzero;"/><path d="M464.332,517.35c-0.065,-0.617 -0.113,-1.3 -0.146,-2.048c-0.032,-0.747 -0.049,-1.365 -0.049,-1.852l-0.097,0c-0.65,1.332 -1.707,2.413 -3.169,3.242c-1.463,0.829 -3.007,1.244 -4.633,1.244c-2.893,0 -5.063,-0.862 -6.509,-2.585c-1.447,-1.723 -2.17,-3.998 -2.17,-6.826l0,-13.994l3.316,0l0,12.629c0,1.202 0.097,2.291 0.292,3.266c0.195,0.976 0.529,1.813 1,2.512c0.471,0.699 1.105,1.243 1.902,1.633c0.796,0.39 1.795,0.585 2.998,0.585c0.878,0 1.731,-0.179 2.56,-0.536c0.829,-0.358 1.569,-0.902 2.219,-1.634c0.65,-0.731 1.17,-1.657 1.56,-2.779c0.39,-1.121 0.585,-2.446 0.585,-3.974l0,-11.702l3.316,0l0,17.797c0,0.618 0.016,1.414 0.049,2.389c0.032,0.976 0.081,1.853 0.146,2.633l-3.17,0Z" style="fill:#fff;fill-rule:nonzero;"/><path d="M492.516,499.748c-0.553,-0.878 -1.358,-1.601 -2.414,-2.17c-1.056,-0.569 -2.202,-0.853 -3.438,-0.853c-1.332,0 -2.535,0.236 -3.608,0.707c-1.072,0.471 -1.991,1.121 -2.755,1.95c-0.764,0.829 -1.349,1.804 -1.755,2.926c-0.406,1.121 -0.61,2.332 -0.61,3.633c0,1.3 0.204,2.503 0.61,3.608c0.406,1.105 0.983,2.072 1.731,2.901c0.748,0.829 1.658,1.479 2.73,1.95c1.073,0.472 2.276,0.707 3.609,0.707c1.462,0 2.698,-0.276 3.705,-0.828c1.008,-0.553 1.837,-1.268 2.487,-2.146l2.487,1.853c-0.975,1.203 -2.17,2.162 -3.584,2.877c-1.414,0.715 -3.112,1.073 -5.095,1.073c-1.853,0 -3.527,-0.301 -5.023,-0.903c-1.495,-0.601 -2.771,-1.438 -3.827,-2.511c-1.057,-1.072 -1.877,-2.34 -2.463,-3.803c-0.585,-1.463 -0.877,-3.056 -0.877,-4.778c0,-1.723 0.292,-3.316 0.877,-4.779c0.586,-1.463 1.406,-2.73 2.463,-3.803c1.056,-1.073 2.332,-1.91 3.827,-2.511c1.496,-0.602 3.17,-0.902 5.023,-0.902c1.528,0 3.08,0.333 4.656,0.999c1.577,0.667 2.853,1.65 3.828,2.95l-2.584,1.853Z" style="fill:#fff;fill-rule:nonzero;"/><path d="M510.752,497.31l-6.436,0l0,13.312c0,0.845 0.081,1.544 0.243,2.096c0.163,0.553 0.399,0.984 0.707,1.292c0.309,0.309 0.675,0.52 1.097,0.634c0.423,0.114 0.878,0.171 1.366,0.171c0.455,0 0.934,-0.065 1.438,-0.195c0.504,-0.13 0.983,-0.309 1.439,-0.537l0.146,2.877c-0.585,0.228 -1.195,0.399 -1.829,0.512c-0.634,0.114 -1.324,0.171 -2.072,0.171c-0.618,0 -1.268,-0.081 -1.95,-0.244c-0.683,-0.162 -1.317,-0.471 -1.902,-0.926c-0.585,-0.455 -1.065,-1.073 -1.438,-1.853c-0.374,-0.78 -0.561,-1.804 -0.561,-3.072l0,-14.238l-4.73,0l0,-2.779l4.73,0l0,-6.437l3.316,0l0,6.437l6.436,0l0,2.779Z" style="fill:#fff;fill-rule:nonzero;"/><path d="M519.285,517.35l-3.316,0l0,-22.819l3.316,0l0,22.819Zm0.682,-31.596c0,0.683 -0.243,1.243 -0.731,1.682c-0.488,0.439 -1.024,0.658 -1.609,0.658c-0.585,0 -1.122,-0.219 -1.609,-0.658c-0.488,-0.439 -0.732,-0.999 -0.732,-1.682c0,-0.683 0.244,-1.243 0.732,-1.682c0.487,-0.439 1.024,-0.658 1.609,-0.658c0.585,0 1.121,0.219 1.609,0.658c0.488,0.439 0.731,0.999 0.731,1.682Z" style="fill:#fff;fill-rule:nonzero;"/><path d="M550.784,505.941c0,1.722 -0.301,3.315 -0.902,4.778c-0.602,1.463 -1.439,2.731 -2.512,3.803c-1.072,1.073 -2.356,1.91 -3.852,2.511c-1.495,0.602 -3.136,0.903 -4.924,0.903c-1.756,0 -3.381,-0.301 -4.876,-0.903c-1.496,-0.601 -2.78,-1.438 -3.852,-2.511c-1.073,-1.072 -1.91,-2.34 -2.511,-3.803c-0.602,-1.463 -0.903,-3.056 -0.903,-4.778c0,-1.723 0.301,-3.316 0.903,-4.779c0.601,-1.463 1.438,-2.73 2.511,-3.803c1.072,-1.073 2.356,-1.91 3.852,-2.511c1.495,-0.602 3.12,-0.902 4.876,-0.902c1.788,0 3.429,0.3 4.924,0.902c1.496,0.601 2.78,1.438 3.852,2.511c1.073,1.073 1.91,2.34 2.512,3.803c0.601,1.463 0.902,3.056 0.902,4.779Zm-3.511,0c0,-1.268 -0.203,-2.463 -0.61,-3.584c-0.406,-1.122 -0.983,-2.097 -1.731,-2.926c-0.747,-0.829 -1.657,-1.487 -2.73,-1.975c-1.073,-0.487 -2.276,-0.731 -3.608,-0.731c-1.333,0 -2.528,0.244 -3.584,0.731c-1.057,0.488 -1.959,1.146 -2.706,1.975c-0.748,0.829 -1.325,1.804 -1.731,2.926c-0.407,1.121 -0.61,2.316 -0.61,3.584c0,1.267 0.203,2.462 0.61,3.583c0.406,1.122 0.983,2.097 1.731,2.926c0.747,0.829 1.649,1.479 2.706,1.95c1.056,0.472 2.251,0.707 3.584,0.707c1.332,0 2.535,-0.235 3.608,-0.707c1.073,-0.471 1.983,-1.121 2.73,-1.95c0.748,-0.829 1.325,-1.804 1.731,-2.926c0.407,-1.121 0.61,-2.316 0.61,-3.583Z" style="fill:#fff;fill-rule:nonzero;"/><path d="M560.877,494.531c0.065,0.617 0.114,1.3 0.146,2.048c0.033,0.747 0.049,1.365 0.049,1.853l0.097,0c0.651,-1.333 1.707,-2.414 3.17,-3.243c1.463,-0.829 3.007,-1.243 4.632,-1.243c2.893,0 5.063,0.861 6.51,2.584c1.446,1.723 2.169,3.998 2.169,6.826l0,13.994l-3.315,0l0,-12.628c0,-1.203 -0.098,-2.292 -0.293,-3.267c-0.195,-0.976 -0.528,-1.813 -0.999,-2.511c-0.472,-0.699 -1.106,-1.244 -1.902,-1.634c-0.797,-0.39 -1.796,-0.585 -2.999,-0.585c-0.878,0 -1.731,0.179 -2.56,0.536c-0.829,0.358 -1.568,0.902 -2.218,1.634c-0.65,0.731 -1.171,1.658 -1.561,2.779c-0.39,1.122 -0.585,2.446 -0.585,3.974l0,11.702l-3.315,0l0,-17.797c0,-0.618 -0.017,-1.414 -0.049,-2.389c-0.033,-0.975 -0.081,-1.853 -0.146,-2.633l3.169,0Z" style="fill:#fff;fill-rule:nonzero;"/><path d="M598.373,499.943c-0.487,-0.943 -1.227,-1.715 -2.218,-2.316c-0.992,-0.601 -2.121,-0.902 -3.389,-0.902c-0.585,0 -1.17,0.065 -1.755,0.195c-0.586,0.13 -1.106,0.341 -1.561,0.634c-0.455,0.292 -0.821,0.666 -1.097,1.121c-0.276,0.455 -0.414,0.992 -0.414,1.609c0,1.073 0.438,1.894 1.316,2.463c0.878,0.569 2.259,1.048 4.145,1.438c2.698,0.553 4.689,1.357 5.973,2.414c1.284,1.056 1.926,2.478 1.926,4.266c0,1.301 -0.252,2.398 -0.756,3.292c-0.504,0.894 -1.162,1.625 -1.975,2.194c-0.812,0.569 -1.731,0.975 -2.755,1.219c-1.024,0.244 -2.056,0.366 -3.096,0.366c-1.723,0 -3.397,-0.358 -5.022,-1.073c-1.625,-0.715 -2.958,-1.837 -3.998,-3.365l2.633,-1.95c0.585,1.008 1.446,1.853 2.584,2.535c1.138,0.683 2.389,1.024 3.754,1.024c0.715,0 1.398,-0.065 2.048,-0.195c0.65,-0.13 1.219,-0.357 1.707,-0.682c0.487,-0.325 0.878,-0.74 1.17,-1.244c0.293,-0.503 0.439,-1.129 0.439,-1.877c0,-1.203 -0.577,-2.105 -1.731,-2.706c-1.154,-0.601 -2.82,-1.162 -4.998,-1.682c-0.683,-0.163 -1.406,-0.366 -2.17,-0.61c-0.764,-0.244 -1.471,-0.601 -2.121,-1.072c-0.65,-0.472 -1.186,-1.065 -1.609,-1.78c-0.422,-0.715 -0.634,-1.609 -0.634,-2.682c0,-1.17 0.228,-2.17 0.683,-2.999c0.455,-0.829 1.064,-1.511 1.828,-2.048c0.764,-0.536 1.634,-0.934 2.609,-1.194c0.975,-0.26 1.983,-0.39 3.023,-0.39c1.593,0 3.137,0.357 4.632,1.072c1.496,0.716 2.617,1.723 3.365,3.023l-2.536,1.902Z" style="fill:#fff;fill-rule:nonzero;"/></g></g></g></g></svg>