<?xml version="1.0" standalone="no"?>
<!DOCTYPE svg PUBLIC "-//W3C//DTD SVG 1.1//EN" "http://www.w3.org/Graphics/SVG/1.1/DTD/svg11.dtd">
<svg width="100%" height="100%" viewBox="0 0 1280 720" version="1.1" xmlns="http://www.w3.org/2000/svg" xmlns:xlink="http://www.w3.org/1999/xlink" xml:space="preserve" style="fill-rule:evenodd;clip-rule:evenodd;stroke-miterlimit:10;">
    <g id="Layer2" transform="matrix(1.96429,0,0,1.96429,-617.148,-251.057)">
        <g transform="matrix(0.502325,8.6637e-19,8.6637e-19,0.498788,316.612,130.952)">
            <rect x="-4.835" y="-6.298" width="1297.24" height="734.869" style="fill:rgb(122,191,106);"/>
        </g>
        <g transform="matrix(0.934523,0,0,0.934523,517.672,255.455)">
            <path d="M127.811,36.22C137.431,36.22 145.229,28.451 145.229,18.869C145.229,9.286 137.431,1.518 127.811,1.518C118.191,1.518 110.393,9.286 110.393,18.869C110.393,28.451 118.191,36.22 127.811,36.22Z" style="fill:none;stroke-width:1.09px;stroke:white;"/>
        </g>
        <g transform="matrix(0.934523,0,0,0.934523,517.672,255.455)">
            <clipPath id="_clip1">
                <path d="M-9.227,39.092L263.605,39.092L263.605,131.256L-9.227,131.256L-9.227,39.092ZM119.607,59.767L14.775,59.767C8.143,59.767 2.773,65.141 2.773,71.77L2.773,107.253C2.773,113.885 8.146,119.256 14.775,119.256L239.603,119.256C246.235,119.256 251.605,113.882 251.605,107.253L251.605,71.77C251.605,65.138 246.232,59.767 239.603,59.767L135.393,59.767L127.5,51.092L119.607,59.767Z"/>
            </clipPath>
            <g clip-path="url(#_clip1)">
                <path d="M14.776,118.166L239.602,118.166L239.674,118.166L239.745,118.165L239.815,118.164L239.886,118.163L239.956,118.161L240.026,118.158L240.096,118.155L240.166,118.152L240.236,118.148L240.305,118.144L240.375,118.139L240.445,118.134L240.514,118.129L240.583,118.123L240.652,118.117L240.721,118.11L240.79,118.103L240.858,118.095L240.927,118.087L240.995,118.078L241.063,118.07L241.132,118.06L241.2,118.051L241.267,118.04L241.335,118.03L241.403,118.019L241.47,118.008L241.537,117.996L241.604,117.984L241.671,117.971L241.738,117.958L241.805,117.944L241.871,117.931L241.937,117.916L242.004,117.902L242.07,117.887L242.136,117.871L242.201,117.856L242.267,117.839L242.332,117.823L242.398,117.806L242.463,117.788L242.528,117.771L242.592,117.752L242.657,117.734L242.722,117.715L242.786,117.695L242.85,117.676L242.914,117.656L242.978,117.635L243.041,117.614L243.105,117.593L243.168,117.571L243.231,117.549L243.294,117.527L243.357,117.504L243.419,117.481L243.481,117.458L243.544,117.434L243.606,117.41L243.668,117.385L243.729,117.36L243.791,117.335L243.852,117.309L243.913,117.283L243.974,117.257L244.035,117.23L244.095,117.203L244.155,117.175L244.215,117.147L244.275,117.119L244.335,117.091L244.394,117.062L244.454,117.032L244.513,117.003L244.572,116.973L244.63,116.943L244.689,116.912L244.747,116.881L244.805,116.85L244.863,116.818L244.921,116.786L244.978,116.754L245.036,116.721L245.093,116.688L245.149,116.655L245.206,116.621L245.262,116.587L245.318,116.553L245.374,116.518L245.43,116.483L245.485,116.448L245.541,116.412L245.596,116.376L245.651,116.34L245.705,116.303L245.759,116.266L245.813,116.229L245.867,116.191L245.921,116.153L245.974,116.115L246.027,116.077L246.08,116.038L246.133,115.999L246.185,115.959L246.238,115.919L246.289,115.88L246.341,115.839L246.393,115.798L246.444,115.757L246.495,115.716L246.545,115.675L246.596,115.633L246.646,115.591L246.696,115.548L246.745,115.505L246.795,115.462L246.844,115.419L246.893,115.375L246.941,115.332L246.99,115.287L247.038,115.243L247.085,115.198L247.133,115.153L247.181,115.107L247.227,115.062L247.274,115.016L247.32,114.97L247.367,114.924L247.413,114.877L247.458,114.83L247.503,114.783L247.549,114.735L247.593,114.687L247.638,114.639L247.682,114.591L247.726,114.542L247.77,114.493L247.813,114.444L247.856,114.395L247.899,114.345L247.941,114.295L247.983,114.245L248.025,114.194L248.067,114.144L248.108,114.093L248.149,114.042L248.189,113.99L248.23,113.938L248.27,113.887L248.31,113.835L248.349,113.782L248.388,113.729L248.427,113.676L248.466,113.623L248.504,113.57L248.542,113.516L248.579,113.463L248.616,113.408L248.653,113.354L248.69,113.3L248.726,113.245L248.762,113.19L248.798,113.134L248.833,113.079L248.868,113.023L248.903,112.967L248.937,112.912L248.971,112.855L249.005,112.798L249.038,112.742L249.071,112.684L249.104,112.627L249.136,112.57L249.168,112.512L249.2,112.454L249.231,112.396L249.262,112.338L249.292,112.28L249.323,112.221L249.353,112.162L249.382,112.103L249.412,112.044L249.441,111.984L249.469,111.924L249.497,111.865L249.525,111.804L249.553,111.744L249.58,111.683L249.607,111.623L249.633,111.562L249.659,111.501L249.684,111.44L249.71,111.378L249.735,111.316L249.759,111.255L249.784,111.193L249.807,111.131L249.831,111.068L249.854,111.005L249.877,110.943L249.899,110.88L249.921,110.817L249.943,110.753L249.964,110.691L249.985,110.627L250.005,110.563L250.025,110.499L250.045,110.435L250.064,110.371L250.083,110.306L250.102,110.241L250.12,110.177L250.138,110.112L250.155,110.047L250.172,109.982L250.189,109.916L250.205,109.851L250.221,109.785L250.236,109.719L250.251,109.652L250.266,109.586L250.28,109.521L250.294,109.454L250.307,109.387L250.32,109.321L250.333,109.253L250.345,109.186L250.357,109.119L250.368,109.052L250.379,108.985L250.39,108.916L250.4,108.849L250.41,108.781L250.419,108.713L250.428,108.644L250.436,108.576L250.444,108.508L250.452,108.439L250.459,108.371L250.466,108.301L250.472,108.232L250.478,108.163L250.484,108.094L250.489,108.025L250.493,107.955L250.498,107.885L250.501,107.816L250.505,107.746L250.508,107.676L250.51,107.605L250.512,107.536L250.514,107.465L250.515,107.394L250.515,107.324L250.516,107.251L250.516,71.772L250.515,71.699L250.515,71.628L250.514,71.558L250.512,71.487L250.51,71.417L250.508,71.347L250.505,71.277L250.501,71.207L250.498,71.137L250.493,71.067L250.489,70.998L250.484,70.929L250.478,70.859L250.472,70.79L250.466,70.721L250.459,70.652L250.452,70.584L250.444,70.515L250.436,70.446L250.428,70.378L250.419,70.31L250.41,70.241L250.4,70.174L250.39,70.106L250.379,70.038L250.368,69.971L250.357,69.903L250.345,69.836L250.333,69.769L250.32,69.702L250.307,69.635L250.294,69.569L250.28,69.502L250.266,69.436L250.251,69.369L250.236,69.303L250.221,69.238L250.205,69.171L250.189,69.106L250.172,69.041L250.155,68.975L250.138,68.91L250.12,68.845L250.102,68.78L250.083,68.716L250.064,68.651L250.045,68.587L250.025,68.523L250.005,68.459L249.985,68.396L249.964,68.332L249.942,68.268L249.921,68.205L249.899,68.142L249.877,68.079L249.854,68.016L249.831,67.954L249.807,67.892L249.783,67.829L249.759,67.767L249.734,67.705L249.709,67.644L249.684,67.582L249.658,67.521L249.633,67.46L249.606,67.399L249.579,67.338L249.552,67.278L249.525,67.218L249.497,67.158L249.469,67.097L249.44,67.038L249.411,66.978L249.382,66.919L249.352,66.86L249.322,66.801L249.292,66.742L249.261,66.684L249.23,66.625L249.199,66.567L249.168,66.51L249.135,66.452L249.103,66.394L249.071,66.338L249.037,66.28L249.004,66.223L248.971,66.167L248.937,66.111L248.902,66.054L248.867,65.998L248.832,65.943L248.797,65.887L248.762,65.832L248.726,65.777L248.689,65.722L248.653,65.668L248.616,65.613L248.579,65.559L248.541,65.506L248.503,65.452L248.465,65.398L248.426,65.346L248.388,65.293L248.348,65.24L248.309,65.187L248.269,65.135L248.229,65.083L248.189,65.032L248.148,64.98L248.107,64.929L248.066,64.878L248.024,64.827L247.982,64.777L247.94,64.727L247.898,64.677L247.855,64.627L247.812,64.578L247.769,64.529L247.725,64.48L247.681,64.431L247.637,64.383L247.592,64.335L247.548,64.287L247.503,64.24L247.457,64.192L247.412,64.145L247.366,64.099L247.319,64.052L247.273,64.006L247.226,63.96L247.179,63.914L247.132,63.869L247.085,63.824L247.037,63.779L246.989,63.735L246.94,63.691L246.892,63.647L246.843,63.603L246.794,63.56L246.744,63.517L246.695,63.474L246.645,63.432L246.595,63.389L246.544,63.348L246.494,63.306L246.443,63.265L246.391,63.224L246.34,63.183L246.288,63.143L246.236,63.103L246.184,63.063L246.132,63.023L246.079,62.984L246.026,62.946L245.973,62.907L245.92,62.869L245.866,62.831L245.812,62.793L245.758,62.756L245.704,62.719L245.649,62.683L245.595,62.646L245.539,62.61L245.484,62.575L245.429,62.539L245.373,62.504L245.317,62.47L245.261,62.435L245.205,62.401L245.148,62.368L245.091,62.334L245.034,62.301L244.977,62.269L244.92,62.236L244.862,62.204L244.804,62.173L244.746,62.141L244.688,62.11L244.629,62.08L244.571,62.05L244.512,62.02L244.453,61.99L244.393,61.961L244.334,61.932L244.274,61.903L244.214,61.875L244.154,61.847L244.094,61.82L244.033,61.793L243.973,61.766L243.912,61.74L243.851,61.714L243.789,61.688L243.728,61.663L243.666,61.638L243.605,61.613L243.543,61.589L243.48,61.565L243.418,61.541L243.356,61.518L243.293,61.496L243.23,61.473L243.167,61.451L243.104,61.43L243.04,61.408L242.977,61.388L242.913,61.367L242.849,61.347L242.785,61.327L242.721,61.308L242.656,61.289L242.591,61.27L242.527,61.252L242.462,61.234L242.397,61.217L242.331,61.2L242.266,61.183L242.2,61.167L242.135,61.151L242.069,61.136L242.003,61.121L241.937,61.106L241.87,61.092L241.804,61.078L241.737,61.065L241.67,61.052L241.603,61.039L241.536,61.027L241.469,61.015L241.402,61.004L241.334,60.993L241.267,60.982L241.199,60.972L241.131,60.963L241.063,60.953L240.995,60.944L240.926,60.936L240.858,60.928L240.789,60.92L240.721,60.913L240.652,60.906L240.583,60.9L240.514,60.894L240.444,60.889L240.375,60.884L240.305,60.879L240.236,60.875L240.166,60.871L240.096,60.868L240.026,60.865L239.956,60.862L239.886,60.86L239.815,60.859L239.745,60.858L239.674,60.857L239.602,60.857L134.911,60.857L127.5,52.711L120.089,60.857L14.776,60.857L14.704,60.857L14.633,60.858L14.563,60.859L14.492,60.86L14.422,60.862L14.352,60.865L14.282,60.868L14.212,60.871L14.142,60.875L14.072,60.879L14.003,60.884L13.933,60.889L13.864,60.894L13.795,60.9L13.726,60.906L13.657,60.913L13.588,60.92L13.52,60.928L13.451,60.936L13.383,60.944L13.315,60.953L13.246,60.963L13.178,60.972L13.111,60.983L13.043,60.993L12.975,61.004L12.908,61.015L12.841,61.027L12.774,61.039L12.707,61.052L12.64,61.065L12.573,61.078L12.507,61.092L12.44,61.107L12.374,61.121L12.308,61.136L12.242,61.152L12.177,61.167L12.111,61.184L12.046,61.2L11.98,61.217L11.915,61.235L11.85,61.252L11.785,61.271L11.721,61.289L11.656,61.308L11.592,61.327L11.528,61.347L11.464,61.367L11.4,61.388L11.337,61.409L11.273,61.43L11.21,61.452L11.147,61.474L11.084,61.496L11.021,61.519L10.959,61.542L10.896,61.565L10.834,61.589L10.772,61.613L10.71,61.638L10.649,61.663L10.587,61.688L10.526,61.714L10.465,61.74L10.404,61.766L10.343,61.793L10.283,61.82L10.223,61.848L10.163,61.876L10.103,61.904L10.043,61.932L9.983,61.961L9.924,61.99L9.865,62.02L9.806,62.05L9.747,62.08L9.689,62.111L9.631,62.142L9.573,62.173L9.515,62.205L9.457,62.237L9.4,62.269L9.342,62.302L9.285,62.335L9.229,62.368L9.172,62.402L9.116,62.436L9.06,62.47L9.004,62.505L8.948,62.54L8.892,62.575L8.837,62.611L8.782,62.647L8.727,62.683L8.673,62.72L8.619,62.757L8.565,62.794L8.511,62.832L8.457,62.87L8.404,62.908L8.351,62.946L8.298,62.985L8.245,63.024L8.193,63.064L8.14,63.103L8.088,63.143L8.037,63.184L7.985,63.225L7.934,63.265L7.883,63.307L7.833,63.348L7.782,63.39L7.732,63.432L7.682,63.475L7.632,63.518L7.583,63.561L7.534,63.604L7.485,63.648L7.437,63.691L7.388,63.736L7.34,63.78L7.292,63.825L7.245,63.87L7.198,63.915L7.151,63.961L7.104,64.007L7.057,64.053L7.011,64.099L6.965,64.146L6.92,64.193L6.874,64.24L6.829,64.288L6.785,64.336L6.74,64.384L6.696,64.432L6.652,64.481L6.608,64.53L6.565,64.579L6.522,64.628L6.479,64.678L6.437,64.728L6.395,64.778L6.353,64.828L6.311,64.879L6.27,64.93L6.229,64.981L6.188,65.033L6.148,65.084L6.108,65.136L6.068,65.188L6.029,65.241L5.99,65.293L5.951,65.346L5.912,65.4L5.874,65.453L5.836,65.507L5.799,65.56L5.762,65.614L5.725,65.669L5.688,65.723L5.652,65.778L5.616,65.833L5.58,65.888L5.545,65.944L5.51,66L5.475,66.055L5.441,66.112L5.407,66.168L5.373,66.225L5.34,66.281L5.307,66.338L5.274,66.396L5.242,66.453L5.21,66.511L5.178,66.569L5.147,66.627L5.116,66.685L5.085,66.743L5.055,66.802L5.025,66.861L4.996,66.92L4.966,66.979L4.937,67.039L4.909,67.099L4.881,67.159L4.853,67.219L4.825,67.279L4.798,67.339L4.771,67.4L4.745,67.461L4.719,67.522L4.693,67.583L4.668,67.645L4.643,67.706L4.619,67.768L4.594,67.83L4.571,67.892L4.547,67.955L4.524,68.017L4.501,68.08L4.479,68.143L4.457,68.206L4.435,68.269L4.414,68.333L4.393,68.396L4.373,68.46L4.353,68.524L4.333,68.588L4.314,68.652L4.295,68.717L4.276,68.782L4.258,68.846L4.24,68.911L4.223,68.976L4.206,69.042L4.189,69.107L4.173,69.172L4.157,69.238L4.142,69.304L4.127,69.37L4.112,69.436L4.098,69.503L4.084,69.569L4.071,69.636L4.058,69.703L4.045,69.77L4.033,69.837L4.021,69.904L4.01,69.971L3.999,70.039L3.988,70.106L3.978,70.174L3.968,70.242L3.959,70.31L3.95,70.378L3.942,70.447L3.934,70.515L3.926,70.584L3.919,70.653L3.912,70.721L3.906,70.79L3.9,70.86L3.894,70.929L3.889,70.998L3.884,71.068L3.88,71.137L3.877,71.207L3.873,71.277L3.87,71.347L3.868,71.417L3.866,71.488L3.864,71.558L3.863,71.628L3.863,71.699L3.862,71.772L3.862,107.251L3.863,107.324L3.863,107.395L3.864,107.465L3.866,107.535L3.868,107.606L3.87,107.676L3.873,107.746L3.877,107.816L3.88,107.886L3.885,107.955L3.889,108.025L3.894,108.094L3.9,108.164L3.906,108.233L3.912,108.302L3.919,108.371L3.926,108.439L3.934,108.508L3.942,108.577L3.95,108.645L3.959,108.713L3.968,108.781L3.978,108.849L3.988,108.917L3.999,108.985L4.01,109.052L4.021,109.12L4.033,109.187L4.045,109.254L4.058,109.321L4.071,109.388L4.084,109.455L4.098,109.521L4.112,109.587L4.127,109.654L4.142,109.72L4.157,109.786L4.173,109.851L4.189,109.917L4.206,109.982L4.223,110.048L4.24,110.113L4.258,110.178L4.276,110.242L4.295,110.307L4.314,110.371L4.333,110.436L4.353,110.5L4.373,110.564L4.393,110.628L4.414,110.691L4.435,110.755L4.457,110.818L4.479,110.881L4.501,110.944L4.524,111.007L4.547,111.069L4.571,111.132L4.595,111.194L4.619,111.256L4.643,111.318L4.668,111.379L4.694,111.441L4.719,111.502L4.746,111.563L4.772,111.624L4.799,111.685L4.826,111.745L4.853,111.805L4.881,111.865L4.909,111.925L4.938,111.985L4.967,112.045L4.996,112.104L5.026,112.163L5.056,112.222L5.086,112.281L5.116,112.339L5.147,112.397L5.179,112.455L5.21,112.513L5.242,112.571L5.275,112.629L5.307,112.686L5.34,112.743L5.374,112.8L5.407,112.856L5.441,112.912L5.476,112.969L5.511,113.025L5.545,113.08L5.581,113.136L5.616,113.191L5.652,113.246L5.689,113.301L5.725,113.355L5.762,113.409L5.8,113.464L5.837,113.517L5.875,113.571L5.913,113.624L5.952,113.678L5.991,113.731L6.03,113.783L6.069,113.836L6.109,113.888L6.149,113.94L6.189,113.991L6.23,114.043L6.271,114.094L6.312,114.145L6.354,114.196L6.396,114.246L6.438,114.296L6.48,114.346L6.523,114.396L6.566,114.445L6.609,114.494L6.653,114.543L6.697,114.592L6.741,114.64L6.786,114.688L6.83,114.736L6.875,114.783L6.921,114.831L6.966,114.878L7.012,114.924L7.058,114.971L7.105,115.017L7.152,115.063L7.198,115.108L7.246,115.154L7.293,115.199L7.341,115.244L7.389,115.288L7.438,115.332L7.486,115.376L7.535,115.42L7.584,115.463L7.634,115.506L7.683,115.549L7.733,115.591L7.783,115.634L7.834,115.676L7.884,115.717L7.935,115.758L7.987,115.799L8.038,115.84L8.09,115.88L8.142,115.92L8.194,115.96L8.246,115.999L8.299,116.039L8.352,116.077L8.405,116.116L8.458,116.154L8.512,116.192L8.566,116.23L8.62,116.267L8.674,116.304L8.729,116.34L8.783,116.377L8.838,116.413L8.894,116.448L8.949,116.484L9.005,116.519L9.061,116.553L9.117,116.588L9.173,116.622L9.23,116.655L9.287,116.689L9.344,116.722L9.401,116.754L9.458,116.787L9.516,116.819L9.574,116.85L9.632,116.882L9.69,116.912L9.749,116.943L9.807,116.973L9.866,117.003L9.925,117.033L9.985,117.062L10.044,117.091L10.104,117.12L10.164,117.148L10.224,117.176L10.284,117.203L10.345,117.23L10.405,117.257L10.466,117.283L10.527,117.309L10.588,117.335L10.65,117.36L10.711,117.385L10.773,117.41L10.835,117.434L10.898,117.458L10.96,117.481L11.022,117.505L11.085,117.527L11.148,117.55L11.211,117.572L11.275,117.593L11.338,117.615L11.401,117.635L11.465,117.656L11.529,117.676L11.593,117.696L11.657,117.715L11.722,117.734L11.787,117.753L11.851,117.771L11.916,117.788L11.981,117.806L12.047,117.823L12.112,117.839L12.177,117.856L12.243,117.872L12.309,117.887L12.375,117.902L12.441,117.917L12.508,117.931L12.574,117.945L12.641,117.958L12.707,117.971L12.775,117.984L12.842,117.996L12.909,118.008L12.976,118.019L13.043,118.03L13.111,118.04L13.179,118.051L13.247,118.06L13.315,118.07L13.383,118.079L13.452,118.087L13.52,118.095L13.589,118.103L13.658,118.11L13.726,118.117L13.795,118.123L13.864,118.129L13.934,118.134L14.003,118.139L14.073,118.144L14.142,118.148L14.212,118.152L14.282,118.155L14.352,118.158L14.422,118.161L14.492,118.163L14.563,118.164L14.633,118.165L14.704,118.166L14.776,118.166ZM14.773,120.345L14.69,120.345L14.606,120.344L14.521,120.343L14.437,120.341L14.353,120.339L14.269,120.336L14.185,120.332L14.102,120.328L14.018,120.324L13.935,120.319L13.852,120.313L13.768,120.307L13.686,120.301L13.603,120.293L13.52,120.286L13.437,120.278L13.355,120.269L13.273,120.26L13.191,120.25L13.108,120.24L13.027,120.23L12.945,120.218L12.863,120.207L12.782,120.195L12.701,120.182L12.62,120.169L12.539,120.155L12.458,120.141L12.378,120.126L12.298,120.111L12.217,120.096L12.137,120.079L12.058,120.063L11.978,120.046L11.898,120.028L11.819,120.01L11.74,119.992L11.661,119.973L11.582,119.953L11.504,119.933L11.425,119.913L11.347,119.892L11.269,119.871L11.191,119.849L11.114,119.826L11.036,119.804L10.959,119.78L10.882,119.757L10.805,119.733L10.729,119.708L10.652,119.683L10.576,119.657L10.5,119.631L10.424,119.605L10.349,119.578L10.273,119.551L10.198,119.523L10.123,119.495L10.049,119.466L9.974,119.437L9.9,119.408L9.826,119.378L9.752,119.347L9.679,119.316L9.605,119.285L9.532,119.253L9.459,119.221L9.387,119.189L9.314,119.156L9.242,119.122L9.17,119.088L9.098,119.054L9.027,119.02L8.956,118.984L8.885,118.949L8.814,118.913L8.744,118.877L8.674,118.84L8.603,118.803L8.534,118.765L8.464,118.727L8.395,118.689L8.326,118.65L8.258,118.611L8.189,118.571L8.121,118.531L8.053,118.491L7.985,118.45L7.918,118.409L7.851,118.367L7.784,118.325L7.718,118.283L7.652,118.24L7.586,118.197L7.52,118.153L7.454,118.109L7.389,118.065L7.324,118.02L7.26,117.975L7.196,117.93L7.132,117.884L7.068,117.838L7.004,117.792L6.941,117.745L6.878,117.697L6.816,117.65L6.754,117.602L6.692,117.553L6.63,117.505L6.569,117.455L6.508,117.406L6.447,117.356L6.386,117.306L6.326,117.255L6.267,117.205L6.207,117.153L6.148,117.102L6.089,117.05L6.03,116.997L5.972,116.945L5.914,116.892L5.857,116.839L5.799,116.785L5.742,116.731L5.686,116.677L5.629,116.622L5.573,116.567L5.518,116.512L5.462,116.456L5.407,116.4L5.353,116.344L5.298,116.287L5.244,116.23L5.191,116.173L5.137,116.115L5.084,116.057L5.032,115.999L4.98,115.941L4.928,115.882L4.876,115.822L4.825,115.763L4.774,115.703L4.723,115.643L4.673,115.583L4.623,115.522L4.574,115.461L4.525,115.399L4.476,115.338L4.428,115.276L4.38,115.214L4.332,115.151L4.285,115.088L4.238,115.025L4.191,114.962L4.145,114.898L4.099,114.834L4.054,114.77L4.009,114.705L3.964,114.64L3.92,114.575L3.876,114.509L3.832,114.444L3.789,114.378L3.746,114.312L3.704,114.245L3.662,114.178L3.62,114.111L3.579,114.044L3.538,113.976L3.498,113.908L3.458,113.84L3.418,113.772L3.379,113.703L3.34,113.634L3.302,113.565L3.264,113.496L3.226,113.426L3.189,113.356L3.152,113.286L3.116,113.215L3.08,113.145L3.045,113.073L3.009,113.002L2.975,112.931L2.94,112.859L2.907,112.787L2.873,112.715L2.84,112.643L2.808,112.57L2.775,112.497L2.744,112.424L2.712,112.351L2.682,112.277L2.651,112.203L2.621,112.129L2.592,112.055L2.563,111.98L2.534,111.906L2.506,111.831L2.478,111.756L2.451,111.68L2.424,111.605L2.397,111.529L2.371,111.453L2.346,111.377L2.321,111.3L2.296,111.224L2.272,111.147L2.248,111.07L2.225,110.993L2.202,110.915L2.18,110.838L2.158,110.76L2.137,110.682L2.116,110.604L2.096,110.525L2.076,110.446L2.056,110.368L2.037,110.289L2.019,110.21L2,110.13L1.983,110.051L1.966,109.971L1.949,109.891L1.933,109.811L1.918,109.731L1.902,109.651L1.888,109.57L1.874,109.489L1.86,109.408L1.847,109.327L1.834,109.246L1.822,109.165L1.81,109.083L1.799,109.001L1.788,108.92L1.778,108.838L1.769,108.756L1.759,108.673L1.751,108.591L1.743,108.508L1.735,108.426L1.728,108.343L1.721,108.26L1.715,108.177L1.71,108.093L1.705,108.01L1.7,107.926L1.696,107.843L1.693,107.759L1.69,107.675L1.688,107.591L1.686,107.506L1.684,107.422L1.684,107.338L1.683,107.255L1.683,71.768L1.684,71.685L1.684,71.601L1.686,71.517L1.688,71.432L1.69,71.348L1.693,71.264L1.696,71.181L1.7,71.097L1.705,71.014L1.71,70.93L1.715,70.847L1.721,70.764L1.728,70.681L1.735,70.598L1.743,70.515L1.751,70.433L1.759,70.35L1.769,70.268L1.778,70.186L1.788,70.104L1.799,70.022L1.81,69.94L1.822,69.859L1.834,69.777L1.847,69.696L1.86,69.615L1.873,69.534L1.888,69.454L1.902,69.373L1.917,69.293L1.933,69.213L1.949,69.133L1.966,69.053L1.983,68.973L2,68.893L2.018,68.814L2.037,68.735L2.056,68.656L2.075,68.577L2.095,68.499L2.116,68.42L2.137,68.342L2.158,68.264L2.18,68.186L2.202,68.109L2.225,68.031L2.248,67.954L2.272,67.877L2.296,67.8L2.32,67.724L2.346,67.647L2.371,67.571L2.397,67.495L2.423,67.419L2.45,67.344L2.478,67.268L2.505,67.193L2.534,67.118L2.562,67.044L2.591,66.969L2.621,66.895L2.651,66.821L2.681,66.747L2.712,66.674L2.743,66.6L2.775,66.527L2.807,66.454L2.84,66.382L2.873,66.309L2.906,66.237L2.94,66.165L2.974,66.093L3.009,66.022L3.044,65.951L3.079,65.88L3.115,65.809L3.152,65.739L3.189,65.668L3.226,65.598L3.263,65.529L3.301,65.459L3.34,65.39L3.378,65.321L3.418,65.252L3.457,65.184L3.497,65.116L3.538,65.048L3.578,64.98L3.62,64.913L3.661,64.846L3.703,64.779L3.745,64.713L3.788,64.646L3.831,64.58L3.875,64.515L3.919,64.449L3.963,64.384L4.008,64.319L4.053,64.255L4.098,64.19L4.144,64.126L4.19,64.063L4.237,63.999L4.284,63.936L4.331,63.873L4.379,63.811L4.427,63.748L4.475,63.686L4.524,63.625L4.573,63.563L4.622,63.503L4.672,63.442L4.722,63.381L4.773,63.321L4.824,63.261L4.875,63.202L4.926,63.143L4.978,63.084L5.031,63.025L5.083,62.967L5.136,62.909L5.19,62.851L5.243,62.794L5.297,62.737L5.351,62.68L5.406,62.624L5.461,62.568L5.516,62.512L5.572,62.457L5.628,62.402L5.684,62.347L5.741,62.293L5.798,62.239L5.855,62.185L5.913,62.132L5.971,62.079L6.029,62.026L6.088,61.974L6.146,61.922L6.206,61.871L6.265,61.819L6.325,61.768L6.385,61.718L6.446,61.668L6.506,61.618L6.567,61.568L6.629,61.519L6.69,61.471L6.752,61.422L6.814,61.374L6.877,61.327L6.94,61.279L7.003,61.232L7.066,61.186L7.13,61.14L7.194,61.094L7.258,61.048L7.323,61.003L7.388,60.959L7.453,60.914L7.518,60.87L7.584,60.827L7.65,60.784L7.716,60.741L7.783,60.699L7.85,60.657L7.917,60.615L7.984,60.574L8.052,60.533L8.12,60.493L8.188,60.453L8.256,60.413L8.325,60.374L8.394,60.335L8.463,60.297L8.532,60.258L8.602,60.221L8.672,60.184L8.742,60.147L8.813,60.111L8.883,60.075L8.954,60.039L9.026,60.004L9.097,59.969L9.169,59.935L9.241,59.901L9.313,59.868L9.385,59.835L9.458,59.802L9.531,59.77L9.604,59.738L9.677,59.707L9.751,59.676L9.825,59.646L9.899,59.616L9.973,59.586L10.047,59.557L10.122,59.528L10.197,59.5L10.272,59.472L10.347,59.445L10.423,59.418L10.499,59.392L10.575,59.366L10.651,59.34L10.727,59.315L10.804,59.291L10.881,59.266L10.958,59.243L11.035,59.22L11.113,59.197L11.19,59.174L11.268,59.153L11.346,59.131L11.424,59.11L11.503,59.09L11.581,59.07L11.66,59.05L11.739,59.031L11.818,59.013L11.897,58.995L11.977,58.977L12.057,58.96L12.136,58.944L12.217,58.928L12.297,58.912L12.377,58.897L12.458,58.882L12.538,58.868L12.619,58.854L12.7,58.841L12.782,58.828L12.863,58.816L12.944,58.805L13.026,58.793L13.108,58.783L13.19,58.773L13.272,58.763L13.354,58.754L13.437,58.745L13.519,58.737L13.602,58.729L13.685,58.722L13.768,58.716L13.851,58.71L13.935,58.704L14.018,58.699L14.101,58.695L14.185,58.691L14.269,58.687L14.353,58.684L14.437,58.682L14.521,58.68L14.606,58.679L14.69,58.678L14.773,58.678L119.126,58.678L127.5,49.473L135.874,58.678L239.605,58.678L239.688,58.678L239.772,58.679L239.857,58.68L239.941,58.682L240.025,58.684L240.109,58.687L240.193,58.691L240.276,58.695L240.36,58.699L240.443,58.704L240.526,58.71L240.609,58.716L240.692,58.722L240.775,58.729L240.858,58.737L240.941,58.745L241.023,58.754L241.105,58.763L241.187,58.773L241.269,58.783L241.351,58.793L241.433,58.805L241.514,58.816L241.596,58.828L241.677,58.841L241.758,58.854L241.839,58.868L241.919,58.882L242,58.897L242.08,58.912L242.161,58.927L242.24,58.944L242.32,58.96L242.4,58.977L242.479,58.995L242.559,59.013L242.638,59.031L242.717,59.05L242.796,59.07L242.874,59.09L242.952,59.11L243.031,59.131L243.109,59.152L243.187,59.174L243.264,59.197L243.342,59.219L243.419,59.243L243.496,59.266L243.573,59.29L243.649,59.315L243.726,59.34L243.802,59.365L243.878,59.392L243.954,59.418L244.029,59.445L244.104,59.472L244.18,59.5L244.255,59.528L244.329,59.557L244.404,59.586L244.478,59.615L244.552,59.645L244.626,59.676L244.699,59.707L244.773,59.738L244.846,59.77L244.919,59.802L244.991,59.834L245.064,59.867L245.136,59.901L245.208,59.934L245.279,59.969L245.351,60.003L245.422,60.039L245.493,60.074L245.564,60.11L245.634,60.146L245.705,60.183L245.774,60.22L245.844,60.258L245.914,60.296L245.983,60.334L246.052,60.373L246.12,60.412L246.189,60.452L246.257,60.492L246.325,60.532L246.392,60.573L246.46,60.614L246.527,60.656L246.594,60.698L246.66,60.74L246.726,60.783L246.792,60.826L246.858,60.87L246.924,60.914L246.989,60.958L247.054,61.002L247.118,61.048L247.182,61.093L247.246,61.139L247.31,61.185L247.374,61.231L247.437,61.278L247.499,61.326L247.562,61.373L247.624,61.421L247.686,61.47L247.748,61.518L247.809,61.567L247.87,61.617L247.931,61.667L247.992,61.717L248.052,61.767L248.112,61.818L248.171,61.87L248.23,61.921L248.289,61.973L248.348,62.025L248.406,62.078L248.464,62.131L248.521,62.184L248.579,62.238L248.636,62.292L248.692,62.346L248.748,62.401L248.805,62.456L248.86,62.511L248.915,62.567L248.971,62.623L249.025,62.679L249.08,62.736L249.134,62.793L249.187,62.85L249.241,62.908L249.293,62.966L249.346,63.024L249.398,63.082L249.45,63.141L249.502,63.201L249.553,63.26L249.604,63.32L249.655,63.38L249.705,63.44L249.755,63.501L249.804,63.562L249.853,63.624L249.902,63.685L249.95,63.747L249.998,63.809L250.046,63.872L250.093,63.935L250.14,63.998L250.187,64.061L250.233,64.125L250.279,64.189L250.324,64.253L250.369,64.318L250.414,64.383L250.458,64.448L250.502,64.513L250.546,64.579L250.589,64.645L250.632,64.711L250.674,64.778L250.716,64.845L250.758,64.912L250.799,64.979L250.839,65.047L250.88,65.115L250.92,65.183L250.959,65.251L250.999,65.32L251.038,65.389L251.076,65.458L251.114,65.528L251.152,65.597L251.189,65.667L251.225,65.737L251.262,65.808L251.298,65.879L251.333,65.949L251.368,66.02L251.403,66.092L251.438,66.164L251.471,66.236L251.505,66.308L251.538,66.38L251.57,66.453L251.602,66.526L251.634,66.599L251.665,66.672L251.696,66.746L251.727,66.82L251.757,66.894L251.786,66.968L251.815,67.042L251.844,67.117L251.872,67.192L251.9,67.267L251.927,67.342L251.954,67.418L251.981,67.494L252.007,67.57L252.032,67.646L252.057,67.722L252.082,67.799L252.106,67.876L252.13,67.953L252.153,68.03L252.176,68.108L252.198,68.185L252.22,68.263L252.241,68.341L252.262,68.419L252.282,68.498L252.302,68.576L252.322,68.655L252.341,68.734L252.359,68.813L252.377,68.893L252.395,68.972L252.412,69.052L252.429,69.132L252.445,69.212L252.46,69.292L252.476,69.372L252.49,69.453L252.504,69.534L252.518,69.615L252.531,69.696L252.544,69.777L252.556,69.858L252.568,69.94L252.579,70.021L252.59,70.103L252.6,70.185L252.609,70.267L252.618,70.349L252.627,70.432L252.635,70.515L252.643,70.598L252.65,70.68L252.657,70.763L252.663,70.847L252.668,70.93L252.673,71.013L252.678,71.096L252.682,71.181L252.685,71.264L252.688,71.348L252.69,71.432L252.692,71.517L252.694,71.601L252.694,71.685L252.695,71.768L252.695,107.255L252.694,107.338L252.694,107.422L252.692,107.506L252.69,107.59L252.688,107.675L252.685,107.758L252.682,107.842L252.678,107.926L252.673,108.009L252.668,108.093L252.663,108.176L252.657,108.259L252.65,108.342L252.643,108.425L252.635,108.508L252.627,108.59L252.619,108.673L252.609,108.755L252.6,108.837L252.59,108.919L252.579,109.001L252.568,109.083L252.556,109.164L252.544,109.246L252.531,109.326L252.518,109.408L252.504,109.489L252.49,109.569L252.476,109.65L252.461,109.73L252.445,109.811L252.429,109.89L252.412,109.97L252.395,110.05L252.378,110.13L252.36,110.209L252.341,110.288L252.322,110.367L252.303,110.446L252.283,110.524L252.262,110.602L252.241,110.681L252.22,110.759L252.198,110.837L252.176,110.914L252.153,110.991L252.13,111.068L252.106,111.146L252.082,111.223L252.057,111.299L252.033,111.375L252.007,111.452L251.981,111.528L251.955,111.603L251.928,111.679L251.9,111.755L251.873,111.829L251.844,111.904L251.816,111.979L251.787,112.054L251.757,112.128L251.727,112.202L251.697,112.275L251.666,112.349L251.635,112.423L251.603,112.496L251.571,112.569L251.538,112.641L251.505,112.714L251.472,112.786L251.438,112.858L251.404,112.93L251.369,113.001L251.334,113.072L251.298,113.143L251.263,113.214L251.226,113.284L251.189,113.355L251.152,113.425L251.115,113.494L251.077,113.564L251.038,113.633L250.999,113.702L250.96,113.771L250.921,113.839L250.881,113.907L250.84,113.975L250.8,114.042L250.758,114.11L250.717,114.177L250.675,114.244L250.632,114.31L250.59,114.377L250.547,114.442L250.503,114.508L250.459,114.574L250.415,114.639L250.37,114.704L250.325,114.768L250.28,114.833L250.234,114.897L250.188,114.96L250.141,115.024L250.094,115.087L250.047,115.15L249.999,115.212L249.951,115.275L249.903,115.336L249.854,115.398L249.805,115.459L249.756,115.521L249.706,115.581L249.656,115.642L249.605,115.702L249.554,115.762L249.503,115.821L249.452,115.88L249.399,115.939L249.347,115.998L249.295,116.056L249.242,116.114L249.188,116.172L249.135,116.229L249.081,116.286L249.027,116.343L248.972,116.399L248.917,116.455L248.862,116.51L248.806,116.566L248.75,116.621L248.693,116.676L248.637,116.73L248.58,116.784L248.523,116.837L248.465,116.891L248.407,116.944L248.349,116.997L248.29,117.049L248.231,117.101L248.172,117.152L248.113,117.204L248.053,117.255L247.993,117.305L247.932,117.355L247.872,117.405L247.811,117.455L247.749,117.504L247.688,117.552L247.626,117.601L247.563,117.649L247.501,117.697L247.438,117.744L247.375,117.791L247.312,117.837L247.248,117.883L247.184,117.929L247.12,117.975L247.055,118.02L246.99,118.064L246.925,118.109L246.859,118.153L246.794,118.196L246.728,118.239L246.662,118.282L246.595,118.324L246.528,118.366L246.461,118.408L246.394,118.449L246.326,118.49L246.258,118.53L246.19,118.57L246.122,118.61L246.053,118.649L245.984,118.688L245.915,118.726L245.845,118.764L245.776,118.802L245.706,118.839L245.636,118.876L245.565,118.912L245.494,118.948L245.424,118.984L245.353,119.019L245.281,119.054L245.209,119.088L245.137,119.122L245.065,119.155L244.993,119.188L244.92,119.221L244.847,119.253L244.774,119.285L244.701,119.316L244.627,119.347L244.553,119.377L244.479,119.407L244.405,119.437L244.331,119.466L244.256,119.495L244.181,119.523L244.106,119.551L244.03,119.578L243.955,119.605L243.879,119.631L243.803,119.657L243.727,119.683L243.65,119.708L243.574,119.732L243.497,119.757L243.42,119.78L243.343,119.803L243.265,119.826L243.188,119.848L243.11,119.87L243.032,119.892L242.954,119.913L242.875,119.933L242.797,119.953L242.718,119.972L242.639,119.991L242.56,120.01L242.48,120.028L242.401,120.046L242.321,120.063L242.241,120.079L242.161,120.095L242.081,120.111L242.001,120.126L241.92,120.141L241.84,120.155L241.759,120.169L241.678,120.182L241.596,120.194L241.515,120.207L241.433,120.218L241.352,120.229L241.27,120.24L241.188,120.25L241.106,120.26L241.024,120.269L240.941,120.278L240.858,120.286L240.776,120.293L240.693,120.301L240.61,120.307L240.527,120.313L240.444,120.319L240.36,120.324L240.276,120.328L240.193,120.332L240.109,120.336L240.025,120.339L239.941,120.341L239.857,120.343L239.772,120.344L239.688,120.345L239.605,120.345L14.773,120.345Z" style="fill:white;"/>
            </g>
        </g>
        <g transform="matrix(1.09255,0,-7.00649e-46,1.09255,496.436,243.703)">
            <path d="M54.418,98.443L52.277,98.443L52.277,77.384L54.418,77.384L54.418,98.443ZM61.706,84.522C61.745,84.899 61.775,85.315 61.795,85.772C61.815,86.228 61.825,86.604 61.825,86.902L61.884,86.902C62.281,86.089 62.925,85.43 63.818,84.924C64.71,84.418 65.652,84.165 66.643,84.165C68.408,84.165 69.732,84.691 70.614,85.742C71.497,86.793 71.938,88.181 71.938,89.906L71.938,98.443L69.915,98.443L69.915,90.739C69.915,90.005 69.856,89.341 69.737,88.746C69.618,88.151 69.414,87.641 69.127,87.214C68.839,86.788 68.453,86.456 67.967,86.218C67.481,85.98 66.871,85.861 66.138,85.861C65.602,85.861 65.082,85.97 64.576,86.188C64.07,86.406 63.619,86.738 63.223,87.184C62.826,87.631 62.509,88.196 62.271,88.88C62.033,89.564 61.914,90.372 61.914,91.304L61.914,98.443L59.891,98.443L59.891,87.586C59.891,87.209 59.881,86.723 59.862,86.129C59.842,85.534 59.812,84.998 59.772,84.522L61.706,84.522ZM84.579,87.824C84.282,87.249 83.83,86.778 83.226,86.411C82.621,86.044 81.932,85.861 81.158,85.861C80.802,85.861 80.445,85.9 80.088,85.98C79.731,86.059 79.413,86.188 79.136,86.366C78.858,86.545 78.635,86.773 78.467,87.051C78.298,87.328 78.214,87.655 78.214,88.032C78.214,88.687 78.481,89.187 79.017,89.534C79.552,89.881 80.395,90.174 81.545,90.412C83.191,90.749 84.406,91.24 85.189,91.884C85.972,92.528 86.364,93.396 86.364,94.487C86.364,95.28 86.21,95.949 85.903,96.494C85.595,97.04 85.194,97.486 84.698,97.833C84.202,98.18 83.642,98.428 83.017,98.576C82.393,98.725 81.763,98.8 81.129,98.8C80.078,98.8 79.057,98.581 78.065,98.145C77.074,97.709 76.261,97.025 75.626,96.093L77.232,94.903C77.589,95.518 78.115,96.033 78.809,96.45C79.503,96.866 80.266,97.074 81.099,97.074C81.535,97.074 81.952,97.035 82.348,96.955C82.745,96.876 83.092,96.737 83.389,96.539C83.687,96.341 83.925,96.088 84.103,95.781C84.282,95.473 84.371,95.091 84.371,94.635C84.371,93.902 84.019,93.351 83.315,92.985C82.611,92.618 81.595,92.276 80.266,91.958C79.85,91.859 79.408,91.735 78.942,91.587C78.477,91.438 78.045,91.22 77.649,90.932C77.252,90.645 76.925,90.283 76.667,89.847C76.409,89.41 76.28,88.865 76.28,88.211C76.28,87.497 76.419,86.887 76.697,86.381C76.974,85.876 77.346,85.459 77.812,85.132C78.278,84.805 78.809,84.562 79.404,84.403C79.998,84.245 80.613,84.165 81.248,84.165C82.219,84.165 83.161,84.384 84.073,84.82C84.986,85.256 85.67,85.871 86.126,86.664L84.579,87.824ZM96.655,86.218L92.729,86.218L92.729,94.338C92.729,94.853 92.779,95.28 92.878,95.617C92.977,95.954 93.121,96.217 93.309,96.405C93.497,96.594 93.72,96.722 93.978,96.792C94.236,96.861 94.514,96.896 94.811,96.896C95.089,96.896 95.381,96.856 95.689,96.777C95.996,96.698 96.288,96.589 96.566,96.45L96.655,98.205C96.298,98.343 95.926,98.448 95.54,98.517C95.153,98.586 94.732,98.621 94.276,98.621C93.899,98.621 93.502,98.572 93.086,98.472C92.669,98.373 92.283,98.185 91.926,97.907C91.569,97.63 91.276,97.253 91.048,96.777C90.82,96.301 90.706,95.676 90.706,94.903L90.706,86.218L87.821,86.218L87.821,84.522L90.706,84.522L90.706,80.596L92.729,80.596L92.729,84.522L96.655,84.522L96.655,86.218ZM99.808,87.586C99.808,87.209 99.798,86.723 99.778,86.129C99.759,85.534 99.729,84.998 99.689,84.522L101.622,84.522C101.662,84.899 101.692,85.315 101.712,85.772C101.732,86.228 101.742,86.604 101.742,86.902L101.801,86.902C102.198,86.089 102.792,85.43 103.586,84.924C104.379,84.418 105.271,84.165 106.263,84.165C106.52,84.165 106.753,84.175 106.962,84.195C107.17,84.215 107.383,84.255 107.601,84.314L107.333,86.218C107.214,86.178 107.016,86.138 106.739,86.099C106.461,86.059 106.183,86.039 105.906,86.039C105.37,86.039 104.855,86.138 104.359,86.337C103.863,86.535 103.432,86.847 103.065,87.274C102.698,87.7 102.401,88.245 102.173,88.91C101.945,89.574 101.831,90.372 101.831,91.304L101.831,98.443L99.808,98.443L99.808,87.586ZM120.629,98.443C120.589,98.066 120.56,97.649 120.54,97.193C120.52,96.737 120.51,96.361 120.51,96.063L120.451,96.063C120.054,96.876 119.41,97.535 118.517,98.041C117.625,98.547 116.683,98.8 115.692,98.8C113.927,98.8 112.603,98.274 111.721,97.223C110.838,96.172 110.397,94.784 110.397,93.059L110.397,84.522L112.42,84.522L112.42,92.226C112.42,92.96 112.479,93.624 112.598,94.219C112.717,94.814 112.92,95.324 113.208,95.751C113.495,96.177 113.882,96.509 114.368,96.747C114.854,96.985 115.464,97.104 116.197,97.104C116.733,97.104 117.253,96.995 117.759,96.777C118.264,96.559 118.716,96.227 119.112,95.781C119.509,95.334 119.826,94.769 120.064,94.085C120.302,93.401 120.421,92.593 120.421,91.661L120.421,84.522L122.444,84.522L122.444,95.379C122.444,95.756 122.453,96.242 122.473,96.836C122.493,97.431 122.523,97.967 122.563,98.443L120.629,98.443ZM137.821,87.705C137.484,87.17 136.993,86.728 136.349,86.381C135.704,86.034 135.005,85.861 134.252,85.861C133.439,85.861 132.705,86.005 132.051,86.292C131.397,86.58 130.836,86.976 130.37,87.482C129.904,87.988 129.547,88.582 129.299,89.267C129.052,89.951 128.928,90.689 128.928,91.482C128.928,92.276 129.052,93.009 129.299,93.684C129.547,94.358 129.899,94.948 130.355,95.453C130.812,95.959 131.367,96.356 132.021,96.643C132.675,96.931 133.409,97.074 134.222,97.074C135.114,97.074 135.868,96.906 136.483,96.569C137.098,96.232 137.603,95.795 138,95.26L139.517,96.39C138.922,97.124 138.193,97.709 137.331,98.145C136.468,98.581 135.432,98.8 134.222,98.8C133.092,98.8 132.071,98.616 131.159,98.249C130.246,97.882 129.468,97.372 128.824,96.717C128.179,96.063 127.678,95.29 127.322,94.397C126.965,93.505 126.786,92.533 126.786,91.482C126.786,90.432 126.965,89.46 127.322,88.568C127.678,87.675 128.179,86.902 128.824,86.247C129.468,85.593 130.246,85.082 131.159,84.716C132.071,84.349 133.092,84.165 134.222,84.165C135.154,84.165 136.101,84.369 137.063,84.775C138.025,85.182 138.803,85.781 139.398,86.575L137.821,87.705ZM148.946,86.218L145.019,86.218L145.019,94.338C145.019,94.853 145.069,95.28 145.168,95.617C145.267,95.954 145.411,96.217 145.599,96.405C145.788,96.594 146.011,96.722 146.269,96.792C146.526,96.861 146.804,96.896 147.102,96.896C147.379,96.896 147.672,96.856 147.979,96.777C148.286,96.698 148.579,96.589 148.856,96.45L148.946,98.205C148.589,98.343 148.217,98.448 147.83,98.517C147.443,98.586 147.022,98.621 146.566,98.621C146.189,98.621 145.793,98.572 145.376,98.472C144.96,98.373 144.573,98.185 144.216,97.907C143.859,97.63 143.567,97.253 143.339,96.777C143.111,96.301 142.997,95.676 142.997,94.903L142.997,86.218L140.112,86.218L140.112,84.522L142.997,84.522L142.997,80.596L145.019,80.596L145.019,84.522L148.946,84.522L148.946,86.218ZM154.151,98.443L152.128,98.443L152.128,84.522L154.151,84.522L154.151,98.443ZM154.567,79.168C154.567,79.585 154.419,79.927 154.121,80.195C153.824,80.462 153.497,80.596 153.14,80.596C152.783,80.596 152.455,80.462 152.158,80.195C151.861,79.927 151.712,79.585 151.712,79.168C151.712,78.752 151.861,78.41 152.158,78.142C152.455,77.874 152.783,77.741 153.14,77.741C153.497,77.741 153.824,77.874 154.121,78.142C154.419,78.41 154.567,78.752 154.567,79.168ZM173.366,91.482C173.366,92.533 173.182,93.505 172.815,94.397C172.449,95.29 171.938,96.063 171.284,96.717C170.629,97.372 169.846,97.882 168.934,98.249C168.022,98.616 167.02,98.8 165.93,98.8C164.859,98.8 163.867,98.616 162.955,98.249C162.043,97.882 161.26,97.372 160.605,96.717C159.951,96.063 159.44,95.29 159.073,94.397C158.707,93.505 158.523,92.533 158.523,91.482C158.523,90.432 158.707,89.46 159.073,88.568C159.44,87.675 159.951,86.902 160.605,86.247C161.26,85.593 162.043,85.082 162.955,84.716C163.867,84.349 164.859,84.165 165.93,84.165C167.02,84.165 168.022,84.349 168.934,84.716C169.846,85.082 170.629,85.593 171.284,86.247C171.938,86.902 172.449,87.675 172.815,88.568C173.182,89.46 173.366,90.432 173.366,91.482ZM171.224,91.482C171.224,90.709 171.1,89.98 170.852,89.296C170.604,88.612 170.252,88.017 169.796,87.512C169.34,87.006 168.785,86.604 168.131,86.307C167.476,86.01 166.743,85.861 165.93,85.861C165.117,85.861 164.388,86.01 163.743,86.307C163.099,86.604 162.549,87.006 162.093,87.512C161.636,88.017 161.284,88.612 161.037,89.296C160.789,89.98 160.665,90.709 160.665,91.482C160.665,92.256 160.789,92.985 161.037,93.669C161.284,94.353 161.636,94.948 162.093,95.453C162.549,95.959 163.099,96.356 163.743,96.643C164.388,96.931 165.117,97.074 165.93,97.074C166.743,97.074 167.476,96.931 168.131,96.643C168.785,96.356 169.34,95.959 169.796,95.453C170.252,94.948 170.604,94.353 170.852,93.669C171.1,92.985 171.224,92.256 171.224,91.482ZM179.523,84.522C179.562,84.899 179.592,85.315 179.612,85.772C179.632,86.228 179.642,86.604 179.642,86.902L179.701,86.902C180.098,86.089 180.742,85.43 181.635,84.924C182.527,84.418 183.469,84.165 184.46,84.165C186.225,84.165 187.549,84.691 188.431,85.742C189.313,86.793 189.755,88.181 189.755,89.906L189.755,98.443L187.732,98.443L187.732,90.739C187.732,90.005 187.673,89.341 187.554,88.746C187.435,88.151 187.231,87.641 186.944,87.214C186.656,86.788 186.27,86.456 185.784,86.218C185.298,85.98 184.688,85.861 183.955,85.861C183.419,85.861 182.899,85.97 182.393,86.188C181.887,86.406 181.436,86.738 181.04,87.184C180.643,87.631 180.326,88.196 180.088,88.88C179.85,89.564 179.731,90.372 179.731,91.304L179.731,98.443L177.708,98.443L177.708,87.586C177.708,87.209 177.698,86.723 177.679,86.129C177.659,85.534 177.629,84.998 177.589,84.522L179.523,84.522ZM202.396,87.824C202.099,87.249 201.647,86.778 201.043,86.411C200.438,86.044 199.749,85.861 198.975,85.861C198.618,85.861 198.262,85.9 197.905,85.98C197.548,86.059 197.23,86.188 196.953,86.366C196.675,86.545 196.452,86.773 196.284,87.051C196.115,87.328 196.031,87.655 196.031,88.032C196.031,88.687 196.299,89.187 196.834,89.534C197.369,89.881 198.212,90.174 199.362,90.412C201.008,90.749 202.223,91.24 203.006,91.884C203.789,92.528 204.181,93.396 204.181,94.487C204.181,95.28 204.027,95.949 203.72,96.494C203.412,97.04 203.011,97.486 202.515,97.833C202.019,98.18 201.459,98.428 200.835,98.576C200.21,98.725 199.58,98.8 198.946,98.8C197.895,98.8 196.873,98.581 195.882,98.145C194.891,97.709 194.078,97.025 193.443,96.093L195.049,94.903C195.406,95.518 195.932,96.033 196.626,96.45C197.32,96.866 198.083,97.074 198.916,97.074C199.352,97.074 199.769,97.035 200.165,96.955C200.562,96.876 200.909,96.737 201.206,96.539C201.504,96.341 201.742,96.088 201.92,95.781C202.099,95.473 202.188,95.091 202.188,94.635C202.188,93.902 201.836,93.351 201.132,92.985C200.428,92.618 199.412,92.276 198.083,91.958C197.667,91.859 197.225,91.735 196.759,91.587C196.293,91.438 195.862,91.22 195.466,90.932C195.069,90.645 194.742,90.283 194.484,89.847C194.226,89.41 194.097,88.865 194.097,88.211C194.097,87.497 194.236,86.887 194.514,86.381C194.791,85.876 195.163,85.459 195.629,85.132C196.095,84.805 196.626,84.562 197.221,84.403C197.815,84.245 198.43,84.165 199.065,84.165C200.036,84.165 200.978,84.384 201.89,84.82C202.803,85.256 203.487,85.871 203.943,86.664L202.396,87.824Z" style="fill:white;"/>
        </g>
    </g>
</svg>
