<?xml version="1.0" encoding="UTF-8" standalone="no"?><!DOCTYPE svg PUBLIC "-//W3C//DTD SVG 1.1//EN" "http://www.w3.org/Graphics/SVG/1.1/DTD/svg11.dtd"><svg width="100%" height="100%" viewBox="0 0 1280 720" version="1.1" xmlns="http://www.w3.org/2000/svg" xmlns:xlink="http://www.w3.org/1999/xlink" xml:space="preserve" xmlns:serif="http://www.serif.com/" style="fill-rule:evenodd;clip-rule:evenodd;stroke-linejoin:round;stroke-miterlimit:2;"><g id="Instructions"><g><g><path d="M640,344.501c10.099,0 26.062,14.66 32.49,20.997l205.253,-0.002c31.622,0 57.257,25.637 57.257,57.254l0,32.495c0,31.62 -25.636,57.254 -57.257,57.254l-475.486,0c-31.622,0 -57.257,-25.637 -57.257,-57.254l0,-32.495c0,-31.621 25.636,-57.254 57.257,-57.254l205.253,0.002c6.428,-6.337 22.391,-20.997 32.49,-20.997Z" style="fill:#fff;"/><path d="M469.339,461.315c1.88,0 3.076,-1.23 3.076,-3.178l0,-43.921c0,-1.949 -1.196,-3.179 -3.076,-3.179c-1.88,0 -3.076,1.23 -3.076,3.179l0,43.921c0,1.948 1.196,3.178 3.076,3.178Z" style="fill:#443f49;fill-rule:nonzero;"/><path d="M485.425,461.452c1.744,0 2.974,-1.299 2.974,-3.179l0,-18.354c0,-6.016 3.657,-9.981 9.263,-9.981c5.468,0 8.169,3.145 8.169,8.887l0,19.448c0,1.88 1.23,3.179 2.973,3.179c1.743,0 2.974,-1.299 2.974,-3.179l0,-20.507c0,-8.067 -4.512,-13.091 -12.305,-13.091c-5.503,0 -9.297,2.461 -11.279,6.289l-0.137,0l0,-3.282c0,-1.777 -1.162,-3.007 -2.803,-3.007c-1.64,0 -2.802,1.23 -2.802,3.007l0,30.591c0,1.88 1.23,3.179 2.973,3.179Z" style="fill:#443f49;fill-rule:nonzero;"/><path d="M533.06,461.452c8.442,0 14.15,-4.272 14.15,-10.63c0,-5.229 -2.734,-7.827 -10.151,-9.639l-5.298,-1.298c-3.897,-0.957 -5.811,-2.666 -5.811,-5.127c0,-3.042 2.974,-5.196 7.247,-5.196c3.623,0 5.913,1.299 7.451,4.273c0.649,1.23 1.469,1.606 2.632,1.606c1.435,0 2.324,-0.923 2.324,-2.324c0,-0.273 -0.034,-0.547 -0.103,-0.889c-0.923,-4.272 -6.118,-7.553 -11.963,-7.553c-8.032,0 -13.466,4.204 -13.466,10.39c0,4.991 3.315,8.238 10.185,9.947l5.435,1.367c3.999,0.991 5.468,2.358 5.468,4.922c0,3.315 -3.076,5.298 -7.622,5.298c-4.546,0 -6.665,-1.402 -8.442,-4.512c-0.684,-1.231 -1.538,-1.778 -2.598,-1.778c-1.538,0 -2.7,0.889 -2.7,2.461c0,0.445 0.068,0.889 0.274,1.402c1.708,4.443 6.665,7.28 12.988,7.28Z" style="fill:#443f49;fill-rule:nonzero;"/><path d="M556.598,452.634c0,5.673 2.871,8.476 8.613,8.476l0.376,0c3.315,0 4.341,-0.957 4.341,-2.768c0,-1.402 -0.889,-2.188 -2.837,-2.325l-0.513,-0.034c-2.974,-0.205 -4.033,-1.64 -4.033,-4.648l0,-21.157l4.58,0c1.709,0 2.666,-0.889 2.666,-2.461c0,-1.538 -0.957,-2.427 -2.666,-2.427l-4.58,0l0,-6.084c0,-1.88 -1.231,-3.179 -2.974,-3.179c-1.743,0 -2.973,1.299 -2.973,3.179l0,6.084l-2.974,0c-1.709,0 -2.666,0.889 -2.666,2.427c0,1.572 0.957,2.461 2.666,2.461l2.974,0l0,22.456Z" style="fill:#443f49;fill-rule:nonzero;"/><path d="M580.135,461.452c1.743,0 2.974,-1.299 2.974,-3.179l0,-19.516c0,-4.546 2.29,-8.408 7.656,-8.408c1.299,0 2.222,-0.24 2.837,-0.752c0.615,-0.479 0.923,-1.163 0.923,-2.085c0,-0.821 -0.239,-1.504 -0.752,-1.983c-0.581,-0.547 -1.504,-0.854 -2.803,-0.854c-3.554,0 -7.041,2.734 -8.066,6.425l-0.137,0l0,-3.418c0,-1.777 -1.162,-3.007 -2.803,-3.007c-1.64,0 -2.802,1.23 -2.802,3.007l0,30.591c0,1.88 1.23,3.179 2.973,3.179Z" style="fill:#443f49;fill-rule:nonzero;"/><path d="M612.252,461.452c5.469,0 9.16,-2.29 11.279,-6.392l0.137,0l0,3.384c0,1.709 1.128,3.008 2.837,3.008c1.709,0 2.803,-1.299 2.803,-3.008l0,-30.591c0,-1.879 -1.231,-3.178 -2.974,-3.178c-1.743,0 -2.973,1.299 -2.973,3.178l0,18.321c0,6.05 -3.487,10.014 -9.263,10.014c-5.503,0 -8.203,-3.11 -8.203,-8.886l0,-19.449c0,-1.879 -1.231,-3.178 -2.974,-3.178c-1.743,0 -2.974,1.299 -2.974,3.178l0,20.508c0,8.067 4.546,13.091 12.305,13.091Z" style="fill:#443f49;fill-rule:nonzero;"/><path d="M653.051,461.452c6.46,0 12.099,-3.555 13.808,-8.477c0.171,-0.546 0.274,-1.059 0.274,-1.503c0,-1.539 -1.026,-2.598 -2.564,-2.598c-1.299,0 -1.948,0.478 -2.803,2.085c-1.845,3.418 -4.443,5.264 -8.715,5.264c-6.119,0 -10.357,-4.991 -10.357,-13.16c0,-7.964 4.17,-13.159 10.357,-13.159c4.101,0 6.801,1.743 8.681,5.264c0.821,1.538 1.538,2.085 2.837,2.085c1.538,0 2.529,-1.026 2.529,-2.598c0,-0.376 -0.068,-0.82 -0.205,-1.264c-1.367,-4.922 -7.212,-8.716 -13.911,-8.716c-9.843,0 -16.338,7.28 -16.338,18.457c0,11.245 6.563,18.32 16.407,18.32Z" style="fill:#443f49;fill-rule:nonzero;"/><path d="M676.759,452.634c0,5.673 2.871,8.476 8.614,8.476l0.376,0c3.315,0 4.34,-0.957 4.34,-2.768c0,-1.402 -0.888,-2.188 -2.837,-2.325l-0.512,-0.034c-2.974,-0.205 -4.033,-1.64 -4.033,-4.648l0,-21.157l4.58,0c1.709,0 2.666,-0.889 2.666,-2.461c0,-1.538 -0.957,-2.427 -2.666,-2.427l-4.58,0l0,-6.084c0,-1.88 -1.231,-3.179 -2.974,-3.179c-1.743,0 -2.974,1.299 -2.974,3.179l0,6.084l-2.973,0c-1.709,0 -2.666,0.889 -2.666,2.427c0,1.572 0.957,2.461 2.666,2.461l2.973,0l0,22.456Z" style="fill:#443f49;fill-rule:nonzero;"/><path d="M700.605,419.308c2.05,0 3.725,-1.674 3.725,-3.691c0,-2.051 -1.675,-3.691 -3.725,-3.691c-2.017,0 -3.692,1.64 -3.692,3.691c0,2.017 1.675,3.691 3.692,3.691Zm0,42.144c1.743,0 2.973,-1.299 2.973,-3.179l0,-30.42c0,-1.879 -1.23,-3.178 -2.973,-3.178c-1.744,0 -2.974,1.299 -2.974,3.178l0,30.42c0,1.88 1.23,3.179 2.974,3.179Z" style="fill:#443f49;fill-rule:nonzero;"/><path d="M727.731,461.452c9.81,0 16.441,-7.075 16.441,-18.389c0,-11.347 -6.631,-18.388 -16.441,-18.388c-9.844,0 -16.474,7.041 -16.474,18.388c0,11.314 6.63,18.389 16.474,18.389Zm0,-5.229c-6.289,0 -10.425,-4.786 -10.425,-13.16c0,-8.374 4.136,-13.159 10.425,-13.159c6.289,0 10.391,4.785 10.391,13.159c0,8.374 -4.102,13.16 -10.391,13.16Z" style="fill:#443f49;fill-rule:nonzero;"/><path d="M754.516,461.452c1.743,0 2.974,-1.299 2.974,-3.179l0,-18.354c0,-6.016 3.657,-9.981 9.262,-9.981c5.469,0 8.169,3.145 8.169,8.887l0,19.448c0,1.88 1.231,3.179 2.974,3.179c1.743,0 2.974,-1.299 2.974,-3.179l0,-20.507c0,-8.067 -4.512,-13.091 -12.305,-13.091c-5.503,0 -9.297,2.461 -11.279,6.289l-0.137,0l0,-3.282c0,-1.777 -1.162,-3.007 -2.803,-3.007c-1.64,0 -2.803,1.23 -2.803,3.007l0,30.591c0,1.88 1.231,3.179 2.974,3.179Z" style="fill:#443f49;fill-rule:nonzero;"/><path d="M802.15,461.452c8.443,0 14.151,-4.272 14.151,-10.63c0,-5.229 -2.735,-7.827 -10.152,-9.639l-5.297,-1.298c-3.897,-0.957 -5.811,-2.666 -5.811,-5.127c0,-3.042 2.974,-5.196 7.246,-5.196c3.623,0 5.913,1.299 7.451,4.273c0.65,1.23 1.47,1.606 2.632,1.606c1.436,0 2.324,-0.923 2.324,-2.324c0,-0.273 -0.034,-0.547 -0.102,-0.889c-0.923,-4.272 -6.118,-7.553 -11.963,-7.553c-8.032,0 -13.467,4.204 -13.467,10.39c0,4.991 3.316,8.238 10.186,9.947l5.434,1.367c3.999,0.991 5.469,2.358 5.469,4.922c0,3.315 -3.076,5.298 -7.622,5.298c-4.546,0 -6.665,-1.402 -8.442,-4.512c-0.684,-1.231 -1.538,-1.778 -2.598,-1.778c-1.538,0 -2.7,0.889 -2.7,2.461c0,0.445 0.068,0.889 0.273,1.402c1.709,4.443 6.665,7.28 12.988,7.28Z" style="fill:#443f49;fill-rule:nonzero;"/></g><g><path d="M640,317.501c30.376,0 55,-24.624 55,-55c0,-30.375 -24.624,-55 -55,-55c-30.376,0 -55,24.625 -55,55c0,30.376 24.624,55 55,55Z" style="fill-opacity:0.4;"/><path d="M640,302.501c22.091,0 40,-17.908 40,-40c0,-22.091 -17.909,-40 -40,-40c-22.091,0 -40,17.909 -40,40c0,22.092 17.909,40 40,40Z" style="fill:#fff;"/></g></g></g></svg>