<?xml version="1.0" standalone="no"?>
<!DOCTYPE svg PUBLIC "-//W3C//DTD SVG 1.1//EN" "http://www.w3.org/Graphics/SVG/1.1/DTD/svg11.dtd">
<svg width="100%" height="100%" viewBox="0 0 2498 1767" version="1.1" xmlns="http://www.w3.org/2000/svg" xmlns:xlink="http://www.w3.org/1999/xlink" xml:space="preserve" style="fill-rule:evenodd;clip-rule:evenodd;stroke-linejoin:round;stroke-miterlimit:1.41421;">
    <g id="iPad Air 2">
        <g id="Face">
            <path id="Outline" d="M120.67,0.493C36.002,0.493 0.016,43.987 0.016,124.321L0.016,1650.41C0.016,1734.66 48.837,1766.49 120.086,1766.49L2376.93,1766.49C2448.18,1766.49 2497,1734.66 2497,1650.41L2497,124.321C2497,43.987 2461.02,0.493 2376.35,0.493L120.67,0.493Z" style="fill:rgb(213,210,207);"/>
            <path id="Face1" d="M38.679,42.764C21.411,61.209 13.016,88.215 13.016,125.321L13.016,1650.54C13.016,1668.59 15.574,1684.62 20.618,1698.19C25.548,1711.45 32.88,1722.41 42.409,1730.76C60.393,1746.51 86.528,1754.49 120.086,1754.49L2376.93,1754.49C2410.36,1754.49 2436.47,1746.48 2454.52,1730.66C2474.08,1713.53 2484,1686.87 2484,1651.41L2484,125.321C2484,87.385 2475.8,60.184 2458.94,42.166C2450.56,33.221 2439.69,26.375 2426.64,21.818C2412.71,16.958 2395.79,14.493 2376.35,14.493L120.67,14.493C101.229,14.493 84.311,16.958 70.383,21.818C58.296,26.037 47.924,32.889 38.679,42.764Z" style="fill:rgb(243,245,247);"/>
            <path id="Screen Outline" d="M219.009,116.493L219.009,1652.49C219.009,1656.91 222.591,1660.49 227.01,1660.49L2275.01,1660.49C2277.13,1660.49 2279.17,1659.65 2280.67,1658.15C2282.17,1656.65 2283.01,1654.62 2283.01,1652.49L2283.01,116.493C2283.01,112.075 2279.43,108.493 2275.01,108.493L227.01,108.493C222.591,108.493 219.009,112.075 219.009,116.493Z" style="fill:rgb(62,62,62);"/>
            <path id="Home Button" d="M2344.01,883.993C2344.01,857.802 2365.32,836.493 2391.51,836.493C2417.7,836.493 2439.01,857.802 2439.01,883.993C2439.01,910.184 2417.7,931.493 2391.51,931.493C2365.32,931.493 2344.01,910.184 2344.01,883.993M2336.01,883.993C2336.01,914.645 2360.86,939.493 2391.51,939.493C2422.16,939.493 2447.01,914.645 2447.01,883.993C2447.01,853.342 2422.16,828.493 2391.51,828.493C2360.86,828.493 2336.01,853.342 2336.01,883.993L2336.01,883.993Z" style="fill:rgb(213,210,207);"/>
            <g id="Camera + Sensor">
                <path id="Sensor" d="M117.009,920.493C120.875,920.493 124.009,923.627 124.009,927.493C124.009,931.359 120.875,934.493 117.009,934.493C113.142,934.493 110.009,931.359 110.009,927.493C110.009,923.627 113.142,920.493 117.009,920.493Z" style="fill:rgb(224,224,224);"/>
                <path d="M117.009,920.493C120.875,920.493 124.009,923.627 124.009,927.493C124.009,931.359 120.875,934.493 117.009,934.493C113.142,934.493 110.009,931.359 110.009,927.493C110.009,923.627 113.142,920.493 117.009,920.493Z" style="fill:rgb(224,224,224);"/>
                <path id="Camera" d="M116.51,871.493C123.966,871.493 130.009,877.537 130.009,884.993C130.009,892.449 123.966,898.493 116.51,898.493C109.054,898.493 103.009,892.449 103.009,884.993C103.009,877.537 109.054,871.493 116.51,871.493Z" style="fill:rgb(62,62,62);"/>
            </g>
        </g>
        <path id="Screen" d="M227.009,116.493L227.009,1652.49L2275.01,1652.49L2275.01,116.493L227.009,116.493Z" style="fill:black;"/>
        <path d="M227.009,1660.49L224.537,1660.1L222.307,1658.97L220.537,1657.19L219.401,1654.97L219.009,1652.49L219.009,116.493L219.401,114.021L220.537,111.791L222.307,110.021L224.537,108.885L227.009,108.493L2275.01,108.493L2277.48,108.885L2279.71,110.021L2281.48,111.791L2282.62,114.021L2283.01,116.493L2283.01,1652.49L2282.62,1654.97L2281.48,1657.19L2279.71,1658.97L2277.48,1660.1L2275.01,1660.49L227.009,1660.49ZM227.009,1652.49L2275.01,1652.49L2275.01,116.493L227.009,116.493L227.009,1652.49Z" style="fill:rgb(62,62,62);"/>
    </g>
</svg>
