<svg xmlns="http://www.w3.org/2000/svg" fill-rule="evenodd" stroke-linejoin="round" stroke-miterlimit="1.41" clip-rule="evenodd" viewBox="0 0 2498 1767" width="2498" height="1767"><path fill="#d5d2cf" d="M120.67.493C36.002.493.016 43.987.016 124.321V1650.41c0 84.25 48.821 116.08 120.07 116.08H2376.93c71.25 0 120.07-31.83 120.07-116.08V124.321C2497 43.987 2461.02.493 2376.35.493H120.67z"/><path fill="#f3f5f7" d="M38.679 42.764c-17.268 18.445-25.663 45.451-25.663 82.557V1650.54c0 18.05 2.558 34.08 7.602 47.65 4.93 13.26 12.262 24.22 21.791 32.57 17.984 15.75 44.119 23.73 77.677 23.73H2376.93c33.43 0 59.54-8.01 77.59-23.83 19.56-17.13 29.48-43.79 29.48-79.25V125.321c0-37.936-8.2-65.137-25.06-83.155-8.38-8.945-19.25-15.791-32.3-20.348-13.93-4.86-30.85-7.325-50.29-7.325H120.67c-19.441 0-36.359 2.465-50.287 7.325-12.087 4.219-22.459 11.071-31.704 20.946z"/><path fill="#3e3e3e" d="M219.009 116.493V1652.49a8 8 0 0 0 8.001 8h2048a7.99 7.99 0 0 0 8-8V116.493a8 8 0 0 0-8-8h-2048a8 8 0 0 0-8.001 8z"/><path fill="#d5d2cf" d="M2344.01 883.993c0-26.191 21.31-47.5 47.5-47.5s47.5 21.309 47.5 47.5-21.31 47.5-47.5 47.5-47.5-21.309-47.5-47.5m-8 0c0 30.652 24.85 55.5 55.5 55.5s55.5-24.848 55.5-55.5c0-30.651-24.85-55.5-55.5-55.5s-55.5 24.849-55.5 55.5z"/><path fill="#e0e0e0" d="M117.009 920.493a7 7 0 1 1 0 14 7 7 0 0 1 0-14z"/><path fill="#e0e0e0" d="M117.009 920.493a7 7 0 1 1 0 14 7 7 0 0 1 0-14z"/><path fill="#3e3e3e" d="M116.51 871.493c7.456 0 13.499 6.044 13.499 13.5s-6.043 13.5-13.499 13.5-13.501-6.044-13.501-13.5 6.045-13.5 13.501-13.5z"/><path d="M227.009 116.493V1652.49H2275.01V116.493H227.009z"/><path fill="#3e3e3e" d="M227.009 1660.49l-2.472-.39-2.23-1.13-1.77-1.78-1.136-2.22-.392-2.48V116.493l.392-2.472 1.136-2.23 1.77-1.77 2.23-1.136 2.472-.392H2275.01l2.47.392 2.23 1.136 1.77 1.77 1.14 2.23.39 2.472V1652.49l-.39 2.48-1.14 2.22-1.77 1.78-2.23 1.13-2.47.39H227.009zm0-8H2275.01V116.493H227.009V1652.49z"/></svg>