<svg xmlns="http://www.w3.org/2000/svg" viewBox="0 0 764 1603"><g fill="none" fill-rule="evenodd"><g fill="#D5D2CF"><path d="M513.5 3.59v9h122v-9l-3.991-3h-114M3.5 512.59l-3 3v50l3 3h9v-56m-9-133l-3 3v50l3 3h9v-56m-9-151l-3 3v67l3 3h9v-73h-9"/><path d="M9.5 121.6c0-29.92 11.67-58.05 32.85-79.21 21.18-21.15 49.33-32.8 79.28-32.8h529.74c29.95 0 58.1 11.65 79.28 32.8 21.19 21.16 32.85 49.29 32.85 79.21v1368.98c0 29.922-11.66 58.054-32.85 79.211-21.18 21.153-49.33 32.803-79.28 32.803H121.63c-29.95 0-58.1-11.65-79.28-32.803-21.18-21.157-32.85-49.289-32.85-79.211V121.6z"/></g><path fill="#F7F7F7" d="M121.63 18.584h529.74c56.87 0 103.13 46.212 103.13 103.015v1367.97c0 56.8-46.26 103.01-103.13 103.01H121.63c-56.86 0-103.13-46.21-103.13-103.01V121.599c0-56.803 46.27-103.015 103.13-103.015z"/><path fill="#D5D2CF" d="M386.058 1418.15c37.53 0 68 30.469 68 68 0 37.53-30.47 68-68 68s-68-30.47-68-68c0-37.531 30.47-68 68-68zm0 8.1c33.06 0 59.901 26.841 59.901 59.901s-26.841 59.901-59.901 59.901-59.901-26.841-59.901-59.901 26.841-59.901 59.901-59.901z"/><path fill="#3E3E3E" d="M65.5 1381.59c-.824-.131-1.679-.134-2.472-.392-1.607-.522-3.007-1.539-4-2.906-.491-.675-.879-1.437-1.136-2.23-.258-.794-.261-1.648-.392-2.472v-1136c.131-.824.134-1.679.392-2.472.522-1.607 1.539-3.007 2.906-4 .675-.491 1.436-.879 2.23-1.137.793-.258 1.648-.261 2.472-.391h640c.824.13 1.679.133 2.472.391 1.607.522 3.007 1.54 4 2.906.491.675.879 1.437 1.136 2.231.258.793.261 1.648.392 2.472v1136c-.131.824-.134 1.678-.392 2.472-.522 1.607-1.539 3.007-2.906 4-.675.49-1.436.878-2.23 1.136-.793.258-1.648.261-2.472.392h-640z"/><path fill="#343434" d="M65.5 237.59h640v1136h-640z"/><path fill="#3E3E3E" d="M329.5 138.59h110c4.41 0 8 3.589 8 8s-3.59 8-8 8h-110c-4.41 0-8-3.589-8-8s3.59-8 8-8zm-48.54-1.044c5.27 0 9.54 4.272 9.54 9.541s-4.27 9.541-9.54 9.541-9.54-4.272-9.54-9.541 4.27-9.541 9.54-9.541zM385.5 73.223c7.73 0 14 6.268 14 14s-6.27 14-14 14-14-6.268-14-14 6.27-14 14-14z"/></g></svg>
