<svg xmlns="http://www.w3.org/2000/svg" fill-rule="evenodd" stroke-linejoin="round" stroke-miterlimit="1.41" clip-rule="evenodd" viewBox="0 0 649 1323" width="649" height="1323"><g fill="#d5d2cf"><path d="M644.993 381.091l.378 832.804c0 65.06-36.983 108.371-103.883 108.371H365.625c-2.852 0-6.9-2.266-9.75-2.266h-63c-2.85 0-6.898 2.265-9.75 2.266h-137.25c-5.599 0-7.809-3-18.028-3-10.219 0-15.751 3-17.972 3h-2.607c-66.874 0-103.851-43.276-103.881-108.292-.251-.029-.379-.055-.379-.076V504.451c0-1.92 1.187-5.108 1.514-6.518.328-1.402.906-3.51.906-5.295V289.643c0-1.027-.375-5.092-.812-5.812-.437-.713-1.608-5.4-1.608-6.338V108.371C3.008 43.311 39.988 0 106.89 0h434.22c66.9 0 103.882 43.311 103.882 108.371v170.382c0 .428-.487.863-.765 1.328-.285.472-.892 1.567-.892 4.02v91.642c0 2.46.607 3.548.892 4.02.278.465.765.908.765 1.328z"/><path d="M642 379.508h4.225c.971 0 2.525-.802 2.525-2.542v-93.165c0-1.74-1.554-2.543-2.525-2.543H642v98.25zm-635.25 22.5H2.525c-.971 0-2.525.803-2.525 2.543v93.165c0 1.74 1.554 2.542 2.525 2.542H6.75v-98.25zm0-22.5H2.525c-.971 0-2.525-.802-2.525-2.542v-93.165c0-1.74 1.554-2.543 2.525-2.543H6.75v98.25zm-2.24-211v52.5H1.588c-.747 0-1.581-.597-1.581-1.603v-49.483c0-1.068.949-1.414 1.523-1.414h2.98z"/></g><path fill="#f7f7f7" d="M581.985 16.855c-11.955-4.714-25.71-7.105-40.883-7.105H106.898c-15.174 0-28.93 2.391-40.885 7.105-11.343 4.473-21.102 11.057-29.008 19.57-15.862 17.081-24.247 41.959-24.247 71.946v1106.27c0 29.992 8.385 54.87 24.247 71.947 7.906 8.52 17.665 15.098 29.008 19.575 11.955 4.71 25.711 7.103 40.885 7.103h434.205c15.172 0 28.927-2.393 40.882-7.103 11.348-4.477 21.105-11.055 29.01-19.575 15.863-17.077 24.248-41.955 24.248-71.947V108.371c0-29.987-8.385-54.865-24.248-71.946-7.905-8.513-17.662-15.097-29.01-19.57z"/><path fill="#d5d2cf" d="M323.625 1191.38c24.81 0 45 20.19 45 45s-20.19 45-45 45-45-20.19-45-45 20.19-45 45-45m0-4.87c-27.548 0-49.875 22.328-49.875 49.875 0 27.548 22.327 49.875 49.875 49.875s49.875-22.327 49.875-49.875c0-27.547-22.327-49.875-49.875-49.875z"/><path fill="#3e3e3e" d="M42.75 158.258l-1.148.229-.973.65-.651.973-.228 1.148v1000.5l.228 1.148.651.974.973.65 1.148.228h562.5l1.148-.228.973-.65.651-.974.228-1.148v-1000.5l-.228-1.148c-.646-.967-.657-.978-1.624-1.623l-1.148-.229H42.75z"/><path d="M42.75 161.26h562.5v1000.5H42.75z"/><path fill="#3e3e3e" d="M210.75 83.633c0 6.006 4.867 10.875 10.875 10.875 6.007 0 10.875-4.869 10.875-10.875s-4.868-10.875-10.875-10.875c-6.008 0-10.875 4.869-10.875 10.875zM324 36.008a6.75 6.75 0 1 1-.001 13.501A6.75 6.75 0 0 1 324 36.008zm-51.757 47.25c0 3.316 2.722 6.003 6.082 6.003h92.1c3.36 0 6.082-2.687 6.082-6.003 0-3.315-2.722-6.003-6.082-6.003h-92.1c-3.36 0-6.082 2.688-6.082 6.003z"/></svg>