<svg xmlns="http://www.w3.org/2000/svg" width="40" height="40" viewBox="0 0 40 40"><g fill="none"><path fill="#F7DF1E" d="M0 0h40v40H0z"/><path fill="#000" d="M26.87 31.25c.806 1.316 1.854 2.283 3.708 2.283 1.557 0 2.552-.779 2.552-1.854 0-1.29-1.022-1.746-2.736-2.496l-.94-.403c-2.712-1.155-4.514-2.603-4.514-5.663 0-2.82 2.148-4.965 5.504-4.965 2.39 0 4.108.831 5.346 3.01l-2.927 1.879c-.644-1.156-1.34-1.611-2.419-1.611-1.1 0-1.798.698-1.798 1.61 0 1.128.698 1.585 2.31 2.283l.94.403c3.194 1.37 4.997 2.765 4.997 5.904 0 3.385-2.658 5.239-6.228 5.239-3.491 0-5.746-1.664-6.85-3.844l3.055-1.775zm-13.278.326c.59 1.047 1.127 1.933 2.419 1.933 1.235 0 2.014-.483 2.014-2.362v-12.78h3.758v12.831c0 3.892-2.281 5.664-5.612 5.664-3.01 0-4.753-1.558-5.639-3.434l3.06-1.852z"/></g></svg>