<svg xmlns="http://www.w3.org/2000/svg" width="65" height="65" viewBox="0 0 65 65"><path fill="#3D9A9C" fill-rule="evenodd" d="M0 32.5C0 14.55 14.55 0 32.5 0S65 14.55 65 32.5 50.45 65 32.5 65 0 50.45 0 32.5zm24.2-4.653h-6.798v20.427h6.799V27.847zm.448-6.319C24.604 19.526 23.172 18 20.846 18 18.521 18 17 19.526 17 21.528c0 1.962 1.476 3.531 3.758 3.531h.043c2.371 0 3.847-1.57 3.847-3.53zM48.72 36.562c0-6.274-3.354-9.194-7.828-9.194-3.61 0-5.225 1.982-6.128 3.373v-2.893h-6.8c.09 1.917 0 20.427 0 20.427h6.8V36.867c0-.61.044-1.22.224-1.657.492-1.22 1.61-2.482 3.489-2.482 2.46 0 3.445 1.873 3.445 4.618v10.928h6.798V36.562z"/></svg>