<?xml version="1.0" encoding="UTF-8"?>
<svg width="65px" height="65px" viewBox="0 0 65 65" version="1.1" xmlns="http://www.w3.org/2000/svg" xmlns:xlink="http://www.w3.org/1999/xlink">
    <!-- Generator: Sketch 42 (36781) - http://www.bohemiancoding.com/sketch -->
    <title>linkedin</title>
    <desc>Created with Sketch.</desc>
    <defs></defs>
    <g id="Page-1" stroke="none" stroke-width="1" fill="none" fill-rule="evenodd">
        <g id="Desktop-HD" transform="translate(-688.000000, -6745.000000)" fill="#3D9A9C">
            <g id="Group-21" transform="translate(552.000000, 6745.000000)">
                <path d="M136,32.5 C136,14.5507447 150.550745,0 168.5,0 C186.449255,0 201,14.5507447 201,32.5 C201,50.4492553 186.449255,65 168.5,65 C150.550745,65 136,50.4492553 136,32.5 Z M160.200677,27.8473104 L153.402021,27.8473104 L153.402021,48.2744497 L160.200677,48.2744497 L160.200677,27.8473104 Z M160.648454,21.5283721 C160.604328,19.5255041 159.172067,18 156.84629,18 C154.520513,18 153,19.5255041 153,21.5283721 C153,23.4897539 154.475572,25.0591846 156.758038,25.0591846 L156.801485,25.0591846 C159.172067,25.0591846 160.648454,23.4897539 160.648454,21.5283721 Z M184.719232,36.5621523 C184.719232,30.2878186 181.365252,27.3676416 176.891423,27.3676416 C173.281784,27.3676416 171.665687,29.3503088 170.763346,30.7411856 L170.763346,27.8478527 L163.963875,27.8478527 C164.053485,29.7646298 163.963875,48.274992 163.963875,48.274992 L170.763346,48.274992 L170.763346,36.8667921 C170.763346,36.2562922 170.807472,35.6472837 170.987234,35.2101858 C171.478593,33.9905418 172.597356,32.7277845 174.475628,32.7277845 C176.936771,32.7277845 177.920576,34.6009061 177.920576,37.3459186 L177.920576,48.2744497 L184.71896,48.2744497 L184.719232,36.5621523 Z" id="linkedin"></path>
            </g>
        </g>
    </g>
</svg>