<svg xmlns="http://www.w3.org/2000/svg" width="40" height="40" viewBox="0 0 40 40">
  <path fill="none" stroke="#FFF" stroke-linecap="round" stroke-linejoin="round" stroke-width="4" d="M17.96705 23.64695C18.04445 23.72435 15.79895 25.8155 12.4064 29.2076 8.9162 32.69825 5.3855 31.78025 2.6459 29.04065-.0937 26.30105-1.0117 22.77035 2.47895 19.2797 5.96915 15.7895 8.03915 13.7195 8.03915 13.7195M23.64695 17.9675C23.7239 18.04445 25.8155 15.79895 29.2076 12.40685 32.6978 8.9162 31.78025 5.3855 29.0402 2.6459 26.3006-.0937 22.7699-1.01125 19.2797 2.47895 15.78905 5.9696 13.71905 8.0396 13.71905 8.0396M11.49335 20.2283L20.6576 11.06405" opacity=".7" transform="translate(4 4)"/>
</svg>
