<svg xmlns="http://www.w3.org/2000/svg" width="65" height="65" viewBox="0 0 65 65"><path fill="#3D9A9C" fill-rule="evenodd" d="M0,32.5 C0,14.55 14.55,0 32.5,0 C50.45,0 65,14.55 65,32.5 C65,50.45 50.45,65 32.5,65 C14.55,65 0,50.45 0,32.5 Z M24.2,24.847 L17.402,24.847 L17.402,45.274 L24.201,45.274 L24.201,24.847 L24.2,24.847 Z M24.648,18.528 C24.604,16.526 23.172,15 20.846,15 C18.521,15 17,16.526 17,18.528 C17,20.49 18.476,22.059 20.758,22.059 L20.801,22.059 C23.172,22.059 24.648,20.489 24.648,18.529 L24.648,18.528 Z M48.72,33.562 C48.72,27.288 45.366,24.368 40.892,24.368 C37.282,24.368 35.667,26.35 34.764,27.741 L34.764,24.848 L27.964,24.848 C28.054,26.765 27.964,45.275 27.964,45.275 L34.764,45.275 L34.764,33.867 C34.764,33.257 34.808,32.647 34.988,32.21 C35.48,30.99 36.598,29.728 38.477,29.728 C40.937,29.728 41.922,31.601 41.922,34.346 L41.922,45.274 L48.72,45.274 L48.72,33.562 L48.72,33.562 Z"/></svg>