<?xml version="1.0" standalone="no"?><!DOCTYPE svg PUBLIC "-//W3C//DTD SVG 1.1//EN" "http://www.w3.org/Graphics/SVG/1.1/DTD/svg11.dtd"><svg width="100%" height="100%" viewBox="0 0 3062 1767" version="1.1" xmlns="http://www.w3.org/2000/svg" xmlns:xlink="http://www.w3.org/1999/xlink" xml:space="preserve" style="fill-rule:evenodd;clip-rule:evenodd;stroke-linejoin:round;stroke-miterlimit:1.41421;"><g id="MacBook"><g id="Screen"><path id="Metal Frame" d="M2781.62,91.767c0,-50.65 -41.121,-91.771 -91.77,-91.771l-2317.7,0c-50.649,0 -91.77,41.121 -91.77,91.771l0,1579.43c0,50.65 41.121,91.771 91.77,91.771l2317.7,0c50.649,0 91.77,-41.121 91.77,-91.771l0,-1579.43Z" style="fill:#ccc;"/><path id="Black Frame" d="M2773.55,91.433c0,-46.012 -37.357,-83.368 -83.369,-83.368l-2318.36,0c-46.012,0 -83.369,37.356 -83.369,83.368l0,1580.1c0,46.012 37.357,83.368 83.369,83.368l2318.36,0c46.012,0 83.369,-37.356 83.369,-83.368l0,-1580.1Z" style="fill:#111;"/><path id="Plastic Band" d="M2769.11,1698.42l-2476.22,0c-2.877,-8.438 -4.439,-17.483 -4.439,-26.889l0,-37.659l2485.1,0l0,37.659c0,9.406 -1.562,18.451 -4.439,26.889Z" style="fill:#222;"/><path id="Screen Frame" d="M379,1573.83c-1.267,-0.252 -1.283,-0.258 -2.357,-0.976l-0.723,-1.081l-0.253,-1.276l0,-1440c0.252,-1.267 0.258,-1.283 0.976,-2.357l1.081,-0.723l1.276,-0.253l2304,0l1.276,0.253l1.081,0.723l0.723,1.081l0.253,1.276l0,1440l-0.253,1.276c-0.241,0.36 -0.416,0.774 -0.723,1.081c-0.845,0.845 -1.253,0.757 -2.357,0.976c-768,0 -1536,0 -2304,0ZM379,1570.5l2304,0l-2304,0Z" style="fill:#1b1b1b;"/><rect id="Screen1" x="379" y="130.498" width="2304" height="1440" style="fill:#2099d4;"/></g><g id="Body"><path id="Body Bottom" d="M350.98,1767c-139.762,0 -310.496,-24.123 -350.98,-48.411l0,-8.589l3062,0l0,8.589c-40.484,24.288 -211.218,48.411 -350.98,48.411l-2360.04,0Z" style="fill:#a9a9a9;"/><rect id="Body Top" x="0" y="1698.42" width="3062" height="20.171" style="fill:#ccc;"/><path id="Hollow" d="M1825.5,1698.42l0,11.078c0,9.471 -7.69,17.161 -17.162,17.161l-554.678,0c-9.472,0 -17.162,-7.69 -17.162,-17.161l0,-11.078l589.002,0Z" style="fill:#949494;"/></g><circle id="Camera" cx="1531" cy="66.498" r="12" style="fill:#1b1b1b;"/></g><g id="Macbook Pro"><g><g><g><path d="M1177.27,385.376l0,-2.696l24.647,0c3.979,0 6.836,0.514 8.567,1.541c1.734,1.026 2.599,3.403 2.599,7.125l0,41.012c-5.134,2.953 -10.622,5.295 -16.461,7.029c-5.842,1.733 -12.034,2.599 -18.581,2.599c-9.499,0 -18.422,-1.798 -26.764,-5.392c-8.344,-3.593 -15.63,-8.505 -21.855,-14.73c-6.225,-6.225 -11.137,-13.51 -14.73,-21.855c-3.594,-8.342 -5.392,-17.265 -5.392,-26.764c0,-9.499 1.798,-18.452 5.392,-26.861c3.593,-8.406 8.505,-15.724 14.73,-21.949c6.225,-6.227 13.511,-11.168 21.855,-14.826c8.342,-3.658 17.265,-5.488 26.764,-5.488c6.547,0 12.739,0.833 18.581,2.503c5.839,1.669 11.391,4.043 16.654,7.125l-1.541,2.31c-4.877,-2.953 -10.172,-5.231 -15.885,-6.836c-5.71,-1.605 -11.648,-2.406 -17.809,-2.406c-9.116,0 -17.683,1.765 -25.706,5.295c-8.022,3.529 -15.019,8.312 -20.989,14.344c-5.968,6.034 -10.686,13.093 -14.151,21.18c-3.465,8.087 -5.199,16.688 -5.199,25.802c0,9.114 1.734,17.651 5.199,25.609c3.465,7.959 8.151,14.923 14.057,20.891c5.903,5.97 12.836,10.686 20.794,14.154c7.959,3.465 16.432,5.198 25.417,5.198c6.032,0 11.809,-0.737 17.329,-2.213c5.52,-1.477 10.718,-3.628 15.596,-6.453l0,-27.147l0,-13.672c0,-1.155 -0.416,-2.181 -1.252,-3.081c-0.833,-0.898 -2.342,-1.348 -4.523,-1.348l-27.343,0Z" style="fill:#fff;fill-rule:nonzero;"/><path d="M1237.53,344.171c0,-1.027 0.385,-1.927 1.155,-2.696c0.771,-0.769 1.669,-1.155 2.695,-1.155c1.027,0 1.927,0.386 2.696,1.155c0.771,0.769 1.155,1.669 1.155,2.696c0,1.026 -0.384,1.926 -1.155,2.696c-0.769,0.769 -1.669,1.155 -2.696,1.155c-1.026,0 -1.924,-0.386 -2.695,-1.155c-0.77,-0.77 -1.155,-1.67 -1.155,-2.696ZM1242.73,440.445l-2.696,0l0,-72.206l2.696,0l0,72.206Z" style="fill:#fff;fill-rule:nonzero;"/><path d="M1276.62,368.239l2.696,0l0,10.205l-0.578,8.665c2.567,-6.034 6.675,-10.911 12.323,-14.633c5.649,-3.722 12.131,-5.584 19.449,-5.584c6.289,0 11.391,1.765 15.306,5.295c3.915,3.529 6.193,8.183 6.836,13.96c2.696,-5.777 6.836,-10.431 12.42,-13.96c5.584,-3.53 11.906,-5.295 18.966,-5.295c6.802,0 12.161,1.99 16.078,5.97c3.915,3.979 6,9.177 6.257,15.595l0,51.988l-2.695,0l0,-53.336c-0.258,-4.622 -1.959,-8.633 -5.103,-12.034c-3.145,-3.403 -7.542,-5.231 -13.189,-5.488c-4.236,0 -8.28,0.675 -12.131,2.023c-3.852,1.348 -7.253,3.24 -10.206,5.679c-2.953,2.438 -5.359,5.327 -7.219,8.665c-1.862,3.337 -2.857,6.997 -2.985,10.976l0,43.515l-2.696,0l0,-53.336c-0.257,-4.622 -1.959,-8.633 -5.102,-12.034c-3.146,-3.403 -7.543,-5.231 -13.189,-5.488c-4.365,0 -8.505,0.707 -12.42,2.117c-3.915,1.413 -7.383,3.371 -10.398,5.874c-3.017,2.503 -5.391,5.52 -7.125,9.049c-1.733,3.532 -2.599,7.35 -2.599,11.458l0,42.36l-2.696,0l0,-72.206Z" style="fill:#fff;fill-rule:nonzero;"/><path d="M1414.49,368.239l2.696,0l0,10.205l-0.578,8.665c2.567,-6.034 6.675,-10.911 12.323,-14.633c5.649,-3.722 12.131,-5.584 19.449,-5.584c6.289,0 11.391,1.765 15.306,5.295c3.915,3.529 6.193,8.183 6.836,13.96c2.696,-5.777 6.836,-10.431 12.42,-13.96c5.584,-3.53 11.906,-5.295 18.966,-5.295c6.802,0 12.161,1.99 16.078,5.97c3.915,3.979 6,9.177 6.257,15.595l0,51.988l-2.695,0l0,-53.336c-0.258,-4.622 -1.959,-8.633 -5.103,-12.034c-3.145,-3.403 -7.542,-5.231 -13.189,-5.488c-4.236,0 -8.28,0.675 -12.131,2.023c-3.852,1.348 -7.253,3.24 -10.206,5.679c-2.953,2.438 -5.359,5.327 -7.219,8.665c-1.862,3.337 -2.857,6.997 -2.985,10.976l0,43.515l-2.696,0l0,-53.336c-0.257,-4.622 -1.959,-8.633 -5.102,-12.034c-3.146,-3.403 -7.543,-5.231 -13.189,-5.488c-4.365,0 -8.505,0.707 -12.42,2.117c-3.915,1.413 -7.383,3.371 -10.398,5.874c-3.017,2.503 -5.391,5.52 -7.125,9.049c-1.733,3.532 -2.599,7.35 -2.599,11.458l0,42.36l-2.696,0l0,-72.206Z" style="fill:#fff;fill-rule:nonzero;"/><path d="M1585.66,369.394c-4.877,0 -9.403,0.9 -13.575,2.696c-4.172,1.798 -7.83,4.301 -10.976,7.511c-3.143,3.208 -5.616,6.93 -7.412,11.166c-1.798,4.237 -2.695,8.73 -2.695,13.479c0,3.722 0.45,7.125 1.347,10.206c10.398,-4.236 20.795,-8.44 31.194,-12.613c10.397,-4.172 20.794,-8.376 31.191,-12.612c-2.567,-5.904 -6.45,-10.687 -11.648,-14.345c-5.199,-3.658 -11.008,-5.488 -17.426,-5.488ZM1618.2,390.574c-10.912,4.494 -21.727,8.891 -32.445,13.192c-10.719,4.298 -21.534,8.696 -32.445,13.189c2.567,6.547 6.739,11.842 12.516,15.885c5.775,4.044 12.388,6.064 19.832,6.064c4.622,0 8.985,-0.833 13.093,-2.502c4.108,-1.67 7.701,-3.98 10.783,-6.933c0.257,0.386 0.546,0.74 0.866,1.061c0.321,0.319 0.61,0.673 0.867,1.059c-3.338,3.079 -7.189,5.52 -11.554,7.315c-4.363,1.798 -9.049,2.696 -14.055,2.696c-5.263,0 -10.14,-0.962 -14.633,-2.888c-4.494,-1.925 -8.441,-4.588 -11.842,-7.991c-3.403,-3.401 -6.066,-7.348 -7.991,-11.842c-1.926,-4.491 -2.888,-9.37 -2.888,-14.633c0,-5.134 0.962,-10.012 2.888,-14.634c1.925,-4.62 4.588,-8.599 7.991,-11.938c3.401,-3.338 7.348,-6.002 11.842,-7.99c4.493,-1.991 9.37,-2.985 14.633,-2.985c7.444,0 14.087,2.215 19.929,6.643c5.841,4.429 10.045,10.174 12.613,17.232Z" style="fill:#fff;fill-rule:nonzero;"/><path d="M1690.41,431.396l1.925,1.924c-3.337,2.567 -6.997,4.59 -10.976,6.067c-3.979,1.476 -8.214,2.213 -12.707,2.213c-5.263,0 -10.14,-0.962 -14.634,-2.888c-4.493,-1.925 -8.441,-4.588 -11.841,-7.991c-3.403,-3.401 -6.067,-7.348 -7.991,-11.842c-1.926,-4.491 -2.889,-9.37 -2.889,-14.633c0,-5.134 0.963,-10.012 2.889,-14.634c1.924,-4.62 4.588,-8.599 7.991,-11.938c3.4,-3.338 7.348,-6.002 11.841,-7.99c4.494,-1.991 9.371,-2.985 14.634,-2.985c4.493,0 8.76,0.739 12.803,2.215c4.044,1.475 7.672,3.498 10.88,6.065c-0.258,0.385 -0.577,0.737 -0.963,1.058c-0.385,0.322 -0.707,0.675 -0.962,1.059c-2.953,-2.439 -6.291,-4.331 -10.013,-5.679c-3.722,-1.348 -7.637,-2.023 -11.745,-2.023c-4.877,0 -9.403,0.9 -13.575,2.696c-4.172,1.798 -7.83,4.301 -10.976,7.511c-3.144,3.208 -5.616,6.93 -7.412,11.166c-1.798,4.237 -2.696,8.73 -2.696,13.479c0,4.877 0.898,9.403 2.696,13.575c1.796,4.172 4.268,7.83 7.412,10.976c3.146,3.143 6.804,5.616 10.976,7.412c4.172,1.798 8.698,2.695 13.575,2.695c4.108,0 8.023,-0.672 11.745,-2.02c3.722,-1.348 7.06,-3.178 10.013,-5.488Z" style="fill:#fff;fill-rule:nonzero;"/><path d="M1701.19,404.246c0,-5.134 0.964,-10.012 2.889,-14.634c1.926,-4.62 4.585,-8.631 7.982,-12.034c3.411,-3.401 7.354,-6.096 11.848,-8.087c4.493,-1.989 9.373,-2.985 14.629,-2.985c5.134,0 10.014,0.996 14.64,2.985c4.614,1.991 8.625,4.686 12.034,8.087c3.397,3.403 6.099,7.414 8.092,12.034c1.978,4.622 2.98,9.5 2.98,14.634c0,5.263 -1.002,10.142 -2.98,14.633c-1.993,4.494 -4.695,8.441 -8.092,11.842c-3.409,3.403 -7.42,6.066 -12.034,7.991c-4.626,1.926 -9.506,2.888 -14.64,2.888c-5.256,0 -10.136,-0.962 -14.629,-2.888c-4.494,-1.925 -8.437,-4.588 -11.848,-7.991c-3.397,-3.401 -6.056,-7.348 -7.982,-11.842c-1.925,-4.491 -2.889,-9.37 -2.889,-14.633ZM1703.88,404.246c0,4.877 0.911,9.403 2.702,13.575c1.792,4.172 4.267,7.83 7.408,10.976c3.157,3.143 6.806,5.616 10.978,7.412c4.172,1.798 8.704,2.695 13.573,2.695c4.759,0 9.253,-0.897 13.479,-2.695c4.238,-1.796 7.969,-4.269 11.177,-7.412c3.21,-3.146 5.71,-6.804 7.502,-10.976c1.804,-4.172 2.7,-8.698 2.7,-13.575c0,-4.749 -0.896,-9.242 -2.7,-13.479c-1.792,-4.236 -4.292,-7.958 -7.502,-11.166c-3.208,-3.21 -6.939,-5.713 -11.177,-7.511c-4.226,-1.796 -8.72,-2.696 -13.479,-2.696c-4.869,0 -9.401,0.9 -13.573,2.696c-4.172,1.798 -7.821,4.301 -10.978,7.511c-3.141,3.208 -5.616,6.93 -7.408,11.166c-1.791,4.237 -2.702,8.73 -2.702,13.479Z" style="fill:#fff;fill-rule:nonzero;"/><path d="M1793.8,404.246c0,4.877 0.896,9.403 2.7,13.575c1.792,4.172 4.267,7.83 7.408,10.976c3.142,3.143 6.806,5.616 10.978,7.412c4.172,1.798 8.691,2.695 13.573,2.695c4.746,0 9.238,-0.897 13.478,-2.695c4.239,-1.796 7.955,-4.269 11.165,-7.412c3.21,-3.146 5.723,-6.804 7.515,-10.976c1.791,-4.172 2.7,-8.698 2.7,-13.575c0,-4.749 -0.909,-9.242 -2.7,-13.479c-1.792,-4.236 -4.305,-7.958 -7.515,-11.166c-3.21,-3.21 -6.926,-5.713 -11.165,-7.511c-4.24,-1.796 -8.732,-2.696 -13.478,-2.696c-4.882,0 -9.401,0.9 -13.573,2.696c-4.172,1.798 -7.836,4.301 -10.978,7.511c-3.141,3.208 -5.616,6.93 -7.408,11.166c-1.804,4.237 -2.7,8.73 -2.7,13.479ZM1791.12,404.246c0,-5.134 0.964,-10.012 2.889,-14.634c1.926,-4.62 4.585,-8.599 7.982,-11.938c3.411,-3.338 7.354,-6.002 11.848,-7.99c4.493,-1.991 9.372,-2.985 14.629,-2.985c3.983,0 7.796,0.578 11.458,1.733c3.664,1.155 6.994,2.792 10.015,4.91c3.009,2.119 5.643,4.622 7.89,7.51c2.246,2.887 4.078,6.065 5.495,9.53l0,-10.398l0,-83.95l2.689,0l0,144.411l-2.689,0l0,-10.397c0,-2.055 0.028,-4.076 0.094,-6.066c0.066,-1.989 0.094,-4.012 0.094,-6.065c-1.418,3.465 -3.276,6.643 -5.59,9.532c-2.3,2.888 -4.974,5.391 -7.983,7.508c-3.021,2.12 -6.351,3.755 -10.015,4.912c-3.662,1.155 -7.475,1.731 -11.458,1.731c-5.257,0 -10.136,-0.962 -14.629,-2.888c-4.494,-1.925 -8.437,-4.588 -11.848,-7.991c-3.397,-3.401 -6.056,-7.348 -7.982,-11.842c-1.925,-4.491 -2.889,-9.37 -2.889,-14.633Z" style="fill:#fff;fill-rule:nonzero;"/><path d="M1921.46,369.394c-4.867,0 -9.401,0.9 -13.573,2.696c-4.172,1.798 -7.822,4.301 -10.978,7.511c-3.141,3.208 -5.616,6.93 -7.408,11.166c-1.791,4.237 -2.7,8.73 -2.7,13.479c0,3.722 0.454,7.125 1.35,10.206c10.404,-4.236 20.792,-8.44 31.196,-12.613c10.403,-4.172 20.792,-8.376 31.196,-12.612c-2.568,-5.904 -6.459,-10.687 -11.647,-14.345c-5.201,-3.658 -11.018,-5.488 -17.436,-5.488ZM1954.01,390.574c-10.911,4.494 -21.728,8.891 -32.438,13.192c-10.725,4.298 -21.542,8.696 -32.454,13.189c2.567,6.547 6.74,11.842 12.517,15.885c5.777,4.044 12.394,6.064 19.83,6.064c4.626,0 8.985,-0.833 13.103,-2.502c4.106,-1.67 7.702,-3.98 10.779,-6.933c0.253,0.386 0.546,0.74 0.868,1.061c0.321,0.319 0.602,0.673 0.87,1.059c-3.343,3.079 -7.194,5.52 -11.555,7.315c-4.371,1.798 -9.051,2.696 -14.065,2.696c-5.255,0 -10.136,-0.962 -14.63,-2.888c-4.491,-1.925 -8.436,-4.588 -11.845,-7.991c-3.397,-3.401 -6.058,-7.348 -7.985,-11.842c-1.924,-4.491 -2.886,-9.37 -2.886,-14.633c0,-5.134 0.962,-10.012 2.886,-14.634c1.927,-4.62 4.588,-8.599 7.985,-11.938c3.409,-3.338 7.354,-6.002 11.845,-7.99c4.494,-1.991 9.375,-2.985 14.63,-2.985c7.448,0 14.093,2.215 19.937,6.643c5.843,4.429 10.041,10.174 12.608,17.232Z" style="fill:#fff;fill-rule:nonzero;"/></g><g><path d="M1278.23,538.404l0,-5.072l8.857,0c1.241,0 2.066,0.31 2.471,0.932c0.407,0.619 0.61,1.594 0.61,2.92l0,12.708c-1.712,0.983 -3.542,1.765 -5.488,2.342c-1.947,0.578 -4.011,0.868 -6.195,0.868c-3.165,0 -6.139,-0.6 -8.92,-1.798c-2.782,-1.198 -5.21,-2.835 -7.284,-4.91c-2.076,-2.076 -3.713,-4.504 -4.911,-7.285c-1.198,-2.782 -1.796,-5.756 -1.796,-8.921c0,-3.167 0.598,-6.152 1.796,-8.953c1.198,-2.803 2.835,-5.243 4.911,-7.318c2.074,-2.074 4.502,-3.722 7.284,-4.941c2.781,-1.219 5.755,-1.83 8.92,-1.83c2.184,0 4.248,0.278 6.195,0.833c1.946,0.558 3.798,1.348 5.553,2.377c-0.472,0.726 -0.965,1.444 -1.477,2.149c-0.514,0.707 -1.005,1.423 -1.476,2.149c-1.327,-0.769 -2.717,-1.369 -4.172,-1.795c-1.455,-0.429 -2.996,-0.643 -4.623,-0.643c-2.438,0 -4.716,0.471 -6.833,1.412c-2.119,0.943 -3.979,2.237 -5.584,3.883c-1.605,1.648 -2.868,3.563 -3.787,5.745c-0.921,2.181 -1.38,4.493 -1.38,6.932c0,2.439 0.459,4.749 1.38,6.932c0.919,2.182 2.182,4.076 3.787,5.679c1.605,1.605 3.465,2.878 5.584,3.82c2.117,0.941 4.395,1.413 6.833,1.413c2.227,0 4.344,-0.386 6.356,-1.158l0,-6.546c0,-0.726 -0.075,-1.23 -0.225,-1.509c-0.15,-0.276 -0.568,-0.415 -1.251,-0.415l-5.135,0Z" style="fill:#fff;fill-rule:nonzero;"/><rect x="1301.08" y="507.66" width="5.327" height="44.927" style="fill:#fff;"/><path d="M1349.21,507.66l5.327,0c-3.339,7.873 -6.654,15.703 -9.949,23.49c-3.294,7.787 -6.611,15.617 -9.947,23.492c-3.339,-7.875 -6.656,-15.705 -9.95,-23.492c-3.295,-7.787 -6.61,-15.617 -9.949,-23.49l5.327,0c2.355,5.563 4.687,11.07 6.997,16.526c2.31,5.456 4.643,10.965 6.996,16.528l0.579,2.117l0.576,-2.117c2.353,-5.563 4.686,-11.072 6.996,-16.528c2.31,-5.456 4.642,-10.963 6.997,-16.526Z" style="fill:#fff;fill-rule:nonzero;"/><path d="M1360.77,552.587l0,-44.927l27.662,0l0,5.07l-22.335,0l0,14.698l19.832,0l0,5.07l-19.832,0l0,15.019l23.235,0l0,5.07l-28.562,0Z" style="fill:#fff;fill-rule:nonzero;"/><path d="M1418.02,505.605c3.936,5.092 7.851,10.174 11.745,15.244c3.895,5.07 7.81,10.151 11.747,15.243c3.936,-5.092 7.851,-10.173 11.745,-15.243c3.893,-5.07 7.808,-10.152 11.745,-15.244l0,46.982l-5.327,0l0,-30.165c0.043,-0.343 0.075,-0.685 0.096,-1.028c0.022,-0.341 0.054,-0.684 0.097,-1.027c-2.825,4.194 -5.82,8.27 -8.985,12.227c-3.168,3.958 -6.292,7.948 -9.371,11.97c-2.867,-3.765 -5.734,-7.508 -8.602,-11.232c-2.867,-3.723 -5.734,-7.466 -8.599,-11.231l-1.157,-1.734c0.043,0.343 0.075,0.686 0.096,1.027c0.022,0.343 0.054,0.685 0.097,1.028l0,30.165l-5.327,0l0,-46.982Z" style="fill:#fff;fill-rule:nonzero;"/><path d="M1474.88,552.587l0,-44.927l27.662,0l0,5.07l-22.335,0l0,14.698l19.832,0l0,5.07l-19.832,0l0,15.019l23.233,0l0,5.07l-28.56,0Z" style="fill:#fff;fill-rule:nonzero;"/><path d="M1546.77,553.102c-2.31,0 -4.451,-0.322 -6.418,-0.965c-1.969,-0.64 -3.679,-1.592 -5.134,-2.854c-1.455,-1.262 -2.589,-2.835 -3.403,-4.719c-0.812,-1.881 -1.219,-4.043 -1.219,-6.482l0,-30.422l5.327,0l0,30.229c0,1.627 0.268,3.071 0.804,4.333c0.533,1.262 1.283,2.321 2.245,3.176c0.962,0.857 2.107,1.509 3.433,1.959c1.327,0.45 2.782,0.675 4.365,0.675c1.584,0 3.039,-0.225 4.365,-0.675c1.327,-0.45 2.471,-1.102 3.433,-1.959c0.962,-0.855 1.723,-1.914 2.278,-3.176c0.557,-1.262 0.836,-2.706 0.836,-4.333l0,-30.229l5.327,0l0,30.422c0,2.439 -0.418,4.601 -1.252,6.482c-0.835,1.884 -1.98,3.457 -3.435,4.719c-1.455,1.262 -3.165,2.214 -5.134,2.854c-1.967,0.643 -4.108,0.965 -6.418,0.965Z" style="fill:#fff;fill-rule:nonzero;"/><path d="M1611.91,507.66l0,46.982c-5.52,-5.863 -10.995,-11.683 -16.429,-17.458c-5.434,-5.777 -10.912,-11.597 -16.432,-17.457c-0.214,-0.3 -0.417,-0.579 -0.61,-0.836c-0.193,-0.257 -0.395,-0.534 -0.609,-0.834c0.043,0.343 0.075,0.684 0.097,1.027c0.021,0.343 0.053,0.685 0.096,1.026l0,32.477l-5.327,0l0,-46.982c5.52,5.992 10.995,11.927 16.429,17.812c5.434,5.884 10.912,11.82 16.432,17.811c0.214,0.298 0.417,0.576 0.61,0.834c0.191,0.257 0.395,0.535 0.609,0.833c-0.043,-0.341 -0.075,-0.683 -0.097,-1.026c-0.021,-0.343 -0.053,-0.684 -0.096,-1.027l0,-33.182l5.327,0Z" style="fill:#fff;fill-rule:nonzero;"/><rect x="1623.53" y="507.66" width="5.327" height="44.927" style="fill:#fff;"/><path d="M1669.42,545.655l2.889,4.237c-1.713,0.983 -3.54,1.765 -5.488,2.342c-1.946,0.578 -4.012,0.868 -6.193,0.868c-3.167,0 -6.139,-0.6 -8.921,-1.798c-2.781,-1.198 -5.211,-2.835 -7.286,-4.91c-2.074,-2.076 -3.711,-4.504 -4.909,-7.285c-1.198,-2.782 -1.798,-5.756 -1.798,-8.921c0,-3.167 0.6,-6.152 1.798,-8.953c1.198,-2.803 2.835,-5.243 4.909,-7.318c2.075,-2.074 4.505,-3.722 7.286,-4.941c2.782,-1.219 5.754,-1.83 8.921,-1.83c2.181,0 4.247,0.278 6.193,0.833c1.948,0.558 3.797,1.348 5.552,2.377c-0.469,0.726 -0.962,1.444 -1.477,2.149c-0.512,0.707 -1.005,1.423 -1.476,2.149c-1.326,-0.769 -2.717,-1.369 -4.172,-1.795c-1.453,-0.429 -2.994,-0.643 -4.62,-0.643c-2.439,0 -4.719,0.471 -6.836,1.412c-2.117,0.943 -3.979,2.237 -5.584,3.883c-1.605,1.648 -2.867,3.563 -3.787,5.745c-0.919,2.181 -1.38,4.493 -1.38,6.932c0,2.439 0.461,4.749 1.38,6.932c0.92,2.182 2.182,4.076 3.787,5.679c1.605,1.605 3.467,2.878 5.584,3.82c2.117,0.941 4.397,1.413 6.836,1.413c3.167,0 6.096,-0.793 8.792,-2.377Z" style="fill:#fff;fill-rule:nonzero;"/><path d="M1679.43,530.188c0,-3.124 0.597,-6.088 1.797,-8.891c1.198,-2.8 2.833,-5.252 4.91,-7.348c2.074,-2.095 4.504,-3.754 7.283,-4.973c2.782,-1.219 5.756,-1.83 8.919,-1.83c3.128,0 6.083,0.611 8.891,1.83c2.809,1.219 5.256,2.878 7.356,4.973c2.085,2.096 3.744,4.548 4.974,7.348c1.217,2.803 1.817,5.767 1.817,8.891c0,3.165 -0.6,6.139 -1.817,8.921c-1.23,2.781 -2.889,5.209 -4.974,7.285c-2.1,2.075 -4.547,3.712 -7.356,4.91c-2.808,1.198 -5.763,1.798 -8.891,1.798c-3.163,0 -6.137,-0.6 -8.919,-1.798c-2.779,-1.198 -5.209,-2.835 -7.283,-4.91c-2.077,-2.076 -3.712,-4.504 -4.91,-7.285c-1.2,-2.782 -1.797,-5.756 -1.797,-8.921ZM1684.76,530.188c0,2.481 0.46,4.802 1.38,6.964c0.919,2.16 2.181,4.044 3.786,5.647c1.605,1.605 3.476,2.878 5.617,3.82c2.138,0.941 4.429,1.413 6.865,1.413c2.435,0 4.734,-0.472 6.872,-1.413c2.141,-0.942 4.012,-2.215 5.617,-3.82c1.605,-1.603 2.863,-3.487 3.784,-5.647c0.924,-2.162 1.378,-4.483 1.378,-6.964c0,-2.481 -0.454,-4.804 -1.378,-6.964c-0.921,-2.16 -2.179,-4.055 -3.784,-5.681c-1.605,-1.624 -3.476,-2.91 -5.617,-3.851c-2.138,-0.94 -4.437,-1.412 -6.872,-1.412c-2.436,0 -4.727,0.472 -6.865,1.412c-2.141,0.941 -4.012,2.227 -5.617,3.851c-1.605,1.626 -2.867,3.521 -3.786,5.681c-0.92,2.16 -1.38,4.483 -1.38,6.964Z" style="fill:#fff;fill-rule:nonzero;"/><path d="M1731.93,507.66l10.457,0c3.088,0 5.989,0.523 8.73,1.573c2.743,1.048 5.136,2.556 7.195,4.524c2.045,1.969 3.678,4.332 4.88,7.092c1.191,2.76 1.791,5.872 1.791,9.339c0,2.524 -0.441,5.113 -1.309,7.766c-0.883,2.653 -2.299,5.059 -4.279,7.221c-1.965,2.16 -4.52,3.937 -7.663,5.327c-3.142,1.391 -6.992,2.085 -11.525,2.085l-8.277,0l0,-44.927ZM1737.26,512.73l0,34.723l4.492,0c2.528,0 4.881,-0.407 7.061,-1.219c2.192,-0.815 4.077,-1.98 5.682,-3.5c1.605,-1.517 2.876,-3.336 3.785,-5.453c0.921,-2.119 1.39,-4.504 1.39,-7.157c0,-2.653 -0.469,-5.049 -1.39,-7.19c-0.909,-2.138 -2.18,-3.968 -3.785,-5.487c-1.605,-1.518 -3.49,-2.685 -5.682,-3.498c-2.18,-0.812 -4.533,-1.219 -7.061,-1.219l-4.492,0Z" style="fill:#fff;fill-rule:nonzero;"/><path d="M1773.08,552.587l0,-44.927l27.664,0l0,5.07l-22.344,0l0,14.698l19.83,0l0,5.07l-19.83,0l0,15.019l23.24,0l0,5.07l-28.56,0Z" style="fill:#fff;fill-rule:nonzero;"/><path d="M1278.23,538.404l0,-5.072l8.857,0c1.241,0 2.066,0.31 2.471,0.932c0.407,0.619 0.61,1.594 0.61,2.92l0,12.708c-1.712,0.983 -3.542,1.765 -5.488,2.342c-1.947,0.578 -4.011,0.868 -6.195,0.868c-3.165,0 -6.139,-0.6 -8.92,-1.798c-2.782,-1.198 -5.21,-2.835 -7.284,-4.91c-2.076,-2.076 -3.713,-4.504 -4.911,-7.285c-1.198,-2.782 -1.796,-5.756 -1.796,-8.921c0,-3.167 0.598,-6.152 1.796,-8.953c1.198,-2.803 2.835,-5.243 4.911,-7.318c2.074,-2.074 4.502,-3.722 7.284,-4.941c2.781,-1.219 5.755,-1.83 8.92,-1.83c2.184,0 4.248,0.278 6.195,0.833c1.946,0.558 3.798,1.348 5.553,2.377c-0.472,0.726 -0.965,1.444 -1.477,2.149c-0.514,0.707 -1.005,1.423 -1.476,2.149c-1.327,-0.769 -2.717,-1.369 -4.172,-1.795c-1.455,-0.429 -2.996,-0.643 -4.623,-0.643c-2.438,0 -4.716,0.471 -6.833,1.412c-2.119,0.943 -3.979,2.237 -5.584,3.883c-1.605,1.648 -2.868,3.563 -3.787,5.745c-0.921,2.181 -1.38,4.493 -1.38,6.932c0,2.439 0.459,4.749 1.38,6.932c0.919,2.182 2.182,4.076 3.787,5.679c1.605,1.605 3.465,2.878 5.584,3.82c2.117,0.941 4.395,1.413 6.833,1.413c2.227,0 4.344,-0.386 6.356,-1.158l0,-6.546c0,-0.726 -0.075,-1.23 -0.225,-1.509c-0.15,-0.276 -0.568,-0.415 -1.251,-0.415l-5.135,0Z" style="fill:none;stroke-width:2.01px;stroke:#fff;"/><rect x="1301.08" y="507.66" width="5.327" height="44.927" style="fill:none;stroke-width:2.01px;stroke:#fff;"/><path d="M1349.21,507.66l5.327,0c-3.339,7.873 -6.654,15.703 -9.949,23.49c-3.294,7.787 -6.611,15.617 -9.947,23.492c-3.339,-7.875 -6.656,-15.705 -9.95,-23.492c-3.295,-7.787 -6.61,-15.617 -9.949,-23.49l5.327,0c2.355,5.563 4.687,11.07 6.997,16.526c2.31,5.456 4.643,10.965 6.996,16.528l0.579,2.117l0.576,-2.117c2.353,-5.563 4.686,-11.072 6.996,-16.528c2.31,-5.456 4.642,-10.963 6.997,-16.526Z" style="fill:none;stroke-width:2.01px;stroke:#fff;"/><path d="M1360.77,552.587l0,-44.927l27.662,0l0,5.07l-22.335,0l0,14.698l19.832,0l0,5.07l-19.832,0l0,15.019l23.235,0l0,5.07l-28.562,0Z" style="fill:none;stroke-width:2.01px;stroke:#fff;"/><path d="M1418.02,505.605c3.936,5.092 7.851,10.174 11.745,15.244c3.895,5.07 7.81,10.151 11.747,15.243c3.936,-5.092 7.851,-10.173 11.745,-15.243c3.893,-5.07 7.808,-10.152 11.745,-15.244l0,46.982l-5.327,0l0,-30.165c0.043,-0.343 0.075,-0.685 0.096,-1.028c0.022,-0.341 0.054,-0.684 0.097,-1.027c-2.825,4.194 -5.82,8.27 -8.985,12.227c-3.168,3.958 -6.292,7.948 -9.371,11.97c-2.867,-3.765 -5.734,-7.508 -8.602,-11.232c-2.867,-3.723 -5.734,-7.466 -8.599,-11.231l-1.157,-1.734c0.043,0.343 0.075,0.686 0.096,1.027c0.022,0.343 0.054,0.685 0.097,1.028l0,30.165l-5.327,0l0,-46.982Z" style="fill:none;stroke-width:2.01px;stroke:#fff;"/><path d="M1474.88,552.587l0,-44.927l27.662,0l0,5.07l-22.335,0l0,14.698l19.832,0l0,5.07l-19.832,0l0,15.019l23.233,0l0,5.07l-28.56,0Z" style="fill:none;stroke-width:2.01px;stroke:#fff;"/><path d="M1546.77,553.102c-2.31,0 -4.451,-0.322 -6.418,-0.965c-1.969,-0.64 -3.679,-1.592 -5.134,-2.854c-1.455,-1.262 -2.589,-2.835 -3.403,-4.719c-0.812,-1.881 -1.219,-4.043 -1.219,-6.482l0,-30.422l5.327,0l0,30.229c0,1.627 0.268,3.071 0.804,4.333c0.533,1.262 1.283,2.321 2.245,3.176c0.962,0.857 2.107,1.509 3.433,1.959c1.327,0.45 2.782,0.675 4.365,0.675c1.584,0 3.039,-0.225 4.365,-0.675c1.327,-0.45 2.471,-1.102 3.433,-1.959c0.962,-0.855 1.723,-1.914 2.278,-3.176c0.557,-1.262 0.836,-2.706 0.836,-4.333l0,-30.229l5.327,0l0,30.422c0,2.439 -0.418,4.601 -1.252,6.482c-0.835,1.884 -1.98,3.457 -3.435,4.719c-1.455,1.262 -3.165,2.214 -5.134,2.854c-1.967,0.643 -4.108,0.965 -6.418,0.965Z" style="fill:none;stroke-width:2.01px;stroke:#fff;"/><path d="M1611.91,507.66l0,46.982c-5.52,-5.863 -10.995,-11.683 -16.429,-17.458c-5.434,-5.777 -10.912,-11.597 -16.432,-17.457c-0.214,-0.3 -0.417,-0.579 -0.61,-0.836c-0.193,-0.257 -0.395,-0.534 -0.609,-0.834c0.043,0.343 0.075,0.684 0.097,1.027c0.021,0.343 0.053,0.685 0.096,1.026l0,32.477l-5.327,0l0,-46.982c5.52,5.992 10.995,11.927 16.429,17.812c5.434,5.884 10.912,11.82 16.432,17.811c0.214,0.298 0.417,0.576 0.61,0.834c0.191,0.257 0.395,0.535 0.609,0.833c-0.043,-0.341 -0.075,-0.683 -0.097,-1.026c-0.021,-0.343 -0.053,-0.684 -0.096,-1.027l0,-33.182l5.327,0Z" style="fill:none;stroke-width:2.01px;stroke:#fff;"/><rect x="1623.53" y="507.66" width="5.327" height="44.927" style="fill:none;stroke-width:2.01px;stroke:#fff;"/><path d="M1669.42,545.655l2.889,4.237c-1.713,0.983 -3.54,1.765 -5.488,2.342c-1.946,0.578 -4.012,0.868 -6.193,0.868c-3.167,0 -6.139,-0.6 -8.921,-1.798c-2.781,-1.198 -5.211,-2.835 -7.286,-4.91c-2.074,-2.076 -3.711,-4.504 -4.909,-7.285c-1.198,-2.782 -1.798,-5.756 -1.798,-8.921c0,-3.167 0.6,-6.152 1.798,-8.953c1.198,-2.803 2.835,-5.243 4.909,-7.318c2.075,-2.074 4.505,-3.722 7.286,-4.941c2.782,-1.219 5.754,-1.83 8.921,-1.83c2.181,0 4.247,0.278 6.193,0.833c1.948,0.558 3.797,1.348 5.552,2.377c-0.469,0.726 -0.962,1.444 -1.477,2.149c-0.512,0.707 -1.005,1.423 -1.476,2.149c-1.326,-0.769 -2.717,-1.369 -4.172,-1.795c-1.453,-0.429 -2.994,-0.643 -4.62,-0.643c-2.439,0 -4.719,0.471 -6.836,1.412c-2.117,0.943 -3.979,2.237 -5.584,3.883c-1.605,1.648 -2.867,3.563 -3.787,5.745c-0.919,2.181 -1.38,4.493 -1.38,6.932c0,2.439 0.461,4.749 1.38,6.932c0.92,2.182 2.182,4.076 3.787,5.679c1.605,1.605 3.467,2.878 5.584,3.82c2.117,0.941 4.397,1.413 6.836,1.413c3.167,0 6.096,-0.793 8.792,-2.377Z" style="fill:none;stroke-width:2.01px;stroke:#fff;"/><path d="M1679.43,530.188c0,-3.124 0.597,-6.088 1.797,-8.891c1.198,-2.8 2.833,-5.252 4.91,-7.348c2.074,-2.095 4.504,-3.754 7.283,-4.973c2.782,-1.219 5.756,-1.83 8.919,-1.83c3.128,0 6.083,0.611 8.891,1.83c2.809,1.219 5.256,2.878 7.356,4.973c2.085,2.096 3.744,4.548 4.974,7.348c1.217,2.803 1.817,5.767 1.817,8.891c0,3.165 -0.6,6.139 -1.817,8.921c-1.23,2.781 -2.889,5.209 -4.974,7.285c-2.1,2.075 -4.547,3.712 -7.356,4.91c-2.808,1.198 -5.763,1.798 -8.891,1.798c-3.163,0 -6.137,-0.6 -8.919,-1.798c-2.779,-1.198 -5.209,-2.835 -7.283,-4.91c-2.077,-2.076 -3.712,-4.504 -4.91,-7.285c-1.2,-2.782 -1.797,-5.756 -1.797,-8.921ZM1684.76,530.188c0,2.481 0.46,4.802 1.38,6.964c0.919,2.16 2.181,4.044 3.786,5.647c1.605,1.605 3.476,2.878 5.617,3.82c2.138,0.941 4.429,1.413 6.865,1.413c2.435,0 4.734,-0.472 6.872,-1.413c2.141,-0.942 4.012,-2.215 5.617,-3.82c1.605,-1.603 2.863,-3.487 3.784,-5.647c0.924,-2.162 1.378,-4.483 1.378,-6.964c0,-2.481 -0.454,-4.804 -1.378,-6.964c-0.921,-2.16 -2.179,-4.055 -3.784,-5.681c-1.605,-1.624 -3.476,-2.91 -5.617,-3.851c-2.138,-0.94 -4.437,-1.412 -6.872,-1.412c-2.436,0 -4.727,0.472 -6.865,1.412c-2.141,0.941 -4.012,2.227 -5.617,3.851c-1.605,1.626 -2.867,3.521 -3.786,5.681c-0.92,2.16 -1.38,4.483 -1.38,6.964Z" style="fill:none;stroke-width:2.01px;stroke:#fff;"/><path d="M1731.93,507.66l10.457,0c3.088,0 5.989,0.523 8.73,1.573c2.743,1.048 5.136,2.556 7.195,4.524c2.045,1.969 3.678,4.332 4.88,7.092c1.191,2.76 1.791,5.872 1.791,9.339c0,2.524 -0.441,5.113 -1.309,7.766c-0.883,2.653 -2.299,5.059 -4.279,7.221c-1.965,2.16 -4.52,3.937 -7.663,5.327c-3.142,1.391 -6.992,2.085 -11.525,2.085l-8.277,0l0,-44.927ZM1737.26,512.73l0,34.723l4.492,0c2.528,0 4.881,-0.407 7.061,-1.219c2.192,-0.815 4.077,-1.98 5.682,-3.5c1.605,-1.517 2.876,-3.336 3.785,-5.453c0.921,-2.119 1.39,-4.504 1.39,-7.157c0,-2.653 -0.469,-5.049 -1.39,-7.19c-0.909,-2.138 -2.18,-3.968 -3.785,-5.487c-1.605,-1.518 -3.49,-2.685 -5.682,-3.498c-2.18,-0.812 -4.533,-1.219 -7.061,-1.219l-4.492,0Z" style="fill:none;stroke-width:2.01px;stroke:#fff;"/><path d="M1773.08,552.587l0,-44.927l27.664,0l0,5.07l-22.344,0l0,14.698l19.83,0l0,5.07l-19.83,0l0,15.019l23.24,0l0,5.07l-28.56,0Z" style="fill:none;stroke-width:2.01px;stroke:#fff;"/></g></g><path d="M883.171,1016.2l0,-4.046c1.601,-0.092 3.086,-0.422 4.458,-0.994c1.371,-0.573 2.547,-1.372 3.531,-2.4c0.984,-1.029 1.749,-2.274 2.297,-3.738c0.549,-1.463 0.823,-3.13 0.823,-5.005l0,-41.623l4.251,0l0,41.828c0,2.561 -0.4,4.824 -1.2,6.789c-0.799,1.965 -1.885,3.611 -3.257,4.937c-1.371,1.327 -2.993,2.355 -4.868,3.086c-1.875,0.731 -3.885,1.121 -6.035,1.166Z" style="fill:#fff;fill-rule:nonzero;"/><path d="M934.6,1006.8l-4.251,0l0,-3.977l0.205,-3.086c-0.915,2.195 -2.389,3.943 -4.423,5.246c-2.033,1.303 -4.285,1.954 -6.754,1.954c-2.606,0 -4.673,-0.709 -6.206,-2.125c-1.532,-1.417 -2.342,-3.268 -2.434,-5.555l0,-18.582l4.32,0l0,16.937c0.092,1.371 0.583,2.548 1.474,3.531c0.892,0.984 2.253,1.519 4.08,1.612c1.28,0 2.514,-0.217 3.703,-0.652c1.19,-0.435 2.229,-1.052 3.12,-1.851c0.892,-0.8 1.601,-1.738 2.126,-2.812c0.525,-1.073 0.789,-2.252 0.789,-3.531l0,-13.234l4.251,0l0,26.125Z" style="fill:#fff;fill-rule:nonzero;"/><path d="M960.451,983.077c-0.366,0.503 -0.754,1.028 -1.165,1.577c-0.412,0.548 -0.823,1.073 -1.235,1.577c-0.366,-0.412 -0.97,-0.834 -1.817,-1.269c-0.846,-0.435 -1.793,-0.651 -2.845,-0.651c-1.053,0 -1.944,0.274 -2.675,0.823c-0.73,0.548 -1.052,1.395 -0.96,2.537c0.045,0.778 0.377,1.395 0.995,1.851c0.617,0.457 1.36,0.868 2.228,1.235c0.868,0.366 1.794,0.73 2.777,1.097c0.984,0.366 1.91,0.846 2.777,1.44c0.868,0.593 1.578,1.348 2.126,2.263c0.549,0.915 0.823,2.08 0.823,3.497c0,0.685 -0.137,1.485 -0.411,2.4c-0.275,0.915 -0.731,1.783 -1.372,2.605c-0.641,0.823 -1.508,1.509 -2.606,2.058c-1.097,0.548 -2.492,0.822 -4.182,0.822c-1.509,0 -3.041,-0.274 -4.595,-0.822c-1.553,-0.549 -2.788,-1.348 -3.703,-2.4c0.457,-0.504 0.892,-1.018 1.303,-1.543c0.412,-0.525 0.847,-1.04 1.303,-1.543c0.915,0.686 1.841,1.211 2.777,1.577c0.937,0.366 1.955,0.549 3.052,0.549c0.229,0 0.572,-0.045 1.028,-0.138c0.457,-0.092 0.902,-0.274 1.337,-0.548c0.435,-0.274 0.834,-0.641 1.2,-1.097c0.367,-0.457 0.549,-1.074 0.549,-1.852c0.045,-1.005 -0.206,-1.772 -0.754,-2.297c-0.549,-0.525 -1.258,-0.96 -2.126,-1.303c-0.868,-0.343 -1.817,-0.662 -2.846,-0.96c-1.028,-0.298 -1.988,-0.696 -2.88,-1.2c-0.891,-0.503 -1.635,-1.2 -2.228,-2.091c-0.594,-0.892 -0.892,-2.115 -0.892,-3.669c0,-1.326 0.251,-2.458 0.755,-3.394c0.503,-0.936 1.142,-1.704 1.92,-2.297c0.777,-0.594 1.611,-1.029 2.502,-1.303c0.892,-0.274 1.749,-0.411 2.572,-0.411c0.456,0 1.005,0.045 1.646,0.137c0.64,0.092 1.302,0.25 1.988,0.48c0.686,0.229 1.337,0.525 1.954,0.891c0.618,0.367 1.177,0.823 1.68,1.372Z" style="fill:#fff;fill-rule:nonzero;"/><path d="M972.863,963.945l4.251,0l0,16.457l7.337,0l0,4.183l-7.337,0l0,21.806l-4.251,0l0,-21.806l-5.829,0l0,-4.183l5.829,0l0,-16.457Z" style="fill:#fff;fill-rule:nonzero;"/><path d="M1033.07,993.499c0,-1.279 -0.23,-2.479 -0.686,-3.6c-0.457,-1.12 -1.097,-2.091 -1.92,-2.914c-0.823,-0.823 -1.807,-1.474 -2.949,-1.954c-1.142,-0.48 -2.4,-0.72 -3.771,-0.72c-1.327,0 -2.561,0.24 -3.703,0.72c-1.142,0.48 -2.126,1.131 -2.949,1.954c-0.822,0.823 -1.474,1.794 -1.954,2.914c-0.48,1.121 -0.72,2.321 -0.72,3.6c0,1.327 0.24,2.548 0.72,3.669c0.48,1.121 1.132,2.102 1.954,2.949c0.823,0.846 1.807,1.508 2.949,1.988c1.142,0.48 2.376,0.72 3.703,0.72c1.371,0 2.629,-0.24 3.771,-0.72c1.142,-0.48 2.126,-1.142 2.949,-1.988c0.823,-0.847 1.463,-1.828 1.92,-2.949c0.456,-1.121 0.686,-2.342 0.686,-3.669ZM1037.39,993.499c0,1.875 -0.354,3.624 -1.063,5.246c-0.71,1.622 -1.67,3.052 -2.88,4.286c-1.211,1.234 -2.651,2.205 -4.32,2.914c-1.67,0.709 -3.463,1.063 -5.383,1.063c-1.372,0 -2.629,-0.182 -3.772,-0.549c-1.142,-0.366 -2.136,-0.799 -2.982,-1.302c-0.847,-0.504 -1.533,-1.029 -2.058,-1.578c-0.525,-0.548 -0.857,-1.052 -0.994,-1.508c0.092,0.366 0.182,0.72 0.274,1.063c0.093,0.343 0.183,0.696 0.275,1.063l0,19.337l-4.32,0l0,-42.857l3.565,0c0,0.777 0.024,1.553 0.069,2.331c0.045,0.778 0.092,1.554 0.137,2.331c0.137,-0.456 0.491,-0.983 1.063,-1.577c0.572,-0.593 1.292,-1.165 2.16,-1.714c0.868,-0.549 1.862,-1.005 2.983,-1.371c1.121,-0.367 2.321,-0.549 3.6,-0.549c1.92,0 3.713,0.354 5.383,1.063c1.669,0.709 3.109,1.669 4.32,2.88c1.21,1.211 2.17,2.629 2.88,4.251c0.709,1.622 1.063,3.35 1.063,5.177Z" style="fill:#fff;fill-rule:nonzero;"/><path d="M1049.25,993.499c0,1.327 0.24,2.548 0.72,3.669c0.48,1.121 1.132,2.091 1.955,2.914c0.823,0.823 1.806,1.475 2.948,1.955c1.142,0.48 2.377,0.72 3.703,0.72c1.327,0 2.561,-0.24 3.703,-0.72c1.142,-0.48 2.126,-1.132 2.949,-1.955c0.822,-0.823 1.474,-1.793 1.954,-2.914c0.48,-1.121 0.72,-2.342 0.72,-3.669c0,-1.279 -0.24,-2.492 -0.72,-3.634c-0.48,-1.142 -1.132,-2.126 -1.954,-2.948c-0.823,-0.823 -1.807,-1.475 -2.949,-1.955c-1.142,-0.48 -2.376,-0.72 -3.703,-0.72c-1.326,0 -2.561,0.24 -3.703,0.72c-1.142,0.48 -2.125,1.132 -2.948,1.955c-0.823,0.822 -1.475,1.806 -1.955,2.948c-0.48,1.142 -0.72,2.355 -0.72,3.634ZM1044.93,993.568c0,-1.828 0.354,-3.555 1.063,-5.177c0.71,-1.622 1.67,-3.052 2.88,-4.286c1.211,-1.234 2.651,-2.218 4.32,-2.948c1.67,-0.731 3.463,-1.098 5.383,-1.098c1.279,0 2.479,0.183 3.6,0.549c1.121,0.366 2.115,0.823 2.983,1.371c0.868,0.549 1.588,1.121 2.16,1.715c0.572,0.593 0.926,1.12 1.063,1.577c0,-0.731 0.034,-1.485 0.103,-2.263c0.068,-0.778 0.126,-1.554 0.171,-2.331l3.497,0l0,25.714l-3.771,0l0,-2.674l0,-1.715c-0.137,0.457 -0.469,0.971 -0.994,1.543c-0.525,0.572 -1.211,1.108 -2.058,1.612c-0.846,0.503 -1.84,0.925 -2.982,1.268c-1.143,0.343 -2.4,0.514 -3.772,0.514c-1.92,0 -3.713,-0.353 -5.383,-1.062c-1.669,-0.71 -3.109,-1.67 -4.32,-2.88c-1.21,-1.211 -2.17,-2.63 -2.88,-4.252c-0.709,-1.622 -1.063,-3.349 -1.063,-5.177Z" style="fill:#fff;fill-rule:nonzero;"/><path d="M1092.93,983.077c-0.366,0.503 -0.754,1.028 -1.165,1.577c-0.412,0.548 -0.823,1.073 -1.235,1.577c-0.366,-0.412 -0.97,-0.834 -1.817,-1.269c-0.846,-0.435 -1.793,-0.651 -2.845,-0.651c-1.053,0 -1.944,0.274 -2.675,0.823c-0.73,0.548 -1.052,1.395 -0.96,2.537c0.045,0.778 0.377,1.395 0.995,1.851c0.617,0.457 1.36,0.868 2.228,1.235c0.868,0.366 1.794,0.73 2.777,1.097c0.984,0.366 1.91,0.846 2.777,1.44c0.868,0.593 1.578,1.348 2.126,2.263c0.549,0.915 0.823,2.08 0.823,3.497c0,0.685 -0.137,1.485 -0.411,2.4c-0.275,0.915 -0.731,1.783 -1.372,2.605c-0.641,0.823 -1.508,1.509 -2.606,2.058c-1.097,0.548 -2.492,0.822 -4.182,0.822c-1.509,0 -3.041,-0.274 -4.595,-0.822c-1.553,-0.549 -2.788,-1.348 -3.703,-2.4c0.457,-0.504 0.892,-1.018 1.303,-1.543c0.412,-0.525 0.847,-1.04 1.303,-1.543c0.915,0.686 1.841,1.211 2.777,1.577c0.937,0.366 1.955,0.549 3.052,0.549c0.229,0 0.572,-0.045 1.028,-0.138c0.457,-0.092 0.902,-0.274 1.337,-0.548c0.435,-0.274 0.834,-0.641 1.2,-1.097c0.367,-0.457 0.549,-1.074 0.549,-1.852c0.045,-1.005 -0.206,-1.772 -0.754,-2.297c-0.549,-0.525 -1.258,-0.96 -2.126,-1.303c-0.868,-0.343 -1.817,-0.662 -2.846,-0.96c-1.028,-0.298 -1.988,-0.696 -2.88,-1.2c-0.891,-0.503 -1.635,-1.2 -2.228,-2.091c-0.594,-0.892 -0.892,-2.115 -0.892,-3.669c0,-1.326 0.251,-2.458 0.755,-3.394c0.503,-0.936 1.142,-1.704 1.92,-2.297c0.777,-0.594 1.611,-1.029 2.502,-1.303c0.892,-0.274 1.749,-0.411 2.572,-0.411c0.456,0 1.005,0.045 1.646,0.137c0.64,0.092 1.302,0.25 1.988,0.48c0.686,0.229 1.337,0.525 1.954,0.891c0.618,0.367 1.177,0.823 1.68,1.372Z" style="fill:#fff;fill-rule:nonzero;"/><path d="M1105.34,963.945l4.251,0l0,16.457l7.337,0l0,4.183l-7.337,0l0,21.806l-4.251,0l0,-21.806l-5.829,0l0,-4.183l5.829,0l0,-16.457Z" style="fill:#fff;fill-rule:nonzero;"/><path d="M1133.53,984.242c-2.287,0 -4.262,0.686 -5.932,2.057c-1.669,1.372 -2.685,3.086 -3.051,5.143c-0.092,0.457 -0.148,0.915 -0.172,1.372c-0.023,0.456 -0.034,0.915 -0.034,1.371c2.606,-1.005 5.212,-1.999 7.817,-2.983c2.606,-0.983 5.212,-1.978 7.817,-2.983c-0.685,-1.189 -1.587,-2.149 -2.708,-2.88c-1.121,-0.73 -2.366,-1.097 -3.737,-1.097ZM1145.46,990.619l-19.954,7.612c0.778,1.371 1.862,2.468 3.257,3.291c1.395,0.823 2.983,1.235 4.766,1.235c1.234,0 2.389,-0.23 3.463,-0.686c1.073,-0.457 1.999,-1.074 2.777,-1.852c0.411,0.504 0.833,1.018 1.268,1.543c0.435,0.525 0.881,1.04 1.337,1.543c-1.189,1.142 -2.526,2.034 -4.011,2.674c-1.485,0.641 -3.096,0.96 -4.834,0.96c-1.875,0 -3.635,-0.353 -5.28,-1.062c-1.646,-0.71 -3.086,-1.67 -4.32,-2.88c-1.235,-1.211 -2.205,-2.63 -2.915,-4.252c-0.709,-1.622 -1.062,-3.371 -1.062,-5.246c0,-1.827 0.353,-3.565 1.062,-5.211c0.71,-1.646 1.68,-3.075 2.915,-4.286c1.234,-1.21 2.674,-2.17 4.32,-2.88c1.645,-0.709 3.405,-1.063 5.28,-1.063c1.416,0 2.753,0.264 4.011,0.789c1.258,0.525 2.4,1.258 3.429,2.194c1.028,0.937 1.93,2.057 2.708,3.36c0.778,1.303 1.372,2.709 1.783,4.217Z" style="fill:#fff;fill-rule:nonzero;"/><path d="M1171.45,993.499c0,-1.827 0.353,-3.565 1.063,-5.211c0.709,-1.646 1.68,-3.075 2.914,-4.286c1.234,-1.21 2.674,-2.17 4.32,-2.88c1.646,-0.709 3.405,-1.063 5.28,-1.063c1.92,0 3.713,0.354 5.383,1.063c1.669,0.71 3.12,1.67 4.354,2.88c1.234,1.211 2.205,2.64 2.914,4.286c0.71,1.646 1.063,3.384 1.063,5.211c0,1.875 -0.353,3.624 -1.063,5.246c-0.709,1.622 -1.68,3.041 -2.914,4.252c-1.234,1.21 -2.685,2.17 -4.354,2.88c-1.67,0.709 -3.463,1.062 -5.383,1.062c-1.875,0 -3.634,-0.353 -5.28,-1.062c-1.646,-0.71 -3.086,-1.67 -4.32,-2.88c-1.234,-1.211 -2.205,-2.63 -2.914,-4.252c-0.71,-1.622 -1.063,-3.371 -1.063,-5.246ZM1175.7,993.568c0,1.279 0.24,2.479 0.72,3.6c0.48,1.121 1.142,2.091 1.989,2.914c0.846,0.823 1.828,1.475 2.948,1.955c1.121,0.48 2.321,0.72 3.6,0.72c1.28,0 2.48,-0.24 3.6,-0.72c1.121,-0.48 2.102,-1.132 2.949,-1.955c0.846,-0.823 1.508,-1.793 1.988,-2.914c0.48,-1.121 0.72,-2.321 0.72,-3.6c0,-1.279 -0.24,-2.492 -0.72,-3.634c-0.48,-1.142 -1.142,-2.137 -1.988,-2.983c-0.847,-0.847 -1.828,-1.509 -2.949,-1.989c-1.12,-0.48 -2.32,-0.72 -3.6,-0.72c-1.279,0 -2.479,0.24 -3.6,0.72c-1.12,0.48 -2.102,1.142 -2.948,1.989c-0.847,0.846 -1.509,1.841 -1.989,2.983c-0.48,1.142 -0.72,2.355 -0.72,3.634Z" style="fill:#fff;fill-rule:nonzero;"/><path d="M1221.85,984.311c-1.417,0 -2.732,0.229 -3.943,0.686c-1.211,0.456 -2.252,1.073 -3.12,1.851c-0.868,0.778 -1.543,1.704 -2.023,2.777c-0.48,1.074 -0.72,2.252 -0.72,3.532l0,13.234l-4.32,0l0,-25.714l3.84,0l0,1.508c0.045,0.915 0.092,1.772 0.137,2.572c0.045,0.799 0.092,1.656 0.137,2.571c0.549,-1.142 1.235,-2.16 2.057,-3.051c0.823,-0.892 1.704,-1.646 2.64,-2.263c0.937,-0.617 1.897,-1.087 2.88,-1.406c0.984,-0.319 1.886,-0.48 2.709,-0.48l-0.274,4.183Z" style="fill:#fff;fill-rule:nonzero;"/><path d="M1252.63,963.945l4.252,0l0,16.457l7.337,0l0,4.183l-7.337,0l0,21.806l-4.252,0l0,-21.806l-5.828,0l0,-4.183l5.828,0l0,-16.457Z" style="fill:#fff;fill-rule:nonzero;"/><path d="M1275.74,1023.53l-4.389,0c1.464,-2.88 2.891,-5.726 4.286,-8.537c1.395,-2.812 2.822,-5.658 4.286,-8.538c-2.195,-4.296 -4.355,-8.595 -6.48,-12.891c-2.126,-4.296 -4.286,-8.595 -6.48,-12.891l4.32,0c1.828,3.565 3.726,7.176 5.691,10.834c1.965,3.658 3.679,7.337 5.143,11.04c1.464,-3.703 3.178,-7.382 5.143,-11.04c1.965,-3.658 3.84,-7.269 5.623,-10.834l4.32,0c-3.566,7.176 -7.142,14.32 -10.732,21.428c-3.589,7.108 -7.165,14.252 -10.731,21.429Z" style="fill:#fff;fill-rule:nonzero;"/><path d="M1326.28,993.499c0,-1.279 -0.229,-2.479 -0.686,-3.6c-0.456,-1.12 -1.097,-2.091 -1.92,-2.914c-0.823,-0.823 -1.806,-1.474 -2.948,-1.954c-1.142,-0.48 -2.4,-0.72 -3.772,-0.72c-1.326,0 -2.56,0.24 -3.703,0.72c-1.142,0.48 -2.125,1.131 -2.948,1.954c-0.823,0.823 -1.474,1.794 -1.954,2.914c-0.48,1.121 -0.72,2.321 -0.72,3.6c0,1.327 0.24,2.548 0.72,3.669c0.48,1.121 1.131,2.102 1.954,2.949c0.823,0.846 1.806,1.508 2.948,1.988c1.143,0.48 2.377,0.72 3.703,0.72c1.372,0 2.63,-0.24 3.772,-0.72c1.142,-0.48 2.125,-1.142 2.948,-1.988c0.823,-0.847 1.464,-1.828 1.92,-2.949c0.457,-1.121 0.686,-2.342 0.686,-3.669ZM1330.6,993.499c0,1.875 -0.354,3.624 -1.063,5.246c-0.709,1.622 -1.669,3.052 -2.88,4.286c-1.211,1.234 -2.651,2.205 -4.32,2.914c-1.669,0.709 -3.463,1.063 -5.383,1.063c-1.371,0 -2.629,-0.182 -3.771,-0.549c-1.142,-0.366 -2.137,-0.799 -2.983,-1.302c-0.846,-0.504 -1.532,-1.029 -2.057,-1.578c-0.525,-0.548 -0.857,-1.052 -0.994,-1.508c0.092,0.366 0.182,0.72 0.274,1.063c0.092,0.343 0.182,0.696 0.274,1.063l0,19.337l-4.32,0l0,-42.857l3.566,0c0,0.777 0.023,1.553 0.068,2.331c0.045,0.778 0.093,1.554 0.138,2.331c0.137,-0.456 0.49,-0.983 1.062,-1.577c0.573,-0.593 1.293,-1.165 2.16,-1.714c0.868,-0.549 1.863,-1.005 2.983,-1.371c1.121,-0.367 2.321,-0.549 3.6,-0.549c1.92,0 3.714,0.354 5.383,1.063c1.669,0.709 3.109,1.669 4.32,2.88c1.211,1.211 2.171,2.629 2.88,4.251c0.709,1.622 1.063,3.35 1.063,5.177Z" style="fill:#fff;fill-rule:nonzero;"/><path d="M1350.83,984.242c-2.287,0 -4.263,0.686 -5.932,2.057c-1.669,1.372 -2.685,3.086 -3.051,5.143c-0.092,0.457 -0.148,0.915 -0.172,1.372c-0.023,0.456 -0.034,0.915 -0.034,1.371c2.606,-1.005 5.211,-1.999 7.817,-2.983c2.606,-0.983 5.212,-1.978 7.817,-2.983c-0.685,-1.189 -1.588,-2.149 -2.708,-2.88c-1.121,-0.73 -2.366,-1.097 -3.737,-1.097ZM1362.76,990.619l-19.954,7.612c0.778,1.371 1.862,2.468 3.257,3.291c1.395,0.823 2.983,1.235 4.766,1.235c1.234,0 2.389,-0.23 3.462,-0.686c1.074,-0.457 2,-1.074 2.778,-1.852c0.411,0.504 0.833,1.018 1.268,1.543c0.435,0.525 0.881,1.04 1.337,1.543c-1.189,1.142 -2.526,2.034 -4.011,2.674c-1.485,0.641 -3.097,0.96 -4.834,0.96c-1.875,0 -3.635,-0.353 -5.28,-1.062c-1.646,-0.71 -3.086,-1.67 -4.32,-2.88c-1.235,-1.211 -2.205,-2.63 -2.915,-4.252c-0.709,-1.622 -1.063,-3.371 -1.063,-5.246c0,-1.827 0.354,-3.565 1.063,-5.211c0.71,-1.646 1.68,-3.075 2.915,-4.286c1.234,-1.21 2.674,-2.17 4.32,-2.88c1.645,-0.709 3.405,-1.063 5.28,-1.063c1.416,0 2.753,0.264 4.011,0.789c1.258,0.525 2.4,1.258 3.429,2.194c1.028,0.937 1.93,2.057 2.708,3.36c0.778,1.303 1.372,2.709 1.783,4.217Z" style="fill:#fff;fill-rule:nonzero;"/><path d="M1393.96,993.499c0,1.327 0.24,2.548 0.72,3.669c0.48,1.121 1.131,2.091 1.954,2.914c0.823,0.823 1.807,1.475 2.949,1.955c1.142,0.48 2.376,0.72 3.703,0.72c1.326,0 2.56,-0.24 3.703,-0.72c1.142,-0.48 2.125,-1.132 2.948,-1.955c0.823,-0.823 1.474,-1.793 1.954,-2.914c0.48,-1.121 0.72,-2.342 0.72,-3.669c0,-1.279 -0.24,-2.492 -0.72,-3.634c-0.48,-1.142 -1.131,-2.126 -1.954,-2.948c-0.823,-0.823 -1.806,-1.475 -2.948,-1.955c-1.143,-0.48 -2.377,-0.72 -3.703,-0.72c-1.327,0 -2.561,0.24 -3.703,0.72c-1.142,0.48 -2.126,1.132 -2.949,1.955c-0.823,0.822 -1.474,1.806 -1.954,2.948c-0.48,1.142 -0.72,2.355 -0.72,3.634ZM1389.64,993.568c0,-1.828 0.354,-3.555 1.063,-5.177c0.709,-1.622 1.669,-3.052 2.88,-4.286c1.211,-1.234 2.651,-2.218 4.32,-2.948c1.669,-0.731 3.463,-1.098 5.383,-1.098c1.279,0 2.479,0.183 3.6,0.549c1.12,0.366 2.115,0.823 2.983,1.371c0.867,0.549 1.587,1.121 2.16,1.715c0.572,0.593 0.925,1.12 1.062,1.577c0,-0.731 0.035,-1.485 0.103,-2.263c0.069,-0.778 0.127,-1.554 0.172,-2.331l3.497,0l0,25.714l-3.772,0l0,-2.674l0,-1.715c-0.137,0.457 -0.469,0.971 -0.994,1.543c-0.525,0.572 -1.211,1.108 -2.057,1.612c-0.846,0.503 -1.841,0.925 -2.983,1.268c-1.142,0.343 -2.4,0.514 -3.771,0.514c-1.92,0 -3.714,-0.353 -5.383,-1.062c-1.669,-0.71 -3.109,-1.67 -4.32,-2.88c-1.211,-1.211 -2.171,-2.63 -2.88,-4.252c-0.709,-1.622 -1.063,-3.349 -1.063,-5.177Z" style="fill:#fff;fill-rule:nonzero;"/><path d="M1463.56,1000.77c0.823,1.052 1.691,2.126 2.606,3.223c-1.19,0.915 -2.503,1.635 -3.943,2.16c-1.44,0.525 -2.983,0.788 -4.629,0.788c-1.875,0 -3.634,-0.353 -5.28,-1.062c-1.645,-0.71 -3.085,-1.67 -4.32,-2.88c-1.234,-1.211 -2.205,-2.63 -2.914,-4.252c-0.709,-1.622 -1.063,-3.371 -1.063,-5.246c0,-1.827 0.354,-3.565 1.063,-5.211c0.709,-1.646 1.68,-3.075 2.914,-4.286c1.235,-1.21 2.675,-2.17 4.32,-2.88c1.646,-0.709 3.405,-1.063 5.28,-1.063c1.691,0 3.257,0.264 4.697,0.789c1.44,0.525 2.754,1.245 3.943,2.16c-0.456,0.549 -0.915,1.086 -1.371,1.611c-0.457,0.525 -0.892,1.063 -1.303,1.612c-0.823,-0.641 -1.738,-1.132 -2.743,-1.474c-1.005,-0.343 -2.081,-0.515 -3.223,-0.515c-1.326,0 -2.56,0.24 -3.703,0.72c-1.142,0.48 -2.125,1.132 -2.948,1.955c-0.823,0.822 -1.474,1.806 -1.954,2.948c-0.48,1.142 -0.72,2.355 -0.72,3.634c0,1.327 0.24,2.548 0.72,3.669c0.48,1.121 1.131,2.091 1.954,2.914c0.823,0.823 1.806,1.475 2.948,1.955c1.143,0.48 2.377,0.72 3.703,0.72c1.19,0 2.274,-0.172 3.257,-0.515c0.984,-0.343 1.886,-0.833 2.709,-1.474Z" style="fill:#fff;fill-rule:nonzero;"/><path d="M1474.67,954.962l4.32,0l0,29.28l-0.206,3.086c0.96,-2.194 2.411,-3.919 4.354,-5.177c1.944,-1.258 4.217,-1.931 6.823,-2.023c2.606,0 4.663,0.709 6.171,2.126c1.509,1.416 2.308,3.268 2.4,5.554l0,18.583l-4.251,0l0,-16.937c-0.092,-1.327 -0.583,-2.492 -1.474,-3.497c-0.892,-1.005 -2.252,-1.554 -4.08,-1.646c-1.28,0 -2.514,0.229 -3.703,0.686c-1.189,0.456 -2.229,1.073 -3.12,1.851c-0.892,0.778 -1.601,1.704 -2.126,2.777c-0.525,1.074 -0.788,2.252 -0.788,3.532l0,13.234l-4.32,0l0,-51.429Z" style="fill:#fff;fill-rule:nonzero;"/><path d="M1508.75,993.499c0,1.327 0.24,2.548 0.72,3.669c0.48,1.121 1.131,2.091 1.954,2.914c0.823,0.823 1.806,1.475 2.948,1.955c1.143,0.48 2.377,0.72 3.703,0.72c1.327,0 2.561,-0.24 3.703,-0.72c1.142,-0.48 2.126,-1.132 2.949,-1.955c0.823,-0.823 1.474,-1.793 1.954,-2.914c0.48,-1.121 0.72,-2.342 0.72,-3.669c0,-1.279 -0.24,-2.492 -0.72,-3.634c-0.48,-1.142 -1.131,-2.126 -1.954,-2.948c-0.823,-0.823 -1.807,-1.475 -2.949,-1.955c-1.142,-0.48 -2.376,-0.72 -3.703,-0.72c-1.326,0 -2.56,0.24 -3.703,0.72c-1.142,0.48 -2.125,1.132 -2.948,1.955c-0.823,0.822 -1.474,1.806 -1.954,2.948c-0.48,1.142 -0.72,2.355 -0.72,3.634ZM1504.43,993.568c0,-1.828 0.353,-3.555 1.062,-5.177c0.71,-1.622 1.67,-3.052 2.88,-4.286c1.211,-1.234 2.651,-2.218 4.32,-2.948c1.67,-0.731 3.463,-1.098 5.383,-1.098c1.28,0 2.48,0.183 3.6,0.549c1.121,0.366 2.115,0.823 2.983,1.371c0.868,0.549 1.588,1.121 2.16,1.715c0.572,0.593 0.926,1.12 1.063,1.577c0,-0.731 0.034,-1.485 0.103,-2.263c0.068,-0.778 0.126,-1.554 0.171,-2.331l3.497,0l0,25.714l-3.771,0l0,-2.674l0,-1.715c-0.137,0.457 -0.469,0.971 -0.994,1.543c-0.525,0.572 -1.211,1.108 -2.057,1.612c-0.847,0.503 -1.841,0.925 -2.983,1.268c-1.142,0.343 -2.4,0.514 -3.772,0.514c-1.92,0 -3.713,-0.353 -5.383,-1.062c-1.669,-0.71 -3.109,-1.67 -4.32,-2.88c-1.21,-1.211 -2.17,-2.63 -2.88,-4.252c-0.709,-1.622 -1.062,-3.349 -1.062,-5.177Z" style="fill:#fff;fill-rule:nonzero;"/><path d="M1556.2,984.311c-1.416,0 -2.732,0.229 -3.943,0.686c-1.211,0.456 -2.252,1.073 -3.12,1.851c-0.868,0.778 -1.543,1.704 -2.023,2.777c-0.48,1.074 -0.72,2.252 -0.72,3.532l0,13.234l-4.32,0l0,-25.714l3.84,0l0,1.508c0.045,0.915 0.092,1.772 0.137,2.572c0.045,0.799 0.093,1.656 0.138,2.571c0.548,-1.142 1.234,-2.16 2.057,-3.051c0.823,-0.892 1.703,-1.646 2.64,-2.263c0.936,-0.617 1.896,-1.087 2.88,-1.406c0.983,-0.319 1.885,-0.48 2.708,-0.48l-0.274,4.183Z" style="fill:#fff;fill-rule:nonzero;"/><path d="M1562.92,993.499c0,1.327 0.24,2.548 0.72,3.669c0.48,1.121 1.131,2.091 1.954,2.914c0.823,0.823 1.807,1.475 2.949,1.955c1.142,0.48 2.376,0.72 3.703,0.72c1.326,0 2.56,-0.24 3.703,-0.72c1.142,-0.48 2.125,-1.132 2.948,-1.955c0.823,-0.823 1.474,-1.793 1.954,-2.914c0.48,-1.121 0.72,-2.342 0.72,-3.669c0,-1.279 -0.24,-2.492 -0.72,-3.634c-0.48,-1.142 -1.131,-2.126 -1.954,-2.948c-0.823,-0.823 -1.806,-1.475 -2.948,-1.955c-1.143,-0.48 -2.377,-0.72 -3.703,-0.72c-1.327,0 -2.561,0.24 -3.703,0.72c-1.142,0.48 -2.126,1.132 -2.949,1.955c-0.823,0.822 -1.474,1.806 -1.954,2.948c-0.48,1.142 -0.72,2.355 -0.72,3.634ZM1558.6,993.568c0,-1.828 0.354,-3.555 1.063,-5.177c0.709,-1.622 1.669,-3.052 2.88,-4.286c1.211,-1.234 2.651,-2.218 4.32,-2.948c1.669,-0.731 3.463,-1.098 5.383,-1.098c1.279,0 2.479,0.183 3.6,0.549c1.12,0.366 2.115,0.823 2.983,1.371c0.867,0.549 1.587,1.121 2.16,1.715c0.572,0.593 0.925,1.12 1.062,1.577c0,-0.731 0.035,-1.485 0.103,-2.263c0.069,-0.778 0.127,-1.554 0.172,-2.331l3.497,0l0,25.714l-3.772,0l0,-2.674l0,-1.715c-0.137,0.457 -0.469,0.971 -0.994,1.543c-0.525,0.572 -1.211,1.108 -2.057,1.612c-0.846,0.503 -1.841,0.925 -2.983,1.268c-1.142,0.343 -2.4,0.514 -3.771,0.514c-1.92,0 -3.714,-0.353 -5.383,-1.062c-1.669,-0.71 -3.109,-1.67 -4.32,-2.88c-1.211,-1.211 -2.171,-2.63 -2.88,-4.252c-0.709,-1.622 -1.063,-3.349 -1.063,-5.177Z" style="fill:#fff;fill-rule:nonzero;"/><path d="M1611.95,1000.77c0.822,1.052 1.69,2.126 2.605,3.223c-1.189,0.915 -2.503,1.635 -3.943,2.16c-1.44,0.525 -2.982,0.788 -4.628,0.788c-1.875,0 -3.634,-0.353 -5.28,-1.062c-1.646,-0.71 -3.086,-1.67 -4.32,-2.88c-1.234,-1.211 -2.205,-2.63 -2.914,-4.252c-0.71,-1.622 -1.063,-3.371 -1.063,-5.246c0,-1.827 0.353,-3.565 1.063,-5.211c0.709,-1.646 1.68,-3.075 2.914,-4.286c1.234,-1.21 2.674,-2.17 4.32,-2.88c1.646,-0.709 3.405,-1.063 5.28,-1.063c1.691,0 3.257,0.264 4.697,0.789c1.44,0.525 2.754,1.245 3.943,2.16c-0.457,0.549 -0.915,1.086 -1.372,1.611c-0.456,0.525 -0.891,1.063 -1.302,1.612c-0.823,-0.641 -1.738,-1.132 -2.743,-1.474c-1.005,-0.343 -2.081,-0.515 -3.223,-0.515c-1.327,0 -2.561,0.24 -3.703,0.72c-1.142,0.48 -2.126,1.132 -2.949,1.955c-0.822,0.822 -1.474,1.806 -1.954,2.948c-0.48,1.142 -0.72,2.355 -0.72,3.634c0,1.327 0.24,2.548 0.72,3.669c0.48,1.121 1.132,2.091 1.954,2.914c0.823,0.823 1.807,1.475 2.949,1.955c1.142,0.48 2.376,0.72 3.703,0.72c1.189,0 2.273,-0.172 3.257,-0.515c0.984,-0.343 1.886,-0.833 2.709,-1.474Z" style="fill:#fff;fill-rule:nonzero;"/><path d="M1624.7,963.945l4.251,0l0,16.457l7.337,0l0,4.183l-7.337,0l0,21.806l-4.251,0l0,-21.806l-5.829,0l0,-4.183l5.829,0l0,-16.457Z" style="fill:#fff;fill-rule:nonzero;"/><path d="M1652.89,984.242c-2.287,0 -4.262,0.686 -5.932,2.057c-1.669,1.372 -2.685,3.086 -3.051,5.143c-0.092,0.457 -0.148,0.915 -0.172,1.372c-0.023,0.456 -0.034,0.915 -0.034,1.371c2.606,-1.005 5.212,-1.999 7.817,-2.983c2.606,-0.983 5.212,-1.978 7.817,-2.983c-0.685,-1.189 -1.587,-2.149 -2.708,-2.88c-1.121,-0.73 -2.366,-1.097 -3.737,-1.097ZM1664.82,990.619l-19.954,7.612c0.778,1.371 1.862,2.468 3.257,3.291c1.395,0.823 2.983,1.235 4.766,1.235c1.234,0 2.389,-0.23 3.463,-0.686c1.073,-0.457 1.999,-1.074 2.777,-1.852c0.411,0.504 0.833,1.018 1.268,1.543c0.435,0.525 0.881,1.04 1.337,1.543c-1.189,1.142 -2.526,2.034 -4.011,2.674c-1.485,0.641 -3.096,0.96 -4.834,0.96c-1.875,0 -3.635,-0.353 -5.28,-1.062c-1.646,-0.71 -3.086,-1.67 -4.32,-2.88c-1.235,-1.211 -2.205,-2.63 -2.915,-4.252c-0.709,-1.622 -1.062,-3.371 -1.062,-5.246c0,-1.827 0.353,-3.565 1.062,-5.211c0.71,-1.646 1.68,-3.075 2.915,-4.286c1.234,-1.21 2.674,-2.17 4.32,-2.88c1.645,-0.709 3.405,-1.063 5.28,-1.063c1.416,0 2.753,0.264 4.011,0.789c1.258,0.525 2.4,1.258 3.429,2.194c1.028,0.937 1.93,2.057 2.708,3.36c0.778,1.303 1.372,2.709 1.783,4.217Z" style="fill:#fff;fill-rule:nonzero;"/><path d="M1688.2,984.311c-1.416,0 -2.732,0.229 -3.943,0.686c-1.211,0.456 -2.252,1.073 -3.12,1.851c-0.868,0.778 -1.543,1.704 -2.023,2.777c-0.48,1.074 -0.72,2.252 -0.72,3.532l0,13.234l-4.32,0l0,-25.714l3.84,0l0,1.508c0.045,0.915 0.092,1.772 0.137,2.572c0.045,0.799 0.093,1.656 0.138,2.571c0.548,-1.142 1.234,-2.16 2.057,-3.051c0.823,-0.892 1.703,-1.646 2.64,-2.263c0.936,-0.617 1.896,-1.087 2.88,-1.406c0.983,-0.319 1.885,-0.48 2.708,-0.48l-0.274,4.183Z" style="fill:#fff;fill-rule:nonzero;"/><path d="M1714.87,971.145c0,-0.823 0.298,-1.519 0.892,-2.091c0.593,-0.572 1.279,-0.857 2.057,-0.857c0.686,0 1.326,0.285 1.92,0.857c0.593,0.572 0.891,1.268 0.891,2.091c0,0.868 -0.298,1.567 -0.891,2.092c-0.594,0.525 -1.234,0.788 -1.92,0.788c-0.778,0 -1.464,-0.263 -2.057,-0.788c-0.594,-0.525 -0.892,-1.224 -0.892,-2.092ZM1719.88,1006.39l-4.32,0l0,-25.714l4.32,0l0,25.714Z" style="fill:#fff;fill-rule:nonzero;"/><path d="M1730.65,980.677l3.84,0l0,1.508c0.045,0.915 0.092,1.772 0.137,2.572c0.045,0.799 0.092,1.656 0.137,2.571c0.915,-2.194 2.376,-3.943 4.389,-5.246c2.012,-1.303 4.275,-1.954 6.788,-1.954c2.606,0 4.663,0.709 6.172,2.126c1.508,1.416 2.307,3.268 2.4,5.554l0,18.583l-4.252,0l0,-16.937c-0.092,-1.327 -0.583,-2.492 -1.474,-3.497c-0.892,-1.005 -2.252,-1.554 -4.08,-1.646c-1.279,0 -2.514,0.229 -3.703,0.686c-1.189,0.456 -2.229,1.073 -3.12,1.851c-0.891,0.778 -1.601,1.704 -2.126,2.777c-0.525,1.074 -0.788,2.252 -0.788,3.532l0,13.234l-4.32,0l0,-25.714Z" style="fill:#fff;fill-rule:nonzero;"/><path d="M1786.81,963.945l4.251,0l0,16.457l7.337,0l0,4.183l-7.337,0l0,21.806l-4.251,0l0,-21.806l-5.829,0l0,-4.183l5.829,0l0,-16.457Z" style="fill:#fff;fill-rule:nonzero;"/><path d="M1805.25,954.962l4.32,0l0,29.28l-0.205,3.086c0.96,-2.194 2.41,-3.919 4.354,-5.177c1.944,-1.258 4.217,-1.931 6.823,-2.023c2.606,0 4.663,0.709 6.171,2.126c1.509,1.416 2.308,3.268 2.4,5.554l0,18.583l-4.251,0l0,-16.937c-0.092,-1.327 -0.583,-2.492 -1.474,-3.497c-0.892,-1.005 -2.253,-1.554 -4.08,-1.646c-1.28,0 -2.514,0.229 -3.703,0.686c-1.19,0.456 -2.229,1.073 -3.12,1.851c-0.892,0.778 -1.601,1.704 -2.126,2.777c-0.525,1.074 -0.789,2.252 -0.789,3.532l0,13.234l-4.32,0l0,-51.429Z" style="fill:#fff;fill-rule:nonzero;"/><path d="M1850.1,984.242c-2.286,0 -4.262,0.686 -5.931,2.057c-1.67,1.372 -2.685,3.086 -3.052,5.143c-0.092,0.457 -0.148,0.915 -0.171,1.372c-0.024,0.456 -0.034,0.915 -0.034,1.371c2.605,-1.005 5.211,-1.999 7.817,-2.983c2.605,-0.983 5.211,-1.978 7.817,-2.983c-0.686,-1.189 -1.588,-2.149 -2.709,-2.88c-1.12,-0.73 -2.365,-1.097 -3.737,-1.097ZM1862.03,990.619l-19.955,7.612c0.778,1.371 1.862,2.468 3.257,3.291c1.395,0.823 2.983,1.235 4.766,1.235c1.234,0 2.389,-0.23 3.463,-0.686c1.074,-0.457 1.999,-1.074 2.777,-1.852c0.412,0.504 0.834,1.018 1.269,1.543c0.435,0.525 0.88,1.04 1.337,1.543c-1.189,1.142 -2.527,2.034 -4.012,2.674c-1.485,0.641 -3.096,0.96 -4.834,0.96c-1.875,0 -3.634,-0.353 -5.28,-1.062c-1.646,-0.71 -3.086,-1.67 -4.32,-2.88c-1.234,-1.211 -2.205,-2.63 -2.914,-4.252c-0.709,-1.622 -1.063,-3.371 -1.063,-5.246c0,-1.827 0.354,-3.565 1.063,-5.211c0.709,-1.646 1.68,-3.075 2.914,-4.286c1.234,-1.21 2.674,-2.17 4.32,-2.88c1.646,-0.709 3.405,-1.063 5.28,-1.063c1.417,0 2.754,0.264 4.012,0.789c1.257,0.525 2.4,1.258 3.428,2.194c1.029,0.937 1.931,2.057 2.709,3.36c0.778,1.303 1.371,2.709 1.783,4.217Z" style="fill:#fff;fill-rule:nonzero;"/><path d="M1914.07,993.499c0,-1.279 -0.229,-2.492 -0.685,-3.634c-0.457,-1.142 -1.098,-2.126 -1.92,-2.948c-0.823,-0.823 -1.807,-1.475 -2.949,-1.955c-1.142,-0.48 -2.4,-0.72 -3.771,-0.72c-1.327,0 -2.561,0.24 -3.703,0.72c-1.142,0.48 -2.126,1.132 -2.949,1.955c-0.823,0.822 -1.474,1.806 -1.954,2.948c-0.48,1.142 -0.72,2.355 -0.72,3.634c0,1.327 0.24,2.548 0.72,3.669c0.48,1.121 1.131,2.091 1.954,2.914c0.823,0.823 1.807,1.475 2.949,1.955c1.142,0.48 2.376,0.72 3.703,0.72c1.371,0 2.629,-0.24 3.771,-0.72c1.142,-0.48 2.126,-1.132 2.949,-1.955c0.822,-0.823 1.463,-1.793 1.92,-2.914c0.456,-1.121 0.685,-2.342 0.685,-3.669ZM1918.39,993.499c0,1.828 -0.353,3.555 -1.063,5.178c-0.709,1.622 -1.669,3.051 -2.88,4.285c-1.21,1.235 -2.65,2.205 -4.32,2.915c-1.669,0.709 -3.462,1.062 -5.382,1.062c-1.372,0 -2.63,-0.171 -3.772,-0.514c-1.142,-0.343 -2.136,-0.765 -2.983,-1.268c-0.846,-0.504 -1.532,-1.04 -2.057,-1.612c-0.525,-0.572 -0.857,-1.086 -0.994,-1.543l0,4.389l-3.772,0l0,-51.429l4.252,0l0,27.566c-0.092,0.504 -0.172,0.96 -0.24,1.371c-0.069,0.412 -0.148,0.847 -0.24,1.303c0.137,-0.456 0.491,-0.983 1.063,-1.577c0.572,-0.593 1.292,-1.155 2.16,-1.68c0.868,-0.525 1.862,-0.971 2.983,-1.337c1.12,-0.366 2.32,-0.549 3.6,-0.549c1.92,0 3.713,0.354 5.382,1.063c1.67,0.71 3.11,1.68 4.32,2.915c1.211,1.234 2.171,2.663 2.88,4.285c0.71,1.622 1.063,3.35 1.063,5.177Z" style="fill:#fff;fill-rule:nonzero;"/><path d="M1924.43,993.499c0,-1.827 0.353,-3.565 1.062,-5.211c0.71,-1.646 1.68,-3.075 2.915,-4.286c1.234,-1.21 2.674,-2.17 4.32,-2.88c1.645,-0.709 3.405,-1.063 5.28,-1.063c1.92,0 3.713,0.354 5.383,1.063c1.669,0.71 3.12,1.67 4.354,2.88c1.234,1.211 2.205,2.64 2.914,4.286c0.709,1.646 1.063,3.384 1.063,5.211c0,1.875 -0.354,3.624 -1.063,5.246c-0.709,1.622 -1.68,3.041 -2.914,4.252c-1.234,1.21 -2.685,2.17 -4.354,2.88c-1.67,0.709 -3.463,1.062 -5.383,1.062c-1.875,0 -3.635,-0.353 -5.28,-1.062c-1.646,-0.71 -3.086,-1.67 -4.32,-2.88c-1.235,-1.211 -2.205,-2.63 -2.915,-4.252c-0.709,-1.622 -1.062,-3.371 -1.062,-5.246ZM1928.68,993.568c0,1.279 0.24,2.479 0.72,3.6c0.48,1.121 1.142,2.091 1.989,2.914c0.846,0.823 1.827,1.475 2.948,1.955c1.121,0.48 2.321,0.72 3.6,0.72c1.279,0 2.479,-0.24 3.6,-0.72c1.121,-0.48 2.102,-1.132 2.949,-1.955c0.846,-0.823 1.508,-1.793 1.988,-2.914c0.48,-1.121 0.72,-2.321 0.72,-3.6c0,-1.279 -0.24,-2.492 -0.72,-3.634c-0.48,-1.142 -1.142,-2.137 -1.988,-2.983c-0.847,-0.847 -1.828,-1.509 -2.949,-1.989c-1.121,-0.48 -2.321,-0.72 -3.6,-0.72c-1.279,0 -2.479,0.24 -3.6,0.72c-1.121,0.48 -2.102,1.142 -2.948,1.989c-0.847,0.846 -1.509,1.841 -1.989,2.983c-0.48,1.142 -0.72,2.355 -0.72,3.634Z" style="fill:#fff;fill-rule:nonzero;"/><path d="M1966.19,992.882c-1.464,-2.057 -2.949,-4.09 -4.458,-6.103c-1.508,-2.012 -2.993,-4.045 -4.457,-6.102l5.28,0c1.235,1.69 2.469,3.37 3.703,5.04c1.234,1.669 2.469,3.325 3.703,4.971c1.189,-1.646 2.389,-3.302 3.6,-4.971c1.211,-1.67 2.411,-3.35 3.6,-5.04l5.28,0c-1.646,2.286 -3.291,4.549 -4.937,6.788c-1.646,2.239 -3.268,4.502 -4.869,6.789c1.464,2.057 2.949,4.08 4.457,6.068c1.509,1.989 3.018,4.012 4.526,6.069l-5.417,0c-1.234,-1.646 -2.458,-3.302 -3.669,-4.972c-1.21,-1.669 -2.434,-3.349 -3.668,-5.04c-1.189,1.691 -2.4,3.371 -3.634,5.04c-1.235,1.67 -2.445,3.326 -3.635,4.972l-5.28,0c1.646,-2.239 3.292,-4.492 4.937,-6.754c1.646,-2.263 3.292,-4.515 4.938,-6.755Z" style="fill:#fff;fill-rule:nonzero;"/><path d="M2034.21,993.499c0,-1.279 -0.229,-2.492 -0.685,-3.634c-0.457,-1.142 -1.097,-2.126 -1.92,-2.948c-0.823,-0.823 -1.807,-1.475 -2.949,-1.955c-1.142,-0.48 -2.4,-0.72 -3.771,-0.72c-1.327,0 -2.561,0.24 -3.703,0.72c-1.142,0.48 -2.126,1.132 -2.949,1.955c-0.823,0.822 -1.474,1.806 -1.954,2.948c-0.48,1.142 -0.72,2.355 -0.72,3.634c0,1.327 0.24,2.548 0.72,3.669c0.48,1.121 1.131,2.091 1.954,2.914c0.823,0.823 1.807,1.475 2.949,1.955c1.142,0.48 2.376,0.72 3.703,0.72c1.371,0 2.629,-0.24 3.771,-0.72c1.142,-0.48 2.126,-1.132 2.949,-1.955c0.823,-0.823 1.463,-1.793 1.92,-2.914c0.456,-1.121 0.685,-2.342 0.685,-3.669ZM2038.53,993.499c0,1.828 -0.353,3.555 -1.062,5.178c-0.71,1.622 -1.67,3.051 -2.88,4.285c-1.211,1.235 -2.651,2.205 -4.32,2.915c-1.67,0.709 -3.463,1.062 -5.383,1.062c-1.372,0 -2.63,-0.171 -3.772,-0.514c-1.142,-0.343 -2.136,-0.765 -2.983,-1.268c-0.846,-0.504 -1.532,-1.04 -2.057,-1.612c-0.525,-0.572 -0.857,-1.086 -0.994,-1.543l0,4.389l-3.771,0l0,-51.429l4.251,0l0,27.566c-0.092,0.504 -0.171,0.96 -0.24,1.371c-0.069,0.412 -0.148,0.847 -0.24,1.303c0.137,-0.456 0.491,-0.983 1.063,-1.577c0.572,-0.593 1.292,-1.155 2.16,-1.68c0.868,-0.525 1.862,-0.971 2.983,-1.337c1.12,-0.366 2.32,-0.549 3.6,-0.549c1.92,0 3.713,0.354 5.383,1.063c1.669,0.71 3.109,1.68 4.32,2.915c1.21,1.234 2.17,2.663 2.88,4.285c0.709,1.622 1.062,3.35 1.062,5.177Z" style="fill:#fff;fill-rule:nonzero;"/><path d="M2058.14,984.242c-2.287,0 -4.262,0.686 -5.932,2.057c-1.669,1.372 -2.685,3.086 -3.051,5.143c-0.092,0.457 -0.148,0.915 -0.171,1.372c-0.024,0.456 -0.035,0.915 -0.035,1.371c2.606,-1.005 5.212,-1.999 7.817,-2.983c2.606,-0.983 5.212,-1.978 7.818,-2.983c-0.686,-1.189 -1.588,-2.149 -2.709,-2.88c-1.121,-0.73 -2.366,-1.097 -3.737,-1.097ZM2070.07,990.619l-19.954,7.612c0.778,1.371 1.862,2.468 3.257,3.291c1.395,0.823 2.983,1.235 4.766,1.235c1.234,0 2.389,-0.23 3.463,-0.686c1.073,-0.457 1.999,-1.074 2.777,-1.852c0.411,0.504 0.833,1.018 1.268,1.543c0.435,0.525 0.881,1.04 1.338,1.543c-1.19,1.142 -2.527,2.034 -4.012,2.674c-1.485,0.641 -3.096,0.96 -4.834,0.96c-1.875,0 -3.634,-0.353 -5.28,-1.062c-1.646,-0.71 -3.086,-1.67 -4.32,-2.88c-1.234,-1.211 -2.205,-2.63 -2.914,-4.252c-0.71,-1.622 -1.063,-3.371 -1.063,-5.246c0,-1.827 0.353,-3.565 1.063,-5.211c0.709,-1.646 1.68,-3.075 2.914,-4.286c1.234,-1.21 2.674,-2.17 4.32,-2.88c1.646,-0.709 3.405,-1.063 5.28,-1.063c1.416,0 2.753,0.264 4.011,0.789c1.258,0.525 2.4,1.258 3.429,2.194c1.028,0.937 1.931,2.057 2.708,3.36c0.778,1.303 1.372,2.709 1.783,4.217Z" style="fill:#fff;fill-rule:nonzero;"/><rect x="2077.55" y="954.962" width="4.32" height="51.429" style="fill:#fff;"/><path d="M2088.59,993.499c0,-1.827 0.353,-3.565 1.062,-5.211c0.71,-1.646 1.68,-3.075 2.915,-4.286c1.234,-1.21 2.674,-2.17 4.32,-2.88c1.645,-0.709 3.405,-1.063 5.28,-1.063c1.92,0 3.713,0.354 5.383,1.063c1.669,0.71 3.12,1.67 4.354,2.88c1.234,1.211 2.205,2.64 2.914,4.286c0.709,1.646 1.063,3.384 1.063,5.211c0,1.875 -0.354,3.624 -1.063,5.246c-0.709,1.622 -1.68,3.041 -2.914,4.252c-1.234,1.21 -2.685,2.17 -4.354,2.88c-1.67,0.709 -3.463,1.062 -5.383,1.062c-1.875,0 -3.635,-0.353 -5.28,-1.062c-1.646,-0.71 -3.086,-1.67 -4.32,-2.88c-1.235,-1.211 -2.205,-2.63 -2.915,-4.252c-0.709,-1.622 -1.062,-3.371 -1.062,-5.246ZM2092.84,993.568c0,1.279 0.24,2.479 0.72,3.6c0.48,1.121 1.142,2.091 1.989,2.914c0.846,0.823 1.827,1.475 2.948,1.955c1.121,0.48 2.321,0.72 3.6,0.72c1.279,0 2.479,-0.24 3.6,-0.72c1.121,-0.48 2.102,-1.132 2.949,-1.955c0.846,-0.823 1.508,-1.793 1.988,-2.914c0.48,-1.121 0.72,-2.321 0.72,-3.6c0,-1.279 -0.24,-2.492 -0.72,-3.634c-0.48,-1.142 -1.142,-2.137 -1.988,-2.983c-0.847,-0.847 -1.828,-1.509 -2.949,-1.989c-1.121,-0.48 -2.321,-0.72 -3.6,-0.72c-1.279,0 -2.479,0.24 -3.6,0.72c-1.121,0.48 -2.102,1.142 -2.948,1.989c-0.847,0.846 -1.509,1.841 -1.989,2.983c-0.48,1.142 -0.72,2.355 -0.72,3.634Z" style="fill:#fff;fill-rule:nonzero;"/><path d="M2143.17,985.202c-0.366,-0.778 -0.73,-1.532 -1.097,-2.263c-0.366,-0.73 -0.73,-1.485 -1.097,-2.262l4.252,0c1.6,3.291 3.246,6.582 4.937,9.874c1.69,3.291 3.199,6.606 4.525,9.943c1.327,-3.337 2.835,-6.652 4.526,-9.943c1.691,-3.292 3.315,-6.583 4.869,-9.874l4.32,0c-2.332,4.57 -4.618,9.12 -6.857,13.645c-2.24,4.526 -4.526,9.075 -6.858,13.646c-1.553,-3.109 -3.109,-6.195 -4.662,-9.257c-1.554,-3.062 -3.11,-6.148 -4.663,-9.257c-1.554,3.109 -3.11,6.195 -4.663,9.257c-1.554,3.062 -3.109,6.148 -4.663,9.257c-2.331,-4.571 -4.618,-9.12 -6.857,-13.646c-2.239,-4.525 -4.526,-9.075 -6.857,-13.645l4.251,0c1.601,3.291 3.247,6.582 4.937,9.874c1.691,3.291 3.2,6.606 4.526,9.943c1.052,-2.606 2.205,-5.177 3.463,-7.715c1.258,-2.537 2.479,-5.063 3.668,-7.577Z" style="fill:#fff;fill-rule:nonzero;"/><path d="M2173.07,1003.51c0,-0.868 0.297,-1.577 0.891,-2.126c0.594,-0.548 1.258,-0.823 1.989,-0.823c0.73,0 1.395,0.275 1.988,0.823c0.594,0.549 0.892,1.258 0.892,2.126c0,0.868 -0.298,1.566 -0.892,2.091c-0.593,0.525 -1.258,0.789 -1.988,0.789c-0.731,0 -1.395,-0.264 -1.989,-0.789c-0.594,-0.525 -0.891,-1.223 -0.891,-2.091Z" style="fill:#fff;fill-rule:nonzero;"/><path d="M1374.15,1398.53l315,0l0,-233.572l-315,0l0,233.572ZM1367.72,1404.96l0,-246.428l327.857,0l0,246.428l-327.857,0Z" style="fill:#fff;"/></g></g></svg>