<svg xmlns="http://www.w3.org/2000/svg" fill-rule="evenodd" stroke-linejoin="round" stroke-miterlimit="1.41" clip-rule="evenodd" viewBox="0 0 3062 1767" width="3062" height="1767"><path fill="#ccc" d="M2781.62 91.767c0-50.65-41.121-91.771-91.77-91.771H372.15c-50.649 0-91.77 41.121-91.77 91.771v1579.43c0 50.65 41.121 91.771 91.77 91.771h2317.7c50.649 0 91.77-41.121 91.77-91.771V91.767z"/><path fill="#111" d="M2773.55 91.433c0-46.012-37.357-83.368-83.369-83.368H371.821c-46.012 0-83.369 37.356-83.369 83.368v1580.1c0 46.012 37.357 83.368 83.369 83.368h2318.36c46.012 0 83.369-37.356 83.369-83.368V91.433z"/><path fill="#222" d="M2769.11 1698.42H292.89a83.175 83.175 0 0 1-4.439-26.889v-37.659h2485.1v37.659a83.175 83.175 0 0 1-4.439 26.889z"/><path fill="#1b1b1b" d="M379 1573.83c-1.267-.252-1.283-.258-2.357-.976l-.723-1.081-.253-1.276v-1440c.252-1.267.258-1.283.976-2.357l1.081-.723 1.276-.253h2304l1.276.253 1.081.723.723 1.081.253 1.276v1440l-.253 1.276c-.241.36-.416.774-.723 1.081-.845.845-1.253.757-2.357.976H379zm0-3.33h2304H379z"/><path fill="#2099d4" d="M379 130.5h2304v1440H379z"/><path fill="#a9a9a9" d="M350.98 1767c-139.762 0-310.496-24.123-350.98-48.411V1710h3062v8.589c-40.484 24.288-211.218 48.411-350.98 48.411H350.98z"/><path fill="#ccc" d="M0 1698.42h3062v20.17H0z"/><path fill="#949494" d="M1825.5 1698.42v11.078c0 9.471-7.69 17.161-17.162 17.161H1253.66c-9.472 0-17.162-7.69-17.162-17.161v-11.078H1825.5z"/><circle cx="1531" cy="66.5" r="12" fill="#1b1b1b"/><path fill="#fff" fill-rule="nonzero" d="M1177.27 385.376v-2.696h24.647c3.979 0 6.836.514 8.567 1.541 1.734 1.026 2.599 3.403 2.599 7.125v41.012c-5.134 2.953-10.622 5.295-16.461 7.029-5.842 1.733-12.034 2.599-18.581 2.599-9.499 0-18.422-1.798-26.764-5.392-8.344-3.593-15.63-8.505-21.855-14.73s-11.137-13.51-14.73-21.855c-3.594-8.342-5.392-17.265-5.392-26.764 0-9.499 1.798-18.452 5.392-26.861 3.593-8.406 8.505-15.724 14.73-21.949 6.225-6.227 13.511-11.168 21.855-14.826 8.342-3.658 17.265-5.488 26.764-5.488 6.547 0 12.739.833 18.581 2.503a71.975 71.975 0 0 1 16.654 7.125l-1.541 2.31c-4.877-2.953-10.172-5.231-15.885-6.836-5.71-1.605-11.648-2.406-17.809-2.406-9.116 0-17.683 1.765-25.706 5.295-8.022 3.529-15.019 8.312-20.989 14.344-5.968 6.034-10.686 13.093-14.151 21.18s-5.199 16.688-5.199 25.802 1.734 17.651 5.199 25.609c3.465 7.959 8.151 14.923 14.057 20.891 5.903 5.97 12.836 10.686 20.794 14.154 7.959 3.465 16.432 5.198 25.417 5.198 6.032 0 11.809-.737 17.329-2.213a63.965 63.965 0 0 0 15.596-6.453v-40.819c0-1.155-.416-2.181-1.252-3.081-.833-.898-2.342-1.348-4.523-1.348h-27.343zm60.26-41.205c0-1.027.385-1.927 1.155-2.696.771-.769 1.669-1.155 2.695-1.155 1.027 0 1.927.386 2.696 1.155.771.769 1.155 1.669 1.155 2.696 0 1.026-.384 1.926-1.155 2.696-.769.769-1.669 1.155-2.696 1.155-1.026 0-1.924-.386-2.695-1.155-.77-.77-1.155-1.67-1.155-2.696zm5.2 96.274h-2.696v-72.206h2.696v72.206zm33.89-72.206h2.696v10.205l-.578 8.665c2.567-6.034 6.675-10.911 12.323-14.633 5.649-3.722 12.131-5.584 19.449-5.584 6.289 0 11.391 1.765 15.306 5.295 3.915 3.529 6.193 8.183 6.836 13.96 2.696-5.777 6.836-10.431 12.42-13.96 5.584-3.53 11.906-5.295 18.966-5.295 6.802 0 12.161 1.99 16.078 5.97 3.915 3.979 6 9.177 6.257 15.595v51.988h-2.695v-53.336c-.258-4.622-1.959-8.633-5.103-12.034-3.145-3.403-7.542-5.231-13.189-5.488-4.236 0-8.28.675-12.131 2.023-3.852 1.348-7.253 3.24-10.206 5.679a30.212 30.212 0 0 0-7.219 8.665c-1.862 3.337-2.857 6.997-2.985 10.976v43.515h-2.696v-53.336c-.257-4.622-1.959-8.633-5.102-12.034-3.146-3.403-7.543-5.231-13.189-5.488-4.365 0-8.505.707-12.42 2.117-3.915 1.413-7.383 3.371-10.398 5.874a27.224 27.224 0 0 0-7.125 9.049c-1.733 3.532-2.599 7.35-2.599 11.458v42.36h-2.696v-72.206zm137.87 0h2.696v10.205l-.578 8.665c2.567-6.034 6.675-10.911 12.323-14.633 5.649-3.722 12.131-5.584 19.449-5.584 6.289 0 11.391 1.765 15.306 5.295 3.915 3.529 6.193 8.183 6.836 13.96 2.696-5.777 6.836-10.431 12.42-13.96 5.584-3.53 11.906-5.295 18.966-5.295 6.802 0 12.161 1.99 16.078 5.97 3.915 3.979 6 9.177 6.257 15.595v51.988h-2.695v-53.336c-.258-4.622-1.959-8.633-5.103-12.034-3.145-3.403-7.542-5.231-13.189-5.488-4.236 0-8.28.675-12.131 2.023-3.852 1.348-7.253 3.24-10.206 5.679a30.212 30.212 0 0 0-7.219 8.665c-1.862 3.337-2.857 6.997-2.985 10.976v43.515h-2.696v-53.336c-.257-4.622-1.959-8.633-5.102-12.034-3.146-3.403-7.543-5.231-13.189-5.488-4.365 0-8.505.707-12.42 2.117-3.915 1.413-7.383 3.371-10.398 5.874a27.224 27.224 0 0 0-7.125 9.049c-1.733 3.532-2.599 7.35-2.599 11.458v42.36h-2.696v-72.206zm171.17 1.155c-4.877 0-9.403.9-13.575 2.696-4.172 1.798-7.83 4.301-10.976 7.511-3.143 3.208-5.616 6.93-7.412 11.166-1.798 4.237-2.695 8.73-2.695 13.479 0 3.722.45 7.125 1.347 10.206a6420.18 6420.18 0 0 1 31.194-12.613 6359.249 6359.249 0 0 0 31.191-12.612c-2.567-5.904-6.45-10.687-11.648-14.345-5.199-3.658-11.008-5.488-17.426-5.488zm32.54 21.18a3867.839 3867.839 0 0 1-32.445 13.192 3773.85 3773.85 0 0 0-32.445 13.189c2.567 6.547 6.739 11.842 12.516 15.885 5.775 4.044 12.388 6.064 19.832 6.064 4.622 0 8.985-.833 13.093-2.502 4.108-1.67 7.701-3.98 10.783-6.933.257.386.546.74.866 1.061.321.319.61.673.867 1.059-3.338 3.079-7.189 5.52-11.554 7.315-4.363 1.798-9.049 2.696-14.055 2.696-5.263 0-10.14-.962-14.633-2.888-4.494-1.925-8.441-4.588-11.842-7.991-3.403-3.401-6.066-7.348-7.991-11.842-1.926-4.491-2.888-9.37-2.888-14.633 0-5.134.962-10.012 2.888-14.634 1.925-4.62 4.588-8.599 7.991-11.938 3.401-3.338 7.348-6.002 11.842-7.99 4.493-1.991 9.37-2.985 14.633-2.985 7.444 0 14.087 2.215 19.929 6.643 5.841 4.429 10.045 10.174 12.613 17.232zm72.21 40.822l1.925 1.924a41.696 41.696 0 0 1-10.976 6.067c-3.979 1.476-8.214 2.213-12.707 2.213-5.263 0-10.14-.962-14.634-2.888-4.493-1.925-8.441-4.588-11.841-7.991-3.403-3.401-6.067-7.348-7.991-11.842-1.926-4.491-2.889-9.37-2.889-14.633 0-5.134.963-10.012 2.889-14.634 1.924-4.62 4.588-8.599 7.991-11.938 3.4-3.338 7.348-6.002 11.841-7.99 4.494-1.991 9.371-2.985 14.634-2.985 4.493 0 8.76.739 12.803 2.215 4.044 1.475 7.672 3.498 10.88 6.065a4.977 4.977 0 0 1-.963 1.058 4.97 4.97 0 0 0-.962 1.059c-2.953-2.439-6.291-4.331-10.013-5.679-3.722-1.348-7.637-2.023-11.745-2.023-4.877 0-9.403.9-13.575 2.696-4.172 1.798-7.83 4.301-10.976 7.511-3.144 3.208-5.616 6.93-7.412 11.166-1.798 4.237-2.696 8.73-2.696 13.479 0 4.877.898 9.403 2.696 13.575 1.796 4.172 4.268 7.83 7.412 10.976 3.146 3.143 6.804 5.616 10.976 7.412 4.172 1.798 8.698 2.695 13.575 2.695 4.108 0 8.023-.672 11.745-2.02 3.722-1.348 7.06-3.178 10.013-5.488zm10.78-27.15c0-5.134.964-10.012 2.889-14.634 1.926-4.62 4.585-8.631 7.982-12.034 3.411-3.401 7.354-6.096 11.848-8.087 4.493-1.989 9.373-2.985 14.629-2.985 5.134 0 10.014.996 14.64 2.985 4.614 1.991 8.625 4.686 12.034 8.087 3.397 3.403 6.099 7.414 8.092 12.034 1.978 4.622 2.98 9.5 2.98 14.634 0 5.263-1.002 10.142-2.98 14.633-1.993 4.494-4.695 8.441-8.092 11.842-3.409 3.403-7.42 6.066-12.034 7.991-4.626 1.926-9.506 2.888-14.64 2.888-5.256 0-10.136-.962-14.629-2.888-4.494-1.925-8.437-4.588-11.848-7.991-3.397-3.401-6.056-7.348-7.982-11.842-1.925-4.491-2.889-9.37-2.889-14.633zm2.69 0c0 4.877.911 9.403 2.702 13.575 1.792 4.172 4.267 7.83 7.408 10.976a35.038 35.038 0 0 0 10.978 7.412c4.172 1.798 8.704 2.695 13.573 2.695 4.759 0 9.253-.897 13.479-2.695 4.238-1.796 7.969-4.269 11.177-7.412 3.21-3.146 5.71-6.804 7.502-10.976 1.804-4.172 2.7-8.698 2.7-13.575 0-4.749-.896-9.242-2.7-13.479-1.792-4.236-4.292-7.958-7.502-11.166-3.208-3.21-6.939-5.713-11.177-7.511-4.226-1.796-8.72-2.696-13.479-2.696-4.869 0-9.401.9-13.573 2.696a34.25 34.25 0 0 0-10.978 7.511c-3.141 3.208-5.616 6.93-7.408 11.166-1.791 4.237-2.702 8.73-2.702 13.479zm89.92 0c0 4.877.896 9.403 2.7 13.575 1.792 4.172 4.267 7.83 7.408 10.976 3.142 3.143 6.806 5.616 10.978 7.412 4.172 1.798 8.691 2.695 13.573 2.695 4.746 0 9.238-.897 13.478-2.695 4.239-1.796 7.955-4.269 11.165-7.412a34.039 34.039 0 0 0 7.515-10.976c1.791-4.172 2.7-8.698 2.7-13.575 0-4.749-.909-9.242-2.7-13.479a34.826 34.826 0 0 0-7.515-11.166c-3.21-3.21-6.926-5.713-11.165-7.511-4.24-1.796-8.732-2.696-13.478-2.696-4.882 0-9.401.9-13.573 2.696-4.172 1.798-7.836 4.301-10.978 7.511-3.141 3.208-5.616 6.93-7.408 11.166-1.804 4.237-2.7 8.73-2.7 13.479zm-2.68 0c0-5.134.964-10.012 2.889-14.634 1.926-4.62 4.585-8.599 7.982-11.938 3.411-3.338 7.354-6.002 11.848-7.99 4.493-1.991 9.372-2.985 14.629-2.985 3.983 0 7.796.578 11.458 1.733 3.664 1.155 6.994 2.792 10.015 4.91a36.744 36.744 0 0 1 7.89 7.51 40.25 40.25 0 0 1 5.495 9.53v-94.348h2.689v144.411h-2.689v-10.397c0-2.055.028-4.076.094-6.066.066-1.989.094-4.012.094-6.065a38.443 38.443 0 0 1-5.59 9.532 38.419 38.419 0 0 1-7.983 7.508c-3.021 2.12-6.351 3.755-10.015 4.912-3.662 1.155-7.475 1.731-11.458 1.731-5.257 0-10.136-.962-14.629-2.888-4.494-1.925-8.437-4.588-11.848-7.991-3.397-3.401-6.056-7.348-7.982-11.842-1.925-4.491-2.889-9.37-2.889-14.633zm130.34-34.852c-4.867 0-9.401.9-13.573 2.696a34.24 34.24 0 0 0-10.978 7.511c-3.141 3.208-5.616 6.93-7.408 11.166-1.791 4.237-2.7 8.73-2.7 13.479 0 3.722.454 7.125 1.35 10.206a6462.04 6462.04 0 0 1 31.196-12.613 6401.294 6401.294 0 0 0 31.196-12.612c-2.568-5.904-6.459-10.687-11.647-14.345-5.201-3.658-11.018-5.488-17.436-5.488zm32.55 21.18a3966.044 3966.044 0 0 1-32.438 13.192 3710.352 3710.352 0 0 0-32.454 13.189c2.567 6.547 6.74 11.842 12.517 15.885 5.777 4.044 12.394 6.064 19.83 6.064 4.626 0 8.985-.833 13.103-2.502 4.106-1.67 7.702-3.98 10.779-6.933.253.386.546.74.868 1.061.321.319.602.673.87 1.059-3.343 3.079-7.194 5.52-11.555 7.315-4.371 1.798-9.051 2.696-14.065 2.696-5.255 0-10.136-.962-14.63-2.888-4.491-1.925-8.436-4.588-11.845-7.991-3.397-3.401-6.058-7.348-7.985-11.842-1.924-4.491-2.886-9.37-2.886-14.633 0-5.134.962-10.012 2.886-14.634 1.927-4.62 4.588-8.599 7.985-11.938 3.409-3.338 7.354-6.002 11.845-7.99 4.494-1.991 9.375-2.985 14.63-2.985 7.448 0 14.093 2.215 19.937 6.643 5.843 4.429 10.041 10.174 12.608 17.232zm-675.78 147.83v-5.072h8.857c1.241 0 2.066.31 2.471.932.407.619.61 1.594.61 2.92v12.708a25.593 25.593 0 0 1-5.488 2.342c-1.947.578-4.011.868-6.195.868-3.165 0-6.139-.6-8.92-1.798-2.782-1.198-5.21-2.835-7.284-4.91-2.076-2.076-3.713-4.504-4.911-7.285-1.198-2.782-1.796-5.756-1.796-8.921 0-3.167.598-6.152 1.796-8.953 1.198-2.803 2.835-5.243 4.911-7.318 2.074-2.074 4.502-3.722 7.284-4.941 2.781-1.219 5.755-1.83 8.92-1.83 2.184 0 4.248.278 6.195.833a24.029 24.029 0 0 1 5.553 2.377 50.534 50.534 0 0 1-1.477 2.149 49.045 49.045 0 0 0-1.476 2.149 18.872 18.872 0 0 0-4.172-1.795 16.267 16.267 0 0 0-4.623-.643c-2.438 0-4.716.471-6.833 1.412a17.874 17.874 0 0 0-5.584 3.883 18.372 18.372 0 0 0-3.787 5.745c-.921 2.181-1.38 4.493-1.38 6.932s.459 4.749 1.38 6.932c.919 2.182 2.182 4.076 3.787 5.679a18.376 18.376 0 0 0 5.584 3.82c2.117.941 4.395 1.413 6.833 1.413 2.227 0 4.344-.386 6.356-1.158v-6.546c0-.726-.075-1.23-.225-1.509-.15-.276-.568-.415-1.251-.415h-5.135z"/><path fill="#fff" d="M1301.08 507.66h5.33v44.93h-5.33z"/><path fill="#fff" fill-rule="nonzero" d="M1349.21 507.66h5.327c-3.339 7.873-6.654 15.703-9.949 23.49-3.294 7.787-6.611 15.617-9.947 23.492a30489.53 30489.53 0 0 1-9.95-23.492c-3.295-7.787-6.61-15.617-9.949-23.49h5.327l6.997 16.526c2.31 5.456 4.643 10.965 6.996 16.528l.579 2.117.576-2.117c2.353-5.563 4.686-11.072 6.996-16.528l6.997-16.526zm11.56 44.927V507.66h27.662v5.07h-22.335v14.698h19.832v5.07h-19.832v15.019h23.235v5.07h-28.562zm57.25-46.982a6220.85 6220.85 0 0 1 11.745 15.244c3.895 5.07 7.81 10.151 11.747 15.243a6220.765 6220.765 0 0 0 11.745-15.243c3.893-5.07 7.808-10.152 11.745-15.244v46.982h-5.327v-30.165c.043-.343.075-.685.096-1.028.022-.341.054-.684.097-1.027a185.304 185.304 0 0 1-8.985 12.227 703.312 703.312 0 0 0-9.371 11.97 2593.703 2593.703 0 0 0-8.602-11.232 2459.103 2459.103 0 0 1-8.599-11.231l-1.157-1.734c.043.343.075.686.096 1.027.022.343.054.685.097 1.028v30.165h-5.327v-46.982zm56.86 46.982V507.66h27.662v5.07h-22.335v14.698h19.832v5.07h-19.832v15.019h23.233v5.07h-28.56zm71.89.515c-2.31 0-4.451-.322-6.418-.965-1.969-.64-3.679-1.592-5.134-2.854-1.455-1.262-2.589-2.835-3.403-4.719-.812-1.881-1.219-4.043-1.219-6.482V507.66h5.327v30.229c0 1.627.268 3.071.804 4.333.533 1.262 1.283 2.321 2.245 3.176.962.857 2.107 1.509 3.433 1.959 1.327.45 2.782.675 4.365.675 1.584 0 3.039-.225 4.365-.675 1.327-.45 2.471-1.102 3.433-1.959.962-.855 1.723-1.914 2.278-3.176.557-1.262.836-2.706.836-4.333V507.66h5.327v30.422c0 2.439-.418 4.601-1.252 6.482-.835 1.884-1.98 3.457-3.435 4.719-1.455 1.262-3.165 2.214-5.134 2.854-1.967.643-4.108.965-6.418.965zm65.14-45.442v46.982c-5.52-5.863-10.995-11.683-16.429-17.458a33417.006 33417.006 0 0 0-16.432-17.457c-.214-.3-.417-.579-.61-.836a42.279 42.279 0 0 1-.609-.834c.043.343.075.684.097 1.027.021.343.053.685.096 1.026v32.477h-5.327v-46.982c5.52 5.992 10.995 11.927 16.429 17.812 5.434 5.884 10.912 11.82 16.432 17.811.214.298.417.576.61.834.191.257.395.535.609.833a16.787 16.787 0 0 1-.097-1.026 16.195 16.195 0 0 0-.096-1.027V507.66h5.327z"/><path fill="#fff" d="M1623.53 507.66h5.33v44.93h-5.33z"/><path fill="#fff" fill-rule="nonzero" d="M1669.42 545.655l2.889 4.237a25.572 25.572 0 0 1-5.488 2.342c-1.946.578-4.012.868-6.193.868-3.167 0-6.139-.6-8.921-1.798-2.781-1.198-5.211-2.835-7.286-4.91-2.074-2.076-3.711-4.504-4.909-7.285-1.198-2.782-1.798-5.756-1.798-8.921 0-3.167.6-6.152 1.798-8.953 1.198-2.803 2.835-5.243 4.909-7.318 2.075-2.074 4.505-3.722 7.286-4.941 2.782-1.219 5.754-1.83 8.921-1.83 2.181 0 4.247.278 6.193.833a23.985 23.985 0 0 1 5.552 2.377 45.519 45.519 0 0 1-1.477 2.149 50.86 50.86 0 0 0-1.476 2.149 18.852 18.852 0 0 0-4.172-1.795 16.24 16.24 0 0 0-4.62-.643c-2.439 0-4.719.471-6.836 1.412a17.897 17.897 0 0 0-5.584 3.883 18.39 18.39 0 0 0-3.787 5.745c-.919 2.181-1.38 4.493-1.38 6.932s.461 4.749 1.38 6.932c.92 2.182 2.182 4.076 3.787 5.679a18.4 18.4 0 0 0 5.584 3.82c2.117.941 4.397 1.413 6.836 1.413 3.167 0 6.096-.793 8.792-2.377zm10.01-15.467c0-3.124.597-6.088 1.797-8.891 1.198-2.8 2.833-5.252 4.91-7.348 2.074-2.095 4.504-3.754 7.283-4.973 2.782-1.219 5.756-1.83 8.919-1.83 3.128 0 6.083.611 8.891 1.83 2.809 1.219 5.256 2.878 7.356 4.973 2.085 2.096 3.744 4.548 4.974 7.348 1.217 2.803 1.817 5.767 1.817 8.891 0 3.165-.6 6.139-1.817 8.921-1.23 2.781-2.889 5.209-4.974 7.285-2.1 2.075-4.547 3.712-7.356 4.91-2.808 1.198-5.763 1.798-8.891 1.798-3.163 0-6.137-.6-8.919-1.798-2.779-1.198-5.209-2.835-7.283-4.91-2.077-2.076-3.712-4.504-4.91-7.285-1.2-2.782-1.797-5.756-1.797-8.921zm5.33 0c0 2.481.46 4.802 1.38 6.964.919 2.16 2.181 4.044 3.786 5.647a18.26 18.26 0 0 0 5.617 3.82c2.138.941 4.429 1.413 6.865 1.413 2.435 0 4.734-.472 6.872-1.413a18.26 18.26 0 0 0 5.617-3.82c1.605-1.603 2.863-3.487 3.784-5.647.924-2.162 1.378-4.483 1.378-6.964 0-2.481-.454-4.804-1.378-6.964-.921-2.16-2.179-4.055-3.784-5.681a18.006 18.006 0 0 0-5.617-3.851c-2.138-.94-4.437-1.412-6.872-1.412-2.436 0-4.727.472-6.865 1.412a18.006 18.006 0 0 0-5.617 3.851 18.081 18.081 0 0 0-3.786 5.681c-.92 2.16-1.38 4.483-1.38 6.964zm47.17-22.528h10.457c3.088 0 5.989.523 8.73 1.573 2.743 1.048 5.136 2.556 7.195 4.524 2.045 1.969 3.678 4.332 4.88 7.092 1.191 2.76 1.791 5.872 1.791 9.339 0 2.524-.441 5.113-1.309 7.766-.883 2.653-2.299 5.059-4.279 7.221-1.965 2.16-4.52 3.937-7.663 5.327-3.142 1.391-6.992 2.085-11.525 2.085h-8.277V507.66zm5.33 5.07v34.723h4.492c2.528 0 4.881-.407 7.061-1.219 2.192-.815 4.077-1.98 5.682-3.5a16.24 16.24 0 0 0 3.785-5.453c.921-2.119 1.39-4.504 1.39-7.157 0-2.653-.469-5.049-1.39-7.19-.909-2.138-2.18-3.968-3.785-5.487-1.605-1.518-3.49-2.685-5.682-3.498-2.18-.812-4.533-1.219-7.061-1.219h-4.492zm35.82 39.857V507.66h27.664v5.07H1778.4v14.698h19.83v5.07h-19.83v15.019h23.24v5.07h-28.56z"/><path fill="none" stroke="#fff" stroke-width="2.01" d="M1278.23 538.404v-5.072h8.857c1.241 0 2.066.31 2.471.932.407.619.61 1.594.61 2.92v12.708a25.593 25.593 0 0 1-5.488 2.342c-1.947.578-4.011.868-6.195.868-3.165 0-6.139-.6-8.92-1.798-2.782-1.198-5.21-2.835-7.284-4.91-2.076-2.076-3.713-4.504-4.911-7.285-1.198-2.782-1.796-5.756-1.796-8.921 0-3.167.598-6.152 1.796-8.953 1.198-2.803 2.835-5.243 4.911-7.318 2.074-2.074 4.502-3.722 7.284-4.941 2.781-1.219 5.755-1.83 8.92-1.83 2.184 0 4.248.278 6.195.833a24.029 24.029 0 0 1 5.553 2.377 50.534 50.534 0 0 1-1.477 2.149 49.045 49.045 0 0 0-1.476 2.149 18.872 18.872 0 0 0-4.172-1.795 16.267 16.267 0 0 0-4.623-.643c-2.438 0-4.716.471-6.833 1.412a17.874 17.874 0 0 0-5.584 3.883 18.372 18.372 0 0 0-3.787 5.745c-.921 2.181-1.38 4.493-1.38 6.932s.459 4.749 1.38 6.932c.919 2.182 2.182 4.076 3.787 5.679a18.376 18.376 0 0 0 5.584 3.82c2.117.941 4.395 1.413 6.833 1.413 2.227 0 4.344-.386 6.356-1.158v-6.546c0-.726-.075-1.23-.225-1.509-.15-.276-.568-.415-1.251-.415h-5.135zm22.85-30.744h5.33v44.93h-5.33zm48.13 0h5.327c-3.339 7.873-6.654 15.703-9.949 23.49-3.294 7.787-6.611 15.617-9.947 23.492a30489.53 30489.53 0 0 1-9.95-23.492c-3.295-7.787-6.61-15.617-9.949-23.49h5.327l6.997 16.526c2.31 5.456 4.643 10.965 6.996 16.528l.579 2.117.576-2.117c2.353-5.563 4.686-11.072 6.996-16.528l6.997-16.526zm11.56 44.927V507.66h27.662v5.07h-22.335v14.698h19.832v5.07h-19.832v15.019h23.235v5.07h-28.562zm57.25-46.982a6220.85 6220.85 0 0 1 11.745 15.244c3.895 5.07 7.81 10.151 11.747 15.243a6220.765 6220.765 0 0 0 11.745-15.243c3.893-5.07 7.808-10.152 11.745-15.244v46.982h-5.327v-30.165c.043-.343.075-.685.096-1.028.022-.341.054-.684.097-1.027a185.304 185.304 0 0 1-8.985 12.227 703.312 703.312 0 0 0-9.371 11.97 2593.703 2593.703 0 0 0-8.602-11.232 2459.103 2459.103 0 0 1-8.599-11.231l-1.157-1.734c.043.343.075.686.096 1.027.022.343.054.685.097 1.028v30.165h-5.327v-46.982zm56.86 46.982V507.66h27.662v5.07h-22.335v14.698h19.832v5.07h-19.832v15.019h23.233v5.07h-28.56zm71.89.515c-2.31 0-4.451-.322-6.418-.965-1.969-.64-3.679-1.592-5.134-2.854-1.455-1.262-2.589-2.835-3.403-4.719-.812-1.881-1.219-4.043-1.219-6.482V507.66h5.327v30.229c0 1.627.268 3.071.804 4.333.533 1.262 1.283 2.321 2.245 3.176.962.857 2.107 1.509 3.433 1.959 1.327.45 2.782.675 4.365.675 1.584 0 3.039-.225 4.365-.675 1.327-.45 2.471-1.102 3.433-1.959.962-.855 1.723-1.914 2.278-3.176.557-1.262.836-2.706.836-4.333V507.66h5.327v30.422c0 2.439-.418 4.601-1.252 6.482-.835 1.884-1.98 3.457-3.435 4.719-1.455 1.262-3.165 2.214-5.134 2.854-1.967.643-4.108.965-6.418.965zm65.14-45.442v46.982c-5.52-5.863-10.995-11.683-16.429-17.458a33417.006 33417.006 0 0 0-16.432-17.457c-.214-.3-.417-.579-.61-.836a42.279 42.279 0 0 1-.609-.834c.043.343.075.684.097 1.027.021.343.053.685.096 1.026v32.477h-5.327v-46.982c5.52 5.992 10.995 11.927 16.429 17.812 5.434 5.884 10.912 11.82 16.432 17.811.214.298.417.576.61.834.191.257.395.535.609.833a16.787 16.787 0 0 1-.097-1.026 16.195 16.195 0 0 0-.096-1.027V507.66h5.327zm11.62 0h5.33v44.93h-5.33zm45.89 37.995l2.889 4.237a25.572 25.572 0 0 1-5.488 2.342c-1.946.578-4.012.868-6.193.868-3.167 0-6.139-.6-8.921-1.798-2.781-1.198-5.211-2.835-7.286-4.91-2.074-2.076-3.711-4.504-4.909-7.285-1.198-2.782-1.798-5.756-1.798-8.921 0-3.167.6-6.152 1.798-8.953 1.198-2.803 2.835-5.243 4.909-7.318 2.075-2.074 4.505-3.722 7.286-4.941 2.782-1.219 5.754-1.83 8.921-1.83 2.181 0 4.247.278 6.193.833a23.985 23.985 0 0 1 5.552 2.377 45.519 45.519 0 0 1-1.477 2.149 50.86 50.86 0 0 0-1.476 2.149 18.852 18.852 0 0 0-4.172-1.795 16.24 16.24 0 0 0-4.62-.643c-2.439 0-4.719.471-6.836 1.412a17.897 17.897 0 0 0-5.584 3.883 18.39 18.39 0 0 0-3.787 5.745c-.919 2.181-1.38 4.493-1.38 6.932s.461 4.749 1.38 6.932c.92 2.182 2.182 4.076 3.787 5.679a18.4 18.4 0 0 0 5.584 3.82c2.117.941 4.397 1.413 6.836 1.413 3.167 0 6.096-.793 8.792-2.377zm10.01-15.467c0-3.124.597-6.088 1.797-8.891 1.198-2.8 2.833-5.252 4.91-7.348 2.074-2.095 4.504-3.754 7.283-4.973 2.782-1.219 5.756-1.83 8.919-1.83 3.128 0 6.083.611 8.891 1.83 2.809 1.219 5.256 2.878 7.356 4.973 2.085 2.096 3.744 4.548 4.974 7.348 1.217 2.803 1.817 5.767 1.817 8.891 0 3.165-.6 6.139-1.817 8.921-1.23 2.781-2.889 5.209-4.974 7.285-2.1 2.075-4.547 3.712-7.356 4.91-2.808 1.198-5.763 1.798-8.891 1.798-3.163 0-6.137-.6-8.919-1.798-2.779-1.198-5.209-2.835-7.283-4.91-2.077-2.076-3.712-4.504-4.91-7.285-1.2-2.782-1.797-5.756-1.797-8.921zm5.33 0c0 2.481.46 4.802 1.38 6.964.919 2.16 2.181 4.044 3.786 5.647a18.26 18.26 0 0 0 5.617 3.82c2.138.941 4.429 1.413 6.865 1.413 2.435 0 4.734-.472 6.872-1.413a18.26 18.26 0 0 0 5.617-3.82c1.605-1.603 2.863-3.487 3.784-5.647.924-2.162 1.378-4.483 1.378-6.964 0-2.481-.454-4.804-1.378-6.964-.921-2.16-2.179-4.055-3.784-5.681a18.006 18.006 0 0 0-5.617-3.851c-2.138-.94-4.437-1.412-6.872-1.412-2.436 0-4.727.472-6.865 1.412a18.006 18.006 0 0 0-5.617 3.851 18.081 18.081 0 0 0-3.786 5.681c-.92 2.16-1.38 4.483-1.38 6.964zm47.17-22.528h10.457c3.088 0 5.989.523 8.73 1.573 2.743 1.048 5.136 2.556 7.195 4.524 2.045 1.969 3.678 4.332 4.88 7.092 1.191 2.76 1.791 5.872 1.791 9.339 0 2.524-.441 5.113-1.309 7.766-.883 2.653-2.299 5.059-4.279 7.221-1.965 2.16-4.52 3.937-7.663 5.327-3.142 1.391-6.992 2.085-11.525 2.085h-8.277V507.66zm5.33 5.07v34.723h4.492c2.528 0 4.881-.407 7.061-1.219 2.192-.815 4.077-1.98 5.682-3.5a16.24 16.24 0 0 0 3.785-5.453c.921-2.119 1.39-4.504 1.39-7.157 0-2.653-.469-5.049-1.39-7.19-.909-2.138-2.18-3.968-3.785-5.487-1.605-1.518-3.49-2.685-5.682-3.498-2.18-.812-4.533-1.219-7.061-1.219h-4.492zm35.82 39.857V507.66h27.664v5.07H1778.4v14.698h19.83v5.07h-19.83v15.019h23.24v5.07h-28.56z"/><path fill="#fff" fill-rule="nonzero" d="M883.171 1016.2v-4.046c1.601-.092 3.086-.422 4.458-.994a10.342 10.342 0 0 0 3.531-2.4c.984-1.029 1.749-2.274 2.297-3.738.549-1.463.823-3.13.823-5.005v-41.623h4.251v41.828c0 2.561-.4 4.824-1.2 6.789-.799 1.965-1.885 3.611-3.257 4.937-1.371 1.327-2.993 2.355-4.868 3.086-1.875.731-3.885 1.121-6.035 1.166zm51.429-9.4h-4.251v-3.977l.205-3.086c-.915 2.195-2.389 3.943-4.423 5.246-2.033 1.303-4.285 1.954-6.754 1.954-2.606 0-4.673-.709-6.206-2.125-1.532-1.417-2.342-3.268-2.434-5.555v-18.582h4.32v16.937c.092 1.371.583 2.548 1.474 3.531.892.984 2.253 1.519 4.08 1.612 1.28 0 2.514-.217 3.703-.652a9.507 9.507 0 0 0 3.12-1.851 9.13 9.13 0 0 0 2.126-2.812c.525-1.073.789-2.252.789-3.531v-13.234h4.251v26.125zm25.851-23.723c-.366.503-.754 1.028-1.165 1.577a49.294 49.294 0 0 1-1.235 1.577c-.366-.412-.97-.834-1.817-1.269-.846-.435-1.793-.651-2.845-.651-1.053 0-1.944.274-2.675.823-.73.548-1.052 1.395-.96 2.537.045.778.377 1.395.995 1.851.617.457 1.36.868 2.228 1.235.868.366 1.794.73 2.777 1.097.984.366 1.91.846 2.777 1.44a7.168 7.168 0 0 1 2.126 2.263c.549.915.823 2.08.823 3.497 0 .685-.137 1.485-.411 2.4a7.935 7.935 0 0 1-1.372 2.605c-.641.823-1.508 1.509-2.606 2.058-1.097.548-2.492.822-4.182.822-1.509 0-3.041-.274-4.595-.822-1.553-.549-2.788-1.348-3.703-2.4.457-.504.892-1.018 1.303-1.543.412-.525.847-1.04 1.303-1.543.915.686 1.841 1.211 2.777 1.577.937.366 1.955.549 3.052.549.229 0 .572-.045 1.028-.138a3.968 3.968 0 0 0 1.337-.548 4.9 4.9 0 0 0 1.2-1.097c.367-.457.549-1.074.549-1.852.045-1.005-.206-1.772-.754-2.297-.549-.525-1.258-.96-2.126-1.303a31.937 31.937 0 0 0-2.846-.96 13.427 13.427 0 0 1-2.88-1.2 6.483 6.483 0 0 1-2.228-2.091c-.594-.892-.892-2.115-.892-3.669 0-1.326.251-2.458.755-3.394.503-.936 1.142-1.704 1.92-2.297a7.945 7.945 0 0 1 2.502-1.303 8.748 8.748 0 0 1 2.572-.411c.456 0 1.005.045 1.646.137.64.092 1.302.25 1.988.48.686.229 1.337.525 1.954.891a7.378 7.378 0 0 1 1.68 1.372zm12.412-19.132h4.251v16.457h7.337v4.183h-7.337v21.806h-4.251v-21.806h-5.829v-4.183h5.829v-16.457zm60.207 29.554c0-1.279-.23-2.479-.686-3.6a8.742 8.742 0 0 0-1.92-2.914c-.823-.823-1.807-1.474-2.949-1.954s-2.4-.72-3.771-.72c-1.327 0-2.561.24-3.703.72s-2.126 1.131-2.949 1.954a9.212 9.212 0 0 0-1.954 2.914 9.048 9.048 0 0 0-.72 3.6c0 1.327.24 2.548.72 3.669a9.64 9.64 0 0 0 1.954 2.949 8.84 8.84 0 0 0 2.949 1.988c1.142.48 2.376.72 3.703.72 1.371 0 2.629-.24 3.771-.72a8.84 8.84 0 0 0 2.949-1.988 9.133 9.133 0 0 0 1.92-2.949c.456-1.121.686-2.342.686-3.669zm4.32 0c0 1.875-.354 3.624-1.063 5.246a14.194 14.194 0 0 1-2.88 4.286c-1.211 1.234-2.651 2.205-4.32 2.914-1.67.709-3.463 1.063-5.383 1.063-1.372 0-2.629-.182-3.772-.549-1.142-.366-2.136-.799-2.982-1.302-.847-.504-1.533-1.029-2.058-1.578-.525-.548-.857-1.052-.994-1.508.092.366.182.72.274 1.063.093.343.183.696.275 1.063v19.337h-4.32v-42.857h3.565c0 .777.024 1.553.069 2.331l.137 2.331c.137-.456.491-.983 1.063-1.577.572-.593 1.292-1.165 2.16-1.714.868-.549 1.862-1.005 2.983-1.371 1.121-.367 2.321-.549 3.6-.549 1.92 0 3.713.354 5.383 1.063 1.669.709 3.109 1.669 4.32 2.88a13.757 13.757 0 0 1 2.88 4.251 12.792 12.792 0 0 1 1.063 5.177zm11.86 0c0 1.327.24 2.548.72 3.669a9.187 9.187 0 0 0 1.955 2.914 9.11 9.11 0 0 0 2.948 1.955c1.142.48 2.377.72 3.703.72 1.327 0 2.561-.24 3.703-.72a9.114 9.114 0 0 0 2.949-1.955 9.2 9.2 0 0 0 1.954-2.914c.48-1.121.72-2.342.72-3.669 0-1.279-.24-2.492-.72-3.634a9.112 9.112 0 0 0-1.954-2.948 9.114 9.114 0 0 0-2.949-1.955c-1.142-.48-2.376-.72-3.703-.72-1.326 0-2.561.24-3.703.72a9.11 9.11 0 0 0-2.948 1.955 9.098 9.098 0 0 0-1.955 2.948 9.289 9.289 0 0 0-.72 3.634zm-4.32.069c0-1.828.354-3.555 1.063-5.177a14.194 14.194 0 0 1 2.88-4.286c1.211-1.234 2.651-2.218 4.32-2.948 1.67-.731 3.463-1.098 5.383-1.098 1.279 0 2.479.183 3.6.549 1.121.366 2.115.823 2.983 1.371.868.549 1.588 1.121 2.16 1.715.572.593.926 1.12 1.063 1.577 0-.731.034-1.485.103-2.263.068-.778.126-1.554.171-2.331h3.497v25.714h-3.771v-4.389c-.137.457-.469.971-.994 1.543s-1.211 1.108-2.058 1.612c-.846.503-1.84.925-2.982 1.268-1.143.343-2.4.514-3.772.514-1.92 0-3.713-.353-5.383-1.062-1.669-.71-3.109-1.67-4.32-2.88a13.761 13.761 0 0 1-2.88-4.252 12.788 12.788 0 0 1-1.063-5.177zm48-10.491c-.366.503-.754 1.028-1.165 1.577a49.294 49.294 0 0 1-1.235 1.577c-.366-.412-.97-.834-1.817-1.269-.846-.435-1.793-.651-2.845-.651-1.053 0-1.944.274-2.675.823-.73.548-1.052 1.395-.96 2.537.045.778.377 1.395.995 1.851.617.457 1.36.868 2.228 1.235.868.366 1.794.73 2.777 1.097.984.366 1.91.846 2.777 1.44a7.168 7.168 0 0 1 2.126 2.263c.549.915.823 2.08.823 3.497 0 .685-.137 1.485-.411 2.4a7.935 7.935 0 0 1-1.372 2.605c-.641.823-1.508 1.509-2.606 2.058-1.097.548-2.492.822-4.182.822-1.509 0-3.041-.274-4.595-.822-1.553-.549-2.788-1.348-3.703-2.4.457-.504.892-1.018 1.303-1.543.412-.525.847-1.04 1.303-1.543.915.686 1.841 1.211 2.777 1.577.937.366 1.955.549 3.052.549.229 0 .572-.045 1.028-.138a3.968 3.968 0 0 0 1.337-.548 4.9 4.9 0 0 0 1.2-1.097c.367-.457.549-1.074.549-1.852.045-1.005-.206-1.772-.754-2.297-.549-.525-1.258-.96-2.126-1.303a31.937 31.937 0 0 0-2.846-.96 13.427 13.427 0 0 1-2.88-1.2 6.483 6.483 0 0 1-2.228-2.091c-.594-.892-.892-2.115-.892-3.669 0-1.326.251-2.458.755-3.394.503-.936 1.142-1.704 1.92-2.297a7.945 7.945 0 0 1 2.502-1.303 8.748 8.748 0 0 1 2.572-.411c.456 0 1.005.045 1.646.137.64.092 1.302.25 1.988.48.686.229 1.337.525 1.954.891a7.378 7.378 0 0 1 1.68 1.372zm12.41-19.132h4.251v16.457h7.337v4.183h-7.337v21.806h-4.251v-21.806h-5.829v-4.183h5.829v-16.457zm28.19 20.297c-2.287 0-4.262.686-5.932 2.057-1.669 1.372-2.685 3.086-3.051 5.143a9.458 9.458 0 0 0-.172 1.372 27.27 27.27 0 0 0-.034 1.371c2.606-1.005 5.212-1.999 7.817-2.983 2.606-.983 5.212-1.978 7.817-2.983a8.369 8.369 0 0 0-2.708-2.88 6.703 6.703 0 0 0-3.737-1.097zm11.93 6.377l-19.954 7.612c.778 1.371 1.862 2.468 3.257 3.291s2.983 1.235 4.766 1.235c1.234 0 2.389-.23 3.463-.686a8.701 8.701 0 0 0 2.777-1.852c.411.504.833 1.018 1.268 1.543.435.525.881 1.04 1.337 1.543a13.421 13.421 0 0 1-4.011 2.674c-1.485.641-3.096.96-4.834.96-1.875 0-3.635-.353-5.28-1.062a14.06 14.06 0 0 1-4.32-2.88 13.438 13.438 0 0 1-2.915-4.252c-.709-1.622-1.062-3.371-1.062-5.246 0-1.827.353-3.565 1.062-5.211a13.32 13.32 0 0 1 2.915-4.286 14.06 14.06 0 0 1 4.32-2.88c1.645-.709 3.405-1.063 5.28-1.063 1.416 0 2.753.264 4.011.789a11.85 11.85 0 0 1 3.429 2.194c1.028.937 1.93 2.057 2.708 3.36a16.8 16.8 0 0 1 1.783 4.217zm25.99 2.88c0-1.827.353-3.565 1.063-5.211a13.318 13.318 0 0 1 2.914-4.286 14.06 14.06 0 0 1 4.32-2.88c1.646-.709 3.405-1.063 5.28-1.063 1.92 0 3.713.354 5.383 1.063 1.669.71 3.12 1.67 4.354 2.88a13.318 13.318 0 0 1 2.914 4.286 13.02 13.02 0 0 1 1.063 5.211c0 1.875-.353 3.624-1.063 5.246a13.435 13.435 0 0 1-2.914 4.252c-1.234 1.21-2.685 2.17-4.354 2.88-1.67.709-3.463 1.062-5.383 1.062-1.875 0-3.634-.353-5.28-1.062a14.06 14.06 0 0 1-4.32-2.88 13.435 13.435 0 0 1-2.914-4.252c-.71-1.622-1.063-3.371-1.063-5.246zm4.25.069c0 1.279.24 2.479.72 3.6a8.895 8.895 0 0 0 1.989 2.914 9.62 9.62 0 0 0 2.948 1.955c1.121.48 2.321.72 3.6.72 1.28 0 2.48-.24 3.6-.72a9.624 9.624 0 0 0 2.949-1.955 8.907 8.907 0 0 0 1.988-2.914c.48-1.121.72-2.321.72-3.6s-.24-2.492-.72-3.634a9.226 9.226 0 0 0-4.937-4.972 9.041 9.041 0 0 0-3.6-.72c-1.279 0-2.479.24-3.6.72a9.3 9.3 0 0 0-2.948 1.989 9.213 9.213 0 0 0-1.989 2.983 9.289 9.289 0 0 0-.72 3.634zm46.15-9.257c-1.417 0-2.732.229-3.943.686-1.211.456-2.252 1.073-3.12 1.851a8.166 8.166 0 0 0-2.023 2.777c-.48 1.074-.72 2.252-.72 3.532v13.234h-4.32v-25.714h3.84v1.508c.045.915.092 1.772.137 2.572.045.799.092 1.656.137 2.571a12.376 12.376 0 0 1 2.057-3.051 14.322 14.322 0 0 1 2.64-2.263 11.938 11.938 0 0 1 2.88-1.406c.984-.319 1.886-.48 2.709-.48l-.274 4.183zm30.78-20.366h4.252v16.457h7.337v4.183h-7.337v21.806h-4.252v-21.806h-5.828v-4.183h5.828v-16.457zm23.11 59.585h-4.389a990.532 990.532 0 0 0 4.286-8.537 976.316 976.316 0 0 1 4.286-8.538 1109.48 1109.48 0 0 1-6.48-12.891 1142.11 1142.11 0 0 0-6.48-12.891h4.32a639.676 639.676 0 0 0 5.691 10.834 104.579 104.579 0 0 1 5.143 11.04 104.579 104.579 0 0 1 5.143-11.04 418.394 418.394 0 0 0 5.623-10.834h4.32a3687.989 3687.989 0 0 1-10.732 21.428 3720.318 3720.318 0 0 0-10.731 21.429zm50.54-30.031a9.444 9.444 0 0 0-.686-3.6 8.726 8.726 0 0 0-1.92-2.914 9.107 9.107 0 0 0-2.948-1.954c-1.142-.48-2.4-.72-3.772-.72-1.326 0-2.56.24-3.703.72a9.107 9.107 0 0 0-2.948 1.954 9.195 9.195 0 0 0-1.954 2.914 9.048 9.048 0 0 0-.72 3.6c0 1.327.24 2.548.72 3.669a9.621 9.621 0 0 0 1.954 2.949 8.836 8.836 0 0 0 2.948 1.988c1.143.48 2.377.72 3.703.72 1.372 0 2.63-.24 3.772-.72a8.836 8.836 0 0 0 2.948-1.988 9.116 9.116 0 0 0 1.92-2.949c.457-1.121.686-2.342.686-3.669zm4.32 0c0 1.875-.354 3.624-1.063 5.246a14.158 14.158 0 0 1-2.88 4.286c-1.211 1.234-2.651 2.205-4.32 2.914-1.669.709-3.463 1.063-5.383 1.063-1.371 0-2.629-.182-3.771-.549-1.142-.366-2.137-.799-2.983-1.302-.846-.504-1.532-1.029-2.057-1.578-.525-.548-.857-1.052-.994-1.508.092.366.182.72.274 1.063.092.343.182.696.274 1.063v19.337h-4.32v-42.857h3.566c0 .777.023 1.553.068 2.331.045.778.093 1.554.138 2.331.137-.456.49-.983 1.062-1.577.573-.593 1.293-1.165 2.16-1.714.868-.549 1.863-1.005 2.983-1.371 1.121-.367 2.321-.549 3.6-.549 1.92 0 3.714.354 5.383 1.063s3.109 1.669 4.32 2.88a13.722 13.722 0 0 1 2.88 4.251 12.792 12.792 0 0 1 1.063 5.177zm20.23-9.257c-2.287 0-4.263.686-5.932 2.057-1.669 1.372-2.685 3.086-3.051 5.143a9.458 9.458 0 0 0-.172 1.372 27.27 27.27 0 0 0-.034 1.371 1189.33 1189.33 0 0 1 7.817-2.983c2.606-.983 5.212-1.978 7.817-2.983a8.378 8.378 0 0 0-2.708-2.88 6.703 6.703 0 0 0-3.737-1.097zm11.93 6.377l-19.954 7.612c.778 1.371 1.862 2.468 3.257 3.291s2.983 1.235 4.766 1.235c1.234 0 2.389-.23 3.462-.686a8.694 8.694 0 0 0 2.778-1.852c.411.504.833 1.018 1.268 1.543.435.525.881 1.04 1.337 1.543a13.421 13.421 0 0 1-4.011 2.674c-1.485.641-3.097.96-4.834.96-1.875 0-3.635-.353-5.28-1.062a14.06 14.06 0 0 1-4.32-2.88 13.438 13.438 0 0 1-2.915-4.252c-.709-1.622-1.063-3.371-1.063-5.246 0-1.827.354-3.565 1.063-5.211a13.32 13.32 0 0 1 2.915-4.286 14.06 14.06 0 0 1 4.32-2.88c1.645-.709 3.405-1.063 5.28-1.063 1.416 0 2.753.264 4.011.789a11.85 11.85 0 0 1 3.429 2.194c1.028.937 1.93 2.057 2.708 3.36a16.8 16.8 0 0 1 1.783 4.217zm31.2 2.88c0 1.327.24 2.548.72 3.669a9.184 9.184 0 0 0 1.954 2.914 9.114 9.114 0 0 0 2.949 1.955c1.142.48 2.376.72 3.703.72 1.326 0 2.56-.24 3.703-.72a9.11 9.11 0 0 0 2.948-1.955 9.184 9.184 0 0 0 1.954-2.914c.48-1.121.72-2.342.72-3.669 0-1.279-.24-2.492-.72-3.634s-1.131-2.126-1.954-2.948a9.11 9.11 0 0 0-2.948-1.955c-1.143-.48-2.377-.72-3.703-.72-1.327 0-2.561.24-3.703.72a9.114 9.114 0 0 0-2.949 1.955c-.823.822-1.474 1.806-1.954 2.948a9.289 9.289 0 0 0-.72 3.634zm-4.32.069c0-1.828.354-3.555 1.063-5.177a14.158 14.158 0 0 1 2.88-4.286c1.211-1.234 2.651-2.218 4.32-2.948 1.669-.731 3.463-1.098 5.383-1.098 1.279 0 2.479.183 3.6.549 1.12.366 2.115.823 2.983 1.371.867.549 1.587 1.121 2.16 1.715.572.593.925 1.12 1.062 1.577 0-.731.035-1.485.103-2.263.069-.778.127-1.554.172-2.331h3.497v25.714h-3.772v-4.389c-.137.457-.469.971-.994 1.543s-1.211 1.108-2.057 1.612c-.846.503-1.841.925-2.983 1.268-1.142.343-2.4.514-3.771.514-1.92 0-3.714-.353-5.383-1.062-1.669-.71-3.109-1.67-4.32-2.88a13.726 13.726 0 0 1-2.88-4.252 12.788 12.788 0 0 1-1.063-5.177zm73.92 7.202a132.382 132.382 0 0 0 2.606 3.223 14.665 14.665 0 0 1-3.943 2.16c-1.44.525-2.983.788-4.629.788-1.875 0-3.634-.353-5.28-1.062a14.084 14.084 0 0 1-4.32-2.88 13.435 13.435 0 0 1-2.914-4.252c-.709-1.622-1.063-3.371-1.063-5.246 0-1.827.354-3.565 1.063-5.211a13.318 13.318 0 0 1 2.914-4.286 14.084 14.084 0 0 1 4.32-2.88c1.646-.709 3.405-1.063 5.28-1.063 1.691 0 3.257.264 4.697.789a14.65 14.65 0 0 1 3.943 2.16 95.898 95.898 0 0 1-1.371 1.611 28.166 28.166 0 0 0-1.303 1.612 9.313 9.313 0 0 0-2.743-1.474 9.92 9.92 0 0 0-3.223-.515c-1.326 0-2.56.24-3.703.72a9.11 9.11 0 0 0-2.948 1.955c-.823.822-1.474 1.806-1.954 2.948a9.289 9.289 0 0 0-.72 3.634c0 1.327.24 2.548.72 3.669a9.184 9.184 0 0 0 1.954 2.914 9.11 9.11 0 0 0 2.948 1.955c1.143.48 2.377.72 3.703.72 1.19 0 2.274-.172 3.257-.515a9.424 9.424 0 0 0 2.709-1.474zm11.11-45.808h4.32v29.28l-.206 3.086c.96-2.194 2.411-3.919 4.354-5.177 1.944-1.258 4.217-1.931 6.823-2.023 2.606 0 4.663.709 6.171 2.126 1.509 1.416 2.308 3.268 2.4 5.554v18.583h-4.251v-16.937a5.735 5.735 0 0 0-1.474-3.497c-.892-1.005-2.252-1.554-4.08-1.646-1.28 0-2.514.229-3.703.686-1.189.456-2.229 1.073-3.12 1.851a8.75 8.75 0 0 0-2.126 2.777c-.525 1.074-.788 2.252-.788 3.532v13.234h-4.32v-51.429zm34.08 38.537c0 1.327.24 2.548.72 3.669a9.184 9.184 0 0 0 1.954 2.914 9.11 9.11 0 0 0 2.948 1.955c1.143.48 2.377.72 3.703.72 1.327 0 2.561-.24 3.703-.72a9.114 9.114 0 0 0 2.949-1.955 9.184 9.184 0 0 0 1.954-2.914c.48-1.121.72-2.342.72-3.669 0-1.279-.24-2.492-.72-3.634s-1.131-2.126-1.954-2.948a9.114 9.114 0 0 0-2.949-1.955c-1.142-.48-2.376-.72-3.703-.72-1.326 0-2.56.24-3.703.72a9.11 9.11 0 0 0-2.948 1.955c-.823.822-1.474 1.806-1.954 2.948a9.289 9.289 0 0 0-.72 3.634zm-4.32.069c0-1.828.353-3.555 1.062-5.177a14.194 14.194 0 0 1 2.88-4.286c1.211-1.234 2.651-2.218 4.32-2.948 1.67-.731 3.463-1.098 5.383-1.098 1.28 0 2.48.183 3.6.549 1.121.366 2.115.823 2.983 1.371.868.549 1.588 1.121 2.16 1.715.572.593.926 1.12 1.063 1.577 0-.731.034-1.485.103-2.263.068-.778.126-1.554.171-2.331h3.497v25.714h-3.771v-4.389c-.137.457-.469.971-.994 1.543s-1.211 1.108-2.057 1.612c-.847.503-1.841.925-2.983 1.268-1.142.343-2.4.514-3.772.514-1.92 0-3.713-.353-5.383-1.062-1.669-.71-3.109-1.67-4.32-2.88a13.761 13.761 0 0 1-2.88-4.252 12.787 12.787 0 0 1-1.062-5.177zm51.77-9.257c-1.416 0-2.732.229-3.943.686-1.211.456-2.252 1.073-3.12 1.851a8.166 8.166 0 0 0-2.023 2.777c-.48 1.074-.72 2.252-.72 3.532v13.234h-4.32v-25.714h3.84v1.508c.045.915.092 1.772.137 2.572a355 355 0 0 1 .138 2.571 12.32 12.32 0 0 1 2.057-3.051 14.29 14.29 0 0 1 2.64-2.263 11.902 11.902 0 0 1 2.88-1.406c.983-.319 1.885-.48 2.708-.48l-.274 4.183zm6.72 9.188c0 1.327.24 2.548.72 3.669a9.184 9.184 0 0 0 1.954 2.914 9.114 9.114 0 0 0 2.949 1.955c1.142.48 2.376.72 3.703.72 1.326 0 2.56-.24 3.703-.72a9.11 9.11 0 0 0 2.948-1.955 9.184 9.184 0 0 0 1.954-2.914c.48-1.121.72-2.342.72-3.669 0-1.279-.24-2.492-.72-3.634s-1.131-2.126-1.954-2.948a9.11 9.11 0 0 0-2.948-1.955c-1.143-.48-2.377-.72-3.703-.72-1.327 0-2.561.24-3.703.72a9.114 9.114 0 0 0-2.949 1.955c-.823.822-1.474 1.806-1.954 2.948a9.289 9.289 0 0 0-.72 3.634zm-4.32.069c0-1.828.354-3.555 1.063-5.177a14.158 14.158 0 0 1 2.88-4.286c1.211-1.234 2.651-2.218 4.32-2.948 1.669-.731 3.463-1.098 5.383-1.098 1.279 0 2.479.183 3.6.549 1.12.366 2.115.823 2.983 1.371.867.549 1.587 1.121 2.16 1.715.572.593.925 1.12 1.062 1.577 0-.731.035-1.485.103-2.263.069-.778.127-1.554.172-2.331h3.497v25.714h-3.772v-4.389c-.137.457-.469.971-.994 1.543s-1.211 1.108-2.057 1.612c-.846.503-1.841.925-2.983 1.268-1.142.343-2.4.514-3.771.514-1.92 0-3.714-.353-5.383-1.062-1.669-.71-3.109-1.67-4.32-2.88a13.726 13.726 0 0 1-2.88-4.252 12.788 12.788 0 0 1-1.063-5.177zm53.35 7.202c.822 1.052 1.69 2.126 2.605 3.223a14.65 14.65 0 0 1-3.943 2.16c-1.44.525-2.982.788-4.628.788-1.875 0-3.634-.353-5.28-1.062a14.06 14.06 0 0 1-4.32-2.88 13.435 13.435 0 0 1-2.914-4.252c-.71-1.622-1.063-3.371-1.063-5.246 0-1.827.353-3.565 1.063-5.211a13.318 13.318 0 0 1 2.914-4.286 14.06 14.06 0 0 1 4.32-2.88c1.646-.709 3.405-1.063 5.28-1.063 1.691 0 3.257.264 4.697.789a14.65 14.65 0 0 1 3.943 2.16 95.916 95.916 0 0 1-1.372 1.611 28.584 28.584 0 0 0-1.302 1.612 9.313 9.313 0 0 0-2.743-1.474 9.92 9.92 0 0 0-3.223-.515c-1.327 0-2.561.24-3.703.72a9.114 9.114 0 0 0-2.949 1.955 9.112 9.112 0 0 0-1.954 2.948 9.289 9.289 0 0 0-.72 3.634c0 1.327.24 2.548.72 3.669a9.2 9.2 0 0 0 1.954 2.914 9.114 9.114 0 0 0 2.949 1.955c1.142.48 2.376.72 3.703.72 1.189 0 2.273-.172 3.257-.515a9.424 9.424 0 0 0 2.709-1.474zm12.75-36.825h4.251v16.457h7.337v4.183h-7.337v21.806h-4.251v-21.806h-5.829v-4.183h5.829v-16.457zm28.19 20.297c-2.287 0-4.262.686-5.932 2.057-1.669 1.372-2.685 3.086-3.051 5.143a9.458 9.458 0 0 0-.172 1.372 27.27 27.27 0 0 0-.034 1.371c2.606-1.005 5.212-1.999 7.817-2.983 2.606-.983 5.212-1.978 7.817-2.983a8.369 8.369 0 0 0-2.708-2.88 6.703 6.703 0 0 0-3.737-1.097zm11.93 6.377l-19.954 7.612c.778 1.371 1.862 2.468 3.257 3.291s2.983 1.235 4.766 1.235c1.234 0 2.389-.23 3.463-.686a8.701 8.701 0 0 0 2.777-1.852c.411.504.833 1.018 1.268 1.543.435.525.881 1.04 1.337 1.543a13.421 13.421 0 0 1-4.011 2.674c-1.485.641-3.096.96-4.834.96-1.875 0-3.635-.353-5.28-1.062a14.06 14.06 0 0 1-4.32-2.88 13.438 13.438 0 0 1-2.915-4.252c-.709-1.622-1.062-3.371-1.062-5.246 0-1.827.353-3.565 1.062-5.211a13.32 13.32 0 0 1 2.915-4.286 14.06 14.06 0 0 1 4.32-2.88c1.645-.709 3.405-1.063 5.28-1.063 1.416 0 2.753.264 4.011.789a11.85 11.85 0 0 1 3.429 2.194c1.028.937 1.93 2.057 2.708 3.36a16.8 16.8 0 0 1 1.783 4.217zm23.38-6.308c-1.416 0-2.732.229-3.943.686-1.211.456-2.252 1.073-3.12 1.851a8.166 8.166 0 0 0-2.023 2.777c-.48 1.074-.72 2.252-.72 3.532v13.234h-4.32v-25.714h3.84v1.508c.045.915.092 1.772.137 2.572a355 355 0 0 1 .138 2.571 12.32 12.32 0 0 1 2.057-3.051 14.29 14.29 0 0 1 2.64-2.263 11.902 11.902 0 0 1 2.88-1.406c.983-.319 1.885-.48 2.708-.48l-.274 4.183zm26.67-13.166c0-.823.298-1.519.892-2.091.593-.572 1.279-.857 2.057-.857.686 0 1.326.285 1.92.857.593.572.891 1.268.891 2.091 0 .868-.298 1.567-.891 2.092-.594.525-1.234.788-1.92.788a3.011 3.011 0 0 1-2.057-.788c-.594-.525-.892-1.224-.892-2.092zm5.01 35.245h-4.32v-25.714h4.32v25.714zm10.77-25.713h3.84v1.508c.045.915.092 1.772.137 2.572.045.799.092 1.656.137 2.571.915-2.194 2.376-3.943 4.389-5.246 2.012-1.303 4.275-1.954 6.788-1.954 2.606 0 4.663.709 6.172 2.126 1.508 1.416 2.307 3.268 2.4 5.554v18.583h-4.252v-16.937a5.735 5.735 0 0 0-1.474-3.497c-.892-1.005-2.252-1.554-4.08-1.646-1.279 0-2.514.229-3.703.686-1.189.456-2.229 1.073-3.12 1.851a8.764 8.764 0 0 0-2.126 2.777c-.525 1.074-.788 2.252-.788 3.532v13.234h-4.32v-25.714zm56.16-16.732h4.251v16.457h7.337v4.183h-7.337v21.806h-4.251v-21.806h-5.829v-4.183h5.829v-16.457zm18.44-8.983h4.32v29.28l-.205 3.086c.96-2.194 2.41-3.919 4.354-5.177 1.944-1.258 4.217-1.931 6.823-2.023 2.606 0 4.663.709 6.171 2.126 1.509 1.416 2.308 3.268 2.4 5.554v18.583h-4.251v-16.937a5.735 5.735 0 0 0-1.474-3.497c-.892-1.005-2.253-1.554-4.08-1.646-1.28 0-2.514.229-3.703.686a10.29 10.29 0 0 0-3.12 1.851 8.75 8.75 0 0 0-2.126 2.777c-.525 1.074-.789 2.252-.789 3.532v13.234h-4.32v-51.429zm44.85 29.28c-2.286 0-4.262.686-5.931 2.057-1.67 1.372-2.685 3.086-3.052 5.143a9.319 9.319 0 0 0-.171 1.372c-.024.456-.034.915-.034 1.371 2.605-1.005 5.211-1.999 7.817-2.983a1155.31 1155.31 0 0 0 7.817-2.983 8.38 8.38 0 0 0-2.709-2.88 6.699 6.699 0 0 0-3.737-1.097zm11.93 6.377l-19.955 7.612c.778 1.371 1.862 2.468 3.257 3.291s2.983 1.235 4.766 1.235c1.234 0 2.389-.23 3.463-.686a8.69 8.69 0 0 0 2.777-1.852c.412.504.834 1.018 1.269 1.543.435.525.88 1.04 1.337 1.543a13.426 13.426 0 0 1-4.012 2.674c-1.485.641-3.096.96-4.834.96-1.875 0-3.634-.353-5.28-1.062a14.06 14.06 0 0 1-4.32-2.88 13.435 13.435 0 0 1-2.914-4.252c-.709-1.622-1.063-3.371-1.063-5.246 0-1.827.354-3.565 1.063-5.211a13.318 13.318 0 0 1 2.914-4.286 14.06 14.06 0 0 1 4.32-2.88c1.646-.709 3.405-1.063 5.28-1.063 1.417 0 2.754.264 4.012.789 1.257.525 2.4 1.258 3.428 2.194 1.029.937 1.931 2.057 2.709 3.36a16.836 16.836 0 0 1 1.783 4.217zm52.04 2.88a9.715 9.715 0 0 0-.685-3.634 8.675 8.675 0 0 0-1.92-2.948 9.114 9.114 0 0 0-2.949-1.955c-1.142-.48-2.4-.72-3.771-.72-1.327 0-2.561.24-3.703.72a9.114 9.114 0 0 0-2.949 1.955c-.823.822-1.474 1.806-1.954 2.948a9.289 9.289 0 0 0-.72 3.634c0 1.327.24 2.548.72 3.669a9.184 9.184 0 0 0 1.954 2.914 9.114 9.114 0 0 0 2.949 1.955c1.142.48 2.376.72 3.703.72 1.371 0 2.629-.24 3.771-.72a9.114 9.114 0 0 0 2.949-1.955 8.747 8.747 0 0 0 1.92-2.914c.456-1.121.685-2.342.685-3.669zm4.32 0a12.78 12.78 0 0 1-1.063 5.178 14.153 14.153 0 0 1-2.88 4.285c-1.21 1.235-2.65 2.205-4.32 2.915-1.669.709-3.462 1.062-5.382 1.062-1.372 0-2.63-.171-3.772-.514-1.142-.343-2.136-.765-2.983-1.268-.846-.504-1.532-1.04-2.057-1.612-.525-.572-.857-1.086-.994-1.543v4.389h-3.772v-51.429h4.252v27.566c-.092.504-.172.96-.24 1.371-.069.412-.148.847-.24 1.303.137-.456.491-.983 1.063-1.577.572-.593 1.292-1.155 2.16-1.68.868-.525 1.862-.971 2.983-1.337 1.12-.366 2.32-.549 3.6-.549 1.92 0 3.713.354 5.382 1.063 1.67.71 3.11 1.68 4.32 2.915a14.153 14.153 0 0 1 2.88 4.285 12.775 12.775 0 0 1 1.063 5.177zm6.04 0c0-1.827.353-3.565 1.062-5.211a13.32 13.32 0 0 1 2.915-4.286 14.06 14.06 0 0 1 4.32-2.88c1.645-.709 3.405-1.063 5.28-1.063 1.92 0 3.713.354 5.383 1.063 1.669.71 3.12 1.67 4.354 2.88a13.318 13.318 0 0 1 2.914 4.286 13.037 13.037 0 0 1 1.063 5.211c0 1.875-.354 3.624-1.063 5.246a13.435 13.435 0 0 1-2.914 4.252c-1.234 1.21-2.685 2.17-4.354 2.88-1.67.709-3.463 1.062-5.383 1.062-1.875 0-3.635-.353-5.28-1.062a14.06 14.06 0 0 1-4.32-2.88 13.438 13.438 0 0 1-2.915-4.252c-.709-1.622-1.062-3.371-1.062-5.246zm4.25.069c0 1.279.24 2.479.72 3.6a8.895 8.895 0 0 0 1.989 2.914 9.608 9.608 0 0 0 2.948 1.955c1.121.48 2.321.72 3.6.72s2.479-.24 3.6-.72a9.624 9.624 0 0 0 2.949-1.955 8.907 8.907 0 0 0 1.988-2.914c.48-1.121.72-2.321.72-3.6s-.24-2.492-.72-3.634a9.226 9.226 0 0 0-4.937-4.972 9.048 9.048 0 0 0-3.6-.72c-1.279 0-2.479.24-3.6.72a9.29 9.29 0 0 0-2.948 1.989 9.213 9.213 0 0 0-1.989 2.983 9.289 9.289 0 0 0-.72 3.634zm37.51-.686a305.673 305.673 0 0 0-4.458-6.103 306.633 306.633 0 0 1-4.457-6.102h5.28a932.146 932.146 0 0 0 7.406 10.011 2901.48 2901.48 0 0 1 3.6-4.971c1.211-1.67 2.411-3.35 3.6-5.04h5.28a849.465 849.465 0 0 1-4.937 6.788 360.488 360.488 0 0 0-4.869 6.789 247.627 247.627 0 0 0 4.457 6.068 460.893 460.893 0 0 1 4.526 6.069h-5.417a388.547 388.547 0 0 1-3.669-4.972c-1.21-1.669-2.434-3.349-3.668-5.04a260.688 260.688 0 0 1-3.634 5.04 570.53 570.53 0 0 0-3.635 4.972h-5.28c1.646-2.239 3.292-4.492 4.937-6.754 1.646-2.263 3.292-4.515 4.938-6.755zm68.02.617a9.715 9.715 0 0 0-.685-3.634 8.66 8.66 0 0 0-1.92-2.948 9.114 9.114 0 0 0-2.949-1.955c-1.142-.48-2.4-.72-3.771-.72-1.327 0-2.561.24-3.703.72a9.114 9.114 0 0 0-2.949 1.955c-.823.822-1.474 1.806-1.954 2.948a9.289 9.289 0 0 0-.72 3.634c0 1.327.24 2.548.72 3.669a9.184 9.184 0 0 0 1.954 2.914 9.114 9.114 0 0 0 2.949 1.955c1.142.48 2.376.72 3.703.72 1.371 0 2.629-.24 3.771-.72a9.114 9.114 0 0 0 2.949-1.955 8.732 8.732 0 0 0 1.92-2.914c.456-1.121.685-2.342.685-3.669zm4.32 0c0 1.828-.353 3.555-1.062 5.178a14.19 14.19 0 0 1-2.88 4.285c-1.211 1.235-2.651 2.205-4.32 2.915-1.67.709-3.463 1.062-5.383 1.062-1.372 0-2.63-.171-3.772-.514-1.142-.343-2.136-.765-2.983-1.268-.846-.504-1.532-1.04-2.057-1.612-.525-.572-.857-1.086-.994-1.543v4.389h-3.771v-51.429h4.251v27.566c-.092.504-.171.96-.24 1.371-.069.412-.148.847-.24 1.303.137-.456.491-.983 1.063-1.577.572-.593 1.292-1.155 2.16-1.68.868-.525 1.862-.971 2.983-1.337 1.12-.366 2.32-.549 3.6-.549 1.92 0 3.713.354 5.383 1.063 1.669.71 3.109 1.68 4.32 2.915a14.19 14.19 0 0 1 2.88 4.285 12.79 12.79 0 0 1 1.062 5.177zm19.61-9.257c-2.287 0-4.262.686-5.932 2.057-1.669 1.372-2.685 3.086-3.051 5.143a9.319 9.319 0 0 0-.171 1.372c-.024.456-.035.915-.035 1.371 2.606-1.005 5.212-1.999 7.817-2.983 2.606-.983 5.212-1.978 7.818-2.983a8.38 8.38 0 0 0-2.709-2.88 6.703 6.703 0 0 0-3.737-1.097zm11.93 6.377l-19.954 7.612c.778 1.371 1.862 2.468 3.257 3.291s2.983 1.235 4.766 1.235c1.234 0 2.389-.23 3.463-.686a8.701 8.701 0 0 0 2.777-1.852c.411.504.833 1.018 1.268 1.543.435.525.881 1.04 1.338 1.543a13.438 13.438 0 0 1-4.012 2.674c-1.485.641-3.096.96-4.834.96-1.875 0-3.634-.353-5.28-1.062a14.06 14.06 0 0 1-4.32-2.88 13.435 13.435 0 0 1-2.914-4.252c-.71-1.622-1.063-3.371-1.063-5.246 0-1.827.353-3.565 1.063-5.211a13.318 13.318 0 0 1 2.914-4.286 14.06 14.06 0 0 1 4.32-2.88c1.646-.709 3.405-1.063 5.28-1.063 1.416 0 2.753.264 4.011.789a11.85 11.85 0 0 1 3.429 2.194c1.028.937 1.931 2.057 2.708 3.36a16.8 16.8 0 0 1 1.783 4.217z"/><path fill="#fff" d="M2077.55 954.96h4.32v51.43h-4.32z"/><path fill="#fff" fill-rule="nonzero" d="M2088.59 993.499c0-1.827.353-3.565 1.062-5.211a13.32 13.32 0 0 1 2.915-4.286 14.06 14.06 0 0 1 4.32-2.88c1.645-.709 3.405-1.063 5.28-1.063 1.92 0 3.713.354 5.383 1.063 1.669.71 3.12 1.67 4.354 2.88a13.318 13.318 0 0 1 2.914 4.286 13.037 13.037 0 0 1 1.063 5.211c0 1.875-.354 3.624-1.063 5.246a13.435 13.435 0 0 1-2.914 4.252c-1.234 1.21-2.685 2.17-4.354 2.88-1.67.709-3.463 1.062-5.383 1.062-1.875 0-3.635-.353-5.28-1.062a14.06 14.06 0 0 1-4.32-2.88 13.438 13.438 0 0 1-2.915-4.252c-.709-1.622-1.062-3.371-1.062-5.246zm4.25.069c0 1.279.24 2.479.72 3.6a8.895 8.895 0 0 0 1.989 2.914 9.608 9.608 0 0 0 2.948 1.955c1.121.48 2.321.72 3.6.72s2.479-.24 3.6-.72a9.624 9.624 0 0 0 2.949-1.955 8.907 8.907 0 0 0 1.988-2.914c.48-1.121.72-2.321.72-3.6s-.24-2.492-.72-3.634a9.226 9.226 0 0 0-4.937-4.972 9.048 9.048 0 0 0-3.6-.72c-1.279 0-2.479.24-3.6.72a9.29 9.29 0 0 0-2.948 1.989 9.213 9.213 0 0 0-1.989 2.983 9.289 9.289 0 0 0-.72 3.634zm50.33-8.366a98.495 98.495 0 0 0-1.097-2.263c-.366-.73-.73-1.485-1.097-2.262h4.252a501.87 501.87 0 0 0 4.937 9.874 113.599 113.599 0 0 1 4.525 9.943 113.61 113.61 0 0 1 4.526-9.943 330.008 330.008 0 0 0 4.869-9.874h4.32c-2.332 4.57-4.618 9.12-6.857 13.645-2.24 4.526-4.526 9.075-6.858 13.646a1693.837 1693.837 0 0 0-4.662-9.257c-1.554-3.062-3.11-6.148-4.663-9.257-1.554 3.109-3.11 6.195-4.663 9.257a1693.694 1693.694 0 0 0-4.663 9.257c-2.331-4.571-4.618-9.12-6.857-13.646a1253.818 1253.818 0 0 0-6.857-13.645h4.251a513.211 513.211 0 0 0 4.937 9.874c1.691 3.291 3.2 6.606 4.526 9.943a110.512 110.512 0 0 1 3.463-7.715 453.533 453.533 0 0 0 3.668-7.577zm29.9 18.308c0-.868.297-1.577.891-2.126.594-.548 1.258-.823 1.989-.823.73 0 1.395.275 1.988.823.594.549.892 1.258.892 2.126 0 .868-.298 1.566-.892 2.091-.593.525-1.258.789-1.988.789-.731 0-1.395-.264-1.989-.789-.594-.525-.891-1.223-.891-2.091z"/><path fill="#fff" d="M1374.15 1398.53h315v-233.572h-315v233.572zm-6.43 6.43v-246.428h327.857v246.428H1367.72z"/></svg>