<?xml version="1.0" standalone="no"?>
<!DOCTYPE svg PUBLIC "-//W3C//DTD SVG 1.1//EN" "http://www.w3.org/Graphics/SVG/1.1/DTD/svg11.dtd">
<svg width="100%" height="100%" viewBox="0 0 1384 802" version="1.1" xmlns="http://www.w3.org/2000/svg" xmlns:xlink="http://www.w3.org/1999/xlink" xml:space="preserve" style="fill-rule:evenodd;clip-rule:evenodd;stroke-linejoin:round;stroke-miterlimit:1.41421;">
    <g id="Macbook Pro">
        <rect id="Rectangle" x="167.018" y="42" width="1056" height="665.038" style="fill:rgb(37,37,37);"/>
        <g>
            <rect x="167" y="40" width="1060" height="672" style="fill:rgb(32,153,212);"/>
            <path d="M165.5,713.5L165.5,38.5L1228.5,38.5L1228.5,713.5L165.5,713.5ZM168.5,710.5L1225.5,710.5L1225.5,41.5L168.5,41.5L168.5,710.5Z" style="fill:white;"/>
        </g>
        <path d="M1265.02,44.881C1265.02,20.094 1245,0 1220.32,0L169.73,0C145.043,0 125.024,20.094 125.024,44.881L125.024,748L1265.02,748L1265.02,44.881L1265.03,44.881L1265.02,44.881ZM171.018,44L171.018,704L1219.02,704L1219.02,44L171.018,44L171.018,44Z" style="fill:black;"/>
        <path id="Shape" d="M0.018,788C4.022,796.092 16.454,802 31.2,802L1352.84,802C1367.58,802 1380.02,796.096 1384.02,788L0.022,788L0.018,788Z" style="fill:rgb(169,169,169);"/>
        <path id="Shape1" d="M1384.02,789L0,789L0,748.169C0,747.532 0.519,747 1.155,747L1382.87,747C1383.5,747 1384.02,747.532 1384.02,748.169L1384.02,789L1384.02,789Z" style="fill:rgb(204,204,204);"/>
        <path id="Shape2" d="M603.325,747C603.155,748.047 603.018,749.11 603.018,750.201C603.018,760.578 611.046,769 620.946,769L769.096,769C778.999,769 787.018,760.578 787.018,750.201C787.018,749.11 786.887,748.047 786.711,747L603.325,747Z" style="fill:rgb(170,170,170);"/>
        <g>
            <g>
                <path d="M526.62,156.693L526.62,155.435L538.122,155.435C539.979,155.435 541.312,155.675 542.12,156.154C542.929,156.633 543.333,157.742 543.333,159.479L543.333,178.618C540.937,179.996 538.376,181.089 535.651,181.898C532.925,182.707 530.035,183.111 526.98,183.111C522.547,183.111 518.383,182.272 514.49,180.595C510.596,178.918 507.196,176.626 504.291,173.721C501.386,170.816 499.094,167.416 497.417,163.522C495.74,159.629 494.901,155.465 494.901,151.032C494.901,146.599 495.74,142.421 497.417,138.497C499.094,134.574 501.386,131.159 504.291,128.254C507.196,125.348 510.596,123.042 514.49,121.335C518.383,119.628 522.547,118.774 526.98,118.774C530.035,118.774 532.925,119.163 535.651,119.942C538.376,120.721 540.967,121.829 543.423,123.267L542.704,124.345C540.428,122.967 537.957,121.904 535.291,121.155C532.626,120.406 529.855,120.032 526.98,120.032C522.726,120.032 518.728,120.856 514.984,122.503C511.24,124.15 507.975,126.382 505.189,129.197C502.404,132.013 500.202,135.307 498.585,139.081C496.968,142.855 496.159,146.869 496.159,151.122C496.159,155.375 496.968,159.359 498.585,163.073C500.202,166.787 502.389,170.037 505.145,172.822C507.9,175.608 511.135,177.809 514.849,179.427C518.563,181.044 522.517,181.853 526.71,181.853C529.525,181.853 532.221,181.509 534.797,180.82C537.373,180.131 539.799,179.127 542.075,177.809L542.075,165.14L542.075,158.76C542.075,158.221 541.881,157.742 541.491,157.322C541.102,156.903 540.398,156.693 539.38,156.693L526.62,156.693Z" style="fill:white;fill-rule:nonzero;"/>
                <path d="M554.745,137.464C554.745,136.985 554.925,136.565 555.284,136.206C555.644,135.847 556.063,135.667 556.542,135.667C557.021,135.667 557.441,135.847 557.8,136.206C558.16,136.565 558.339,136.985 558.339,137.464C558.339,137.943 558.16,138.363 557.8,138.722C557.441,139.081 557.021,139.261 556.542,139.261C556.063,139.261 555.644,139.081 555.284,138.722C554.925,138.363 554.745,137.943 554.745,137.464ZM557.171,182.392L555.913,182.392L555.913,148.696L557.171,148.696L557.171,182.392Z" style="fill:white;fill-rule:nonzero;"/>
                <path d="M572.986,148.696L574.244,148.696L574.244,153.458L573.974,157.502C575.172,154.686 577.089,152.41 579.725,150.673C582.361,148.936 585.386,148.067 588.801,148.067C591.736,148.067 594.117,148.891 595.944,150.538C597.771,152.185 598.834,154.357 599.134,157.053C600.392,154.357 602.324,152.185 604.93,150.538C607.536,148.891 610.486,148.067 613.781,148.067C616.955,148.067 619.456,148.996 621.284,150.853C623.111,152.71 624.084,155.136 624.204,158.131L624.204,182.392L622.946,182.392L622.946,157.502C622.826,155.345 622.032,153.473 620.565,151.886C619.097,150.298 617.045,149.445 614.41,149.325C612.433,149.325 610.546,149.64 608.749,150.269C606.951,150.898 605.364,151.781 603.986,152.919C602.608,154.057 601.485,155.405 600.617,156.963C599.748,158.52 599.284,160.228 599.224,162.085L599.224,182.392L597.966,182.392L597.966,157.502C597.846,155.345 597.052,153.473 595.585,151.886C594.117,150.298 592.065,149.445 589.43,149.325C587.393,149.325 585.461,149.655 583.634,150.313C581.807,150.972 580.189,151.886 578.782,153.054C577.374,154.222 576.266,155.63 575.457,157.277C574.648,158.925 574.244,160.707 574.244,162.624L574.244,182.392L572.986,182.392L572.986,148.696Z" style="fill:white;fill-rule:nonzero;"/>
                <path d="M637.323,148.696L638.581,148.696L638.581,153.458L638.311,157.502C639.509,154.686 641.426,152.41 644.062,150.673C646.698,148.936 649.723,148.067 653.138,148.067C656.073,148.067 658.454,148.891 660.281,150.538C662.108,152.185 663.171,154.357 663.471,157.053C664.729,154.357 666.661,152.185 669.267,150.538C671.873,148.891 674.823,148.067 678.118,148.067C681.292,148.067 683.793,148.996 685.621,150.853C687.448,152.71 688.421,155.136 688.541,158.131L688.541,182.392L687.283,182.392L687.283,157.502C687.163,155.345 686.369,153.473 684.902,151.886C683.434,150.298 681.382,149.445 678.747,149.325C676.77,149.325 674.883,149.64 673.086,150.269C671.288,150.898 669.701,151.781 668.323,152.919C666.945,154.057 665.822,155.405 664.954,156.963C664.085,158.52 663.621,160.228 663.561,162.085L663.561,182.392L662.303,182.392L662.303,157.502C662.183,155.345 661.389,153.473 659.922,151.886C658.454,150.298 656.402,149.445 653.767,149.325C651.73,149.325 649.798,149.655 647.971,150.313C646.144,150.972 644.526,151.886 643.119,153.054C641.711,154.222 640.603,155.63 639.794,157.277C638.985,158.925 638.581,160.707 638.581,162.624L638.581,182.392L637.323,182.392L637.323,148.696Z" style="fill:white;fill-rule:nonzero;"/>
                <path d="M717.205,149.235C714.929,149.235 712.817,149.655 710.87,150.493C708.923,151.332 707.216,152.5 705.748,153.998C704.281,155.495 703.127,157.232 702.289,159.209C701.45,161.186 701.031,163.283 701.031,165.499C701.031,167.236 701.241,168.824 701.66,170.262C706.512,168.285 711.364,166.323 716.217,164.376C721.069,162.429 725.921,160.467 730.773,158.49C729.575,155.735 727.763,153.503 725.337,151.796C722.911,150.089 720.2,149.235 717.205,149.235ZM732.391,159.119C727.299,161.216 722.252,163.268 717.25,165.275C712.248,167.281 707.201,169.333 702.109,171.43C703.307,174.485 705.254,176.956 707.95,178.843C710.645,180.73 713.731,181.673 717.205,181.673C719.362,181.673 721.398,181.284 723.315,180.505C725.232,179.726 726.909,178.648 728.347,177.27C728.467,177.45 728.602,177.615 728.751,177.765C728.901,177.914 729.036,178.079 729.156,178.259C727.598,179.696 725.801,180.835 723.764,181.673C721.728,182.512 719.541,182.931 717.205,182.931C714.749,182.931 712.473,182.482 710.376,181.583C708.279,180.685 706.437,179.442 704.85,177.854C703.262,176.267 702.019,174.425 701.121,172.328C700.222,170.232 699.773,167.955 699.773,165.499C699.773,163.103 700.222,160.827 701.121,158.67C702.019,156.514 703.262,154.657 704.85,153.099C706.437,151.541 708.279,150.298 710.376,149.37C712.473,148.441 714.749,147.977 717.205,147.977C720.679,147.977 723.779,149.011 726.505,151.077C729.231,153.144 731.193,155.825 732.391,159.119Z" style="fill:white;fill-rule:nonzero;"/>
                <path d="M766.087,178.169L766.985,179.067C765.428,180.265 763.72,181.209 761.863,181.898C760.006,182.587 758.03,182.931 755.933,182.931C753.477,182.931 751.201,182.482 749.104,181.583C747.007,180.685 745.165,179.442 743.578,177.854C741.99,176.267 740.747,174.425 739.849,172.328C738.95,170.232 738.501,167.955 738.501,165.499C738.501,163.103 738.95,160.827 739.849,158.67C740.747,156.514 741.99,154.657 743.578,153.099C745.165,151.541 747.007,150.298 749.104,149.37C751.201,148.441 753.477,147.977 755.933,147.977C758.03,147.977 760.021,148.322 761.908,149.011C763.795,149.699 765.488,150.643 766.985,151.841C766.865,152.021 766.716,152.185 766.536,152.335C766.356,152.485 766.206,152.65 766.087,152.829C764.709,151.691 763.151,150.808 761.414,150.179C759.677,149.55 757.85,149.235 755.933,149.235C753.657,149.235 751.545,149.655 749.598,150.493C747.651,151.332 745.944,152.5 744.476,153.998C743.009,155.495 741.855,157.232 741.017,159.209C740.178,161.186 739.759,163.283 739.759,165.499C739.759,167.775 740.178,169.887 741.017,171.834C741.855,173.781 743.009,175.488 744.476,176.956C745.944,178.423 747.651,179.577 749.598,180.415C751.545,181.254 753.657,181.673 755.933,181.673C757.85,181.673 759.677,181.359 761.414,180.73C763.151,180.101 764.709,179.247 766.087,178.169Z" style="fill:white;fill-rule:nonzero;"/>
                <path d="M771.119,165.499C771.119,163.103 771.569,160.827 772.467,158.67C773.366,156.514 774.607,154.642 776.192,153.054C777.784,151.467 779.624,150.209 781.721,149.28C783.818,148.352 786.095,147.887 788.548,147.887C790.944,147.887 793.221,148.352 795.38,149.28C797.533,150.209 799.405,151.467 800.996,153.054C802.581,154.642 803.842,156.514 804.772,158.67C805.695,160.827 806.163,163.103 806.163,165.499C806.163,167.955 805.695,170.232 804.772,172.328C803.842,174.425 802.581,176.267 800.996,177.854C799.405,179.442 797.533,180.685 795.38,181.583C793.221,182.482 790.944,182.931 788.548,182.931C786.095,182.931 783.818,182.482 781.721,181.583C779.624,180.685 777.784,179.442 776.192,177.854C774.607,176.267 773.366,174.425 772.467,172.328C771.569,170.232 771.119,167.955 771.119,165.499ZM772.373,165.499C772.373,167.775 772.798,169.887 773.634,171.834C774.47,173.781 775.625,175.488 777.091,176.956C778.564,178.423 780.267,179.577 782.214,180.415C784.161,181.254 786.276,181.673 788.548,181.673C790.769,181.673 792.866,181.254 794.838,180.415C796.816,179.577 798.557,178.423 800.054,176.956C801.552,175.488 802.719,173.781 803.555,171.834C804.397,169.887 804.815,167.775 804.815,165.499C804.815,163.283 804.397,161.186 803.555,159.209C802.719,157.232 801.552,155.495 800.054,153.998C798.557,152.5 796.816,151.332 794.838,150.493C792.866,149.655 790.769,149.235 788.548,149.235C786.276,149.235 784.161,149.655 782.214,150.493C780.267,151.332 778.564,152.5 777.091,153.998C775.625,155.495 774.47,157.232 773.634,159.209C772.798,161.186 772.373,163.283 772.373,165.499Z" style="fill:white;fill-rule:nonzero;"/>
                <path d="M814.338,165.499C814.338,167.775 814.756,169.887 815.598,171.834C816.434,173.781 817.589,175.488 819.055,176.956C820.521,178.423 822.231,179.577 824.178,180.415C826.125,181.254 828.234,181.673 830.512,181.673C832.727,181.673 834.823,181.254 836.802,180.415C838.78,179.577 840.514,178.423 842.012,176.956C843.51,175.488 844.683,173.781 845.519,171.834C846.355,169.887 846.779,167.775 846.779,165.499C846.779,163.283 846.355,161.186 845.519,159.209C844.683,157.232 843.51,155.495 842.012,153.998C840.514,152.5 838.78,151.332 836.802,150.493C834.823,149.655 832.727,149.235 830.512,149.235C828.234,149.235 826.125,149.655 824.178,150.493C822.231,151.332 820.521,152.5 819.055,153.998C817.589,155.495 816.434,157.232 815.598,159.209C814.756,161.186 814.338,163.283 814.338,165.499ZM813.083,165.499C813.083,163.103 813.533,160.827 814.431,158.67C815.33,156.514 816.571,154.657 818.156,153.099C819.748,151.541 821.588,150.298 823.685,149.37C825.782,148.441 828.059,147.977 830.512,147.977C832.371,147.977 834.15,148.247 835.859,148.786C837.569,149.325 839.123,150.089 840.533,151.077C841.937,152.066 843.166,153.234 844.215,154.582C845.263,155.929 846.118,157.412 846.779,159.029L846.779,154.177L846.779,115L848.034,115L848.034,182.392L846.779,182.392L846.779,177.54C846.779,176.581 846.792,175.638 846.823,174.709C846.854,173.781 846.867,172.837 846.867,171.879C846.205,173.496 845.338,174.979 844.258,176.327C843.185,177.675 841.937,178.843 840.533,179.831C839.123,180.82 837.569,181.583 835.859,182.123C834.15,182.662 832.371,182.931 830.512,182.931C828.059,182.931 825.782,182.482 823.685,181.583C821.588,180.685 819.748,179.442 818.156,177.854C816.571,176.267 815.33,174.425 814.431,172.328C813.533,170.232 813.083,167.955 813.083,165.499Z" style="fill:white;fill-rule:nonzero;"/>
                <path d="M873.911,149.235C871.64,149.235 869.524,149.655 867.577,150.493C865.63,151.332 863.927,152.5 862.454,153.998C860.988,155.495 859.833,157.232 858.997,159.209C858.161,161.186 857.737,163.283 857.737,165.499C857.737,167.236 857.949,168.824 858.367,170.262C863.222,168.285 868.07,166.323 872.925,164.376C877.78,162.429 882.628,160.467 887.483,158.49C886.285,155.735 884.469,153.503 882.048,151.796C879.621,150.089 876.906,149.235 873.911,149.235ZM889.099,159.119C884.007,161.216 878.959,163.268 873.961,165.275C868.956,167.281 863.908,169.333 858.816,171.43C860.014,174.485 861.961,176.956 864.657,178.843C867.353,180.73 870.441,181.673 873.911,181.673C876.07,181.673 878.104,181.284 880.026,180.505C881.942,179.726 883.62,178.648 885.056,177.27C885.174,177.45 885.311,177.615 885.461,177.765C885.611,177.914 885.742,178.079 885.867,178.259C884.307,179.696 882.51,180.835 880.475,181.673C878.435,182.512 876.251,182.931 873.911,182.931C871.459,182.931 869.181,182.482 867.084,181.583C864.988,180.685 863.147,179.442 861.556,177.854C859.971,176.267 858.729,174.425 857.83,172.328C856.932,170.232 856.483,167.955 856.483,165.499C856.483,163.103 856.932,160.827 857.83,158.67C858.729,156.514 859.971,154.657 861.556,153.099C863.147,151.541 864.988,150.298 867.084,149.37C869.181,148.441 871.459,147.977 873.911,147.977C877.387,147.977 880.488,149.011 883.215,151.077C885.942,153.144 887.901,155.825 889.099,159.119Z" style="fill:white;fill-rule:nonzero;"/>
            </g>
            <g>
                <path d="M573.735,228.106L573.735,225.739L577.868,225.739C578.447,225.739 578.832,225.884 579.021,226.174C579.211,226.463 579.306,226.918 579.306,227.537L579.306,233.467C578.507,233.926 577.653,234.291 576.745,234.56C575.836,234.83 574.873,234.965 573.854,234.965C572.377,234.965 570.989,234.685 569.691,234.126C568.393,233.567 567.26,232.803 566.292,231.835C565.323,230.866 564.559,229.733 564,228.435C563.441,227.137 563.162,225.749 563.162,224.272C563.162,222.794 563.441,221.401 564,220.094C564.559,218.786 565.323,217.647 566.292,216.679C567.26,215.711 568.393,214.942 569.691,214.373C570.989,213.804 572.377,213.519 573.854,213.519C574.873,213.519 575.836,213.649 576.745,213.908C577.653,214.168 578.517,214.537 579.336,215.017C579.116,215.356 578.886,215.691 578.647,216.02C578.407,216.35 578.178,216.684 577.958,217.023C577.339,216.664 576.69,216.384 576.011,216.185C575.332,215.985 574.613,215.885 573.854,215.885C572.716,215.885 571.653,216.105 570.665,216.544C569.676,216.984 568.808,217.588 568.059,218.356C567.31,219.125 566.721,220.019 566.292,221.037C565.862,222.055 565.648,223.134 565.648,224.272C565.648,225.41 565.862,226.488 566.292,227.507C566.721,228.525 567.31,229.409 568.059,230.157C568.808,230.906 569.676,231.5 570.665,231.94C571.653,232.379 572.716,232.599 573.854,232.599C574.893,232.599 575.881,232.419 576.82,232.059L576.82,229.004C576.82,228.665 576.785,228.43 576.715,228.3C576.645,228.171 576.45,228.106 576.131,228.106L573.735,228.106Z" style="fill:white;fill-rule:nonzero;"/>
                <rect x="584.398" y="213.759" width="2.486" height="20.966" style="fill:white;"/>
                <path d="M606.862,213.759L609.348,213.759C607.79,217.433 606.243,221.087 604.705,224.721C603.168,228.355 601.62,232.009 600.063,235.684C598.505,232.009 596.957,228.355 595.42,224.721C593.882,221.087 592.335,217.433 590.777,213.759L593.263,213.759C594.362,216.355 595.45,218.925 596.528,221.471C597.606,224.017 598.695,226.588 599.793,229.184L600.063,230.172L600.332,229.184C601.43,226.588 602.519,224.017 603.597,221.471C604.675,218.925 605.763,216.355 606.862,213.759Z" style="fill:white;fill-rule:nonzero;"/>
                <path d="M612.253,234.725L612.253,213.759L625.162,213.759L625.162,216.125L614.739,216.125L614.739,222.984L623.994,222.984L623.994,225.35L614.739,225.35L614.739,232.359L625.582,232.359L625.582,234.725L612.253,234.725Z" style="fill:white;fill-rule:nonzero;"/>
                <path d="M638.97,212.8C640.807,215.176 642.634,217.548 644.451,219.914C646.269,222.28 648.096,224.651 649.933,227.027C651.77,224.651 653.597,222.28 655.414,219.914C657.231,217.548 659.058,215.176 660.895,212.8L660.895,234.725L658.409,234.725L658.409,220.648C658.429,220.488 658.444,220.328 658.454,220.168C658.464,220.009 658.479,219.849 658.499,219.689C657.181,221.646 655.783,223.548 654.306,225.395C652.828,227.242 651.37,229.104 649.933,230.981C648.595,229.224 647.257,227.477 645.919,225.739C644.581,224.002 643.243,222.255 641.906,220.498L641.366,219.689C641.386,219.849 641.401,220.009 641.411,220.168C641.421,220.328 641.436,220.488 641.456,220.648L641.456,234.725L638.97,234.725L638.97,212.8Z" style="fill:white;fill-rule:nonzero;"/>
                <path d="M665.508,234.725L665.508,213.759L678.417,213.759L678.417,216.125L667.994,216.125L667.994,222.984L677.249,222.984L677.249,225.35L667.994,225.35L667.994,232.359L678.836,232.359L678.836,234.725L665.508,234.725Z" style="fill:white;fill-rule:nonzero;"/>
                <path d="M699.054,234.965C697.976,234.965 696.977,234.815 696.059,234.515C695.14,234.216 694.342,233.772 693.663,233.183C692.984,232.594 692.455,231.86 692.075,230.981C691.696,230.103 691.506,229.094 691.506,227.956L691.506,213.759L693.992,213.759L693.992,227.866C693.992,228.625 694.117,229.299 694.367,229.888C694.616,230.477 694.966,230.971 695.415,231.37C695.864,231.77 696.398,232.074 697.017,232.284C697.636,232.494 698.315,232.599 699.054,232.599C699.793,232.599 700.472,232.494 701.091,232.284C701.71,232.074 702.244,231.77 702.693,231.37C703.142,230.971 703.497,230.477 703.756,229.888C704.016,229.299 704.146,228.625 704.146,227.866L704.146,213.759L706.632,213.759L706.632,227.956C706.632,229.094 706.437,230.103 706.048,230.981C705.658,231.86 705.124,232.594 704.445,233.183C703.766,233.772 702.968,234.216 702.049,234.515C701.131,234.815 700.132,234.965 699.054,234.965Z" style="fill:white;fill-rule:nonzero;"/>
                <path d="M729.455,213.759L729.455,235.684C726.879,232.948 724.324,230.232 721.788,227.537C719.252,224.841 716.696,222.125 714.12,219.39C714.02,219.25 713.925,219.12 713.835,219C713.745,218.88 713.651,218.751 713.551,218.611C713.571,218.771 713.586,218.93 713.596,219.09C713.606,219.25 713.621,219.41 713.641,219.569L713.641,234.725L711.155,234.725L711.155,212.8C713.731,215.596 716.286,218.366 718.822,221.112C721.358,223.858 723.914,226.628 726.49,229.424C726.59,229.563 726.685,229.693 726.775,229.813C726.864,229.933 726.959,230.063 727.059,230.202C727.039,230.043 727.024,229.883 727.014,229.723C727.004,229.563 726.989,229.404 726.969,229.244L726.969,213.759L729.455,213.759Z" style="fill:white;fill-rule:nonzero;"/>
                <rect x="734.877" y="213.759" width="2.486" height="20.966" style="fill:white;"/>
                <path d="M756.292,231.49L757.64,233.467C756.841,233.926 755.988,234.291 755.079,234.56C754.171,234.83 753.207,234.965 752.189,234.965C750.711,234.965 749.324,234.685 748.026,234.126C746.728,233.567 745.594,232.803 744.626,231.835C743.658,230.866 742.894,229.733 742.335,228.435C741.776,227.137 741.496,225.749 741.496,224.272C741.496,222.794 741.776,221.401 742.335,220.094C742.894,218.786 743.658,217.647 744.626,216.679C745.594,215.711 746.728,214.942 748.026,214.373C749.324,213.804 750.711,213.519 752.189,213.519C753.207,213.519 754.171,213.649 755.079,213.908C755.988,214.168 756.851,214.537 757.67,215.017C757.451,215.356 757.221,215.691 756.981,216.02C756.742,216.35 756.512,216.684 756.292,217.023C755.673,216.664 755.024,216.384 754.345,216.185C753.667,215.985 752.948,215.885 752.189,215.885C751.051,215.885 749.987,216.105 748.999,216.544C748.011,216.984 747.142,217.588 746.393,218.356C745.644,219.125 745.055,220.019 744.626,221.037C744.197,222.055 743.982,223.134 743.982,224.272C743.982,225.41 744.197,226.488 744.626,227.507C745.055,228.525 745.644,229.409 746.393,230.157C747.142,230.906 748.011,231.5 748.999,231.94C749.987,232.379 751.051,232.599 752.189,232.599C753.667,232.599 755.034,232.229 756.292,231.49Z" style="fill:white;fill-rule:nonzero;"/>
                <path d="M760.965,224.272C760.965,222.814 761.244,221.431 761.804,220.123C762.363,218.816 763.126,217.672 764.095,216.694C765.063,215.716 766.197,214.942 767.494,214.373C768.792,213.804 770.18,213.519 771.656,213.519C773.116,213.519 774.495,213.804 775.805,214.373C777.116,214.942 778.258,215.716 779.238,216.694C780.211,217.672 780.985,218.816 781.559,220.123C782.127,221.431 782.407,222.814 782.407,224.272C782.407,225.749 782.127,227.137 781.559,228.435C780.985,229.733 780.211,230.866 779.238,231.835C778.258,232.803 777.116,233.567 775.805,234.126C774.495,234.685 773.116,234.965 771.656,234.965C770.18,234.965 768.792,234.685 767.494,234.126C766.197,233.567 765.063,232.803 764.095,231.835C763.126,230.866 762.363,229.733 761.804,228.435C761.244,227.137 760.965,225.749 760.965,224.272ZM763.451,224.272C763.451,225.43 763.666,226.513 764.095,227.522C764.524,228.53 765.113,229.409 765.862,230.157C766.611,230.906 767.484,231.5 768.483,231.94C769.481,232.379 770.55,232.599 771.687,232.599C772.823,232.599 773.896,232.379 774.894,231.94C775.893,231.5 776.766,230.906 777.515,230.157C778.264,229.409 778.851,228.53 779.281,227.522C779.712,226.513 779.924,225.43 779.924,224.272C779.924,223.114 779.712,222.03 779.281,221.022C778.851,220.014 778.264,219.13 777.515,218.371C776.766,217.613 775.893,217.013 774.894,216.574C773.896,216.135 772.823,215.915 771.687,215.915C770.55,215.915 769.481,216.135 768.483,216.574C767.484,217.013 766.611,217.613 765.862,218.371C765.113,219.13 764.524,220.014 764.095,221.022C763.666,222.03 763.451,223.114 763.451,224.272Z" style="fill:white;fill-rule:nonzero;"/>
                <path d="M785.465,213.759L790.345,213.759C791.786,213.759 793.14,214.003 794.419,214.493C795.699,214.982 796.816,215.686 797.777,216.604C798.731,217.523 799.493,218.626 800.054,219.914C800.61,221.202 800.89,222.654 800.89,224.272C800.89,225.45 800.684,226.658 800.279,227.896C799.867,229.134 799.206,230.257 798.282,231.266C797.365,232.274 796.173,233.103 794.706,233.752C793.24,234.401 791.443,234.725 789.328,234.725L785.465,234.725L785.465,213.759ZM787.949,216.125L787.949,232.329L790.045,232.329C791.225,232.329 792.323,232.139 793.34,231.76C794.363,231.38 795.243,230.836 795.992,230.127C796.741,229.419 797.334,228.57 797.758,227.582C798.188,226.593 798.407,225.48 798.407,224.242C798.407,223.004 798.188,221.886 797.758,220.887C797.334,219.889 796.741,219.035 795.992,218.326C795.243,217.618 794.363,217.073 793.34,216.694C792.323,216.315 791.225,216.125 790.045,216.125L787.949,216.125Z" style="fill:white;fill-rule:nonzero;"/>
                <path d="M804.666,234.725L804.666,213.759L817.576,213.759L817.576,216.125L807.149,216.125L807.149,222.984L816.403,222.984L816.403,225.35L807.149,225.35L807.149,232.359L817.994,232.359L817.994,234.725L804.666,234.725Z" style="fill:white;fill-rule:nonzero;"/>
                <path d="M573.735,228.106L573.735,225.739L577.868,225.739C578.447,225.739 578.832,225.884 579.021,226.174C579.211,226.463 579.306,226.918 579.306,227.537L579.306,233.467C578.507,233.926 577.653,234.291 576.745,234.56C575.836,234.83 574.873,234.965 573.854,234.965C572.377,234.965 570.989,234.685 569.691,234.126C568.393,233.567 567.26,232.803 566.292,231.835C565.323,230.866 564.559,229.733 564,228.435C563.441,227.137 563.162,225.749 563.162,224.272C563.162,222.794 563.441,221.401 564,220.094C564.559,218.786 565.323,217.647 566.292,216.679C567.26,215.711 568.393,214.942 569.691,214.373C570.989,213.804 572.377,213.519 573.854,213.519C574.873,213.519 575.836,213.649 576.745,213.908C577.653,214.168 578.517,214.537 579.336,215.017C579.116,215.356 578.886,215.691 578.647,216.02C578.407,216.35 578.178,216.684 577.958,217.023C577.339,216.664 576.69,216.384 576.011,216.185C575.332,215.985 574.613,215.885 573.854,215.885C572.716,215.885 571.653,216.105 570.665,216.544C569.676,216.984 568.808,217.588 568.059,218.356C567.31,219.125 566.721,220.019 566.292,221.037C565.862,222.055 565.648,223.134 565.648,224.272C565.648,225.41 565.862,226.488 566.292,227.507C566.721,228.525 567.31,229.409 568.059,230.157C568.808,230.906 569.676,231.5 570.665,231.94C571.653,232.379 572.716,232.599 573.854,232.599C574.893,232.599 575.881,232.419 576.82,232.059L576.82,229.004C576.82,228.665 576.785,228.43 576.715,228.3C576.645,228.171 576.45,228.106 576.131,228.106L573.735,228.106Z" style="fill:none;stroke-width:0.94px;stroke:white;"/>
                <rect x="584.398" y="213.759" width="2.486" height="20.966" style="fill:none;stroke-width:0.94px;stroke:white;"/>
                <path d="M606.862,213.759L609.348,213.759C607.79,217.433 606.243,221.087 604.705,224.721C603.168,228.355 601.62,232.009 600.063,235.684C598.505,232.009 596.957,228.355 595.42,224.721C593.882,221.087 592.335,217.433 590.777,213.759L593.263,213.759C594.362,216.355 595.45,218.925 596.528,221.471C597.606,224.017 598.695,226.588 599.793,229.184L600.063,230.172L600.332,229.184C601.43,226.588 602.519,224.017 603.597,221.471C604.675,218.925 605.763,216.355 606.862,213.759Z" style="fill:none;stroke-width:0.94px;stroke:white;"/>
                <path d="M612.253,234.725L612.253,213.759L625.162,213.759L625.162,216.125L614.739,216.125L614.739,222.984L623.994,222.984L623.994,225.35L614.739,225.35L614.739,232.359L625.582,232.359L625.582,234.725L612.253,234.725Z" style="fill:none;stroke-width:0.94px;stroke:white;"/>
                <path d="M638.97,212.8C640.807,215.176 642.634,217.548 644.451,219.914C646.269,222.28 648.096,224.651 649.933,227.027C651.77,224.651 653.597,222.28 655.414,219.914C657.231,217.548 659.058,215.176 660.895,212.8L660.895,234.725L658.409,234.725L658.409,220.648C658.429,220.488 658.444,220.328 658.454,220.168C658.464,220.009 658.479,219.849 658.499,219.689C657.181,221.646 655.783,223.548 654.306,225.395C652.828,227.242 651.37,229.104 649.933,230.981C648.595,229.224 647.257,227.477 645.919,225.739C644.581,224.002 643.243,222.255 641.906,220.498L641.366,219.689C641.386,219.849 641.401,220.009 641.411,220.168C641.421,220.328 641.436,220.488 641.456,220.648L641.456,234.725L638.97,234.725L638.97,212.8Z" style="fill:none;stroke-width:0.94px;stroke:white;"/>
                <path d="M665.508,234.725L665.508,213.759L678.417,213.759L678.417,216.125L667.994,216.125L667.994,222.984L677.249,222.984L677.249,225.35L667.994,225.35L667.994,232.359L678.836,232.359L678.836,234.725L665.508,234.725Z" style="fill:none;stroke-width:0.94px;stroke:white;"/>
                <path d="M699.054,234.965C697.976,234.965 696.977,234.815 696.059,234.515C695.14,234.216 694.342,233.772 693.663,233.183C692.984,232.594 692.455,231.86 692.075,230.981C691.696,230.103 691.506,229.094 691.506,227.956L691.506,213.759L693.992,213.759L693.992,227.866C693.992,228.625 694.117,229.299 694.367,229.888C694.616,230.477 694.966,230.971 695.415,231.37C695.864,231.77 696.398,232.074 697.017,232.284C697.636,232.494 698.315,232.599 699.054,232.599C699.793,232.599 700.472,232.494 701.091,232.284C701.71,232.074 702.244,231.77 702.693,231.37C703.142,230.971 703.497,230.477 703.756,229.888C704.016,229.299 704.146,228.625 704.146,227.866L704.146,213.759L706.632,213.759L706.632,227.956C706.632,229.094 706.437,230.103 706.048,230.981C705.658,231.86 705.124,232.594 704.445,233.183C703.766,233.772 702.968,234.216 702.049,234.515C701.131,234.815 700.132,234.965 699.054,234.965Z" style="fill:none;stroke-width:0.94px;stroke:white;"/>
                <path d="M729.455,213.759L729.455,235.684C726.879,232.948 724.324,230.232 721.788,227.537C719.252,224.841 716.696,222.125 714.12,219.39C714.02,219.25 713.925,219.12 713.835,219C713.745,218.88 713.651,218.751 713.551,218.611C713.571,218.771 713.586,218.93 713.596,219.09C713.606,219.25 713.621,219.41 713.641,219.569L713.641,234.725L711.155,234.725L711.155,212.8C713.731,215.596 716.286,218.366 718.822,221.112C721.358,223.858 723.914,226.628 726.49,229.424C726.59,229.563 726.685,229.693 726.775,229.813C726.864,229.933 726.959,230.063 727.059,230.202C727.039,230.043 727.024,229.883 727.014,229.723C727.004,229.563 726.989,229.404 726.969,229.244L726.969,213.759L729.455,213.759Z" style="fill:none;stroke-width:0.94px;stroke:white;"/>
                <rect x="734.877" y="213.759" width="2.486" height="20.966" style="fill:none;stroke-width:0.94px;stroke:white;"/>
                <path d="M756.292,231.49L757.64,233.467C756.841,233.926 755.988,234.291 755.079,234.56C754.171,234.83 753.207,234.965 752.189,234.965C750.711,234.965 749.324,234.685 748.026,234.126C746.728,233.567 745.594,232.803 744.626,231.835C743.658,230.866 742.894,229.733 742.335,228.435C741.776,227.137 741.496,225.749 741.496,224.272C741.496,222.794 741.776,221.401 742.335,220.094C742.894,218.786 743.658,217.647 744.626,216.679C745.594,215.711 746.728,214.942 748.026,214.373C749.324,213.804 750.711,213.519 752.189,213.519C753.207,213.519 754.171,213.649 755.079,213.908C755.988,214.168 756.851,214.537 757.67,215.017C757.451,215.356 757.221,215.691 756.981,216.02C756.742,216.35 756.512,216.684 756.292,217.023C755.673,216.664 755.024,216.384 754.345,216.185C753.667,215.985 752.948,215.885 752.189,215.885C751.051,215.885 749.987,216.105 748.999,216.544C748.011,216.984 747.142,217.588 746.393,218.356C745.644,219.125 745.055,220.019 744.626,221.037C744.197,222.055 743.982,223.134 743.982,224.272C743.982,225.41 744.197,226.488 744.626,227.507C745.055,228.525 745.644,229.409 746.393,230.157C747.142,230.906 748.011,231.5 748.999,231.94C749.987,232.379 751.051,232.599 752.189,232.599C753.667,232.599 755.034,232.229 756.292,231.49Z" style="fill:none;stroke-width:0.94px;stroke:white;"/>
                <path d="M760.965,224.272C760.965,222.814 761.244,221.431 761.804,220.123C762.363,218.816 763.126,217.672 764.095,216.694C765.063,215.716 766.197,214.942 767.494,214.373C768.792,213.804 770.18,213.519 771.656,213.519C773.116,213.519 774.495,213.804 775.805,214.373C777.116,214.942 778.258,215.716 779.238,216.694C780.211,217.672 780.985,218.816 781.559,220.123C782.127,221.431 782.407,222.814 782.407,224.272C782.407,225.749 782.127,227.137 781.559,228.435C780.985,229.733 780.211,230.866 779.238,231.835C778.258,232.803 777.116,233.567 775.805,234.126C774.495,234.685 773.116,234.965 771.656,234.965C770.18,234.965 768.792,234.685 767.494,234.126C766.197,233.567 765.063,232.803 764.095,231.835C763.126,230.866 762.363,229.733 761.804,228.435C761.244,227.137 760.965,225.749 760.965,224.272ZM763.451,224.272C763.451,225.43 763.666,226.513 764.095,227.522C764.524,228.53 765.113,229.409 765.862,230.157C766.611,230.906 767.484,231.5 768.483,231.94C769.481,232.379 770.55,232.599 771.687,232.599C772.823,232.599 773.896,232.379 774.894,231.94C775.893,231.5 776.766,230.906 777.515,230.157C778.264,229.409 778.851,228.53 779.281,227.522C779.712,226.513 779.924,225.43 779.924,224.272C779.924,223.114 779.712,222.03 779.281,221.022C778.851,220.014 778.264,219.13 777.515,218.371C776.766,217.613 775.893,217.013 774.894,216.574C773.896,216.135 772.823,215.915 771.687,215.915C770.55,215.915 769.481,216.135 768.483,216.574C767.484,217.013 766.611,217.613 765.862,218.371C765.113,219.13 764.524,220.014 764.095,221.022C763.666,222.03 763.451,223.114 763.451,224.272Z" style="fill:none;stroke-width:0.94px;stroke:white;"/>
                <path d="M785.465,213.759L790.345,213.759C791.786,213.759 793.14,214.003 794.419,214.493C795.699,214.982 796.816,215.686 797.777,216.604C798.731,217.523 799.493,218.626 800.054,219.914C800.61,221.202 800.89,222.654 800.89,224.272C800.89,225.45 800.684,226.658 800.279,227.896C799.867,229.134 799.206,230.257 798.282,231.266C797.365,232.274 796.173,233.103 794.706,233.752C793.24,234.401 791.443,234.725 789.328,234.725L785.465,234.725L785.465,213.759ZM787.949,216.125L787.949,232.329L790.045,232.329C791.225,232.329 792.323,232.139 793.34,231.76C794.363,231.38 795.243,230.836 795.992,230.127C796.741,229.419 797.334,228.57 797.758,227.582C798.188,226.593 798.407,225.48 798.407,224.242C798.407,223.004 798.188,221.886 797.758,220.887C797.334,219.889 796.741,219.035 795.992,218.326C795.243,217.618 794.363,217.073 793.34,216.694C792.323,216.315 791.225,216.125 790.045,216.125L787.949,216.125Z" style="fill:none;stroke-width:0.94px;stroke:white;"/>
                <path d="M804.666,234.725L804.666,213.759L817.576,213.759L817.576,216.125L807.149,216.125L807.149,222.984L816.403,222.984L816.403,225.35L807.149,225.35L807.149,232.359L817.994,232.359L817.994,234.725L804.666,234.725Z" style="fill:none;stroke-width:0.94px;stroke:white;"/>
            </g>
        </g>
        <path d="M389.376,451.076L389.376,449.188C390.123,449.145 390.816,448.991 391.456,448.724C392.096,448.457 392.645,448.084 393.104,447.604C393.563,447.124 393.92,446.543 394.176,445.86C394.432,445.177 394.56,444.399 394.56,443.524L394.56,424.1L396.544,424.1L396.544,443.62C396.544,444.815 396.357,445.871 395.984,446.788C395.611,447.705 395.104,448.473 394.464,449.092C393.824,449.711 393.067,450.191 392.192,450.532C391.317,450.873 390.379,451.055 389.376,451.076Z" style="fill:white;fill-rule:nonzero;"/>
        <path d="M413.376,446.692L411.392,446.692L411.392,444.836L411.488,443.396C411.061,444.42 410.373,445.236 409.424,445.844C408.475,446.452 407.424,446.756 406.272,446.756C405.056,446.756 404.091,446.425 403.376,445.764C402.661,445.103 402.283,444.239 402.24,443.172L402.24,434.5L404.256,434.5L404.256,442.404C404.299,443.044 404.528,443.593 404.944,444.052C405.36,444.511 405.995,444.761 406.848,444.804C407.445,444.804 408.021,444.703 408.576,444.5C409.131,444.297 409.616,444.009 410.032,443.636C410.448,443.263 410.779,442.825 411.024,442.324C411.269,441.823 411.392,441.273 411.392,440.676L411.392,434.5L413.376,434.5L413.376,446.692Z" style="fill:white;fill-rule:nonzero;"/>
        <path d="M425.44,435.62C425.269,435.855 425.088,436.1 424.896,436.356C424.704,436.612 424.512,436.857 424.32,437.092C424.149,436.9 423.867,436.703 423.472,436.5C423.077,436.297 422.635,436.196 422.144,436.196C421.653,436.196 421.237,436.324 420.896,436.58C420.555,436.836 420.405,437.231 420.448,437.764C420.469,438.127 420.624,438.415 420.912,438.628C421.2,438.841 421.547,439.033 421.952,439.204C422.357,439.375 422.789,439.545 423.248,439.716C423.707,439.887 424.139,440.111 424.544,440.388C424.949,440.665 425.28,441.017 425.536,441.444C425.792,441.871 425.92,442.415 425.92,443.076C425.92,443.396 425.856,443.769 425.728,444.196C425.6,444.623 425.387,445.028 425.088,445.412C424.789,445.796 424.384,446.116 423.872,446.372C423.36,446.628 422.709,446.756 421.92,446.756C421.216,446.756 420.501,446.628 419.776,446.372C419.051,446.116 418.475,445.743 418.048,445.252C418.261,445.017 418.464,444.777 418.656,444.532C418.848,444.287 419.051,444.047 419.264,443.812C419.691,444.132 420.123,444.377 420.56,444.548C420.997,444.719 421.472,444.804 421.984,444.804C422.091,444.804 422.251,444.783 422.464,444.74C422.677,444.697 422.885,444.612 423.088,444.484C423.291,444.356 423.477,444.185 423.648,443.972C423.819,443.759 423.904,443.471 423.904,443.108C423.925,442.639 423.808,442.281 423.552,442.036C423.296,441.791 422.965,441.588 422.56,441.428C422.155,441.268 421.712,441.119 421.232,440.98C420.752,440.841 420.304,440.655 419.888,440.42C419.472,440.185 419.125,439.86 418.848,439.444C418.571,439.028 418.432,438.457 418.432,437.732C418.432,437.113 418.549,436.585 418.784,436.148C419.019,435.711 419.317,435.353 419.68,435.076C420.043,434.799 420.432,434.596 420.848,434.468C421.264,434.34 421.664,434.276 422.048,434.276C422.261,434.276 422.517,434.297 422.816,434.34C423.115,434.383 423.424,434.457 423.744,434.564C424.064,434.671 424.368,434.809 424.656,434.98C424.944,435.151 425.205,435.364 425.44,435.62Z" style="fill:white;fill-rule:nonzero;"/>
        <path d="M431.232,426.692L433.216,426.692L433.216,434.372L436.64,434.372L436.64,436.324L433.216,436.324L433.216,446.5L431.232,446.5L431.232,436.324L428.512,436.324L428.512,434.372L431.232,434.372L431.232,426.692Z" style="fill:white;fill-rule:nonzero;"/>
        <path d="M459.328,440.484C459.328,439.887 459.221,439.327 459.008,438.804C458.795,438.281 458.496,437.828 458.112,437.444C457.728,437.06 457.269,436.756 456.736,436.532C456.203,436.308 455.616,436.196 454.976,436.196C454.357,436.196 453.781,436.308 453.248,436.532C452.715,436.756 452.256,437.06 451.872,437.444C451.488,437.828 451.184,438.281 450.96,438.804C450.736,439.327 450.624,439.887 450.624,440.484C450.624,441.103 450.736,441.673 450.96,442.196C451.184,442.719 451.488,443.177 451.872,443.572C452.256,443.967 452.715,444.276 453.248,444.5C453.781,444.724 454.357,444.836 454.976,444.836C455.616,444.836 456.203,444.724 456.736,444.5C457.269,444.276 457.728,443.967 458.112,443.572C458.496,443.177 458.795,442.719 459.008,442.196C459.221,441.673 459.328,441.103 459.328,440.484ZM461.344,440.484C461.344,441.359 461.179,442.175 460.848,442.932C460.517,443.689 460.069,444.356 459.504,444.932C458.939,445.508 458.267,445.961 457.488,446.292C456.709,446.623 455.872,446.788 454.976,446.788C454.336,446.788 453.749,446.703 453.216,446.532C452.683,446.361 452.219,446.159 451.824,445.924C451.429,445.689 451.109,445.444 450.864,445.188C450.619,444.932 450.464,444.697 450.4,444.484C450.443,444.655 450.485,444.82 450.528,444.98C450.571,445.14 450.613,445.305 450.656,445.476L450.656,454.5L448.64,454.5L448.64,434.5L450.304,434.5C450.304,434.863 450.315,435.225 450.336,435.588C450.357,435.951 450.379,436.313 450.4,436.676C450.464,436.463 450.629,436.217 450.896,435.94C451.163,435.663 451.499,435.396 451.904,435.14C452.309,434.884 452.773,434.671 453.296,434.5C453.819,434.329 454.379,434.244 454.976,434.244C455.872,434.244 456.709,434.409 457.488,434.74C458.267,435.071 458.939,435.519 459.504,436.084C460.069,436.649 460.517,437.311 460.848,438.068C461.179,438.825 461.344,439.631 461.344,440.484Z" style="fill:white;fill-rule:nonzero;"/>
        <path d="M466.88,440.484C466.88,441.103 466.992,441.673 467.216,442.196C467.44,442.719 467.744,443.172 468.128,443.556C468.512,443.94 468.971,444.244 469.504,444.468C470.037,444.692 470.613,444.804 471.232,444.804C471.851,444.804 472.427,444.692 472.96,444.468C473.493,444.244 473.952,443.94 474.336,443.556C474.72,443.172 475.024,442.719 475.248,442.196C475.472,441.673 475.584,441.103 475.584,440.484C475.584,439.887 475.472,439.321 475.248,438.788C475.024,438.255 474.72,437.796 474.336,437.412C473.952,437.028 473.493,436.724 472.96,436.5C472.427,436.276 471.851,436.164 471.232,436.164C470.613,436.164 470.037,436.276 469.504,436.5C468.971,436.724 468.512,437.028 468.128,437.412C467.744,437.796 467.44,438.255 467.216,438.788C466.992,439.321 466.88,439.887 466.88,440.484ZM464.864,440.516C464.864,439.663 465.029,438.857 465.36,438.1C465.691,437.343 466.139,436.676 466.704,436.1C467.269,435.524 467.941,435.065 468.72,434.724C469.499,434.383 470.336,434.212 471.232,434.212C471.829,434.212 472.389,434.297 472.912,434.468C473.435,434.639 473.899,434.852 474.304,435.108C474.709,435.364 475.045,435.631 475.312,435.908C475.579,436.185 475.744,436.431 475.808,436.644C475.808,436.303 475.824,435.951 475.856,435.588C475.888,435.225 475.915,434.863 475.936,434.5L477.568,434.5L477.568,446.5L475.808,446.5L475.808,445.252L475.808,444.452C475.744,444.665 475.589,444.905 475.344,445.172C475.099,445.439 474.779,445.689 474.384,445.924C473.989,446.159 473.525,446.356 472.992,446.516C472.459,446.676 471.872,446.756 471.232,446.756C470.336,446.756 469.499,446.591 468.72,446.26C467.941,445.929 467.269,445.481 466.704,444.916C466.139,444.351 465.691,443.689 465.36,442.932C465.029,442.175 464.864,441.369 464.864,440.516Z" style="fill:white;fill-rule:nonzero;"/>
        <path d="M487.264,435.62C487.093,435.855 486.912,436.1 486.72,436.356C486.528,436.612 486.336,436.857 486.144,437.092C485.973,436.9 485.691,436.703 485.296,436.5C484.901,436.297 484.459,436.196 483.968,436.196C483.477,436.196 483.061,436.324 482.72,436.58C482.379,436.836 482.229,437.231 482.272,437.764C482.293,438.127 482.448,438.415 482.736,438.628C483.024,438.841 483.371,439.033 483.776,439.204C484.181,439.375 484.613,439.545 485.072,439.716C485.531,439.887 485.963,440.111 486.368,440.388C486.773,440.665 487.104,441.017 487.36,441.444C487.616,441.871 487.744,442.415 487.744,443.076C487.744,443.396 487.68,443.769 487.552,444.196C487.424,444.623 487.211,445.028 486.912,445.412C486.613,445.796 486.208,446.116 485.696,446.372C485.184,446.628 484.533,446.756 483.744,446.756C483.04,446.756 482.325,446.628 481.6,446.372C480.875,446.116 480.299,445.743 479.872,445.252C480.085,445.017 480.288,444.777 480.48,444.532C480.672,444.287 480.875,444.047 481.088,443.812C481.515,444.132 481.947,444.377 482.384,444.548C482.821,444.719 483.296,444.804 483.808,444.804C483.915,444.804 484.075,444.783 484.288,444.74C484.501,444.697 484.709,444.612 484.912,444.484C485.115,444.356 485.301,444.185 485.472,443.972C485.643,443.759 485.728,443.471 485.728,443.108C485.749,442.639 485.632,442.281 485.376,442.036C485.12,441.791 484.789,441.588 484.384,441.428C483.979,441.268 483.536,441.119 483.056,440.98C482.576,440.841 482.128,440.655 481.712,440.42C481.296,440.185 480.949,439.86 480.672,439.444C480.395,439.028 480.256,438.457 480.256,437.732C480.256,437.113 480.373,436.585 480.608,436.148C480.843,435.711 481.141,435.353 481.504,435.076C481.867,434.799 482.256,434.596 482.672,434.468C483.088,434.34 483.488,434.276 483.872,434.276C484.085,434.276 484.341,434.297 484.64,434.34C484.939,434.383 485.248,434.457 485.568,434.564C485.888,434.671 486.192,434.809 486.48,434.98C486.768,435.151 487.029,435.364 487.264,435.62Z" style="fill:white;fill-rule:nonzero;"/>
        <path d="M493.056,426.692L495.04,426.692L495.04,434.372L498.464,434.372L498.464,436.324L495.04,436.324L495.04,446.5L493.056,446.5L493.056,436.324L490.336,436.324L490.336,434.372L493.056,434.372L493.056,426.692Z" style="fill:white;fill-rule:nonzero;"/>
        <path d="M506.208,436.164C505.141,436.164 504.219,436.484 503.44,437.124C502.661,437.764 502.187,438.564 502.016,439.524C501.973,439.737 501.947,439.951 501.936,440.164C501.925,440.377 501.92,440.591 501.92,440.804C503.136,440.335 504.352,439.871 505.568,439.412C506.784,438.953 508,438.489 509.216,438.02C508.896,437.465 508.475,437.017 507.952,436.676C507.429,436.335 506.848,436.164 506.208,436.164ZM511.776,439.14L502.464,442.692C502.827,443.332 503.333,443.844 503.984,444.228C504.635,444.612 505.376,444.804 506.208,444.804C506.784,444.804 507.323,444.697 507.824,444.484C508.325,444.271 508.757,443.983 509.12,443.62C509.312,443.855 509.509,444.095 509.712,444.34C509.915,444.585 510.123,444.825 510.336,445.06C509.781,445.593 509.157,446.009 508.464,446.308C507.771,446.607 507.019,446.756 506.208,446.756C505.333,446.756 504.512,446.591 503.744,446.26C502.976,445.929 502.304,445.481 501.728,444.916C501.152,444.351 500.699,443.689 500.368,442.932C500.037,442.175 499.872,441.359 499.872,440.484C499.872,439.631 500.037,438.82 500.368,438.052C500.699,437.284 501.152,436.617 501.728,436.052C502.304,435.487 502.976,435.039 503.744,434.708C504.512,434.377 505.333,434.212 506.208,434.212C506.869,434.212 507.493,434.335 508.08,434.58C508.667,434.825 509.2,435.167 509.68,435.604C510.16,436.041 510.581,436.564 510.944,437.172C511.307,437.78 511.584,438.436 511.776,439.14Z" style="fill:white;fill-rule:nonzero;"/>
        <path d="M523.904,440.484C523.904,439.631 524.069,438.82 524.4,438.052C524.731,437.284 525.184,436.617 525.76,436.052C526.336,435.487 527.008,435.039 527.776,434.708C528.544,434.377 529.365,434.212 530.24,434.212C531.136,434.212 531.973,434.377 532.752,434.708C533.531,435.039 534.208,435.487 534.784,436.052C535.36,436.617 535.813,437.284 536.144,438.052C536.475,438.82 536.64,439.631 536.64,440.484C536.64,441.359 536.475,442.175 536.144,442.932C535.813,443.689 535.36,444.351 534.784,444.916C534.208,445.481 533.531,445.929 532.752,446.26C531.973,446.591 531.136,446.756 530.24,446.756C529.365,446.756 528.544,446.591 527.776,446.26C527.008,445.929 526.336,445.481 525.76,444.916C525.184,444.351 524.731,443.689 524.4,442.932C524.069,442.175 523.904,441.359 523.904,440.484ZM525.888,440.516C525.888,441.113 526,441.673 526.224,442.196C526.448,442.719 526.757,443.172 527.152,443.556C527.547,443.94 528.005,444.244 528.528,444.468C529.051,444.692 529.611,444.804 530.208,444.804C530.805,444.804 531.365,444.692 531.888,444.468C532.411,444.244 532.869,443.94 533.264,443.556C533.659,443.172 533.968,442.719 534.192,442.196C534.416,441.673 534.528,441.113 534.528,440.516C534.528,439.919 534.416,439.353 534.192,438.82C533.968,438.287 533.659,437.823 533.264,437.428C532.869,437.033 532.411,436.724 531.888,436.5C531.365,436.276 530.805,436.164 530.208,436.164C529.611,436.164 529.051,436.276 528.528,436.5C528.005,436.724 527.547,437.033 527.152,437.428C526.757,437.823 526.448,438.287 526.224,438.82C526,439.353 525.888,439.919 525.888,440.516Z" style="fill:white;fill-rule:nonzero;"/>
        <path d="M547.424,436.196C546.763,436.196 546.149,436.303 545.584,436.516C545.019,436.729 544.533,437.017 544.128,437.38C543.723,437.743 543.408,438.175 543.184,438.676C542.96,439.177 542.848,439.727 542.848,440.324L542.848,446.5L540.832,446.5L540.832,434.5L542.624,434.5L542.624,435.204C542.645,435.631 542.667,436.031 542.688,436.404C542.709,436.777 542.731,437.177 542.752,437.604C543.008,437.071 543.328,436.596 543.712,436.18C544.096,435.764 544.507,435.412 544.944,435.124C545.381,434.836 545.829,434.617 546.288,434.468C546.747,434.319 547.168,434.244 547.552,434.244L547.424,436.196Z" style="fill:white;fill-rule:nonzero;"/>
        <path d="M561.792,426.692L563.776,426.692L563.776,434.372L567.2,434.372L567.2,436.324L563.776,436.324L563.776,446.5L561.792,446.5L561.792,436.324L559.072,436.324L559.072,434.372L561.792,434.372L561.792,426.692Z" style="fill:white;fill-rule:nonzero;"/>
        <path d="M572.576,454.5L570.528,454.5C571.211,453.156 571.877,451.828 572.528,450.516C573.179,449.204 573.845,447.876 574.528,446.532C573.504,444.527 572.496,442.521 571.504,440.516C570.512,438.511 569.504,436.505 568.48,434.5L570.496,434.5C571.349,436.164 572.235,437.849 573.152,439.556C574.069,441.263 574.869,442.98 575.552,444.708C576.235,442.98 577.035,441.263 577.952,439.556C578.869,437.849 579.744,436.164 580.576,434.5L582.592,434.5C580.928,437.849 579.259,441.183 577.584,444.5C575.909,447.817 574.24,451.151 572.576,454.5Z" style="fill:white;fill-rule:nonzero;"/>
        <path d="M596.16,440.484C596.16,439.887 596.053,439.327 595.84,438.804C595.627,438.281 595.328,437.828 594.944,437.444C594.56,437.06 594.101,436.756 593.568,436.532C593.035,436.308 592.448,436.196 591.808,436.196C591.189,436.196 590.613,436.308 590.08,436.532C589.547,436.756 589.088,437.06 588.704,437.444C588.32,437.828 588.016,438.281 587.792,438.804C587.568,439.327 587.456,439.887 587.456,440.484C587.456,441.103 587.568,441.673 587.792,442.196C588.016,442.719 588.32,443.177 588.704,443.572C589.088,443.967 589.547,444.276 590.08,444.5C590.613,444.724 591.189,444.836 591.808,444.836C592.448,444.836 593.035,444.724 593.568,444.5C594.101,444.276 594.56,443.967 594.944,443.572C595.328,443.177 595.627,442.719 595.84,442.196C596.053,441.673 596.16,441.103 596.16,440.484ZM598.176,440.484C598.176,441.359 598.011,442.175 597.68,442.932C597.349,443.689 596.901,444.356 596.336,444.932C595.771,445.508 595.099,445.961 594.32,446.292C593.541,446.623 592.704,446.788 591.808,446.788C591.168,446.788 590.581,446.703 590.048,446.532C589.515,446.361 589.051,446.159 588.656,445.924C588.261,445.689 587.941,445.444 587.696,445.188C587.451,444.932 587.296,444.697 587.232,444.484C587.275,444.655 587.317,444.82 587.36,444.98C587.403,445.14 587.445,445.305 587.488,445.476L587.488,454.5L585.472,454.5L585.472,434.5L587.136,434.5C587.136,434.863 587.147,435.225 587.168,435.588C587.189,435.951 587.211,436.313 587.232,436.676C587.296,436.463 587.461,436.217 587.728,435.94C587.995,435.663 588.331,435.396 588.736,435.14C589.141,434.884 589.605,434.671 590.128,434.5C590.651,434.329 591.211,434.244 591.808,434.244C592.704,434.244 593.541,434.409 594.32,434.74C595.099,435.071 595.771,435.519 596.336,436.084C596.901,436.649 597.349,437.311 597.68,438.068C598.011,438.825 598.176,439.631 598.176,440.484Z" style="fill:white;fill-rule:nonzero;"/>
        <path d="M607.616,436.164C606.549,436.164 605.627,436.484 604.848,437.124C604.069,437.764 603.595,438.564 603.424,439.524C603.381,439.737 603.355,439.951 603.344,440.164C603.333,440.377 603.328,440.591 603.328,440.804C604.544,440.335 605.76,439.871 606.976,439.412C608.192,438.953 609.408,438.489 610.624,438.02C610.304,437.465 609.883,437.017 609.36,436.676C608.837,436.335 608.256,436.164 607.616,436.164ZM613.184,439.14L603.872,442.692C604.235,443.332 604.741,443.844 605.392,444.228C606.043,444.612 606.784,444.804 607.616,444.804C608.192,444.804 608.731,444.697 609.232,444.484C609.733,444.271 610.165,443.983 610.528,443.62C610.72,443.855 610.917,444.095 611.12,444.34C611.323,444.585 611.531,444.825 611.744,445.06C611.189,445.593 610.565,446.009 609.872,446.308C609.179,446.607 608.427,446.756 607.616,446.756C606.741,446.756 605.92,446.591 605.152,446.26C604.384,445.929 603.712,445.481 603.136,444.916C602.56,444.351 602.107,443.689 601.776,442.932C601.445,442.175 601.28,441.359 601.28,440.484C601.28,439.631 601.445,438.82 601.776,438.052C602.107,437.284 602.56,436.617 603.136,436.052C603.712,435.487 604.384,435.039 605.152,434.708C605.92,434.377 606.741,434.212 607.616,434.212C608.277,434.212 608.901,434.335 609.488,434.58C610.075,434.825 610.608,435.167 611.088,435.604C611.568,436.041 611.989,436.564 612.352,437.172C612.715,437.78 612.992,438.436 613.184,439.14Z" style="fill:white;fill-rule:nonzero;"/>
        <path d="M627.744,440.484C627.744,441.103 627.856,441.673 628.08,442.196C628.304,442.719 628.608,443.172 628.992,443.556C629.376,443.94 629.835,444.244 630.368,444.468C630.901,444.692 631.477,444.804 632.096,444.804C632.715,444.804 633.291,444.692 633.824,444.468C634.357,444.244 634.816,443.94 635.2,443.556C635.584,443.172 635.888,442.719 636.112,442.196C636.336,441.673 636.448,441.103 636.448,440.484C636.448,439.887 636.336,439.321 636.112,438.788C635.888,438.255 635.584,437.796 635.2,437.412C634.816,437.028 634.357,436.724 633.824,436.5C633.291,436.276 632.715,436.164 632.096,436.164C631.477,436.164 630.901,436.276 630.368,436.5C629.835,436.724 629.376,437.028 628.992,437.412C628.608,437.796 628.304,438.255 628.08,438.788C627.856,439.321 627.744,439.887 627.744,440.484ZM625.728,440.516C625.728,439.663 625.893,438.857 626.224,438.1C626.555,437.343 627.003,436.676 627.568,436.1C628.133,435.524 628.805,435.065 629.584,434.724C630.363,434.383 631.2,434.212 632.096,434.212C632.693,434.212 633.253,434.297 633.776,434.468C634.299,434.639 634.763,434.852 635.168,435.108C635.573,435.364 635.909,435.631 636.176,435.908C636.443,436.185 636.608,436.431 636.672,436.644C636.672,436.303 636.688,435.951 636.72,435.588C636.752,435.225 636.779,434.863 636.8,434.5L638.432,434.5L638.432,446.5L636.672,446.5L636.672,445.252L636.672,444.452C636.608,444.665 636.453,444.905 636.208,445.172C635.963,445.439 635.643,445.689 635.248,445.924C634.853,446.159 634.389,446.356 633.856,446.516C633.323,446.676 632.736,446.756 632.096,446.756C631.2,446.756 630.363,446.591 629.584,446.26C628.805,445.929 628.133,445.481 627.568,444.916C627.003,444.351 626.555,443.689 626.224,442.932C625.893,442.175 625.728,441.369 625.728,440.516Z" style="fill:white;fill-rule:nonzero;"/>
        <path d="M660.224,443.876C660.608,444.367 661.013,444.868 661.44,445.38C660.885,445.807 660.272,446.143 659.6,446.388C658.928,446.633 658.208,446.756 657.44,446.756C656.565,446.756 655.744,446.591 654.976,446.26C654.208,445.929 653.536,445.481 652.96,444.916C652.384,444.351 651.931,443.689 651.6,442.932C651.269,442.175 651.104,441.359 651.104,440.484C651.104,439.631 651.269,438.82 651.6,438.052C651.931,437.284 652.384,436.617 652.96,436.052C653.536,435.487 654.208,435.039 654.976,434.708C655.744,434.377 656.565,434.212 657.44,434.212C658.229,434.212 658.96,434.335 659.632,434.58C660.304,434.825 660.917,435.161 661.472,435.588C661.259,435.844 661.045,436.095 660.832,436.34C660.619,436.585 660.416,436.836 660.224,437.092C659.84,436.793 659.413,436.564 658.944,436.404C658.475,436.244 657.973,436.164 657.44,436.164C656.821,436.164 656.245,436.276 655.712,436.5C655.179,436.724 654.72,437.028 654.336,437.412C653.952,437.796 653.648,438.255 653.424,438.788C653.2,439.321 653.088,439.887 653.088,440.484C653.088,441.103 653.2,441.673 653.424,442.196C653.648,442.719 653.952,443.172 654.336,443.556C654.72,443.94 655.179,444.244 655.712,444.468C656.245,444.692 656.821,444.804 657.44,444.804C657.995,444.804 658.501,444.724 658.96,444.564C659.419,444.404 659.84,444.175 660.224,443.876Z" style="fill:white;fill-rule:nonzero;"/>
        <path d="M665.408,422.5L667.424,422.5L667.424,436.164L667.328,437.604C667.776,436.58 668.453,435.775 669.36,435.188C670.267,434.601 671.328,434.287 672.544,434.244C673.76,434.244 674.72,434.575 675.424,435.236C676.128,435.897 676.501,436.761 676.544,437.828L676.544,446.5L674.56,446.5L674.56,438.596C674.517,437.977 674.288,437.433 673.872,436.964C673.456,436.495 672.821,436.239 671.968,436.196C671.371,436.196 670.795,436.303 670.24,436.516C669.685,436.729 669.2,437.017 668.784,437.38C668.368,437.743 668.037,438.175 667.792,438.676C667.547,439.177 667.424,439.727 667.424,440.324L667.424,446.5L665.408,446.5L665.408,422.5Z" style="fill:white;fill-rule:nonzero;"/>
        <path d="M681.312,440.484C681.312,441.103 681.424,441.673 681.648,442.196C681.872,442.719 682.176,443.172 682.56,443.556C682.944,443.94 683.403,444.244 683.936,444.468C684.469,444.692 685.045,444.804 685.664,444.804C686.283,444.804 686.859,444.692 687.392,444.468C687.925,444.244 688.384,443.94 688.768,443.556C689.152,443.172 689.456,442.719 689.68,442.196C689.904,441.673 690.016,441.103 690.016,440.484C690.016,439.887 689.904,439.321 689.68,438.788C689.456,438.255 689.152,437.796 688.768,437.412C688.384,437.028 687.925,436.724 687.392,436.5C686.859,436.276 686.283,436.164 685.664,436.164C685.045,436.164 684.469,436.276 683.936,436.5C683.403,436.724 682.944,437.028 682.56,437.412C682.176,437.796 681.872,438.255 681.648,438.788C681.424,439.321 681.312,439.887 681.312,440.484ZM679.296,440.516C679.296,439.663 679.461,438.857 679.792,438.1C680.123,437.343 680.571,436.676 681.136,436.1C681.701,435.524 682.373,435.065 683.152,434.724C683.931,434.383 684.768,434.212 685.664,434.212C686.261,434.212 686.821,434.297 687.344,434.468C687.867,434.639 688.331,434.852 688.736,435.108C689.141,435.364 689.477,435.631 689.744,435.908C690.011,436.185 690.176,436.431 690.24,436.644C690.24,436.303 690.256,435.951 690.288,435.588C690.32,435.225 690.347,434.863 690.368,434.5L692,434.5L692,446.5L690.24,446.5L690.24,445.252L690.24,444.452C690.176,444.665 690.021,444.905 689.776,445.172C689.531,445.439 689.211,445.689 688.816,445.924C688.421,446.159 687.957,446.356 687.424,446.516C686.891,446.676 686.304,446.756 685.664,446.756C684.768,446.756 683.931,446.591 683.152,446.26C682.373,445.929 681.701,445.481 681.136,444.916C680.571,444.351 680.123,443.689 679.792,442.932C679.461,442.175 679.296,441.369 679.296,440.516Z" style="fill:white;fill-rule:nonzero;"/>
        <path d="M703.456,436.196C702.795,436.196 702.181,436.303 701.616,436.516C701.051,436.729 700.565,437.017 700.16,437.38C699.755,437.743 699.44,438.175 699.216,438.676C698.992,439.177 698.88,439.727 698.88,440.324L698.88,446.5L696.864,446.5L696.864,434.5L698.656,434.5L698.656,435.204C698.677,435.631 698.699,436.031 698.72,436.404C698.741,436.777 698.763,437.177 698.784,437.604C699.04,437.071 699.36,436.596 699.744,436.18C700.128,435.764 700.539,435.412 700.976,435.124C701.413,434.836 701.861,434.617 702.32,434.468C702.779,434.319 703.2,434.244 703.584,434.244L703.456,436.196Z" style="fill:white;fill-rule:nonzero;"/>
        <path d="M706.592,440.484C706.592,441.103 706.704,441.673 706.928,442.196C707.152,442.719 707.456,443.172 707.84,443.556C708.224,443.94 708.683,444.244 709.216,444.468C709.749,444.692 710.325,444.804 710.944,444.804C711.563,444.804 712.139,444.692 712.672,444.468C713.205,444.244 713.664,443.94 714.048,443.556C714.432,443.172 714.736,442.719 714.96,442.196C715.184,441.673 715.296,441.103 715.296,440.484C715.296,439.887 715.184,439.321 714.96,438.788C714.736,438.255 714.432,437.796 714.048,437.412C713.664,437.028 713.205,436.724 712.672,436.5C712.139,436.276 711.563,436.164 710.944,436.164C710.325,436.164 709.749,436.276 709.216,436.5C708.683,436.724 708.224,437.028 707.84,437.412C707.456,437.796 707.152,438.255 706.928,438.788C706.704,439.321 706.592,439.887 706.592,440.484ZM704.576,440.516C704.576,439.663 704.741,438.857 705.072,438.1C705.403,437.343 705.851,436.676 706.416,436.1C706.981,435.524 707.653,435.065 708.432,434.724C709.211,434.383 710.048,434.212 710.944,434.212C711.541,434.212 712.101,434.297 712.624,434.468C713.147,434.639 713.611,434.852 714.016,435.108C714.421,435.364 714.757,435.631 715.024,435.908C715.291,436.185 715.456,436.431 715.52,436.644C715.52,436.303 715.536,435.951 715.568,435.588C715.6,435.225 715.627,434.863 715.648,434.5L717.28,434.5L717.28,446.5L715.52,446.5L715.52,445.252L715.52,444.452C715.456,444.665 715.301,444.905 715.056,445.172C714.811,445.439 714.491,445.689 714.096,445.924C713.701,446.159 713.237,446.356 712.704,446.516C712.171,446.676 711.584,446.756 710.944,446.756C710.048,446.756 709.211,446.591 708.432,446.26C707.653,445.929 706.981,445.481 706.416,444.916C705.851,444.351 705.403,443.689 705.072,442.932C704.741,442.175 704.576,441.369 704.576,440.516Z" style="fill:white;fill-rule:nonzero;"/>
        <path d="M729.472,443.876C729.856,444.367 730.261,444.868 730.688,445.38C730.133,445.807 729.52,446.143 728.848,446.388C728.176,446.633 727.456,446.756 726.688,446.756C725.813,446.756 724.992,446.591 724.224,446.26C723.456,445.929 722.784,445.481 722.208,444.916C721.632,444.351 721.179,443.689 720.848,442.932C720.517,442.175 720.352,441.359 720.352,440.484C720.352,439.631 720.517,438.82 720.848,438.052C721.179,437.284 721.632,436.617 722.208,436.052C722.784,435.487 723.456,435.039 724.224,434.708C724.992,434.377 725.813,434.212 726.688,434.212C727.477,434.212 728.208,434.335 728.88,434.58C729.552,434.825 730.165,435.161 730.72,435.588C730.507,435.844 730.293,436.095 730.08,436.34C729.867,436.585 729.664,436.836 729.472,437.092C729.088,436.793 728.661,436.564 728.192,436.404C727.723,436.244 727.221,436.164 726.688,436.164C726.069,436.164 725.493,436.276 724.96,436.5C724.427,436.724 723.968,437.028 723.584,437.412C723.2,437.796 722.896,438.255 722.672,438.788C722.448,439.321 722.336,439.887 722.336,440.484C722.336,441.103 722.448,441.673 722.672,442.196C722.896,442.719 723.2,443.172 723.584,443.556C723.968,443.94 724.427,444.244 724.96,444.468C725.493,444.692 726.069,444.804 726.688,444.804C727.243,444.804 727.749,444.724 728.208,444.564C728.667,444.404 729.088,444.175 729.472,443.876Z" style="fill:white;fill-rule:nonzero;"/>
        <path d="M735.424,426.692L737.408,426.692L737.408,434.372L740.832,434.372L740.832,436.324L737.408,436.324L737.408,446.5L735.424,446.5L735.424,436.324L732.704,436.324L732.704,434.372L735.424,434.372L735.424,426.692Z" style="fill:white;fill-rule:nonzero;"/>
        <path d="M748.576,436.164C747.509,436.164 746.587,436.484 745.808,437.124C745.029,437.764 744.555,438.564 744.384,439.524C744.341,439.737 744.315,439.951 744.304,440.164C744.293,440.377 744.288,440.591 744.288,440.804C745.504,440.335 746.72,439.871 747.936,439.412C749.152,438.953 750.368,438.489 751.584,438.02C751.264,437.465 750.843,437.017 750.32,436.676C749.797,436.335 749.216,436.164 748.576,436.164ZM754.144,439.14L744.832,442.692C745.195,443.332 745.701,443.844 746.352,444.228C747.003,444.612 747.744,444.804 748.576,444.804C749.152,444.804 749.691,444.697 750.192,444.484C750.693,444.271 751.125,443.983 751.488,443.62C751.68,443.855 751.877,444.095 752.08,444.34C752.283,444.585 752.491,444.825 752.704,445.06C752.149,445.593 751.525,446.009 750.832,446.308C750.139,446.607 749.387,446.756 748.576,446.756C747.701,446.756 746.88,446.591 746.112,446.26C745.344,445.929 744.672,445.481 744.096,444.916C743.52,444.351 743.067,443.689 742.736,442.932C742.405,442.175 742.24,441.359 742.24,440.484C742.24,439.631 742.405,438.82 742.736,438.052C743.067,437.284 743.52,436.617 744.096,436.052C744.672,435.487 745.344,435.039 746.112,434.708C746.88,434.377 747.701,434.212 748.576,434.212C749.237,434.212 749.861,434.335 750.448,434.58C751.035,434.825 751.568,435.167 752.048,435.604C752.528,436.041 752.949,436.564 753.312,437.172C753.675,437.78 753.952,438.436 754.144,439.14Z" style="fill:white;fill-rule:nonzero;"/>
        <path d="M765.056,436.196C764.395,436.196 763.781,436.303 763.216,436.516C762.651,436.729 762.165,437.017 761.76,437.38C761.355,437.743 761.04,438.175 760.816,438.676C760.592,439.177 760.48,439.727 760.48,440.324L760.48,446.5L758.464,446.5L758.464,434.5L760.256,434.5L760.256,435.204C760.277,435.631 760.299,436.031 760.32,436.404C760.341,436.777 760.363,437.177 760.384,437.604C760.64,437.071 760.96,436.596 761.344,436.18C761.728,435.764 762.139,435.412 762.576,435.124C763.013,434.836 763.461,434.617 763.92,434.468C764.379,434.319 764.8,434.244 765.184,434.244L765.056,436.196Z" style="fill:white;fill-rule:nonzero;"/>
        <path d="M777.504,430.052C777.504,429.668 777.643,429.343 777.92,429.076C778.197,428.809 778.517,428.676 778.88,428.676C779.2,428.676 779.499,428.809 779.776,429.076C780.053,429.343 780.192,429.668 780.192,430.052C780.192,430.457 780.053,430.783 779.776,431.028C779.499,431.273 779.2,431.396 778.88,431.396C778.517,431.396 778.197,431.273 777.92,431.028C777.643,430.783 777.504,430.457 777.504,430.052ZM779.84,446.5L777.824,446.5L777.824,434.5L779.84,434.5L779.84,446.5Z" style="fill:white;fill-rule:nonzero;"/>
        <path d="M784.864,434.5L786.656,434.5L786.656,435.204C786.677,435.631 786.699,436.031 786.72,436.404C786.741,436.777 786.763,437.177 786.784,437.604C787.211,436.58 787.893,435.764 788.832,435.156C789.771,434.548 790.827,434.244 792,434.244C793.216,434.244 794.176,434.575 794.88,435.236C795.584,435.897 795.957,436.761 796,437.828L796,446.5L794.016,446.5L794.016,438.596C793.973,437.977 793.744,437.433 793.328,436.964C792.912,436.495 792.277,436.239 791.424,436.196C790.827,436.196 790.251,436.303 789.696,436.516C789.141,436.729 788.656,437.017 788.24,437.38C787.824,437.743 787.493,438.175 787.248,438.676C787.003,439.177 786.88,439.727 786.88,440.324L786.88,446.5L784.864,446.5L784.864,434.5Z" style="fill:white;fill-rule:nonzero;"/>
        <path d="M811.072,426.692L813.056,426.692L813.056,434.372L816.48,434.372L816.48,436.324L813.056,436.324L813.056,446.5L811.072,446.5L811.072,436.324L808.352,436.324L808.352,434.372L811.072,434.372L811.072,426.692Z" style="fill:white;fill-rule:nonzero;"/>
        <path d="M819.68,422.5L821.696,422.5L821.696,436.164L821.6,437.604C822.048,436.58 822.725,435.775 823.632,435.188C824.539,434.601 825.6,434.287 826.816,434.244C828.032,434.244 828.992,434.575 829.696,435.236C830.4,435.897 830.773,436.761 830.816,437.828L830.816,446.5L828.832,446.5L828.832,438.596C828.789,437.977 828.56,437.433 828.144,436.964C827.728,436.495 827.093,436.239 826.24,436.196C825.643,436.196 825.067,436.303 824.512,436.516C823.957,436.729 823.472,437.017 823.056,437.38C822.64,437.743 822.309,438.175 822.064,438.676C821.819,439.177 821.696,439.727 821.696,440.324L821.696,446.5L819.68,446.5L819.68,422.5Z" style="fill:white;fill-rule:nonzero;"/>
        <path d="M840.608,436.164C839.541,436.164 838.619,436.484 837.84,437.124C837.061,437.764 836.587,438.564 836.416,439.524C836.373,439.737 836.347,439.951 836.336,440.164C836.325,440.377 836.32,440.591 836.32,440.804C837.536,440.335 838.752,439.871 839.968,439.412C841.184,438.953 842.4,438.489 843.616,438.02C843.296,437.465 842.875,437.017 842.352,436.676C841.829,436.335 841.248,436.164 840.608,436.164ZM846.176,439.14L836.864,442.692C837.227,443.332 837.733,443.844 838.384,444.228C839.035,444.612 839.776,444.804 840.608,444.804C841.184,444.804 841.723,444.697 842.224,444.484C842.725,444.271 843.157,443.983 843.52,443.62C843.712,443.855 843.909,444.095 844.112,444.34C844.315,444.585 844.523,444.825 844.736,445.06C844.181,445.593 843.557,446.009 842.864,446.308C842.171,446.607 841.419,446.756 840.608,446.756C839.733,446.756 838.912,446.591 838.144,446.26C837.376,445.929 836.704,445.481 836.128,444.916C835.552,444.351 835.099,443.689 834.768,442.932C834.437,442.175 834.272,441.359 834.272,440.484C834.272,439.631 834.437,438.82 834.768,438.052C835.099,437.284 835.552,436.617 836.128,436.052C836.704,435.487 837.376,435.039 838.144,434.708C838.912,434.377 839.733,434.212 840.608,434.212C841.269,434.212 841.893,434.335 842.48,434.58C843.067,434.825 843.6,435.167 844.08,435.604C844.56,436.041 844.981,436.564 845.344,437.172C845.707,437.78 845.984,438.436 846.176,439.14Z" style="fill:white;fill-rule:nonzero;"/>
        <path d="M870.464,440.484C870.464,439.887 870.357,439.321 870.144,438.788C869.931,438.255 869.632,437.796 869.248,437.412C868.864,437.028 868.405,436.724 867.872,436.5C867.339,436.276 866.752,436.164 866.112,436.164C865.493,436.164 864.917,436.276 864.384,436.5C863.851,436.724 863.392,437.028 863.008,437.412C862.624,437.796 862.32,438.255 862.096,438.788C861.872,439.321 861.76,439.887 861.76,440.484C861.76,441.103 861.872,441.673 862.096,442.196C862.32,442.719 862.624,443.172 863.008,443.556C863.392,443.94 863.851,444.244 864.384,444.468C864.917,444.692 865.493,444.804 866.112,444.804C866.752,444.804 867.339,444.692 867.872,444.468C868.405,444.244 868.864,443.94 869.248,443.556C869.632,443.172 869.931,442.719 870.144,442.196C870.357,441.673 870.464,441.103 870.464,440.484ZM872.48,440.484C872.48,441.337 872.315,442.143 871.984,442.9C871.653,443.657 871.205,444.324 870.64,444.9C870.075,445.476 869.403,445.929 868.624,446.26C867.845,446.591 867.008,446.756 866.112,446.756C865.472,446.756 864.885,446.676 864.352,446.516C863.819,446.356 863.355,446.159 862.96,445.924C862.565,445.689 862.245,445.439 862,445.172C861.755,444.905 861.6,444.665 861.536,444.452L861.536,446.5L859.776,446.5L859.776,422.5L861.76,422.5L861.76,435.364C861.717,435.599 861.68,435.812 861.648,436.004C861.616,436.196 861.579,436.399 861.536,436.612C861.6,436.399 861.765,436.153 862.032,435.876C862.299,435.599 862.635,435.337 863.04,435.092C863.445,434.847 863.909,434.639 864.432,434.468C864.955,434.297 865.515,434.212 866.112,434.212C867.008,434.212 867.845,434.377 868.624,434.708C869.403,435.039 870.075,435.492 870.64,436.068C871.205,436.644 871.653,437.311 871.984,438.068C872.315,438.825 872.48,439.631 872.48,440.484Z" style="fill:white;fill-rule:nonzero;"/>
        <path d="M875.296,440.484C875.296,439.631 875.461,438.82 875.792,438.052C876.123,437.284 876.576,436.617 877.152,436.052C877.728,435.487 878.4,435.039 879.168,434.708C879.936,434.377 880.757,434.212 881.632,434.212C882.528,434.212 883.365,434.377 884.144,434.708C884.923,435.039 885.6,435.487 886.176,436.052C886.752,436.617 887.205,437.284 887.536,438.052C887.867,438.82 888.032,439.631 888.032,440.484C888.032,441.359 887.867,442.175 887.536,442.932C887.205,443.689 886.752,444.351 886.176,444.916C885.6,445.481 884.923,445.929 884.144,446.26C883.365,446.591 882.528,446.756 881.632,446.756C880.757,446.756 879.936,446.591 879.168,446.26C878.4,445.929 877.728,445.481 877.152,444.916C876.576,444.351 876.123,443.689 875.792,442.932C875.461,442.175 875.296,441.359 875.296,440.484ZM877.28,440.516C877.28,441.113 877.392,441.673 877.616,442.196C877.84,442.719 878.149,443.172 878.544,443.556C878.939,443.94 879.397,444.244 879.92,444.468C880.443,444.692 881.003,444.804 881.6,444.804C882.197,444.804 882.757,444.692 883.28,444.468C883.803,444.244 884.261,443.94 884.656,443.556C885.051,443.172 885.36,442.719 885.584,442.196C885.808,441.673 885.92,441.113 885.92,440.516C885.92,439.919 885.808,439.353 885.584,438.82C885.36,438.287 885.051,437.823 884.656,437.428C884.261,437.033 883.803,436.724 883.28,436.5C882.757,436.276 882.197,436.164 881.6,436.164C881.003,436.164 880.443,436.276 879.92,436.5C879.397,436.724 878.939,437.033 878.544,437.428C878.149,437.823 877.84,438.287 877.616,438.82C877.392,439.353 877.28,439.919 877.28,440.516Z" style="fill:white;fill-rule:nonzero;"/>
        <path d="M894.784,440.196C894.101,439.236 893.408,438.287 892.704,437.348C892,436.409 891.307,435.46 890.624,434.5L893.088,434.5C893.664,435.289 894.24,436.073 894.816,436.852C895.392,437.631 895.968,438.404 896.544,439.172C897.099,438.404 897.659,437.631 898.224,436.852C898.789,436.073 899.349,435.289 899.904,434.5L902.368,434.5C901.6,435.567 900.832,436.623 900.064,437.668C899.296,438.713 898.539,439.769 897.792,440.836C898.475,441.796 899.168,442.74 899.872,443.668C900.576,444.596 901.28,445.54 901.984,446.5L899.456,446.5C898.88,445.732 898.309,444.959 897.744,444.18C897.179,443.401 896.608,442.617 896.032,441.828C895.477,442.617 894.912,443.401 894.336,444.18C893.76,444.959 893.195,445.732 892.64,446.5L890.176,446.5C890.944,445.455 891.712,444.404 892.48,443.348C893.248,442.292 894.016,441.241 894.784,440.196Z" style="fill:white;fill-rule:nonzero;"/>
        <path d="M926.528,440.484C926.528,439.887 926.421,439.321 926.208,438.788C925.995,438.255 925.696,437.796 925.312,437.412C924.928,437.028 924.469,436.724 923.936,436.5C923.403,436.276 922.816,436.164 922.176,436.164C921.557,436.164 920.981,436.276 920.448,436.5C919.915,436.724 919.456,437.028 919.072,437.412C918.688,437.796 918.384,438.255 918.16,438.788C917.936,439.321 917.824,439.887 917.824,440.484C917.824,441.103 917.936,441.673 918.16,442.196C918.384,442.719 918.688,443.172 919.072,443.556C919.456,443.94 919.915,444.244 920.448,444.468C920.981,444.692 921.557,444.804 922.176,444.804C922.816,444.804 923.403,444.692 923.936,444.468C924.469,444.244 924.928,443.94 925.312,443.556C925.696,443.172 925.995,442.719 926.208,442.196C926.421,441.673 926.528,441.103 926.528,440.484ZM928.544,440.484C928.544,441.337 928.379,442.143 928.048,442.9C927.717,443.657 927.269,444.324 926.704,444.9C926.139,445.476 925.467,445.929 924.688,446.26C923.909,446.591 923.072,446.756 922.176,446.756C921.536,446.756 920.949,446.676 920.416,446.516C919.883,446.356 919.419,446.159 919.024,445.924C918.629,445.689 918.309,445.439 918.064,445.172C917.819,444.905 917.664,444.665 917.6,444.452L917.6,446.5L915.84,446.5L915.84,422.5L917.824,422.5L917.824,435.364C917.781,435.599 917.744,435.812 917.712,436.004C917.68,436.196 917.643,436.399 917.6,436.612C917.664,436.399 917.829,436.153 918.096,435.876C918.363,435.599 918.699,435.337 919.104,435.092C919.509,434.847 919.973,434.639 920.496,434.468C921.019,434.297 921.579,434.212 922.176,434.212C923.072,434.212 923.909,434.377 924.688,434.708C925.467,435.039 926.139,435.492 926.704,436.068C927.269,436.644 927.717,437.311 928.048,438.068C928.379,438.825 928.544,439.631 928.544,440.484Z" style="fill:white;fill-rule:nonzero;"/>
        <path d="M937.696,436.164C936.629,436.164 935.707,436.484 934.928,437.124C934.149,437.764 933.675,438.564 933.504,439.524C933.461,439.737 933.435,439.951 933.424,440.164C933.413,440.377 933.408,440.591 933.408,440.804C934.624,440.335 935.84,439.871 937.056,439.412C938.272,438.953 939.488,438.489 940.704,438.02C940.384,437.465 939.963,437.017 939.44,436.676C938.917,436.335 938.336,436.164 937.696,436.164ZM943.264,439.14L933.952,442.692C934.315,443.332 934.821,443.844 935.472,444.228C936.123,444.612 936.864,444.804 937.696,444.804C938.272,444.804 938.811,444.697 939.312,444.484C939.813,444.271 940.245,443.983 940.608,443.62C940.8,443.855 940.997,444.095 941.2,444.34C941.403,444.585 941.611,444.825 941.824,445.06C941.269,445.593 940.645,446.009 939.952,446.308C939.259,446.607 938.507,446.756 937.696,446.756C936.821,446.756 936,446.591 935.232,446.26C934.464,445.929 933.792,445.481 933.216,444.916C932.64,444.351 932.187,443.689 931.856,442.932C931.525,442.175 931.36,441.359 931.36,440.484C931.36,439.631 931.525,438.82 931.856,438.052C932.187,437.284 932.64,436.617 933.216,436.052C933.792,435.487 934.464,435.039 935.232,434.708C936,434.377 936.821,434.212 937.696,434.212C938.357,434.212 938.981,434.335 939.568,434.58C940.155,434.825 940.688,435.167 941.168,435.604C941.648,436.041 942.069,436.564 942.432,437.172C942.795,437.78 943.072,438.436 943.264,439.14Z" style="fill:white;fill-rule:nonzero;"/>
        <rect x="946.752" y="422.5" width="2.016" height="24" style="fill:white;fill-rule:nonzero;"/>
        <path d="M951.904,440.484C951.904,439.631 952.069,438.82 952.4,438.052C952.731,437.284 953.184,436.617 953.76,436.052C954.336,435.487 955.008,435.039 955.776,434.708C956.544,434.377 957.365,434.212 958.24,434.212C959.136,434.212 959.973,434.377 960.752,434.708C961.531,435.039 962.208,435.487 962.784,436.052C963.36,436.617 963.813,437.284 964.144,438.052C964.475,438.82 964.64,439.631 964.64,440.484C964.64,441.359 964.475,442.175 964.144,442.932C963.813,443.689 963.36,444.351 962.784,444.916C962.208,445.481 961.531,445.929 960.752,446.26C959.973,446.591 959.136,446.756 958.24,446.756C957.365,446.756 956.544,446.591 955.776,446.26C955.008,445.929 954.336,445.481 953.76,444.916C953.184,444.351 952.731,443.689 952.4,442.932C952.069,442.175 951.904,441.359 951.904,440.484ZM953.888,440.516C953.888,441.113 954,441.673 954.224,442.196C954.448,442.719 954.757,443.172 955.152,443.556C955.547,443.94 956.005,444.244 956.528,444.468C957.051,444.692 957.611,444.804 958.208,444.804C958.805,444.804 959.365,444.692 959.888,444.468C960.411,444.244 960.869,443.94 961.264,443.556C961.659,443.172 961.968,442.719 962.192,442.196C962.416,441.673 962.528,441.113 962.528,440.516C962.528,439.919 962.416,439.353 962.192,438.82C961.968,438.287 961.659,437.823 961.264,437.428C960.869,437.033 960.411,436.724 959.888,436.5C959.365,436.276 958.805,436.164 958.208,436.164C957.611,436.164 957.051,436.276 956.528,436.5C956.005,436.724 955.547,437.033 955.152,437.428C954.757,437.823 954.448,438.287 954.224,438.82C954,439.353 953.888,439.919 953.888,440.516Z" style="fill:white;fill-rule:nonzero;"/>
        <path d="M977.376,436.612C977.205,436.249 977.035,435.897 976.864,435.556C976.693,435.215 976.523,434.863 976.352,434.5L978.336,434.5C979.083,436.036 979.851,437.572 980.64,439.108C981.429,440.644 982.133,442.191 982.752,443.748C983.371,442.191 984.075,440.644 984.864,439.108C985.653,437.572 986.411,436.036 987.136,434.5L989.152,434.5C988.064,436.633 986.997,438.756 985.952,440.868C984.907,442.98 983.84,445.103 982.752,447.236C982.027,445.785 981.301,444.345 980.576,442.916C979.851,441.487 979.125,440.047 978.4,438.596C977.675,440.047 976.949,441.487 976.224,442.916C975.499,444.345 974.773,445.785 974.048,447.236C972.96,445.103 971.893,442.98 970.848,440.868C969.803,438.756 968.736,436.633 967.648,434.5L969.632,434.5C970.379,436.036 971.147,437.572 971.936,439.108C972.725,440.644 973.429,442.191 974.048,443.748C974.539,442.532 975.077,441.332 975.664,440.148C976.251,438.964 976.821,437.785 977.376,436.612Z" style="fill:white;fill-rule:nonzero;"/>
        <path d="M991.328,445.156C991.328,444.751 991.467,444.42 991.744,444.164C992.021,443.908 992.331,443.78 992.672,443.78C993.013,443.78 993.323,443.908 993.6,444.164C993.877,444.42 994.016,444.751 994.016,445.156C994.016,445.561 993.877,445.887 993.6,446.132C993.323,446.377 993.013,446.5 992.672,446.5C992.331,446.5 992.021,446.377 991.744,446.132C991.467,445.887 991.328,445.561 991.328,445.156Z" style="fill:white;fill-rule:nonzero;"/>
        <path d="M618.5,629.5L765.5,629.5L765.5,520.5L618.5,520.5L618.5,629.5ZM615.5,632.5L615.5,517.5L768.5,517.5L768.5,632.5L615.5,632.5Z" style="fill:white;"/>
    </g>
</svg>
