<?xml version="1.0" encoding="UTF-8"?>
<svg width="16px" height="16px" viewBox="0 0 16 16" version="1.1" xmlns="http://www.w3.org/2000/svg" xmlns:xlink="http://www.w3.org/1999/xlink">
    <!-- Generator: Sketch 42 (36781) - http://www.bohemiancoding.com/sketch -->
    <title>16x16</title>
    <desc>Created with Sketch.</desc>
    <defs></defs>
    <g id="Ephread" stroke="none" stroke-width="1" fill="none" fill-rule="evenodd">
        <g id="16x16" fill="#000000">
            <g id="Pomme" transform="translate(1.500000, 0.000000)">
                <path d="M6.50858893,4.83939028 C6.49419099,4.83908082 6.49059151,4.83908082 6.47619356,4.83784297 C6.46539511,4.83675984 6.45474663,4.83536726 6.44409816,4.83335574 C6.43869893,4.83242735 6.43344968,4.8311895 6.42820043,4.83010638 L6.42790047,4.83010638 C6.41485234,4.82670228 6.41140283,4.82608335 6.39850468,4.82206033 C6.38380678,4.81741837 6.36955882,4.81184803 6.35561081,4.80550403 C6.34166281,4.79916003 6.32816474,4.79188764 6.31496662,4.78384158 C6.30341828,4.77656919 6.30071866,4.77440295 6.28947027,4.76666636 L6.28932029,4.76651163 C6.28527087,4.76341699 6.28122145,4.76047709 6.27747199,4.75738245 C6.26577366,4.74809855 6.25452527,4.73804099 6.24402677,4.72751923 C6.23697778,4.72040157 6.23022874,4.71297444 6.22362969,4.70539259 C6.22048014,4.70152429 6.21733059,4.697656 6.21418104,4.6937877 L6.21403106,4.69347824 C6.20518233,4.68187336 6.20278267,4.67908819 6.19468383,4.66670965 C6.18658498,4.65448584 6.18493522,4.65123647 6.17758627,4.63839374 L6.17743629,4.63808427 C6.17533659,4.63390652 6.17308692,4.62988349 6.17098722,4.62570573 C6.1661879,4.61611236 6.16348829,4.60992309 6.15928889,4.60017499 C6.15733917,4.59537831 6.15508949,4.59058163 6.15328975,4.58563021 C6.14534088,4.56350357 6.14144144,4.55035137 6.13649215,4.52729634 C6.13484239,4.51971448 6.13364256,4.51182316 6.13244273,4.50408658 C6.12779339,4.4759254 6.12644359,4.44714529 6.12629361,4.41851992 C6.12614363,4.38277688 6.12779339,4.34687912 6.13019305,4.31113608 C6.13679211,4.21566659 6.14909035,4.12050656 6.16498807,4.02627493 C6.19783338,3.83038453 6.24627645,3.63743403 6.30821759,3.44928022 C6.3983547,3.17478609 6.51773762,2.91034953 6.66516654,2.66355238 C6.71870888,2.57411743 6.77585071,2.48700345 6.83644204,2.40251992 C6.85083998,2.38271425 6.86523792,2.36306332 6.87993582,2.34356712 C6.88893453,2.33134331 6.89808323,2.31896477 6.90783183,2.30735989 C6.9150308,2.29854018 6.92252973,2.29018466 6.93047859,2.28229335 C6.97022291,2.24221782 7.01821604,2.21127147 7.07055856,2.19223947 C7.11255255,2.17707575 7.1569462,2.1694939 7.20118988,2.16995809 C7.26238112,2.17057702 7.32297246,2.18651439 7.37681476,2.21622289 C7.42585774,2.24330094 7.46890159,2.28121022 7.50219683,2.32701082 C7.52214397,2.35455307 7.53864161,2.38472577 7.55108983,2.41660051 C7.56548777,2.45373613 7.57448649,2.49319272 7.57748606,2.53311352 C7.5834852,2.61310983 7.56518782,2.694344 7.5254435,2.7635091 C7.51989429,2.77341193 7.51374517,2.7830053 7.5072961,2.7922892 C7.500997,2.80157311 7.49649764,2.80714345 7.48989858,2.81580843 C7.48299957,2.82509233 7.47610056,2.83422151 7.46920154,2.84350541 C7.46020283,2.85588395 7.45120412,2.86810776 7.44235538,2.88064103 C7.38881304,2.95584066 7.33872021,3.03367073 7.29237683,3.11382178 C7.15949584,3.3439079 7.05691051,3.59240709 6.9856707,3.84988073 C6.95732475,3.95200368 6.9339281,4.05567396 6.91638061,4.16027262 C6.90978155,4.19988395 6.90408237,4.23949528 6.89928305,4.27926134 C6.89508366,4.31407598 6.89178413,4.34889063 6.88983441,4.38386 C6.88968443,4.38710937 6.88953445,4.39035874 6.88938447,4.3936081 L6.88923449,4.39716694 L6.8905843,4.40954548 C6.89163415,4.42470919 6.89223406,4.42857748 6.89223406,4.44374119 C6.89238404,4.46664149 6.8905843,4.48954179 6.88683483,4.51213263 C6.87468657,4.58563021 6.84199125,4.6547953 6.7933982,4.71003454 C6.78229979,4.72272254 6.7703015,4.73479162 6.75755332,4.7459323 C6.74630493,4.75568041 6.74315538,4.75784665 6.73130708,4.76682109 L6.7311571,4.76697582 C6.71975873,4.77502187 6.71690914,4.77718812 6.70506083,4.78446051 C6.69171274,4.79250656 6.67791471,4.79993369 6.66381673,4.80627769 C6.64956877,4.81277642 6.63502085,4.81819203 6.62017297,4.82283399 C6.61522368,4.8243813 6.61012441,4.82561916 6.60517512,4.82716647 L6.60502514,4.82716647 C6.59092716,4.83057057 6.58747765,4.8316537 6.57322969,4.8341294 C6.56258121,4.83583145 6.55178275,4.83722404 6.5409843,4.83815243 C6.53573505,4.83861662 6.53018584,4.83877136 6.52478662,4.83908082 C6.51938739,4.83923555 6.51398816,4.83939028 6.50858893,4.83939028 L6.50858893,4.83939028 Z M6.83134277,4.23253235 C6.82594354,4.22278425 6.82594354,4.22293898 6.81904453,4.214274 L6.82219408,4.21845176 C6.82519365,4.22324845 6.82819322,4.2278904 6.83134277,4.23253235 Z M6.79399811,4.18239926 C6.77300112,4.15563067 6.77255118,4.15563067 6.74540506,4.13567027 L6.75455375,4.1430974 C6.76715195,4.15439282 6.76715195,4.15439282 6.77915024,4.16615243 C6.78694912,4.17450794 6.7870991,4.17419848 6.79399811,4.18239926 L6.79399811,4.18239926 Z" id="Shape" fill-rule="nonzero"></path>
                <polygon id="Shape" points="4.28254076 4.01958462 4.32878094 4.02066774 4.37487668 4.02206033 4.41888618 4.02391711 4.46275043 4.02608335 4.50677104 4.02871379 4.55064555 4.0316537 4.59452588 4.03505779 4.63840882 4.03877136 4.6822966 4.04294911 4.72603659 4.04743633 4.76978044 4.05238775 4.81352521 4.05764863 4.85712335 4.0633737 4.90087106 4.06940824 4.94431947 4.07575224 4.98791888 4.08256044 5.03136767 4.0896781 5.07481701 4.09725996 5.11811491 4.10515128 5.16141049 4.11335206 5.20470524 4.12201704 5.24784741 4.13099148 5.29083665 4.14027539 5.33397314 4.15002349 5.37680651 4.16008105 5.41963522 4.17044808 5.46245892 4.18112457 5.50512935 4.19226525 5.54764463 4.2037154 5.59015377 4.21547502 5.63250837 4.22769883 5.67485483 4.24007737 5.71704599 4.2529201 5.75908028 4.2660723 5.82368723 4.28696109 5.88797593 4.30862353 5.95194522 4.33105964 6.01574306 4.3542694 6.07921911 4.37825282 6.14237224 4.4030099 6.20535033 4.42854064 6.26785383 4.45469031 6.32570815 4.47975685 6.38323918 4.50544232 6.44059505 4.53174672 6.49762599 4.55851531 6.54763942 4.54768409 6.59349984 4.52617638 6.66187577 4.49523003 6.73073593 4.4649026 6.79992979 4.43550357 6.86960441 4.40718766 6.93796791 4.38026433 7.00665903 4.3542694 7.07567627 4.32920286 7.14501893 4.30490997 7.21468385 4.28170021 7.28467127 4.2592641 7.35497876 4.23775639 7.42545416 4.2173318 7.47244697 4.20433433 7.51944805 4.19164633 7.56645558 4.17942252 7.6137677 4.16766291 7.66108672 4.15621276 7.70855836 4.14538153 7.75603586 4.13485977 7.8036665 4.12480221 7.85144969 4.11520884 7.89923544 4.10607967 7.94717458 4.09725996 7.99511317 4.08905918 8.04305465 4.08116786 8.09114592 4.07374073 8.13938642 4.0667778 8.18762372 4.0604338 8.2358618 4.05439926 8.28409779 4.04882892 8.33248062 4.04372277 8.38086017 4.03908082 8.42938538 4.03490306 8.47775654 4.0311895 8.52626936 4.02809487 8.57477918 4.02530969 8.62328269 4.02298872 8.67192584 4.02128667 8.72041174 4.02004881 8.76904205 4.01912042 8.81751083 4.01881096 8.86611967 4.01896569 8.91456549 4.01973935 8.96315341 4.02082247 9.01157694 4.02252452 9.05983882 4.02469077 9.10808801 4.02732121 9.15647346 4.03041584 9.2046917 4.0341294 9.25274954 4.03815243 9.30093794 4.04279438 9.348957 4.04805526 9.39681393 4.0536256 9.44479927 4.05981487 9.49261728 4.06646834 9.54026739 4.073586 9.58789426 4.08132259 9.63535192 4.08952337 9.68278929 4.09818835 9.73020129 4.10747225 9.78160388 4.11799401 9.83282411 4.12928943 9.88386563 4.14120378 9.93473238 4.15358232 9.98556348 4.16673452 10.0360689 4.18035091 10.086537 4.19474096 10.1366779 4.20959521 10.1866304 4.22522312 10.2364038 4.24131522 10.2859869 4.25818098 10.3352402 4.27551094 10.3843071 4.29345982 10.4331814 4.31218236 10.4817238 4.3313691 10.5300776 4.35117476 10.6003907 4.38150219 10.67032 4.41306746 10.7394104 4.44602533 10.8079639 4.48022105 10.8756745 4.51580935 10.9428444 4.55263551 11.009174 4.59069952 11.0746554 4.63015611 11.1093117 4.65166383 11.1436374 4.67363574 11.1777938 4.69576238 11.211761 4.71850794 11.24541 4.74140824 11.2787274 4.76477274 11.3118682 4.7884467 11.3448322 4.81243012 11.3774639 4.83687773 11.40977 4.86163481 11.4418988 4.88670136 11.4737018 4.91207737 11.5053201 4.93791757 11.5366194 4.9639125 11.5675854 4.99037163 11.5982251 5.01714023 11.6457404 5.05984619 11.6924474 5.10317108 11.7384795 5.14742436 11.7837031 5.19229657 11.8282513 5.23809717 11.8719832 5.28467143 11.9149064 5.33186461 11.9570135 5.37983145 11.9983045 5.42857195 12.0389271 5.47808612 12.0785938 5.5282192 12.1176003 5.57897122 12.1556437 5.63049689 12.19288 5.68264149 12.229154 5.73555975 12.2646297 5.78894221 12.2922313 5.83195763 12.3192127 5.87512779 12.3457051 5.91876215 12.3715616 5.9628607 12.3969379 6.00726871 12.4216874 6.05198618 12.4459573 6.09701312 12.4695929 6.14250426 12.4927496 6.18830486 12.5152898 6.23426019 12.537197 6.28067971 12.5586266 6.3274087 12.5794327 6.37444716 12.599762 6.42179507 12.6193313 6.46929772 12.6385711 6.51710983 12.6542578 6.55764955 12.669484 6.598344 12.6843872 6.63934792 12.6988394 6.68035183 12.7128234 6.72166521 12.7264943 6.76313332 12.7398612 6.80460143 12.7526152 6.846379 12.765057 6.88831131 12.777196 6.93024361 12.788869 6.97248538 12.8000853 7.01488188 12.8109998 7.05727838 12.8214586 7.09982961 12.8316073 7.14253557 12.841301 7.18539627 12.8494154 7.22284135 12.8572412 7.26013171 12.8647516 7.29773152 12.8721192 7.33517661 12.8790267 7.37293115 12.8856469 7.41053097 12.8920977 7.44844025 12.8981168 7.4861948 12.9039669 7.52425881 12.9095308 7.56216809 12.9147905 7.6002321 12.9197555 7.63829611 12.9244169 7.67651485 12.9289287 7.71473359 12.9329928 7.75310707 12.9369172 7.79132581 12.9405482 7.82954455 12.9437512 7.86760857 12.9467967 7.90582731 12.9497034 7.94389132 12.9521551 7.98226479 12.9544685 8.02048354 12.9564811 8.05885701 12.9582118 8.09707575 12.9596382 8.13312825 12.9607837 8.16902602 12.9617736 8.20507852 12.9624736 8.24113102 12.9630279 8.27718351 12.9634366 8.31323601 12.9635561 8.34928851 12.9633773 8.38549574 12.9627255 8.44847156 12.9613432 8.51160212 12.9593937 8.57457794 12.9568592 8.6377085 12.953607 8.70083905 12.9497815 8.76396961 12.9453931 8.82694543 12.940424 8.89007598 12.934894 8.95305181 12.9287855 9.01618236 12.9219754 9.07915819 12.9147409 9.14213401 12.9069403 9.20510983 12.8985839 9.26793092 12.889654 9.33090675 12.8803219 9.39357311 12.8704183 9.4563942 12.8599628 9.51906056 12.848947 9.58172692 12.8375232 9.64423854 12.825541 9.70675017 12.8131525 9.76910707 12.8003492 9.83146397 12.7869993 9.89366613 12.7730948 9.95586829 12.7589286 10.0179157 12.7442093 10.0799632 12.7290975 10.1417011 12.7134345 10.2034391 12.6975125 10.2650223 12.6810408 10.3266056 12.6643205 10.3878793 12.6521915 10.4312042 12.6399386 10.4743744 12.6274213 10.5173898 12.6147625 10.56056 12.6018397 10.6035754 12.588794 10.6464361 12.5754758 10.6892968 12.5620261 10.7321575 12.5484539 10.7748635 12.5346101 10.8175694 12.5206353 10.8602754 12.5065387 10.9028266 12.4921712 10.9453778 12.4776822 10.9877743 12.4629228 11.0301708 12.4481824 11.0724126 12.4315167 11.1191416 12.4147324 11.1657159 12.3976812 11.2122901 12.380512 11.2587096 12.3630763 11.3051292 12.3455231 11.351394 12.3278436 11.3976588 12.3099072 11.4437688 12.2950925 11.4816781 12.2801563 11.5194327 12.2652295 11.5571872 12.2501813 11.594787 12.2349948 11.6325416 12.2196872 11.6701414 12.2043977 11.7075865 12.1888311 11.7451863 12.1662484 11.7993424 12.1434083 11.8534985 12.1204503 11.9076546 12.0972524 11.9615013 12.0737983 12.0153479 12.0500884 12.0691946 12.0261397 12.1227318 12.0020827 12.1761142 11.9776323 12.2294967 11.9530743 12.2827244 11.9282704 12.3357974 11.9032209 12.3887156 11.8779262 12.4414792 11.8523786 12.4942427 11.8267324 12.5466968 11.8007039 12.5989961 11.7788682 12.6426304 11.7567815 12.6861101 11.7345818 12.729435 11.7121236 12.7727598 11.6895606 12.8157753 11.6668773 12.8587907 11.6439361 12.9018061 11.6208905 12.9445121 11.5975875 12.9872181 11.574043 13.0296146 11.5505162 13.0720111 11.5266032 13.1142528 11.5025711 13.1564946 11.4784352 13.1984269 11.4540509 13.2402045 11.4294184 13.2818273 11.4046674 13.3234501 11.3796761 13.3647635 11.3545667 13.4060769 11.3292172 13.4470808 11.3037571 13.48793 11.2779132 13.5286245 11.2520957 13.5691642 11.2258949 13.6095492 11.199584 13.6497794 11.1730268 13.6898549 11.1463668 13.729621 11.1193244 13.7692323 11.0923087 13.8086889 11.0649109 13.8479908 11.0374037 13.8871379 11.0095218 13.9259756 10.9718169 13.9781202 10.9334821 14.0299553 10.8949326 14.0813263 10.8558899 14.1323878 10.8164969 14.182985 10.7767538 14.2331181 10.7366606 14.282787 10.6960753 14.3321464 10.6551467 14.3808869 10.6137328 14.4291633 10.5719694 14.4769754 10.5298564 14.5243233 10.4872585 14.571207 10.4443173 14.6174718 10.4010325 14.6631177 10.3572629 14.7082993 10.3078186 14.758123 10.2579048 14.8073277 10.2075329 14.855604 10.1565562 14.9032613 10.1051151 14.9501451 10.0532147 14.9961004 10.0008489 15.0412821 9.94788261 15.0856901 9.89458993 15.1291697 9.84070093 15.1717209 9.78648387 15.2133438 9.73166902 15.2540382 9.67638514 15.293959 9.6207755 15.3327967 9.56457036 15.3705512 9.50803238 15.4073774 9.4523949 15.4423468 9.39642494 15.476233 9.33998268 15.5091909 9.2832054 15.5410656 9.22609164 15.5718572 9.16850603 15.6015657 9.11071089 15.6303458 9.05244507 15.6578881 8.98680254 15.6874419 8.92069735 15.715603 8.8542609 15.7423716 8.78749075 15.7677476 8.72039125 15.7914216 8.6529493 15.8138577 8.5851723 15.8345918 8.5170508 15.8539332 8.44268223 15.87312 8.36810985 15.8904499 8.29319611 15.9059231 8.21807047 15.9195395 8.14273132 15.9311444 8.06730282 15.9410472 7.99178797 15.9487838 7.9160419 15.9548183 7.84033374 15.9586866 7.76465466 15.9606981 7.68886876 15.9606981 7.61323657 15.9588414 7.53762354 15.9548183 7.46202325 15.9487838 7.38669795 15.9407377 7.31150965 15.9306802 7.27191515 15.9246456 7.23232127 15.9178374 7.19285851 15.910565 7.15352731 15.9026737 7.11419344 15.8941635 7.07498884 15.885189 7.03591379 15.8755957 6.99683403 15.8653834 6.95801662 15.8543974 6.91919237 15.8429473 6.88062794 15.8310329 6.8420566 15.8183449 6.80374429 15.805038 6.76555675 15.7911121 6.72749331 15.7765673 6.68968702 15.7614036 6.645722 15.7428358 6.60214232 15.7233396 6.55881318 15.7030698 6.51559993 15.6820262 6.47760967 15.6987373 6.40835281 15.7309215 6.37293824 15.7465494 6.33686516 15.7615584 6.30066827 15.7761032 6.26421302 15.790029 6.22549719 15.8042643 6.18452101 15.8184997 6.14328638 15.8319613 6.10192671 15.8448041 6.06044127 15.8570279 6.01869497 15.868478 5.97695398 15.8791545 5.93495123 15.8892121 5.89295302 15.8986507 5.85082399 15.9073157 5.80856433 15.9153617 5.76630674 15.9227889 5.72391697 15.9295971 5.6813929 15.9356316 5.63886842 15.9410472 5.5962078 15.9456892 5.54701419 15.9504858 5.49114717 15.9546636 5.43513937 15.9577582 5.37912421 15.9599245 5.3282999 15.9608529 5.27759815 15.9608529 5.22221414 15.9599245 5.16681407 15.957913 5.11152954 15.9548183 5.05636107 15.9507953 5.00156921 15.9455344 4.94675906 15.9394999 4.89219111 15.9323822 4.83759667 15.9241814 4.78297671 15.9150523 4.72859385 15.90484 4.6743158 15.8936993 4.61356784 15.8800829 4.54633344 15.8635266 4.47944514 15.845423 4.41276643 15.825772 4.34629778 15.8047285 4.28030391 15.7822924 4.21451137 15.758309 4.14905478 15.732933 4.09001637 15.7087948 4.03741085 15.686204 3.9850253 15.6626848 3.93285844 15.6382372 3.88104292 15.6128612 3.82958184 15.5867115 3.77820639 15.5597882 3.72731312 15.5319364 3.68113221 15.5057868 3.63954016 15.4814939 3.59818252 15.4567368 3.55719309 15.4315155 3.51629853 15.4056753 3.47563719 15.3793709 3.43520389 15.3524476 3.39500299 15.3250601 3.34334822 15.2888529 3.31185274 15.266262 3.28060192 15.2433617 3.24932681 15.220152 3.21829605 15.1966327 3.18737504 15.1728041 3.15669813 15.1486659 3.12613069 15.1242183 3.07641602 15.0836786 3.02717341 15.0423652 2.97826767 15.0002781 2.92997338 14.9575722 2.89066946 14.9221386 2.85172601 14.8862408 2.81300224 14.8497242 2.77465021 14.8130527 2.73665254 14.7757624 2.69888581 14.7381626 2.66134398 14.7000985 2.62416205 14.6615703 2.58721086 14.6227327 2.55061953 14.5834308 2.51439425 14.5438195 2.47825814 14.503744 2.44248809 14.463359 2.4070779 14.4225098 2.37189848 14.3813511 2.33694983 14.339883 2.30236768 14.2981055 2.26815221 14.2560184 2.23402544 14.2134672 2.20027214 14.1707612 2.16687923 14.1275911 2.13358165 14.0841114 2.10065815 14.0404771 2.06810224 13.9965333 2.03563499 13.9521253 2.00367868 13.9075625 1.97182511 13.862845 1.94033286 13.8176634 1.90907989 13.772327 1.87806643 13.7268358 1.84728552 13.6810352 1.81687386 13.6349252 1.78242703 13.5820069 1.74834953 13.5289339 1.7146271 13.4753967 1.68127481 13.4217048 1.65899447 13.3853429 1.63698078 13.3491356 1.61493757 13.3126189 1.5931463 13.2759475 1.57147766 13.2392761 1.55006135 13.2024499 1.528768 13.1656238 1.50745283 13.1286429 1.48639039 13.0915073 1.46558087 13.0542169 1.44474968 13.0167718 1.42404197 12.9793267 1.4035954 12.9418816 1.38325704 12.9041271 1.36305048 12.8665273 1.34295227 12.828618 1.32297823 12.7907087 1.30325835 12.7526447 1.28352518 12.7145807 1.26404647 12.676362 1.2445466 12.6379885 1.22530949 12.599615 1.20619744 12.5612415 1.18719437 12.5225586 1.1683247 12.4840304 1.14957234 12.4453475 1.13093737 12.4065098 1.11242808 12.3676721 1.09403639 12.3286797 1.07577065 12.2896873 1.05763102 12.2506949 1.03974784 12.2115478 1.02278379 12.1742574 1.00581719 12.1371218 0.989108676 12.0998315 0.972519771 12.0623864 0.956058982 12.0249413 0.939587659 11.9874962 0.923236195 11.9498964 0.907013157 11.9122966 0.890918698 11.8746968 0.874944449 11.8369422 0.859099043 11.7991877 0.843243526 11.7614331 0.82764763 11.7235238 0.812041788 11.6856146 0.796565258 11.6477053 0.781209552 11.6096413 0.754492122 11.5431066 0.728006555 11.4762625 0.701910261 11.4094184 0.676186499 11.3422648 0.650853507 11.2751112 0.625754568 11.2076482 0.601187672 11.1401851 0.576996074 11.0724126 0.560094772 11.0246005 0.543591963 10.9766337 0.527207705 10.9285121 0.511091414 10.8803905 0.495094116 10.8321142 0.479365397 10.7838379 0.463896607 10.7354069 0.448697144 10.6869758 0.433758321 10.6383901 0.418948885 10.5898043 0.404400676 10.5410638 0.390123166 10.4923233 0.376116753 10.4435828 0.362363503 10.3945328 0.348891257 10.3456376 0.335682069 10.2965876 0.319298874 10.2346949 0.303456394 10.1726475 0.288014245 10.1104453 0.272982397 10.0482431 0.258352325 9.98588625 0.24426633 9.92337463 0.230593019 9.860863 0.217323825 9.79819664 0.204601314 9.73537555 0.192293887 9.67255446 0.180544325 9.60973336 0.169344272 9.54675754 0.158552533 9.48362699 0.148321509 9.42049643 0.13850987 9.35736588 0.129403266 9.29423532 0.120708507 9.23095003 0.112578378 9.16766475 0.105004478 9.10422473 0.0980066867 9.04093944 0.0915671703 8.97749942 0.085839343 8.91405941 0.0805384091 8.85061939 0.0758082677 8.78717937 0.0717931613 8.72373935 0.0683510782 8.66029933 0.0654736061 8.59670458 0.0631806604 8.53326456 0.0616073836 8.46982455 0.0607644944 8.40653926 0.0604906832 8.34309924 0.0607964156 8.27965922 0.0620566795 8.20817315 0.0640445182 8.13668708 0.0670589812 8.06535574 0.0708136632 7.99417914 0.0735115959 7.95302049 0.0763672125 7.91201658 0.0796600309 7.87101266 0.0831017071 7.83000875 0.0869907007 7.78915957 0.0911736197 7.74831038 0.0955062084 7.7074612 0.100287227 7.66676675 0.105157438 7.62746489 0.110467211 7.58816302 0.115936695 7.54901589 0.121701606 7.50986875 0.127762262 7.47072162 0.13427318 7.43172922 0.140944771 7.39289155 0.147913005 7.35405388 0.155178197 7.31521621 0.162895019 7.27653327 0.170773453 7.23800507 0.17894973 7.19947686 0.187578629 7.16110338 0.196369814 7.12288464 0.205605144 7.0846659 0.214994122 7.04644716 0.226630016 7.00172968 0.238714571 6.9570122 0.251111693 6.91244946 0.264113127 6.86804145 0.277436941 6.8239429 0.291357124 6.77984435 0.305600457 6.73605526 0.320304201 6.69242091 0.335468812 6.64894128 0.351094745 6.60561639 0.367045144 6.56260097 0.383603783 6.51974027 0.400625024 6.47703431 0.417971744 6.43463781 0.435781762 6.39239604 0.454210619 6.35046373 0.476729113 6.30017592 0.50002978 6.25035229 0.524104718 6.20083813 0.548669857 6.15178816 0.573863703 6.10304766 0.599833629 6.05461662 0.626295016 6.00664978 0.653541978 5.95914713 0.681272734 5.91195395 0.709790045 5.86522496 0.73880018 5.81896017 0.768589506 5.77300484 0.798880454 5.72766843 0.829959564 5.68279622 0.861524494 5.63823348 0.893738954 5.59428966 0.932951163 5.54245452 0.973120245 5.49123831 1.01410689 5.44079576 1.0559112 5.39112687 1.09853323 5.34223164 1.14197302 5.29411006 1.18623058 5.24676215 1.23129837 5.20003316 1.27704337 5.15423256 1.32375393 5.10920562 1.3711411 5.06510707 1.41918987 5.02162745 1.46806268 4.97907621 1.51761078 4.93745337 1.56797492 4.89660419 1.6190133 4.8566834 1.65246501 4.83115266 1.68610181 4.80608612 1.72022046 4.78148377 1.7545102 4.75703615 1.78899101 4.73320746 1.82379114 4.7095335 1.8589238 4.68632374 1.89424001 4.66357817 1.92988165 4.64114207 1.96569985 4.61901543 2.00184954 4.59735298 2.03818161 4.57615473 2.0746894 4.55526595 2.11152779 4.53484135 2.14854139 4.51472623 2.18573607 4.49507529 2.22222981 4.47619802 2.25890331 4.45778494 2.29589923 4.43968133 2.33292525 4.42204191 2.37027314 4.40471195 2.40764456 4.38769146 2.44534315 4.37113516 2.48321942 4.35504306 2.52111819 4.33926042 2.55933745 4.32378724 2.59773335 4.30877826 2.63615078 4.29407875 2.67474404 4.27984343 2.71366196 4.2660723 2.75259501 4.25245591 2.79155877 4.23945844 2.84309769 4.22274741 2.89482722 4.20681004 2.94674128 4.1914916 2.99883907 4.17679208 3.05127402 4.16286622 3.10374152 4.14955929 3.15653953 4.13687129 3.20936838 4.12480221 3.26253067 4.11350679 3.31571741 4.10267557 3.36908628 4.09261801 3.42263619 4.0833341 3.47620798 4.07451439 3.52995469 4.06631361 3.58387959 4.05888648 3.63782798 4.05207829 3.68359824 4.04681741 3.72938465 4.04202072 3.77533617 4.03768823 3.8213027 4.03381994 3.86727991 4.03026111 3.91327477 4.02732121 3.95928288 4.0248455 4.0054497 4.02267925 4.05163223 4.02113194 4.0976733 4.01989408 4.14387502 4.01912042 4.19008722 4.01881096 4.23630933 4.01896569"></polygon>
                <path d="M6.16693779,3.13068754 C3.83252166,2.85944278 2.89245611,1.6543919 2.47866529,0.0970168087 C4.55046898,0.324627216 5.97796482,1.15166843 6.16693779,3.13068754 Z" id="Shape"></path>
            </g>
        </g>
    </g>
</svg>