<svg xmlns="http://www.w3.org/2000/svg" width="16" height="16" viewBox="0 0 16 16"><g fill-rule="evenodd"><path fill-rule="nonzero" d="M8.009 4.84c-.015 0-.018 0-.033-.002a.373.373 0 0 1-.032-.005l-.016-.003-.03-.008a.38.38 0 0 1-.083-.038l-.026-.017-.012-.01a.39.39 0 0 1-.053-.052l-.01-.011-.02-.027c-.007-.013-.01-.016-.016-.029l-.007-.012a.431.431 0 0 1-.012-.026l-.006-.014a.392.392 0 0 1-.017-.059l-.004-.023a.543.543 0 0 1-.006-.085c0-.036.002-.072.004-.108a3.92 3.92 0 0 1 .178-.862 3.914 3.914 0 0 1 .572-1.105.717.717 0 0 1 .05-.062.382.382 0 0 1 .271-.112.372.372 0 0 1 .301.157.403.403 0 0 1 .005.465l-.017.024-.02.028-.028.037a3.156 3.156 0 0 0-.553 1.503v.013l.002.013.001.034a.402.402 0 0 1-.134.302l-.027.02v.001l-.026.017a.392.392 0 0 1-.085.039l-.015.004a.448.448 0 0 1-.064.011l-.016.001h-.016zm.322-.607c-.005-.01-.005-.01-.012-.019l.003.004.01.015zm-.037-.05c-.021-.027-.021-.027-.049-.047l.01.007.024.023.015.016z"/><path d="M5.78 4.02h.14l.04.01h.09l.04.01h.09l.05.01h.04l.04.01h.05l.04.01.04.01h.05l.04.01.04.01.05.01h.04l.04.01.05.01.04.01.04.01.05.01.04.01.04.01.05.01.04.01.04.02.04.01.04.01.05.01.04.02.06.02.07.02.06.02.07.02.06.03.06.02.07.03.06.02.06.03.05.03.06.02.06.03.05-.01.04-.02.07-.03.07-.04.07-.02.07-.03.07-.03.07-.03.07-.02.07-.03.06-.02.07-.02.07-.02.08-.02.04-.02.05-.01.05-.01.04-.01.05-.01.05-.01.05-.02.04-.01h.05l.05-.01.05-.01.05-.01.04-.01.05-.01h.05l.05-.01.05-.01h.04l.05-.01h.05l.05-.01h.14l.05-.01h.44l.05.01h.09l.05.01h.05l.05.01h.05l.04.01.05.01h.05l.05.01.05.01.04.01.05.01.05.01.05.01.05.01.05.01.06.02.05.01.05.01.05.02.05.02.05.01.05.02.05.02.04.01.05.02.05.02.05.02.07.03.07.03.07.04.07.03.07.04.06.03.07.04.06.04.04.02.03.02.04.03.03.02.04.02.03.02.03.03.03.02.04.03.03.02.03.03.03.02.04.03.03.02.03.03.03.03.05.04.04.04.05.05.04.04.05.05.04.04.04.05.05.05.04.05.04.05.04.05.04.05.04.05.03.05.04.06.03.05.03.04.03.05.03.04.02.04.03.05.02.04.03.05.02.04.02.05.03.04.02.05.02.05.02.04.02.05.02.05.02.05.01.04.02.04.01.04.02.04.01.04.02.04.01.04.01.05.02.04.01.04.01.04.01.04.01.05.01.04.01.04.01.05.01.03.01.04v.04l.01.04.01.03.01.04v.04l.01.04v.03l.01.04v.04l.01.04v.04l.01.03v.04l.01.04v.08l.01.04v.11l.01.04v.58l-.01.06v.13l-.01.06-.01.06v.07l-.01.06-.01.06v.07l-.01.06-.01.06-.01.06-.01.07-.01.06-.01.06-.01.06-.01.07-.02.06-.01.06-.01.06-.02.07-.01.06-.02.06-.01.06-.02.06-.01.07-.02.06-.02.06-.01.04-.01.04-.01.05-.02.04-.01.04-.01.05-.01.04-.02.04-.01.04-.02.05-.01.04-.01.04-.02.05-.01.04-.02.04-.01.04-.02.05-.02.05-.01.04-.02.05-.02.05-.01.04-.02.05-.02.04-.01.04-.02.04-.01.04-.02.03-.02.04-.01.04-.02.04-.01.04-.02.05-.03.05-.02.06-.02.05-.03.06-.02.05-.02.05-.03.06-.02.05-.03.05-.02.06-.03.05-.02.05-.03.05-.02.06-.03.05-.02.04-.02.05-.03.04-.02.04-.02.05-.02.04-.03.04-.02.04-.02.05-.03.04-.02.04-.02.04-.03.05-.02.04-.03.04-.02.04-.03.04-.02.04-.03.05-.02.04-.03.04-.02.04-.03.04-.02.04-.03.04-.03.04-.02.04-.03.04-.03.04-.03.04-.02.04-.03.04-.04.05-.04.05-.04.05-.03.05-.04.05-.04.05-.04.05-.04.05-.04.05-.05.05-.04.05-.04.04-.04.05-.05.05-.04.04-.04.05-.05.05-.05.05-.05.05-.05.04-.05.05-.06.05-.05.04-.05.05-.06.04-.05.04-.05.04-.06.04-.05.04-.06.04-.06.04-.05.04-.06.03-.05.04-.06.03-.06.03-.05.03-.06.03-.06.03-.06.03-.06.03-.07.03-.07.02-.06.03-.07.02-.07.02-.06.02-.07.02-.08.02-.07.02-.08.02-.07.01-.08.01-.07.01-.08.01h-.07l-.08.01h-.23l-.07-.01h-.08l-.07-.01-.08-.01-.04-.01h-.04l-.04-.01-.04-.01-.04-.01h-.04l-.03-.01-.04-.01-.04-.02-.04-.01-.04-.01-.04-.01-.04-.01-.03-.02-.04-.01-.04-.02-.04-.02-.05-.02-.04-.02-.04-.02-.04.02-.07.03-.04.02-.03.01-.04.02-.04.01-.03.01-.05.02-.04.01-.04.01-.04.02-.04.01-.04.01-.05.01-.04.01-.04.01-.04.01h-.04l-.05.01-.04.01h-.04l-.04.01h-.11l-.05.01h-.27l-.06-.01H6.5l-.05-.01-.06-.01-.05-.01h-.06l-.05-.02-.06-.01-.06-.01-.06-.02-.07-.01-.07-.02-.06-.03-.07-.02-.07-.02-.06-.03-.06-.02-.05-.02-.05-.03-.06-.02-.05-.03-.05-.02-.05-.03-.05-.03-.05-.02-.04-.03-.04-.02-.04-.03-.04-.02-.04-.03-.04-.03-.04-.02-.06-.04-.03-.02-.03-.03-.03-.02-.03-.02-.03-.03-.03-.02-.03-.03-.05-.04-.05-.04-.05-.04-.05-.04-.04-.04-.04-.03-.04-.04-.04-.04-.03-.03-.04-.04-.04-.04-.04-.04-.03-.04-.04-.04-.04-.04-.03-.04-.04-.04-.03-.04-.04-.04-.03-.04-.04-.04-.03-.04-.04-.05-.03-.04-.03-.04-.04-.05-.03-.04-.03-.04-.03-.05-.04-.04-.03-.05-.03-.04-.03-.05-.03-.04-.03-.05-.03-.05-.04-.05-.03-.05-.04-.05-.03-.06-.02-.03-.02-.04-.03-.04-.02-.03-.02-.04-.02-.04-.02-.03-.02-.04-.02-.04-.02-.04-.03-.03-.02-.04-.02-.04-.02-.04-.02-.03-.02-.04-.02-.04-.02-.04-.02-.04-.02-.03-.02-.04-.01-.04-.02-.04-.02-.04-.02-.04-.02-.03-.02-.04-.02-.04-.02-.04-.01-.04-.02-.04-.02-.04-.02-.04-.01-.03-.02-.04-.02-.04-.01-.04-.02-.03-.02-.04-.01-.04-.02-.04-.02-.03-.01-.04-.02-.04-.01-.04-.02-.03-.01-.04-.02-.04-.03-.07-.02-.06-.03-.07-.02-.07-.03-.06-.02-.07-.03-.07-.02-.07-.02-.05-.02-.04-.01-.05-.02-.05-.01-.05-.02-.05-.02-.04-.01-.05-.02-.05-.01-.05-.02-.05-.01-.05-.01-.05-.02-.05-.01-.04-.01-.05-.02-.07-.02-.06-.01-.06-.02-.06-.01-.06-.02-.07-.01-.06-.01-.06-.02-.06-.01-.07-.01-.06-.01-.06-.01-.07-.01-.06-.01-.06-.01-.07-.01-.06-.01-.06V9.1l-.01-.06-.01-.06v-.07l-.01-.06v-.06l-.01-.07V8.6l-.01-.07v-.39l.01-.07v-.12l.01-.04v-.08l.01-.04v-.04l.01-.04v-.04l.01-.04v-.04l.01-.04v-.04l.01-.04v-.04l.01-.04.01-.04.01-.03v-.04l.01-.04.01-.04.01-.04.01-.04.01-.04v-.03L1.73 7l.01-.04.01-.05.01-.04.02-.05.01-.04.02-.04.01-.05.02-.04.01-.04.02-.05.01-.04.02-.04.02-.05.02-.04.01-.04.03-.05.02-.05.02-.05.03-.05.02-.05.03-.05.03-.04.02-.05.03-.05.03-.04.03-.05.03-.05.03-.04.03-.05.03-.04.03-.05.04-.05.04-.05.04-.05.05-.05.04-.05.04-.05.05-.04.04-.05.05-.05.04-.04.05-.04.05-.05.05-.04.05-.04.05-.04.05-.04.03-.03.04-.02.03-.03.03-.02.04-.03.03-.02.04-.02.03-.03.04-.02.04-.02.03-.02.04-.02.03-.02.04-.03.04-.02.04-.01.03-.02.04-.02.04-.02.03-.02.04-.02.04-.01.04-.02.03-.01.04-.02.04-.02.04-.01.04-.02.03-.01.04-.01.04-.02.04-.01.05-.02.05-.01.06-.02.05-.01.05-.02.05-.01.06-.01.05-.02.05-.01.06-.01.05-.01.05-.01.06-.01h.05l.05-.01.06-.01h.04l.05-.01h.05l.04-.01h.09l.05-.01h.28zm1.887-.89C5.333 2.86 4.392 1.655 3.979.098 6.05.325 7.478 1.152 7.667 3.131z"/></g></svg>