<?xml version="1.0" encoding="UTF-8" standalone="no"?><!DOCTYPE svg PUBLIC "-//W3C//DTD SVG 1.1//EN" "http://www.w3.org/Graphics/SVG/1.1/DTD/svg11.dtd"><svg width="100%" height="100%" viewBox="0 0 1280 720" version="1.1" xmlns="http://www.w3.org/2000/svg" xmlns:xlink="http://www.w3.org/1999/xlink" xml:space="preserve" xmlns:serif="http://www.serif.com/" style="fill-rule:evenodd;clip-rule:evenodd;stroke-linejoin:round;stroke-miterlimit:2;"><g id="MyNox"><g><g><path d="M514.545,379.47c-0.733,-1.76 -1.705,-3.997 -2.915,-6.71c-1.21,-2.713 -2.512,-5.647 -3.905,-8.8c-1.393,-3.153 -2.878,-6.398 -4.455,-9.735c-1.577,-3.337 -3.062,-6.49 -4.455,-9.46c-1.393,-2.97 -2.695,-5.628 -3.905,-7.975c-1.21,-2.347 -2.182,-4.143 -2.915,-5.39c-0.807,8.653 -1.467,18.022 -1.98,28.105c-0.513,10.083 -0.953,20.258 -1.32,30.525l-10.45,0c0.293,-6.6 0.623,-13.255 0.99,-19.965c0.367,-6.71 0.788,-13.31 1.265,-19.8c0.477,-6.49 0.99,-12.815 1.54,-18.975c0.55,-6.16 1.155,-11.99 1.815,-17.49l9.35,0c1.98,3.227 4.107,7.04 6.38,11.44c2.273,4.4 4.547,9.002 6.82,13.805c2.273,4.803 4.473,9.607 6.6,14.41c2.127,4.803 4.07,9.185 5.83,13.145c1.76,-3.96 3.703,-8.342 5.83,-13.145c2.127,-4.803 4.327,-9.607 6.6,-14.41c2.273,-4.803 4.547,-9.405 6.82,-13.805c2.273,-4.4 4.4,-8.213 6.38,-11.44l9.35,0c2.493,24.567 4.363,49.977 5.61,76.23l-10.45,0c-0.367,-10.267 -0.807,-20.442 -1.32,-30.525c-0.513,-10.083 -1.173,-19.452 -1.98,-28.105c-0.733,1.247 -1.705,3.043 -2.915,5.39c-1.21,2.347 -2.512,5.005 -3.905,7.975c-1.393,2.97 -2.878,6.123 -4.455,9.46c-1.577,3.337 -3.062,6.582 -4.455,9.735c-1.393,3.153 -2.695,6.087 -3.905,8.8c-1.21,2.713 -2.182,4.95 -2.915,6.71l-8.58,0Z" style="fill:#fff;fill-rule:nonzero;"/><path d="M568.775,400.7c0.807,0.367 1.852,0.715 3.135,1.045c1.283,0.33 2.548,0.495 3.795,0.495c4.033,0 7.187,-0.898 9.46,-2.695c2.273,-1.797 4.327,-4.712 6.16,-8.745c-4.62,-8.8 -8.928,-18.132 -12.925,-27.995c-3.997,-9.863 -7.315,-19.855 -9.955,-29.975l11,0c0.807,3.3 1.778,6.857 2.915,10.67c1.137,3.813 2.402,7.737 3.795,11.77c1.393,4.033 2.897,8.067 4.51,12.1c1.613,4.033 3.3,7.92 5.06,11.66c2.787,-7.7 5.207,-15.327 7.26,-22.88c2.053,-7.553 3.997,-15.327 5.83,-23.32l10.56,0c-2.64,10.78 -5.573,21.138 -8.8,31.075c-3.227,9.937 -6.71,19.232 -10.45,27.885c-1.467,3.3 -2.988,6.142 -4.565,8.525c-1.577,2.383 -3.318,4.345 -5.225,5.885c-1.907,1.54 -4.052,2.677 -6.435,3.41c-2.383,0.733 -5.078,1.1 -8.085,1.1c-0.807,0 -1.65,-0.055 -2.53,-0.165c-0.88,-0.11 -1.742,-0.257 -2.585,-0.44c-0.843,-0.183 -1.613,-0.385 -2.31,-0.605c-0.697,-0.22 -1.192,-0.403 -1.485,-0.55l1.87,-8.25Z" style="fill:#fff;fill-rule:nonzero;"/><path d="M630.155,334.48c2.347,-0.587 5.463,-1.21 9.35,-1.87c3.887,-0.66 8.36,-0.99 13.42,-0.99c4.547,0 8.323,0.642 11.33,1.925c3.007,1.283 5.408,3.08 7.205,5.39c1.797,2.31 3.062,5.078 3.795,8.305c0.733,3.227 1.1,6.783 1.1,10.67l0,32.12l-10.23,0l0,-29.92c0,-3.52 -0.238,-6.527 -0.715,-9.02c-0.477,-2.493 -1.265,-4.51 -2.365,-6.05c-1.1,-1.54 -2.567,-2.658 -4.4,-3.355c-1.833,-0.697 -4.107,-1.045 -6.82,-1.045c-1.1,0 -2.237,0.037 -3.41,0.11c-1.173,0.073 -2.292,0.165 -3.355,0.275c-1.063,0.11 -2.017,0.238 -2.86,0.385c-0.843,0.147 -1.448,0.257 -1.815,0.33l0,48.29l-10.23,0l0,-55.55Z" style="fill:#fff;fill-rule:nonzero;"/><path d="M743.785,361.43c0,4.547 -0.66,8.653 -1.98,12.32c-1.32,3.667 -3.172,6.82 -5.555,9.46c-2.383,2.64 -5.225,4.675 -8.525,6.105c-3.3,1.43 -6.893,2.145 -10.78,2.145c-3.887,0 -7.48,-0.715 -10.78,-2.145c-3.3,-1.43 -6.142,-3.465 -8.525,-6.105c-2.383,-2.64 -4.235,-5.793 -5.555,-9.46c-1.32,-3.667 -1.98,-7.773 -1.98,-12.32c0,-4.473 0.66,-8.562 1.98,-12.265c1.32,-3.703 3.172,-6.875 5.555,-9.515c2.383,-2.64 5.225,-4.675 8.525,-6.105c3.3,-1.43 6.893,-2.145 10.78,-2.145c3.887,0 7.48,0.715 10.78,2.145c3.3,1.43 6.142,3.465 8.525,6.105c2.383,2.64 4.235,5.812 5.555,9.515c1.32,3.703 1.98,7.792 1.98,12.265Zm-10.67,0c0,-6.453 -1.448,-11.568 -4.345,-15.345c-2.897,-3.777 -6.838,-5.665 -11.825,-5.665c-4.987,0 -8.928,1.888 -11.825,5.665c-2.897,3.777 -4.345,8.892 -4.345,15.345c0,6.453 1.448,11.568 4.345,15.345c2.897,3.777 6.838,5.665 11.825,5.665c4.987,0 8.928,-1.888 11.825,-5.665c2.897,-3.777 4.345,-8.892 4.345,-15.345Zm-26.62,-39.16c-1.687,0 -3.172,-0.605 -4.455,-1.815c-1.283,-1.21 -1.925,-2.768 -1.925,-4.675c0,-1.907 0.642,-3.465 1.925,-4.675c1.283,-1.21 2.768,-1.815 4.455,-1.815c1.687,0 3.172,0.605 4.455,1.815c1.283,1.21 1.925,2.768 1.925,4.675c0,1.907 -0.642,3.465 -1.925,4.675c-1.283,1.21 -2.768,1.815 -4.455,1.815Zm20.9,0c-1.687,0 -3.172,-0.605 -4.455,-1.815c-1.283,-1.21 -1.925,-2.768 -1.925,-4.675c0,-1.907 0.642,-3.465 1.925,-4.675c1.283,-1.21 2.768,-1.815 4.455,-1.815c1.687,0 3.172,0.605 4.455,1.815c1.283,1.21 1.925,2.768 1.925,4.675c0,1.907 -0.642,3.465 -1.925,4.675c-1.283,1.21 -2.768,1.815 -4.455,1.815Z" style="fill:#fff;fill-rule:nonzero;"/><path d="M790.535,390.03c-0.807,-1.613 -1.797,-3.41 -2.97,-5.39c-1.173,-1.98 -2.457,-4.015 -3.85,-6.105c-1.393,-2.09 -2.823,-4.162 -4.29,-6.215c-1.467,-2.053 -2.897,-3.997 -4.29,-5.83c-1.393,1.833 -2.823,3.795 -4.29,5.885c-1.467,2.09 -2.878,4.18 -4.235,6.27c-1.357,2.09 -2.622,4.125 -3.795,6.105c-1.173,1.98 -2.163,3.74 -2.97,5.28l-10.56,0c2.567,-4.987 5.628,-10.065 9.185,-15.235c3.557,-5.17 7.095,-10.102 10.615,-14.795l-18.92,-27.17l11.55,0l13.64,20.02l13.75,-20.02l10.89,0l-18.48,26.51c3.52,4.767 7.132,9.808 10.835,15.125c3.703,5.317 6.838,10.505 9.405,15.565l-11.22,0Z" style="fill:#fff;fill-rule:nonzero;"/></g></g></g></svg>