<svg xmlns="http://www.w3.org/2000/svg" fill-rule="evenodd" stroke-linejoin="round" stroke-miterlimit="1.41" clip-rule="evenodd" viewBox="0 0 1280 722" width="1280" height="722"><path fill="#fff" fill-rule="nonzero" d="M514.545 379.47a305.126 305.126 0 0 0-2.915-6.71c-1.21-2.713-2.512-5.647-3.905-8.8a420.913 420.913 0 0 0-4.455-9.735 3603.9 3603.9 0 0 1-4.455-9.46 239.088 239.088 0 0 0-3.905-7.975c-1.21-2.347-2.182-4.143-2.915-5.39-.807 8.653-1.467 18.022-1.98 28.105a2023.049 2023.049 0 0 0-1.32 30.525h-10.45c.293-6.6.623-13.255.99-19.965.367-6.71.788-13.31 1.265-19.8.477-6.49.99-12.815 1.54-18.975.55-6.16 1.155-11.99 1.815-17.49h9.35c1.98 3.227 4.107 7.04 6.38 11.44 2.273 4.4 4.547 9.002 6.82 13.805a630.85 630.85 0 0 1 6.6 14.41c2.127 4.803 4.07 9.185 5.83 13.145 1.76-3.96 3.703-8.342 5.83-13.145a630.85 630.85 0 0 1 6.6-14.41 442.648 442.648 0 0 1 6.82-13.805c2.273-4.4 4.4-8.213 6.38-11.44h9.35c2.493 24.567 4.363 49.977 5.61 76.23h-10.45a2023.049 2023.049 0 0 0-1.32-30.525c-.513-10.083-1.173-19.452-1.98-28.105-.733 1.247-1.705 3.043-2.915 5.39a239.088 239.088 0 0 0-3.905 7.975 3603.9 3603.9 0 0 1-4.455 9.46 420.913 420.913 0 0 0-4.455 9.735 2755.524 2755.524 0 0 1-3.905 8.8 305.126 305.126 0 0 0-2.915 6.71h-8.58zm54.23 21.23c.807.367 1.852.715 3.135 1.045 1.283.33 2.548.495 3.795.495 4.033 0 7.187-.898 9.46-2.695 2.273-1.797 4.327-4.712 6.16-8.745-4.62-8.8-8.928-18.132-12.925-27.995a243.184 243.184 0 0 1-9.955-29.975h11c.807 3.3 1.778 6.857 2.915 10.67a289.37 289.37 0 0 0 3.795 11.77 269.664 269.664 0 0 0 4.51 12.1 214.15 214.15 0 0 0 5.06 11.66 293.244 293.244 0 0 0 7.26-22.88 601.589 601.589 0 0 0 5.83-23.32h10.56c-2.64 10.78-5.573 21.138-8.8 31.075-3.227 9.937-6.71 19.232-10.45 27.885-1.467 3.3-2.988 6.142-4.565 8.525-1.577 2.383-3.318 4.345-5.225 5.885a19.064 19.064 0 0 1-6.435 3.41c-2.383.733-5.078 1.1-8.085 1.1-.807 0-1.65-.055-2.53-.165-.88-.11-1.742-.257-2.585-.44a26.084 26.084 0 0 1-2.31-.605c-.697-.22-1.192-.403-1.485-.55l1.87-8.25zm61.38-66.22c2.347-.587 5.463-1.21 9.35-1.87 3.887-.66 8.36-.99 13.42-.99 4.547 0 8.323.642 11.33 1.925 3.007 1.283 5.408 3.08 7.205 5.39 1.797 2.31 3.062 5.078 3.795 8.305.733 3.227 1.1 6.783 1.1 10.67v32.12h-10.23v-29.92c0-3.52-.238-6.527-.715-9.02-.477-2.493-1.265-4.51-2.365-6.05-1.1-1.54-2.567-2.658-4.4-3.355-1.833-.697-4.107-1.045-6.82-1.045-1.1 0-2.237.037-3.41.11a82.322 82.322 0 0 0-3.355.275 41.93 41.93 0 0 0-2.86.385c-.843.147-1.448.257-1.815.33v48.29h-10.23v-55.55zm113.63 26.95c0 4.547-.66 8.653-1.98 12.32-1.32 3.667-3.172 6.82-5.555 9.46-2.383 2.64-5.225 4.675-8.525 6.105-3.3 1.43-6.893 2.145-10.78 2.145-3.887 0-7.48-.715-10.78-2.145-3.3-1.43-6.142-3.465-8.525-6.105-2.383-2.64-4.235-5.793-5.555-9.46-1.32-3.667-1.98-7.773-1.98-12.32 0-4.473.66-8.562 1.98-12.265 1.32-3.703 3.172-6.875 5.555-9.515 2.383-2.64 5.225-4.675 8.525-6.105 3.3-1.43 6.893-2.145 10.78-2.145 3.887 0 7.48.715 10.78 2.145 3.3 1.43 6.142 3.465 8.525 6.105 2.383 2.64 4.235 5.812 5.555 9.515 1.32 3.703 1.98 7.792 1.98 12.265zm-10.67 0c0-6.453-1.448-11.568-4.345-15.345-2.897-3.777-6.838-5.665-11.825-5.665-4.987 0-8.928 1.888-11.825 5.665-2.897 3.777-4.345 8.892-4.345 15.345 0 6.453 1.448 11.568 4.345 15.345 2.897 3.777 6.838 5.665 11.825 5.665 4.987 0 8.928-1.888 11.825-5.665 2.897-3.777 4.345-8.892 4.345-15.345zm-26.62-39.16c-1.687 0-3.172-.605-4.455-1.815s-1.925-2.768-1.925-4.675.642-3.465 1.925-4.675 2.768-1.815 4.455-1.815c1.687 0 3.172.605 4.455 1.815s1.925 2.768 1.925 4.675-.642 3.465-1.925 4.675-2.768 1.815-4.455 1.815zm20.9 0c-1.687 0-3.172-.605-4.455-1.815s-1.925-2.768-1.925-4.675.642-3.465 1.925-4.675 2.768-1.815 4.455-1.815c1.687 0 3.172.605 4.455 1.815s1.925 2.768 1.925 4.675-.642 3.465-1.925 4.675-2.768 1.815-4.455 1.815zm63.14 67.76a87.714 87.714 0 0 0-2.97-5.39 136.246 136.246 0 0 0-3.85-6.105 246.6 246.6 0 0 0-8.58-12.045 192.907 192.907 0 0 0-4.29 5.885 209.353 209.353 0 0 0-4.235 6.27 175.357 175.357 0 0 0-3.795 6.105 117.888 117.888 0 0 0-2.97 5.28h-10.56c2.567-4.987 5.628-10.065 9.185-15.235A445.57 445.57 0 0 1 769.085 360l-18.92-27.17h11.55l13.64 20.02 13.75-20.02h10.89l-18.48 26.51a672.397 672.397 0 0 1 10.835 15.125c3.703 5.317 6.838 10.505 9.405 15.565h-11.22z"/></svg>