<svg xmlns="http://www.w3.org/2000/svg" width="40" height="40" viewBox="0 0 40 40">
  <defs>
    <linearGradient id="node-icon-a" x1="76.549%" x2="27.512%" y1="-6.66%" y2="108.464%">
      <stop offset="0%" stop-color="#3E863D"/>
      <stop offset="30%" stop-color="#3E863D"/>
      <stop offset="50%" stop-color="#55934F"/>
      <stop offset="80%" stop-color="#5AAD45"/>
      <stop offset="100%" stop-color="#5AAD45"/>
    </linearGradient>
    <linearGradient id="node-icon-b" x1="7.189%" x2="96.382%" y1="90.092%" y2="14.157%">
      <stop offset="0%" stop-color="#3E863D"/>
      <stop offset="57%" stop-color="#3E863D"/>
      <stop offset="72%" stop-color="#619857"/>
      <stop offset="100%" stop-color="#76AC64"/>
    </linearGradient>
    <linearGradient id="node-icon-c" x1=".09%" x2="100.074%" y1="20537.601%" y2="20537.601%">
      <stop offset="0%" stop-color="#6BBF47"/>
      <stop offset="16%" stop-color="#6BBF47"/>
      <stop offset="38%" stop-color="#79B461"/>
      <stop offset="47%" stop-color="#75AC64"/>
      <stop offset="70%" stop-color="#659E5A"/>
      <stop offset="90%" stop-color="#3E863D"/>
      <stop offset="100%" stop-color="#3E863D"/>
    </linearGradient>
  </defs>
  <g fill="none" fill-rule="evenodd" transform="translate(2.6)">
    <path fill="url(#node-icon-a)" d="M16.588137,0.252520189 L0.945419103,9.28120301 C0.359509886,9.6192704 0,10.2430521 0,10.9172375 L0,28.9876915 C0,29.6621554 0.359509886,30.2856586 0.945419103,30.6234475 L16.5892509,39.6593706 C17.1740462,39.9963241 17.8950153,39.9963241 18.4792537,39.6593706 L34.1205792,30.6234475 C34.7034252,30.2856586 35.0634921,29.6618769 35.0634921,28.9876915 L35.0634921,10.9172375 C35.0634921,10.2430521 34.7034252,9.6192704 34.1166806,9.28120301 L18.4775828,0.252520189 C18.1843498,0.0843219159 17.8576998,-5.56947925e-05 17.5307714,-5.56947925e-05 C17.2041214,-5.56947925e-05 16.8774715,0.0843219159 16.5839599,0.252520189"/>
    <path fill="url(#node-icon-b)" d="M0.387635756,30.1350042 C0.537176274,30.3291005 0.724310777,30.4972988 0.944583681,30.6234475 L14.3634085,38.3744918 L16.5984405,39.6590922 C16.9326093,39.8520746 17.3135617,39.933946 17.6878307,39.9060986 C17.812587,39.8960735 17.9373434,39.8726817 18.059315,39.8381509 L34.5575049,9.62929546 C34.4313562,9.49172932 34.2834865,9.37671958 34.1177945,9.28008911 L23.8752437,3.36530214 L18.4608744,0.250292398 C18.3071568,0.16118073 18.1406294,0.0979671401 17.9707602,0.053411306 L0.387635756,30.1350042 Z"/>
    <path fill="url(#node-icon-c)" d="M17.3441938,0.0105263158 C17.0815929,0.0364243943 16.8251184,0.118017265 16.5884155,0.252520189 L0.990253411,9.25530493 L17.8100808,39.891061 C18.0439989,39.8576441 18.2742969,39.7796714 18.4820384,39.6593706 L34.1250348,30.6234475 C34.6076302,30.3435812 34.9381788,29.869897 35.0384294,29.3329992 L17.8916736,0.0411584517 C17.7655249,0.016374269 17.6393762,0.00328599276 17.5093289,0.00328599276 C17.4572542,0.00328599276 17.4054581,0.00607073239 17.3533835,0.0108047898"/>
  </g>
</svg>
