<svg xmlns="http://www.w3.org/2000/svg" width="40" height="40" viewBox="0 0 40 40"><path fill="#169CEE" d="M23.333125,24.866875 L13.5,24.866875 C12.066875,24.866875 11.233125,25.75 11.233125,27.016875 C11.233125,28.15 12,28.95 13.1,28.95 C14.383125,28.95 15.116875,28.066875 15.183125,26.8 L18.033125,26.8 C17.883125,29.9 15.95,31.55 13.06625,31.55 C10.36625,31.55 8.349375,29.716875 8.349375,26.983125 C8.349375,24.133125 10.46625,22.15 13.649375,22.15 L23.3825,22.15 C26.665625,22.15 29.165625,19.733125 29.165625,16.483125 C29.165625,13.2 26.9325,10.883125 23.74875,10.883125 C20.59875,10.883125 18.04875,13.183125 18.04875,17.433125 L18.04875,20.21625 L15.165625,20.21625 L15.165625,17.433125 C15.165625,11.8 18.7825,8.15 23.79875,8.15 C28.581875,8.15 32.0658437,11.583125 32.0658437,16.45 C32.09875,21.316875 28.365625,24.866875 23.3325,24.866875 M20,40 C31.183125,40 40,31.15 40,20 C40,8.85 31.183125,0 20,0 C8.816875,0 0,8.883125 0,20 C0,31.15 8.816875,40 20,40"/></svg>