<?xml version="1.0" encoding="UTF-8" standalone="no"?><!DOCTYPE svg PUBLIC "-//W3C//DTD SVG 1.1//EN" "http://www.w3.org/Graphics/SVG/1.1/DTD/svg11.dtd"><svg width="100%" height="100%" viewBox="0 0 1280 720" version="1.1" xmlns="http://www.w3.org/2000/svg" xmlns:xlink="http://www.w3.org/1999/xlink" xml:space="preserve" style="fill-rule:evenodd;clip-rule:evenodd;stroke-linejoin:round;stroke-miterlimit:1.41421;"><g id="Pomme-Plate"><g id="PommePlate.-logo"><path d="M195.505,397.207c0,1.741 1.473,3.213 3.213,3.213c1.875,0 3.347,-1.472 3.347,-3.213l0,-36.817l23.162,-0.268c14.726,0 26.642,-11.915 26.642,-26.642c0,-14.727 -11.916,-26.776 -26.642,-26.776l-26.107,0l-0.402,0c-1.74,0 -3.213,1.473 -3.213,3.213l0,87.29Zm6.56,-43.377l0,-40.566l23.162,0c11.112,0 20.216,9.104 20.216,20.216c0,11.112 -9.104,20.216 -20.216,20.35l-23.162,0Z" style="fill:#fff;fill-rule:nonzero;"/><path d="M454.563,397.207c0,1.741 1.339,3.213 3.213,3.213c1.741,0 3.214,-1.472 3.214,-3.213l0,-86.754c0,-0.536 -0.268,-1.205 -0.536,-1.741c-0.268,-0.401 -0.535,-0.669 -0.937,-1.071c-1.473,-0.937 -3.615,-0.669 -4.552,0.804l-33.202,46.188l-33.336,-46.188c-1.071,-1.473 -3.08,-1.741 -4.552,-0.804c-0.134,0.134 -0.268,0.134 -0.268,0.268c-0.803,0.536 -1.339,1.473 -1.339,2.544l0,86.754c0,1.741 1.473,3.213 3.347,3.213c1.741,0 3.213,-1.472 3.213,-3.213l0,-76.981l29.989,41.503c0.67,1.071 1.607,1.473 2.812,1.473l0.268,0c0.937,0 2.008,-0.402 2.677,-1.473l29.989,-41.637l0,77.115Z" style="fill:#fff;fill-rule:nonzero;"/><path d="M563.274,397.207c0,1.741 1.339,3.213 3.213,3.213c1.741,0 3.213,-1.472 3.213,-3.213l0,-86.754c0,-0.536 -0.267,-1.205 -0.535,-1.741c-0.268,-0.401 -0.536,-0.669 -0.937,-1.071c-1.473,-0.937 -3.615,-0.669 -4.552,0.804l-33.203,46.188l-33.336,-46.188c-1.071,-1.473 -3.079,-1.741 -4.552,-0.804c-0.134,0.134 -0.267,0.134 -0.267,0.268c-0.804,0.536 -1.339,1.473 -1.339,2.544l0,86.754c0,1.741 1.472,3.213 3.347,3.213c1.74,0 3.213,-1.472 3.213,-3.213l0,-76.981l29.989,41.503c0.669,1.071 1.607,1.473 2.812,1.473l0.267,0c0.937,0 2.008,-0.402 2.678,-1.473l29.989,-41.637l0,77.115Z" style="fill:#fff;fill-rule:nonzero;"/><path d="M597.28,397.207c0,1.741 1.338,3.079 2.945,3.213l48.465,0c1.874,0 3.213,-1.472 3.213,-3.213c0,-1.874 -1.339,-3.347 -3.213,-3.347l-44.85,0l0,-36.951l39.227,0c1.74,0 3.213,-1.472 3.213,-3.213c0,-1.874 -1.473,-3.347 -3.213,-3.347l-39.227,0l0,-37.085l44.85,0c1.874,0 3.213,-1.472 3.213,-3.347c0,-1.74 -1.339,-3.213 -3.213,-3.213l-47.929,0l-0.268,0c-1.741,0 -3.213,1.473 -3.213,3.213l0,87.29Z" style="fill:#fff;fill-rule:nonzero;"/><path d="M716.835,397.207c0,1.741 1.472,3.213 3.213,3.213c1.874,0 3.347,-1.472 3.347,-3.213l0,-36.817l23.161,-0.268c14.727,0 26.642,-11.915 26.642,-26.642c0,-14.727 -11.915,-26.776 -26.642,-26.776l-26.107,0l-0.401,0c-1.741,0 -3.213,1.473 -3.213,3.213l0,87.29Zm6.56,-43.377l0,-40.566l23.161,0c11.112,0 20.216,9.104 20.216,20.216c0,11.112 -9.104,20.216 -20.216,20.35l-23.161,0Z" style="fill:#fff;fill-rule:nonzero;"/><path d="M846.297,400.42c1.874,0 3.347,-1.472 3.347,-3.213c0,-1.874 -1.473,-3.347 -3.347,-3.347l-44.85,0l0,-83.943c0,-1.74 -1.473,-3.213 -3.347,-3.213c-1.741,0 -3.213,1.473 -3.213,3.213l0,87.29c0,1.741 1.472,3.213 3.213,3.213l48.197,0Z" style="fill:#fff;fill-rule:nonzero;"/><path d="M929.838,398.278c0.536,1.339 1.874,2.142 3.079,2.142c0.402,0 0.67,-0.134 1.205,-0.134c1.607,-0.669 2.41,-2.677 1.741,-4.284l-32.533,-86.888c-0.402,-1.205 -1.741,-2.008 -3.213,-2.008c-1.339,0 -2.678,0.803 -3.214,2.008l-32.532,86.888c-0.67,1.607 0.267,3.615 1.874,4.284c0.402,0 0.937,0.134 1.205,0.134c1.339,0 2.544,-0.803 3.079,-2.142l8.301,-22.09l42.707,0l8.301,22.09Zm-29.588,-78.989l18.878,50.339l-37.889,0l19.011,-50.339Z" style="fill:#fff;fill-rule:nonzero;"/><path d="M967.592,397.207c0,1.741 1.473,3.213 3.213,3.213c1.741,0 3.213,-1.472 3.213,-3.213l0,-83.943l28.249,0c1.741,0 3.213,-1.472 3.213,-3.347c0,-1.74 -1.472,-3.213 -3.213,-3.213l-62.924,0c-1.74,0 -3.213,1.473 -3.213,3.213c0,1.875 1.473,3.347 3.213,3.347l28.249,0l0,83.943Z" style="fill:#fff;fill-rule:nonzero;"/><path d="M1030.11,397.207c0,1.741 1.339,3.079 2.946,3.213l48.464,0c1.875,0 3.213,-1.472 3.213,-3.213c0,-1.874 -1.338,-3.347 -3.213,-3.347l-44.85,0l0,-36.951l39.227,0c1.741,0 3.213,-1.472 3.213,-3.213c0,-1.874 -1.472,-3.347 -3.213,-3.347l-39.227,0l0,-37.085l44.85,0c1.875,0 3.213,-1.472 3.213,-3.347c0,-1.74 -1.338,-3.213 -3.213,-3.213l-47.929,0l-0.268,0c-1.74,0 -3.213,1.473 -3.213,3.213l0,87.29Z" style="fill:#fff;fill-rule:nonzero;"/><g id="Pomme"><path d="M314.819,319.987c-0.104,-0.002 -0.131,-0.001 -0.235,-0.011c-0.078,-0.007 -0.155,-0.017 -0.232,-0.031c-0.039,-0.007 -0.077,-0.015 -0.115,-0.023l-0.002,0c-0.095,-0.023 -0.119,-0.028 -0.213,-0.057c-0.106,-0.032 -0.21,-0.071 -0.31,-0.116c-0.101,-0.044 -0.2,-0.095 -0.294,-0.152c-0.085,-0.05 -0.104,-0.065 -0.185,-0.12l-0.002,-0.001c-0.028,-0.022 -0.057,-0.042 -0.086,-0.064c-0.084,-0.065 -0.165,-0.135 -0.241,-0.21c-0.051,-0.05 -0.101,-0.101 -0.148,-0.155c-0.023,-0.027 -0.045,-0.054 -0.068,-0.081l-0.002,-0.002c-0.064,-0.082 -0.081,-0.102 -0.139,-0.188c-0.059,-0.086 -0.071,-0.109 -0.124,-0.199l-0.001,-0.002c-0.016,-0.029 -0.032,-0.058 -0.047,-0.087c-0.034,-0.067 -0.054,-0.111 -0.084,-0.18c-0.015,-0.033 -0.031,-0.066 -0.044,-0.101c-0.057,-0.155 -0.085,-0.248 -0.121,-0.409c-0.012,-0.054 -0.021,-0.108 -0.03,-0.163c-0.033,-0.198 -0.043,-0.4 -0.044,-0.601c-0.002,-0.251 0.01,-0.502 0.028,-0.752c0.047,-0.671 0.137,-1.338 0.252,-2c0.237,-1.373 0.588,-2.728 1.036,-4.047c0.653,-1.926 1.517,-3.781 2.584,-5.512c0.387,-0.628 0.801,-1.239 1.24,-1.831c0.103,-0.14 0.208,-0.278 0.314,-0.415c0.066,-0.085 0.132,-0.171 0.202,-0.254c0.052,-0.061 0.107,-0.119 0.164,-0.175c0.287,-0.281 0.636,-0.498 1.015,-0.632c0.303,-0.106 0.624,-0.16 0.945,-0.156c0.442,0.004 0.881,0.117 1.271,0.325c0.355,0.189 0.666,0.456 0.907,0.777c0.145,0.193 0.264,0.404 0.354,0.628c0.105,0.261 0.169,0.537 0.191,0.817c0.043,0.562 -0.089,1.132 -0.376,1.617c-0.041,0.069 -0.085,0.136 -0.132,0.202c-0.046,0.065 -0.078,0.104 -0.126,0.165c-0.05,0.065 -0.1,0.129 -0.15,0.194c-0.065,0.087 -0.13,0.173 -0.194,0.26c-0.387,0.528 -0.75,1.074 -1.085,1.636c-0.962,1.614 -1.705,3.358 -2.221,5.164c-0.204,0.717 -0.373,1.444 -0.5,2.178c-0.048,0.277 -0.09,0.556 -0.125,0.835c-0.029,0.244 -0.054,0.488 -0.068,0.734c-0.001,0.022 -0.002,0.045 -0.003,0.068l-0.001,0.025l0.01,0.086c0.007,0.107 0.011,0.134 0.012,0.241c0,0.16 -0.013,0.321 -0.04,0.479c-0.088,0.516 -0.325,1.002 -0.676,1.389c-0.081,0.089 -0.167,0.173 -0.259,0.251c-0.082,0.069 -0.105,0.084 -0.19,0.148l-0.002,0.001c-0.082,0.055 -0.102,0.071 -0.188,0.122c-0.097,0.057 -0.197,0.108 -0.299,0.153c-0.103,0.045 -0.209,0.084 -0.316,0.116c-0.036,0.011 -0.072,0.02 -0.108,0.03l-0.001,0c-0.102,0.024 -0.127,0.032 -0.23,0.049c-0.077,0.013 -0.155,0.022 -0.233,0.028c-0.039,0.004 -0.078,0.005 -0.118,0.007c-0.039,0.001 -0.078,0.002 -0.117,0.002Zm2.336,-4.257c-0.039,-0.069 -0.04,-0.068 -0.089,-0.129l0.022,0.03c0.022,0.033 0.044,0.066 0.067,0.099Zm-0.271,-0.352c-0.152,-0.188 -0.154,-0.188 -0.351,-0.328l0.066,0.053c0.091,0.079 0.091,0.079 0.178,0.162c0.056,0.057 0.057,0.056 0.107,0.113Z" style="fill:#fff;fill-rule:nonzero;"/><path d="M298.327,311.621c0.974,0.012 1.946,0.055 2.916,0.139c2.013,0.176 4.011,0.514 5.971,0.999c1.756,0.434 3.482,0.987 5.166,1.645c0.795,0.311 1.579,0.649 2.357,1.002l0.099,0.046c0.3,-0.138 0.299,-0.137 0.6,-0.272c0.249,-0.11 0.499,-0.218 0.749,-0.325c0.582,-0.244 1.167,-0.479 1.759,-0.699c1.272,-0.474 2.567,-0.887 3.88,-1.235c3.632,-0.961 7.403,-1.417 11.159,-1.275c3.985,0.151 7.946,0.979 11.628,2.519c2.832,1.184 5.488,2.785 7.841,4.758c1.894,1.588 3.59,3.412 5.036,5.417c1.213,1.681 2.252,3.487 3.104,5.377c0.678,1.502 1.239,3.056 1.685,4.643c0.394,1.399 0.699,2.824 0.92,4.261c0.936,6.091 0.359,12.335 -1.136,18.287c-0.741,2.947 -1.716,5.828 -2.833,8.652c-0.84,2.124 -1.766,4.213 -2.79,6.254c-1.638,3.266 -3.54,6.404 -5.76,9.309c-3.273,4.283 -7.305,8.05 -12.057,10.638c-1.532,0.834 -3.133,1.543 -4.784,2.105c-0.893,0.304 -1.801,0.564 -2.719,0.782c-1.099,0.261 -2.215,0.453 -3.338,0.579c-3.272,0.366 -6.622,0.16 -9.806,-0.697c-0.637,-0.171 -1.267,-0.369 -1.887,-0.595c-0.416,-0.152 -0.827,-0.318 -1.234,-0.493l-0.017,-0.007c-0.19,0.082 -0.38,0.162 -0.571,0.239c-0.19,0.076 -0.38,0.15 -0.571,0.221c-1.87,0.684 -3.821,1.129 -5.8,1.346c-1.853,0.203 -3.726,0.21 -5.58,0.03c-1.535,-0.148 -3.057,-0.424 -4.547,-0.82c-2.388,-0.633 -4.691,-1.574 -6.855,-2.766c-1.855,-1.022 -3.607,-2.228 -5.243,-3.574c-2.738,-2.254 -5.145,-4.894 -7.246,-7.747c-2.098,-2.849 -3.897,-5.913 -5.456,-9.086c-0.944,-1.92 -1.801,-3.881 -2.584,-5.872c-0.528,-1.341 -1.026,-2.695 -1.479,-4.064c-0.508,-1.532 -0.96,-3.083 -1.347,-4.65c-1.476,-5.972 -2.023,-12.236 -1.041,-18.334c0.225,-1.401 0.531,-2.79 0.922,-4.154c0.465,-1.621 1.049,-3.207 1.756,-4.738c0.846,-1.833 1.868,-3.585 3.056,-5.217c1.467,-2.018 3.187,-3.85 5.109,-5.442c2.445,-2.024 5.21,-3.65 8.156,-4.828c2.587,-1.035 5.307,-1.725 8.07,-2.078c1.24,-0.158 2.487,-0.242 3.737,-0.273c0.335,-0.006 0.67,-0.008 1.005,-0.007Zm-0.599,6.514c-1.057,0.016 -2.111,0.079 -3.16,0.207c-2.191,0.267 -4.352,0.795 -6.411,1.596c-2.285,0.889 -4.44,2.115 -6.354,3.649c-1.497,1.201 -2.846,2.585 -4.005,4.115c-0.898,1.184 -1.683,2.452 -2.348,3.781c-0.588,1.174 -1.082,2.395 -1.486,3.645c-0.257,0.796 -0.477,1.605 -0.662,2.421c-1.152,5.094 -0.922,10.418 0.112,15.511c0.161,0.796 0.343,1.587 0.542,2.374c0.285,1.124 0.607,2.239 0.962,3.343c0.433,1.348 0.916,2.68 1.43,3.999c0.776,1.994 1.633,3.958 2.585,5.874c1.463,2.944 3.154,5.783 5.146,8.4c2.568,3.375 5.662,6.402 9.331,8.563c0.562,0.331 1.136,0.64 1.721,0.927c0.691,0.339 1.398,0.645 2.118,0.915c0.919,0.346 1.859,0.633 2.815,0.857c1.169,0.275 2.36,0.454 3.558,0.531c1.361,0.088 2.731,0.044 4.082,-0.14c1.561,-0.213 3.095,-0.617 4.541,-1.244l0.456,-0.177c0.415,-0.127 0.517,-0.171 0.944,-0.251c0.963,-0.178 1.963,-0.137 2.907,0.121c0.426,0.116 0.51,0.165 0.92,0.327c0.007,0.003 -0.026,-0.011 -0.02,-0.009c0.206,0.088 0.412,0.173 0.619,0.254c0.159,0.06 0.318,0.118 0.478,0.174c1.571,0.537 3.214,0.845 4.87,0.949c2.299,0.144 4.619,-0.105 6.844,-0.699c2.222,-0.593 4.345,-1.528 6.309,-2.721c3.837,-2.332 7.028,-5.602 9.648,-9.222c1.889,-2.61 3.496,-5.416 4.891,-8.318c0.896,-1.863 1.704,-3.767 2.439,-5.699c0.492,-1.29 0.952,-2.593 1.362,-3.911c0.332,-1.066 0.633,-2.141 0.899,-3.225c0.193,-0.786 0.368,-1.578 0.523,-2.373c0.977,-5.019 1.163,-10.259 0.004,-15.265c-0.19,-0.823 -0.417,-1.638 -0.681,-2.44c-0.402,-1.221 -0.891,-2.414 -1.471,-3.561c-0.7,-1.388 -1.531,-2.71 -2.485,-3.937c-1.234,-1.586 -2.672,-3.011 -4.269,-4.23c-1.997,-1.524 -4.236,-2.721 -6.602,-3.563c-3.098,-1.103 -6.395,-1.598 -9.679,-1.546c-3.057,0.049 -6.101,0.568 -9.02,1.47c-1.565,0.484 -3.09,1.081 -4.577,1.764l-0.433,0.18c-0.395,0.132 -0.491,0.176 -0.898,0.265c-1.071,0.233 -2.195,0.191 -3.245,-0.121c-0.149,-0.045 -0.298,-0.095 -0.444,-0.15c-0.236,-0.089 -0.459,-0.195 -0.688,-0.298c-0.181,-0.082 -0.362,-0.162 -0.543,-0.242c-0.237,-0.102 -0.475,-0.203 -0.713,-0.302c-0.772,-0.314 -1.551,-0.606 -2.342,-0.869c-1.531,-0.508 -3.097,-0.912 -4.685,-1.199c-1.128,-0.203 -2.267,-0.347 -3.411,-0.428c-0.533,-0.037 -1.066,-0.058 -1.6,-0.069c-0.275,-0.004 -0.549,-0.005 -0.824,-0.003Z" style="fill:#fff;fill-rule:nonzero;"/><path d="M312.346,308c-16.896,-1.903 -23.701,-10.357 -26.695,-21.283c14.995,1.598 25.327,7.4 26.695,21.283Z" style="fill:#fff;"/></g></g></g></svg>