<svg xmlns="http://www.w3.org/2000/svg" xmlns:serif="http://www.serif.com/" fill-rule="evenodd" stroke-linejoin="round" stroke-miterlimit="1.41" clip-rule="evenodd" viewBox="0 0 1280 720" width="1280" height="720"><g fill="#fff" serif:id="Pomme Plate"><path fill-rule="nonzero" d="M195.505 397.207c0 1.741 1.473 3.213 3.213 3.213 1.875 0 3.347-1.472 3.347-3.213V360.39l23.162-.268c14.726 0 26.642-11.915 26.642-26.642s-11.916-26.776-26.642-26.776h-26.509c-1.74 0-3.213 1.473-3.213 3.213v87.29zm6.56-43.377v-40.566h23.162c11.112 0 20.216 9.104 20.216 20.216 0 11.112-9.104 20.216-20.216 20.35h-23.162zm252.498 43.377c0 1.741 1.339 3.213 3.213 3.213 1.741 0 3.214-1.472 3.214-3.213v-86.754c0-.536-.268-1.205-.536-1.741-.268-.401-.535-.669-.937-1.071-1.473-.937-3.615-.669-4.552.804l-33.202 46.188-33.336-46.188c-1.071-1.473-3.08-1.741-4.552-.804-.134.134-.268.134-.268.268a3.049 3.049 0 0 0-1.339 2.544v86.754c0 1.741 1.473 3.213 3.347 3.213 1.741 0 3.213-1.472 3.213-3.213v-76.981l29.989 41.503c.67 1.071 1.607 1.473 2.812 1.473h.268c.937 0 2.008-.402 2.677-1.473l29.989-41.637v77.115zm108.711 0c0 1.741 1.339 3.213 3.213 3.213 1.741 0 3.213-1.472 3.213-3.213v-86.754c0-.536-.267-1.205-.535-1.741-.268-.401-.536-.669-.937-1.071-1.473-.937-3.615-.669-4.552.804l-33.203 46.188-33.336-46.188c-1.071-1.473-3.079-1.741-4.552-.804-.134.134-.267.134-.267.268a3.046 3.046 0 0 0-1.339 2.544v86.754c0 1.741 1.472 3.213 3.347 3.213 1.74 0 3.213-1.472 3.213-3.213v-76.981l29.989 41.503c.669 1.071 1.607 1.473 2.812 1.473h.267c.937 0 2.008-.402 2.678-1.473l29.989-41.637v77.115zm34.006 0a3.214 3.214 0 0 0 2.945 3.213h48.465c1.874 0 3.213-1.472 3.213-3.213 0-1.874-1.339-3.347-3.213-3.347h-44.85v-36.951h39.227c1.74 0 3.213-1.472 3.213-3.213 0-1.874-1.473-3.347-3.213-3.347H603.84v-37.085h44.85c1.874 0 3.213-1.472 3.213-3.347 0-1.74-1.339-3.213-3.213-3.213h-48.197c-1.741 0-3.213 1.473-3.213 3.213v87.29zm119.555 0c0 1.741 1.472 3.213 3.213 3.213 1.874 0 3.347-1.472 3.347-3.213V360.39l23.161-.268c14.727 0 26.642-11.915 26.642-26.642s-11.915-26.776-26.642-26.776h-26.508c-1.741 0-3.213 1.473-3.213 3.213v87.29zm6.56-43.377v-40.566h23.161c11.112 0 20.216 9.104 20.216 20.216 0 11.112-9.104 20.216-20.216 20.35h-23.161zm122.902 46.59c1.874 0 3.347-1.472 3.347-3.213a3.315 3.315 0 0 0-3.347-3.347h-44.85v-83.943c0-1.74-1.473-3.213-3.347-3.213-1.741 0-3.213 1.473-3.213 3.213v87.29c0 1.741 1.472 3.213 3.213 3.213h48.197zm83.541-2.142c.536 1.339 1.874 2.142 3.079 2.142.402 0 .67-.134 1.205-.134 1.607-.669 2.41-2.677 1.741-4.284l-32.533-86.888c-.402-1.205-1.741-2.008-3.213-2.008-1.339 0-2.678.803-3.214 2.008l-32.532 86.888c-.67 1.607.267 3.615 1.874 4.284.402 0 .937.134 1.205.134 1.339 0 2.544-.803 3.079-2.142l8.301-22.09h42.707l8.301 22.09zm-29.588-78.989l18.878 50.339h-37.889l19.011-50.339zm67.342 77.918c0 1.741 1.473 3.213 3.213 3.213 1.741 0 3.213-1.472 3.213-3.213v-83.943h28.249c1.741 0 3.213-1.472 3.213-3.347 0-1.74-1.472-3.213-3.213-3.213h-62.924c-1.74 0-3.213 1.473-3.213 3.213 0 1.875 1.473 3.347 3.213 3.347h28.249v83.943zm62.518 0a3.215 3.215 0 0 0 2.946 3.213h48.464c1.875 0 3.213-1.472 3.213-3.213 0-1.874-1.338-3.347-3.213-3.347h-44.85v-36.951h39.227c1.741 0 3.213-1.472 3.213-3.213 0-1.874-1.472-3.347-3.213-3.347h-39.227v-37.085h44.85c1.875 0 3.213-1.472 3.213-3.347 0-1.74-1.338-3.213-3.213-3.213h-48.197c-1.74 0-3.213 1.473-3.213 3.213v87.29zm-715.291-77.22c-.104-.002-.131-.001-.235-.011a2.584 2.584 0 0 1-.232-.031l-.115-.023h-.002c-.095-.023-.119-.028-.213-.057a2.56 2.56 0 0 1-.31-.116 2.476 2.476 0 0 1-.294-.152c-.085-.05-.104-.065-.185-.12l-.002-.001-.086-.064a2.664 2.664 0 0 1-.389-.365l-.068-.081-.002-.002c-.064-.082-.081-.102-.139-.188-.059-.086-.071-.109-.124-.199l-.001-.002-.047-.087a2.943 2.943 0 0 1-.084-.18c-.015-.033-.031-.066-.044-.101a2.78 2.78 0 0 1-.151-.572 3.773 3.773 0 0 1-.044-.601 9.43 9.43 0 0 1 .028-.752 19.76 19.76 0 0 1 .252-2 26.75 26.75 0 0 1 1.036-4.047 27.08 27.08 0 0 1 2.584-5.512 25.787 25.787 0 0 1 1.554-2.246c.066-.085.132-.171.202-.254a2.78 2.78 0 0 1 1.179-.807 2.764 2.764 0 0 1 3.477 1.574 2.775 2.775 0 0 1-.317 2.636c-.046.065-.078.104-.126.165l-.15.194-.194.26c-.387.528-.75 1.074-1.085 1.636a21.784 21.784 0 0 0-2.721 7.342c-.048.277-.09.556-.125.835-.029.244-.054.488-.068.734l-.003.068-.001.025.01.086c.007.107.011.134.012.241a2.77 2.77 0 0 1-.975 2.119c-.082.069-.105.084-.19.148l-.002.001c-.082.055-.102.071-.188.122a2.904 2.904 0 0 1-.615.269l-.108.03h-.001c-.102.024-.127.032-.23.049a2.598 2.598 0 0 1-.233.028c-.039.004-.078.005-.118.007l-.117.002zm2.336-4.257c-.039-.069-.04-.068-.089-.129l.022.03.067.099zm-.271-.352c-.152-.188-.154-.188-.351-.328l.066.053c.091.079.091.079.178.162.056.057.057.056.107.113z"/><path fill-rule="nonzero" d="M298.327 311.621a39.41 39.41 0 0 1 2.916.139c2.013.176 4.011.514 5.971.999 1.756.434 3.482.987 5.166 1.645.795.311 1.579.649 2.357 1.002l.099.046c.3-.138.299-.137.6-.272a45.943 45.943 0 0 1 2.508-1.024 41.735 41.735 0 0 1 3.88-1.235c3.632-.961 7.403-1.417 11.159-1.275 3.985.151 7.946.979 11.628 2.519a30.552 30.552 0 0 1 7.841 4.758 29.909 29.909 0 0 1 5.036 5.417 30.881 30.881 0 0 1 3.104 5.377 32.96 32.96 0 0 1 1.685 4.643c.394 1.399.699 2.824.92 4.261.936 6.091.359 12.335-1.136 18.287-.741 2.947-1.716 5.828-2.833 8.652a77.482 77.482 0 0 1-2.79 6.254c-1.638 3.266-3.54 6.404-5.76 9.309-3.273 4.283-7.305 8.05-12.057 10.638a30.726 30.726 0 0 1-4.784 2.105c-.893.304-1.801.564-2.719.782a27.928 27.928 0 0 1-3.338.579c-3.272.366-6.622.16-9.806-.697a22.68 22.68 0 0 1-3.121-1.088l-.017-.007a25.553 25.553 0 0 1-1.142.46 24.732 24.732 0 0 1-5.8 1.346c-1.853.203-3.726.21-5.58.03a28.28 28.28 0 0 1-4.547-.82 30.358 30.358 0 0 1-6.855-2.766 34.392 34.392 0 0 1-5.243-3.574c-2.738-2.254-5.145-4.894-7.246-7.747-2.098-2.849-3.897-5.913-5.456-9.086a78 78 0 0 1-2.584-5.872 77.894 77.894 0 0 1-1.479-4.064 62.046 62.046 0 0 1-1.347-4.65c-1.476-5.972-2.023-12.236-1.041-18.334.225-1.401.531-2.79.922-4.154a33.011 33.011 0 0 1 1.756-4.738 30.792 30.792 0 0 1 3.056-5.217 29.914 29.914 0 0 1 5.109-5.442 30.639 30.639 0 0 1 8.156-4.828 32.996 32.996 0 0 1 8.07-2.078 36.76 36.76 0 0 1 4.742-.28zm-.599 6.514a29.792 29.792 0 0 0-3.16.207 26.553 26.553 0 0 0-6.411 1.596 24.19 24.19 0 0 0-6.354 3.649 23.39 23.39 0 0 0-4.005 4.115 24.112 24.112 0 0 0-2.348 3.781 25.98 25.98 0 0 0-1.486 3.645 28.115 28.115 0 0 0-.662 2.421c-1.152 5.094-.922 10.418.112 15.511.161.796.343 1.587.542 2.374a55.42 55.42 0 0 0 .962 3.343c.433 1.348.916 2.68 1.43 3.999a71.35 71.35 0 0 0 2.585 5.874c1.463 2.944 3.154 5.783 5.146 8.4 2.568 3.375 5.662 6.402 9.331 8.563.562.331 1.136.64 1.721.927.691.339 1.398.645 2.118.915.919.346 1.859.633 2.815.857 1.169.275 2.36.454 3.558.531 1.361.088 2.731.044 4.082-.14a17.278 17.278 0 0 0 4.541-1.244l.456-.177c.415-.127.517-.171.944-.251a6.548 6.548 0 0 1 2.907.121c.426.116.51.165.92.327l-.02-.009c.206.088.412.173.619.254.159.06.318.118.478.174 1.571.537 3.214.845 4.87.949a21.41 21.41 0 0 0 6.844-.699c2.222-.593 4.345-1.528 6.309-2.721 3.837-2.332 7.028-5.602 9.648-9.222 1.889-2.61 3.496-5.416 4.891-8.318a73.16 73.16 0 0 0 2.439-5.699c.492-1.29.952-2.593 1.362-3.911a54.63 54.63 0 0 0 .899-3.225c.193-.786.368-1.578.523-2.373.977-5.019 1.163-10.259.004-15.265a27.824 27.824 0 0 0-.681-2.44 25.705 25.705 0 0 0-1.471-3.561 24.082 24.082 0 0 0-2.485-3.937 23.42 23.42 0 0 0-4.269-4.23 24.34 24.34 0 0 0-6.602-3.563c-3.098-1.103-6.395-1.598-9.679-1.546-3.057.049-6.101.568-9.02 1.47a37.564 37.564 0 0 0-4.577 1.764l-.433.18c-.395.132-.491.176-.898.265a6.547 6.547 0 0 1-3.689-.271c-.236-.089-.459-.195-.688-.298a64.487 64.487 0 0 0-.543-.242 38.23 38.23 0 0 0-3.055-1.171 34.2 34.2 0 0 0-4.685-1.199 32.04 32.04 0 0 0-3.411-.428 32.862 32.862 0 0 0-2.424-.072z"/><path d="M312.346 308c-16.896-1.903-23.701-10.357-26.695-21.283 14.995 1.598 25.327 7.4 26.695 21.283z"/></g></svg>