<svg xmlns="http://www.w3.org/2000/svg" width="9470" height="6593" viewBox="0 0 9470 6593"><g fill="none" fill-rule="evenodd"><path fill="#D5D2CF" d="M8602.855 286.801c0-156.59-127.177-283.722-283.822-283.722H1150.967c-156.645 0-283.822 127.131-283.822 283.722v4883.012c0 156.59 127.177 283.722 283.822 283.722h7168.066c156.645 0 283.822-127.131 283.822-283.722V286.8z"/><path fill="#343434" d="M8577.896 285.769c0-142.252-115.536-257.743-257.84-257.743H1149.95c-142.303 0-257.84 115.49-257.84 257.743V5170.85c0 142.252 115.537 257.743 257.84 257.743h7170.108c142.303 0 257.84-115.49 257.84-257.743V285.77z"/><path fill="#3E3E3E" d="M8564.165 5253.976H905.835c-8.897-26.087-13.728-54.05-13.728-83.13v-116.428h7685.792v116.427c0 29.08-4.83 57.044-13.728 83.131h-.006z"/><g fill="#343434"><path d="M1172.152 4868.79c-3.918-.78-3.968-.798-7.29-3.017l-2.235-3.342-.783-3.945V406.54c.78-3.917.798-3.967 3.019-7.287l3.343-2.235 3.946-.782h7125.696l3.946.782 3.343 2.235 2.236 3.342.783 3.945v4451.946l-.783 3.945c-.745 1.113-1.286 2.392-2.236 3.342-2.613 2.612-3.875 2.34-7.29 3.017H1172.153z"/><path d="M1172.151 406.539h7125.7v4451.95h-7125.7z"/></g><path fill="#A9A9A9" d="M1085.493 5466C653.244 5466 125.207 5391.42 0 5316.331v-26.554h9470v26.554C9344.793 5391.421 8816.756 5466 8384.507 5466H1085.493z"/><path fill="#D5D2CF" d="M0 5253.978h9470v62.36H0z"/><path fill="#949494" d="M5645.815 5253.976v34.25c0 29.28-23.783 53.055-53.078 53.055h-1715.48c-29.295 0-53.078-23.775-53.078-53.056v-34.249h1821.636z"/><ellipse cx="37.11" cy="38.64" fill="#3E3E3E" rx="37.11" ry="37.1" transform="translate(4697.887 170.04)"/><path fill="#D5D2CF" d="M547.545 3046.745c-149.168 0-212.569 76.658-212.569 218.24v2689.656c0 148.488 86.012 204.59 211.54 204.59h3976.14c125.53 0 211.54-56.102 211.54-204.59V3264.985c0-141.582-63.4-218.24-212.567-218.24H547.545z"/><path fill="#F3F5F7" d="M403.093 3121.261c-30.425 32.509-45.213 80.105-45.213 145.504V5954.87c0 31.823 4.506 60.082 13.393 83.995 8.686 23.372 21.601 42.681 38.391 57.389 31.685 27.76 77.73 41.839 136.853 41.839h3976.14c58.898 0 104.888-14.132 136.694-41.996 34.467-30.198 51.942-77.193 51.942-139.684V3266.757c0-66.862-14.445-114.803-44.161-146.557-14.756-15.767-33.901-27.832-56.905-35.862-24.539-8.567-54.348-12.912-88.598-12.912H547.551c-34.252 0-64.058 4.345-88.596 12.912-21.297 7.436-39.569 19.51-55.857 36.914l-.005.01z"/><path fill="#D5D2CF" d="M4464.65 4603.88c0-46.163 37.543-83.717 83.686-83.717 46.146 0 83.686 37.554 83.686 83.716 0 46.16-37.54 83.716-83.686 83.716-46.143 0-83.686-37.556-83.686-83.716zm-14.094 0c0 54.02 43.777 97.813 97.78 97.813 54.002 0 97.78-43.793 97.78-97.814 0-54.022-43.778-97.818-97.78-97.818-54.003 0-97.78 43.796-97.78 97.818z"/><path fill="#3E3E3E" d="M720.8 3251.207v2707.121c0 7.785 6.31 14.098 14.094 14.098H4343.08c3.739 0 7.324-1.484 9.969-4.128a14.104 14.104 0 0 0 4.126-9.97V3251.207c0-7.787-6.311-14.102-14.095-14.102H734.894c-7.783 0-14.094 6.315-14.094 14.102z"/><path fill="#343434" d="M734.896 5958.318v-2707.12h3608.19v2707.12z"/><path fill="#E0E0E0" d="M530.525 4681.427c0-6.812 5.521-12.337 12.332-12.337 6.811 0 12.333 5.525 12.333 12.337 0 6.815-5.522 12.337-12.333 12.337-6.81 0-12.332-5.522-12.332-12.337z"/><path fill="#E0E0E0" d="M530.525 4681.427c0-6.812 5.521-12.337 12.332-12.337 6.811 0 12.333 5.525 12.333 12.337 0 6.815-5.522 12.337-12.333 12.337-6.81 0-12.332-5.522-12.332-12.337z"/><path fill="#3E3E3E" d="M518.192 4606.521c0-13.14 10.648-23.793 23.784-23.793s23.785 10.652 23.785 23.793c0 13.14-10.649 23.793-23.785 23.793-13.136 0-23.784-10.652-23.784-23.793z"/><g fill="#D5D2CF"><path d="M7895.59 6385.65c0 120.552-79.315 206.996-206.997 206.996h-419.592c-6.992 0-13.108-6-20.1-6h-120.6c-6.992 0-13.108 6-20.1 6-5.136 0-310.452.03-315.323 0-13.231-.08-14.713-8.967-51.177-9-36.464-.032-38.912 9-51.293 9-127.684 0-206.997-86.444-206.997-206.996V4700.12c0-3.668 2.267-9.751 2.892-12.442.628-2.68 1.732-6.705 1.732-10.109v-391.078c0-1.978-.716-8.002-1.551-9.371-.836-1.38-3.073-8.599-3.073-10.393v-339.74c0-120.552 79.313-206.997 206.997-206.997h998.185c127.682 0 206.997 86.445 206.997 206.997v337.532c0 .816-.943 1.667-1.484 2.576-.552.908-1.725 3.024-1.725 7.785v177.695c0 4.75 1.173 6.877 1.725 7.786.541.908 1.484 1.759 1.484 2.576V6385.65z"/><path d="M7902.5 4436.078v14.513s.108 1.594-.87 3.346c-.879 1.576-3.053 3.287-4.725 3.287h-7.9l.008-94.914-.008-94.913h7.9c1.672 0 3.846 1.711 4.725 3.287.978 1.752.87 3.346.87 3.346v162.048zm-1422.395 249.641c-1.612 0-3.595-2.104-3.595-3.979v-176.113c0-1.99 2.354-3.634 3.595-3.634l9.9.001-.015 183.725h-9.885zm0-227.594c-1.612 0-3.595-2.104-3.595-3.978v-176.114c0-1.989 2.354-3.633 3.595-3.633h9.9l-.015 183.725h-9.885zm-.186-300c-1.612 0-3.409-1.104-3.409-2.978v-92.114c0-1.989 2.045-2.633 3.286-2.633h5.209l-.015 97.725h-5.071z"/></g><path fill="#F7F7F7" d="M7825.99 3791.936c-33.441-34.269-80.947-52.393-137.388-52.393h-998.185c-56.437 0-103.943 18.124-137.387 52.393-16.008 16.411-28.431 36.167-36.925 58.741-8.717 23.161-13.135 48.829-13.135 76.313v2458.66c0 27.484 4.418 53.152 13.135 76.312 8.494 22.575 20.917 42.331 36.925 58.742 33.444 34.269 80.95 52.393 137.387 52.393h998.185c56.441 0 103.947-18.124 137.388-52.393 16.008-16.411 28.428-36.167 36.926-58.742 8.717-23.16 13.133-48.828 13.133-76.312V3926.99c0-27.484-4.416-53.152-13.133-76.313-8.498-22.574-20.918-42.33-36.926-58.741z"/><path fill="#D5D2CF" d="M7189.504 6327.13c47.483 0 86.123 38.639 86.123 86.122s-38.64 86.122-86.123 86.122c-47.482 0-86.122-38.639-86.122-86.122s38.64-86.122 86.122-86.122zm0-9.33c-52.715 0-95.448 42.733-95.448 95.448 0 52.715 42.733 95.449 95.448 95.449 52.716 0 95.449-42.734 95.449-95.449 0-52.715-42.733-95.448-95.449-95.448z"/><path fill="#3E3E3E" d="M6569.664 6264.01l-2.296-.457-1.947-1.301-1.3-1.946-.457-2.296V4050.04l.457-2.296c1.291-1.933 1.314-1.955 3.247-3.247l2.296-.457h1241.98l2.296.457c.649.434 1.395.749 1.946 1.301 1.521 1.52 1.363 2.256 1.758 4.242v2207.97l-.457 2.296-1.301 1.946-1.946 1.301-2.296.457h-1241.98z"/><path fill="#343434" d="M6569.66 4050.04h1241.98v2207.97H6569.66z"/><path fill="#3E3E3E" d="M7290.703 3895.366c0 5.393-4.382 9.775-9.787 9.775h-175.924c-5.405 0-9.786-4.382-9.786-9.775 0-5.394 4.381-9.775 9.786-9.775h175.924c5.405 0 9.787 4.381 9.787 9.775zm-273.696-1.725c0 12.063-9.786 21.849-21.85 21.849-12.063 0-21.849-9.786-21.849-21.849 0-12.064 9.786-21.85 21.849-21.85 12.064 0 21.85 9.786 21.85 21.85zm177.097-96.599c7.625 0 13.8 6.176 13.8 13.8 0 7.624-6.175 13.8-13.8 13.8-7.624 0-13.799-6.176-13.799-13.8 0-7.624 6.175-13.8 13.799-13.8z"/></g></svg>