<?xml version="1.0" standalone="no"?><!DOCTYPE svg PUBLIC "-//W3C//DTD SVG 1.1//EN" "http://www.w3.org/Graphics/SVG/1.1/DTD/svg11.dtd"><svg width="100%" height="100%" viewBox="0 0 1280 720" version="1.1" xmlns="http://www.w3.org/2000/svg" xmlns:xlink="http://www.w3.org/1999/xlink" xml:space="preserve" style="fill-rule:evenodd;clip-rule:evenodd;stroke-linejoin:round;stroke-miterlimit:1.41421;"><g id="Pomme Plate"><rect id="Background" x="0" y="0" width="1280" height="720" style="fill:#f5515f;"/><g id="PommePlate-logo"><path d="M229.238,396.013c0,1.603 1.356,2.96 2.96,2.96c1.726,0 3.083,-1.357 3.083,-2.96l0,-33.917l21.337,-0.247c13.566,0 24.543,-10.977 24.543,-24.543c0,-13.567 -10.977,-24.667 -24.543,-24.667l-24.05,0l-0.37,0c-1.604,0 -2.96,1.357 -2.96,2.96l0,80.414ZM235.281,356.053l0,-37.371l21.337,0c10.236,0 18.623,8.387 18.623,18.624c0,10.236 -8.387,18.623 -18.623,18.747l-21.337,0Z" style="fill:#fff;fill-rule:nonzero;"/><path d="M467.888,396.013c0,1.603 1.234,2.96 2.96,2.96c1.604,0 2.961,-1.357 2.961,-2.96l0,-79.921c0,-0.493 -0.247,-1.11 -0.494,-1.603c-0.246,-0.37 -0.493,-0.617 -0.863,-0.987c-1.357,-0.863 -3.33,-0.616 -4.194,0.74l-30.586,42.551l-30.71,-42.551c-0.987,-1.356 -2.837,-1.603 -4.194,-0.74c-0.123,0.124 -0.246,0.124 -0.246,0.247c-0.74,0.493 -1.234,1.357 -1.234,2.343l0,79.921c0,1.603 1.357,2.96 3.084,2.96c1.603,0 2.96,-1.357 2.96,-2.96l0,-70.917l27.626,38.233c0.617,0.987 1.48,1.357 2.59,1.357l0.247,0c0.863,0 1.85,-0.37 2.467,-1.357l27.626,-38.357l0,71.041Z" style="fill:#fff;fill-rule:nonzero;"/><path d="M568.036,396.013c0,1.603 1.233,2.96 2.96,2.96c1.603,0 2.96,-1.357 2.96,-2.96l0,-79.921c0,-0.493 -0.247,-1.11 -0.494,-1.603c-0.246,-0.37 -0.493,-0.617 -0.863,-0.987c-1.357,-0.863 -3.33,-0.616 -4.193,0.74l-30.587,42.551l-30.71,-42.551c-0.987,-1.356 -2.837,-1.603 -4.194,-0.74c-0.123,0.124 -0.246,0.124 -0.246,0.247c-0.74,0.493 -1.234,1.357 -1.234,2.343l0,79.921c0,1.603 1.357,2.96 3.084,2.96c1.603,0 2.96,-1.357 2.96,-2.96l0,-70.917l27.626,38.233c0.617,0.987 1.48,1.357 2.59,1.357l0.247,0c0.863,0 1.85,-0.37 2.467,-1.357l27.627,-38.357l0,71.041Z" style="fill:#fff;fill-rule:nonzero;"/><path d="M599.362,396.013c0,1.603 1.234,2.836 2.714,2.96l44.647,0c1.726,0 2.96,-1.357 2.96,-2.96c0,-1.727 -1.234,-3.084 -2.96,-3.084l-41.317,0l0,-34.04l36.137,0c1.603,0 2.96,-1.356 2.96,-2.96c0,-1.726 -1.357,-3.083 -2.96,-3.083l-36.137,0l0,-34.164l41.317,0c1.726,0 2.96,-1.356 2.96,-3.083c0,-1.603 -1.234,-2.96 -2.96,-2.96l-44.154,0l-0.247,0c-1.603,0 -2.96,1.357 -2.96,2.96l0,80.414Z" style="fill:#fff;fill-rule:nonzero;"/><path d="M709.499,396.013c0,1.603 1.357,2.96 2.96,2.96c1.727,0 3.084,-1.357 3.084,-2.96l0,-33.917l21.337,-0.247c13.566,0 24.543,-10.977 24.543,-24.543c0,-13.567 -10.977,-24.667 -24.543,-24.667l-24.051,0l-0.37,0c-1.603,0 -2.96,1.357 -2.96,2.96l0,80.414ZM715.543,356.053l0,-37.371l21.337,0c10.236,0 18.623,8.387 18.623,18.624c0,10.236 -8.387,18.623 -18.623,18.747l-21.337,0Z" style="fill:#fff;fill-rule:nonzero;"/><path d="M828.763,398.973c1.727,0 3.084,-1.357 3.084,-2.96c0,-1.727 -1.357,-3.084 -3.084,-3.084l-41.317,0l0,-77.33c0,-1.603 -1.356,-2.96 -3.083,-2.96c-1.603,0 -2.96,1.357 -2.96,2.96l0,80.414c0,1.603 1.357,2.96 2.96,2.96l44.4,0Z" style="fill:#fff;fill-rule:nonzero;"/><path d="M905.724,396.999c0.493,1.234 1.726,1.974 2.836,1.974c0.37,0 0.617,-0.124 1.11,-0.124c1.48,-0.616 2.22,-2.466 1.604,-3.946l-29.971,-80.044c-0.37,-1.11 -1.603,-1.85 -2.96,-1.85c-1.233,0 -2.466,0.74 -2.96,1.85l-29.97,80.044c-0.616,1.48 0.247,3.33 1.727,3.946c0.37,0 0.863,0.124 1.11,0.124c1.233,0 2.343,-0.74 2.837,-1.974l7.646,-20.35l39.344,0l7.647,20.35ZM878.467,324.232l17.39,46.374l-34.904,0l17.514,-46.374Z" style="fill:#fff;fill-rule:nonzero;"/><path d="M940.504,396.013c0,1.603 1.356,2.96 2.96,2.96c1.603,0 2.96,-1.357 2.96,-2.96l0,-77.331l26.023,0c1.603,0 2.96,-1.356 2.96,-3.083c0,-1.603 -1.357,-2.96 -2.96,-2.96l-57.967,0c-1.603,0 -2.96,1.357 -2.96,2.96c0,1.727 1.357,3.083 2.96,3.083l26.024,0l0,77.331Z" style="fill:#fff;fill-rule:nonzero;"/><path d="M998.101,396.013c0,1.603 1.233,2.836 2.713,2.96l44.647,0c1.726,0 2.96,-1.357 2.96,-2.96c0,-1.727 -1.234,-3.084 -2.96,-3.084l-41.317,0l0,-34.04l36.137,0c1.603,0 2.96,-1.356 2.96,-2.96c0,-1.726 -1.357,-3.083 -2.96,-3.083l-36.137,0l0,-34.164l41.317,0c1.726,0 2.96,-1.356 2.96,-3.083c0,-1.603 -1.234,-2.96 -2.96,-2.96l-44.154,0l-0.246,0c-1.604,0 -2.96,1.357 -2.96,2.96l0,80.414Z" style="fill:#fff;fill-rule:nonzero;"/><g id="Pomme"><path d="M339.152,324.876c-0.096,-0.003 -0.12,-0.002 -0.216,-0.011c-0.071,-0.006 -0.143,-0.016 -0.214,-0.028c-0.036,-0.006 -0.071,-0.014 -0.106,-0.021l-0.001,-0.001c-0.088,-0.021 -0.111,-0.025 -0.197,-0.051c-0.097,-0.03 -0.193,-0.066 -0.286,-0.107c-0.093,-0.042 -0.183,-0.089 -0.271,-0.141c-0.077,-0.046 -0.095,-0.06 -0.17,-0.111l-0.001,-0.001c-0.027,-0.019 -0.053,-0.038 -0.079,-0.058c-0.078,-0.06 -0.153,-0.125 -0.223,-0.194c-0.047,-0.045 -0.092,-0.093 -0.136,-0.142c-0.021,-0.025 -0.042,-0.05 -0.063,-0.076l-0.001,-0.001c-0.059,-0.076 -0.075,-0.094 -0.129,-0.173c-0.054,-0.079 -0.065,-0.101 -0.113,-0.183l-0.002,-0.002c-0.014,-0.027 -0.029,-0.054 -0.043,-0.081c-0.032,-0.061 -0.05,-0.102 -0.078,-0.165c-0.013,-0.031 -0.028,-0.061 -0.04,-0.093c-0.052,-0.143 -0.079,-0.229 -0.112,-0.377c-0.011,-0.05 -0.019,-0.1 -0.027,-0.15c-0.03,-0.183 -0.04,-0.369 -0.041,-0.553c-0.001,-0.232 0.01,-0.463 0.026,-0.694c0.044,-0.617 0.127,-1.232 0.232,-1.842c0.219,-1.265 0.542,-2.513 0.955,-3.729c0.602,-1.774 1.397,-3.483 2.381,-5.077c0.356,-0.579 0.737,-1.142 1.142,-1.687c0.095,-0.128 0.191,-0.256 0.289,-0.382c0.061,-0.078 0.121,-0.158 0.186,-0.234c0.048,-0.056 0.098,-0.11 0.151,-0.162c0.265,-0.259 0.585,-0.458 0.935,-0.581c0.279,-0.099 0.575,-0.148 0.871,-0.145c0.407,0.005 0.811,0.108 1.171,0.3c0.326,0.174 0.613,0.42 0.835,0.716c0.133,0.177 0.243,0.372 0.326,0.578c0.097,0.24 0.156,0.495 0.176,0.753c0.04,0.518 -0.082,1.043 -0.346,1.49c-0.038,0.063 -0.078,0.125 -0.121,0.185c-0.043,0.06 -0.073,0.097 -0.117,0.153c-0.046,0.059 -0.092,0.119 -0.138,0.179c-0.06,0.079 -0.12,0.159 -0.179,0.239c-0.356,0.487 -0.691,0.989 -1,1.507c-0.886,1.487 -1.57,3.094 -2.045,4.757c-0.189,0.661 -0.345,1.33 -0.462,2.007c-0.044,0.255 -0.082,0.512 -0.114,0.769c-0.027,0.225 -0.05,0.45 -0.063,0.676c-0.001,0.021 -0.002,0.042 -0.003,0.063l-0.001,0.023l0.009,0.079c0.007,0.099 0.011,0.123 0.011,0.222c0.001,0.148 -0.011,0.296 -0.036,0.442c-0.081,0.474 -0.299,0.922 -0.623,1.279c-0.074,0.082 -0.154,0.159 -0.239,0.231c-0.075,0.064 -0.096,0.077 -0.175,0.136l-0.001,0.001c-0.076,0.052 -0.095,0.066 -0.174,0.112c-0.089,0.053 -0.181,0.1 -0.275,0.142c-0.095,0.041 -0.192,0.077 -0.291,0.107c-0.033,0.009 -0.067,0.018 -0.1,0.027l-0.001,0.001c-0.094,0.021 -0.117,0.028 -0.212,0.044c-0.071,0.012 -0.142,0.021 -0.214,0.027c-0.036,0.003 -0.072,0.004 -0.108,0.006c-0.036,0.001 -0.072,0.001 -0.109,0.002ZM341.304,320.954c-0.035,-0.063 -0.036,-0.063 -0.082,-0.119l0.021,0.028c0.02,0.03 0.041,0.06 0.061,0.091ZM341.055,320.629c-0.14,-0.173 -0.142,-0.172 -0.324,-0.301l0.061,0.048c0.084,0.073 0.084,0.073 0.164,0.149c0.052,0.053 0.053,0.052 0.099,0.104Z" style="fill:#fff;fill-rule:nonzero;"/><path d="M330.108,388.348l0.127,-0.001l0.126,-0.001l0.158,-0.004l0.163,-0.004l0.162,-0.006l0.161,-0.007l0.16,-0.009l0.159,-0.009l0.157,-0.011l0.16,-0.013l0.117,-0.01l0.121,-0.011l0.12,-0.012l0.12,-0.013l0.121,-0.014l0.119,-0.014l0.12,-0.015l0.119,-0.016l0.119,-0.016l0.119,-0.018l0.118,-0.018l0.119,-0.019l0.118,-0.02l0.117,-0.02l0.117,-0.022l0.117,-0.022l0.117,-0.023l0.116,-0.023l0.116,-0.025l0.115,-0.025l0.115,-0.026l0.115,-0.027l0.115,-0.027l0.113,-0.028l0.114,-0.03l0.113,-0.029l0.112,-0.031l0.113,-0.031l0.111,-0.032l0.112,-0.033l0.111,-0.034l0.111,-0.035l0.097,-0.03l0.098,-0.033l0.097,-0.032l0.096,-0.033l0.096,-0.034l0.095,-0.033l0.095,-0.035l0.092,-0.035l0.088,-0.033l0.092,-0.036l0.099,-0.04l0.087,-0.035l0.085,-0.035l0.087,-0.037l0.117,-0.051l0.418,-0.163l0.43,-0.131l0.438,-0.099l0.445,-0.066l0.448,-0.032l0.449,0.001l0.448,0.035l0.444,0.069l0.438,0.101l0.429,0.134l0.417,0.165l-0.012,-0.005l0.11,0.047l0.117,0.049l0.117,0.048l0.116,0.046l0.115,0.045l0.114,0.044l0.113,0.041l0.115,0.042l0.098,0.034l0.1,0.034l0.102,0.034l0.102,0.034l0.102,0.032l0.103,0.032l0.103,0.031l0.104,0.031l0.105,0.03l0.104,0.029l0.105,0.029l0.105,0.028l0.105,0.027l0.107,0.027l0.106,0.026l0.107,0.025l0.108,0.025l0.107,0.024l0.108,0.023l0.108,0.023l0.109,0.021l0.11,0.022l0.108,0.02l0.11,0.02l0.11,0.02l0.11,0.018l0.11,0.018l0.111,0.017l0.112,0.017l0.111,0.016l0.111,0.015l0.113,0.015l0.105,0.013l0.106,0.013l0.107,0.012l0.105,0.011l0.106,0.011l0.108,0.01l0.106,0.009l0.107,0.009l0.106,0.008l0.107,0.008l0.107,0.007l0.107,0.006l0.107,0.006l0.108,0.005l0.108,0.005l0.107,0.004l0.107,0.003l0.108,0.003l0.108,0.002l0.108,0.001l0.107,0.001l0.109,0.001l0.108,-0.001l0.107,-0.001l0.109,-0.001l0.108,-0.002l0.108,-0.003l0.108,-0.004l0.109,-0.004l0.108,-0.004l0.108,-0.005l0.109,-0.006l0.108,-0.007l0.108,-0.007l0.108,-0.007l0.109,-0.009l0.108,-0.008l0.109,-0.01l0.109,-0.01l0.107,-0.01l0.109,-0.012l0.108,-0.012l0.108,-0.012l0.108,-0.013l0.109,-0.014l0.108,-0.014l0.109,-0.015l0.108,-0.015l0.108,-0.016l0.108,-0.017l0.107,-0.017l0.108,-0.018l0.108,-0.018l0.107,-0.019l0.108,-0.02l0.108,-0.02l0.107,-0.021l0.108,-0.021l0.107,-0.022l0.107,-0.022l0.107,-0.023l0.107,-0.024l0.107,-0.024l0.1,-0.024l0.203,-0.048l0.195,-0.05l0.196,-0.051l0.195,-0.053l0.195,-0.055l0.194,-0.057l0.194,-0.059l0.194,-0.06l0.193,-0.063l0.193,-0.065l0.193,-0.066l0.191,-0.069l0.192,-0.07l0.191,-0.072l0.19,-0.074l0.191,-0.077l0.167,-0.068l0.169,-0.071l0.168,-0.072l0.168,-0.074l0.167,-0.075l0.167,-0.077l0.166,-0.078l0.166,-0.079l0.165,-0.081l0.166,-0.083l0.164,-0.083l0.164,-0.085l0.163,-0.087l0.164,-0.088l0.162,-0.089l0.162,-0.091l0.165,-0.094l0.165,-0.096l0.165,-0.097l0.163,-0.099l0.163,-0.1l0.163,-0.101l0.162,-0.104l0.162,-0.104l0.161,-0.105l0.16,-0.108l0.16,-0.108l0.16,-0.11l0.158,-0.111l0.158,-0.113l0.158,-0.114l0.156,-0.115l0.157,-0.116l0.156,-0.118l0.155,-0.119l0.154,-0.12l0.153,-0.122l0.154,-0.123l0.152,-0.124l0.152,-0.125l0.151,-0.127l0.15,-0.128l0.149,-0.129l0.149,-0.13l0.149,-0.131l0.147,-0.133l0.147,-0.133l0.147,-0.135l0.129,-0.121l0.13,-0.123l0.129,-0.123l0.129,-0.125l0.128,-0.125l0.127,-0.126l0.126,-0.126l0.127,-0.128l0.126,-0.129l0.125,-0.13l0.125,-0.13l0.124,-0.131l0.123,-0.132l0.124,-0.133l0.122,-0.134l0.122,-0.134l0.121,-0.136l0.121,-0.136l0.12,-0.137l0.12,-0.138l0.119,-0.138l0.118,-0.139l0.118,-0.14l0.117,-0.14l0.117,-0.143l0.116,-0.142l0.116,-0.142l0.115,-0.144l0.115,-0.145l0.113,-0.145l0.114,-0.146l0.11,-0.143l0.169,-0.221l0.165,-0.221l0.163,-0.221l0.162,-0.222l0.161,-0.224l0.16,-0.225l0.158,-0.227l0.158,-0.228l0.156,-0.23l0.155,-0.23l0.153,-0.232l0.153,-0.234l0.151,-0.234l0.15,-0.236l0.148,-0.237l0.148,-0.238l0.146,-0.239l0.145,-0.241l0.144,-0.242l0.143,-0.243l0.141,-0.244l0.141,-0.245l0.139,-0.246l0.138,-0.248l0.137,-0.248l0.136,-0.25l0.134,-0.25l0.134,-0.251l0.132,-0.253l0.131,-0.253l0.13,-0.255l0.129,-0.253l0.153,-0.309l0.152,-0.308l0.15,-0.31l0.148,-0.311l0.147,-0.311l0.145,-0.313l0.144,-0.315l0.142,-0.315l0.14,-0.316l0.139,-0.318l0.138,-0.319l0.136,-0.319l0.135,-0.321l0.133,-0.322l0.131,-0.323l0.132,-0.326l0.088,-0.221l0.088,-0.225l0.088,-0.224l0.087,-0.226l0.086,-0.225l0.085,-0.226l0.085,-0.226l0.084,-0.226l0.102,-0.276l0.099,-0.275l0.098,-0.274l0.097,-0.273l0.094,-0.273l0.093,-0.272l0.092,-0.271l0.089,-0.272l0.08,-0.246l0.079,-0.246l0.077,-0.247l0.076,-0.247l0.075,-0.247l0.074,-0.247l0.072,-0.247l0.071,-0.248l0.07,-0.247l0.068,-0.248l0.067,-0.248l0.066,-0.247l0.064,-0.248l0.064,-0.249l0.061,-0.248l0.061,-0.25l0.041,-0.174l0.041,-0.176l0.041,-0.176l0.04,-0.176l0.039,-0.176l0.038,-0.176l0.038,-0.176l0.037,-0.177l0.036,-0.176l0.035,-0.176l0.035,-0.177l0.034,-0.176l0.033,-0.176l0.032,-0.176l0.032,-0.177l0.031,-0.176l0.03,-0.176l0.03,-0.176l0.028,-0.177l0.028,-0.176l0.027,-0.176l0.027,-0.177l0.025,-0.176l0.025,-0.175l0.024,-0.176l0.023,-0.176l0.022,-0.176l0.022,-0.176l0.021,-0.176l0.02,-0.175l0.019,-0.176l0.018,-0.176l0.018,-0.175l0.016,-0.176l0.016,-0.175l0.015,-0.175l0.014,-0.175l0.014,-0.176l0.012,-0.175l0.012,-0.174l0.011,-0.174l0.01,-0.176l0.009,-0.174l0.008,-0.174l0.007,-0.174l0.007,-0.174l0.005,-0.175l0.005,-0.173l0.004,-0.174l0.003,-0.173l0.002,-0.174l0.001,-0.173l0.001,-0.173l-0.001,-0.173l-0.001,-0.172l-0.002,-0.173l-0.004,-0.173l-0.004,-0.172l-0.005,-0.172l-0.006,-0.171l-0.007,-0.172l-0.007,-0.173l-0.009,-0.171l-0.009,-0.169l-0.013,-0.198l-0.013,-0.195l-0.015,-0.195l-0.015,-0.195l-0.017,-0.195l-0.019,-0.194l-0.019,-0.194l-0.021,-0.192l-0.023,-0.207l-0.025,-0.206l-0.026,-0.205l-0.028,-0.205l-0.029,-0.204l-0.031,-0.204l-0.032,-0.203l-0.033,-0.203l-0.035,-0.204l-0.037,-0.204l-0.038,-0.203l-0.04,-0.202l-0.041,-0.202l-0.042,-0.202l-0.044,-0.2l-0.046,-0.2l-0.047,-0.2l-0.048,-0.199l-0.05,-0.198l-0.052,-0.198l-0.053,-0.198l-0.054,-0.196l-0.056,-0.195l-0.057,-0.194l-0.069,-0.225l-0.07,-0.223l-0.072,-0.222l-0.074,-0.221l-0.075,-0.22l-0.078,-0.219l-0.08,-0.218l-0.082,-0.217l-0.084,-0.216l-0.086,-0.216l-0.088,-0.213l-0.09,-0.213l-0.091,-0.212l-0.094,-0.21l-0.096,-0.21l-0.1,-0.213l-0.056,-0.117l-0.06,-0.123l-0.06,-0.122l-0.06,-0.121l-0.062,-0.121l-0.063,-0.122l-0.063,-0.12l-0.063,-0.119l-0.065,-0.12l-0.065,-0.12l-0.066,-0.118l-0.066,-0.118l-0.068,-0.118l-0.067,-0.118l-0.069,-0.117l-0.069,-0.116l-0.07,-0.116l-0.071,-0.115l-0.071,-0.116l-0.072,-0.114l-0.072,-0.114l-0.073,-0.113l-0.074,-0.113l-0.075,-0.113l-0.075,-0.111l-0.076,-0.112l-0.076,-0.111l-0.077,-0.111l-0.078,-0.11l-0.078,-0.109l-0.079,-0.109l-0.079,-0.106l-0.103,-0.138l-0.102,-0.134l-0.103,-0.134l-0.104,-0.133l-0.106,-0.133l-0.106,-0.131l-0.108,-0.131l-0.108,-0.129l-0.11,-0.129l-0.11,-0.129l-0.112,-0.127l-0.112,-0.126l-0.114,-0.125l-0.114,-0.125l-0.116,-0.123l-0.117,-0.124l-0.117,-0.121l-0.118,-0.121l-0.119,-0.12l-0.121,-0.119l-0.121,-0.118l-0.122,-0.117l-0.123,-0.116l-0.123,-0.115l-0.125,-0.114l-0.126,-0.113l-0.126,-0.113l-0.128,-0.111l-0.128,-0.11l-0.129,-0.109l-0.129,-0.108l-0.128,-0.104l-0.171,-0.138l-0.17,-0.134l-0.172,-0.132l-0.172,-0.13l-0.174,-0.129l-0.176,-0.127l-0.176,-0.125l-0.178,-0.123l-0.18,-0.122l-0.18,-0.121l-0.182,-0.118l-0.183,-0.117l-0.185,-0.115l-0.185,-0.113l-0.187,-0.111l-0.188,-0.11l-0.176,-0.1l-0.179,-0.1l-0.179,-0.098l-0.18,-0.096l-0.181,-0.095l-0.182,-0.093l-0.184,-0.092l-0.184,-0.089l-0.185,-0.089l-0.186,-0.087l-0.186,-0.085l-0.188,-0.083l-0.188,-0.082l-0.189,-0.08l-0.191,-0.078l-0.194,-0.079l-0.127,-0.05l-0.13,-0.05l-0.131,-0.05l-0.132,-0.049l-0.131,-0.048l-0.132,-0.048l-0.133,-0.046l-0.133,-0.047l-0.133,-0.045l-0.134,-0.044l-0.133,-0.044l-0.134,-0.042l-0.135,-0.043l-0.135,-0.041l-0.136,-0.041l-0.135,-0.04l-0.135,-0.038l-0.136,-0.039l-0.137,-0.037l-0.136,-0.037l-0.137,-0.036l-0.137,-0.035l-0.137,-0.034l-0.138,-0.034l-0.138,-0.033l-0.138,-0.032l-0.138,-0.031l-0.138,-0.03l-0.14,-0.03l-0.139,-0.029l-0.139,-0.028l-0.14,-0.027l-0.127,-0.024l-0.129,-0.024l-0.129,-0.023l-0.128,-0.022l-0.129,-0.022l-0.129,-0.021l-0.13,-0.021l-0.129,-0.019l-0.13,-0.019l-0.13,-0.019l-0.13,-0.018l-0.129,-0.017l-0.131,-0.016l-0.131,-0.016l-0.13,-0.015l-0.131,-0.015l-0.13,-0.014l-0.131,-0.013l-0.131,-0.012l-0.132,-0.012l-0.13,-0.011l-0.132,-0.011l-0.131,-0.01l-0.132,-0.009l-0.132,-0.009l-0.131,-0.008l-0.132,-0.007l-0.132,-0.006l-0.132,-0.006l-0.132,-0.006l-0.133,-0.004l-0.132,-0.005l-0.132,-0.003l-0.133,-0.003l-0.133,-0.002l-0.133,-0.001l-0.133,-0.001l-0.133,0l-0.133,0l-0.133,0.002l-0.133,0.001l-0.133,0.003l-0.133,0.003l-0.134,0.004l-0.134,0.004l-0.132,0.005l-0.133,0.006l-0.134,0.006l-0.134,0.007l-0.133,0.008l-0.134,0.008l-0.134,0.009l-0.133,0.009l-0.133,0.011l-0.134,0.01l-0.134,0.012l-0.134,0.012l-0.133,0.012l-0.134,0.014l-0.134,0.014l-0.133,0.014l-0.127,0.015l-0.274,0.033l-0.267,0.034l-0.267,0.038l-0.267,0.039l-0.267,0.043l-0.267,0.044l-0.266,0.047l-0.266,0.05l-0.267,0.052l-0.265,0.054l-0.265,0.056l-0.266,0.06l-0.265,0.061l-0.264,0.064l-0.263,0.066l-0.264,0.069l-0.266,0.071l-0.195,0.054l-0.199,0.057l-0.197,0.057l-0.198,0.059l-0.198,0.061l-0.197,0.061l-0.196,0.063l-0.197,0.064l-0.197,0.066l-0.195,0.067l-0.196,0.068l-0.196,0.069l-0.195,0.071l-0.194,0.071l-0.195,0.074l-0.193,0.073l-0.197,0.077l-0.197,0.079l-0.198,0.08l-0.197,0.082l-0.199,0.083l-0.2,0.085l-0.2,0.087l-0.191,0.084l-0.263,0.118l-0.224,0.103l-0.398,0.165l-0.409,0.137l-0.419,0.107l-0.424,0.077l-0.429,0.046l-0.431,0.015l-0.432,-0.016l-0.429,-0.047l-0.424,-0.078l-0.418,-0.108l-0.409,-0.138l-0.398,-0.167l-0.074,-0.034l-0.164,-0.074l-0.167,-0.076l-0.166,-0.073l-0.167,-0.074l-0.166,-0.071l-0.164,-0.07l-0.163,-0.069l-0.163,-0.067l-0.179,-0.073l-0.178,-0.072l-0.179,-0.07l-0.179,-0.069l-0.179,-0.069l-0.18,-0.067l-0.18,-0.066l-0.18,-0.066l-0.181,-0.064l-0.18,-0.063l-0.181,-0.061l-0.182,-0.061l-0.181,-0.06l-0.182,-0.059l-0.182,-0.057l-0.18,-0.056l-0.239,-0.072l-0.237,-0.07l-0.238,-0.067l-0.238,-0.066l-0.239,-0.064l-0.238,-0.063l-0.239,-0.06l-0.24,-0.058l-0.239,-0.056l-0.24,-0.055l-0.24,-0.052l-0.241,-0.05l-0.24,-0.049l-0.241,-0.046l-0.242,-0.045l-0.241,-0.042l-0.241,-0.041l-0.242,-0.038l-0.241,-0.037l-0.242,-0.034l-0.242,-0.033l-0.241,-0.03l-0.242,-0.028l-0.243,-0.027l-0.241,-0.024l-0.242,-0.022l-0.242,-0.02l-0.242,-0.018l-0.242,-0.016l-0.241,-0.014l-0.242,-0.011l-0.241,-0.01l-0.254,-0.008l-0.254,-0.005l-0.253,-0.003l-0.254,-0.001l-0.253,0.001l-0.252,0.004l-0.254,0.007l-0.252,0.008l-0.251,0.011l-0.252,0.014l-0.252,0.015l-0.251,0.019l-0.25,0.02l-0.25,0.023l-0.25,0.025l-0.255,0.029l-0.141,0.016l-0.147,0.019l-0.146,0.019l-0.146,0.02l-0.147,0.02l-0.146,0.022l-0.146,0.023l-0.145,0.023l-0.145,0.024l-0.146,0.025l-0.145,0.026l-0.145,0.027l-0.144,0.027l-0.145,0.028l-0.144,0.03l-0.144,0.03l-0.143,0.03l-0.143,0.032l-0.143,0.033l-0.143,0.033l-0.143,0.034l-0.142,0.035l-0.142,0.036l-0.142,0.037l-0.141,0.037l-0.141,0.039l-0.141,0.039l-0.14,0.04l-0.14,0.041l-0.14,0.041l-0.14,0.043l-0.134,0.042l-0.215,0.069l-0.211,0.069l-0.21,0.072l-0.209,0.073l-0.208,0.076l-0.208,0.077l-0.206,0.079l-0.206,0.081l-0.204,0.083l-0.204,0.085l-0.203,0.087l-0.201,0.089l-0.201,0.09l-0.2,0.093l-0.198,0.094l-0.198,0.096l-0.202,0.1l-0.2,0.103l-0.199,0.104l-0.199,0.107l-0.196,0.108l-0.196,0.11l-0.195,0.112l-0.193,0.115l-0.192,0.116l-0.191,0.117l-0.19,0.12l-0.188,0.122l-0.187,0.123l-0.185,0.125l-0.184,0.127l-0.185,0.131l-0.137,0.099l-0.139,0.101l-0.138,0.103l-0.137,0.104l-0.136,0.104l-0.135,0.106l-0.135,0.107l-0.134,0.108l-0.133,0.11l-0.131,0.11l-0.132,0.111l-0.13,0.112l-0.129,0.114l-0.128,0.114l-0.128,0.115l-0.126,0.116l-0.126,0.118l-0.125,0.119l-0.124,0.119l-0.123,0.12l-0.121,0.121l-0.12,0.122l-0.121,0.123l-0.119,0.125l-0.117,0.125l-0.117,0.126l-0.115,0.126l-0.115,0.128l-0.114,0.129l-0.113,0.129l-0.111,0.131l-0.112,0.132l-0.09,0.109l-0.091,0.112l-0.09,0.112l-0.09,0.112l-0.089,0.114l-0.088,0.114l-0.088,0.114l-0.086,0.116l-0.086,0.116l-0.086,0.116l-0.085,0.117l-0.083,0.118l-0.083,0.118l-0.083,0.119l-0.081,0.12l-0.081,0.12l-0.08,0.12l-0.079,0.121l-0.079,0.122l-0.077,0.122l-0.077,0.123l-0.077,0.124l-0.075,0.124l-0.074,0.123l-0.074,0.126l-0.074,0.125l-0.072,0.126l-0.071,0.127l-0.071,0.126l-0.07,0.128l-0.069,0.128l-0.069,0.13l-0.055,0.106l-0.056,0.107l-0.055,0.107l-0.054,0.109l-0.054,0.109l-0.054,0.108l-0.053,0.11l-0.052,0.109l-0.052,0.11l-0.051,0.111l-0.051,0.11l-0.05,0.111l-0.049,0.111l-0.049,0.112l-0.049,0.112l-0.048,0.112l-0.048,0.113l-0.046,0.112l-0.047,0.113l-0.045,0.114l-0.045,0.113l-0.045,0.114l-0.044,0.115l-0.044,0.114l-0.043,0.115l-0.042,0.115l-0.042,0.115l-0.042,0.117l-0.04,0.116l-0.04,0.115l-0.04,0.117l-0.037,0.112l-0.067,0.203l-0.063,0.199l-0.062,0.2l-0.06,0.201l-0.059,0.201l-0.057,0.202l-0.055,0.203l-0.054,0.203l-0.052,0.205l-0.051,0.205l-0.049,0.205l-0.048,0.206l-0.046,0.207l-0.044,0.207l-0.043,0.208l-0.041,0.208l-0.041,0.217l-0.039,0.217l-0.038,0.217l-0.036,0.218l-0.034,0.218l-0.033,0.219l-0.031,0.22l-0.029,0.222l-0.024,0.189l-0.023,0.191l-0.022,0.192l-0.02,0.192l-0.019,0.193l-0.018,0.192l-0.017,0.193l-0.016,0.195l-0.012,0.17l-0.012,0.171l-0.011,0.172l-0.01,0.172l-0.009,0.173l-0.008,0.172l-0.007,0.173l-0.007,0.172l-0.005,0.174l-0.004,0.173l-0.004,0.173l-0.002,0.174l-0.002,0.173l-0.001,0.174l0,0.174l0.001,0.174l0.002,0.175l0.003,0.174l0.004,0.175l0.004,0.175l0.006,0.175l0.006,0.175l0.007,0.175l0.008,0.175l0.009,0.176l0.01,0.176l0.011,0.175l0.012,0.176l0.012,0.176l0.013,0.176l0.014,0.177l0.015,0.176l0.016,0.176l0.017,0.177l0.017,0.176l0.019,0.177l0.019,0.176l0.02,0.177l0.02,0.177l0.022,0.177l0.022,0.177l0.024,0.177l0.024,0.177l0.025,0.177l0.025,0.177l0.027,0.178l0.027,0.177l0.028,0.177l0.028,0.178l0.03,0.177l0.03,0.177l0.031,0.178l0.032,0.177l0.033,0.177l0.033,0.177l0.034,0.178l0.035,0.177l0.036,0.178l0.036,0.177l0.037,0.177l0.038,0.177l0.039,0.177l0.039,0.177l0.039,0.174l0.066,0.284l0.067,0.282l0.068,0.28l0.07,0.281l0.073,0.281l0.073,0.28l0.076,0.281l0.077,0.281l0.079,0.279l0.081,0.28l0.082,0.28l0.084,0.28l0.085,0.279l0.088,0.28l0.088,0.279l0.091,0.281l0.065,0.195l0.065,0.196l0.067,0.198l0.067,0.197l0.069,0.198l0.069,0.198l0.07,0.198l0.069,0.194l0.146,0.402l0.148,0.399l0.15,0.4l0.155,0.403l0.087,0.225l0.089,0.227l0.089,0.226l0.09,0.226l0.091,0.225l0.092,0.226l0.092,0.224l0.093,0.224l0.094,0.223l0.094,0.224l0.095,0.222l0.096,0.222l0.097,0.221l0.097,0.221l0.098,0.221l0.099,0.22l0.105,0.231l0.106,0.231l0.107,0.23l0.107,0.23l0.109,0.229l0.109,0.228l0.11,0.227l0.111,0.227l0.111,0.226l0.113,0.226l0.114,0.225l0.114,0.224l0.115,0.223l0.116,0.222l0.117,0.222l0.118,0.221l0.118,0.22l0.12,0.219l0.121,0.219l0.121,0.217l0.122,0.218l0.124,0.216l0.124,0.215l0.125,0.215l0.126,0.213l0.127,0.213l0.128,0.212l0.128,0.21l0.13,0.21l0.131,0.21l0.131,0.208l0.134,0.209l0.099,0.152l0.099,0.154l0.101,0.152l0.101,0.152l0.101,0.152l0.102,0.151l0.103,0.15l0.1,0.146l0.184,0.265l0.184,0.259l0.185,0.258l0.186,0.255l0.189,0.254l0.19,0.252l0.191,0.249l0.193,0.248l0.199,0.251l0.095,0.118l0.098,0.121l0.099,0.121l0.099,0.12l0.1,0.12l0.1,0.12l0.101,0.119l0.101,0.118l0.101,0.118l0.102,0.117l0.102,0.117l0.103,0.116l0.103,0.115l0.103,0.115l0.104,0.114l0.104,0.114l0.105,0.113l0.105,0.113l0.105,0.111l0.106,0.111l0.106,0.111l0.107,0.11l0.107,0.11l0.107,0.108l0.108,0.108l0.108,0.108l0.109,0.107l0.109,0.106l0.109,0.106l0.11,0.105l0.11,0.104l0.111,0.104l0.111,0.103l0.111,0.102l0.112,0.102l0.112,0.101l0.113,0.1l0.113,0.099l0.113,0.099l0.114,0.098l0.114,0.098l0.114,0.097l0.115,0.096l0.116,0.095l0.115,0.095l0.115,0.093l0.144,0.115l0.143,0.113l0.144,0.112l0.144,0.111l0.145,0.109l0.145,0.109l0.147,0.107l0.144,0.105l0.181,0.129l0.181,0.127l0.182,0.125l0.182,0.123l0.183,0.121l0.184,0.12l0.184,0.118l0.19,0.118l0.112,0.07l0.117,0.071l0.118,0.071l0.119,0.07l0.118,0.069l0.118,0.068l0.119,0.068l0.119,0.067l0.12,0.066l0.12,0.066l0.119,0.064l0.12,0.064l0.121,0.064l0.121,0.062l0.12,0.062l0.12,0.06l0.15,0.074l0.147,0.071l0.148,0.071l0.149,0.07l0.149,0.068l0.15,0.067l0.15,0.066l0.15,0.065l0.15,0.064l0.151,0.063l0.151,0.061l0.152,0.06l0.151,0.059l0.152,0.058l0.153,0.057l0.15,0.054l0.191,0.068l0.189,0.065l0.189,0.062l0.19,0.062l0.19,0.059l0.191,0.057l0.191,0.056l0.191,0.054l0.192,0.051l0.192,0.05l0.192,0.048l0.193,0.047l0.193,0.044l0.192,0.042l0.194,0.041l0.196,0.039l0.153,0.029l0.156,0.028l0.156,0.027l0.157,0.026l0.156,0.025l0.156,0.023l0.157,0.022l0.157,0.021l0.157,0.02l0.156,0.018l0.158,0.017l0.157,0.016l0.156,0.015l0.157,0.013l0.157,0.012l0.157,0.011l0.157,0.009l0.157,0.008l0.158,0.007l0.159,0.006l0.16,0.004l0.161,0.003l0.162,0.002l0.156,0.001ZM330.112,394.348l-0.207,-0.001l-0.208,-0.003l-0.208,-0.004l-0.207,-0.005l-0.208,-0.008l-0.207,-0.009l-0.207,-0.01l-0.208,-0.013l-0.205,-0.014l-0.205,-0.016l-0.205,-0.017l-0.205,-0.019l-0.204,-0.021l-0.205,-0.022l-0.204,-0.024l-0.204,-0.025l-0.204,-0.027l-0.204,-0.029l-0.203,-0.031l-0.204,-0.032l-0.203,-0.033l-0.202,-0.035l-0.203,-0.037l-0.202,-0.038l-0.251,-0.05l-0.25,-0.053l-0.25,-0.055l-0.25,-0.057l-0.249,-0.06l-0.248,-0.062l-0.248,-0.064l-0.247,-0.067l-0.246,-0.069l-0.246,-0.072l-0.245,-0.073l-0.245,-0.077l-0.243,-0.078l-0.243,-0.081l-0.242,-0.083l-0.242,-0.085l-0.195,-0.071l-0.195,-0.073l-0.194,-0.073l-0.194,-0.076l-0.193,-0.077l-0.192,-0.078l-0.192,-0.079l-0.192,-0.081l-0.191,-0.083l-0.19,-0.084l-0.189,-0.085l-0.189,-0.087l-0.188,-0.088l-0.188,-0.089l-0.187,-0.091l-0.186,-0.092l-0.153,-0.077l-0.153,-0.078l-0.152,-0.078l-0.151,-0.08l-0.151,-0.08l-0.151,-0.081l-0.15,-0.083l-0.15,-0.083l-0.149,-0.083l-0.149,-0.085l-0.148,-0.086l-0.148,-0.086l-0.147,-0.087l-0.146,-0.089l-0.147,-0.089l-0.145,-0.089l-0.231,-0.144l-0.229,-0.146l-0.227,-0.149l-0.227,-0.15l-0.225,-0.152l-0.223,-0.154l-0.223,-0.156l-0.221,-0.157l-0.18,-0.131l-0.179,-0.132l-0.178,-0.132l-0.177,-0.134l-0.176,-0.136l-0.175,-0.136l-0.175,-0.138l-0.173,-0.138l-0.141,-0.115l-0.141,-0.115l-0.14,-0.115l-0.139,-0.117l-0.139,-0.117l-0.138,-0.118l-0.137,-0.118l-0.137,-0.12l-0.136,-0.12l-0.135,-0.12l-0.135,-0.122l-0.134,-0.122l-0.134,-0.122l-0.133,-0.124l-0.132,-0.124l-0.132,-0.124l-0.131,-0.126l-0.13,-0.126l-0.13,-0.126l-0.13,-0.128l-0.128,-0.127l-0.128,-0.129l-0.128,-0.129l-0.127,-0.13l-0.126,-0.13l-0.125,-0.131l-0.125,-0.131l-0.125,-0.132l-0.124,-0.133l-0.123,-0.133l-0.122,-0.134l-0.122,-0.134l-0.122,-0.135l-0.12,-0.135l-0.121,-0.136l-0.119,-0.137l-0.119,-0.137l-0.119,-0.137l-0.117,-0.138l-0.118,-0.139l-0.116,-0.139l-0.116,-0.139l-0.116,-0.14l-0.115,-0.141l-0.114,-0.141l-0.114,-0.141l-0.225,-0.285l-0.223,-0.286l-0.221,-0.288l-0.219,-0.29l-0.216,-0.291l-0.214,-0.293l-0.212,-0.295l-0.209,-0.296l-0.208,-0.297l-0.117,-0.171l-0.116,-0.171l-0.116,-0.172l-0.116,-0.172l-0.114,-0.172l-0.114,-0.173l-0.113,-0.174l-0.112,-0.174l-0.15,-0.234l-0.148,-0.235l-0.148,-0.236l-0.146,-0.236l-0.144,-0.237l-0.144,-0.238l-0.142,-0.239l-0.141,-0.239l-0.14,-0.24l-0.139,-0.241l-0.138,-0.241l-0.136,-0.242l-0.136,-0.243l-0.134,-0.243l-0.133,-0.244l-0.132,-0.244l-0.131,-0.246l-0.129,-0.245l-0.129,-0.247l-0.127,-0.247l-0.126,-0.247l-0.126,-0.248l-0.124,-0.249l-0.123,-0.249l-0.122,-0.25l-0.121,-0.25l-0.12,-0.25l-0.119,-0.252l-0.118,-0.251l-0.117,-0.252l-0.115,-0.253l-0.115,-0.253l-0.108,-0.24l-0.107,-0.241l-0.107,-0.241l-0.105,-0.241l-0.104,-0.242l-0.104,-0.242l-0.103,-0.243l-0.101,-0.243l-0.101,-0.243l-0.101,-0.244l-0.099,-0.244l-0.098,-0.244l-0.098,-0.245l-0.097,-0.245l-0.096,-0.245l-0.095,-0.246l-0.165,-0.431l-0.163,-0.431l-0.159,-0.433l-0.158,-0.433l-0.077,-0.217l-0.077,-0.217l-0.076,-0.218l-0.076,-0.218l-0.074,-0.218l-0.074,-0.219l-0.073,-0.218l-0.072,-0.219l-0.1,-0.31l-0.099,-0.31l-0.097,-0.31l-0.095,-0.312l-0.094,-0.311l-0.092,-0.313l-0.09,-0.312l-0.088,-0.313l-0.086,-0.314l-0.085,-0.314l-0.083,-0.315l-0.081,-0.315l-0.079,-0.316l-0.077,-0.316l-0.075,-0.317l-0.073,-0.317l-0.045,-0.2l-0.045,-0.2l-0.043,-0.2l-0.043,-0.201l-0.042,-0.2l-0.041,-0.201l-0.041,-0.201l-0.039,-0.202l-0.039,-0.201l-0.038,-0.202l-0.037,-0.201l-0.036,-0.202l-0.036,-0.202l-0.034,-0.203l-0.034,-0.202l-0.033,-0.203l-0.032,-0.202l-0.031,-0.203l-0.03,-0.203l-0.03,-0.203l-0.028,-0.203l-0.028,-0.204l-0.026,-0.203l-0.026,-0.204l-0.025,-0.203l-0.024,-0.204l-0.023,-0.204l-0.022,-0.204l-0.021,-0.204l-0.02,-0.204l-0.02,-0.204l-0.018,-0.205l-0.017,-0.204l-0.017,-0.205l-0.015,-0.204l-0.015,-0.205l-0.013,-0.204l-0.012,-0.205l-0.012,-0.205l-0.01,-0.205l-0.01,-0.205l-0.008,-0.205l-0.008,-0.204l-0.006,-0.205l-0.006,-0.205l-0.004,-0.205l-0.003,-0.205l-0.003,-0.206l-0.001,-0.205l0,-0.205l0.001,-0.205l0.002,-0.205l0.003,-0.205l0.004,-0.205l0.005,-0.205l0.007,-0.205l0.007,-0.205l0.009,-0.205l0.009,-0.205l0.011,-0.205l0.012,-0.205l0.013,-0.204l0.014,-0.205l0.015,-0.205l0.019,-0.231l0.02,-0.231l0.021,-0.231l0.023,-0.231l0.025,-0.231l0.026,-0.23l0.027,-0.23l0.029,-0.23l0.036,-0.266l0.037,-0.265l0.04,-0.265l0.041,-0.265l0.044,-0.264l0.046,-0.264l0.047,-0.264l0.05,-0.263l0.051,-0.254l0.052,-0.254l0.054,-0.253l0.056,-0.253l0.058,-0.253l0.061,-0.252l0.062,-0.251l0.064,-0.251l0.066,-0.251l0.069,-0.25l0.07,-0.249l0.072,-0.249l0.075,-0.248l0.076,-0.248l0.079,-0.247l0.081,-0.246l0.048,-0.145l0.049,-0.145l0.05,-0.144l0.051,-0.145l0.051,-0.144l0.053,-0.143l0.052,-0.144l0.054,-0.143l0.054,-0.143l0.055,-0.143l0.056,-0.142l0.057,-0.142l0.057,-0.142l0.058,-0.142l0.059,-0.141l0.059,-0.141l0.06,-0.14l0.061,-0.141l0.061,-0.14l0.063,-0.139l0.063,-0.14l0.064,-0.139l0.064,-0.138l0.065,-0.139l0.066,-0.138l0.067,-0.137l0.067,-0.137l0.068,-0.137l0.069,-0.137l0.069,-0.136l0.071,-0.136l0.071,-0.136l0.086,-0.162l0.088,-0.162l0.088,-0.161l0.09,-0.161l0.09,-0.161l0.092,-0.159l0.092,-0.159l0.094,-0.159l0.095,-0.158l0.095,-0.157l0.097,-0.156l0.098,-0.156l0.099,-0.156l0.099,-0.154l0.101,-0.154l0.102,-0.154l0.103,-0.152l0.103,-0.152l0.105,-0.152l0.106,-0.15l0.107,-0.15l0.108,-0.15l0.108,-0.148l0.11,-0.148l0.111,-0.147l0.111,-0.146l0.113,-0.146l0.114,-0.145l0.114,-0.144l0.116,-0.143l0.116,-0.143l0.118,-0.141l0.141,-0.168l0.143,-0.168l0.144,-0.165l0.146,-0.165l0.147,-0.164l0.148,-0.162l0.149,-0.161l0.151,-0.16l0.152,-0.159l0.153,-0.157l0.154,-0.157l0.156,-0.155l0.157,-0.153l0.158,-0.153l0.159,-0.151l0.161,-0.15l0.162,-0.149l0.163,-0.147l0.164,-0.146l0.165,-0.145l0.166,-0.144l0.168,-0.142l0.169,-0.141l0.169,-0.139l0.171,-0.138l0.172,-0.137l0.173,-0.135l0.175,-0.134l0.175,-0.133l0.176,-0.131l0.177,-0.13l0.179,-0.128l0.233,-0.165l0.235,-0.162l0.236,-0.16l0.238,-0.157l0.239,-0.155l0.242,-0.152l0.242,-0.15l0.245,-0.148l0.245,-0.144l0.247,-0.143l0.249,-0.14l0.25,-0.137l0.251,-0.135l0.253,-0.133l0.254,-0.13l0.255,-0.127l0.25,-0.122l0.251,-0.119l0.253,-0.116l0.253,-0.115l0.255,-0.112l0.255,-0.109l0.257,-0.107l0.258,-0.105l0.259,-0.102l0.259,-0.099l0.261,-0.097l0.261,-0.095l0.262,-0.092l0.264,-0.09l0.264,-0.087l0.265,-0.085l0.174,-0.054l0.174,-0.053l0.175,-0.052l0.175,-0.051l0.176,-0.05l0.175,-0.049l0.176,-0.048l0.177,-0.047l0.176,-0.046l0.177,-0.044l0.177,-0.044l0.178,-0.043l0.177,-0.041l0.178,-0.041l0.178,-0.039l0.179,-0.038l0.178,-0.037l0.179,-0.037l0.179,-0.035l0.179,-0.034l0.179,-0.033l0.18,-0.032l0.18,-0.031l0.18,-0.03l0.18,-0.029l0.18,-0.027l0.181,-0.027l0.18,-0.026l0.181,-0.025l0.181,-0.023l0.181,-0.023l0.181,-0.021l0.307,-0.034l0.307,-0.031l0.308,-0.029l0.308,-0.025l0.308,-0.022l0.308,-0.019l0.308,-0.017l0.309,-0.013l0.309,-0.011l0.308,-0.007l0.309,-0.005l0.309,-0.002l0.309,0.001l0.309,0.004l0.309,0.006l0.308,0.01l0.294,0.011l0.294,0.015l0.293,0.016l0.293,0.02l0.293,0.022l0.293,0.024l0.293,0.027l0.292,0.029l0.292,0.032l0.292,0.034l0.292,0.036l0.291,0.039l0.291,0.042l0.29,0.044l0.29,0.046l0.29,0.048l0.289,0.051l0.289,0.054l0.289,0.055l0.288,0.058l0.288,0.061l0.287,0.062l0.286,0.065l0.286,0.067l0.286,0.07l0.285,0.072l0.284,0.074l0.284,0.076l0.283,0.078l0.283,0.081l0.282,0.083l0.281,0.085l0.216,0.066l0.216,0.069l0.215,0.069l0.215,0.071l0.214,0.072l0.214,0.073l0.214,0.074l0.213,0.076l0.213,0.077l0.212,0.078l0.212,0.079l0.211,0.081l0.211,0.082l0.211,0.083l0.21,0.084l0.209,0.085l0.194,0.08l0.194,0.082l0.193,0.082l0.193,0.084l0.193,0.084l0.192,0.085l0.191,0.087l0.192,0.087l0.091,0.042l0.245,-0.113l0.308,-0.138l0.229,-0.101l0.231,-0.1l0.23,-0.098l0.231,-0.097l0.232,-0.096l0.233,-0.094l0.233,-0.093l0.233,-0.091l0.229,-0.087l0.229,-0.087l0.23,-0.084l0.23,-0.084l0.231,-0.081l0.231,-0.081l0.232,-0.079l0.232,-0.077l0.233,-0.076l0.233,-0.075l0.234,-0.073l0.234,-0.071l0.235,-0.07l0.235,-0.069l0.235,-0.067l0.236,-0.065l0.314,-0.085l0.314,-0.081l0.315,-0.079l0.315,-0.077l0.316,-0.073l0.317,-0.071l0.318,-0.067l0.318,-0.065l0.318,-0.063l0.319,-0.059l0.32,-0.056l0.32,-0.054l0.321,-0.05l0.321,-0.048l0.321,-0.045l0.322,-0.042l0.322,-0.039l0.161,-0.018l0.162,-0.017l0.161,-0.017l0.161,-0.016l0.162,-0.016l0.161,-0.014l0.162,-0.014l0.162,-0.013l0.162,-0.012l0.161,-0.012l0.162,-0.011l0.162,-0.01l0.162,-0.009l0.162,-0.008l0.162,-0.008l0.163,-0.007l0.162,-0.006l0.162,-0.005l0.162,-0.005l0.162,-0.004l0.163,-0.003l0.162,-0.002l0.162,-0.001l0.162,-0.001l0.163,0l0.162,0.001l0.162,0.002l0.163,0.002l0.162,0.004l0.162,0.004l0.162,0.005l0.162,0.005l0.162,0.007l0.161,0.007l0.162,0.008l0.162,0.009l0.161,0.01l0.162,0.011l0.161,0.011l0.162,0.012l0.161,0.013l0.161,0.014l0.162,0.015l0.161,0.015l0.161,0.016l0.161,0.017l0.161,0.018l0.161,0.019l0.16,0.019l0.161,0.02l0.16,0.022l0.161,0.022l0.16,0.022l0.16,0.024l0.16,0.024l0.16,0.026l0.16,0.026l0.16,0.026l0.159,0.028l0.159,0.029l0.16,0.029l0.159,0.03l0.173,0.034l0.173,0.035l0.172,0.036l0.173,0.037l0.172,0.038l0.172,0.038l0.172,0.04l0.172,0.041l0.171,0.042l0.171,0.043l0.171,0.043l0.171,0.045l0.17,0.046l0.17,0.047l0.17,0.047l0.169,0.049l0.169,0.05l0.169,0.05l0.169,0.052l0.168,0.053l0.168,0.054l0.168,0.054l0.167,0.056l0.167,0.057l0.167,0.057l0.166,0.059l0.166,0.06l0.166,0.06l0.165,0.062l0.165,0.063l0.165,0.063l0.164,0.065l0.24,0.097l0.24,0.099l0.238,0.101l0.238,0.103l0.237,0.105l0.235,0.108l0.235,0.109l0.234,0.112l0.233,0.114l0.232,0.115l0.23,0.118l0.23,0.12l0.229,0.123l0.227,0.124l0.226,0.126l0.225,0.129l0.239,0.139l0.237,0.141l0.236,0.144l0.235,0.146l0.233,0.149l0.231,0.151l0.23,0.153l0.229,0.155l0.227,0.158l0.225,0.159l0.224,0.162l0.222,0.165l0.221,0.166l0.219,0.169l0.217,0.171l0.215,0.173l0.168,0.137l0.166,0.138l0.165,0.14l0.164,0.141l0.163,0.142l0.162,0.143l0.161,0.145l0.159,0.146l0.159,0.147l0.157,0.149l0.156,0.149l0.155,0.151l0.153,0.152l0.153,0.154l0.151,0.154l0.15,0.156l0.149,0.157l0.148,0.158l0.146,0.159l0.145,0.16l0.144,0.162l0.142,0.162l0.142,0.164l0.14,0.165l0.138,0.166l0.138,0.167l0.136,0.168l0.135,0.169l0.133,0.17l0.132,0.171l0.131,0.173l0.13,0.173l0.101,0.138l0.101,0.139l0.1,0.14l0.099,0.14l0.099,0.141l0.097,0.141l0.097,0.142l0.095,0.143l0.095,0.143l0.094,0.144l0.093,0.144l0.092,0.145l0.092,0.145l0.09,0.146l0.09,0.147l0.088,0.147l0.088,0.147l0.087,0.148l0.086,0.149l0.085,0.149l0.084,0.15l0.083,0.15l0.083,0.151l0.081,0.151l0.081,0.151l0.079,0.153l0.079,0.152l0.078,0.153l0.077,0.154l0.076,0.154l0.075,0.154l0.074,0.155l0.123,0.262l0.12,0.263l0.118,0.264l0.115,0.266l0.112,0.267l0.11,0.267l0.108,0.269l0.104,0.27l0.103,0.27l0.099,0.272l0.097,0.273l0.095,0.273l0.091,0.275l0.09,0.275l0.086,0.276l0.084,0.277l0.071,0.241l0.069,0.242l0.068,0.242l0.065,0.243l0.063,0.243l0.061,0.244l0.06,0.244l0.058,0.245l0.055,0.245l0.054,0.246l0.052,0.246l0.05,0.246l0.049,0.247l0.046,0.247l0.045,0.247l0.042,0.248l0.041,0.246l0.039,0.247l0.037,0.246l0.035,0.247l0.033,0.247l0.032,0.248l0.03,0.247l0.028,0.248l0.025,0.232l0.023,0.233l0.022,0.233l0.021,0.233l0.018,0.233l0.018,0.233l0.016,0.233l0.014,0.233l0.012,0.204l0.01,0.204l0.009,0.204l0.008,0.203l0.007,0.204l0.006,0.204l0.005,0.204l0.004,0.204l0.003,0.204l0.001,0.204l0.001,0.203l-0.001,0.204l-0.001,0.204l-0.003,0.204l-0.003,0.204l-0.005,0.204l-0.005,0.203l-0.007,0.204l-0.008,0.204l-0.008,0.203l-0.01,0.204l-0.01,0.204l-0.012,0.203l-0.013,0.204l-0.013,0.203l-0.015,0.203l-0.015,0.204l-0.017,0.203l-0.017,0.203l-0.018,0.203l-0.02,0.203l-0.02,0.203l-0.021,0.203l-0.022,0.203l-0.023,0.202l-0.024,0.203l-0.025,0.202l-0.026,0.203l-0.026,0.202l-0.028,0.202l-0.028,0.202l-0.029,0.202l-0.031,0.201l-0.031,0.202l-0.031,0.202l-0.033,0.201l-0.034,0.201l-0.034,0.201l-0.035,0.201l-0.037,0.201l-0.036,0.2l-0.038,0.201l-0.039,0.2l-0.039,0.2l-0.04,0.2l-0.041,0.2l-0.042,0.199l-0.043,0.2l-0.043,0.199l-0.044,0.199l-0.045,0.199l-0.046,0.198l-0.046,0.199l-0.047,0.198l-0.068,0.279l-0.069,0.279l-0.071,0.279l-0.072,0.278l-0.074,0.278l-0.075,0.278l-0.077,0.277l-0.078,0.277l-0.079,0.276l-0.081,0.276l-0.082,0.275l-0.083,0.275l-0.085,0.275l-0.086,0.274l-0.087,0.274l-0.089,0.274l-0.1,0.302l-0.101,0.301l-0.103,0.301l-0.104,0.3l-0.106,0.3l-0.107,0.299l-0.108,0.299l-0.11,0.298l-0.091,0.245l-0.091,0.244l-0.093,0.244l-0.093,0.243l-0.094,0.243l-0.095,0.243l-0.095,0.243l-0.096,0.242l-0.142,0.351l-0.142,0.35l-0.145,0.349l-0.146,0.349l-0.148,0.348l-0.15,0.347l-0.152,0.346l-0.153,0.346l-0.156,0.345l-0.157,0.344l-0.159,0.343l-0.161,0.342l-0.163,0.341l-0.164,0.34l-0.167,0.34l-0.169,0.338l-0.142,0.282l-0.144,0.281l-0.145,0.28l-0.146,0.279l-0.148,0.279l-0.15,0.278l-0.151,0.277l-0.152,0.277l-0.154,0.275l-0.155,0.275l-0.157,0.274l-0.159,0.273l-0.16,0.272l-0.161,0.271l-0.163,0.271l-0.165,0.269l-0.166,0.268l-0.167,0.268l-0.17,0.266l-0.171,0.265l-0.172,0.265l-0.174,0.263l-0.176,0.262l-0.178,0.261l-0.179,0.26l-0.181,0.258l-0.182,0.258l-0.184,0.256l-0.186,0.255l-0.188,0.254l-0.189,0.252l-0.191,0.252l-0.13,0.169l-0.131,0.168l-0.132,0.168l-0.132,0.167l-0.134,0.166l-0.134,0.166l-0.135,0.165l-0.136,0.165l-0.136,0.164l-0.137,0.163l-0.139,0.162l-0.139,0.162l-0.14,0.161l-0.14,0.16l-0.142,0.16l-0.142,0.158l-0.143,0.158l-0.144,0.158l-0.145,0.156l-0.146,0.156l-0.146,0.155l-0.148,0.154l-0.148,0.153l-0.149,0.153l-0.15,0.151l-0.151,0.151l-0.151,0.15l-0.153,0.149l-0.153,0.148l-0.154,0.148l-0.155,0.146l-0.156,0.146l-0.175,0.161l-0.177,0.161l-0.177,0.159l-0.179,0.158l-0.179,0.157l-0.181,0.156l-0.182,0.155l-0.183,0.153l-0.184,0.152l-0.185,0.15l-0.186,0.15l-0.187,0.148l-0.188,0.146l-0.189,0.146l-0.19,0.144l-0.191,0.142l-0.193,0.141l-0.193,0.14l-0.194,0.138l-0.195,0.137l-0.197,0.136l-0.197,0.134l-0.198,0.132l-0.2,0.131l-0.2,0.129l-0.201,0.128l-0.203,0.127l-0.203,0.124l-0.204,0.123l-0.206,0.122l-0.206,0.12l-0.207,0.118l-0.203,0.114l-0.204,0.112l-0.205,0.11l-0.205,0.109l-0.207,0.107l-0.207,0.105l-0.208,0.104l-0.209,0.102l-0.21,0.101l-0.21,0.099l-0.211,0.097l-0.213,0.095l-0.212,0.094l-0.214,0.091l-0.215,0.09l-0.215,0.089l-0.242,0.096l-0.243,0.095l-0.244,0.092l-0.245,0.09l-0.245,0.088l-0.247,0.085l-0.247,0.083l-0.248,0.08l-0.249,0.078l-0.249,0.076l-0.25,0.073l-0.251,0.071l-0.252,0.069l-0.252,0.066l-0.253,0.063l-0.254,0.061l-0.138,0.032l-0.138,0.032l-0.139,0.03l-0.138,0.03l-0.139,0.029l-0.139,0.029l-0.14,0.028l-0.139,0.026l-0.139,0.027l-0.14,0.025l-0.14,0.025l-0.14,0.023l-0.14,0.024l-0.14,0.022l-0.14,0.021l-0.141,0.021l-0.14,0.02l-0.141,0.02l-0.141,0.018l-0.14,0.018l-0.141,0.017l-0.141,0.016l-0.141,0.016l-0.142,0.014l-0.141,0.014l-0.141,0.013l-0.142,0.012l-0.141,0.012l-0.141,0.011l-0.142,0.01l-0.142,0.009l-0.141,0.008l-0.142,0.008l-0.142,0.007l-0.142,0.006l-0.141,0.005l-0.142,0.004l-0.142,0.004l-0.142,0.003l-0.142,0.002l-0.142,0.001l-0.142,0.001l-0.142,-0.001l-0.141,-0.001l-0.142,-0.002l-0.142,-0.003l-0.142,-0.003l-0.142,-0.005l-0.142,-0.005l-0.142,-0.006l-0.141,-0.007l-0.142,-0.007l-0.142,-0.009l-0.141,-0.009l-0.142,-0.01l-0.141,-0.011l-0.142,-0.012l-0.141,-0.012l-0.141,-0.014l-0.142,-0.014l-0.141,-0.015l-0.141,-0.016l-0.141,-0.017l-0.141,-0.017l-0.148,-0.019l-0.149,-0.021l-0.148,-0.021l-0.149,-0.022l-0.148,-0.023l-0.148,-0.024l-0.147,-0.025l-0.148,-0.026l-0.148,-0.027l-0.147,-0.028l-0.147,-0.029l-0.147,-0.029l-0.147,-0.031l-0.146,-0.032l-0.147,-0.032l-0.146,-0.034l-0.146,-0.034l-0.145,-0.036l-0.146,-0.036l-0.145,-0.038l-0.145,-0.038l-0.144,-0.04l-0.145,-0.04l-0.144,-0.042l-0.143,-0.042l-0.144,-0.044l-0.143,-0.044l-0.143,-0.045l-0.142,-0.047l-0.143,-0.047l-0.141,-0.049l-0.142,-0.049l-0.165,-0.06l-0.164,-0.06l-0.163,-0.062l-0.163,-0.064l-0.162,-0.065l-0.162,-0.066l-0.162,-0.068l-0.16,-0.069l-0.016,-0.007l-0.142,0.062l-0.127,0.054l-0.128,0.053l-0.129,0.052l-0.13,0.052l-0.13,0.051l-0.131,0.05l-0.135,0.05l-0.134,0.05l-0.136,0.048l-0.135,0.047l-0.136,0.047l-0.136,0.045l-0.136,0.045l-0.137,0.044l-0.153,0.047l-0.154,0.047l-0.154,0.045l-0.154,0.045l-0.155,0.043l-0.155,0.042l-0.155,0.041l-0.155,0.04l-0.156,0.038l-0.156,0.038l-0.157,0.036l-0.156,0.036l-0.157,0.034l-0.157,0.033l-0.157,0.032l-0.158,0.031l-0.158,0.03l-0.158,0.028l-0.158,0.028l-0.158,0.027l-0.159,0.025l-0.158,0.024l-0.159,0.024l-0.159,0.022l-0.159,0.021l-0.16,0.02l-0.159,0.019l-0.159,0.018l-0.16,0.017l-0.16,0.016l-0.16,0.015l-0.159,0.014l-0.21,0.016l-0.209,0.015l-0.21,0.013l-0.21,0.011l-0.21,0.009l-0.21,0.008l-0.21,0.006l-0.21,0.004l-0.171,0.002l-0.172,0.001Z" style="fill:#fff;"/><path d="M336.874,313.833c-15.565,-1.754 -21.833,-9.541 -24.592,-19.606c13.814,1.471 23.332,6.816 24.592,19.606Z" style="fill:#fff;"/></g></g></g></svg>