<?xml version="1.0" encoding="UTF-8" standalone="no"?>
<svg width="9470px" height="6593px" viewBox="0 0 9470 6593" version="1.1" xmlns="http://www.w3.org/2000/svg" xmlns:xlink="http://www.w3.org/1999/xlink" xmlns:sketch="http://www.bohemiancoding.com/sketch/ns">
    <!-- Generator: Sketch 3.3.3 (12072) - http://www.bohemiancoding.com/sketch -->
    <title>Artboard</title>
    <desc>Created with Sketch.</desc>
    <defs></defs>
    <g id="Page-1" stroke="none" stroke-width="1" fill="none" fill-rule="evenodd" sketch:type="MSPage">
        <g id="Artboard" sketch:type="MSArtboardGroup">
            <g id="MacBook-Silver" sketch:type="MSLayerGroup">
                <g id="Full-Screen" transform="translate(865.969954, 0.000000)" sketch:type="MSShapeGroup">
                    <path d="M7736.88485,286.801144 C7736.88485,130.210137 7609.70788,3.07926244 7453.06319,3.07926244 L284.996897,3.07926244 C128.352211,3.07926244 1.17524494,130.210137 1.17524494,286.801144 L1.17524494,5169.81267 C1.17524494,5326.40368 128.352211,5453.53455 284.996897,5453.53455 L7453.06319,5453.53455 C7609.70788,5453.53455 7736.88485,5326.40368 7736.88485,5169.81267 L7736.88485,286.801144 L7736.88485,286.801144 Z" id="Metal-Frame" fill="#D5D2CF"></path>
                    <path d="M7711.92636,285.76854 C7711.92636,143.516508 7596.3905,28.0256165 7454.08689,28.0256165 L283.979383,28.0256165 C141.675777,28.0256165 26.1399216,143.516508 26.1399216,285.76854 L26.1399216,5170.85146 C26.1399216,5313.10349 141.675777,5428.59438 283.979383,5428.59438 L7454.08689,5428.59438 C7596.3905,5428.59438 7711.92636,5313.10349 7711.92636,5170.85146 L7711.92636,285.76854 L7711.92636,285.76854 Z" id="Black-Frame" fill="#343434"></path>
                    <path d="M7698.19455,5253.97609 L39.8655454,5253.97609 C30.9677041,5227.88892 26.1368289,5199.92514 26.1368289,5170.84527 L26.1368289,5054.41762 L7711.92945,5054.41762 L7711.92945,5170.84527 C7711.92945,5199.92514 7707.09857,5227.88892 7698.20073,5253.97609 L7698.19455,5253.97609 Z" id="Plastic-Band" fill="#3E3E3E"></path>
                    <g id="Screen" transform="translate(293.811234, 395.728507)" fill="#343434">
                        <path d="M12.3709993,4473.06153 C8.4524853,4472.28244 8.40300131,4472.26389 5.08138798,4470.0441 L2.84532985,4466.70205 L2.06286414,4462.75713 L2.06286414,10.8114265 C2.8422371,6.89433258 2.8607936,6.84486652 5.08138798,3.52445701 L8.42465056,1.28920928 L12.3709993,0.507027149 L7138.06662,0.507027149 L7142.01297,1.28920928 L7145.35623,3.52445701 L7147.59229,6.86650792 L7148.37476,10.8114265 L7148.37476,4462.75713 L7147.59229,4466.70205 C7146.84694,4467.81503 7146.30571,4469.09497 7145.35623,4470.0441 C7142.74286,4472.65652 7141.48102,4472.38446 7138.06662,4473.06153 L12.3709993,4473.06153 L12.3709993,4473.06153 Z" id="Screen-Frame"></path>
                        <rect id="Screen---Off" x="12.3709993" y="10.8145181" width="7125.69562" height="4451.9457"></rect>
                    </g>
                </g>
                <g id="Body" transform="translate(0.000000, 5252.677602)" sketch:type="MSShapeGroup">
                    <path d="M1085.49334,213.322398 C653.244435,213.322398 125.206884,138.743033 0,63.6535486 L0,37.0995475 L9470,37.0995475 L9470,63.6535486 C9344.79312,138.743033 8816.75556,213.322398 8384.50666,213.322398 L1085.49334,213.322398 L1085.49334,213.322398 Z" id="Body-Bottom" fill="#A9A9A9"></path>
                    <rect id="Body-Top" fill="#D5D2CF" x="0" y="1.29848416" width="9470" height="62.3612477"></rect>
                    <path d="M5645.81483,1.29848416 L5645.81483,35.5475498 C5645.81483,64.8283676 5622.03158,88.6029943 5592.73705,88.6029943 L3877.25676,88.6029943 C3847.96223,88.6029943 3824.17899,64.8283676 3824.17899,35.5475498 L3824.17899,1.29848416 L5645.81483,1.29848416 L5645.81483,1.29848416 Z" id="Hollow" fill="#949494"></path>
                </g>
                <g id="Sensors" transform="translate(4697.887002, 170.039593)" fill="#3E3E3E" sketch:type="MSShapeGroup">
                    <ellipse id="Camera" cx="37.112998" cy="38.6391787" rx="37.112998" ry="37.0995475"></ellipse>
                </g>
            </g>
            <g id="iPad-Air-2-Silver" sketch:type="MSLayerGroup" transform="translate(2534.500000, 4602.123738) rotate(-90.000000) translate(-2534.500000, -4602.123738) translate(977.376262, 2401.623738)">
                <path d="M3112.50265,213.5454 C3112.50265,64.3765172 3035.84493,0.976042434 2894.26211,0.976042434 L204.606235,0.976042434 C56.1181403,0.976042434 0.0158620415,86.9875797 0.0158620415,212.516503 L0.0158620415,4188.65615 C0.0158620415,4314.18508 56.1181403,4400.19661 204.606235,4400.19661 L2894.26211,4400.19661 C3035.84493,4400.19661 3112.50265,4336.79614 3112.50265,4187.62902 L3112.50265,213.550685 L3112.50265,213.5454 Z" id="Frame" fill="#D5D2CF" sketch:type="MSShapeGroup"></path>
                <g id="Body" transform="translate(21.149389, 22.903523)" sketch:type="MSShapeGroup">
                    <path d="M3016.83692,46.1893583 C2984.32854,15.7646709 2936.73185,0.976042434 2871.33265,0.976042434 L183.227728,0.976042434 C151.404948,0.976042434 123.14584,5.482751 99.2329315,14.3693179 C75.8610946,23.0550384 56.5517028,35.9708635 41.8440654,52.7609075 C14.0837304,84.4452886 0.00528734716,130.490179 0.00528734716,189.61298 L0.00528734716,4165.75263 C0.00528734716,4224.65168 14.1366039,4270.64196 42.0009234,4302.4479 C72.1987255,4336.91418 119.194429,4354.38957 181.685586,4354.38957 L2871.34146,4354.38957 C2938.20349,4354.38957 2986.14387,4339.94449 3017.89791,4310.22805 C3033.66478,4295.4729 3045.73051,4276.32732 3053.76023,4253.32337 C3062.32749,4228.78489 3066.67193,4198.97507 3066.67193,4164.7255 L3066.67193,190.647162 C3066.67193,156.395825 3062.32749,126.589532 3053.76023,102.05105 C3046.32445,80.7542978 3034.24991,62.4825721 3016.84573,46.1946437 L3016.83692,46.1893583 Z" id="Body1" fill="#F3F5F7"></path>
                    <path d="M1534.21895,4107.74682 C1580.38102,4107.74682 1617.93528,4145.28921 1617.93528,4191.43277 C1617.93528,4237.57808 1580.38102,4275.11871 1534.21895,4275.11871 C1488.05865,4275.11871 1450.50262,4237.57808 1450.50262,4191.43277 C1450.50262,4145.28921 1488.05865,4107.74682 1534.21895,4107.74682 L1534.21895,4107.74682 Z M1534.21895,4093.65234 C1480.19812,4093.65234 1436.40479,4137.42978 1436.40479,4191.43277 C1436.40479,4245.43399 1480.19812,4289.21319 1534.21895,4289.21319 C1588.24154,4289.21319 1632.03664,4245.43399 1632.03664,4191.43277 C1632.03664,4137.42978 1588.24154,4093.65234 1534.21895,4093.65234 L1534.21895,4093.65234 L1534.21895,4093.65234 Z" id="Home-Button" fill="#D5D2CF"></path>
                    <g id="Screen" transform="translate(165.670211, 362.932746)">
                        <path d="M2721.22134,0.963709768 L14.0995924,0.963709768 C6.31485496,0.963709768 0.00176244905,7.27451121 0.00176244905,15.0581853 L0.00176244905,3623.24393 C0.00176244905,3626.98249 1.48574455,3630.56778 4.12941813,3633.21225 C6.77485416,3635.85497 10.3596755,3637.33841 14.0995924,3637.33841 L2721.22134,3637.33841 C2729.00784,3637.33841 2735.32269,3631.02761 2735.32269,3623.24393 L2735.32269,15.0581853 C2735.32269,7.27451121 2729.00784,0.963709768 2721.22134,0.963709768 L2721.22134,0.963709768 Z" id="Screen-Frame" fill="#3E3E3E"></path>
                        <rect id="Screen---Off" fill="#343434" x="14.1084047" y="15.0581853" width="2707.12175" height="3608.18575"></rect>
                    </g>
                    <g id="Top-Sensors" transform="translate(1443.445774, 160.324660)">
                        <path d="M13.2254177,13.2963759 C20.0372833,13.2963759 25.5625611,18.8178867 25.5625611,25.629042 C25.5625611,32.4401974 20.0372833,37.9617082 13.2254177,37.9617082 C6.41002721,37.9617082 0.888274323,32.4401974 0.888274323,25.629042 C0.888274323,18.8178867 6.41002721,13.2963759 13.2254177,13.2963759 L13.2254177,13.2963759 Z" id="Microphone" fill="#E0E0E0"></path>
                        <path d="M13.2254177,13.2963759 C20.0372833,13.2963759 25.5625611,18.8178867 25.5625611,25.629042 C25.5625611,32.4401974 20.0372833,37.9617082 13.2254177,37.9617082 C6.41002721,37.9617082 0.888274323,32.4401974 0.888274323,25.629042 C0.888274323,18.8178867 6.41002721,13.2963759 13.2254177,13.2963759 L13.2254177,13.2963759 Z" id="Shape" fill="#E0E0E0"></path>
                        <path d="M88.1312649,0.963709768 C101.272085,0.963709768 111.924327,11.6120861 111.924327,24.7481373 C111.924327,37.8841886 101.272085,48.5325649 88.1312649,48.5325649 C74.9904448,48.5325649 64.3382027,37.8841886 64.3382027,24.7481373 C64.3382027,11.6120861 74.9904448,0.963709768 88.1312649,0.963709768 L88.1312649,0.963709768 Z" id="Camera" fill="#3E3E3E"></path>
                    </g>
                </g>
            </g>
            <g id="iPhone-6-6s-Plus-Silver" sketch:type="MSLayerGroup" transform="translate(6476.000000, 3719.000000)">
                <g id="Frame" fill="#D5D2CF" sketch:type="MSShapeGroup">
                    <path d="M1419.59,2666.65 C1419.59,2787.202 1340.275,2873.646 1212.593,2873.646 L793.001,2873.646 C786.009,2873.646 779.893,2867.646 772.901,2867.646 L652.301,2867.646 C645.309,2867.646 639.193,2873.646 632.201,2873.646 C627.065,2873.646 321.749,2873.676 316.878,2873.646 C303.647,2873.566 302.165,2864.679 265.701,2864.646 C229.237,2864.614 226.789,2873.646 214.408,2873.646 C86.724,2873.646 7.411,2787.202 7.411,2666.65 L7.411,981.12 C7.411,977.452 9.678,971.369 10.303,968.678 C10.931,965.998 12.035,961.973 12.035,958.569 L12.035,567.491 C12.035,565.513 11.319,559.489 10.484,558.12 C9.648,556.74 7.411,549.521 7.411,547.727 L7.411,207.987 C7.411,87.435 86.724,0.99 214.408,0.99 L1212.593,0.99 C1340.275,0.99 1419.59,87.435 1419.59,207.987 L1419.59,545.519 C1419.59,546.335 1418.647,547.186 1418.106,548.095 C1417.554,549.003 1416.381,551.119 1416.381,555.88 L1416.381,733.575 C1416.381,738.325 1417.554,740.452 1418.106,741.361 C1418.647,742.269 1419.59,743.12 1419.59,743.937 L1419.59,2666.647 L1419.59,2666.65 Z" id="Frame1"></path>
                    <g id="Buttons" transform="translate(0.000000, 341.000000)">
                        <path d="M1426.5,376.078 L1426.5,390.591 C1426.5,390.591 1426.608,392.185 1425.63,393.937 C1424.751,395.513 1422.577,397.224 1420.905,397.224 L1413.005,397.224 L1413.013,302.31 L1413.005,207.397 L1420.905,207.397 C1422.577,207.397 1424.751,209.108 1425.63,210.684 C1426.608,212.436 1426.5,214.03 1426.5,214.03 L1426.5,376.078 L1426.5,376.078 Z" id="Power"></path>
                        <path d="M4.105,625.719 C2.493,625.719 0.51,623.615 0.51,621.74 L0.51,445.627 C0.51,443.637 2.864,441.993 4.105,441.993 C5.343,441.993 14.005,441.994 14.005,441.994 L13.99,625.719 L4.105,625.719 L4.105,625.719 Z" id="Volume-Down"></path>
                        <path d="M4.105,398.125 C2.493,398.125 0.51,396.021 0.51,394.147 L0.51,218.033 C0.51,216.044 2.864,214.4 4.105,214.4 L14.005,214.4 L13.99,398.125 L4.105,398.125 L4.105,398.125 Z" id="Volume-Up"></path>
                        <path d="M3.919,98.125 C2.307,98.125 0.51,97.021 0.51,95.147 L0.51,3.033 C0.51,1.044 2.555,0.4 3.796,0.4 L9.005,0.4 L8.99,98.125 L3.919,98.125 L3.919,98.125 Z" id="Mute-Switch"></path>
                    </g>
                </g>
                <g id="Body" transform="translate(26.000000, 20.000000)" sketch:type="MSShapeGroup">
                    <path d="M1323.99,52.936 C1290.549,18.667 1243.043,0.543 1186.602,0.543 L188.417,0.543 C131.98,0.543 84.474,18.667 51.03,52.936 C35.022,69.347 22.599,89.103 14.105,111.677 C5.388,134.838 0.97,160.506 0.97,187.99 L0.97,2646.65 C0.97,2674.134 5.388,2699.802 14.105,2722.962 C22.599,2745.537 35.022,2765.293 51.03,2781.704 C84.474,2815.973 131.98,2834.097 188.417,2834.097 L1186.602,2834.097 C1243.043,2834.097 1290.549,2815.973 1323.99,2781.704 C1339.998,2765.293 1352.418,2745.537 1360.916,2722.962 C1369.633,2699.802 1374.049,2674.134 1374.049,2646.65 L1374.049,187.99 C1374.049,160.506 1369.633,134.838 1360.916,111.677 C1352.418,89.103 1339.998,69.347 1323.99,52.936 L1323.99,52.936 Z" id="Front" fill="#F7F7F7"></path>
                    <path d="M687.504,2588.13 C734.987,2588.13 773.627,2626.769 773.627,2674.252 C773.627,2721.735 734.987,2760.374 687.504,2760.374 C640.022,2760.374 601.382,2721.735 601.382,2674.252 C601.382,2626.769 640.022,2588.13 687.504,2588.13 L687.504,2588.13 Z M687.504,2578.8 C634.789,2578.8 592.056,2621.533 592.056,2674.248 C592.056,2726.963 634.789,2769.697 687.504,2769.697 C740.22,2769.697 782.953,2726.963 782.953,2674.248 C782.953,2621.533 740.22,2578.8 687.504,2578.8 L687.504,2578.8 Z" id="Home-Button" fill="#D5D2CF"></path>
                    <g id="Screen" transform="translate(61.000000, 305.000000)">
                        <path d="M6.664,2220.01 L4.368,2219.553 L2.421,2218.252 L1.121,2216.306 L0.664,2214.01 L0.664,6.04 L1.121,3.744 C2.412,1.811 2.435,1.789 4.368,0.497 L6.664,0.04 L1248.644,0.04 L1250.94,0.497 C1251.589,0.931 1252.335,1.246 1252.886,1.798 C1254.407,3.318 1254.249,4.054 1254.644,6.04 L1254.644,2214.01 L1254.187,2216.306 L1252.886,2218.252 L1250.94,2219.553 L1248.644,2220.01 L6.664,2220.01 L6.664,2220.01 Z" id="Screen-Panel" fill="#3E3E3E"></path>
                        <rect id="Screen---Off" fill="#343434" x="6.664" y="6.038" width="1241.98" height="2207.97"></rect>
                    </g>
                    <g id="Top-Sensors" transform="translate(471.000000, 58.000000)" fill="#3E3E3E">
                        <path d="M317.703,98.366 C317.703,103.759 313.321,108.141 307.916,108.141 L131.992,108.141 C126.587,108.141 122.206,103.759 122.206,98.366 C122.206,92.972 126.587,88.591 131.992,88.591 L307.916,88.591 C313.321,88.591 317.703,92.972 317.703,98.366 L317.703,98.366 Z" id="Speaker"></path>
                        <path d="M44.007,96.641 C44.007,108.704 34.221,118.49 22.157,118.49 C10.094,118.49 0.308,108.704 0.308,96.641 C0.308,84.577 10.094,74.791 22.157,74.791 C34.221,74.791 44.007,84.577 44.007,96.641 L44.007,96.641 Z" id="Camera"></path>
                        <path d="M221.104,0.042 C228.729,0.042 234.904,6.218 234.904,13.842 C234.904,21.466 228.729,27.642 221.104,27.642 C213.48,27.642 207.305,21.466 207.305,13.842 C207.305,6.218 213.48,0.042 221.104,0.042 L221.104,0.042 Z" id="Light-Sensor"></path>
                    </g>
                </g>
            </g>
        </g>
    </g>
</svg>