<svg xmlns="http://www.w3.org/2000/svg" width="40" height="40" viewBox="0 0 40 40"><g fill="none"><path fill="#FCC397" d="M28.308 1.927A19.454 19.454 0 0 0 19.843 0C14.56 0 9.76 2.104 6.216 5.53c-3.768 3.641 28.76-.393 22.092-3.603z"/><path fill="#FC9F95" d="M35.266 7.514c.023.029-1.61 2.24-6.517 2.867-9.905 1.267-26.91 1.4-26.884 1.344a20.048 20.048 0 0 1 4.35-6.196c2.138.676 4.464.845 6.664.434 3.633-.673 6.865-2.8 10.459-3.667 1.595-.388 3.333-.501 4.97-.37a19.861 19.861 0 0 1 6.958 5.588z"/><path fill="#F77C88" d="M39.344 16.867c.013.08-22.335 2.209-33.223 1.588C2.574 18.253.48 16.08.504 15.962c.3-1.479.76-2.898 1.361-4.237C5.011 9.98 8.712 8.974 12.3 9.013c4.5.047 8.915 1.567 13.416 1.454 3.342-.086 6.71-1.167 9.55-2.953a20.037 20.037 0 0 1 4.078 9.353z"/><path fill="#F25192" d="M39.585 20l-.003.332s-6.207 1.586-14.2 1.491C14.185 21.691.102 19.861.102 19.828c.011-1.327.15-2.624.404-3.877 2.683 1.677 5.936 2.498 9.067 2.152 2.49-.273 4.855-1.206 7.161-2.2 2.306-.993 4.599-2.06 7.036-2.633a18.2 18.2 0 0 1 10.834.82 18.606 18.606 0 0 1 4.74 2.775c.159 1.021.241 2.068.241 3.135z"/><path fill="#D34CA3" d="M17.196 26.494c-5.923 1.108-16.088-.17-16.113-.25a20.221 20.221 0 0 1-.98-6.417 16.127 16.127 0 0 1 2.974-1.866 15.29 15.29 0 0 1 8.218-1.487c2.773.28 5.42 1.32 7.983 2.44 2.158.943 4.303 1.963 6.544 2.667.219.07-2.106 3.693-8.626 4.913z"/><path fill="#9A50A5" d="M38.873 25.343c-.414.707-4.347 3.091-9.68 3.5-7.06.54-15.4-1.622-12.633-2.722 4.356-1.734 8.134-4.847 12.634-6.147 3.362-.976 7.088-.821 10.388.357a20.244 20.244 0 0 1-.71 5.012z"/><path fill="#59569E" d="M36.962 29.968c-3.409 5.996-28.132 7.5-31.744 3.466a20.042 20.042 0 0 1-4.135-7.19c3.036-1.757 6.59-2.504 10.006-2.03 4.422.613 8.383 3.113 12.746 4.086 3.52.787 7.252.54 10.642-.7 1.533-.565 3.052-1.322 4.396-2.258a20.023 20.023 0 0 1-1.91 4.626z"/><path fill="#39477F" d="M36.99 29.918C33.59 35.94 27.185 40 19.844 40c-5.8 0-11.015-2.534-14.627-6.568.6.232 1.27.433 1.884.608a19.11 19.11 0 0 0 10.55-.087c2.189-.653 4.245-1.693 6.393-2.48 4.1-1.497 8.612-2.025 12.948-1.555z"/></g></svg>