<svg xmlns="http://www.w3.org/2000/svg" width="40" height="40" viewBox="0 0 40 40">
  <g fill="none" transform="translate(.24)">
    <path fill="#FCC397" d="M28.2065475,1.92651535 C25.6412229,0.691237793 22.7712363,1.95399252e-14 19.741886,1.95399252e-14 C14.4572179,1.95399252e-14 9.65753205,2.10360369 6.11420281,5.5293512 C2.34705885,9.17148633 34.8742589,5.13721011 28.2065475,1.92651535 Z"/>
    <path fill="#FC9F95" d="M35.1648948,7.51401991 C35.187447,7.54257296 33.5547225,9.75331067 28.6476149,10.3809269 C18.7429528,11.6477273 1.73829916,11.781666 1.76392887,11.7246123 C2.81585676,9.38294321 4.30045388,7.28290001 6.11425482,5.52930091 C8.25134724,6.20527188 10.5774841,6.37371935 12.7777451,5.96294759 C16.4107777,5.28961425 19.6430599,3.16294759 23.2366744,2.29628092 C24.8317661,1.90807055 26.5695753,1.79467509 28.2062826,1.92638779 C30.9259389,3.23592959 33.3031862,5.15693768 35.1648948,7.51401991 Z"/>
    <path fill="#F77C88" d="M39.2429647,16.8670636 C39.2554765,16.9476339 16.9079649,19.0757211 6.01968483,18.4554441 C2.47217294,18.2533517 0.378584684,16.0804719 0.402594859,15.9618345 C0.701805638,14.4833953 1.16205113,13.0644277 1.76394931,11.7245668 C4.90961429,9.98026188 8.6104756,8.97360691 12.1990861,9.01333333 C16.6993164,9.06 21.1141408,10.58 25.614371,10.4666667 C28.956442,10.3805567 32.3250713,9.29993039 35.1648594,7.513975 C37.2576874,10.1636587 38.6990355,13.3644063 39.2429647,16.8670636 Z"/>
    <path fill="#F25192" d="M39.483772,20 C39.483772,20.1108171 39.4811099,20.3318127 39.4811099,20.3318127 C39.4811099,20.3318127 33.2740716,21.9178524 25.2801909,21.8232279 C14.0835531,21.6906919 0.000439292268,19.8610535 0.000718625708,19.8275481 C0.0117818738,18.5005404 0.150413697,17.2043565 0.404797202,15.9509679 C3.08734177,17.6277967 6.34059131,18.4490381 9.47181664,18.103374 C11.9617251,17.8300407 14.3268096,16.8967073 16.6327669,15.903374 C18.9387244,14.9100407 21.2315424,13.843374 23.6688934,13.2700407 C27.2493686,12.4300407 31.0794915,12.723374 34.5022944,14.0900407 C36.1674279,14.7552831 37.8196179,15.7116797 39.2426387,16.8649651 C39.4013612,17.8863567 39.483772,18.9334284 39.483772,20 Z"/>
    <path fill="#D34CA3" d="M17.0946828,26.4938307 C11.1716591,27.6019331 1.00702862,26.3238457 0.981413473,26.2448209 C0.344514707,24.2799399 5.32907052e-15,22.1807288 5.32907052e-15,20 C5.32907052e-15,19.9424108 0.000240262585,19.8848785 0.000719827669,19.827404 C0.899881585,19.1050917 1.95016328,18.4610256 2.97545933,17.9605645 C5.51135549,16.7138979 8.388875,16.1938979 11.194128,16.4738979 C13.9665327,16.7538979 16.6141133,17.7938979 19.1762882,18.9138979 C21.3349134,19.8574947 23.4795491,20.8768037 25.7201991,21.5811277 C25.9396875,21.6501216 23.6145663,25.2740656 17.0946828,26.4938307 Z"/>
    <path fill="#9A50A5" d="M38.771549,25.3425927 C38.3579678,26.0501979 34.42447,28.433956 29.0924011,28.8422044 C22.0324864,29.3827449 13.6923051,27.220794 16.4589079,26.1205788 C20.8146052,24.3872455 24.5921708,21.2739121 29.0924009,19.9739121 C32.4542517,18.9982549 36.1808596,19.1525164 39.481116,20.3314416 C39.4533229,22.064342 39.2079796,23.7436621 38.771549,25.3425927 Z"/>
    <path fill="#59569E" d="M36.8609977,29.9678072 C33.4520786,35.9635697 8.72820222,37.4671691 5.11639998,33.4339597 C3.27786871,31.3809177 1.85471783,28.9391039 0.981369186,26.2446975 C4.01757358,24.4866667 7.57177004,23.74 10.9880032,24.2133333 C15.4093974,24.8266667 19.3709139,27.3266667 23.7331809,28.3 C27.254529,29.0866667 30.9861067,28.84 34.3760613,27.6 C35.9085029,27.035126 37.4279971,26.2781399 38.7716386,25.3422489 C38.3252508,26.9777739 37.67893,28.5291905 36.8609977,29.9678072 Z"/>
    <path fill="#39477F" d="M36.889393,29.9177033 C33.4876405,35.9410719 27.0826523,40 19.7418854,40 C13.9420555,40 8.72637086,37.4662777 5.11449738,33.4318308 C5.71387782,33.6639727 6.38425055,33.8646409 6.99867865,34.04 C10.4346209,35 14.1333503,34.9733333 17.5495834,33.9533333 C19.7372867,33.3 21.7935963,32.26 23.9418813,31.4733333 C28.041267,29.9757677 32.5533091,29.4483787 36.889393,29.9177033 L36.889393,29.9177033 Z"/>
  </g>
</svg>
