<svg xmlns="http://www.w3.org/2000/svg" width="154" height="154" viewBox="0 0 154 154"><g fill="none" fill-rule="evenodd"><path fill="#FCFAF8" d="M0 0h154v154H0z"/><g stroke="#539A9C" stroke-linecap="round" stroke-linejoin="round" stroke-width="3"><g fill-rule="nonzero"><path d="M63.629 95.687c-3.157-1.823-4.845-2.142-7.128-2.234C68.65 57.38 96.205 30.2 100.129 32.467"/><path d="M56.558 93.486c-6.903-.28-17.963 7.294-17.963 7.294s6.74-21.886 26.22-28.08"/></g><g fill-rule="nonzero"><path d="M63.744 95.753c3.157 1.823 4.277 3.125 5.499 5.056 25.164-28.558 34.925-66.01 31.001-68.276"/><path d="M69.185 100.776c3.695 5.839 2.665 19.204 2.665 19.204s15.584-16.78 11.21-36.747"/></g><path d="M66.48 98.488c-.78 3.301-7.973 10.01-9.618 9.06-1.645-.95.5-10.468 3.038-12.86"/></g></g></svg>