<svg xmlns="http://www.w3.org/2000/svg" width="40" height="40" viewBox="0 0 40 40"><g fill="none"><path fill="#FDB300" d="M8.71 3.19L19.96 2l11.25 1.19 8.71 11.67-19.96 23.21L0 14.86z"/><path fill="#EA6C00" d="M8.08 14.862l11.88 23.21L0 14.862z"/><path fill="#EA6C00" d="M31.839 14.862l-11.88 23.21 19.96-23.21z"/><path fill="#FDAD00" d="M8.08 14.862h23.75l-11.87 23.21z"/><path fill="#FDD231" d="M19.96 2L8.71 3.19l-.63 11.67zm.004 0l11.25 1.19.62 11.67z"/><path fill="#FDAD00" d="M39.919 14.86l-8.71-11.67.63 11.67zM0 14.86L8.71 3.19l-.63 11.67z"/><path fill="#FEEEB7" d="M19.96 2L8.08 14.86h23.75z"/></g></svg>