<svg xmlns="http://www.w3.org/2000/svg" fill-rule="evenodd" stroke-linejoin="round" stroke-miterlimit="1.41" clip-rule="evenodd" viewBox="0 0 1280 720" width="1280" height="720"><path fill="#fff" fill-rule="nonzero" d="M332.496 367.758c0 14.52-4.422 25.684-13.267 33.49a47.586 47.586 0 0 1-14.771 8.548c-5.425 1.952-11.377 2.928-17.856 2.928-6.428 0-11.943-.391-16.545-1.171-4.602-.781-9.526-2.108-14.771-3.982l-3.934-43.56 2.931-.078a107.686 107.686 0 0 0 5.824 16.003c2.391 5.257 5.27 10.357 8.639 15.301 3.368 4.944 6.954 8.678 10.76 11.203 3.805 2.524 7.841 3.786 12.109 3.786 4.166 0 7.881-.716 11.146-2.147 3.265-1.431 6.081-3.63 8.446-6.597 4.885-5.776 7.328-13.843 7.328-24.2 0-9.003-5.039-16.133-15.118-21.39-2.057-1.041-5.425-2.706-10.105-4.996-5.245-2.55-8.613-4.189-10.104-4.918a4615.382 4615.382 0 0 1-10.182-4.84c-10.49-6.87-15.735-16.576-15.735-29.118 0-5.465.862-10.292 2.584-14.482 1.723-4.189 4.461-7.923 8.215-11.202 7.199-6.557 15.581-9.836 25.145-9.836.103 0 3.6.26 10.49.78 3.446.261 6.248.391 8.408.391 2.674 0 4.923-.065 6.749-.195a23.736 23.736 0 0 0 5.284-.976l.077 11.475 3.316 25.684-2.159 1.093c-2.623-5.881-4.963-10.695-7.019-14.442-2.366-4.372-4.757-8.145-7.174-11.32-4.679-6.557-10.67-9.836-17.972-9.836-3.445 0-6.44.481-8.986 1.444-2.545.963-4.769 2.511-6.672 4.645-4.113 3.643-6.17 8.9-6.17 15.769 0 7.391 3.111 13.558 9.333 18.502 3.856 3.07 10.477 6.492 19.861 10.265 9.385 3.774 15.491 6.779 18.32 9.017 5.964 4.684 9.795 9.003 11.492 12.959 1.389 3.279 2.083 8.613 2.083 16.003zm-11.879-69.868l-3.239-17.487-13.19-.546c3.291 1.249 6.196 3.33 8.716 6.245 1.954 2.29 4.525 6.219 7.713 11.788zm1.389 81.188c0 3.799-.99 8.301-2.97 13.505-1.98 5.204-3.741 8.587-5.283 10.148 3.959-2.81 7.263-6.908 9.911-12.295 2.648-5.386 3.973-11.072 3.973-17.057 0-5.309-1.055-10.331-3.163-15.067-2.314-5.256-5.862-9.914-10.644-13.973-2.468-2.082-8.395-4.958-17.779-8.627-9.385-3.669-16.108-7.065-20.171-10.187-6.53-4.996-9.796-11.137-9.796-18.424 0-4.319.695-8.327 2.083-12.022 1.183-3.174 2.957-6.297 5.322-9.367-3.805 2.029-6.993 5.399-9.564 10.109-2.571 4.71-3.857 9.693-3.857 14.949 0 7.963 1.748 14.312 5.245 19.048 4.268 5.777 12.11 11.06 23.526 15.848 10.336 4.475 16.532 7.26 18.589 8.353 5.142 2.758 8.793 5.881 10.953 9.368 2.416 3.851 3.625 9.081 3.625 15.691zm-42.732 30.523c-4.371-2.082-8.472-5.009-12.302-8.782-3.831-3.773-7.161-8.262-9.989-13.466l1.62 15.222c0 1.614 1.182 2.941 3.548 3.982 4.216 1.04 6.993 1.691 8.33 1.951 3.445.729 6.376 1.093 8.793 1.093zm120.405-26.62c0 8.483-2.7 15.691-8.099 21.624-5.348 5.413-12.11 8.119-20.286 8.119-4.165 0-8.061-.703-11.686-2.108-3.625-1.405-6.672-3.565-9.14-6.479-5.554-5.621-8.33-12.673-8.33-21.156 0-4.268.745-8.223 2.236-11.866 1.492-3.643 3.703-7 6.634-10.07 2.468-2.707 5.425-4.723 8.87-6.051 3.445-1.327 7.251-1.99 11.416-1.99 8.176 0 14.938 2.836 20.286 8.509a30.486 30.486 0 0 1 6.016 9.68c1.388 3.591 2.083 7.52 2.083 11.788zm-5.94.312c0-6.87-1.324-12.659-3.972-17.369-2.648-4.71-6.543-8.262-11.686-10.656v.702c3.446 2.811 5.811 6.376 7.097 10.695 1.131 3.799 1.697 9.186 1.697 16.16 0 5.933-.72 11.215-2.16 15.847-1.594 5.204-4.011 9.212-7.251 12.022 4.577-1.197 8.382-4.189 11.416-8.977 3.24-5.101 4.859-11.242 4.859-18.424zm-10.335-.312c0-3.955-.206-7.468-.617-10.539-.412-3.07-1.132-5.946-2.16-8.626-1.029-2.68-2.237-4.723-3.625-6.128-1.389-1.405-3.111-2.108-5.168-2.108-4.165 0-7.276 2.368-9.333 7.104-.926 2.134-1.556 4.827-1.89 8.08-.334 3.252-.501 7.325-.501 12.217 0 5.048.154 9.029.462 11.944.309 2.914.952 5.595 1.929 8.041 1.131 2.446 2.404 4.267 3.818 5.464 1.414 1.197 3.252 1.796 5.515 1.796 3.856 0 6.787-2.629 8.793-7.885.977-2.55 1.684-5.386 2.121-8.509.437-3.123.656-6.74.656-10.851zm-18.127-27.401l-.308-.468c-2.417.624-4.744 1.704-6.981 3.239-2.237 1.536-4.383 3.526-6.44 5.972-2.057 2.446-3.664 5.296-4.821 8.548a29.948 29.948 0 0 0-1.736 10.11c0 3.331.438 6.44 1.312 9.329.874 2.888 2.288 5.633 4.242 8.236 2.16 2.498 4.409 4.54 6.749 6.128 2.34 1.587 4.795 2.771 7.366 3.552l-.077-.703c-1.954-1.405-3.754-3.149-5.399-5.23-1.234-1.614-2.545-3.643-3.934-6.089-1.028-2.03-1.8-4.385-2.314-7.065a43.226 43.226 0 0 1-.771-8.158c0-5.985 1.131-11.307 3.394-15.964 2.262-4.658 5.502-8.471 9.718-11.437zm110.609 27.401c0 4.215-.643 8.041-1.928 11.475-1.286 3.435-3.317 6.662-6.094 9.681-5.451 5.724-11.981 8.587-19.592 8.587-2.571 0-4.859-.273-6.864-.82-2.006-.546-3.728-1.314-5.168-2.303v19.595c0 2.602.964 4.514 2.892 5.737 1.929 1.223 4.847 1.835 8.755 1.835v2.732H409.32v-2.732c2.931 0 5.297-.521 7.097-1.561 2.262-1.301 3.393-3.305 3.393-6.011v-65.029c0-1.509-.565-2.992-1.697-4.45-1.337-1.717-2.905-2.576-4.705-2.576h-4.473v-2.732l12.418-.078c2.211 0 4.628-.13 7.251-.39 3.342-.417 5.913-.729 7.713-.937l.308 4.293c2.674-1.561 4.525-2.55 5.554-2.966a16.777 16.777 0 0 1 6.556-1.327c7.456 0 13.833 2.836 19.129 8.509 2.726 2.706 4.744 5.842 6.055 9.407 1.311 3.565 1.967 7.585 1.967 12.061zm-7.79.312c0-13.791-5.117-23.029-15.35-27.713v.703c1.697 1.353 3.111 3.148 4.242 5.386.823 1.561 1.672 3.747 2.546 6.558.925 4.007 1.388 8.795 1.388 14.364 0 5.933-.54 11.787-1.62 17.564-.822 2.602-1.774 4.606-2.853 6.011-1.235 1.614-3.086 3.071-5.554 4.372 2.674-.52 5.039-1.457 7.096-2.81 2.263-1.51 4.037-3.487 5.322-5.933 3.189-4.944 4.783-11.112 4.783-18.502zm-9.951-1.639c0-7.442-1.015-13.649-3.046-18.619-2.031-4.97-5.155-7.455-9.372-7.455-2.263 0-4.255.416-5.978 1.249-1.722.833-2.892 2.056-3.509 3.669v46.527c.977.937 2.147 1.665 3.509 2.186 1.363.52 2.738.859 4.127 1.015 5.348 0 9.063-2.668 11.146-8.002 2.082-5.334 3.123-12.191 3.123-20.57zm-27.999 46.214v-71.82h-11.261c1.748 2.186 2.854 3.878 3.317 5.075.462 1.197.694 2.628.694 4.293v63.233c0 1.77-.45 3.409-1.35 4.918-.9 1.509-2.147 2.55-3.741 3.123h6.016c2.469 0 4.14-.677 5.014-2.03.874-1.353 1.311-3.617 1.311-6.792zm130.895-16.627h-33.939v-2.733c2.52 0 4.345-.416 5.477-1.249 1.44-1.093 2.159-3.096 2.159-6.011v-30.601c0-2.082-.102-3.813-.308-5.192a12.09 12.09 0 0 0-1.311-3.942c-.875-2.134-2.88-3.357-6.017-3.669-1.44 0-2.687.325-3.741.976-1.054.65-2.455 2.173-4.203 4.567l-7.251 9.992v25.918c0 3.278.18 5.412.54 6.401.669 1.873 2.185 2.81 4.551 2.81h4.628v2.733H487.61v-2.733c2.828 0 4.847-.585 6.055-1.756 1.209-1.171 1.813-3.084 1.813-5.738V293.362c0-5.413-2.777-8.119-8.331-8.119v-2.732h7.405c3.086 0 6.389-.247 9.912-.742 3.522-.494 6.003-1.106 7.443-1.834v88.604l4.782-6.011c2.623-3.175 4.448-5.231 5.477-6.167 2.417-2.238 5.759-3.357 10.027-3.357 4.885 0 9.076 2.29 12.573 6.87 3.342 4.371 5.013 9.367 5.013 14.988v27.011c0 1.873.437 3.448 1.312 4.723.874 1.275 2.211 1.912 4.011 1.912h5.939v2.733zm-17.278-9.056V372.13c0-2.29-.386-4.58-1.157-6.87-.566-1.717-1.388-3.461-2.468-5.23-1.389-1.458-2.623-2.498-3.703-3.123a9.086 9.086 0 0 0-4.628-1.249c-.668 0-1.362.078-2.082.234 1.491.677 2.699 1.379 3.625 2.108 1.131.937 1.954 1.978 2.468 3.123.515 1.145.926 2.485 1.234 4.02.309 1.535.463 3.318.463 5.347v31.851c0 1.822-.385 3.279-1.157 4.372-.308.468-.9 1.015-1.774 1.639h5.399c1.595 0 2.623-.364 3.086-1.093.463-.728.694-2.42.694-5.074zm-37.949 3.279V285.243h-11.57c1.542.781 2.596 1.64 3.162 2.576.771 1.249 1.157 3.227 1.157 5.933v105.701c0 2.55-.206 4.397-.617 5.542-.566 1.51-1.697 2.629-3.394 3.357h6.479c1.389 0 2.533-.234 3.433-.702.9-.469 1.35-1.197 1.35-2.186zm90.168-91.259c0 5.777-2.623 8.666-7.868 8.666-5.039 0-7.559-2.889-7.559-8.666 0-6.037 2.52-9.055 7.559-9.055 5.245 0 7.868 3.018 7.868 9.055zm9.873 96.879h-34.016v-2.732c2.88 0 4.924-.585 6.132-1.756 1.209-1.171 1.813-3.084 1.813-5.738V365.26c0-3.07-.386-5.074-1.157-6.011-1.183-1.405-3.857-2.108-8.022-2.108v-2.732h8.176c3.343 0 6.737-.195 10.182-.585 3.445-.391 5.811-.95 7.096-1.679v46.917c0 3.175.206 5.335.617 6.48.669 1.873 2.186 2.81 4.551 2.81h4.628v2.732zm-15.427-96.879c0-2.342-.167-3.981-.501-4.918-.334-.937-1.093-1.405-2.275-1.405-1.646 0-2.649.182-3.009.547-.771.728-1.157 2.654-1.157 5.776 0 2.394.232 3.995.695 4.801.462.807 1.517 1.21 3.162 1.21 1.388 0 2.186-.481 2.391-1.444.206-.963.437-2.485.694-4.567zm-.308 91.103v-48.167h-11.647c1.542.781 2.597 1.64 3.162 2.576.823 1.354 1.234 3.305 1.234 5.855v33.725c0 2.133-.077 3.565-.231 4.293-.463 2.186-1.748 3.721-3.857 4.606h6.402c1.44 0 2.623-.234 3.548-.703.926-.468 1.389-1.197 1.389-2.185zm68.802-9.29c0 4.632-1.748 8.561-5.245 11.788a13.786 13.786 0 0 1-5.36 3.708c-2.083.806-4.564 1.21-7.444 1.21-.72 0-2.854-.365-6.402-1.093-3.548-.729-6.196-1.093-7.944-1.093-.206 0-1.106.39-2.7 1.171a36.631 36.631 0 0 1-3.702 1.483c-.515-.312-1.363-4.371-2.546-12.178-.36-2.602-.925-6.479-1.697-11.632l2.546-.78c1.131 2.914 2.365 5.477 3.702 7.689 1.337 2.212 3.137 4.541 5.399 6.987 2.263 2.446 4.243 4.163 5.94 5.152 2.005 1.197 4.19 1.796 6.556 1.796 2.314 0 4.435-.703 6.363-2.108 1.929-1.405 2.893-3.201 2.893-5.387 0-3.747-5.091-7.988-15.272-12.724-4.937-2.186-8.704-4.879-11.3-8.08-2.597-3.201-3.896-6.883-3.896-11.046 0-2.863.373-5.426 1.119-7.69.745-2.264 1.838-4.228 3.278-5.894 3.291-2.862 7.405-4.293 12.341-4.293 1.337 0 3.124.156 5.361.468 2.237.312 4.615.625 7.135.937 2.108 0 4.448-.625 7.019-1.874l3.394 23.732h-2.391c-1.235-3.018-2.443-5.672-3.626-7.962-1.337-2.603-2.699-4.866-4.088-6.792-1.594-1.978-3.278-3.461-5.052-4.45-1.774-.989-3.792-1.483-6.055-1.483-2.468 0-4.448.546-5.939 1.639-1.748 1.301-2.751 3.305-3.008 6.011 0 4.684 5.09 9.472 15.272 14.364 5.039 2.342 8.857 5.023 11.454 8.041 2.597 3.019 3.895 6.48 3.895 10.383zm-4.088-26.542l-1.697-12.335h-5.09c1.645 2.29 2.674 3.747 3.085 4.372 1.594 2.602 2.828 5.256 3.702 7.963zm.232 29.274c0-3.331-1.196-6.219-3.587-8.665-2.391-2.446-6.312-4.814-11.763-7.104-5.142-2.498-8.921-4.996-11.338-7.494-2.571-2.707-3.857-5.621-3.857-8.744 0-1.613.283-3.278.849-4.996.565-1.717 1.182-2.914 1.851-3.591-1.646.885-2.906 2.056-3.78 3.513-1.131 1.77-1.851 4.19-2.159 7.26-.052.312-.078.807-.078 1.483 0 3.643 1.35 7.039 4.05 10.188 2.7 3.149 6.415 5.764 11.146 7.845 10.387 4.06 15.58 8.744 15.58 14.052 0 1.145-.295 2.264-.887 3.357-.591 1.093-1.452 2.238-2.584 3.435 1.646-.781 3.15-2.212 4.513-4.294 1.362-2.081 2.044-4.163 2.044-6.245zm-27.151 9.602c-2.057-2.082-3.651-3.864-4.782-5.347-1.132-1.484-2.263-3.318-3.394-5.504l2.237 10.305c0 .78.411 1.171 1.234 1.171l4.705-.625zm90.554-52.069h-18.358v-3.045h18.358v3.045zm.849 37.549c-1.646 3.227-3.034 5.725-4.166 7.494a38.482 38.482 0 0 1-5.013 6.245c-1.697 1.666-3.536 2.941-5.515 3.826-1.98.884-4.178 1.327-6.595 1.327-4.834 0-8.948-1.796-12.341-5.387-1.389-1.873-2.469-4.046-3.24-6.518-.771-2.472-1.157-5.218-1.157-8.236v-31.46c0-1.666-.244-2.889-.733-3.669-.488-.781-1.452-1.25-2.892-1.406h-3.471v-4.137c4.731 0 9.513-3.773 14.346-11.32 2.314-3.591 5.4-9.732 9.256-18.423l3.086-6.87h2.854l-3.317 7.729c-1.183 2.758-1.98 6.167-2.391 10.226-.206 2.03-.309 4.736-.309 8.119v55.348c0 3.383.283 5.647.849 6.792.771 1.561 2.494 2.524 5.168 2.888 2.159.313 4.628-1.014 7.404-3.981 2.469-2.602 4.68-5.907 6.634-9.914l1.543 1.327zm-19.978 16.394c-2.777-1.197-4.744-2.941-5.901-5.231s-1.735-5.36-1.735-9.211v-53.865c-.926.936-2.096 2.433-3.51 4.488-1.414 2.056-2.686 3.5-3.818 4.333v41.999c0 2.55.27 4.957.81 7.221.54 2.264 1.401 4.255 2.584 5.972 1.286 1.613 2.584 2.732 3.895 3.357 1.312.624 2.867.937 4.667.937h3.008zm56.847-96.021c0 5.777-2.622 8.666-7.868 8.666-5.039 0-7.559-2.889-7.559-8.666 0-6.037 2.52-9.055 7.559-9.055 5.246 0 7.868 3.018 7.868 9.055zm9.873 96.879h-34.016v-2.732c2.88 0 4.924-.585 6.133-1.756 1.208-1.171 1.812-3.084 1.812-5.738V365.26c0-3.07-.386-5.074-1.157-6.011-1.183-1.405-3.857-2.108-8.022-2.108v-2.732h8.176c3.343 0 6.737-.195 10.182-.585 3.445-.391 5.811-.95 7.096-1.679v46.917c0 3.175.206 5.335.617 6.48.669 1.873 2.186 2.81 4.551 2.81h4.628v2.732zm-15.427-96.879c0-2.342-.167-3.981-.501-4.918-.334-.937-1.093-1.405-2.275-1.405-1.646 0-2.649.182-3.008.547-.772.728-1.157 2.654-1.157 5.776 0 2.394.231 3.995.694 4.801.463.807 1.517 1.21 3.162 1.21 1.389 0 2.186-.481 2.391-1.444.206-.963.437-2.485.694-4.567zm-.308 91.103v-48.167h-11.647c1.543.781 2.597 1.64 3.162 2.576.823 1.354 1.234 3.305 1.234 5.855v33.725c0 2.133-.077 3.565-.231 4.293-.463 2.186-1.748 3.721-3.857 4.606h6.402c1.44 0 2.623-.234 3.549-.703.925-.468 1.388-1.197 1.388-2.185zm82.686-15.301c-1.028 3.955-2.314 7.26-3.856 9.914-1.697 2.915-3.805 5.296-6.325 7.143-2.52 1.848-5.091 3.253-7.713 4.216-2.623.962-5.477 1.444-8.562 1.444-4.114 0-7.868-.703-11.262-2.108-3.393-1.405-6.376-3.565-8.947-6.479-2.674-2.707-4.692-5.933-6.055-9.681a33.765 33.765 0 0 1-2.044-11.631c0-4.164.681-8.119 2.044-11.866s3.355-6.974 5.978-9.68c4.834-5.517 11.107-8.275 18.82-8.275 2.52 0 4.795.169 6.827.507 2.031.339 3.741.82 5.129 1.444.977 0 2.404-.117 4.281-.351a29.6 29.6 0 0 0 5.283-1.132l5.554 21.39-1.851.547a60.276 60.276 0 0 0-4.667-7.339c-1.671-2.237-3.612-4.384-5.823-6.44-2.211-2.056-4.32-3.578-6.325-4.567a14.287 14.287 0 0 0-6.402-1.483c-4.165 0-7.276 2.368-9.333 7.104-.874 2.134-1.582 5.022-2.121 8.665-.54 3.643-.81 7.442-.81 11.398 0 3.955.231 7.663.694 11.124.463 3.461 1.208 6.492 2.237 9.095 1.131 2.446 2.429 4.267 3.895 5.464 1.465 1.197 3.329 1.796 5.592 1.796 2.777 0 5.219-.43 7.328-1.288 2.108-.859 4.473-2.277 7.096-4.255 2.262-1.613 4.114-3.695 5.553-6.245 1.44-2.55 2.623-5.595 3.549-9.134l2.236.703zm-6.324-24.044l-2.16-9.212-6.017.546c1.08.833 2.456 2.147 4.127 3.943 1.671 1.795 3.021 3.37 4.05 4.723zm-28.385 42.779c-1.852-1.821-3.214-3.512-4.088-5.074-.155-.312-.977-2.16-2.469-5.542-1.08-2.134-1.902-4.58-2.468-7.339a41.059 41.059 0 0 1-.848-8.274c0-5.465 1.002-10.383 3.008-14.755 1.028-2.446 1.954-4.371 2.777-5.777a19.2 19.2 0 0 1 4.088-4.84l-.386-.468c-4.422 1.769-8.459 5.1-12.11 9.992-1.491 2.29-2.622 4.801-3.394 7.534a30.75 30.75 0 0 0-1.157 8.392c0 5.828 1.569 11.397 4.705 16.706 1.749 2.446 3.51 4.384 5.284 5.815 1.774 1.432 3.947 2.668 6.518 3.709l.54-.079zm107.909-11.241c-1.492 4.632-3.561 8.327-6.21 11.085-2.648 2.759-6.003 4.138-10.065 4.138-2.52 0-4.731-.521-6.634-1.562-2.468-1.353-4.139-3.46-5.014-6.323-2.931 2.654-5.682 4.58-8.253 5.777-3.034 1.405-6.479 2.108-10.336 2.108-5.142 0-9.23-1.457-12.264-4.372-3.136-2.706-4.705-6.557-4.705-11.554 0-4.579 1.363-8.327 4.088-11.241 2.726-2.914 7.019-5.386 12.881-7.416.823-.312 3.626-1.028 8.408-2.147 4.782-1.119 7.739-1.834 8.87-2.147v-11.631c0-4.112-1.825-6.324-5.476-6.636-1.851 0-3.304.69-4.358 2.069-1.054 1.379-1.736 3.552-2.044 6.518 0 1.978.308 3.487.925 4.528.412.729 1.234 1.587 2.469 2.576l-1.543 3.123-13.498-6.636c.668-3.174 2.751-6.479 6.247-9.914 3.24-3.227 7.534-4.84 12.882-4.84 6.325 0 11.287 2.238 14.886 6.713 1.8 2.186 3.176 4.697 4.127 7.534.951 2.836 1.427 6.128 1.427 9.875v23.107c0 1.978.206 3.383.617 4.216.411.833 1.44 1.483 3.085 1.951 1.543 0 2.983-.975 4.32-2.927 1.337-1.952 2.391-4.385 3.162-7.299l2.006 1.327zm-12.496 11.788c-2.314-.26-4.088-1.197-5.322-2.81-1.234-1.614-1.851-3.956-1.851-7.026v-23.186c0-4.684-.54-8.769-1.62-12.256-.771-1.717-1.633-3.11-2.584-4.176-.951-1.067-2.173-1.913-3.664-2.538.36.521.797 2.264 1.311 5.231.515 2.966.772 5.334.772 7.104v28.494c0 4.007.925 7.025 2.776 9.055 1.903 1.822 4.191 2.732 6.865 2.732 1.08 0 2.186-.208 3.317-.624zm-30.699-50.664c-.874.884-1.748 1.743-2.622 2.576-1.492 1.717-2.494 3.487-3.009 5.308a43.421 43.421 0 0 0 2.623 1.991c.72.494 1.311.819 1.774.976l1.234-10.851zm13.653 41.764v-22.092c-2.777 0-5.31.299-7.598.898a19.963 19.963 0 0 0-6.363 2.927c-3.754 2.29-5.631 6.428-5.631 12.413 0 3.539.913 6.635 2.738 9.289 1.826 2.655 4.101 3.982 6.826 3.982 2.263 0 4.307-.664 6.132-1.991 1.826-1.327 3.124-3.136 3.896-5.426zm-14.501 9.837c-1.132-.313-2.25-.872-3.356-1.679-1.105-.806-2.249-1.834-3.432-3.083-.977-1.405-1.736-3.019-2.275-4.84a19.145 19.145 0 0 1-.81-5.465c0-2.238.36-4.58 1.08-7.026.617-1.041 1.465-2.342 2.545-3.903.36-.52.9-1.249 1.62-2.186-1.492.156-2.829.586-4.011 1.288-1.183.703-2.443 1.835-3.78 3.396-1.285 1.249-2.262 2.745-2.931 4.489-.668 1.743-1.003 3.5-1.003 5.269 0 3.851 1.157 7.026 3.471 9.524 1.337 1.509 2.932 2.589 4.783 3.24 1.851.65 4.551.976 8.099.976zm98.113-53.943h-18.358v-3.045h18.358v3.045zm.848 37.549c-1.645 3.227-3.034 5.725-4.165 7.494a38.489 38.489 0 0 1-5.014 6.245c-1.697 1.666-3.535 2.941-5.515 3.826-1.979.884-4.178 1.327-6.594 1.327-4.834 0-8.948-1.796-12.342-5.387-1.388-1.873-2.468-4.046-3.239-6.518-.772-2.472-1.157-5.218-1.157-8.236v-31.46c0-1.666-.245-2.889-.733-3.669-.489-.781-1.453-1.25-2.893-1.406h-3.471v-4.137c4.731 0 9.514-3.773 14.347-11.32 2.314-3.591 5.399-9.732 9.256-18.423l3.085-6.87h2.854l-3.316 7.729c-1.183 2.758-1.98 6.167-2.391 10.226-.206 2.03-.309 4.736-.309 8.119v55.348c0 3.383.283 5.647.848 6.792.772 1.561 2.494 2.524 5.168 2.888 2.16.313 4.628-1.014 7.405-3.981 2.468-2.602 4.68-5.907 6.634-9.914l1.542 1.327zm-19.977 16.394c-2.777-1.197-4.744-2.941-5.901-5.231s-1.735-5.36-1.735-9.211v-53.865c-.926.936-2.096 2.433-3.51 4.488-1.414 2.056-2.687 3.5-3.818 4.333v41.999c0 2.55.27 4.957.81 7.221.54 2.264 1.401 4.255 2.584 5.972 1.285 1.613 2.584 2.732 3.895 3.357 1.311.624 2.867.937 4.667.937h3.008zm87.318-32.319h-36.638v-2.655h18.281c.102-.624.154-1.327.154-2.107v-1.796c0-2.29-.193-4.398-.579-6.323-.385-1.926-1.041-3.591-1.967-4.996-1.131-1.562-1.954-2.576-2.468-3.045-1.08-.937-2.468-1.405-4.165-1.405-4.268 0-7.353 2.368-9.256 7.104-.874 2.342-1.555 5.23-2.044 8.665-.488 3.435-.733 7.312-.733 11.632 0 10.773 1.157 17.981 3.471 21.624 2.109 3.747 5.194 5.621 9.256 5.621 2.726 0 5.284-.456 7.675-1.366 2.391-.911 4.628-2.212 6.711-3.904 2.082-1.691 3.92-3.734 5.515-6.128 1.594-2.394 2.828-5.1 3.702-8.119l2.083.625c-2.314 7.078-5.785 12.49-10.413 16.237a29.145 29.145 0 0 1-7.637 3.787c-2.776.91-5.759 1.366-8.947 1.366-4.268 0-8.125-.69-11.57-2.069-3.445-1.379-6.479-3.526-9.102-6.44-2.725-2.707-4.718-5.829-5.977-9.368-1.26-3.539-1.89-7.494-1.89-11.866 0-8.431 2.777-15.587 8.33-21.468 2.571-2.758 5.554-4.866 8.948-6.323 3.393-1.458 7.147-2.186 11.261-2.186 8.125 0 14.45 2.42 18.975 7.26 2.314 2.706 4.216 5.464 5.708 8.275 1.491 2.81 2.596 5.933 3.316 9.368zm-7.636-2.655c-.308-2.237-.694-4.007-1.157-5.308-.668-1.822-1.697-3.591-3.085-5.308-1.286-1.822-2.571-3.331-3.857-4.528-1.491-1.405-2.905-2.342-4.242-2.811 1.08 1.249 1.967 2.525 2.661 3.826a15.515 15.515 0 0 1 1.504 4.215c.36 1.301.617 2.771.771 4.411.155 1.639.232 3.474.232 5.503h7.173zm-26.225-19.672a21.583 21.583 0 0 0-7.521 3.123c-2.288 1.509-4.46 3.565-6.517 6.167-4.011 4.944-6.017 10.487-6.017 16.628 0 4.007.36 7.481 1.08 10.421.72 2.941 1.929 5.53 3.625 7.768 3.086 4.424 7.508 7.858 13.267 10.304-6.993-6.453-10.49-15.092-10.49-25.917 0-6.506.977-12.074 2.931-16.706 2.263-3.851 4.165-6.662 5.708-8.431 1.286-1.509 2.597-2.628 3.934-3.357z"/></svg>