<?xml version="1.0" encoding="UTF-8" standalone="no"?><!DOCTYPE svg PUBLIC "-//W3C//DTD SVG 1.1//EN" "http://www.w3.org/Graphics/SVG/1.1/DTD/svg11.dtd"><svg width="100%" height="100%" viewBox="0 0 1280 720" version="1.1" xmlns="http://www.w3.org/2000/svg" xmlns:xlink="http://www.w3.org/1999/xlink" xml:space="preserve" xmlns:serif="http://www.serif.com/" style="fill-rule:evenodd;clip-rule:evenodd;stroke-linejoin:round;stroke-miterlimit:2;"><g id="Sophisticate"><g><path d="M332.496,367.758c0,14.52 -4.422,25.684 -13.267,33.49c-4.422,3.747 -9.346,6.597 -14.771,8.548c-5.425,1.952 -11.377,2.928 -17.856,2.928c-6.428,0 -11.943,-0.391 -16.545,-1.171c-4.602,-0.781 -9.526,-2.108 -14.771,-3.982l-3.934,-43.56l2.931,-0.078c1.491,5.412 3.433,10.747 5.824,16.003c2.391,5.257 5.27,10.357 8.639,15.301c3.368,4.944 6.954,8.678 10.76,11.203c3.805,2.524 7.841,3.786 12.109,3.786c4.166,0 7.881,-0.716 11.146,-2.147c3.265,-1.431 6.081,-3.63 8.446,-6.597c4.885,-5.776 7.328,-13.843 7.328,-24.2c0,-9.003 -5.039,-16.133 -15.118,-21.39c-2.057,-1.041 -5.425,-2.706 -10.105,-4.996c-5.245,-2.55 -8.613,-4.189 -10.104,-4.918c-4.062,-1.926 -7.456,-3.539 -10.182,-4.84c-10.49,-6.87 -15.735,-16.576 -15.735,-29.118c0,-5.465 0.862,-10.292 2.584,-14.482c1.723,-4.189 4.461,-7.923 8.215,-11.202c7.199,-6.557 15.581,-9.836 25.145,-9.836c0.103,0 3.6,0.26 10.49,0.78c3.446,0.261 6.248,0.391 8.408,0.391c2.674,0 4.923,-0.065 6.749,-0.195c1.825,-0.13 3.587,-0.456 5.284,-0.976l0.077,11.475l3.316,25.684l-2.159,1.093c-2.623,-5.881 -4.963,-10.695 -7.019,-14.442c-2.366,-4.372 -4.757,-8.145 -7.174,-11.32c-4.679,-6.557 -10.67,-9.836 -17.972,-9.836c-3.445,0 -6.44,0.481 -8.986,1.444c-2.545,0.963 -4.769,2.511 -6.672,4.645c-4.113,3.643 -6.17,8.9 -6.17,15.769c0,7.391 3.111,13.558 9.333,18.502c3.856,3.07 10.477,6.492 19.861,10.265c9.385,3.774 15.491,6.779 18.32,9.017c5.964,4.684 9.795,9.003 11.492,12.959c1.389,3.279 2.083,8.613 2.083,16.003Zm-11.879,-69.868l-3.239,-17.487l-13.19,-0.546c3.291,1.249 6.196,3.33 8.716,6.245c1.954,2.29 4.525,6.219 7.713,11.788Zm1.389,81.188c0,3.799 -0.99,8.301 -2.97,13.505c-1.98,5.204 -3.741,8.587 -5.283,10.148c3.959,-2.81 7.263,-6.908 9.911,-12.295c2.648,-5.386 3.973,-11.072 3.973,-17.057c0,-5.309 -1.055,-10.331 -3.163,-15.067c-2.314,-5.256 -5.862,-9.914 -10.644,-13.973c-2.468,-2.082 -8.395,-4.958 -17.779,-8.627c-9.385,-3.669 -16.108,-7.065 -20.171,-10.187c-6.53,-4.996 -9.796,-11.137 -9.796,-18.424c0,-4.319 0.695,-8.327 2.083,-12.022c1.183,-3.174 2.957,-6.297 5.322,-9.367c-3.805,2.029 -6.993,5.399 -9.564,10.109c-2.571,4.71 -3.857,9.693 -3.857,14.949c0,7.963 1.748,14.312 5.245,19.048c4.268,5.777 12.11,11.06 23.526,15.848c10.336,4.475 16.532,7.26 18.589,8.353c5.142,2.758 8.793,5.881 10.953,9.368c2.416,3.851 3.625,9.081 3.625,15.691Zm-42.732,30.523c-4.371,-2.082 -8.472,-5.009 -12.302,-8.782c-3.831,-3.773 -7.161,-8.262 -9.989,-13.466l1.62,15.222c0,1.614 1.182,2.941 3.548,3.982c4.216,1.04 6.993,1.691 8.33,1.951c3.445,0.729 6.376,1.093 8.793,1.093Z" style="fill:#fff;fill-rule:nonzero;"/><path d="M399.679,382.981c0,8.483 -2.7,15.691 -8.099,21.624c-5.348,5.413 -12.11,8.119 -20.286,8.119c-4.165,0 -8.061,-0.703 -11.686,-2.108c-3.625,-1.405 -6.672,-3.565 -9.14,-6.479c-5.554,-5.621 -8.33,-12.673 -8.33,-21.156c0,-4.268 0.745,-8.223 2.236,-11.866c1.492,-3.643 3.703,-7 6.634,-10.07c2.468,-2.707 5.425,-4.723 8.87,-6.051c3.445,-1.327 7.251,-1.99 11.416,-1.99c8.176,0 14.938,2.836 20.286,8.509c2.622,2.862 4.628,6.089 6.016,9.68c1.388,3.591 2.083,7.52 2.083,11.788Zm-5.94,0.312c0,-6.87 -1.324,-12.659 -3.972,-17.369c-2.648,-4.71 -6.543,-8.262 -11.686,-10.656l0,0.702c3.446,2.811 5.811,6.376 7.097,10.695c1.131,3.799 1.697,9.186 1.697,16.16c0,5.933 -0.72,11.215 -2.16,15.847c-1.594,5.204 -4.011,9.212 -7.251,12.022c4.577,-1.197 8.382,-4.189 11.416,-8.977c3.24,-5.101 4.859,-11.242 4.859,-18.424Zm-10.335,-0.312c0,-3.955 -0.206,-7.468 -0.617,-10.539c-0.412,-3.07 -1.132,-5.946 -2.16,-8.626c-1.029,-2.68 -2.237,-4.723 -3.625,-6.128c-1.389,-1.405 -3.111,-2.108 -5.168,-2.108c-4.165,0 -7.276,2.368 -9.333,7.104c-0.926,2.134 -1.556,4.827 -1.89,8.08c-0.334,3.252 -0.501,7.325 -0.501,12.217c0,5.048 0.154,9.029 0.462,11.944c0.309,2.914 0.952,5.595 1.929,8.041c1.131,2.446 2.404,4.267 3.818,5.464c1.414,1.197 3.252,1.796 5.515,1.796c3.856,0 6.787,-2.629 8.793,-7.885c0.977,-2.55 1.684,-5.386 2.121,-8.509c0.437,-3.123 0.656,-6.74 0.656,-10.851Zm-18.127,-27.401l-0.308,-0.468c-2.417,0.624 -4.744,1.704 -6.981,3.239c-2.237,1.536 -4.383,3.526 -6.44,5.972c-2.057,2.446 -3.664,5.296 -4.821,8.548c-1.157,3.253 -1.736,6.623 -1.736,10.11c0,3.331 0.438,6.44 1.312,9.329c0.874,2.888 2.288,5.633 4.242,8.236c2.16,2.498 4.409,4.54 6.749,6.128c2.34,1.587 4.795,2.771 7.366,3.552l-0.077,-0.703c-1.954,-1.405 -3.754,-3.149 -5.399,-5.23c-1.234,-1.614 -2.545,-3.643 -3.934,-6.089c-1.028,-2.03 -1.8,-4.385 -2.314,-7.065c-0.514,-2.681 -0.771,-5.4 -0.771,-8.158c0,-5.985 1.131,-11.307 3.394,-15.964c2.262,-4.658 5.502,-8.471 9.718,-11.437Z" style="fill:#fff;fill-rule:nonzero;"/><path d="M475.886,382.981c0,4.215 -0.643,8.041 -1.928,11.475c-1.286,3.435 -3.317,6.662 -6.094,9.681c-5.451,5.724 -11.981,8.587 -19.592,8.587c-2.571,0 -4.859,-0.273 -6.864,-0.82c-2.006,-0.546 -3.728,-1.314 -5.168,-2.303l0,19.595c0,2.602 0.964,4.514 2.892,5.737c1.929,1.223 4.847,1.835 8.755,1.835l0,2.732l-38.567,0l0,-2.732c2.931,0 5.297,-0.521 7.097,-1.561c2.262,-1.301 3.393,-3.305 3.393,-6.011l0,-65.029c0,-1.509 -0.565,-2.992 -1.697,-4.45c-1.337,-1.717 -2.905,-2.576 -4.705,-2.576l-4.473,0l0,-2.732l12.418,-0.078c2.211,0 4.628,-0.13 7.251,-0.39c3.342,-0.417 5.913,-0.729 7.713,-0.937l0.308,4.293c2.674,-1.561 4.525,-2.55 5.554,-2.966c2.108,-0.885 4.294,-1.327 6.556,-1.327c7.456,0 13.833,2.836 19.129,8.509c2.726,2.706 4.744,5.842 6.055,9.407c1.311,3.565 1.967,7.585 1.967,12.061Zm-7.79,0.312c0,-13.791 -5.117,-23.029 -15.35,-27.713l0,0.703c1.697,1.353 3.111,3.148 4.242,5.386c0.823,1.561 1.672,3.747 2.546,6.558c0.925,4.007 1.388,8.795 1.388,14.364c0,5.933 -0.54,11.787 -1.62,17.564c-0.822,2.602 -1.774,4.606 -2.853,6.011c-1.235,1.614 -3.086,3.071 -5.554,4.372c2.674,-0.52 5.039,-1.457 7.096,-2.81c2.263,-1.51 4.037,-3.487 5.322,-5.933c3.189,-4.944 4.783,-11.112 4.783,-18.502Zm-9.951,-1.639c0,-7.442 -1.015,-13.649 -3.046,-18.619c-2.031,-4.97 -5.155,-7.455 -9.372,-7.455c-2.263,0 -4.255,0.416 -5.978,1.249c-1.722,0.833 -2.892,2.056 -3.509,3.669l0,46.527c0.977,0.937 2.147,1.665 3.509,2.186c1.363,0.52 2.738,0.859 4.127,1.015c5.348,0 9.063,-2.668 11.146,-8.002c2.082,-5.334 3.123,-12.191 3.123,-20.57Zm-27.999,46.214l0,-71.82l-11.261,0c1.748,2.186 2.854,3.878 3.317,5.075c0.462,1.197 0.694,2.628 0.694,4.293l0,63.233c0,1.77 -0.45,3.409 -1.35,4.918c-0.9,1.509 -2.147,2.55 -3.741,3.123l6.016,0c2.469,0 4.14,-0.677 5.014,-2.03c0.874,-1.353 1.311,-3.617 1.311,-6.792Z" style="fill:#fff;fill-rule:nonzero;"/><path d="M561.041,411.241l-33.939,0l0,-2.733c2.52,0 4.345,-0.416 5.477,-1.249c1.44,-1.093 2.159,-3.096 2.159,-6.011l0,-30.601c0,-2.082 -0.102,-3.813 -0.308,-5.192c-0.206,-1.379 -0.643,-2.693 -1.311,-3.942c-0.875,-2.134 -2.88,-3.357 -6.017,-3.669c-1.44,0 -2.687,0.325 -3.741,0.976c-1.054,0.65 -2.455,2.173 -4.203,4.567l-7.251,9.992l0,25.918c0,3.278 0.18,5.412 0.54,6.401c0.669,1.873 2.185,2.81 4.551,2.81l4.628,0l0,2.733l-34.016,0l0,-2.733c2.828,0 4.847,-0.585 6.055,-1.756c1.209,-1.171 1.813,-3.084 1.813,-5.738l0,-107.652c0,-5.413 -2.777,-8.119 -8.331,-8.119l0,-2.732l7.405,0c3.086,0 6.389,-0.247 9.912,-0.742c3.522,-0.494 6.003,-1.106 7.443,-1.834l0,88.604l4.782,-6.011c2.623,-3.175 4.448,-5.231 5.477,-6.167c2.417,-2.238 5.759,-3.357 10.027,-3.357c4.885,0 9.076,2.29 12.573,6.87c3.342,4.371 5.013,9.367 5.013,14.988l0,27.011c0,1.873 0.437,3.448 1.312,4.723c0.874,1.275 2.211,1.912 4.011,1.912l5.939,0l0,2.733Zm-17.278,-9.056l0,-30.055c0,-2.29 -0.386,-4.58 -1.157,-6.87c-0.566,-1.717 -1.388,-3.461 -2.468,-5.23c-1.389,-1.458 -2.623,-2.498 -3.703,-3.123c-1.439,-0.833 -2.982,-1.249 -4.628,-1.249c-0.668,0 -1.362,0.078 -2.082,0.234c1.491,0.677 2.699,1.379 3.625,2.108c1.131,0.937 1.954,1.978 2.468,3.123c0.515,1.145 0.926,2.485 1.234,4.02c0.309,1.535 0.463,3.318 0.463,5.347l0,31.851c0,1.822 -0.385,3.279 -1.157,4.372c-0.308,0.468 -0.9,1.015 -1.774,1.639l5.399,0c1.595,0 2.623,-0.364 3.086,-1.093c0.463,-0.728 0.694,-2.42 0.694,-5.074Zm-37.949,3.279l0,-120.221l-11.57,0c1.542,0.781 2.596,1.64 3.162,2.576c0.771,1.249 1.157,3.227 1.157,5.933l0,105.701c0,2.55 -0.206,4.397 -0.617,5.542c-0.566,1.51 -1.697,2.629 -3.394,3.357l6.479,0c1.389,0 2.533,-0.234 3.433,-0.702c0.9,-0.469 1.35,-1.197 1.35,-2.186Z" style="fill:#fff;fill-rule:nonzero;"/><path d="M595.982,314.205c0,5.777 -2.623,8.666 -7.868,8.666c-5.039,0 -7.559,-2.889 -7.559,-8.666c0,-6.037 2.52,-9.055 7.559,-9.055c5.245,0 7.868,3.018 7.868,9.055Zm9.873,96.879l-34.016,0l0,-2.732c2.88,0 4.924,-0.585 6.132,-1.756c1.209,-1.171 1.813,-3.084 1.813,-5.738l0,-35.598c0,-3.07 -0.386,-5.074 -1.157,-6.011c-1.183,-1.405 -3.857,-2.108 -8.022,-2.108l0,-2.732l8.176,0c3.343,0 6.737,-0.195 10.182,-0.585c3.445,-0.391 5.811,-0.95 7.096,-1.679l0,46.917c0,3.175 0.206,5.335 0.617,6.48c0.669,1.873 2.186,2.81 4.551,2.81l4.628,0l0,2.732Zm-15.427,-96.879c0,-2.342 -0.167,-3.981 -0.501,-4.918c-0.334,-0.937 -1.093,-1.405 -2.275,-1.405c-1.646,0 -2.649,0.182 -3.009,0.547c-0.771,0.728 -1.157,2.654 -1.157,5.776c0,2.394 0.232,3.995 0.695,4.801c0.462,0.807 1.517,1.21 3.162,1.21c1.388,0 2.186,-0.481 2.391,-1.444c0.206,-0.963 0.437,-2.485 0.694,-4.567Zm-0.308,91.103l0,-48.167l-11.647,0c1.542,0.781 2.597,1.64 3.162,2.576c0.823,1.354 1.234,3.305 1.234,5.855l0,33.725c0,2.133 -0.077,3.565 -0.231,4.293c-0.463,2.186 -1.748,3.721 -3.857,4.606l6.402,0c1.44,0 2.623,-0.234 3.548,-0.703c0.926,-0.468 1.389,-1.197 1.389,-2.185Z" style="fill:#fff;fill-rule:nonzero;"/><path d="M658.922,396.018c0,4.632 -1.748,8.561 -5.245,11.788c-1.491,1.665 -3.278,2.901 -5.36,3.708c-2.083,0.806 -4.564,1.21 -7.444,1.21c-0.72,0 -2.854,-0.365 -6.402,-1.093c-3.548,-0.729 -6.196,-1.093 -7.944,-1.093c-0.206,0 -1.106,0.39 -2.7,1.171c-1.234,0.572 -2.468,1.067 -3.702,1.483c-0.515,-0.312 -1.363,-4.371 -2.546,-12.178c-0.36,-2.602 -0.925,-6.479 -1.697,-11.632l2.546,-0.78c1.131,2.914 2.365,5.477 3.702,7.689c1.337,2.212 3.137,4.541 5.399,6.987c2.263,2.446 4.243,4.163 5.94,5.152c2.005,1.197 4.19,1.796 6.556,1.796c2.314,0 4.435,-0.703 6.363,-2.108c1.929,-1.405 2.893,-3.201 2.893,-5.387c0,-3.747 -5.091,-7.988 -15.272,-12.724c-4.937,-2.186 -8.704,-4.879 -11.3,-8.08c-2.597,-3.201 -3.896,-6.883 -3.896,-11.046c0,-2.863 0.373,-5.426 1.119,-7.69c0.745,-2.264 1.838,-4.228 3.278,-5.894c3.291,-2.862 7.405,-4.293 12.341,-4.293c1.337,0 3.124,0.156 5.361,0.468c2.237,0.312 4.615,0.625 7.135,0.937c2.108,0 4.448,-0.625 7.019,-1.874l3.394,23.732l-2.391,0c-1.235,-3.018 -2.443,-5.672 -3.626,-7.962c-1.337,-2.603 -2.699,-4.866 -4.088,-6.792c-1.594,-1.978 -3.278,-3.461 -5.052,-4.45c-1.774,-0.989 -3.792,-1.483 -6.055,-1.483c-2.468,0 -4.448,0.546 -5.939,1.639c-1.748,1.301 -2.751,3.305 -3.008,6.011c0,4.684 5.09,9.472 15.272,14.364c5.039,2.342 8.857,5.023 11.454,8.041c2.597,3.019 3.895,6.48 3.895,10.383Zm-4.088,-26.542l-1.697,-12.335l-5.09,0c1.645,2.29 2.674,3.747 3.085,4.372c1.594,2.602 2.828,5.256 3.702,7.963Zm0.232,29.274c0,-3.331 -1.196,-6.219 -3.587,-8.665c-2.391,-2.446 -6.312,-4.814 -11.763,-7.104c-5.142,-2.498 -8.921,-4.996 -11.338,-7.494c-2.571,-2.707 -3.857,-5.621 -3.857,-8.744c0,-1.613 0.283,-3.278 0.849,-4.996c0.565,-1.717 1.182,-2.914 1.851,-3.591c-1.646,0.885 -2.906,2.056 -3.78,3.513c-1.131,1.77 -1.851,4.19 -2.159,7.26c-0.052,0.312 -0.078,0.807 -0.078,1.483c0,3.643 1.35,7.039 4.05,10.188c2.7,3.149 6.415,5.764 11.146,7.845c10.387,4.06 15.58,8.744 15.58,14.052c0,1.145 -0.295,2.264 -0.887,3.357c-0.591,1.093 -1.452,2.238 -2.584,3.435c1.646,-0.781 3.15,-2.212 4.513,-4.294c1.362,-2.081 2.044,-4.163 2.044,-6.245Zm-27.151,9.602c-2.057,-2.082 -3.651,-3.864 -4.782,-5.347c-1.132,-1.484 -2.263,-3.318 -3.394,-5.504l2.237,10.305c0,0.78 0.411,1.171 1.234,1.171l4.705,-0.625Z" style="fill:#fff;fill-rule:nonzero;"/><path d="M718.469,356.283l-18.358,0l0,-3.045l18.358,0l0,3.045Zm0.849,37.549c-1.646,3.227 -3.034,5.725 -4.166,7.494c-1.439,2.238 -3.111,4.32 -5.013,6.245c-1.697,1.666 -3.536,2.941 -5.515,3.826c-1.98,0.884 -4.178,1.327 -6.595,1.327c-4.834,0 -8.948,-1.796 -12.341,-5.387c-1.389,-1.873 -2.469,-4.046 -3.24,-6.518c-0.771,-2.472 -1.157,-5.218 -1.157,-8.236l0,-31.46c0,-1.666 -0.244,-2.889 -0.733,-3.669c-0.488,-0.781 -1.452,-1.25 -2.892,-1.406l-3.471,0l0,-4.137c4.731,0 9.513,-3.773 14.346,-11.32c2.314,-3.591 5.4,-9.732 9.256,-18.423l3.086,-6.87l2.854,0l-3.317,7.729c-1.183,2.758 -1.98,6.167 -2.391,10.226c-0.206,2.03 -0.309,4.736 -0.309,8.119l0,55.348c0,3.383 0.283,5.647 0.849,6.792c0.771,1.561 2.494,2.524 5.168,2.888c2.159,0.313 4.628,-1.014 7.404,-3.981c2.469,-2.602 4.68,-5.907 6.634,-9.914l1.543,1.327Zm-19.978,16.394c-2.777,-1.197 -4.744,-2.941 -5.901,-5.231c-1.157,-2.29 -1.735,-5.36 -1.735,-9.211l0,-53.865c-0.926,0.936 -2.096,2.433 -3.51,4.488c-1.414,2.056 -2.686,3.5 -3.818,4.333l0,41.999c0,2.55 0.27,4.957 0.81,7.221c0.54,2.264 1.401,4.255 2.584,5.972c1.286,1.613 2.584,2.732 3.895,3.357c1.312,0.624 2.867,0.937 4.667,0.937l3.008,0Z" style="fill:#fff;fill-rule:nonzero;"/><path d="M756.187,314.205c0,5.777 -2.622,8.666 -7.868,8.666c-5.039,0 -7.559,-2.889 -7.559,-8.666c0,-6.037 2.52,-9.055 7.559,-9.055c5.246,0 7.868,3.018 7.868,9.055Zm9.873,96.879l-34.016,0l0,-2.732c2.88,0 4.924,-0.585 6.133,-1.756c1.208,-1.171 1.812,-3.084 1.812,-5.738l0,-35.598c0,-3.07 -0.386,-5.074 -1.157,-6.011c-1.183,-1.405 -3.857,-2.108 -8.022,-2.108l0,-2.732l8.176,0c3.343,0 6.737,-0.195 10.182,-0.585c3.445,-0.391 5.811,-0.95 7.096,-1.679l0,46.917c0,3.175 0.206,5.335 0.617,6.48c0.669,1.873 2.186,2.81 4.551,2.81l4.628,0l0,2.732Zm-15.427,-96.879c0,-2.342 -0.167,-3.981 -0.501,-4.918c-0.334,-0.937 -1.093,-1.405 -2.275,-1.405c-1.646,0 -2.649,0.182 -3.008,0.547c-0.772,0.728 -1.157,2.654 -1.157,5.776c0,2.394 0.231,3.995 0.694,4.801c0.463,0.807 1.517,1.21 3.162,1.21c1.389,0 2.186,-0.481 2.391,-1.444c0.206,-0.963 0.437,-2.485 0.694,-4.567Zm-0.308,91.103l0,-48.167l-11.647,0c1.543,0.781 2.597,1.64 3.162,2.576c0.823,1.354 1.234,3.305 1.234,5.855l0,33.725c0,2.133 -0.077,3.565 -0.231,4.293c-0.463,2.186 -1.748,3.721 -3.857,4.606l6.402,0c1.44,0 2.623,-0.234 3.549,-0.703c0.925,-0.468 1.388,-1.197 1.388,-2.185Z" style="fill:#fff;fill-rule:nonzero;"/><path d="M833.011,390.007c-1.028,3.955 -2.314,7.26 -3.856,9.914c-1.697,2.915 -3.805,5.296 -6.325,7.143c-2.52,1.848 -5.091,3.253 -7.713,4.216c-2.623,0.962 -5.477,1.444 -8.562,1.444c-4.114,0 -7.868,-0.703 -11.262,-2.108c-3.393,-1.405 -6.376,-3.565 -8.947,-6.479c-2.674,-2.707 -4.692,-5.933 -6.055,-9.681c-1.363,-3.747 -2.044,-7.624 -2.044,-11.631c0,-4.164 0.681,-8.119 2.044,-11.866c1.363,-3.747 3.355,-6.974 5.978,-9.68c4.834,-5.517 11.107,-8.275 18.82,-8.275c2.52,0 4.795,0.169 6.827,0.507c2.031,0.339 3.741,0.82 5.129,1.444c0.977,0 2.404,-0.117 4.281,-0.351c1.877,-0.234 3.638,-0.611 5.283,-1.132l5.554,21.39l-1.851,0.547c-1.44,-2.655 -2.996,-5.101 -4.667,-7.339c-1.671,-2.237 -3.612,-4.384 -5.823,-6.44c-2.211,-2.056 -4.32,-3.578 -6.325,-4.567c-2.006,-0.989 -4.14,-1.483 -6.402,-1.483c-4.165,0 -7.276,2.368 -9.333,7.104c-0.874,2.134 -1.582,5.022 -2.121,8.665c-0.54,3.643 -0.81,7.442 -0.81,11.398c0,3.955 0.231,7.663 0.694,11.124c0.463,3.461 1.208,6.492 2.237,9.095c1.131,2.446 2.429,4.267 3.895,5.464c1.465,1.197 3.329,1.796 5.592,1.796c2.777,0 5.219,-0.43 7.328,-1.288c2.108,-0.859 4.473,-2.277 7.096,-4.255c2.262,-1.613 4.114,-3.695 5.553,-6.245c1.44,-2.55 2.623,-5.595 3.549,-9.134l2.236,0.703Zm-6.324,-24.044l-2.16,-9.212l-6.017,0.546c1.08,0.833 2.456,2.147 4.127,3.943c1.671,1.795 3.021,3.37 4.05,4.723Zm-28.385,42.779c-1.852,-1.821 -3.214,-3.512 -4.088,-5.074c-0.155,-0.312 -0.977,-2.16 -2.469,-5.542c-1.08,-2.134 -1.902,-4.58 -2.468,-7.339c-0.566,-2.758 -0.848,-5.516 -0.848,-8.274c0,-5.465 1.002,-10.383 3.008,-14.755c1.028,-2.446 1.954,-4.371 2.777,-5.777c1.079,-1.821 2.442,-3.435 4.088,-4.84l-0.386,-0.468c-4.422,1.769 -8.459,5.1 -12.11,9.992c-1.491,2.29 -2.622,4.801 -3.394,7.534c-0.771,2.732 -1.157,5.529 -1.157,8.392c0,5.828 1.569,11.397 4.705,16.706c1.749,2.446 3.51,4.384 5.284,5.815c1.774,1.432 3.947,2.668 6.518,3.709l0.54,-0.079Z" style="fill:#fff;fill-rule:nonzero;"/><path d="M906.211,397.501c-1.492,4.632 -3.561,8.327 -6.21,11.085c-2.648,2.759 -6.003,4.138 -10.065,4.138c-2.52,0 -4.731,-0.521 -6.634,-1.562c-2.468,-1.353 -4.139,-3.46 -5.014,-6.323c-2.931,2.654 -5.682,4.58 -8.253,5.777c-3.034,1.405 -6.479,2.108 -10.336,2.108c-5.142,0 -9.23,-1.457 -12.264,-4.372c-3.136,-2.706 -4.705,-6.557 -4.705,-11.554c0,-4.579 1.363,-8.327 4.088,-11.241c2.726,-2.914 7.019,-5.386 12.881,-7.416c0.823,-0.312 3.626,-1.028 8.408,-2.147c4.782,-1.119 7.739,-1.834 8.87,-2.147l0,-11.631c0,-4.112 -1.825,-6.324 -5.476,-6.636c-1.851,0 -3.304,0.69 -4.358,2.069c-1.054,1.379 -1.736,3.552 -2.044,6.518c0,1.978 0.308,3.487 0.925,4.528c0.412,0.729 1.234,1.587 2.469,2.576l-1.543,3.123l-13.498,-6.636c0.668,-3.174 2.751,-6.479 6.247,-9.914c3.24,-3.227 7.534,-4.84 12.882,-4.84c6.325,0 11.287,2.238 14.886,6.713c1.8,2.186 3.176,4.697 4.127,7.534c0.951,2.836 1.427,6.128 1.427,9.875l0,23.107c0,1.978 0.206,3.383 0.617,4.216c0.411,0.833 1.44,1.483 3.085,1.951c1.543,0 2.983,-0.975 4.32,-2.927c1.337,-1.952 2.391,-4.385 3.162,-7.299l2.006,1.327Zm-12.496,11.788c-2.314,-0.26 -4.088,-1.197 -5.322,-2.81c-1.234,-1.614 -1.851,-3.956 -1.851,-7.026l0,-23.186c0,-4.684 -0.54,-8.769 -1.62,-12.256c-0.771,-1.717 -1.633,-3.11 -2.584,-4.176c-0.951,-1.067 -2.173,-1.913 -3.664,-2.538c0.36,0.521 0.797,2.264 1.311,5.231c0.515,2.966 0.772,5.334 0.772,7.104l0,28.494c0,4.007 0.925,7.025 2.776,9.055c1.903,1.822 4.191,2.732 6.865,2.732c1.08,0 2.186,-0.208 3.317,-0.624Zm-30.699,-50.664c-0.874,0.884 -1.748,1.743 -2.622,2.576c-1.492,1.717 -2.494,3.487 -3.009,5.308c1.029,0.833 1.903,1.496 2.623,1.991c0.72,0.494 1.311,0.819 1.774,0.976l1.234,-10.851Zm13.653,41.764l0,-22.092c-2.777,0 -5.31,0.299 -7.598,0.898c-2.288,0.598 -4.409,1.574 -6.363,2.927c-3.754,2.29 -5.631,6.428 -5.631,12.413c0,3.539 0.913,6.635 2.738,9.289c1.826,2.655 4.101,3.982 6.826,3.982c2.263,0 4.307,-0.664 6.132,-1.991c1.826,-1.327 3.124,-3.136 3.896,-5.426Zm-14.501,9.837c-1.132,-0.313 -2.25,-0.872 -3.356,-1.679c-1.105,-0.806 -2.249,-1.834 -3.432,-3.083c-0.977,-1.405 -1.736,-3.019 -2.275,-4.84c-0.54,-1.822 -0.81,-3.643 -0.81,-5.465c0,-2.238 0.36,-4.58 1.08,-7.026c0.617,-1.041 1.465,-2.342 2.545,-3.903c0.36,-0.52 0.9,-1.249 1.62,-2.186c-1.492,0.156 -2.829,0.586 -4.011,1.288c-1.183,0.703 -2.443,1.835 -3.78,3.396c-1.285,1.249 -2.262,2.745 -2.931,4.489c-0.668,1.743 -1.003,3.5 -1.003,5.269c0,3.851 1.157,7.026 3.471,9.524c1.337,1.509 2.932,2.589 4.783,3.24c1.851,0.65 4.551,0.976 8.099,0.976Z" style="fill:#fff;fill-rule:nonzero;"/><path d="M960.281,356.283l-18.358,0l0,-3.045l18.358,0l0,3.045Zm0.848,37.549c-1.645,3.227 -3.034,5.725 -4.165,7.494c-1.44,2.238 -3.111,4.32 -5.014,6.245c-1.697,1.666 -3.535,2.941 -5.515,3.826c-1.979,0.884 -4.178,1.327 -6.594,1.327c-4.834,0 -8.948,-1.796 -12.342,-5.387c-1.388,-1.873 -2.468,-4.046 -3.239,-6.518c-0.772,-2.472 -1.157,-5.218 -1.157,-8.236l0,-31.46c0,-1.666 -0.245,-2.889 -0.733,-3.669c-0.489,-0.781 -1.453,-1.25 -2.893,-1.406l-3.471,0l0,-4.137c4.731,0 9.514,-3.773 14.347,-11.32c2.314,-3.591 5.399,-9.732 9.256,-18.423l3.085,-6.87l2.854,0l-3.316,7.729c-1.183,2.758 -1.98,6.167 -2.391,10.226c-0.206,2.03 -0.309,4.736 -0.309,8.119l0,55.348c0,3.383 0.283,5.647 0.848,6.792c0.772,1.561 2.494,2.524 5.168,2.888c2.16,0.313 4.628,-1.014 7.405,-3.981c2.468,-2.602 4.68,-5.907 6.634,-9.914l1.542,1.327Zm-19.977,16.394c-2.777,-1.197 -4.744,-2.941 -5.901,-5.231c-1.157,-2.29 -1.735,-5.36 -1.735,-9.211l0,-53.865c-0.926,0.936 -2.096,2.433 -3.51,4.488c-1.414,2.056 -2.687,3.5 -3.818,4.333l0,41.999c0,2.55 0.27,4.957 0.81,7.221c0.54,2.264 1.401,4.255 2.584,5.972c1.285,1.613 2.584,2.732 3.895,3.357c1.311,0.624 2.867,0.937 4.667,0.937l3.008,0Z" style="fill:#fff;fill-rule:nonzero;"/><path d="M1028.47,377.907l-36.638,0l0,-2.655l18.281,0c0.102,-0.624 0.154,-1.327 0.154,-2.107l0,-1.796c0,-2.29 -0.193,-4.398 -0.579,-6.323c-0.385,-1.926 -1.041,-3.591 -1.967,-4.996c-1.131,-1.562 -1.954,-2.576 -2.468,-3.045c-1.08,-0.937 -2.468,-1.405 -4.165,-1.405c-4.268,0 -7.353,2.368 -9.256,7.104c-0.874,2.342 -1.555,5.23 -2.044,8.665c-0.488,3.435 -0.733,7.312 -0.733,11.632c0,10.773 1.157,17.981 3.471,21.624c2.109,3.747 5.194,5.621 9.256,5.621c2.726,0 5.284,-0.456 7.675,-1.366c2.391,-0.911 4.628,-2.212 6.711,-3.904c2.082,-1.691 3.92,-3.734 5.515,-6.128c1.594,-2.394 2.828,-5.1 3.702,-8.119l2.083,0.625c-2.314,7.078 -5.785,12.49 -10.413,16.237c-2.314,1.614 -4.86,2.876 -7.637,3.787c-2.776,0.91 -5.759,1.366 -8.947,1.366c-4.268,0 -8.125,-0.69 -11.57,-2.069c-3.445,-1.379 -6.479,-3.526 -9.102,-6.44c-2.725,-2.707 -4.718,-5.829 -5.977,-9.368c-1.26,-3.539 -1.89,-7.494 -1.89,-11.866c0,-8.431 2.777,-15.587 8.33,-21.468c2.571,-2.758 5.554,-4.866 8.948,-6.323c3.393,-1.458 7.147,-2.186 11.261,-2.186c8.125,0 14.45,2.42 18.975,7.26c2.314,2.706 4.216,5.464 5.708,8.275c1.491,2.81 2.596,5.933 3.316,9.368Zm-7.636,-2.655c-0.308,-2.237 -0.694,-4.007 -1.157,-5.308c-0.668,-1.822 -1.697,-3.591 -3.085,-5.308c-1.286,-1.822 -2.571,-3.331 -3.857,-4.528c-1.491,-1.405 -2.905,-2.342 -4.242,-2.811c1.08,1.249 1.967,2.525 2.661,3.826c0.694,1.301 1.195,2.706 1.504,4.215c0.36,1.301 0.617,2.771 0.771,4.411c0.155,1.639 0.232,3.474 0.232,5.503l7.173,0Zm-26.225,-19.672c-2.725,0.572 -5.232,1.613 -7.521,3.123c-2.288,1.509 -4.46,3.565 -6.517,6.167c-4.011,4.944 -6.017,10.487 -6.017,16.628c0,4.007 0.36,7.481 1.08,10.421c0.72,2.941 1.929,5.53 3.625,7.768c3.086,4.424 7.508,7.858 13.267,10.304c-6.993,-6.453 -10.49,-15.092 -10.49,-25.917c0,-6.506 0.977,-12.074 2.931,-16.706c2.263,-3.851 4.165,-6.662 5.708,-8.431c1.286,-1.509 2.597,-2.628 3.934,-3.357Z" style="fill:#fff;fill-rule:nonzero;"/></g></g></svg>