<svg xmlns="http://www.w3.org/2000/svg" width="65" height="65" viewBox="0 0 65 65"><path fill="#3D9A9C" fill-rule="evenodd" d="M32.5,0 C50.45,0 65,14.55 65,32.5 C65,50.45 50.45,65 32.5,65 C14.55,65 0,50.45 0,32.5 C0,14.55 14.55,0 32.5,0 Z M30.9212963,20 L20.6967593,20 C16.4459565,20 13,23.4977754 13,27.8125 C13,32.1272246 16.4459565,35.625 20.6967593,35.625 L20.6967593,35.625 L29.4606482,35.625 C30.3108087,35.625 31,36.3245551 31,37.1875 C31,38.0504449 30.3108087,38.75 29.4606482,38.75 L29.4606482,38.75 L16.0787037,38.75 C14.3783826,38.75 13,40.1491101 13,41.875 C13,43.6008899 14.3783826,45 16.0787037,45 L16.0787037,45 L29.3032407,45 C33.5540435,45 37,41.5022246 37,37.1875 C37,32.8727754 33.5540435,29.375 29.3032407,29.375 L29.3032407,29.375 L20.5393519,29.375 C19.6891913,29.375 19,28.6754449 19,27.8125 C19,26.9495551 19.6891913,26.25 20.5393519,26.25 L20.5393519,26.25 L30.9212963,26.25 C32.6216175,26.25 34,24.8508899 34,23.125 C34,21.3991101 32.6216175,20 30.9212963,20 L30.9212963,20 Z M46.7978238,20 L36,20 C36.7365703,20.829307 37.1844505,21.9244462 37.1844505,23.125 C37.1844505,24.3255538 36.7365703,25.420693 36,26.25 L36,26.25 L45.2472797,26.25 C46.1036214,26.25 46.7978238,26.9495551 46.7978238,27.8125 L46.7978238,27.8125 L46.7978238,37.1875 C46.7978238,38.0504449 46.1036214,38.75 45.2472797,38.75 L45.2472797,38.75 L40.1569079,38.75 C39.7233207,41.3543703 38.2241742,43.5946355 36.1266618,45 L36.1266618,45 L46.7978238,45 C50.2231911,45 53,42.2017796 53,38.75 L53,38.75 L53,26.25 C53,22.7982204 50.2231911,20 46.7978238,20 L46.7978238,20 Z"/></svg>