<svg xmlns="http://www.w3.org/2000/svg" width="40" height="40" viewBox="0 0 40 40">
  <g fill="none" fill-rule="evenodd">
    <path fill="#000" d="M14.1178824,5.848 C14.1178824,5.47419608 14.1534118,5.10047059 14.2244706,4.73317647 C14.3603137,4.03176471 14.6255686,3.35662745 15.0042353,2.75066667 C15.3181961,2.24823529 15.709098,1.79443137 16.1585098,1.40854902 C16.618902,1.0132549 17.1407059,0.690509804 17.7001569,0.455607843 C18.1783529,0.254745098 18.6832941,0.11827451 19.1974902,0.0503529412 C19.429098,0.0197647059 19.6618824,0.00454901961 19.895451,1.96078431e-05 C19.9657255,1.96078431e-05 19.9654118,1.96078431e-05 20.0353725,1.96078431e-05 C20.2689412,0.00454901961 20.5017255,0.0197647059 20.7333333,0.0503529412 C21.2475294,0.11827451 21.7524706,0.254745098 22.2306667,0.455607843 C22.8130196,0.700078431 23.3544314,1.03984314 23.8283922,1.45733333 C24.272549,1.84854902 24.6573333,2.3067451 24.9647843,2.81262745 C25.3353725,3.4225098 25.5920784,4.10007843 25.7192941,4.80227451 C25.7818039,5.14729412 25.8129412,5.49772549 25.8128627,5.84807843 C25.9613333,5.69945098 26.1178824,5.55882353 26.2815686,5.42698039 C26.7964706,5.01231373 27.3814902,4.68580392 28.0050196,4.46619608 C28.370902,4.33733333 28.7495686,4.24517647 29.1337255,4.19145098 C29.3295686,4.16407843 29.5263529,4.14784314 29.7238431,4.13913725 C29.8236078,4.13592157 29.9231373,4.13466667 30.022902,4.13537255 C30.2705098,4.14 30.517098,4.15709804 30.7624314,4.19145098 C31.3120784,4.26831373 31.8501961,4.42407843 32.3559216,4.65270588 C33.0401569,4.96211765 33.6626667,5.40431373 34.1808627,5.94776471 C34.6673725,6.45803922 35.0604706,7.05615686 35.3352157,7.70556863 C35.5808627,8.28643137 35.7310588,8.90682353 35.778902,9.53568627 C35.8238431,10.1263529 35.7792941,10.7236078 35.6461176,11.3008627 C35.4906667,11.9741176 35.2145098,12.6183529 34.8345882,13.1955294 C34.6159216,13.5277647 34.3632941,13.8370196 34.0823529,14.1178824 C34.1058824,14.1178039 34.1294118,14.1178039 34.1530196,14.1179608 C34.4334118,14.1229804 34.7127059,14.1447059 34.9898824,14.1880784 C35.5979608,14.2832157 36.1904314,14.474902 36.7388235,14.7544314 C37.4396078,15.1116863 38.0653333,15.6118431 38.5701176,16.2149804 C39.0352941,16.7708235 39.3952157,17.4129412 39.6261176,18.1 C39.8574902,18.788549 39.9587451,19.519451 39.9241569,20.2449412 C39.8882353,20.9981961 39.7057255,21.7430588 39.3883137,22.4271373 C39.1527059,22.9349804 38.843451,23.4081569 38.4734118,23.8283137 C38.0821961,24.2724706 37.624,24.6572549 37.1181176,24.9646275 C36.5684706,25.2987451 35.9636863,25.5404706 35.3352941,25.6778824 C34.9241569,25.7677647 34.5036078,25.8128627 34.0829804,25.8129412 L34.0829804,25.8129412 C34.6654118,26.3952941 35.1225098,27.1002353 35.4152157,27.8701961 C35.6936471,28.6025098 35.8214118,29.3894902 35.7916078,30.1723137 C35.7639216,30.9007843 35.5992157,31.6225882 35.3070588,32.2905098 C35.0152941,32.9575686 34.5978039,33.5683137 34.0829804,34.0831373 C33.5345098,34.6315294 32.8772549,35.0691765 32.1591373,35.3625882 C31.6432157,35.5733333 31.0972549,35.7094118 30.5428235,35.7657255 C29.9527059,35.8256471 29.3535686,35.7959216 28.7724706,35.6770196 C28.1399216,35.5476078 27.5299608,35.3123137 26.9742745,34.9837647 C26.5512941,34.7336471 26.160549,34.4301176 25.8131765,34.082902 L25.8131765,34.0829804 C25.8131765,34.9065882 25.6379608,35.7281569 25.3004706,36.4795294 C24.9795294,37.1942745 24.5134118,37.841098 23.9388235,38.3735686 C23.4040784,38.8691765 22.777098,39.2631373 22.0981176,39.5288627 C21.3984314,39.8025882 20.6467451,39.9392941 19.895451,39.9303529 C19.1432157,39.9213333 18.3938824,39.7663529 17.7001569,39.4750588 C17.1862745,39.2592941 16.704,38.9694118 16.2720784,38.6171765 C15.8124706,38.2422745 15.4098824,37.7976471 15.0829804,37.3025882 C14.7273725,36.7639216 14.4624314,36.1663529 14.3018039,35.541098 C14.1795294,35.0651765 14.1178824,34.5741176 14.1178039,34.0829804 L14.1178039,34.0829804 C13.535451,34.6653333 12.8305882,35.1223529 12.0607059,35.4150588 C11.3283137,35.6934902 10.5412549,35.8212549 9.75843137,35.7915294 C9.02988235,35.7638431 8.308,35.5991373 7.64007843,35.306902 C6.95168627,35.0057255 6.32345098,34.5708235 5.79858824,34.0332549 C5.27294118,33.4949804 4.85278431,32.8556078 4.56815686,32.1590588 C4.35733333,31.6431373 4.22133333,31.0971765 4.16501961,30.5426667 C4.10509804,29.952549 4.13482353,29.3534902 4.25372549,28.7723137 C4.38313725,28.1399216 4.61843137,27.5299608 4.94698039,26.9742745 C5.19701961,26.5512941 5.50062745,26.1604706 5.84784314,25.813098 L5.84776471,25.813098 C5.02415686,25.813098 4.20258824,25.6378039 3.45121569,25.3003922 C2.73647059,24.979451 2.08972549,24.5133333 1.5572549,23.9387451 C1.06164706,23.404 0.667686275,22.7771765 0.401960784,22.0981176 C0.128156863,21.3984314 -0.00854901961,20.6466667 0.000392156863,19.8953725 C0.00941176471,19.1430588 0.164392157,18.3938039 0.455686275,17.7000784 C0.67145098,17.1861961 0.961333333,16.7039216 1.31356863,16.272 C1.68847059,15.8123922 2.13309804,15.4098039 2.62807843,15.0829804 C3.16682353,14.7272941 3.76439216,14.4623529 4.38964706,14.3017255 C4.86572549,14.179451 5.35686275,14.1178039 5.84815686,14.1177255 C5.56729412,13.8368627 5.3147451,13.5276078 5.09615686,13.195451 C4.70290196,12.5979608 4.42094118,11.9287059 4.26878431,11.2297255 C4.14266667,10.6504314 4.10556863,10.0521569 4.15803922,9.46172549 C4.21160784,8.85819608 4.35960784,8.26360784 4.59560784,7.70556863 C4.87027451,7.05615686 5.26345098,6.45803922 5.74996078,5.94776471 C6.25176471,5.4214902 6.85145098,4.99003922 7.51035294,4.68243137 C8.01239216,4.448 8.54776471,4.28580392 9.09552941,4.20211765 C9.34,4.16478431 9.58603922,4.14454902 9.83309804,4.13678431 C9.908,4.13537255 9.9827451,4.13490196 10.0576471,4.13537255 C10.256,4.13913725 10.4537255,4.15035294 10.650902,4.17286275 C11.0612549,4.21976471 11.4665882,4.31035294 11.8578039,4.4427451 C12.5289412,4.66988235 13.157098,5.02023529 13.7035294,5.47121569 C13.8476078,5.59011765 13.9859608,5.71592157 14.1178824,5.848 Z"/>
    <path fill="#EDA921" d="M17.7276078,14.5627451 L17.7276078,8.0854902 C16.4916863,6.84956863 16.4916863,4.84580392 17.7276078,3.60988235 C18.9635294,2.37396078 20.9672941,2.37396078 22.2032157,3.60988235 C23.4391373,4.84580392 23.4391373,6.84956863 22.2032157,8.0854902 L22.2032157,14.5627451 L26.7832941,9.98266667 C26.7832941,8.23482353 28.2002353,6.81788235 29.9480784,6.81788235 L29.968549,6.81796078 C31.7069804,6.82894118 33.1128627,8.24164706 33.1128627,9.98266667 C33.1128627,11.7305098 31.6959216,13.1473725 29.9480784,13.147451 L25.3824314,17.713098 L25.368,17.7275294 L31.8452549,17.7275294 C33.0811765,16.4916078 35.0850196,16.4916078 36.3208627,17.7275294 C37.5567843,18.963451 37.5567843,20.9672157 36.3208627,22.2031373 C35.0850196,23.4390588 33.0811765,23.4390588 31.8452549,22.2031373 L25.368,22.2031373 L29.9480784,26.7832157 C31.6959216,26.7832157 33.1128627,28.2001569 33.1128627,29.948 C33.1128627,31.6890196 31.7069804,33.1017255 29.968549,33.1127059 L29.9480784,33.1127843 C28.2002353,33.1127843 26.7832941,31.6958431 26.7832941,29.948 L22.2032157,25.3679216 L22.2032157,31.8451765 C23.4391373,33.081098 23.4391373,35.0848627 22.2032157,36.3207843 C20.9672941,37.5567059 18.9635294,37.5567059 17.7276078,36.3207843 C16.4916863,35.0848627 16.4916863,33.081098 17.7276078,31.8451765 L17.7276078,25.3679216 L13.1475294,29.948 C13.1475294,31.6890196 11.7416471,33.1017255 10.0032157,33.1127059 L9.9827451,33.1127843 C8.23490196,33.1127843 6.81796078,31.6958431 6.81796078,29.948 C6.81796078,28.2001569 8.23490196,26.7832157 9.9827451,26.7832157 L14.5628235,22.2031373 L8.08556863,22.2031373 C6.84964706,23.4390588 4.84588235,23.4390588 3.60996078,22.2031373 C2.37403922,20.9672157 2.37403922,18.963451 3.60996078,17.7275294 C4.84588235,16.4916078 6.84964706,16.4916078 8.08556863,17.7275294 L14.5628235,17.7275294 L9.9827451,13.147451 C8.23490196,13.1473725 6.81796078,11.7305098 6.81796078,9.98266667 C6.81796078,8.23482353 8.23490196,6.81788235 9.9827451,6.81788235 L10.0032157,6.81796078 C11.7416471,6.82894118 13.1475294,8.24164706 13.1475294,9.98266667 L17.7276078,14.5627451 Z"/>
  </g>
</svg>
