<svg xmlns="http://www.w3.org/2000/svg" width="40" height="40" viewBox="0 0 40 40"><g fill="none" fill-rule="evenodd"><path fill="#000" d="M14.118 5.848A5.847 5.847 0 0 1 19.896 0h.14a5.85 5.85 0 0 1 4.93 2.812 5.847 5.847 0 0 1 .847 3.036 5.846 5.846 0 0 1 9.966 3.688 5.846 5.846 0 0 1-1.697 4.582h.071a5.849 5.849 0 0 1 5.473 3.982 5.872 5.872 0 0 1-.238 4.327 5.846 5.846 0 0 1-4.053 3.25c-.41.09-.831.136-1.252.136a5.866 5.866 0 0 1 1.332 2.057 5.866 5.866 0 0 1-.108 4.42 5.867 5.867 0 0 1-3.148 3.073 5.842 5.842 0 0 1-3.387.314 5.84 5.84 0 0 1-2.959-1.594 5.86 5.86 0 0 1-.513 2.397 5.866 5.866 0 0 1-3.202 3.049 5.87 5.87 0 0 1-4.398-.054 5.841 5.841 0 0 1-2.617-2.172 5.841 5.841 0 0 1-.965-3.22 5.867 5.867 0 0 1-2.057 1.332 5.868 5.868 0 0 1-4.42-.108 5.868 5.868 0 0 1-3.073-3.148 5.839 5.839 0 0 1-.314-3.387 5.84 5.84 0 0 1 1.594-2.959A5.867 5.867 0 0 1 3.45 25.3a5.865 5.865 0 0 1-3.049-3.202A5.868 5.868 0 0 1 .456 17.7a5.841 5.841 0 0 1 2.172-2.617 5.841 5.841 0 0 1 3.22-.965A5.845 5.845 0 0 1 7.51 4.683a5.835 5.835 0 0 1 3.14-.51 5.836 5.836 0 0 1 3.468 1.675z"/><path fill="#EDA921" d="M17.728 14.563V8.085a3.165 3.165 0 1 1 4.475 0v6.478l4.58-4.58a3.165 3.165 0 0 1 3.165-3.165h.02a3.165 3.165 0 0 1-.02 6.33l-4.566 4.565-.014.015h6.477a3.165 3.165 0 1 1 0 4.475h-6.477l4.58 4.58a3.165 3.165 0 0 1 .02 6.33h-.02a3.165 3.165 0 0 1-3.165-3.165l-4.58-4.58v6.477a3.165 3.165 0 1 1-4.475 0v-6.477l-4.58 4.58a3.165 3.165 0 0 1-3.145 3.165h-.02a3.165 3.165 0 0 1 0-6.33l4.58-4.58H8.086a3.165 3.165 0 1 1 0-4.475h6.477l-4.58-4.58a3.165 3.165 0 0 1 0-6.33h.02a3.165 3.165 0 0 1 3.145 3.165l4.58 4.58z"/></g></svg>