<svg xmlns="http://www.w3.org/2000/svg" xmlns:xlink="http://www.w3.org/1999/xlink" width="40" height="40" viewBox="0 0 40 40"><defs><linearGradient id="b" x1="27.82%" x2="59.904%" y1="16.03%" y2="99.602%"><stop offset="0%" stop-color="#87F2F8"/><stop offset="99.928%" stop-color="#03219C"/><stop offset="100%" stop-color="#021F9B"/></linearGradient><linearGradient id="d" x1="37.736%" x2="80.275%" y1="41.106%" y2="74.333%"><stop offset="0%" stop-color="#6AD1F9" stop-opacity="0"/><stop offset="100%" stop-color="#6AD1F9"/></linearGradient><linearGradient id="e" x1="40.966%" x2="71.448%" y1="41.777%" y2="67.666%"><stop offset="0%" stop-color="#4594F9" stop-opacity="0"/><stop offset="100%" stop-color="#4594F9"/></linearGradient><linearGradient id="f" x1="29.852%" x2="62.472%" y1="31.805%" y2="60.146%"><stop offset="0%" stop-color="#244CCE" stop-opacity="0"/><stop offset="100%" stop-color="#244CCE"/></linearGradient><path id="a" d="M40.1666667,10.3529724 C40.1666667,9.5037155 40.081741,8.56953291 39.9118896,7.72027601 C39.7420382,6.87101911 39.4872611,6.02176221 39.0626327,5.17250531 C38.6380042,4.4081741 38.1284501,3.64384289 37.5339703,3.04936306 C36.9394904,2.45488323 36.1751592,1.8604034 35.410828,1.52070064 C34.6464968,1.09607219 33.7972399,0.841295117 32.947983,0.671443737 C32.0987261,0.501592357 31.1645435,0.501592357 30.3152866,0.416666667 L29.126327,0.416666667 L27.6825902,0.416666667 L17.066879,0.416666667 L12.6507431,0.416666667 L11.2070064,0.416666667 L10.0180467,0.416666667 L9.33864119,0.416666667 C8.65923567,0.416666667 7.97983015,0.501592357 7.38535032,0.586518047 C6.7059448,0.671443737 6.11146497,0.841295117 5.51698514,1.09607219 C5.34713376,1.18099788 5.09235669,1.26592357 4.92250531,1.35084926 C4.32802548,1.69055202 3.81847134,2.03025478 3.3089172,2.45488323 C3.13906582,2.62473461 2.96921444,2.7096603 2.79936306,2.87951168 C2.20488323,3.47399151 1.6104034,4.23832272 1.27070064,5.00265393 C0.846072187,5.76698514 0.591295117,6.61624204 0.421443737,7.55042463 C0.251592357,8.39968153 0.251592357,9.33386412 0.166666667,10.183121 L0.166666667,11.3720807 L0.166666667,12.8158174 L0.166666667,19.3550955 L0.166666667,27.8476645 L0.166666667,29.2914013 L0.166666667,30.4803609 C0.166666667,31.3296178 0.251592357,32.2638004 0.421443737,33.1130573 C0.591295117,33.9623142 0.846072187,34.8115711 1.27070064,35.660828 C1.69532909,36.4251592 2.20488323,37.1894904 2.79936306,37.7839703 C3.39384289,38.3784501 4.1581741,38.9729299 4.92250531,39.3126327 C5.68683652,39.7372611 6.53609342,39.9920382 7.38535032,40.1618896 C8.23460722,40.331741 9.16878981,40.331741 10.0180467,40.4166667 L11.2070064,40.4166667 L12.6507431,40.4166667 L27.6825902,40.4166667 L29.126327,40.4166667 L30.3152866,40.4166667 C31.1645435,40.4166667 32.0987261,40.331741 32.947983,40.1618896 C33.7972399,39.9920382 34.6464968,39.7372611 35.410828,39.3126327 C36.1751592,38.8880042 36.9394904,38.3784501 37.5339703,37.7839703 C38.1284501,37.1894904 38.7229299,36.4251592 39.0626327,35.660828 C39.4872611,34.8964968 39.7420382,34.0472399 39.9118896,33.1130573 C40.081741,32.2638004 40.081741,31.3296178 40.1666667,30.4803609 L40.1666667,29.2914013 L40.1666667,27.8476645 L40.1666667,12.8158174 L40.1666667,11.5419321 L40.1666667,10.3529724 L40.1666667,10.3529724 Z"/></defs><g fill="none" fill-rule="evenodd" transform="translate(-.167 -.417)"><mask id="c" fill="#fff"><use xlink:href="#a"/></mask><use xlink:href="#a" fill="url(#b)" fill-rule="nonzero"/><g fill-rule="nonzero" mask="url(#c)"><g transform="translate(-9 -7)"><path fill="url(#d)" d="M22.3933333,24.7616667 C18.8958333,26.7825 14.0875,26.99 9.25,24.9166667 C5.33333333,23.25 2.08333333,20.3333333 1.77635684e-15,17 C1,17.8333333 2.16666667,18.5 3.41666667,19.0833333 C8.4125,21.425 13.4075,21.265 16.9216667,19.0891667 C16.92,19.0875 16.9183333,19.085 16.9166667,19.0833333 C11.9166667,15.25 7.66666667,10.25 4.5,6.16666667 C3.83333333,5.5 3.33333333,4.66666667 2.83333333,3.91666667 C6.66666667,7.41666667 12.75,11.8333333 14.9166667,13.0833333 C10.3333333,8.25 6.25,2.25 6.41666667,2.41666667 C13.6666667,9.75 20.4166667,13.9166667 20.4166667,13.9166667 C20.6408333,14.0425 20.8125,14.1475 20.9516667,14.2408333 C21.0975,13.8691667 21.225,13.4833333 21.3333333,13.0833333 C22.5,8.83333333 21.1666667,4 18.25,0 C25,4.08333333 29,11.75 27.3333333,18.1666667 C27.2891667,18.34 27.2425,18.5108333 27.1916667,18.6783333 C27.2108333,18.7025 27.23,18.7258333 27.25,18.75 C30.5833333,22.9166667 29.6666667,27.3333333 29.25,26.5 C27.4416667,22.9625 24.0941667,24.0441667 22.3933333,24.7616667 L22.3933333,24.7616667 Z"/><path fill="url(#e)" d="M27.3933333,29.7616667 C23.8958333,31.7825 19.0875,31.99 14.25,29.9166667 C10.3333333,28.25 7.08333333,25.3333333 5,22 C6,22.8333333 7.16666667,23.5 8.41666667,24.0833333 C13.4125,26.425 18.4075,26.265 21.9216667,24.0891667 C21.92,24.0875 21.9183333,24.085 21.9166667,24.0833333 C16.9166667,20.25 12.6666667,15.25 9.5,11.1666667 C8.83333333,10.5 8.33333333,9.66666667 7.83333333,8.91666667 C11.6666667,12.4166667 17.75,16.8333333 19.9166667,18.0833333 C15.3333333,13.25 11.25,7.25 11.4166667,7.41666667 C18.6666667,14.75 25.4166667,18.9166667 25.4166667,18.9166667 C25.6408333,19.0425 25.8125,19.1475 25.9516667,19.2408333 C26.0975,18.8691667 26.225,18.4833333 26.3333333,18.0833333 C27.5,13.8333333 26.1666667,9 23.25,5 C30,9.08333333 34,16.75 32.3333333,23.1666667 C32.2891667,23.34 32.2425,23.5108333 32.1916667,23.6783333 C32.2108333,23.7025 32.23,23.7258333 32.25,23.75 C35.5833333,27.9166667 34.6666667,32.3333333 34.25,31.5 C32.4416667,27.9625 29.0941667,29.0441667 27.3933333,29.7616667 L27.3933333,29.7616667 Z"/><path fill="url(#f)" d="M32.3933333,34.7616667 C28.8958333,36.7825 24.0875,36.99 19.25,34.9166667 C15.3333333,33.25 12.0833333,30.3333333 10,27 C11,27.8333333 12.1666667,28.5 13.4166667,29.0833333 C18.4125,31.425 23.4075,31.265 26.9216667,29.0891667 C26.92,29.0875 26.9183333,29.085 26.9166667,29.0833333 C21.9166667,25.25 17.6666667,20.25 14.5,16.1666667 C13.8333333,15.5 13.3333333,14.6666667 12.8333333,13.9166667 C16.6666667,17.4166667 22.75,21.8333333 24.9166667,23.0833333 C20.3333333,18.25 16.25,12.25 16.4166667,12.4166667 C23.6666667,19.75 30.4166667,23.9166667 30.4166667,23.9166667 C30.6408333,24.0425 30.8125,24.1475 30.9516667,24.2408333 C31.0975,23.8691667 31.225,23.4833333 31.3333333,23.0833333 C32.5,18.8333333 31.1666667,14 28.25,10 C35,14.0833333 39,21.75 37.3333333,28.1666667 C37.2891667,28.34 37.2425,28.5108333 37.1916667,28.6783333 C37.2108333,28.7025 37.23,28.7258333 37.25,28.75 C40.5833333,32.9166667 39.6666667,37.3333333 39.25,36.5 C37.4416667,32.9625 34.0941667,34.0441667 32.3933333,34.7616667 L32.3933333,34.7616667 Z"/><path fill="#000" d="M35.3933333,37.7616667 C31.8958333,39.7825 27.0875,39.99 22.25,37.9166667 C18.3333333,36.25 15.0833333,33.3333333 13,30 C14,30.8333333 15.1666667,31.5 16.4166667,32.0833333 C21.4125,34.425 26.4075,34.265 29.9216667,32.0891667 C29.92,32.0875 29.9183333,32.085 29.9166667,32.0833333 C24.9166667,28.25 20.6666667,23.25 17.5,19.1666667 C16.8333333,18.5 16.3333333,17.6666667 15.8333333,16.9166667 C19.6666667,20.4166667 25.75,24.8333333 27.9166667,26.0833333 C23.3333333,21.25 19.25,15.25 19.4166667,15.4166667 C26.6666667,22.75 33.4166667,26.9166667 33.4166667,26.9166667 C33.6408333,27.0425 33.8125,27.1475 33.9516667,27.2408333 C34.0975,26.8691667 34.225,26.4833333 34.3333333,26.0833333 C35.5,21.8333333 34.1666667,17 31.25,13 C38,17.0833333 42,24.75 40.3333333,31.1666667 C40.2891667,31.34 40.2425,31.5108333 40.1916667,31.6783333 C40.2108333,31.7025 40.23,31.7258333 40.25,31.75 C43.5833333,35.9166667 42.6666667,40.3333333 42.25,39.5 C40.4416667,35.9625 37.0941667,37.0441667 35.3933333,37.7616667 L35.3933333,37.7616667 Z"/></g></g></g></svg>