<?xml version="1.0" encoding="UTF-8"?>
<svg width="40px" height="40px" viewBox="0 0 40 40" version="1.1" xmlns="http://www.w3.org/2000/svg" xmlns:xlink="http://www.w3.org/1999/xlink">
    <!-- Generator: Sketch 42 (36781) - http://www.bohemiancoding.com/sketch -->
    <title>swift</title>
    <desc>Created with Sketch.</desc>
    <defs></defs>
    <g id="Page-1" stroke="none" stroke-width="1" fill="none" fill-rule="evenodd">
        <g id="Desktop-HD" transform="translate(-643.000000, -1181.000000)" fill-rule="nonzero" fill="#F05138">
            <path d="M683,1190.93631 L683,1190.93631 L683,1192.12527 L683,1193.39915 L683,1208.431 L683,1209.87473 L683,1211.06369 C682.915074,1211.91295 682.915074,1212.84713 682.745223,1213.69639 C682.575372,1214.63057 682.320594,1215.47983 681.895966,1216.24416 C681.556263,1217.00849 680.961783,1217.77282 680.367304,1218.3673 C679.772824,1218.96178 679.008493,1219.47134 678.244161,1219.89597 C677.47983,1220.32059 676.630573,1220.57537 675.781316,1220.74522 C674.932059,1220.91507 673.997877,1221 673.14862,1221 L671.95966,1221 L670.515924,1221 L655.484076,1221 L654.04034,1221 L652.85138,1221 C652.002123,1220.91507 651.067941,1220.91507 650.218684,1220.74522 C649.369427,1220.57537 648.52017,1220.32059 647.755839,1219.89597 C646.991507,1219.55626 646.227176,1218.96178 645.632696,1218.3673 C645.038217,1217.77282 644.528662,1217.00849 644.104034,1216.24416 C643.679406,1215.3949 643.424628,1214.54565 643.254777,1213.69639 C643.084926,1212.84713 643,1211.91295 643,1211.06369 L643,1209.87473 L643,1208.431 L643,1199.93843 L643,1193.39915 L643,1191.95541 L643,1190.76645 C643.084926,1189.9172 643.084926,1188.98301 643.254777,1188.13376 C643.424628,1187.19958 643.679406,1186.35032 644.104034,1185.58599 C644.443737,1184.82166 645.038217,1184.05732 645.632696,1183.46285 C645.802548,1183.29299 645.972399,1183.20807 646.142251,1183.03822 C646.651805,1182.61359 647.161359,1182.27389 647.755839,1181.93418 C647.92569,1181.84926 648.180467,1181.76433 648.350318,1181.67941 C648.944798,1181.42463 649.539278,1181.25478 650.218684,1181.16985 C650.813163,1181.08493 651.492569,1181 652.171975,1181 L652.85138,1181 L654.04034,1181 L655.484076,1181 L659.900212,1181 L670.515924,1181 L671.95966,1181 L673.14862,1181 C673.997877,1181.08493 674.932059,1181.08493 675.781316,1181.25478 C676.630573,1181.42463 677.47983,1181.67941 678.244161,1182.10403 C679.008493,1182.44374 679.772824,1183.03822 680.367304,1183.6327 C680.961783,1184.22718 681.471338,1184.99151 681.895966,1185.75584 C682.320594,1186.6051 682.575372,1187.45435 682.745223,1188.30361 C682.915074,1189.15287 683,1190.08705 683,1190.93631 Z M669.226667,1211.345 L669.226667,1211.345 C670.9275,1210.6275 674.275,1209.54583 676.083333,1213.08333 C676.5,1213.91667 677.416667,1209.5 674.083333,1205.33333 C674.063333,1205.30917 674.044167,1205.28583 674.025,1205.26167 C674.075833,1205.09417 674.1225,1204.92333 674.166667,1204.75 C675.833333,1198.33333 671.833333,1190.66667 665.083333,1186.58333 C668,1190.58333 669.333333,1195.41667 668.166667,1199.66667 C668.058333,1200.06667 667.930833,1200.4525 667.785,1200.82417 C667.645833,1200.73083 667.474167,1200.62583 667.25,1200.5 C667.25,1200.5 660.5,1196.33333 653.25,1189 C653.083333,1188.83333 657.166667,1194.83333 661.75,1199.66667 C659.583333,1198.41667 653.5,1194 649.666667,1190.5 C650.166667,1191.25 650.666667,1192.08333 651.333333,1192.75 C654.5,1196.83333 658.75,1201.83333 663.75,1205.66667 C663.751667,1205.66833 663.753333,1205.67083 663.755,1205.6725 C660.240833,1207.84833 655.245833,1208.00833 650.25,1205.66667 C649,1205.08333 647.833333,1204.41667 646.833333,1203.58333 C648.916667,1206.91667 652.166667,1209.83333 656.083333,1211.5 C660.920833,1213.57333 665.729167,1213.36583 669.226667,1211.345 Z" id="swift"></path>
        </g>
    </g>
</svg>