<svg xmlns="http://www.w3.org/2000/svg" width="40" height="40" viewBox="0 0 40 40"><g fill="none" fill-rule="evenodd"><path fill="#F05138" fill-rule="nonzero" d="M40 9.936c0-.849-.085-1.783-.255-2.632a9.987 9.987 0 0 0-.849-2.548c-.425-.764-.934-1.529-1.529-2.123-.594-.595-1.359-1.19-2.123-1.529-.764-.425-1.613-.68-2.463-.85-.849-.17-1.783-.17-2.632-.254H9.172c-.68 0-1.359.085-1.953.17A6.747 6.747 0 0 0 5.35.68c-.17.084-.424.17-.594.254-.595.34-1.104.68-1.614 1.104-.17.17-.34.255-.51.425-.594.594-1.188 1.359-1.528 2.123C.679 5.35.424 6.2.254 7.134.085 7.983.085 8.917 0 9.766v20.298c0 .849.085 1.783.255 2.632.17.85.424 1.699.849 2.548.425.764.934 1.529 1.529 2.123.594.595 1.359 1.19 2.123 1.529.764.425 1.613.68 2.463.85.849.17 1.783.17 2.632.254H30.15c.849 0 1.783-.085 2.632-.255.85-.17 1.699-.424 2.463-.849s1.529-.934 2.123-1.529c.595-.594 1.19-1.359 1.529-2.123.425-.764.68-1.613.85-2.548.17-.849.17-1.783.254-2.632V9.936z"/><path fill="#FFF" d="M26.227 30.345c-3.498 2.02-8.306 2.228-13.144.155-3.916-1.667-7.166-4.583-9.25-7.917 1 .834 2.167 1.5 3.417 2.084 4.996 2.341 9.99 2.181 13.505.005l-.005-.005c-5-3.834-9.25-8.834-12.417-12.917-.666-.667-1.166-1.5-1.666-2.25 3.833 3.5 9.916 7.917 12.083 9.167C14.167 13.833 10.083 7.833 10.25 8c7.25 7.333 14 11.5 14 11.5.224.126.396.23.535.324.146-.372.273-.757.382-1.157 1.166-4.25-.167-9.084-3.084-13.084 6.75 4.084 10.75 11.75 9.084 18.167-.045.173-.091.344-.142.512l.058.071c3.334 4.167 2.417 8.584 2 7.75-1.808-3.537-5.155-2.455-6.856-1.738z"/></g></svg>