<svg xmlns="http://www.w3.org/2000/svg" width="50" height="50" viewBox="0 0 50 50">
  <defs>
    <linearGradient id="the-bell-icon-a" x1="50%" x2="50%" y1="100%" y2="0%">
      <stop offset="0%" stop-color="#F0D300"/>
      <stop offset="100%" stop-color="#FFE414"/>
    </linearGradient>
    <linearGradient id="the-bell-icon-b" x1="50%" x2="50%" y1="100%" y2="0%">
      <stop offset="0%" stop-color="#1B1B1B"/>
      <stop offset="100%"/>
      <stop offset="100%"/>
    </linearGradient>
    <linearGradient id="the-bell-icon-c" x1="50%" x2="50%" y1="100%" y2="0%">
      <stop offset="0%" stop-color="#F0D300"/>
      <stop offset="100%" stop-color="#FFE414"/>
    </linearGradient>
  </defs>
  <g fill="none" fill-rule="evenodd">
    <circle cx="25" cy="25" r="25" fill="url(#the-bell-icon-a)"/>
    <circle cx="25" cy="25" r="22" fill="url(#the-bell-icon-b)"/>
    <g transform="rotate(30 -4.32 44.41)">
      <path fill="url(#the-bell-icon-c)" d="M14.6220641,22.6395319 C14.6220641,24.392608 13.1793782,25.81336 11.3992378,25.81336 C9.68080998,25.81336 8.27664806,24.4889015 8.18185262,22.8196545 L8.17675163,22.6395319 L14.6220641,22.6395319 Z M22.7540436,19.8665021 L22.7475615,20.0028738 C22.6832348,20.6760582 22.1475841,21.2117089 21.4743997,21.2760356 L21.338028,21.2825177 L1.41615299,21.2825177 C0.680111733,21.2825177 0.0752346415,20.7209371 0.00661948623,20.0028738 L0.000137365012,19.8665021 L22.7540436,19.8665021 Z M11.3840318,0.0302819138 C12.3535958,0.0302819138 13.2042722,0.710056532 13.7397165,1.75617407 C18.0127888,2.78486124 19.8382538,6.51524352 19.9139988,11.0606397 L19.9164652,11.3582147 L19.9164652,15.6059093 C19.9164652,17.4557769 21.69244,19.7041653 22.6665658,19.8472977 L22.7612101,19.8545007 L0.0073038207,19.8545007 C0.924672931,19.8545007 2.73024035,17.6657854 2.84577397,15.7921317 L2.85159839,15.6059093 L2.85159839,11.3582147 C2.85159839,6.67871084 4.66283221,2.807224 9.02879736,1.75617407 C9.56424166,0.710056532 10.4153684,0.0302819138 11.3840318,0.0302819138 Z"/>
      <path fill="#DFC200" d="M0.000137365012,19.8665021 C0.000137365012,20.6485459 0.634109155,21.2825177 1.41615299,21.2825177 L21.338028,21.2825177 C22.1200718,21.2825177 22.7540436,20.6485459 22.7540436,19.8665021 L22.7540436,19.8665021 L22.7540436,19.8665021 C21.8056452,19.8665021 0.948085445,19.8665021 0.000137365012,19.8665021 Z"/>
    </g>
  </g>
</svg>
