<svg xmlns="http://www.w3.org/2000/svg" xmlns:xlink="http://www.w3.org/1999/xlink" width="411" height="483" viewBox="0 0 411 483">
  <defs>
    <path id="the-bell-showcase-a" d="M167.61,283.76 L77.28,283.76 C44.24,283.76 28.92,276.33 15.3,261.71 C1.67,247.11 0.444,224.11 0.444,195.17 L0.444,89.24 C0.444,60.3 1.67,37.31 15.3,22.7 C28.92,8.09 44.24,0.65 77.28,0.65 L167.61,0.65 C200.65,0.65 215.97,8.09 229.59,22.7 C239.04,32.83 242.52,46.98 243.78,64.36 L243.37,64.36 C241.12,65.6 237.99,72.62 237.99,78.72 L237.99,97.74 C237.99,103.84 241.12,110.86 243.37,112.1 L244.44,112.1 L244.44,195.17 C244.44,224.11 243.22,247.11 229.59,261.71 C215.97,276.33 200.65,283.76 167.61,283.76 Z"/>
    <path id="the-bell-showcase-c" d="M167.61,283.76 L77.28,283.76 C44.24,283.76 28.92,276.33 15.3,261.71 C1.67,247.11 0.444,224.11 0.444,195.17 L0.444,89.24 C0.444,60.3 1.67,37.31 15.3,22.7 C28.92,8.09 44.24,0.65 77.28,0.65 L167.61,0.65 C200.65,0.65 215.97,8.09 229.59,22.7 C239.04,32.83 242.52,46.98 243.78,64.36 L243.37,64.36 C241.12,65.6 237.99,72.62 237.99,78.72 L237.99,97.74 C237.99,103.84 241.12,110.86 243.37,112.1 L244.44,112.1 L244.44,195.17 C244.44,224.11 243.22,247.11 229.59,261.71 C215.97,276.33 200.65,283.76 167.61,283.76 Z"/>
    <path id="the-bell-showcase-e" d="M167.61,283.76 L77.28,283.76 C44.24,283.76 28.92,276.33 15.3,261.71 C1.67,247.11 0.444,224.11 0.444,195.17 L0.444,89.24 C0.444,60.3 1.67,37.31 15.3,22.7 C28.92,8.09 44.24,0.65 77.28,0.65 L167.61,0.65 C200.65,0.65 215.97,8.09 229.59,22.7 C239.04,32.83 242.52,46.98 243.78,64.36 L243.37,64.36 C241.12,65.6 237.99,72.62 237.99,78.72 L237.99,97.74 C237.99,103.84 241.12,110.86 243.37,112.1 L244.44,112.1 L244.44,195.17 C244.44,224.11 243.22,247.11 229.59,261.71 C215.97,276.33 200.65,283.76 167.61,283.76 Z"/>
    <path id="the-bell-showcase-g" d="M167.61,283.76 L77.28,283.76 C44.24,283.76 28.92,276.33 15.3,261.71 C1.67,247.11 0.444,224.11 0.444,195.17 L0.444,89.24 C0.444,60.3 1.67,37.31 15.3,22.7 C28.92,8.09 44.24,0.65 77.28,0.65 L167.61,0.65 C200.65,0.65 215.97,8.09 229.59,22.7 C239.04,32.83 242.52,46.98 243.78,64.36 L243.37,64.36 C241.12,65.6 237.99,72.62 237.99,78.72 L237.99,97.74 C237.99,103.84 241.12,110.86 243.37,112.1 L244.44,112.1 L244.44,195.17 C244.44,224.11 243.22,247.11 229.59,261.71 C215.97,276.33 200.65,283.76 167.61,283.76 Z"/>
    <circle id="the-bell-showcase-i" cx="22" cy="22" r="22"/>
    <linearGradient id="the-bell-showcase-k" x1="50%" x2="50%" y1="100%" y2="0%">
      <stop offset="0%" stop-color="#F0D300"/>
      <stop offset="100%" stop-color="#FFE414"/>
    </linearGradient>
    <linearGradient id="the-bell-showcase-l" x1="50%" x2="50%" y1="100%" y2="0%">
      <stop offset="0%" stop-color="#1B1B1B"/>
      <stop offset="100%"/>
      <stop offset="100%"/>
    </linearGradient>
    <linearGradient id="the-bell-showcase-m" x1="50%" x2="50%" y1="100%" y2="0%">
      <stop offset="0%" stop-color="#F0D300"/>
      <stop offset="100%" stop-color="#FFE414"/>
    </linearGradient>
  </defs>
  <g fill="none" fill-rule="evenodd">
    <g fill="#333" transform="translate(22)">
      <path d="M99,0.5 C104.849,0.502 159.78,1.282 165,12 C168.412,19.006 170.444,53.368 170.772,55.258 C174.214,75.119 179.031,83.124 197.262,93.195 L0.738,93.195 C18.969,83.124 23.786,75.119 27.228,55.258 C27.556,53.368 29.588,19.006 33,12 C38.22,1.282 93.151,0.502 99,0.5 Z"/>
      <path d="M99,346.5 C104.849,346.502 159.78,347.282 165,358 C168.412,365.006 170.444,399.368 170.772,401.258 C174.214,421.119 179.031,429.124 197.262,439.195 L0.738,439.195 C18.969,429.124 23.786,421.119 27.228,401.258 C27.556,399.368 29.588,365.006 33,358 C38.22,347.282 93.151,346.502 99,346.5 Z" transform="matrix(1 0 0 -1 0 785.695)"/>
    </g>
    <g transform="translate(237 142)">
      <rect width="7" height="46" y="1" fill="#111"/>
      <path fill="#3B3B3B" d="M17.25,37.62 C17.25,45.7 14.08,48.28 11.12,48.28 L6.43,48.28 C5.22,47.61 3.74,45.25 2.64,42.25 C2.64,41.36 2.64,7.13 2.64,6.24 C3.74,3.24 5.22,0.88 6.43,0.21 L11.12,0.21 C14.08,0.21 17.25,2.79 17.25,10.88 L17.25,37.62 Z"/>
    </g>
    <g transform="translate(0 77.5)">
      <path fill="#4A4A4A" d="M167.666,284.11 L77.336,284.11 C44.296,284.11 28.976,276.68 15.356,262.06 C1.726,247.46 0.5,224.46 0.5,195.52 L0.5,89.59 C0.5,60.65 1.726,37.66 15.356,23.05 C28.976,8.44 44.296,1 77.336,1 L167.666,1 C200.706,1 216.026,8.44 229.646,23.05 C239.096,33.18 242.576,47.33 243.836,64.71 L243.426,64.71 C241.176,65.95 238.046,72.97 238.046,79.07 L238.046,98.09 C238.046,104.19 241.176,111.21 243.426,112.45 L244.496,112.45 L244.496,195.52 C244.496,224.46 243.276,247.46 229.646,262.06 C216.026,276.68 200.706,284.11 167.666,284.11 Z"/>
      <g transform="translate(.056 .35)">
        <mask id="the-bell-showcase-b" fill="#fff">
          <use xlink:href="#the-bell-showcase-a"/>
        </mask>
        <path fill="#111" d="M245.1,151.14 C242.91,153.4 242.68,156.84 242.45,160.12 C242.34,161.73 242.3,163.35 242.29,164.97 C242.27,180.29 242.25,195.6 242.29,210.92 C242.32,215.03 242.32,219.39 243.89,222.85 L244.14,223.4 L243.3,223.8 L243.04,223.25 C241.36,219.52 241.39,215.15 241.36,210.92 C241.32,195.5 241.29,180.09 241.36,164.67 C241.39,160.68 241.42,156.55 242.82,152.97 C243.18,152.04 244.06,150.88 244.06,150.88 L244.43,150.49 C244.66,150.71 244.88,150.93 245.1,151.14 Z" mask="url(#the-bell-showcase-b)"/>
      </g>
      <g transform="translate(.056 .35)">
        <mask id="the-bell-showcase-d" fill="#fff">
          <use xlink:href="#the-bell-showcase-c"/>
        </mask>
        <path fill="#111" d="M243.78,64.82 C243.78,64.82 243.54,64.79 243.34,64.94 C242.09,65.91 241.35,67.44 240.68,68.93 C239.31,71.97 238.5,75.26 238.46,78.58 C238.43,85.06 238.38,91.54 238.46,98.02 C238.55,102.73 239.75,107.75 242.84,111.06 C243.09,111.33 243.5,111.64 243.5,111.64 L244.44,111.64 L244.44,112.57 L243.29,112.56 C243.22,112.54 243.15,112.51 243.09,112.48 C243.02,112.44 242.96,112.4 242.89,112.35 C241.8,111.6 241.08,110.38 240.44,109.16 C238.63,105.75 237.6,101.9 237.53,98.03 C237.45,91.55 237.5,85.06 237.52,78.57 C237.58,73.88 238.88,69.05 241.61,65.41 C242.12,64.74 243.09,63.99 243.09,63.99 C243.31,63.86 243.78,63.89 243.78,63.89 C243.78,64.2 243.78,64.51 243.78,64.82 Z" mask="url(#the-bell-showcase-d)"/>
      </g>
      <path fill="#000" d="M9.056,194.3 C9.056,193.85 9.056,90.49 9.056,90.04 C9.416,64.34 8.866,42.88 21.066,27.76 C34.376,11.27 52.326,9.35 86.126,9.35 L159.056,9.35 C192.856,9.35 210.806,11.27 224.106,27.76 C236.316,42.88 235.766,64.34 236.116,90.04 C236.126,90.49 236.126,193.85 236.116,194.3 C235.766,220 236.316,241.46 224.106,256.58 C210.806,273.07 192.856,274.99 159.056,274.99 L86.126,274.99 C52.326,274.99 34.376,273.07 21.066,256.58 C8.866,241.46 9.416,220 9.056,194.3 Z"/>
      <path fill="#000" d="M214.257334,61.4522449 C214.257334,44.2910713 200.322584,30.351312 183.159897,30.351312 L61.3624325,30.351312 C44.1997464,30.351312 30.255064,44.2910713 30.255064,61.4522449 L30.255064,223.251967 C30.255064,240.422992 44.1997464,254.3529 61.3624325,254.3529 L183.159897,254.3529 C200.322584,254.3529 214.257334,240.422992 214.257334,223.251967 L214.257334,61.4522449 Z"/>
      <g transform="translate(30.5 30.5)">
        <rect width="184" height="26" fill="#000"/>
        <path fill="#FFF" fill-rule="nonzero" d="M135.652344,22 L135.652344,10.6694336 L133.792969,10.6694336 L131.103516,12.628418 L131.103516,14.4296875 L133.70166,12.5620117 L133.792969,12.5620117 L133.792969,22 L135.652344,22 Z M143.031738,22.2241211 C145.663086,22.2241211 147.223633,19.9829102 147.223633,16.5712891 L147.223633,16.1064453 C147.223633,12.6699219 145.696289,10.4453125 143.064941,10.4453125 C140.425293,10.4453125 138.864746,12.6948242 138.864746,16.1064453 L138.864746,16.5712891 C138.864746,19.9995117 140.408691,22.2241211 143.031738,22.2241211 Z M143.04834,20.6552734 C141.628906,20.6552734 140.740723,19.1196289 140.740723,16.5546875 L140.740723,16.1147461 C140.740723,13.5581055 141.620605,12.0141602 143.04834,12.0141602 C144.467773,12.0141602 145.347656,13.5664062 145.347656,16.1147461 L145.347656,16.5546875 C145.347656,19.1113281 144.467773,20.6552734 143.04834,20.6552734 Z M150.942383,14.9194336 C151.697754,14.9194336 152.278809,14.3964844 152.278809,13.6411133 C152.278809,12.8608398 151.697754,12.3295898 150.942383,12.3295898 C150.211914,12.3295898 149.630859,12.8608398 149.630859,13.6411133 C149.630859,14.3964844 150.220215,14.9194336 150.942383,14.9194336 Z M150.942383,20.5390625 C151.697754,20.5390625 152.278809,20.0161133 152.278809,19.2524414 C152.278809,18.4804688 151.697754,17.940918 150.942383,17.940918 C150.211914,17.940918 149.630859,18.472168 149.630859,19.2524414 C149.630859,20.0161133 150.220215,20.5390625 150.942383,20.5390625 Z M158.853027,22.2241211 C161.484375,22.2241211 163.044922,19.9829102 163.044922,16.5712891 L163.044922,16.1064453 C163.044922,12.6699219 161.517578,10.4453125 158.88623,10.4453125 C156.246582,10.4453125 154.686035,12.6948242 154.686035,16.1064453 L154.686035,16.5712891 C154.686035,19.9995117 156.22998,22.2241211 158.853027,22.2241211 Z M158.869629,20.6552734 C157.450195,20.6552734 156.562012,19.1196289 156.562012,16.5546875 L156.562012,16.1147461 C156.562012,13.5581055 157.441895,12.0141602 158.869629,12.0141602 C160.289062,12.0141602 161.168945,13.5664062 161.168945,16.1147461 L161.168945,16.5546875 C161.168945,19.1113281 160.289062,20.6552734 158.869629,20.6552734 Z M168.996582,22.2075195 C171.976562,22.2075195 173.420898,20.1323242 173.420898,16.1147461 C173.420898,11.6572266 171.354004,10.4287109 169.212402,10.4287109 C166.904785,10.4287109 165.14502,11.8730469 165.14502,14.296875 C165.14502,16.7124023 166.805176,18.0737305 168.780762,18.0737305 C170.283203,18.0737305 171.187988,17.2851562 171.52002,16.3969727 L171.62793,16.3969727 C171.694336,18.7626953 170.955566,20.6801758 169.029785,20.6801758 C168.025391,20.6801758 167.402832,20.1655273 167.261719,19.6591797 L165.427246,19.6591797 C165.560059,20.9458008 166.73877,22.2075195 168.996582,22.2075195 Z M169.162598,16.5795898 C167.983887,16.5795898 166.979492,15.815918 166.979492,14.296875 C166.979492,12.8193359 167.942383,11.9477539 169.129395,11.9477539 C170.391113,11.9477539 171.337402,12.8110352 171.337402,14.3217773 C171.337402,15.8325195 170.308105,16.5795898 169.162598,16.5795898 Z"/>
        <path fill="gray" fill-rule="nonzero" d="M14.0634766,23 L16.2963867,14.6079102 L16.3710938,14.6079102 L18.6040039,23 L20.3139648,23 L23.3686523,11.6694336 L21.2768555,11.6694336 L19.4008789,20.2939453 L19.3012695,20.2939453 L17.1928711,11.6694336 L15.4829102,11.6694336 L13.3662109,20.2939453 L13.2749023,20.2939453 L11.390625,11.6694336 L9.29882812,11.6694336 L12.3535156,23 L14.0634766,23 Z M28.5483398,23.1494141 C30.8393555,23.1494141 32.4414062,21.7133789 32.4414062,19.1650391 L32.4414062,18.027832 C32.4414062,15.5625 30.8393555,14.0766602 28.5483398,14.0766602 C26.2490234,14.0766602 24.6386719,15.637207 24.6386719,18.0361328 L24.6386719,19.1733398 C24.6386719,21.7299805 26.2241211,23.1494141 28.5483398,23.1494141 Z M28.5566406,21.6635742 C27.1953125,21.6635742 26.4980469,20.5761719 26.4980469,19.1069336 L26.4980469,18.1274414 C26.4980469,16.6582031 27.2451172,15.5625 28.5566406,15.5625 C29.8681641,15.5625 30.590332,16.6582031 30.590332,18.1274414 L30.590332,19.1069336 C30.590332,20.5844727 29.9013672,21.6635742 28.5566406,21.6635742 Z M36.7910156,23 L36.7910156,17.7788086 C36.7910156,16.5917969 37.5131836,15.7119141 38.9907227,15.7119141 C39.2978516,15.7119141 39.621582,15.7368164 39.7792969,15.7783203 L39.7792969,14.1513672 C39.6049805,14.1181641 39.4057617,14.1015625 39.1567383,14.1015625 C37.6875,14.1015625 37.0483398,15.0063477 36.8574219,15.5957031 L36.7578125,15.5957031 L36.7578125,14.2260742 L34.9233398,14.2260742 L34.9233398,23 L36.7910156,23 Z M43.53125,23 L43.53125,19.8623047 L44.2451172,19.1069336 L46.9926758,23 L49.1674805,23 L45.6313477,18.027832 L48.9433594,14.2260742 L46.8432617,14.2260742 L43.6142578,18.027832 L43.53125,18.027832 L43.53125,11.0717773 L41.6967773,11.0717773 L41.6967773,23 L43.53125,23 Z M54.4052734,23.1494141 C56.6962891,23.1494141 58.2983398,21.7133789 58.2983398,19.1650391 L58.2983398,18.027832 C58.2983398,15.5625 56.6962891,14.0766602 54.4052734,14.0766602 C52.105957,14.0766602 50.4956055,15.637207 50.4956055,18.0361328 L50.4956055,19.1733398 C50.4956055,21.7299805 52.0810547,23.1494141 54.4052734,23.1494141 Z M54.4135742,21.6635742 C53.0522461,21.6635742 52.3549805,20.5761719 52.3549805,19.1069336 L52.3549805,18.1274414 C52.3549805,16.6582031 53.1020508,15.5625 54.4135742,15.5625 C55.7250977,15.5625 56.4472656,16.6582031 56.4472656,18.1274414 L56.4472656,19.1069336 C56.4472656,20.5844727 55.7583008,21.6635742 54.4135742,21.6635742 Z M63.5776367,23.1328125 C65.1132812,23.1328125 65.9267578,22.2446289 66.1674805,21.5390625 L66.2670898,21.5390625 L66.2670898,23 L68.0766602,23 L68.0766602,14.2260742 L66.2338867,14.2260742 L66.2338867,19.6298828 C66.2338867,20.7338867 65.3374023,21.5722656 64.2001953,21.5722656 C63.2705078,21.5722656 62.4487305,21.1572266 62.4487305,19.7626953 L62.4487305,14.2260742 L60.605957,14.2260742 L60.605957,20.2441406 C60.605957,22.3027344 61.8261719,23.1328125 63.5776367,23.1328125 Z M74.1196289,23.0581055 C74.534668,23.0581055 75.1489258,23.0083008 75.2983398,22.9833984 L75.2983398,21.5722656 C75.1572266,21.5888672 74.8251953,21.6054688 74.5761719,21.6054688 C73.5883789,21.6054688 73.2314453,21.3398438 73.2314453,20.3852539 L73.2314453,15.7285156 L75.1987305,15.7285156 L75.1987305,14.2841797 L73.2314453,14.2841797 L73.2314453,12.0927734 L71.4301758,12.0927734 L71.4301758,14.2841797 L70.0688477,14.2841797 L70.0688477,15.7285156 L71.4052734,15.7285156 L71.4052734,20.534668 C71.4052734,22.2944336 71.9863281,23.0581055 74.1196289,23.0581055 Z"/>
        <g fill-rule="nonzero" transform="translate(1 34)">
          <path fill="#FFF" d="M2.1796875 13.5L2.1796875 10.3359375 4.06640625 10.3359375 5.53710938 13.5 6.76171875 13.5 5.1328125 10.1308594C6.0234375 9.80859375 6.62109375 8.99414062 6.62109375 7.8984375 6.62109375 6.4453125 5.61914062 5.50195312 4.02539062 5.50195312L1.10742188 5.50195312 1.10742188 13.5 2.1796875 13.5zM3.84375 9.41015625L2.1796875 9.41015625 2.1796875 6.43945312 3.88476562 6.43945312C4.90429688 6.43945312 5.5078125 6.99023438 5.5078125 7.95703125 5.5078125 8.91210938 4.91601562 9.41015625 3.84375 9.41015625zM11.6609375 13.6640625C13.6238281 13.6640625 14.8835938 12.3457031 14.8835938 10.0839844L14.8835938 8.92382812C14.8835938 6.65039062 13.6238281 5.33789062 11.6609375 5.33789062 9.69804688 5.33789062 8.43828125 6.65039062 8.43828125 8.92382812L8.43828125 10.0839844C8.43828125 12.3457031 9.69804688 13.6640625 11.6609375 13.6640625zM11.6609375 12.7089844C10.4421875 12.7089844 9.52226563 11.8535156 9.52226563 10.0839844L9.52226563 8.91796875C9.52226563 7.1484375 10.4421875 6.29296875 11.6609375 6.29296875 12.8738281 6.29296875 13.7996094 7.1484375 13.7996094 8.91796875L13.7996094 10.0839844C13.7996094 11.8535156 12.8738281 12.7089844 11.6609375 12.7089844zM19.9351563 13.6640625C21.7691406 13.6640625 22.9878906 12.4921875 22.9878906 10.7402344L22.9878906 5.50195312 21.9039063 5.50195312 21.9039063 10.7050781C21.9039063 11.9414062 21.1363281 12.703125 19.9351563 12.703125 18.728125 12.703125 17.9605469 11.9472656 17.9605469 10.7050781L17.9605469 5.50195312 16.8824219 5.50195312 16.8824219 10.7402344C16.8824219 12.4921875 18.0953125 13.6640625 19.9351563 13.6640625zM26.3695313 13.5L26.3695313 7.34179688 26.4105469 7.34179688 30.3773438 13.5 31.396875 13.5 31.396875 5.50195312 30.3363281 5.50195312 30.3363281 11.6542969 30.2835938 11.6542969 26.3285156 5.50195312 25.3089844 5.50195312 25.3089844 13.5 26.3695313 13.5zM36.4132813 13.5C38.7453125 13.5 39.9347656 12.1113281 39.9347656 9.49804688 39.9347656 6.88476562 38.7453125 5.50195312 36.4132813 5.50195312L33.8117188 5.50195312 33.8117188 13.5 36.4132813 13.5zM36.3371094 12.5507812L34.8898438 12.5507812 34.8898438 6.4453125 36.3371094 6.4453125C38.0011719 6.4453125 38.815625 7.46484375 38.815625 9.50390625 38.815625 11.5429688 38.0070313 12.5507812 36.3371094 12.5507812zM47.6179688 13.5L47.6179688 5.50195312 46.5515625 5.50195312 44.6472656 6.9140625 44.6472656 7.99804688 46.4988281 6.65625 46.5515625 6.65625 46.5515625 13.5 47.6179688 13.5zM53.4320313 15.3105469L56.3207031 5.08007812 55.3363281 5.08007812 52.4535156 15.3105469 53.4320313 15.3105469zM62.9433594 13.6523438C65.0058594 13.6523438 65.9726563 12.1875 65.9726563 9.31640625 65.9726563 6.10546875 64.5078125 5.32617188 63.1132813 5.32617188 61.5429688 5.32617188 60.3300782 6.328125 60.3300782 8.02734375 60.3300782 9.71484375 61.4609375 10.7167969 62.8847657 10.7167969 63.96875 10.7167969 64.6191407 10.1367188 64.8710938 9.47460938L64.9296875 9.47460938C64.9765625 11.2617188 64.4433594 12.7324219 62.9667969 12.7324219 62.1875 12.7324219 61.7363282 12.3339844 61.625 11.9589844L60.5410157 11.9589844C60.6464844 12.8496094 61.4609375 13.6523438 62.9433594 13.6523438zM63.078125 9.80273438C62.1816407 9.80273438 61.3964844 9.234375 61.3964844 8.04492188 61.3964844 6.90234375 62.1523438 6.24609375 63.0488282 6.24609375 64.0097657 6.24609375 64.7480469 6.90234375 64.7480469 8.07421875 64.7480469 9.24609375 63.9335938 9.80273438 63.078125 9.80273438zM11.5625 47.0664062C17.890625 47.0664062 21.7578125 41.8125 21.7578125 33.8242188L21.7578125 32.5742188C21.7578125 24.5078125 18.0078125 19.3320312 11.640625 19.3320312 5.29296875 19.3320312 1.46484375 24.5664062 1.46484375 32.5742188L1.46484375 33.8242188C1.46484375 41.8710938 5.234375 47.0664062 11.5625 47.0664062zM11.6015625 42.7695312C8.57421875 42.7695312 6.73828125 39.4101562 6.73828125 33.7851562L6.73828125 32.59375C6.73828125 26.96875 8.57421875 23.6289062 11.6015625 23.6289062 14.6289062 23.6289062 16.4648438 26.9882812 16.4648438 32.59375L16.4648438 33.7851562C16.4648438 39.4101562 14.6289062 42.7695312 11.6015625 42.7695312zM41.640625 46.5C43.1835938 46.5 44.1015625 45.6992188 44.1015625 44.3710938 44.1015625 43.0234375 43.1640625 42.203125 41.640625 42.203125L32.4804688 42.203125 32.4804688 41.9492188 38.6914062 35.3085938C42.03125 31.7929688 43.2421875 29.5859375 43.2421875 26.9101562 43.2421875 22.515625 39.53125 19.3320312 34.375 19.3320312 29.1015625 19.3320312 25.3515625 22.75 25.3515625 26.265625 25.3515625 27.5742188 26.25 28.5117188 27.5585938 28.5117188 28.5742188 28.5117188 29.2382812 27.984375 29.8632812 26.7734375 30.625 24.7226562 32.0898438 23.6289062 34.0820312 23.6289062 36.484375 23.6289062 38.1054688 25.1328125 38.1054688 27.359375 38.1054688 29 37.2460938 30.484375 35.0976562 32.7695312L27.8125 40.6210938C26.171875 42.3007812 25.6445312 43.140625 25.6445312 44.1367188 25.6445312 45.5625 26.7578125 46.5 28.4765625 46.5L41.640625 46.5zM9.86083984 81.9956055C15.1416016 81.9956055 18.1665039 77.347168 18.1665039 70.2890625L18.1665039 69.4345703C18.1665039 62.359375 15.1586914 57.6767578 9.87792969 57.6767578 4.59716797 57.6767578 1.57226562 62.359375 1.57226562 69.4345703L1.57226562 70.2890625C1.57226562 77.3642578 4.59716797 81.9956055 9.86083984 81.9956055zM9.87792969 79.4150391C6.59667969 79.4150391 4.56298828 75.9458008 4.56298828 70.2548828L4.56298828 69.4516602C4.56298828 63.7607422 6.59667969 60.2744141 9.86083984 60.2744141 13.1420898 60.2744141 15.1928711 63.7607422 15.1928711 69.4516602L15.1928711 70.2548828C15.1928711 75.9458008 13.1591797 79.4150391 9.87792969 79.4150391zM27.7539062 66.5825195C28.0776367 66.5825195 28.2871094 66.3984375 28.2871094 66.1000977 28.2871094 65.9794922 28.2553711 65.8461914 28.2045898 65.706543L25.5957031 58.4130859C25.4370117 57.96875 25.2148438 57.765625 24.8085938 57.765625 24.4023438 57.765625 24.1801758 57.96875 24.0214844 58.4130859L21.4125977 65.706543C21.3618164 65.8588867 21.3300781 65.9794922 21.3300781 66.1064453 21.3300781 66.3984375 21.5395508 66.5825195 21.8569336 66.5825195 22.1616211 66.5825195 22.3330078 66.4428711 22.4536133 66.0620117L23.1835938 63.8974609 26.4272461 63.8974609 27.1572266 66.0620117C27.277832 66.4365234 27.4492188 66.5825195 27.7539062 66.5825195zM26.1289062 63.0024414L23.4819336 63.0024414 24.7832031 59.1430664 24.8276367 59.1430664 26.1289062 63.0024414zM32.7050781 66.684082C33.7460938 66.684082 34.5776367 66.3666992 35.1743164 65.7700195 35.605957 65.3383789 35.8916016 64.7734375 35.8916016 64.3862305 35.8916016 64.0878906 35.7138672 63.8911133 35.3964844 63.8911133 35.1616211 63.8911133 35.0283203 64.0117188 34.8505859 64.3291016 34.3745117 65.2558594 33.6762695 65.6875 32.7495117 65.6875 31.2578125 65.6875 30.4262695 64.671875 30.4262695 62.8500977L30.4262695 61.4853516C30.4262695 59.6826172 31.2578125 58.6542969 32.7495117 58.6542969 33.6635742 58.6542969 34.3173828 59.0922852 34.8251953 60.0380859 35.0029297 60.3745117 35.1616211 60.4760742 35.4091797 60.4760742 35.7011719 60.4760742 35.8916016 60.2919922 35.8916016 59.980957 35.8916016 59.612793 35.6186523 59.0541992 35.1933594 58.6098633 34.5839844 57.987793 33.7587891 57.6513672 32.7050781 57.6513672 30.5595703 57.6513672 29.3154297 59.0732422 29.3154297 61.4790039L29.3154297 62.8564453C29.3154297 65.2875977 30.5532227 66.684082 32.7050781 66.684082zM39.8461914 66.5634766C40.1889648 66.5634766 40.4047852 66.3286133 40.4047852 65.9541016L40.4047852 58.8256836 42.5375977 58.8256836C42.8803711 58.8256836 43.1025391 58.6416016 43.1025391 58.3369141 43.1025391 58.0322266 42.8803711 57.8354492 42.5375977 57.8354492L37.1674805 57.8354492C36.8183594 57.8354492 36.5961914 58.0322266 36.5961914 58.3369141 36.5961914 58.6416016 36.8183594 58.8256836 37.1674805 58.8256836L39.2939453 58.8256836 39.2939453 65.9541016C39.2939453 66.3286133 39.503418 66.5634766 39.8461914 66.5634766zM44.7529297 66.5634766C45.0957031 66.5634766 45.3115234 66.3286133 45.3115234 65.9541016L45.3115234 58.3813477C45.3115234 58.0068359 45.0957031 57.7719727 44.7529297 57.7719727 44.4101562 57.7719727 44.2006836 58.0068359 44.2006836 58.3813477L44.2006836 65.9541016C44.2006836 66.3286133 44.4101562 66.5634766 44.7529297 66.5634766zM50.1484375 66.5634766C50.5483398 66.5634766 50.7578125 66.3413086 50.9482422 65.8208008L53.5253906 58.7304688C53.5698242 58.5908203 53.6206055 58.3686523 53.6206055 58.2543945 53.6206055 57.949707 53.3730469 57.7402344 53.0556641 57.7402344 52.7700195 57.7402344 52.5859375 57.9052734 52.4589844 58.2988281L50.1738281 65.097168 50.1230469 65.097168 47.831543 58.2988281C47.7045898 57.9116211 47.5332031 57.7402344 47.2412109 57.7402344 46.9174805 57.7402344 46.6635742 57.949707 46.6635742 58.2543945 46.6635742 58.375 46.7080078 58.5527344 46.7651367 58.7304688L49.3359375 65.8208008C49.5263672 66.3413086 49.7485352 66.5634766 50.1484375 66.5634766zM59.6826172 66.5C60.0317383 66.5 60.2539062 66.315918 60.2539062 66.0112305 60.2539062 65.706543 60.0317383 65.5097656 59.6889648 65.5097656L56.0898438 65.5097656 56.0898438 62.5644531 59.4667969 62.5644531C59.8095703 62.5644531 60.0253906 62.3867188 60.0253906 62.0820312 60.0253906 61.7773438 59.8095703 61.5932617 59.4667969 61.5932617L56.0898438 61.5932617 56.0898438 58.8256836 59.6889648 58.8256836C60.0317383 58.8256836 60.2539062 58.6352539 60.2539062 58.3305664 60.2539062 58.0258789 60.0317383 57.8354492 59.6889648 57.8354492L56.0073242 57.8354492C55.2773438 57.8354492 54.9853516 58.1020508 54.9853516 58.7749023L54.9853516 65.5605469C54.9853516 66.2333984 55.2773438 66.5 56.0073242 66.5L59.6826172 66.5zM47.0507812 111.5C50.4726562 111.5 52.6289062 109.765625 52.6289062 107 52.6289062 104.808594 51.2695312 103.320312 49.1132812 103.074219L49.1132812 102.957031C50.7890625 102.511719 51.7617188 101.234375 51.7617188 99.4414062 51.7617188 97.0273438 49.9921875 95.5039062 47.1679688 95.5039062L42.8085938 95.5039062C41.4257812 95.5039062 40.7929688 96.1015625 40.7929688 97.4023438L40.7929688 109.601562C40.7929688 110.914062 41.4257812 111.5 42.8085938 111.5L47.0507812 111.5zM45.6914062 102.265625L43.4414062 102.265625 43.4414062 97.6132812 46.6171875 97.6132812C48.1992188 97.6132812 49.125 98.46875 49.125 99.8867188 49.125 101.46875 48.0703125 102.265625 45.6914062 102.265625zM45.984375 109.390625L43.4414062 109.390625 43.4414062 104.269531 46.828125 104.269531C48.8085938 104.269531 49.921875 105.253906 49.921875 106.90625 49.921875 108.59375 48.7851562 109.390625 45.984375 109.390625zM56.671875 111.617188C57.515625 111.617188 58.0078125 111.078125 58.0078125 110.164062L58.0078125 105.757812 61.3710938 105.757812C64.640625 105.757812 66.75 103.800781 66.75 100.625 66.75 97.5429688 64.6523438 95.5039062 61.4414062 95.5039062L57.46875 95.5039062C55.9453125 95.5039062 55.3476562 96.078125 55.3476562 97.5664062L55.3476562 110.164062C55.3476562 111.078125 55.8398438 111.617188 56.671875 111.617188zM60.2226562 103.589844L58.0078125 103.589844 58.0078125 97.7070312 61.1835938 97.7070312C63.0234375 97.7070312 64.078125 98.7851562 64.078125 100.648438 64.078125 102.828125 63.0117188 103.589844 60.2226562 103.589844zM83.1445312 111.617188C83.9414062 111.617188 84.3632812 111.125 84.3632812 110.199219L84.3632812 97.0742188C84.3632812 95.984375 83.8125 95.3632812 82.8632812 95.3632812 82.03125 95.3632812 81.6210938 95.703125 81.09375 96.8984375L76.828125 106.835938 76.734375 106.835938 72.46875 96.9101562C71.9296875 95.7148438 71.5078125 95.3632812 70.6992188 95.3632812 69.75 95.3632812 69.1757812 95.9960938 69.1757812 97.0742188L69.1757812 110.199219C69.1757812 111.136719 69.5859375 111.617188 70.3710938 111.617188 71.15625 111.617188 71.578125 111.125 71.578125 110.199219L71.578125 100.367188 71.7070312 100.367188 75.2460938 108.488281C75.703125 109.507812 76.1015625 109.859375 76.78125 109.859375 77.4492188 109.859375 77.8359375 109.519531 78.3046875 108.488281L81.84375 100.367188 81.9726562 100.367188 81.9726562 110.199219C81.9726562 111.136719 82.3710938 111.617188 83.1445312 111.617188zM79.8203125 142.617188C80.6171875 142.617188 81.0390625 142.125 81.0390625 141.199219L81.0390625 128.074219C81.0390625 126.984375 80.4882812 126.363281 79.5390625 126.363281 78.7070312 126.363281 78.296875 126.703125 77.7695312 127.898438L73.5039062 137.835938 73.4101562 137.835938 69.1445312 127.910156C68.6054688 126.714844 68.1835938 126.363281 67.375 126.363281 66.4257812 126.363281 65.8515625 126.996094 65.8515625 128.074219L65.8515625 141.199219C65.8515625 142.136719 66.2617188 142.617188 67.046875 142.617188 67.8320312 142.617188 68.2539062 142.125 68.2539062 141.199219L68.2539062 131.367188 68.3828125 131.367188 71.921875 139.488281C72.3789062 140.507812 72.7773438 140.859375 73.4570312 140.859375 74.125 140.859375 74.5117188 140.519531 74.9804688 139.488281L78.5195312 131.367188 78.6484375 131.367188 78.6484375 141.199219C78.6484375 142.136719 79.046875 142.617188 79.8203125 142.617188zM95.9804688 142.617188C96.8125 142.617188 97.3046875 142.078125 97.3046875 141.164062L97.3046875 127.839844C97.3046875 126.925781 96.8125 126.386719 95.9804688 126.386719 95.1367188 126.386719 94.6445312 126.925781 94.6445312 127.839844L94.6445312 133.160156 87.3203125 133.160156 87.3203125 127.839844C87.3203125 126.925781 86.828125 126.386719 85.9960938 126.386719 85.1523438 126.386719 84.6601562 126.925781 84.6601562 127.839844L84.6601562 141.164062C84.6601562 142.078125 85.1523438 142.617188 85.9960938 142.617188 86.828125 142.617188 87.3203125 142.078125 87.3203125 141.164062L87.3203125 135.410156 94.6445312 135.410156 94.6445312 141.164062C94.6445312 142.078125 95.1367188 142.617188 95.9804688 142.617188zM102.226562 142.617188C103.058594 142.617188 103.550781 142.078125 103.550781 141.164062L103.550781 136.359375 106.902344 136.359375 109.445312 141.375C109.890625 142.253906 110.265625 142.558594 110.957031 142.558594 111.695312 142.558594 112.257812 142.054688 112.257812 141.339844 112.257812 141.046875 112.175781 140.683594 112.023438 140.414062L109.539062 135.75C111.332031 135.046875 112.410156 133.394531 112.410156 131.34375 112.410156 128.367188 110.359375 126.503906 107.066406 126.503906L103.070312 126.503906C101.546875 126.503906 100.890625 127.148438 100.890625 128.636719L100.890625 141.164062C100.890625 142.078125 101.382812 142.617188 102.226562 142.617188zM106.65625 134.261719L103.550781 134.261719 103.550781 128.742188 106.714844 128.742188C108.613281 128.742188 109.738281 129.761719 109.738281 131.53125 109.738281 133.300781 108.636719 134.261719 106.65625 134.261719zM25.0878906 81.684082C26.1289062 81.684082 26.9604492 81.3666992 27.5571289 80.7700195 27.9887695 80.3383789 28.2744141 79.7734375 28.2744141 79.3862305 28.2744141 79.0878906 28.0966797 78.8911133 27.7792969 78.8911133 27.5444336 78.8911133 27.4111328 79.0117188 27.2333984 79.3291016 26.7573242 80.2558594 26.059082 80.6875 25.1323242 80.6875 23.640625 80.6875 22.809082 79.671875 22.809082 77.8500977L22.809082 76.4853516C22.809082 74.6826172 23.640625 73.6542969 25.1323242 73.6542969 26.0463867 73.6542969 26.7001953 74.0922852 27.2080078 75.0380859 27.3857422 75.3745117 27.5444336 75.4760742 27.7919922 75.4760742 28.0839844 75.4760742 28.2744141 75.2919922 28.2744141 74.980957 28.2744141 74.612793 28.0014648 74.0541992 27.5761719 73.6098633 26.9667969 72.987793 26.1416016 72.6513672 25.0878906 72.6513672 22.9423828 72.6513672 21.6982422 74.0732422 21.6982422 76.4790039L21.6982422 77.8564453C21.6982422 80.2875977 22.9360352 81.684082 25.0878906 81.684082zM35.6757812 81.5825195C35.9995117 81.5825195 36.2089844 81.3984375 36.2089844 81.1000977 36.2089844 80.9794922 36.1772461 80.8461914 36.1264648 80.706543L33.5175781 73.4130859C33.3588867 72.96875 33.1367188 72.765625 32.7304688 72.765625 32.3242188 72.765625 32.1020508 72.96875 31.9433594 73.4130859L29.3344727 80.706543C29.2836914 80.8588867 29.2519531 80.9794922 29.2519531 81.1064453 29.2519531 81.3984375 29.4614258 81.5825195 29.7788086 81.5825195 30.0834961 81.5825195 30.2548828 81.4428711 30.3754883 81.0620117L31.1054688 78.8974609 34.3491211 78.8974609 35.0791016 81.0620117C35.199707 81.4365234 35.3710938 81.5825195 35.6757812 81.5825195zM34.0507812 78.0024414L31.4038086 78.0024414 32.7050781 74.1430664 32.7495117 74.1430664 34.0507812 78.0024414zM42.1757812 81.5C42.5249023 81.5 42.7470703 81.3095703 42.7470703 81.0048828 42.7470703 80.7001953 42.5249023 80.503418 42.1757812 80.503418L38.690918 80.503418 38.690918 73.3813477C38.690918 73.0068359 38.4750977 72.7719727 38.1323242 72.7719727 37.7895508 72.7719727 37.5800781 73.0068359 37.5800781 73.3813477L37.5800781 80.5605469C37.5800781 81.2333984 37.8720703 81.5 38.6020508 81.5L42.1757812 81.5zM9.96337891 113.978516C14.7143555 113.978516 17.9272461 110.782715 17.9272461 106.083008 17.9272461 101.622559 14.8852539 98.4951172 10.5444336 98.4951172 7.87841797 98.4951172 5.43457031 99.9648438 4.6484375 102.049805L4.51171875 102.049805C4.56298828 95.6582031 6.57958984 92.3085938 10.390625 92.3085938 11.9116211 92.3085938 13.1933594 92.8554688 14.4238281 94.0688477 15.0390625 94.6669922 15.3979492 94.8549805 15.8764648 94.8549805 16.6113281 94.8549805 17.1411133 94.3081055 17.1411133 93.5732422 17.1411133 92.7871094 16.4575195 91.847168 15.3295898 91.1123047 14.0307617 90.2236328 12.2705078 89.7280273 10.4418945 89.7280273 4.76806641 89.7280273 1.60644531 94.2910156 1.60644531 102.51123 1.60644531 106.048828 2.1875 108.697754 3.36669922 110.577637 4.76806641 112.782227 7.07519531 113.978516 9.96337891 113.978516zM10.0830078 111.415039C7.05810547 111.415039 4.93896484 109.244629 4.93896484 106.185547 4.93896484 103.160645 7.00683594 101.041504 9.96337891 101.041504 13.0053711 101.041504 14.987793 103.092285 14.987793 106.202637 14.987793 109.347168 13.0224609 111.415039 10.0830078 111.415039zM35.1025391 113.5C36.0424805 113.5 36.5893555 113.004395 36.5893555 112.201172 36.5893555 111.380859 36.0083008 110.885254 35.1025391 110.885254L25.6176758 110.885254 25.6176758 110.680176 31.940918 103.451172C35.0170898 99.9477539 35.8886719 98.3242188 35.8886719 96.1025391 35.8886719 92.3427734 32.9321289 89.6767578 28.7280273 89.6767578 24.2163086 89.6767578 21.3964844 92.71875 21.3964844 95.6240234 21.3964844 96.546875 21.9433594 97.1791992 22.7807617 97.1791992 23.4814453 97.1791992 23.9599609 96.7177734 24.1992188 95.8120117 24.7119141 93.590332 26.3354492 92.2744141 28.5400391 92.2744141 31.1376953 92.2744141 32.8637695 93.8808594 32.8637695 96.2905273 32.8637695 97.8969727 32.1289062 99.3325195 30.1977539 101.537109L23.0883789 109.671875C22.0800781 110.816895 21.7895508 111.29541 21.7895508 111.910645 21.7895508 112.901855 22.5756836 113.5 23.8232422 113.5L35.1025391 113.5z"/>
          <path fill="#FF9400" d="M5.89599609,143.773438 C6.61376953,143.773438 7.02392578,143.363281 7.34863281,142.679688 L16.0644531,123.86377 C16.4404297,123.060547 16.6796875,122.274414 16.6796875,121.795898 C16.6796875,120.787598 15.9448242,120.172363 15.0561523,120.172363 L2.88818359,120.172363 C1.82861328,120.172363 1.31591797,120.719238 1.31591797,121.488281 C1.31591797,122.240234 1.82861328,122.787109 2.88818359,122.787109 L13.4838867,122.787109 L13.4838867,122.958008 L4.85351562,141.36377 C4.66552734,141.739746 4.54589844,142.064453 4.54589844,142.44043 C4.54589844,143.243652 5.1953125,143.773438 5.89599609,143.773438 Z M28.3178711,143.995605 C33.0859375,143.995605 36.4868164,140.645996 36.4868164,135.929199 C36.4868164,131.50293 33.4277344,128.392578 29.0869141,128.392578 C27.121582,128.392578 25.1220703,129.212891 24.3530273,130.35791 L24.1821289,130.35791 L24.831543,122.75293 L34.0429688,122.75293 C35.0512695,122.75293 35.6152344,122.291504 35.6152344,121.471191 C35.6152344,120.633789 35.0341797,120.138184 34.0429688,120.138184 L24.4555664,120.138184 C22.9858398,120.138184 22.2509766,120.736328 22.1484375,122.000977 L21.3964844,131.571289 C21.3110352,132.887207 21.8066406,133.65625 22.7807617,133.65625 C23.3276367,133.65625 23.6694336,133.451172 24.9169922,132.289062 C25.9082031,131.400391 27.0874023,130.956055 28.4204102,130.956055 C31.3769531,130.956055 33.4790039,133.075195 33.4790039,136.083008 C33.4790039,139.227539 31.3085938,141.415039 28.1982422,141.415039 C26.1474609,141.415039 24.5751953,140.423828 23.6352539,138.595215 C23.190918,137.723633 22.8149414,137.416016 22.2338867,137.416016 C21.4819336,137.416016 20.9863281,137.99707 20.9863281,138.851562 C20.9863281,141.244141 23.8061523,143.995605 28.3178711,143.995605 Z M43.7158203,130.802246 C46.6723633,130.802246 48.1762695,128.426758 48.1762695,125.384766 L48.1762695,124.684082 C48.1762695,121.454102 46.6210938,119.283691 43.7841797,119.283691 C40.9472656,119.283691 39.3066406,121.471191 39.3066406,124.684082 L39.3066406,125.384766 C39.3066406,128.597656 40.8789062,130.802246 43.7158203,130.802246 Z M43.3911133,143.431641 L51.6113281,132.647949 L59.7460938,122.000977 C59.9169922,121.761719 60.0366211,121.488281 60.0366211,121.197754 C60.0366211,120.56543 59.5751953,120.086914 58.9428711,120.069824 C58.5327148,120.035645 58.190918,120.189453 57.9516602,120.54834 L49.8168945,131.212402 L41.5966797,141.944824 C41.4086914,142.201172 41.3061523,142.542969 41.3061523,142.850586 C41.3061523,143.380371 41.8188477,143.875977 42.3828125,143.893066 C42.7758789,143.927246 43.1518555,143.773438 43.3911133,143.431641 Z M43.75,128.614746 C42.7246094,128.614746 42.0410156,127.538086 42.0410156,125.367676 L42.0410156,124.701172 C42.0410156,122.530762 42.7246094,121.471191 43.75,121.471191 C44.7583008,121.471191 45.4589844,122.530762 45.4589844,124.701172 L45.4589844,125.367676 C45.4589844,127.538086 44.7583008,128.614746 43.75,128.614746 Z M57.5585938,143.722168 C60.5151367,143.722168 62.0361328,141.32959 62.0361328,138.304688 L62.0361328,137.586914 C62.0361328,134.356934 60.480957,132.186523 57.644043,132.186523 C54.8071289,132.186523 53.1665039,134.391113 53.1665039,137.586914 L53.1665039,138.304688 C53.1665039,141.500488 54.7387695,143.722168 57.5585938,143.722168 Z M57.6098633,141.517578 C56.5844727,141.517578 55.9008789,140.458008 55.9008789,138.270508 L55.9008789,137.621094 C55.9008789,135.433594 56.5844727,134.391113 57.6098633,134.391113 C58.6181641,134.391113 59.3017578,135.433594 59.3017578,137.621094 L59.3017578,138.270508 C59.3017578,140.458008 58.6181641,141.517578 57.6098633,141.517578 Z"/>
          <path fill="#FFF" d="M64.5429688 47.0664062C70.5976562 47.0664062 74.6796875 43.2578125 74.6796875 37.5742188 74.6796875 32.4179688 71.1835938 28.9023438 66.1054688 28.9023438 63.8203125 28.9023438 61.6523438 29.7617188 60.734375 31.0117188L60.4609375 31.0117188 61.0078125 24.1171875 71.1054688 24.1171875C72.6875 24.1171875 73.5859375 23.3554688 73.5859375 21.9882812 73.5859375 20.6210938 72.6679688 19.8203125 71.1054688 19.8203125L60.0507812 19.8203125C57.9023438 19.8203125 56.7890625 20.71875 56.6523438 22.5742188L55.9296875 32.6132812C55.8125 34.4101562 56.90625 35.5625 58.5078125 35.5625 59.2304688 35.5625 59.796875 35.328125 60.9492188 34.3515625 62.1015625 33.453125 63.4296875 32.9648438 64.7382812 32.9648438 67.5507812 32.9648438 69.5625 34.9179688 69.5625 37.7695312 69.5625 40.71875 67.4726562 42.7695312 64.5234375 42.7695312 62.53125 42.7695312 60.96875 41.8515625 59.7382812 40.015625 59.09375 39.0976562 58.46875 38.7460938 57.6484375 38.7460938 56.3398438 38.7460938 55.5 39.78125 55.5 41.0898438 55.5 44.078125 59.25 47.0664062 64.5429688 47.0664062zM87.2578125 46.734375C88.9179688 46.734375 89.875 45.6992188 89.875 43.9023438L89.875 22.9453125C89.875 20.9726562 88.6054688 19.6640625 86.7109375 19.6640625 85.6171875 19.6640625 84.5039062 20.0546875 83.0976562 21.0117188L79.6015625 23.453125C78.6054688 24.1171875 78.0976562 24.8398438 78.0976562 25.6601562 78.0976562 26.734375 78.8984375 27.5351562 79.9726562 27.5351562 80.5390625 27.5351562 81.0273438 27.359375 81.8671875 26.8125L84.5429688 24.9179688 84.6601562 24.9179688 84.6601562 43.9023438C84.6601562 45.6796875 85.6171875 46.734375 87.2578125 46.734375zM49.46875 30.6679688C51.1289062 30.6679688 52.4960938 29.3007812 52.4960938 27.640625 52.4960938 25.9804688 51.1289062 24.6132812 49.46875 24.6132812 47.8085938 24.6132812 46.4414062 25.9804688 46.4414062 27.640625 46.4414062 29.3007812 47.8085938 30.6679688 49.46875 30.6679688zM49.46875 43.9296875C51.1289062 43.9296875 52.4960938 42.5625 52.4960938 40.8828125 52.4960938 39.2226562 51.1289062 37.8554688 49.46875 37.8554688 47.8085938 37.8554688 46.4414062 39.2226562 46.4414062 40.8828125 46.4414062 42.5625 47.8085938 43.9296875 49.46875 43.9296875z"/>
          <path fill="#FF0C18" d="M99.0000278,109 C99.1903622,109 99.4622579,108.877995 99.6616505,108.764702 C104.76439,105.627451 108,101.976034 108,98.2636151 C108,95.17866 105.797623,93 102.951684,93 C101.184325,93 99.8247916,93.941187 99.0000278,95.3790872 C98.1933806,93.9498965 96.8157302,93 95.0483529,93 C92.2024326,93 90,95.17866 90,98.2636151 C90,101.976034 93.2356658,105.627451 98.3474449,108.764702 C98.5377793,108.877995 98.8096935,109 99.0000278,109 Z"/>
        </g>
      </g>
      <path fill="#000" d="M224.106,27.76 C236.316,42.88 235.766,64.34 236.116,90.04 C236.126,90.49 236.126,193.85 236.116,194.3 C235.766,220 236.316,241.46 224.106,256.58 C210.939,272.9051 193.214535,274.950143 160.065256,274.989411 L86.126,274.99 C52.326,274.99 34.376,273.07 21.066,256.58 C8.866,241.46 9.416,220 9.056,194.3 L9.056,90.04 L9.056,90.04 C9.416,64.34 8.866,42.88 21.066,27.76 C34.2429,11.4349 51.967464,9.389857 85.1167438,9.35058865 L159.056,9.35 C192.856,9.35 210.806,11.27 224.106,27.76 Z M183.159897,30.351312 L61.3624325,30.351312 C44.1997464,30.351312 30.255064,44.2910713 30.255064,61.4522449 L30.255064,223.251967 C30.255064,240.422992 44.1997464,254.3529 61.3624325,254.3529 L183.159897,254.3529 C200.322584,254.3529 214.257334,240.422992 214.257334,223.251967 L214.257334,61.4522449 C214.257334,44.2910713 200.322584,30.351312 183.159897,30.351312 Z"/>
      <path stroke="#222" stroke-width=".87" d="M9.056,194.3 C9.056,193.85 9.056,90.49 9.056,90.04 C9.416,64.34 8.866,42.88 21.066,27.76 C34.376,11.27 52.326,9.35 86.126,9.35 L159.056,9.35 C192.856,9.35 210.806,11.27 224.106,27.76 C236.316,42.88 235.766,64.34 236.116,90.04 C236.126,90.49 236.126,193.85 236.116,194.3 C235.766,220 236.316,241.46 224.106,256.58 C210.806,273.07 192.856,274.99 159.056,274.99 L86.126,274.99 C52.326,274.99 34.376,273.07 21.066,256.58 C8.866,241.46 9.416,220 9.056,194.3 Z"/>
    </g>
    <path fill="#3B3B3B" d="M3.44,44.17 C3.44,54.27 3.29,63.63 2.52,72.17 C1.24,69.54 0.82,64.75 0.82,59.42 L0.82,14.27 C0.82,7.82 1.44,2.18 3.44,0.15 L3.44,44.17 Z" transform="translate(241.056 228.85)"/>
    <g transform="translate(156 42.5)">
      <g fill="#333" transform="translate(22)">
        <path d="M99,0.5 C104.849,0.502 159.78,1.282 165,12 C168.412,19.006 170.444,53.368 170.772,55.258 C174.214,75.119 179.031,83.124 197.262,93.195 L0.738,93.195 C18.969,83.124 23.786,75.119 27.228,55.258 C27.556,53.368 29.588,19.006 33,12 C38.22,1.282 93.151,0.502 99,0.5 Z"/>
        <path d="M99,346.5 C104.849,346.502 159.78,347.282 165,358 C168.412,365.006 170.444,399.368 170.772,401.258 C174.214,421.119 179.031,429.124 197.262,439.195 L0.738,439.195 C18.969,429.124 23.786,421.119 27.228,401.258 C27.556,399.368 29.588,365.006 33,358 C38.22,347.282 93.151,346.502 99,346.5 Z" transform="matrix(1 0 0 -1 0 785.695)"/>
      </g>
      <g transform="translate(237 142)">
        <rect width="7" height="46" y="1" fill="#111"/>
        <path fill="#3B3B3B" d="M17.25,37.62 C17.25,45.7 14.08,48.28 11.12,48.28 L6.43,48.28 C5.22,47.61 3.74,45.25 2.64,42.25 C2.64,41.36 2.64,7.13 2.64,6.24 C3.74,3.24 5.22,0.88 6.43,0.21 L11.12,0.21 C14.08,0.21 17.25,2.79 17.25,10.88 L17.25,37.62 Z"/>
      </g>
      <g transform="translate(0 77.5)">
        <path fill="#4A4A4A" d="M167.666,284.11 L77.336,284.11 C44.296,284.11 28.976,276.68 15.356,262.06 C1.726,247.46 0.5,224.46 0.5,195.52 L0.5,89.59 C0.5,60.65 1.726,37.66 15.356,23.05 C28.976,8.44 44.296,1 77.336,1 L167.666,1 C200.706,1 216.026,8.44 229.646,23.05 C239.096,33.18 242.576,47.33 243.836,64.71 L243.426,64.71 C241.176,65.95 238.046,72.97 238.046,79.07 L238.046,98.09 C238.046,104.19 241.176,111.21 243.426,112.45 L244.496,112.45 L244.496,195.52 C244.496,224.46 243.276,247.46 229.646,262.06 C216.026,276.68 200.706,284.11 167.666,284.11 Z"/>
        <g transform="translate(.056 .35)">
          <mask id="the-bell-showcase-f" fill="#fff">
            <use xlink:href="#the-bell-showcase-e"/>
          </mask>
          <path fill="#111" d="M245.1,151.14 C242.91,153.4 242.68,156.84 242.45,160.12 C242.34,161.73 242.3,163.35 242.29,164.97 C242.27,180.29 242.25,195.6 242.29,210.92 C242.32,215.03 242.32,219.39 243.89,222.85 L244.14,223.4 L243.3,223.8 L243.04,223.25 C241.36,219.52 241.39,215.15 241.36,210.92 C241.32,195.5 241.29,180.09 241.36,164.67 C241.39,160.68 241.42,156.55 242.82,152.97 C243.18,152.04 244.06,150.88 244.06,150.88 L244.43,150.49 C244.66,150.71 244.88,150.93 245.1,151.14 Z" mask="url(#the-bell-showcase-f)"/>
        </g>
        <g transform="translate(.056 .35)">
          <mask id="the-bell-showcase-h" fill="#fff">
            <use xlink:href="#the-bell-showcase-g"/>
          </mask>
          <path fill="#111" d="M243.78,64.82 C243.78,64.82 243.54,64.79 243.34,64.94 C242.09,65.91 241.35,67.44 240.68,68.93 C239.31,71.97 238.5,75.26 238.46,78.58 C238.43,85.06 238.38,91.54 238.46,98.02 C238.55,102.73 239.75,107.75 242.84,111.06 C243.09,111.33 243.5,111.64 243.5,111.64 L244.44,111.64 L244.44,112.57 L243.29,112.56 C243.22,112.54 243.15,112.51 243.09,112.48 C243.02,112.44 242.96,112.4 242.89,112.35 C241.8,111.6 241.08,110.38 240.44,109.16 C238.63,105.75 237.6,101.9 237.53,98.03 C237.45,91.55 237.5,85.06 237.52,78.57 C237.58,73.88 238.88,69.05 241.61,65.41 C242.12,64.74 243.09,63.99 243.09,63.99 C243.31,63.86 243.78,63.89 243.78,63.89 C243.78,64.2 243.78,64.51 243.78,64.82 Z" mask="url(#the-bell-showcase-h)"/>
        </g>
        <path fill="#000" d="M9.056,194.3 C9.056,193.85 9.056,90.49 9.056,90.04 C9.416,64.34 8.866,42.88 21.066,27.76 C34.376,11.27 52.326,9.35 86.126,9.35 L159.056,9.35 C192.856,9.35 210.806,11.27 224.106,27.76 C236.316,42.88 235.766,64.34 236.116,90.04 C236.126,90.49 236.126,193.85 236.116,194.3 C235.766,220 236.316,241.46 224.106,256.58 C210.806,273.07 192.856,274.99 159.056,274.99 L86.126,274.99 C52.326,274.99 34.376,273.07 21.066,256.58 C8.866,241.46 9.416,220 9.056,194.3 Z"/>
        <path fill="#000" d="M214.257334,61.4522449 C214.257334,44.2910713 200.322584,30.351312 183.159897,30.351312 L61.3624325,30.351312 C44.1997464,30.351312 30.255064,44.2910713 30.255064,61.4522449 L30.255064,223.251967 C30.255064,240.422992 44.1997464,254.3529 61.3624325,254.3529 L183.159897,254.3529 C200.322584,254.3529 214.257334,240.422992 214.257334,223.251967 L214.257334,61.4522449 Z"/>
        <g transform="translate(30.5 30.5)">
          <g transform="translate(0 178)">
            <path fill="#FFF" d="M11.5374834,-1.37296228e-15 L172.462517,4.66128138e-16 C176.474351,-2.70833872e-16 177.929139,0.41771525 179.395806,1.20209717 C180.862472,1.98647908 182.013521,3.13752767 182.797903,4.60419433 C183.582285,6.070861 184,7.52564907 184,11.5374834 L184,32.4625166 C184,36.4743509 183.582285,37.929139 182.797903,39.3958057 C182.013521,40.8624723 180.862472,42.0135209 179.395806,42.7979028 C177.929139,43.5822847 176.474351,44 172.462517,44 L11.5374834,44 C7.52564907,44 6.070861,43.5822847 4.60419433,42.7979028 C3.13752767,42.0135209 1.98647908,40.8624723 1.20209717,39.3958057 C0.41771525,37.929139 1.80555915e-16,36.4743509 -3.10752092e-16,32.4625166 L3.10752092e-16,11.5374834 C-1.80555915e-16,7.52564907 0.41771525,6.070861 1.20209717,4.60419433 C1.98647908,3.13752767 3.13752767,1.98647908 4.60419433,1.20209717 C6.070861,0.41771525 7.52564907,7.97730622e-16 11.5374834,-1.37296228e-15 Z" opacity=".2"/>
            <path fill="#F7DC0A" fill-rule="nonzero" d="M64.0720215,28.2324219 C66.6867676,28.2324219 68.3220215,26.8876953 68.3220215,24.8291016 C68.3220215,23.1855469 67.3508301,22.2558594 65.3669434,21.7329102 L63.4328613,21.2265625 C62.3952637,20.9692383 61.8391113,20.4130859 61.8391113,19.6162109 C61.8391113,18.5039062 62.7937012,17.7319336 64.2214355,17.7319336 C65.5412598,17.7319336 66.4377441,18.3710938 66.6452637,19.3754883 L68.1809082,19.3754883 C68.0065918,17.640625 66.4875488,16.4038086 64.2463379,16.4038086 C61.9387207,16.4038086 60.2868652,17.7651367 60.2868652,19.6826172 C60.2868652,21.1933594 61.2663574,22.2392578 62.9680176,22.6708984 L64.9353027,23.1855469 C66.2053223,23.5092773 66.7780762,24.0405273 66.7780762,24.9453125 C66.7780762,26.140625 65.8068848,26.9042969 64.2297363,26.9042969 C62.7521973,26.9042969 61.7312012,26.2070312 61.5153809,25.1279297 L59.9714355,25.1279297 C60.1291504,26.9541016 61.6730957,28.2324219 64.0720215,28.2324219 Z M74.0910645,28.1411133 C76.2990723,28.1411133 77.3532715,26.7714844 77.486084,25.8417969 L75.9421387,25.8417969 C75.7927246,26.3813477 75.1037598,26.8710938 74.0827637,26.8710938 C72.630127,26.8710938 71.8498535,25.8168945 71.8498535,24.4638672 L71.8498535,24.0239258 L77.6022949,24.0239258 L77.6022949,22.9697266 C77.6022949,20.6206055 76.0915527,19.1264648 73.9748535,19.1264648 C71.8830566,19.1264648 70.3557129,20.5957031 70.3557129,22.9697266 L70.3557129,24.2978516 C70.3557129,26.6552734 71.7419434,28.1411133 74.0910645,28.1411133 Z M76.1081543,22.9365234 L71.8498535,22.9365234 L71.8498535,22.7954102 C71.8498535,21.3427734 72.704834,20.3881836 73.9831543,20.3881836 C75.2614746,20.3881836 76.1081543,21.3427734 76.1081543,22.7954102 L76.1081543,22.9365234 Z M83.0891113,28.074707 C83.4211426,28.074707 84.0354004,28.0332031 84.1599121,28 L84.1599121,26.7963867 C84.0187988,26.8129883 83.6867676,26.8378906 83.4709473,26.8378906 C82.4084473,26.8378906 82.0598145,26.5722656 82.0598145,25.5429688 L82.0598145,20.5126953 L84.0354004,20.5126953 L84.0354004,19.2924805 L82.0598145,19.2924805 L82.0598145,17.1010742 L80.5739746,17.1010742 L80.5739746,19.2924805 L79.229248,19.2924805 L79.229248,20.5126953 L80.5656738,20.5126953 L80.5656738,25.5512695 C80.5656738,27.277832 81.013916,28.074707 83.0891113,28.074707 Z M89.4890137,28.074707 C89.8210449,28.074707 90.4353027,28.0332031 90.5598145,28 L90.5598145,26.7963867 C90.4187012,26.8129883 90.0866699,26.8378906 89.8708496,26.8378906 C88.8083496,26.8378906 88.4597168,26.5722656 88.4597168,25.5429688 L88.4597168,20.5126953 L90.4353027,20.5126953 L90.4353027,19.2924805 L88.4597168,19.2924805 L88.4597168,17.1010742 L86.973877,17.1010742 L86.973877,19.2924805 L85.6291504,19.2924805 L85.6291504,20.5126953 L86.9655762,20.5126953 L86.9655762,25.5512695 C86.9655762,27.277832 87.4138184,28.074707 89.4890137,28.074707 Z M93.8303223,17.6074219 C94.4611816,17.6074219 94.9177246,17.1757812 94.9177246,16.578125 C94.9177246,15.972168 94.4611816,15.5405273 93.8303223,15.5405273 C93.232666,15.5405273 92.776123,15.972168 92.776123,16.578125 C92.776123,17.1757812 93.232666,17.6074219 93.8303223,17.6074219 Z M94.5939941,28 L94.5939941,19.2675781 L93.0915527,19.2675781 L93.0915527,28 L94.5939941,28 Z M99.2590332,28 L99.2590332,23.1357422 C99.2590332,21.625 100.006104,20.4379883 101.541748,20.4379883 C102.72876,20.4379883 103.434326,21.1435547 103.434326,22.5131836 L103.434326,28 L104.936768,28 L104.936768,22.0400391 C104.936768,20.0810547 103.733154,19.1264648 101.973389,19.1264648 C100.147217,19.1264648 99.5412598,20.1640625 99.3254395,20.8530273 L99.2424316,20.8530273 L99.2424316,19.2675781 L97.7565918,19.2675781 L97.7565918,28 L99.2590332,28 Z M110.954834,31.1958008 C113.187744,31.1958008 114.798096,30.1416016 114.798096,27.734375 L114.798096,19.2675781 L113.362061,19.2675781 L113.362061,20.5874023 L113.287354,20.5874023 C112.996826,19.8735352 112.067139,19.1347656 110.755615,19.1347656 C108.821533,19.1347656 107.319092,20.5209961 107.319092,22.8203125 L107.319092,24.1733398 C107.319092,26.4726562 108.829834,27.8422852 110.763916,27.8422852 C111.97583,27.8422852 112.872314,27.2280273 113.212646,26.4726562 L113.295654,26.4726562 L113.295654,27.7426758 C113.295654,29.1123047 112.540283,29.934082 111.004639,29.934082 C109.859131,29.934082 109.153564,29.4194336 109.037354,28.8051758 L107.51001,28.8051758 C107.626221,30.0751953 108.721924,31.1958008 110.954834,31.1958008 Z M111.145752,26.5805664 C109.792725,26.5805664 108.829834,25.5097656 108.829834,23.9160156 L108.829834,23.0942383 C108.829834,21.5004883 109.709717,20.4213867 111.12915,20.4213867 C112.498779,20.4213867 113.295654,21.5834961 113.295654,22.8618164 L113.295654,24.1816406 C113.295654,25.4267578 112.540283,26.5805664 111.145752,26.5805664 Z M120.309814,28.1411133 C122.401611,28.1411133 123.796143,27.1533203 123.796143,25.418457 C123.796143,23.7167969 122.443115,23.2602539 120.807861,22.9780273 C119.820068,22.7954102 118.641357,22.6625977 118.641357,21.625 C118.641357,20.7783203 119.371826,20.3051758 120.392822,20.3051758 C121.563232,20.3051758 122.127686,20.9609375 122.17749,21.5668945 L123.572021,21.5668945 C123.572021,20.0976562 122.326904,19.1264648 120.442627,19.1264648 C118.740967,19.1264648 117.188721,19.9233398 117.188721,21.7744141 C117.188721,23.4926758 118.508545,23.8662109 120.135498,24.1982422 C121.347412,24.4389648 122.318604,24.621582 122.318604,25.5927734 C122.318604,26.3481445 121.75415,26.9707031 120.376221,26.9707031 C119.156006,26.9707031 118.616455,26.480957 118.500244,25.7089844 L117.031006,25.7089844 C117.031006,27.2695312 118.367432,28.1411133 120.309814,28.1411133 Z"/>
          </g>
          <rect width="184" height="26" fill="#000"/>
          <path fill="#FFF" fill-rule="nonzero" d="M135.652344,22 L135.652344,10.6694336 L133.792969,10.6694336 L131.103516,12.628418 L131.103516,14.4296875 L133.70166,12.5620117 L133.792969,12.5620117 L133.792969,22 L135.652344,22 Z M143.031738,22.2241211 C145.663086,22.2241211 147.223633,19.9829102 147.223633,16.5712891 L147.223633,16.1064453 C147.223633,12.6699219 145.696289,10.4453125 143.064941,10.4453125 C140.425293,10.4453125 138.864746,12.6948242 138.864746,16.1064453 L138.864746,16.5712891 C138.864746,19.9995117 140.408691,22.2241211 143.031738,22.2241211 Z M143.04834,20.6552734 C141.628906,20.6552734 140.740723,19.1196289 140.740723,16.5546875 L140.740723,16.1147461 C140.740723,13.5581055 141.620605,12.0141602 143.04834,12.0141602 C144.467773,12.0141602 145.347656,13.5664062 145.347656,16.1147461 L145.347656,16.5546875 C145.347656,19.1113281 144.467773,20.6552734 143.04834,20.6552734 Z M150.942383,14.9194336 C151.697754,14.9194336 152.278809,14.3964844 152.278809,13.6411133 C152.278809,12.8608398 151.697754,12.3295898 150.942383,12.3295898 C150.211914,12.3295898 149.630859,12.8608398 149.630859,13.6411133 C149.630859,14.3964844 150.220215,14.9194336 150.942383,14.9194336 Z M150.942383,20.5390625 C151.697754,20.5390625 152.278809,20.0161133 152.278809,19.2524414 C152.278809,18.4804688 151.697754,17.940918 150.942383,17.940918 C150.211914,17.940918 149.630859,18.472168 149.630859,19.2524414 C149.630859,20.0161133 150.220215,20.5390625 150.942383,20.5390625 Z M158.853027,22.2241211 C161.484375,22.2241211 163.044922,19.9829102 163.044922,16.5712891 L163.044922,16.1064453 C163.044922,12.6699219 161.517578,10.4453125 158.88623,10.4453125 C156.246582,10.4453125 154.686035,12.6948242 154.686035,16.1064453 L154.686035,16.5712891 C154.686035,19.9995117 156.22998,22.2241211 158.853027,22.2241211 Z M158.869629,20.6552734 C157.450195,20.6552734 156.562012,19.1196289 156.562012,16.5546875 L156.562012,16.1147461 C156.562012,13.5581055 157.441895,12.0141602 158.869629,12.0141602 C160.289062,12.0141602 161.168945,13.5664062 161.168945,16.1147461 L161.168945,16.5546875 C161.168945,19.1113281 160.289062,20.6552734 158.869629,20.6552734 Z M168.996582,22.2075195 C171.976562,22.2075195 173.420898,20.1323242 173.420898,16.1147461 C173.420898,11.6572266 171.354004,10.4287109 169.212402,10.4287109 C166.904785,10.4287109 165.14502,11.8730469 165.14502,14.296875 C165.14502,16.7124023 166.805176,18.0737305 168.780762,18.0737305 C170.283203,18.0737305 171.187988,17.2851562 171.52002,16.3969727 L171.62793,16.3969727 C171.694336,18.7626953 170.955566,20.6801758 169.029785,20.6801758 C168.025391,20.6801758 167.402832,20.1655273 167.261719,19.6591797 L165.427246,19.6591797 C165.560059,20.9458008 166.73877,22.2075195 168.996582,22.2075195 Z M169.162598,16.5795898 C167.983887,16.5795898 166.979492,15.815918 166.979492,14.296875 C166.979492,12.8193359 167.942383,11.9477539 169.129395,11.9477539 C170.391113,11.9477539 171.337402,12.8110352 171.337402,14.3217773 C171.337402,15.8325195 170.308105,16.5795898 169.162598,16.5795898 Z"/>
          <path fill="gray" fill-rule="nonzero" d="M14.5698242,23 L14.5698242,13.2797852 L17.8901367,13.2797852 L17.8901367,11.6694336 L9.37353516,11.6694336 L9.37353516,13.2797852 L12.6855469,13.2797852 L12.6855469,23 L14.5698242,23 Z M21.5092773,23 L21.5092773,18.1274414 C21.5092773,16.699707 22.2563477,15.6621094 23.5761719,15.6621094 C24.6220703,15.6621094 25.3608398,16.284668 25.3608398,17.6210938 L25.3608398,23 L27.1953125,23 L27.1953125,17.081543 C27.1953125,15.0810547 25.9750977,14.0932617 24.2651367,14.0932617 C22.5053711,14.0932617 21.7915039,15.1806641 21.6005859,15.8032227 L21.5092773,15.8032227 L21.5092773,11.0717773 L19.6748047,11.0717773 L19.6748047,23 L21.5092773,23 Z M33.3793945,23.1494141 C35.7451172,23.1494141 36.815918,21.6801758 36.9238281,20.6674805 L35.1225586,20.6674805 C34.9980469,21.215332 34.3339844,21.671875 33.3710938,21.671875 C32.0761719,21.671875 31.3291016,20.7421875 31.3291016,19.4804688 L31.3291016,19.0488281 L37.0234375,19.0488281 L37.0234375,18.0195312 C37.0234375,15.6040039 35.4711914,14.0766602 33.2714844,14.0766602 C31.1298828,14.0766602 29.5029297,15.5292969 29.5029297,18.0195312 L29.5029297,19.206543 C29.5029297,21.6801758 30.9887695,23.1494141 33.3793945,23.1494141 Z M35.222168,17.8452148 L31.3291016,17.8452148 L31.3291016,17.7290039 C31.3291016,16.4091797 32.109375,15.5292969 33.2797852,15.5292969 C34.4501953,15.5292969 35.222168,16.4091797 35.222168,17.7290039 L35.222168,17.8452148 Z M47.6982422,23 C50.0556641,23 51.6411133,21.8212891 51.6411133,19.8125 C51.6411133,18.1689453 50.5869141,17.1977539 49.1508789,17.0317383 L49.1508789,16.9487305 C50.2880859,16.6333008 51.0351562,15.7866211 51.0351562,14.4584961 C51.0351562,12.7319336 49.7568359,11.6694336 47.78125,11.6694336 L43.265625,11.6694336 L43.265625,23 L47.6982422,23 Z M46.7353516,16.4589844 L45.1416016,16.4589844 L45.1416016,13.1635742 L47.3828125,13.1635742 C48.5117188,13.1635742 49.1674805,13.7695312 49.1674805,14.7739258 C49.1674805,15.8945312 48.4204102,16.4589844 46.7353516,16.4589844 Z M46.9428711,21.5058594 L45.1416016,21.5058594 L45.1416016,17.878418 L47.5405273,17.878418 C48.9433594,17.878418 49.7236328,18.5756836 49.7236328,19.7460938 C49.7236328,20.9414062 48.918457,21.5058594 46.9428711,21.5058594 Z M57.3686523,23.1494141 C59.734375,23.1494141 60.8051758,21.6801758 60.9130859,20.6674805 L59.1118164,20.6674805 C58.9873047,21.215332 58.3232422,21.671875 57.3603516,21.671875 C56.0654297,21.671875 55.3183594,20.7421875 55.3183594,19.4804688 L55.3183594,19.0488281 L61.0126953,19.0488281 L61.0126953,18.0195312 C61.0126953,15.6040039 59.4604492,14.0766602 57.2607422,14.0766602 C55.1191406,14.0766602 53.4921875,15.5292969 53.4921875,18.0195312 L53.4921875,19.206543 C53.4921875,21.6801758 54.9780273,23.1494141 57.3686523,23.1494141 Z M59.2114258,17.8452148 L55.3183594,17.8452148 L55.3183594,17.7290039 C55.3183594,16.4091797 56.0986328,15.5292969 57.269043,15.5292969 C58.4394531,15.5292969 59.2114258,16.4091797 59.2114258,17.7290039 L59.2114258,17.8452148 Z M65.237793,23 L65.237793,11.0717773 L63.3950195,11.0717773 L63.3950195,23 L65.237793,23 Z M69.9775391,23 L69.9775391,11.0717773 L68.1347656,11.0717773 L68.1347656,23 L69.9775391,23 Z"/>
          <path fill="#F7DC0A" d="M21.7930242,46 L162.206976,46 C169.784885,46 172.532818,46.7890177 175.303188,48.270628 C178.073559,49.7522383 180.247762,51.9264411 181.729372,54.6968115 C183.210982,57.4671819 184,60.2151149 184,67.7930242 L184,137.206976 C184,144.784885 183.210982,147.532818 181.729372,150.303188 C180.247762,153.073559 178.073559,155.247762 175.303188,156.729372 C172.532818,158.210982 169.784885,159 162.206976,159 L21.7930242,159 C14.2151149,159 11.4671819,158.210982 8.69681152,156.729372 C5.92644115,155.247762 3.75223827,153.073559 2.27062798,150.303188 C0.789017695,147.532818 3.41050061e-16,144.784885 -5.86976174e-16,137.206976 L5.86976174e-16,67.7930242 C-3.41050061e-16,60.2151149 0.789017695,57.4671819 2.27062798,54.6968115 C3.75223827,51.9264411 5.92644115,49.7522383 8.69681152,48.270628 C11.4671819,46.7890177 14.2151149,46 21.7930242,46 Z"/>
          <path fill="#000" fill-rule="nonzero" d="M48.472168,129.705078 C50.7792969,129.705078 52.222168,128.518555 52.222168,126.702148 C52.222168,125.251953 51.3652344,124.431641 49.6147461,123.970215 L47.9082031,123.523438 C46.9926758,123.296387 46.5019531,122.805664 46.5019531,122.102539 C46.5019531,121.121094 47.3442383,120.439941 48.6040039,120.439941 C49.7685547,120.439941 50.5595703,121.003906 50.7426758,121.890137 L52.0976562,121.890137 C51.9438477,120.359375 50.6035156,119.268066 48.6259766,119.268066 C46.5898438,119.268066 45.1323242,120.469238 45.1323242,122.161133 C45.1323242,123.494141 45.996582,124.416992 47.4980469,124.797852 L49.2338867,125.251953 C50.3544922,125.537598 50.8598633,126.006348 50.8598633,126.804688 C50.8598633,127.859375 50.0029297,128.533203 48.6113281,128.533203 C47.3076172,128.533203 46.4067383,127.917969 46.2163086,126.96582 L44.8540039,126.96582 C44.9931641,128.577148 46.3554688,129.705078 48.472168,129.705078 Z M57.0415039,129.565918 C57.3344727,129.565918 57.8764648,129.529297 57.9863281,129.5 L57.9863281,128.437988 C57.8618164,128.452637 57.5688477,128.474609 57.378418,128.474609 C56.440918,128.474609 56.1333008,128.240234 56.1333008,127.332031 L56.1333008,122.893555 L57.8764648,122.893555 L57.8764648,121.816895 L56.1333008,121.816895 L56.1333008,119.883301 L54.8222656,119.883301 L54.8222656,121.816895 L53.6357422,121.816895 L53.6357422,122.893555 L54.8149414,122.893555 L54.8149414,127.339355 C54.8149414,128.862793 55.2104492,129.565918 57.0415039,129.565918 Z M62.1171875,129.624512 C63.2524414,129.624512 63.9482422,129.097168 64.3217773,128.474609 L64.3803711,128.474609 L64.3803711,129.5 L65.6547852,129.5 L65.6547852,124.241211 C65.6547852,122.351562 64.34375,121.67041 62.7543945,121.67041 C61.0332031,121.67041 60.0078125,122.402832 59.890625,123.706543 L61.1723633,123.706543 C61.3261719,123.171875 61.7363281,122.791016 62.7104492,122.791016 C63.6992188,122.791016 64.3217773,123.245117 64.3217773,124.233887 L64.3217773,124.995605 L62.3076172,124.995605 C60.5351562,124.995605 59.5976562,125.911133 59.5976562,127.258789 C59.5976562,128.687012 60.6230469,129.624512 62.1171875,129.624512 Z M62.4833984,128.51123 C61.6850586,128.51123 60.9526367,128.108398 60.9526367,127.214844 C60.9526367,126.526367 61.3774414,126.006348 62.4174805,126.006348 L64.3217773,126.006348 L64.3217773,126.863281 C64.3217773,127.808105 63.5234375,128.51123 62.4833984,128.51123 Z M69.668457,129.5 L69.668457,124.739258 C69.668457,123.691895 70.3422852,122.878906 71.6972656,122.878906 C71.9316406,122.878906 72.1953125,122.893555 72.3198242,122.922852 L72.3198242,121.714355 C72.1660156,121.692383 72.0048828,121.677734 71.8364258,121.677734 C70.4741211,121.677734 69.9174805,122.476074 69.7270508,122.981445 L69.6611328,122.981445 L69.6611328,121.794922 L68.3354492,121.794922 L68.3354492,129.5 L69.668457,129.5 Z M76.7436523,129.565918 C77.0366211,129.565918 77.5786133,129.529297 77.6884766,129.5 L77.6884766,128.437988 C77.5639648,128.452637 77.2709961,128.474609 77.0805664,128.474609 C76.1430664,128.474609 75.8354492,128.240234 75.8354492,127.332031 L75.8354492,122.893555 L77.5786133,122.893555 L77.5786133,121.816895 L75.8354492,121.816895 L75.8354492,119.883301 L74.5244141,119.883301 L74.5244141,121.816895 L73.3378906,121.816895 L73.3378906,122.893555 L74.5170898,122.893555 L74.5170898,127.339355 C74.5170898,128.862793 74.9125977,129.565918 76.7436523,129.565918 Z M86.0673828,129.5 L88.1474609,121.677734 L88.2060547,121.677734 L90.2861328,129.5 L91.4946289,129.5 L94.2338867,119.502441 L92.6884766,119.502441 L90.8720703,127.449219 L90.7988281,127.449219 L88.8359375,119.502441 L87.5175781,119.502441 L85.5620117,127.449219 L85.4887695,127.449219 L83.6723633,119.502441 L82.1196289,119.502441 L84.8662109,129.5 L86.0673828,129.5 Z M98.7895508,129.624512 C100.701172,129.624512 102.114746,128.386719 102.114746,126.211426 L102.114746,125.068848 C102.114746,122.922852 100.701172,121.67041 98.7895508,121.67041 C96.8632812,121.67041 95.4570312,122.996094 95.4570312,125.076172 L95.4570312,126.211426 C95.4570312,128.408691 96.8413086,129.624512 98.7895508,129.624512 Z M98.796875,128.503906 C97.5078125,128.503906 96.7827148,127.544434 96.7827148,126.116211 L96.7827148,125.186035 C96.7827148,123.779785 97.559082,122.79834 98.796875,122.79834 C100.034668,122.79834 100.781738,123.779785 100.781738,125.186035 L100.781738,126.116211 C100.781738,127.544434 100.071289,128.503906 98.796875,128.503906 Z M105.791504,129.5 L105.791504,124.739258 C105.791504,123.691895 106.465332,122.878906 107.820312,122.878906 C108.054688,122.878906 108.318359,122.893555 108.442871,122.922852 L108.442871,121.714355 C108.289062,121.692383 108.12793,121.677734 107.959473,121.677734 C106.597168,121.677734 106.040527,122.476074 105.850098,122.981445 L105.78418,122.981445 L105.78418,121.794922 L104.458496,121.794922 L104.458496,129.5 L105.791504,129.5 Z M111.562988,129.5 L111.562988,126.665527 L112.258789,125.955078 L114.866211,129.5 L116.448242,129.5 L113.23291,125.14209 L116.250488,121.794922 L114.719727,121.794922 L111.614258,125.259277 L111.562988,125.259277 L111.562988,118.975098 L110.237305,118.975098 L110.237305,129.5 L111.562988,129.5 Z M121.040527,129.624512 C122.952148,129.624512 124.365723,128.386719 124.365723,126.211426 L124.365723,125.068848 C124.365723,122.922852 122.952148,121.67041 121.040527,121.67041 C119.114258,121.67041 117.708008,122.996094 117.708008,125.076172 L117.708008,126.211426 C117.708008,128.408691 119.092285,129.624512 121.040527,129.624512 Z M121.047852,128.503906 C119.758789,128.503906 119.033691,127.544434 119.033691,126.116211 L119.033691,125.186035 C119.033691,123.779785 119.810059,122.79834 121.047852,122.79834 C122.285645,122.79834 123.032715,123.779785 123.032715,125.186035 L123.032715,126.116211 C123.032715,127.544434 122.322266,128.503906 121.047852,128.503906 Z M129.17041,129.624512 C130.518066,129.624512 131.243164,128.848145 131.462891,128.218262 L131.536133,128.218262 L131.536133,129.5 L132.847168,129.5 L132.847168,121.794922 L131.521484,121.794922 L131.521484,126.650879 C131.521484,127.639648 130.664551,128.467285 129.536621,128.467285 C128.621094,128.467285 127.859375,128.064453 127.859375,126.782715 L127.859375,121.794922 L126.533691,121.794922 L126.533691,127.141602 C126.533691,128.928711 127.625,129.624512 129.17041,129.624512 Z M138.105957,129.565918 C138.398926,129.565918 138.940918,129.529297 139.050781,129.5 L139.050781,128.437988 C138.92627,128.452637 138.633301,128.474609 138.442871,128.474609 C137.505371,128.474609 137.197754,128.240234 137.197754,127.332031 L137.197754,122.893555 L138.940918,122.893555 L138.940918,121.816895 L137.197754,121.816895 L137.197754,119.883301 L135.886719,119.883301 L135.886719,121.816895 L134.700195,121.816895 L134.700195,122.893555 L135.879395,122.893555 L135.879395,127.339355 C135.879395,128.862793 136.274902,129.565918 138.105957,129.565918 Z"/>
          <path fill="#000" fill-rule="nonzero" d="M64.5876465,145.658691 C66.8664551,145.658691 67.9709473,144.071777 67.9709473,140.999512 C67.9709473,137.59082 66.3903809,136.651367 64.7526855,136.651367 C62.9880371,136.651367 61.642334,137.755859 61.642334,139.609375 C61.642334,141.456543 62.9118652,142.497559 64.4226074,142.497559 C65.5715332,142.497559 66.2634277,141.894531 66.517334,141.215332 L66.5998535,141.215332 C66.6506348,143.024414 66.0856934,144.490723 64.6130371,144.490723 C63.8449707,144.490723 63.3688965,144.097168 63.2609863,143.709961 L61.8581543,143.709961 C61.9597168,144.693848 62.861084,145.658691 64.5876465,145.658691 Z M64.7145996,141.35498 C63.8132324,141.35498 63.045166,140.770996 63.045166,139.609375 C63.045166,138.479492 63.7814941,137.812988 64.689209,137.812988 C65.6540527,137.812988 66.3776855,138.473145 66.3776855,139.628418 C66.3776855,140.783691 65.5905762,141.35498 64.7145996,141.35498 Z M74.2741699,145.5 L74.2741699,142.16748 L76.0705566,142.16748 L77.6257324,145.5 L79.2443848,145.5 L77.4924316,141.92627 C78.3747559,141.602539 79.0856934,140.73291 79.0856934,139.501465 C79.0856934,137.88916 77.9875488,136.835449 76.1657715,136.835449 L72.8522949,136.835449 L72.8522949,145.5 L74.2741699,145.5 Z M75.9245605,141.024902 L74.2741699,141.024902 L74.2741699,138.016113 L75.9626465,138.016113 C76.9655762,138.016113 77.6003418,138.562012 77.6003418,139.552246 C77.6003418,140.523438 76.9846191,141.024902 75.9245605,141.024902 Z M84.3098145,145.671387 C86.5314941,145.671387 87.9089355,144.211426 87.9089355,141.76123 L87.9089355,140.580566 C87.9089355,138.124023 86.5314941,136.664062 84.3098145,136.664062 C82.0881348,136.664062 80.7043457,138.117676 80.7043457,140.580566 L80.7043457,141.76123 C80.7043457,144.211426 82.0881348,145.671387 84.3098145,145.671387 Z M84.3098145,144.446289 C83.0720215,144.446289 82.1643066,143.563965 82.1643066,141.767578 L82.1643066,140.567871 C82.1643066,138.777832 83.0720215,137.895508 84.3098145,137.895508 C85.5349121,137.895508 86.4489746,138.777832 86.4489746,140.567871 L86.4489746,141.767578 C86.4489746,143.563965 85.5349121,144.446289 84.3098145,144.446289 Z M93.145752,145.671387 C95.2087402,145.671387 96.5480957,144.408203 96.5480957,142.510254 L96.5480957,136.835449 L95.1071777,136.835449 L95.1071777,142.408691 C95.1071777,143.678223 94.3327637,144.427246 93.145752,144.427246 C91.9587402,144.427246 91.1843262,143.68457 91.1843262,142.408691 L91.1843262,136.835449 L89.7434082,136.835449 L89.7434082,142.510254 C89.7434082,144.408203 91.0891113,145.671387 93.145752,145.671387 Z M100.115479,145.5 L100.115479,139.260254 L100.172607,139.260254 L104.22876,145.5 L105.491943,145.5 L105.491943,136.835449 L104.108154,136.835449 L104.108154,143.056152 L104.044678,143.056152 L100.001221,136.835449 L98.7316895,136.835449 L98.7316895,145.5 L100.115479,145.5 Z M110.766846,145.5 C113.337646,145.5 114.607178,143.944824 114.607178,141.158203 C114.607178,138.371582 113.350342,136.835449 110.766846,136.835449 L107.7771,136.835449 L107.7771,145.5 L110.766846,145.5 Z M110.608154,144.287598 L109.218018,144.287598 L109.218018,138.047852 L110.608154,138.047852 C112.315674,138.047852 113.128174,139.088867 113.128174,141.177246 C113.128174,143.25293 112.322021,144.287598 110.608154,144.287598 Z M119.088623,145.671387 C121.189697,145.671387 122.433838,144.60498 122.433838,143.011719 C122.433838,141.659668 121.595947,140.961426 120.135986,140.605957 L118.720459,140.256836 C117.946045,140.072754 117.520752,139.691895 117.520752,139.126953 C117.520752,138.358887 118.168213,137.825684 119.190186,137.825684 C120.155029,137.825684 120.7771,138.308105 120.916748,139 L122.313232,139 C122.205322,137.67334 121.050049,136.64502 119.202881,136.64502 C117.368408,136.64502 116.073486,137.679688 116.073486,139.209473 C116.073486,140.440918 116.873291,141.228027 118.193604,141.54541 L119.615479,141.900879 C120.554932,142.129395 120.99292,142.484863 120.99292,143.138672 C120.99292,143.951172 120.332764,144.484375 119.196533,144.484375 C118.123779,144.484375 117.406494,143.970215 117.266846,143.221191 L115.851318,143.221191 C115.952881,144.60498 117.070068,145.671387 119.088623,145.671387 Z" opacity=".5"/>
          <g transform="translate(70 59)">
            <mask id="the-bell-showcase-j" fill="#fff">
              <use xlink:href="#the-bell-showcase-i"/>
            </mask>
            <g mask="url(#the-bell-showcase-j)">
              <g transform="translate(-3 -3)">
                <rect width="50" height="50" fill="url(#the-bell-showcase-k)"/>
                <circle cx="25" cy="25" r="22.119" fill="url(#the-bell-showcase-l)"/>
                <g transform="rotate(30 -4.32 44.41)">
                  <path fill="url(#the-bell-showcase-m)" d="M14.6220641,22.6395319 C14.6220641,24.392608 13.1793782,25.81336 11.3992378,25.81336 C9.61943756,25.81336 8.17675163,24.392608 8.17675163,22.6395319 L8.17675163,22.6395319 Z M22.7540436,19.8665021 L22.7475615,20.0028738 C22.6789463,20.7209371 22.0740692,21.2825177 21.338028,21.2825177 L21.338028,21.2825177 L1.41615299,21.2825177 C0.634109155,21.2825177 0.000137365012,20.6485459 0.000137365012,19.8665021 L0.000137365012,19.8665021 L22.7540436,19.8665021 Z M11.3840318,0.0302819138 C12.3535958,0.0302819138 13.2042722,0.710056532 13.7397165,1.75617407 C18.1056817,2.807224 19.9164652,6.67871084 19.9164652,11.3582147 L19.9164652,11.3582147 L19.9164652,15.6059093 C19.9164652,17.5174391 21.8128117,19.8545007 22.7612101,19.8545007 L22.7612101,19.8545007 L0.0073038207,19.8545007 C0.955251901,19.8545007 2.85159839,17.5174391 2.85159839,15.6059093 L2.85159839,15.6059093 L2.85159839,11.3582147 C2.85159839,6.67871084 4.66283221,2.807224 9.02879736,1.75617407 C9.56424166,0.710056532 10.4153684,0.0302819138 11.3840318,0.0302819138 Z"/>
                  <path fill="#DFC200" d="M0.000137365012,19.8665021 C0.000137365012,20.6485459 0.634109155,21.2825177 1.41615299,21.2825177 L21.338028,21.2825177 C22.1200718,21.2825177 22.7540436,20.6485459 22.7540436,19.8665021 L22.7540436,19.8665021 L22.7540436,19.8665021 C21.8056452,19.8665021 0.948085445,19.8665021 0.000137365012,19.8665021 Z"/>
                </g>
              </g>
            </g>
          </g>
        </g>
        <path fill="#000" d="M224.106,27.76 C236.316,42.88 235.766,64.34 236.116,90.04 C236.126,90.49 236.126,193.85 236.116,194.3 C235.766,220 236.316,241.46 224.106,256.58 C210.939,272.9051 193.214535,274.950143 160.065256,274.989411 L86.126,274.99 C52.326,274.99 34.376,273.07 21.066,256.58 C8.866,241.46 9.416,220 9.056,194.3 L9.056,90.04 L9.056,90.04 C9.416,64.34 8.866,42.88 21.066,27.76 C34.2429,11.4349 51.967464,9.389857 85.1167438,9.35058865 L159.056,9.35 C192.856,9.35 210.806,11.27 224.106,27.76 Z M183.159897,30.351312 L61.3624325,30.351312 C44.1997464,30.351312 30.255064,44.2910713 30.255064,61.4522449 L30.255064,223.251967 C30.255064,240.422992 44.1997464,254.3529 61.3624325,254.3529 L183.159897,254.3529 C200.322584,254.3529 214.257334,240.422992 214.257334,223.251967 L214.257334,61.4522449 C214.257334,44.2910713 200.322584,30.351312 183.159897,30.351312 Z"/>
        <path stroke="#222" stroke-width=".87" d="M9.056,194.3 C9.056,193.85 9.056,90.49 9.056,90.04 C9.416,64.34 8.866,42.88 21.066,27.76 C34.376,11.27 52.326,9.35 86.126,9.35 L159.056,9.35 C192.856,9.35 210.806,11.27 224.106,27.76 C236.316,42.88 235.766,64.34 236.116,90.04 C236.126,90.49 236.126,193.85 236.116,194.3 C235.766,220 236.316,241.46 224.106,256.58 C210.806,273.07 192.856,274.99 159.056,274.99 L86.126,274.99 C52.326,274.99 34.376,273.07 21.066,256.58 C8.866,241.46 9.416,220 9.056,194.3 Z"/>
      </g>
      <path fill="#3B3B3B" d="M3.44,44.17 C3.44,54.27 3.29,63.63 2.52,72.17 C1.24,69.54 0.82,64.75 0.82,59.42 L0.82,14.27 C0.82,7.82 1.44,2.18 3.44,0.15 L3.44,44.17 Z" transform="translate(241.056 228.85)"/>
    </g>
  </g>
</svg>
