<?xml version="1.0" encoding="UTF-8"?>
<svg width="65px" height="65px" viewBox="0 0 65 65" version="1.1" xmlns="http://www.w3.org/2000/svg" xmlns:xlink="http://www.w3.org/1999/xlink">
    <!-- Generator: Sketch 42 (36781) - http://www.bohemiancoding.com/sketch -->
    <title>twitter</title>
    <desc>Created with Sketch.</desc>
    <defs></defs>
    <g id="Page-1" stroke="none" stroke-width="1" fill="none" fill-rule="evenodd">
        <g id="Desktop-HD" transform="translate(-823.000000, -6745.000000)" fill="#3D9A9C">
            <g id="Group-21" transform="translate(552.000000, 6745.000000)">
                <path d="M271,32.5 C271,14.5507447 285.550745,0 303.5,0 C321.449255,0 336,14.5507447 336,32.5 C336,50.4492553 321.449255,65 303.5,65 C285.550745,65 271,50.4492553 271,32.5 Z M303.101503,27.3843758 L303.164456,28.4224435 L302.115237,28.2953331 C298.29608,27.8080769 294.959564,26.1556426 292.126673,23.3804004 L290.741704,22.0033719 L290.384969,23.0202545 C289.629531,25.2870554 290.112172,27.6809665 291.686001,29.2910307 C292.525376,30.180803 292.336516,30.3079133 290.888594,29.778287 C290.384969,29.6088065 289.944297,29.4816962 289.902328,29.5452514 C289.755438,29.6935467 290.259063,31.6213867 290.657766,32.3840487 C291.20336,33.4433014 292.315532,34.4813691 293.532626,35.0957357 L294.560861,35.582992 L293.343767,35.604177 C292.168641,35.604177 292.126673,35.6253621 292.252579,36.0702482 C292.672266,37.4472768 294.330032,38.9090455 296.176658,39.5445972 L297.477689,39.9894833 L296.344533,40.6674051 C294.665783,41.6419176 292.693251,42.192729 290.720719,42.2350991 C289.776422,42.2562842 289,42.3410244 289,42.4045796 C289,42.6164301 291.560094,43.8027932 293.049985,44.2688644 C297.519658,45.645893 302.828706,45.0527114 306.815739,42.7011703 C309.64863,41.027551 312.481521,37.7014974 313.803537,34.4813691 C314.517006,32.7653797 315.230475,29.6299916 315.230475,28.1258527 C315.230475,27.1513402 315.293428,27.0242299 316.468553,25.8590518 C317.161038,25.1811301 317.811554,24.4396532 317.93746,24.2278026 C318.147304,23.8252866 318.126319,23.8252866 317.056116,24.1854325 C315.272444,24.8209842 315.020631,24.7362439 315.901975,23.7829165 C316.552491,23.1049947 317.328913,21.8762616 317.328913,21.5161156 C317.328913,21.4525605 317.014147,21.5584857 316.657413,21.7491512 C316.279694,21.9610018 315.440319,22.2787776 314.810787,22.4694431 L313.677631,22.829589 L312.649396,22.1304822 C312.082818,21.7491512 311.285411,21.3254501 310.865724,21.1983398 C309.79552,20.901749 308.158739,20.9441191 307.193457,21.28308 C304.57041,22.2364075 302.912644,24.6938738 303.101503,27.3843758 Z" id="twitter"></path>
            </g>
        </g>
    </g>
</svg>