<svg xmlns="http://www.w3.org/2000/svg" width="40" height="40" viewBox="0 0 40 40">
  <g fill="none">
    <polygon fill="#007ACC" points="0 20 0 0 20 0 40 0 40 20 40 40 20 40 0 40" transform="matrix(1 0 0 -1 0 40)"/>
    <path fill="#FFF" d="M32.4237768,36.8307262 C33.4375188,36.5696099 34.2104971,36.1061285 34.9201165,35.3488911 C35.287598,34.9441609 35.8324843,34.2065073 35.8768355,34.0302538 C35.8895073,33.9780305 34.1534741,32.7768954 33.1017167,32.1045209 C33.0637014,32.0784093 32.9116401,32.2481349 32.7405711,32.5092512 C32.2273642,33.2795443 31.6888138,33.6124677 30.8651484,33.6712188 C29.6549938,33.7560816 28.8756797,33.1032908 28.8820155,32.0131302 C28.8820155,31.6932627 28.9263668,31.5039534 29.0530845,31.2428371 C29.3191918,30.6749091 29.813391,30.3354579 31.3656835,29.6434997 C34.2231689,28.3770855 35.4459952,27.5415133 36.2063017,26.3534341 C37.0553107,25.0282688 37.2453873,22.9132266 36.6688215,21.3400008 C36.0352327,19.629689 34.4639326,18.4677214 32.2527078,18.0825748 C31.5684319,17.9585445 29.9464447,17.9781283 29.2114817,18.1152143 C27.6085021,18.4089702 26.0878891,19.2249587 25.1501777,20.2955356 C24.7826962,20.7133217 24.0667409,21.8034823 24.1110921,21.8818172 C24.1300998,21.9079288 24.2948329,22.0123753 24.4785736,22.1233498 C24.6559785,22.2277963 25.3275826,22.6259987 25.9611713,23.0046173 L27.107967,23.6900477 L27.3487307,23.3244848 C27.6845328,22.7957243 28.4194957,22.0711265 28.8630079,21.8295939 C30.1365213,21.1376357 31.8852263,21.2355543 32.746907,22.0319591 C33.1143885,22.3779382 33.2664498,22.7369731 33.2664498,23.2657337 C33.2664498,23.7422709 33.2094268,23.951164 32.9686631,24.3101989 C32.6582046,24.7671525 32.0246158,25.152299 30.2252237,25.9552317 C28.1660602,26.8691388 27.279036,27.4370668 26.4680423,28.3379181 C25.9991867,28.8601507 25.5556745,29.6957229 25.3719338,30.3942091 C25.2198725,30.9751929 25.1818571,32.4309163 25.302239,33.018428 C25.7267435,35.0681911 27.2283489,36.4978029 29.3952224,36.9221169 C30.098506,37.059203 31.733165,37.0069798 32.4237768,36.8307262 Z M23.0529989,35.1138865 L23.0656707,33.4296862 L20.4679567,33.4296862 L17.8702428,33.4296862 L17.8702428,25.8246735 L17.8702428,18.2196609 L16.0328353,18.2196609 L14.1954279,18.2196609 L14.1954279,25.8246735 L14.1954279,33.4296862 L11.5977139,33.4296862 L9,33.4296862 L9,35.0812469 C9,35.995154 9.01900766,36.7589193 9.04435121,36.778503 C9.06335888,36.8046146 12.2249668,36.8176704 16.0581789,36.8111425 L23.0339912,36.7915588 L23.0529989,35.1138865 Z" transform="matrix(1 0 0 -1 0 55)"/>
  </g>
</svg>
