<svg xmlns="http://www.w3.org/2000/svg" xmlns:xlink="http://www.w3.org/1999/xlink" width="40" height="40" viewBox="0 0 40 40">
  <defs>
    <path id="typescript-icon-a" d="M32.42376,18.1692 C33.43752,18.4304 34.21048,18.894 34.92012,19.6512 C35.2876,20.056 35.83248,20.7936 35.87684,20.9696 C35.88952,21.022 34.15348,22.2232 33.10172,22.8956 C33.06372,22.9216 32.91164,22.752 32.74056,22.4908 C32.22736,21.7204 31.6888,21.3876 30.86516,21.3288 C29.655,21.244 28.87568,21.8968 28.882,22.9868 C28.882,23.3068 28.92636,23.496 29.05308,23.7572 C29.3192,24.3252 29.8134,24.6644 31.36568,25.3564 C34.22316,26.6228 35.446,27.4584 36.20632,28.6464 C37.05532,29.9716 37.2454,32.0868 36.66884,33.66 C36.03524,35.3704 34.46392,36.5324 32.25272,36.9176 C31.56844,37.0416 29.94644,37.022 29.21148,36.8848 C27.60852,36.5912 26.08788,35.7752 25.15016,34.7044 C24.78268,34.2868 24.06676,33.1964 24.11108,33.118 C24.13008,33.092 24.29484,32.9876 24.47856,32.8768 C24.65596,32.7724 25.3276,32.374 25.96116,31.9952 L27.10796,31.31 L27.34872,31.6756 C27.68452,32.2044 28.41948,32.9288 28.863,33.1704 C30.13652,33.8624 31.88524,33.7644 32.74692,32.968 C33.1144,32.622 33.26644,32.2632 33.26644,31.7344 C33.26644,31.2576 33.20944,31.0488 32.96868,30.69 C32.6582,30.2328 32.0246,29.8476 30.22524,29.0448 C28.16608,28.1308 27.27904,27.5628 26.46804,26.662 C25.9992,26.14 25.55568,25.3044 25.37192,24.6056 C25.21988,24.0248 25.18184,22.5692 25.30224,21.9816 C25.72676,19.932 27.22836,18.502 29.39524,18.078 C30.09852,17.9408 31.73316,17.9932 32.42376,18.1692 Z M16.05816,18.1888 L23.034,18.2084 L23.053,19.886 L23.06568,21.5704 L17.87024,21.5704 L17.87024,36.7804 L14.19544,36.7804 L14.19544,21.5704 L9,21.5704 L9,19.9188 C9,19.0048 9.019,18.2412 9.04436,18.2216 C9.06336,18.1952 12.22496,18.1824 16.05816,18.1888 Z"/>
  </defs>
  <g fill="none" fill-rule="evenodd">
    <polygon fill="#007ACC" points="0 0 40 0 40 40 0 40"/>
    <use fill="#FFF" xlink:href="#typescript-icon-a"/>
  </g>
</svg>
