<svg xmlns="http://www.w3.org/2000/svg" xmlns:xlink="http://www.w3.org/1999/xlink" width="40" height="40" viewBox="0 0 40 40"><defs><linearGradient id="b" x1="100%" x2="0%" y1="20.098%" y2="20.098%"><stop offset="0%" stop-color="#4AA5C6"/><stop offset="100%" stop-color="#B0DDF6"/></linearGradient><linearGradient id="c" x1="41.985%" x2="58.604%" y1="80.275%" y2="80.275%"><stop offset="0%" stop-color="#9BE3FF" stop-opacity="0"/><stop offset="48.061%" stop-color="#9BE3FF"/><stop offset="100%" stop-color="#9BE3FF" stop-opacity="0"/></linearGradient><linearGradient id="e" x1="100%" x2="0%" y1="20.098%" y2="20.098%"><stop offset="0%" stop-color="#078EC3"/><stop offset="100%" stop-color="#2DBEED"/></linearGradient><linearGradient id="f" x1="41.985%" x2="58.604%" y1="80.275%" y2="80.275%"><stop offset="0%" stop-color="#4AD3FF" stop-opacity="0"/><stop offset="48.061%" stop-color="#4AD3FF"/><stop offset="100%" stop-color="#4AD3FF" stop-opacity="0"/></linearGradient><linearGradient id="h" x1="100%" x2="0%" y1="20.098%" y2="20.098%"><stop offset="0%" stop-color="#006FBD"/><stop offset="100%" stop-color="#08A1E2"/></linearGradient><linearGradient id="i" x1="41.388%" x2="58.604%" y1="80.275%" y2="80.275%"><stop offset="0%" stop-color="#00A2E4" stop-opacity="0"/><stop offset="48.061%" stop-color="#00A2E4"/><stop offset="100%" stop-color="#00A2E4" stop-opacity="0"/></linearGradient><linearGradient id="j" x1="77.415%" x2="20.776%" y1="31.283%" y2="67.194%"><stop offset="0%" stop-color="#0095FF"/><stop offset="100%" stop-color="#00A8E0"/></linearGradient><path id="a" d="M1.83331254,29.2738699 C0.653647269,28.3420012 0,27.0939105 0,25.766947 C0,24.4399835 0,23.8947107 0,21.8492193 L36,21.841332 C36,23.6968048 36,24.4240629 36,25.7510264 C36,27.0779899 35.3466425,28.3260805 34.1666875,29.2579492 L22.4641993,38.5313574 C21.2683088,39.4785625 19.689965,40 18.0000724,40 C16.3101798,40 14.7318361,39.4785625 13.5359455,38.5466938 L1.83331254,29.2738699 Z"/><path id="d" d="M1.83331254,25.3953194 C0.653647269,24.4634507 0,23.2153601 0,21.8883966 C0,20.5614331 0,20.0161603 0,17.9706689 L36,17.9627816 C36,19.8182544 36,20.5455124 36,21.872476 C36,23.1994395 35.3466425,24.4475301 34.1666875,25.3793988 L22.4641993,34.652807 C21.2683088,35.6000121 19.689965,36.1214496 18.0000724,36.1214496 C16.3101798,36.1214496 14.7318361,35.6000121 13.5359455,34.6681433 L1.83331254,25.3953194 Z"/><path id="g" d="M1.83331254,21.6734781 C0.653647269,20.7416094 0,19.4935188 0,18.1665553 C0,16.8395918 0,16.294319 0,14.2488275 L36,14.2409403 C36,16.096413 36,16.8236711 36,18.1506346 C36,19.4775981 35.3466425,20.7256887 34.1666875,21.6575574 L22.4641993,30.9309656 C21.2683088,31.8781707 19.689965,32.3996082 18.0000724,32.3996082 C16.3101798,32.3996082 14.7318361,31.8781707 13.5359455,30.946302 L1.83331254,21.6734781 Z"/></defs><g fill="none" fill-rule="evenodd" transform="translate(2)"><g fill-rule="nonzero"><use xlink:href="#a" fill="url(#b)"/><use xlink:href="#a" fill="url(#c)"/><use xlink:href="#d" fill="url(#e)"/><use xlink:href="#d" fill="url(#f)"/><use xlink:href="#g" fill="url(#h)"/><use xlink:href="#g" fill="url(#i)"/><path fill="url(#j)" d="M13.5358007,27.0284282 L1.83331254,17.7557504 C0.653647269,16.8238817 2.20947042e-15,15.5757911 2.20947042e-15,14.2488275 C2.20947042e-15,12.921864 0.653647269,11.6737734 1.83345741,10.7419047 L13.5359455,1.45316015 C14.7159005,0.521291444 16.3101798,0 18.0000724,0 C19.689965,0 21.2683088,0.521291444 22.4641993,1.45330621 L34.1666875,10.7259841 C35.3466425,11.6585831 36,12.9059434 36,14.2329069 C36,15.5598704 35.3466425,16.807961 34.1666875,17.7398297 L22.4641993,27.0132379 C21.2683088,27.960443 19.689965,28.4818805 18.0000724,28.4818805 C16.3101798,28.4818805 14.7318361,27.960443 13.5359455,27.0285743 L13.5358007,27.0284282 Z"/></g><g transform="translate(1 .026)"><path fill="#66C8F6" d="M16.2156238,23.6642584 L22.3546326,18.7670014 L22.3735015,18.7521608 C22.3765047,18.7498356 22.3794394,18.7475827 22.3823091,18.7453993 L22.3987743,18.7331114 L22.3987743,18.7331114 L22.4138436,18.7223607 L22.4138436,18.7223607 L22.4276825,18.7130156 L22.4276825,18.7130156 L22.4404564,18.7049443 C22.448654,18.6999589 22.4562518,18.6957349 22.4634703,18.6920968 L22.4740412,18.6870571 C22.4757648,18.6862831 22.4774715,18.6855402 22.4791649,18.6848257 L22.4891924,18.6808574 L22.4891924,18.6808574 L22.4990643,18.6774387 L22.4990643,18.6774387 L22.508946,18.6744381 C22.5106029,18.6739655 22.5122672,18.6735048 22.5139422,18.6730534 C22.5558171,18.6617665 22.5976907,18.661579 22.6396622,18.6724905 L22.6496351,18.6752424 C22.6512852,18.6757268 22.6529315,18.6762259 22.6545776,18.6767425 L22.6644788,18.6800726 C22.6661378,18.6806697 22.6678034,18.6812896 22.6694792,18.6819351 L22.6796833,18.6861364 C22.6866043,18.6891707 22.6937986,18.6927006 22.7014884,18.6968998 L22.7134223,18.7037223 L22.7134223,18.7037223 L22.7262658,18.7116789 C22.7284914,18.7131067 22.7307619,18.7145872 22.7330807,18.7161231 L22.7476008,18.7260249 C22.7501266,18.7277933 22.7527077,18.7296224 22.7553476,18.731515 L22.7719189,18.743655 L22.7719189,18.743655 L22.7900657,18.7574499 L22.7900657,18.7574499 L24.1966856,19.8592624 C24.3157886,19.9525608 24.3378239,20.1261929 24.2459028,20.2470806 C24.2321605,20.2651535 24.2162657,20.2814293 24.1985815,20.2955365 L18.0595727,25.1927935 L18.0407038,25.207634 C18.0377006,25.2099593 18.0347659,25.2122122 18.0318962,25.2143956 L18.0154311,25.2266835 C18.0128078,25.2285997 18.0102427,25.2304519 18.0077323,25.2322427 L17.9932988,25.2422742 C17.9794668,25.2516138 17.9673564,25.2589439 17.9562235,25.2648569 L17.9453888,25.2703196 C17.9418675,25.2719976 17.9384272,25.2735402 17.9350404,25.2749692 L17.925013,25.2789375 C17.9233593,25.2795494 17.9217121,25.2801384 17.9200679,25.2807073 L17.9102118,25.2839005 L17.9102118,25.2839005 L17.9002631,25.2867415 L17.9002631,25.2867415 C17.8583882,25.2980284 17.8165146,25.2982158 17.7745432,25.2873043 L17.7645702,25.2845525 C17.7629202,25.2840681 17.7612738,25.2835689 17.7596277,25.2830523 L17.7497265,25.2797222 L17.7497265,25.2797222 L17.7396649,25.2758439 C17.7345663,25.2737459 17.7293451,25.2713936 17.7239078,25.2687136 L17.7127169,25.262895 C17.7069496,25.2597456 17.7009037,25.2562197 17.6944854,25.2522442 L17.6811246,25.2436717 L17.6811246,25.2436717 L17.6666046,25.2337699 L17.6666046,25.2337699 L17.6507587,25.2224085 L17.6507587,25.2224085 L17.6334204,25.2094574 L17.6334204,25.2094574 L17.6144233,25.1947863 L17.6144233,25.1947863 L16.2175197,24.1005325 C16.0984167,24.007234 16.0763814,23.8336019 16.1683025,23.7127143 C16.1820449,23.6946414 16.1979396,23.6783655 16.2156238,23.6642584 Z"/><g transform="translate(3.316 .076)"><path fill="#60C4FD" d="M0.805000174,13.2082109 L13.2790417,3.12913248 L13.2790417,3.12913248 L13.3049254,3.10855659 L13.3049254,3.10855659 L13.3295042,3.08937353 L13.3295042,3.08937353 L13.3528515,3.07152386 L13.3528515,3.07152386 L13.3750411,3.05494814 L13.3750411,3.05494814 L13.3961465,3.03958694 L13.3961465,3.03958694 L13.4162414,3.02538082 L13.4162414,3.02538082 L13.4353993,3.01227033 L13.4353993,3.01227033 L13.4536938,3.00019605 C13.456675,2.99826671 13.4596234,2.99637808 13.4625403,2.9945289 L13.4796778,2.98389747 C13.4824754,2.98220118 13.4852447,2.98054187 13.4879873,2.97891831 L13.5041334,2.96959599 L13.5041334,2.96959599 L13.5197106,2.9610721 L13.5197106,2.9610721 L13.5347925,2.95328723 L13.5347925,2.95328723 L13.5494526,2.94618191 C13.5542772,2.94392013 13.5590438,2.94176171 13.5637647,2.93969673 L13.5778022,2.93377223 L13.5778022,2.93377223 L13.5916389,2.92834898 L13.5916389,2.92834898 L13.6053482,2.92336754 L13.6053482,2.92336754 L13.6190039,2.91876848 L13.6190039,2.91876848 L13.6326795,2.91449234 L13.6326795,2.91449234 L13.6533912,2.90855362 L13.6533912,2.90855362 C13.7555678,2.88064216 13.8578767,2.87997923 13.9603961,2.90656433 L13.9811809,2.91223417 L13.9811809,2.91223417 L13.9949092,2.91633273 L13.9949092,2.91633273 L14.0086216,2.92075446 L14.0086216,2.92075446 L14.0223925,2.92555784 L14.0223925,2.92555784 L14.0362962,2.93080134 L14.0362962,2.93080134 L14.0504071,2.93654344 L14.0504071,2.93654344 L14.0647996,2.94284263 C14.0672259,2.94394217 14.0696671,2.94506735 14.0721246,2.94621941 L14.0870788,2.95346388 L14.0870788,2.95346388 L14.1025003,2.96141163 L14.1025003,2.96141163 L14.1184637,2.97012115 C14.1211735,2.97163946 14.123909,2.97319195 14.1266717,2.97477984 L14.1435871,2.98474166 C14.1464649,2.986476 14.149373,2.98824817 14.1523129,2.9900594 L14.1703476,3.00140509 L14.1703476,3.00140509 L14.1892214,3.01374647 L14.1892214,3.01374647 L14.2090087,3.02714202 L14.2090087,3.02714202 L14.2297838,3.04165021 L14.2297838,3.04165021 L14.2516211,3.05732953 L14.2516211,3.05732953 L14.274595,3.07423846 L14.274595,3.07423846 L14.2987797,3.09243547 L14.2987797,3.09243547 L14.3242496,3.11197905 L14.3242496,3.11197905 L14.3510792,3.13292767 L14.3510792,3.13292767 L24.8435937,11.3910357 C25.1323333,11.6182875 25.1848986,12.0400884 24.9610017,12.3331545 C24.9286835,12.3754569 24.8914975,12.413685 24.8502356,12.4470249 L12.3761941,22.5261033 L12.3761941,22.5261033 L12.3378625,22.5564411 L12.3378625,22.5564411 L12.3139086,22.5749501 L12.3139086,22.5749501 L12.2911494,22.5921553 C12.2874516,22.5949175 12.2838006,22.5976279 12.2801947,22.6002877 L12.2590893,22.6156489 L12.2590893,22.6156489 L12.2389944,22.629855 C12.2357254,22.6321297 12.2324954,22.6343588 12.229303,22.6365435 L12.2105859,22.6491284 L12.2105859,22.6491284 L12.1926955,22.6607069 C12.1897785,22.6625561 12.1868929,22.6643658 12.1840372,22.6661373 L12.1672485,22.6763175 C12.164506,22.677941 12.1617903,22.6795289 12.1590998,22.6810822 L12.1432473,22.6899978 L12.1432473,22.6899978 L12.127927,22.6981448 L12.127927,22.6981448 L12.1130651,22.7055825 L12.1130651,22.7055825 L12.0985882,22.7123703 L12.0985882,22.7123703 L12.0844226,22.7185677 L12.0844226,22.7185677 L12.0704948,22.7242341 L12.0704948,22.7242341 L12.056731,22.729429 C12.0544466,22.7302589 12.052166,22.7310715 12.0498876,22.7318683 L12.0362319,22.7364673 L12.0362319,22.7364673 L12.0225563,22.7407435 L12.0225563,22.7407435 L12.0018446,22.7466822 L12.0018446,22.7466822 C11.899668,22.7745936 11.7973591,22.7752566 11.6948397,22.7486715 L11.6809482,22.744948 L11.6809482,22.744948 L11.6671841,22.7409891 L11.6671841,22.7409891 L11.6534731,22.7367362 L11.6534731,22.7367362 L11.6397407,22.732131 L11.6397407,22.732131 L11.6259127,22.7271149 L11.6259127,22.7271149 L11.6119147,22.7216294 L11.6119147,22.7216294 L11.5976723,22.715616 C11.5952741,22.7145666 11.5928625,22.7134927 11.5904362,22.7123932 L11.5756879,22.7054784 L11.5756879,22.7054784 L11.5605093,22.6978896 L11.5605093,22.6978896 L11.5448262,22.6895683 L11.5448262,22.6895683 L11.5285641,22.680456 C11.5258014,22.6788681 11.5230114,22.6772448 11.5201927,22.6755849 L11.5029228,22.6651764 C11.4999829,22.6633652 11.497011,22.6615149 11.4940058,22.6596244 L11.4755608,22.6477881 L11.4755608,22.6477881 L11.4562396,22.634927 L11.4562396,22.634927 L11.4359677,22.6209824 L11.4359677,22.6209824 L11.4146707,22.605896 L11.4146707,22.605896 L11.3922745,22.5896092 L11.3922745,22.5896092 L11.3687045,22.5720635 L11.3687045,22.5720635 L11.3438864,22.5532005 L11.3438864,22.5532005 L11.317746,22.5329617 L11.317746,22.5329617 L0.811642108,14.2642001 C0.522902536,14.0369483 0.470337181,13.6151473 0.694234103,13.3220813 C0.72655232,13.2797789 0.763738319,13.2415508 0.805000174,13.2082109 Z"/><path fill="#FFFFF9" fill-rule="nonzero" d="M3.88645077,4.33194781 C3.44933199,4.38806681 3.13979903,4.79322465 3.19508956,5.23689319 L4.86125849,18.6067563 C4.86292127,18.620099 4.86458941,18.633066 4.86626813,18.6456778 L4.8713413,18.6824674 L4.87650947,18.7172478 C4.8773805,18.7228839 4.87825679,18.7284413 4.87913901,18.7339227 L4.88450864,18.7659187 L4.89005191,18.7962114 L4.89580026,18.8249234 C4.89677716,18.8295838 4.89776391,18.8341835 4.89876118,18.8387249 L4.90487614,18.8652953 C4.9277986,18.9603085 4.95644283,19.029616 4.99778665,19.1003799 C5.06370451,19.2132047 5.15344952,19.3031388 5.26544124,19.3685984 L5.28457857,19.3794816 C5.35794123,19.420016 5.43222613,19.4471527 5.53811123,19.4685876 L5.56647043,19.474055 C5.57132316,19.4749464 5.57624067,19.4758283 5.58122548,19.4767012 L5.61196209,19.4818376 L5.64443493,19.4867911 L5.67876502,19.4915922 L5.7150734,19.4962713 L5.75348108,19.5008586 L21.5786736,21.3245198 C21.6418659,21.331802 21.7056895,21.3313884 21.768785,21.323288 C22.2059038,21.267169 22.5154368,20.8620111 22.4601462,20.4183426 L20.7914785,7.02874462 L20.786441,6.99090438 C20.7855957,6.98477361 20.7847471,6.97872912 20.7838945,6.97276836 L20.7787263,6.937988 L20.7734317,6.90509452 L20.7679792,6.87396547 C20.7587426,6.82348606 20.748717,6.77984827 20.7372471,6.7405012 L20.7301866,6.71738743 C20.7205275,6.68720117 20.7098602,6.65943445 20.6978492,6.63278121 L20.6885837,6.61297965 L20.6787828,6.59347321 C20.6720634,6.58054007 20.6649662,6.56772204 20.6574491,6.55485587 C20.5915313,6.4420311 20.5017863,6.35209702 20.3897946,6.28663739 L20.3802236,6.28111793 L20.3610804,6.27054248 C20.3514934,6.26540544 20.3418679,6.26049065 20.332136,6.25578103 L20.3125101,6.24663028 C20.2596881,6.22293077 20.202547,6.20474327 20.130759,6.18947701 L20.1031317,6.18388403 C20.0936803,6.18206198 20.0839799,6.18028051 20.0740103,6.17853456 L20.0432737,6.17339823 L20.0108009,6.16844469 L19.9764708,6.16364356 L19.9401624,6.1589645 L19.9017547,6.15437715 L4.07656215,4.33071595 C4.01336985,4.32343381 3.94954632,4.32384736 3.88645077,4.33194781 Z M4.04583077,4.6054454 L19.8882638,6.43112315 L19.9210491,6.43514413 L19.9516808,6.43917122 L19.9802875,6.44323113 L20.0069978,6.44735059 L20.0319404,6.45155633 L20.0552438,6.45587507 C20.0627527,6.45733645 20.0700098,6.45882112 20.0770367,6.46033353 L20.0974476,6.46495843 C20.1040353,6.46653078 20.110414,6.46813532 20.1166054,6.46977652 L20.1346384,6.47481449 C20.1404763,6.47653344 20.1461481,6.47829349 20.1516754,6.48009909 L20.167845,6.48565704 C20.1757344,6.4885088 20.1833467,6.49147309 20.1907543,6.49456494 L20.2053181,6.50092316 C20.207707,6.5020127 20.2100786,6.50311752 20.2124354,6.50423819 L20.2264216,6.51115676 L20.2401834,6.5184823 L20.2538495,6.52624153 C20.3252474,6.5679739 20.3811126,6.62395688 20.4231371,6.69588588 L20.4309557,6.70965655 C20.4322225,6.7119566 20.4334716,6.71426093 20.4347034,6.71657225 L20.4418934,6.73054574 C20.443059,6.73289587 20.4442085,6.73525841 20.4453426,6.73763608 L20.451967,6.75210532 C20.4541165,6.75700338 20.4562091,6.76198364 20.4582492,6.76706781 L20.4642173,6.78265374 C20.4651874,6.78531059 20.4661455,6.78799883 20.4670923,6.79072119 L20.4726416,6.8074864 L20.4779466,6.82520055 C20.4796774,6.83127789 20.4813721,6.83753508 20.4830354,6.84399383 L20.4879359,6.86399643 C20.4887386,6.8674382 20.4895345,6.87093579 20.4903243,6.87449191 L20.4949949,6.89655261 C20.4957626,6.90035368 20.4965255,6.9042187 20.497284,6.90815038 L20.5017875,6.93256213 C20.5025309,6.93677131 20.5032711,6.94105259 20.5040088,6.94540866 L20.5084081,6.97246439 L20.512773,7.00144552 L20.5171314,7.03248225 L20.523718,7.08317639 L22.189887,20.4530395 C22.2262978,20.7452115 22.022459,21.0120228 21.7346003,21.0489792 C21.6930496,21.0543136 21.6510195,21.054586 21.609405,21.0497904 L5.766972,19.2241126 L5.73418668,19.2200917 L5.70355498,19.2160646 L5.67494829,19.2120047 L5.64823798,19.2078852 L5.62329543,19.2036795 L5.59999202,19.1993607 L5.57819914,19.1949023 L5.55778815,19.1902774 C5.55449433,19.1894912 5.55125273,19.188697 5.54806068,19.1878941 L5.52948138,19.1829694 C5.52046753,19.180451 5.51185132,19.1778451 5.50356039,19.1751367 L5.48739081,19.1695788 C5.47950143,19.166727 5.4718891,19.1637627 5.46448148,19.1606709 L5.44991772,19.1543126 C5.44752878,19.1532231 5.44515721,19.1521183 5.44280036,19.1509976 L5.42881424,19.144079 L5.41505244,19.1367535 L5.40138634,19.1289943 C5.32998844,19.0872619 5.27412316,19.0312789 5.23209865,18.9593499 L5.22813437,18.9524693 L5.22053235,18.9386635 C5.21930046,18.9363522 5.21808573,18.9340339 5.2168876,18.9317059 L5.20989315,18.9175997 C5.20875903,18.915222 5.20764033,18.9128293 5.20653646,18.9104186 L5.20008667,18.895719 L5.19396501,18.8804611 C5.19098155,18.8726708 5.18811066,18.8646224 5.1853366,18.8562425 L5.17991292,18.8390191 L5.17471948,18.8207816 L5.16972832,18.8014 L5.16491146,18.7807439 L5.16024094,18.7586832 L5.15568878,18.7350877 L5.15122701,18.7098271 L5.14682767,18.6827714 L5.14246278,18.6537903 L5.13591887,18.6064236 L5.13151775,18.5720594 L3.46534882,5.20219626 C3.42893799,4.9100243 3.63277676,4.64321304 3.92063547,4.60625663 C3.9621862,4.60092218 4.00421633,4.60064984 4.04583077,4.6054454 Z" transform="rotate(-45 12.828 12.828)"/></g><path fill="#00456F" fill-rule="nonzero" d="M16.8707939 16.4051216C16.8959566 16.4377662 16.8918239 16.4842078 16.8623209 16.51182L16.8574523 16.5160186 16.3356062 16.9297975 16.9306062 17.5057975 17.539856 17.0235675C17.5737115 16.9966836 17.6226288 17.0027463 17.6491158 17.037109 17.6742785 17.0697536 17.6701458 17.1161952 17.6406428 17.1438074L17.6357742 17.148006 17.0456062 17.6167975 17.1203197 17.6896728C17.1570542 17.7252473 17.1617562 17.7883322 17.1308219 17.8305769 17.1014342 17.8707094 17.0504569 17.8775961 17.0139374 17.8476837L17.0082965 17.8426544 16.8966062 17.7347975 16.3927228 18.135089C16.3588674 18.161973 16.3099501 18.1559102 16.283463 18.1215475 16.2583003 18.0889029 16.262433 18.0424613 16.291936 18.0148492L16.2968047 18.0106506 16.7826062 17.6237975 16.1876062 17.0467975 15.6144009 17.5031016C15.5805455 17.5299856 15.5316282 17.5239228 15.5051411 17.4895601 15.4799784 17.4569155 15.4841111 17.4104739 15.5136141 17.3828618L15.5184827 17.3786632 16.7615341 16.3915801C16.7953896 16.3646962 16.8443068 16.3707589 16.8707939 16.4051216ZM14.068835 14.1536665C14.0939977 14.1863111 14.089865 14.2327527 14.060362 14.2603649L14.0554934 14.2645635 13.5336473 14.6783423 14.1286473 15.2543423 14.7378971 14.7721124C14.7717526 14.7452285 14.8206698 14.7512912 14.8471569 14.7856539 14.8723196 14.8182985 14.8681869 14.8647401 14.8386839 14.8923523L14.8338153 14.8965509 14.2436473 15.3653423 14.3183608 15.4382177C14.3550953 15.4737922 14.3597973 15.5368771 14.328863 15.5791218 14.2994753 15.6192543 14.248498 15.626141 14.2119784 15.5962286L14.2063376 15.5911993 14.0946473 15.4833423 13.5907639 15.8836339C13.5569085 15.9105179 13.5079912 15.9044551 13.4815041 15.8700924 13.4563414 15.8374478 13.4604741 15.7910062 13.4899771 15.7633941L13.4948457 15.7591955 13.9806473 15.3723423 13.3856473 14.7953423 12.812442 15.2516465C12.7785866 15.2785305 12.7296693 15.2724677 12.7031822 15.238105 12.6780195 15.2054604 12.6821522 15.1590188 12.7116552 15.1314067L12.7165238 15.1272081 13.9595752 14.140125C13.9934307 14.1132411 14.0423479 14.1193038 14.068835 14.1536665ZM18.8402903.0129668008 18.8454794.0167492537 20.0907945 1.00422956C20.1246682 1.03108988 20.130675 1.08073595 20.1042112 1.11511716 20.0790706 1.1477793 20.0336695 1.15491485 20.0001498 1.13251738L19.9949607 1.12873493 19.4331601.683 18.4431601 1.501 18.9622277 1.91271145C18.9961014 1.93957176 19.0021082 1.98921783 18.9756445 2.02359904 18.9505039 2.05626119 18.9051027 2.06339673 18.871583 2.04099927L18.8663939 2.03721681 17.6210788 1.04973651C17.5872051 1.02287619 17.5811983.97323012 17.6076621.938848912 17.6328027.906186765 17.6782038.899051218 17.7117235.921448685L17.7169126.925231138 18.3181601 1.402 18.320321 1.40023203 19.3071601.583 18.7496456.141254622C18.7157719.114394303 18.7097651.0647482364 18.7362288.0303670284 18.7613694-.00229511933 18.8067706-.00943066577 18.8402903.0129668008ZM1.3821877 4.04186819C1.40735042 4.07451278 1.4032177 4.12095436 1.37371471 4.14856653L1.36884608 4.15276512.847 4.56654399 1.442 5.14254399 2.05124983 4.66031406C2.08510527 4.6334301 2.13402255 4.63949285 2.16050962 4.67385558 2.18567234 4.70650018 2.18153962 4.75294176 2.15203663 4.78055393L2.147168 4.78475251 1.557 5.25354399 1.63171348 5.32641938C1.66844802 5.36199386 1.67315 5.42507876 1.64221565 5.46732345 1.61282803 5.5074559 1.56185069 5.51434259 1.52533115 5.48443027L1.51969031 5.47940094 1.408 5.37154399.904116623 5.77183557C.87026118 5.79871952.821343906 5.79265677.794856834 5.75829404.769694116 5.72564945.773826833 5.67920787.803329823 5.65159569L.80819845 5.64739711 1.294 5.26054399.699 4.68354399.125794703 5.13984817C.0919392594 5.16673212.0430219857 5.16066937.0165349137 5.12630664-.00862780461 5.09366205-.00449508674 5.04722047.0250079025 5.0196083L.0298765303 5.01540971 1.27292791 4.02832666C1.30678335 4.00144271 1.35570063 4.00750546 1.3821877 4.04186819Z" transform="translate(4.957 5.923)"/><path fill="#FDFDFB" fill-rule="nonzero" d="M1.68433637,13.5604816 L2.53736794,12.8723286 C2.58784469,12.8316083 2.59624115,12.7570653 2.55612197,12.7058322 C2.51600279,12.6545992 2.44256027,12.6460769 2.39208352,12.6867972 L1.53905195,13.3749501 C1.4885752,13.4156705 1.48017874,13.4902134 1.52029792,13.5414465 C1.5604171,13.5926796 1.63385962,13.6012019 1.68433637,13.5604816 Z M3.26853785,12.2824833 L4.12156943,11.5943303 C4.17204617,11.55361 4.18044264,11.479067 4.14032346,11.4278339 C4.10020428,11.3766008 4.02676176,11.3680786 3.97628501,11.4087989 L3.12325344,12.0969518 C3.07277669,12.1376721 3.06438023,12.2122151 3.10449941,12.2634482 C3.14461859,12.3146813 3.21806111,12.3232036 3.26853785,12.2824833 Z M4.85273934,11.0044849 L5.70577091,10.316332 C5.75624766,10.2756117 5.76464413,10.2010687 5.72452495,10.1498356 C5.68440577,10.0986025 5.61096325,10.0900802 5.5604865,10.1308006 L4.70745493,10.8189535 C4.65697818,10.8596738 4.64858172,10.9342168 4.6887009,10.9854499 C4.72882008,11.036683 4.80226259,11.0452053 4.85273934,11.0044849 Z M6.43694083,9.72648661 L7.2899724,9.03833367 C7.34044915,8.99761334 7.34884562,8.92307037 7.30872644,8.87183728 C7.26860725,8.82060419 7.19516474,8.81208191 7.14468799,8.85280224 L6.29165642,9.54095518 C6.24117967,9.58167551 6.2327832,9.65621848 6.27290239,9.70745157 C6.31302157,9.75868466 6.38646408,9.76720694 6.43694083,9.72648661 Z M8.02114232,8.44848829 L8.87417389,7.76033535 C8.92465064,7.71961502 8.93304711,7.64507205 8.89292793,7.59383896 C8.85280874,7.54260587 8.77936623,7.53408359 8.72888948,7.57480392 L7.87585791,8.26295686 C7.82538116,8.30367718 7.81698469,8.37822016 7.85710388,8.42945325 C7.89722306,8.48068634 7.97066557,8.48920861 8.02114232,8.44848829 Z M9.60534381,7.17048997 L10.4583754,6.48233702 C10.5088521,6.4416167 10.5172486,6.36707373 10.4771294,6.31584064 C10.4370102,6.26460755 10.3635677,6.25608527 10.313091,6.29680559 L9.4600594,6.98495854 C9.40958265,7.02567886 9.40118618,7.10022183 9.44130537,7.15145492 C9.48142455,7.20268801 9.55486706,7.21121029 9.60534381,7.17048997 Z M11.1895453,5.89249165 L12.0425769,5.2043387 C12.0930536,5.16361838 12.1014501,5.08907541 12.0613309,5.03784232 C12.0212117,4.98660923 11.9477692,4.97808695 11.8972925,5.01880727 L11.0442609,5.70696022 C10.9937841,5.74768054 10.9853877,5.82222351 11.0255069,5.8734566 C11.065626,5.92468969 11.1390686,5.93321197 11.1895453,5.89249165 Z M12.7737468,4.61449332 L13.6267784,3.92634038 C13.6772551,3.88562006 13.6856516,3.81107708 13.6455324,3.75984399 C13.6054132,3.7086109 13.5319707,3.70008863 13.4814939,3.74080895 L12.6284624,4.42896189 C12.5779856,4.46968222 12.5695892,4.54422519 12.6097083,4.59545828 C12.6498275,4.64669137 12.72327,4.65521365 12.7737468,4.61449332 Z M14.3579483,3.336495 L15.2109798,2.64834206 C15.2614566,2.60762173 15.2698531,2.53307876 15.2297339,2.48184567 C15.1896147,2.43061258 15.1161722,2.4220903 15.0656954,2.46281063 L14.2126639,3.15096357 C14.1621871,3.1916839 14.1537907,3.26622687 14.1939098,3.31745996 C14.234029,3.36869305 14.3074715,3.37721533 14.3579483,3.336495 Z M15.9421498,2.05849668 L16.6670333,1.4737226 C16.7175101,1.43300227 16.7259065,1.3584593 16.6857874,1.30722621 C16.6456682,1.25599312 16.5722257,1.24747084 16.5217489,1.28819117 L15.7968654,1.87296525 C15.7463886,1.91368558 15.7379921,1.98822855 15.7781113,2.03946164 C15.8182305,2.09069473 15.891673,2.09921701 15.9421498,2.05849668 Z M18.3012786,26.713905 L19.1560176,26.0279381 C19.2065954,25.9873471 19.2151771,25.9128259 19.1751853,25.8614902 C19.1351936,25.8101546 19.0617725,25.8014443 19.0111947,25.8420353 L18.1564557,26.5280022 C18.1058779,26.5685931 18.0972962,26.6431144 18.137288,26.69445 C18.1772797,26.7457857 18.2507008,26.7544959 18.3012786,26.713905 Z M19.888651,25.4399665 L20.74339,24.7539996 C20.7939678,24.7134086 20.8025495,24.6388874 20.7625577,24.5875518 C20.722566,24.5362161 20.6491449,24.5275058 20.5985671,24.5680968 L19.7438281,25.2540637 C19.6932503,25.2946547 19.6846687,25.3691759 19.7246604,25.4205115 C19.7646521,25.4718472 19.8380732,25.4805574 19.888651,25.4399665 Z M21.4760234,24.166028 L22.3307624,23.4800611 C22.3813402,23.4394701 22.3899219,23.3649489 22.3499301,23.3136133 C22.3099384,23.2622776 22.2365173,23.2535674 22.1859395,23.2941583 L21.3312005,23.9801252 C21.2806227,24.0207162 21.2720411,24.0952374 21.3120328,24.146573 C21.3520245,24.1979087 21.4254456,24.206619 21.4760234,24.166028 Z M23.0633958,22.8920895 L23.9181348,22.2061226 C23.9687126,22.1655317 23.9772943,22.0910104 23.9373025,22.0396748 C23.8973108,21.9883391 23.8238897,21.9796289 23.7733119,22.0202198 L22.9185729,22.7061867 C22.8679952,22.7467777 22.8594135,22.8212989 22.8994052,22.8726346 C22.9393969,22.9239702 23.012818,22.9326805 23.0633958,22.8920895 Z M24.6507682,21.618151 L25.5055072,20.9321841 C25.556085,20.8915932 25.5646667,20.8170719 25.524675,20.7657363 C25.4846832,20.7144007 25.4112621,20.7056904 25.3606843,20.7462814 L24.5059453,21.4322482 C24.4553676,21.4728392 24.4467859,21.5473604 24.4867776,21.5986961 C24.5267693,21.6500317 24.6001904,21.658742 24.6507682,21.618151 Z M26.2381406,20.3442125 L27.0928796,19.6582457 C27.1434574,19.6176547 27.1520391,19.5431334 27.1120474,19.4917978 C27.0720556,19.4404622 26.9986345,19.4317519 26.9480567,19.4723429 L26.0933178,20.1583097 C26.04274,20.1989007 26.0341583,20.273422 26.07415,20.3247576 C26.1141418,20.3760932 26.1875629,20.3848035 26.2381406,20.3442125 Z M27.825513,19.070274 L28.680252,18.3843072 C28.7308298,18.3437162 28.7394115,18.269195 28.6994198,18.2178593 C28.659428,18.1665237 28.5860069,18.1578134 28.5354292,18.1984044 L27.6806902,18.8843713 C27.6301124,18.9249622 27.6215307,18.9994835 27.6615224,19.0508191 C27.7015142,19.1021547 27.7749353,19.110865 27.825513,19.070274 Z M29.4128855,17.7963356 L30.2676244,17.1103687 C30.3182022,17.0697777 30.3267839,16.9952565 30.2867922,16.9439208 C30.2468004,16.8925852 30.1733793,16.8838749 30.1228016,16.9244659 L29.2680626,17.6104328 C29.2174848,17.6510237 29.2089031,17.725545 29.2488948,17.7768806 C29.2888866,17.8282163 29.3623077,17.8369265 29.4128855,17.7963356 Z M31.0002579,16.5223971 L31.8549969,15.8364302 C31.9055746,15.7958392 31.9141563,15.721318 31.8741646,15.6699824 C31.8341729,15.6186467 31.7607518,15.6099364 31.710174,15.6505274 L30.855435,16.3364943 C30.8048572,16.3770853 30.7962755,16.4516065 30.8362672,16.5029421 C30.876259,16.5542778 30.9496801,16.562988 31.0002579,16.5223971 Z M32.5876303,15.2484586 L33.3618078,14.627146 C33.4123855,14.586555 33.4209672,14.5120338 33.3809755,14.4606981 C33.3409838,14.4093625 33.2675627,14.4006522 33.2169849,14.4412432 L32.4428074,15.0625558 C32.3922296,15.1031468 32.3836479,15.177668 32.4236397,15.2290036 C32.4636314,15.2803393 32.5370525,15.2890496 32.5876303,15.2484586 Z M18.1183898,1.47458414 L18.9793437,2.15249693 C19.0302892,2.19261131 19.1036278,2.1832121 19.14315,2.13150319 C19.1826722,2.07979429 19.1734117,2.00535681 19.1224662,1.96524243 L18.2615123,1.28732963 C18.2105668,1.24721525 18.1372282,1.25661446 18.097706,1.30832337 C18.0581838,1.36003227 18.0674443,1.43446975 18.1183898,1.47458414 Z M19.7173042,2.73356504 L20.5782581,3.41147784 C20.6292036,3.45159222 20.7025422,3.442193 20.7420644,3.3904841 C20.7815866,3.3387752 20.7723261,3.26433771 20.7213806,3.22422333 L19.8604267,2.54631054 C19.8094811,2.50619615 19.7361425,2.51559537 19.6966204,2.56730428 C19.6570982,2.61901318 19.6663586,2.69345066 19.7173042,2.73356504 Z M21.3162185,3.99254595 L22.1771724,4.67045875 C22.228118,4.71057313 22.3014566,4.70117391 22.3409787,4.64946501 C22.3805009,4.5977561 22.3712405,4.52331862 22.3202949,4.48320424 L21.459341,3.80529144 C21.4083955,3.76517706 21.3350569,3.77457628 21.2955347,3.82628518 C21.2560125,3.87799409 21.265273,3.95243157 21.3162185,3.99254595 Z M22.9151329,5.25152686 L23.7760868,5.92943965 C23.8270323,5.96955404 23.9003709,5.96015482 23.9398931,5.90844591 C23.9794153,5.85673701 23.9701548,5.78229953 23.9192093,5.74218515 L23.0582554,5.06427235 C23.0073099,5.02415797 22.9339713,5.03355719 22.8944491,5.08526609 C22.8549269,5.13697499 22.8641874,5.21141248 22.9151329,5.25152686 Z M24.5140473,6.51050776 L25.3750012,7.18842056 C25.4259467,7.22853494 25.4992853,7.21913572 25.5388075,7.16742682 C25.5783297,7.11571792 25.5690692,7.04128043 25.5181237,7.00116605 L24.6571698,6.32325326 C24.6062242,6.28313887 24.5328856,6.29253809 24.4933635,6.344247 C24.4538413,6.3959559 24.4631017,6.47039338 24.5140473,6.51050776 Z M26.1129616,7.76948867 L26.9739155,8.44740147 C27.0248611,8.48751585 27.0981997,8.47811663 27.1377218,8.42640773 C27.177244,8.37469882 27.1679836,8.30026134 27.117038,8.26014696 L26.2560841,7.58223416 C26.2051386,7.54211978 26.1318,7.551519 26.0922778,7.6032279 C26.0527556,7.65493681 26.0620161,7.72937429 26.1129616,7.76948867 Z M27.711876,9.02846958 L28.5728299,9.70638237 C28.6237754,9.74649676 28.697114,9.73709754 28.7366362,9.68538863 C28.7761584,9.63367973 28.7668979,9.55924225 28.7159524,9.51912787 L27.8549985,8.84121507 C27.804053,8.80110069 27.7307144,8.81049991 27.6911922,8.86220881 C27.65167,8.91391771 27.6609305,8.9883552 27.711876,9.02846958 Z M29.3107904,10.2874505 L30.1717443,10.9653633 C30.2226898,11.0054777 30.2960284,10.9960784 30.3355506,10.9443695 C30.3750728,10.8926606 30.3658123,10.8182232 30.3148668,10.7781088 L29.4539129,10.100196 C29.4029673,10.0600816 29.3296287,10.0694808 29.2901066,10.1211897 C29.2505844,10.1728986 29.2598448,10.2473361 29.3107904,10.2874505 Z M30.9097047,11.5464314 L31.7706586,12.2243442 C31.8216042,12.2644586 31.8949428,12.2550594 31.9344649,12.2033504 C31.9739871,12.1516415 31.9647267,12.0772041 31.9137811,12.0370897 L31.0528272,11.3591769 C31.0018817,11.3190625 30.9285431,11.3284617 30.8890209,11.3801706 C30.8494987,11.4318795 30.8587592,11.506317 30.9097047,11.5464314 Z M32.5086191,12.8054123 L33.2178351,13.3638471 C33.2687806,13.4039614 33.3421192,13.3945622 33.3816414,13.3428533 C33.4211636,13.2911444 33.4119031,13.2167069 33.3609576,13.1765925 L32.6517416,12.6181578 C32.6007961,12.5780434 32.5274575,12.5874426 32.4879353,12.6391515 C32.4484131,12.6908604 32.4576736,12.7652979 32.5086191,12.8054123 Z M1.61743878,14.7459026 L2.47455922,15.4288014 C2.52527792,15.4692108 2.59866826,15.4602374 2.63848112,15.4087587 C2.67829399,15.3572801 2.66945306,15.2827901 2.61873436,15.2423806 L1.76161392,14.5594819 C1.71089522,14.5190724 1.63750489,14.5280458 1.59769202,14.5795245 C1.55787915,14.6310032 1.56672008,14.7054932 1.61743878,14.7459026 Z M3.17862244,15.989754 L4.03574288,16.6726528 C4.08646158,16.7130622 4.15985192,16.7040888 4.19966478,16.6526101 C4.23947765,16.6011315 4.23063672,16.5266414 4.17991802,16.486232 L3.32279758,15.8033332 C3.27207888,15.7629238 3.19868854,15.7718972 3.15887568,15.8233759 C3.11906281,15.8748545 3.12790374,15.9493446 3.17862244,15.989754 Z M4.7398061,17.2336053 L5.59692654,17.9165041 C5.64764524,17.9569136 5.72103558,17.9479402 5.76084844,17.8964615 C5.80066131,17.8449828 5.79182038,17.7704928 5.74110168,17.7300834 L4.88398124,17.0471846 C4.83326254,17.0067752 4.7598722,17.0157486 4.72005934,17.0672272 C4.68024647,17.1187059 4.6890874,17.1931959 4.7398061,17.2336053 Z M6.30098976,18.4774567 L7.1581102,19.1603555 C7.2088289,19.2007649 7.28221923,19.1917915 7.3220321,19.1403129 C7.36184497,19.0888342 7.35300404,19.0143442 7.30228534,18.9739348 L6.4451649,18.291036 C6.3944462,18.2506266 6.32105586,18.2596 6.28124299,18.3110786 C6.24143013,18.3625573 6.25027105,18.4370473 6.30098976,18.4774567 Z M7.86217341,19.7213081 L8.71929385,20.4042069 C8.77001256,20.4446163 8.84340289,20.4356429 8.88321576,20.3841642 C8.92302863,20.3326856 8.9141877,20.2581956 8.863469,20.2177861 L8.00634856,19.5348873 C7.95562986,19.4944779 7.88223952,19.5034513 7.84242665,19.55493 C7.80261379,19.6064087 7.81145471,19.6808987 7.86217341,19.7213081 Z M9.42335707,20.9651595 L10.2804775,21.6480583 C10.3311962,21.6884677 10.4045866,21.6794943 10.4443994,21.6280156 C10.4842123,21.5765369 10.4753714,21.5020469 10.4246527,21.4616375 L9.56753222,20.7787387 C9.51681352,20.7383293 9.44342318,20.7473027 9.40361031,20.7987814 C9.36379745,20.85026 9.37263837,20.92475 9.42335707,20.9651595 Z M10.9845407,22.2090108 L11.8416612,22.8919096 C11.8923799,22.9323191 11.9657702,22.9233457 12.0055831,22.871867 C12.0453959,22.8203883 12.036555,22.7458983 11.9858363,22.7054889 L11.1287159,22.0225901 C11.0779972,21.9821807 11.0046068,21.9911541 10.964794,22.0426327 C10.9249811,22.0941114 10.933822,22.1686014 10.9845407,22.2090108 Z M12.5457244,23.4528622 L13.4028448,24.135761 C13.4535635,24.1761704 13.5269539,24.167197 13.5667667,24.1157184 C13.6065796,24.0642397 13.5977387,23.9897497 13.54702,23.9493403 L12.6898995,23.2664415 C12.6391808,23.226032 12.5657905,23.2350054 12.5259776,23.2864841 C12.4861648,23.3379628 12.4950057,23.4124528 12.5457244,23.4528622 Z M14.106908,24.6967136 L14.9640285,25.3796124 C15.0147472,25.4200218 15.0881375,25.4110484 15.1279504,25.3595697 C15.1677633,25.3080911 15.1589223,25.2336011 15.1082036,25.1931916 L14.2510832,24.5102928 C14.2003645,24.4698834 14.1269742,24.4788568 14.0871613,24.5303355 C14.0473484,24.5818142 14.0561893,24.6563042 14.106908,24.6967136 Z M15.6680917,25.940565 L16.5252121,26.6234638 C16.5759309,26.6638732 16.6493212,26.6548998 16.6891341,26.6034211 C16.7289469,26.5519424 16.720106,26.4774524 16.6693873,26.437043 L15.8122669,25.7541442 C15.7615482,25.7137348 15.6881578,25.7227082 15.6483449,25.7741869 C15.6085321,25.8256655 15.617373,25.9001555 15.6680917,25.940565 Z M0.0256190131,13.3054686 C0.0643700213,13.2563476 0.133789745,13.2468278 0.183817067,13.2825325 L0.189724058,13.2870345 L0.9824714,13.9313061 C1.03882772,13.9771073 1.04077104,14.0627026 0.988301365,14.1112482 L0.9824714,14.1163043 L0.189724058,14.7605759 C0.139392393,14.8014808 0.0659200616,14.7932275 0.0256190131,14.7421417 C-0.0131319951,14.6930207 -0.00710446211,14.6221843 0.0381611855,14.5804437 L0.0437810515,14.5755777 L0.722715086,14.0238036 L0.0437810515,13.4720326 C-0.00461478053,13.432701 -0.013994115,13.3622411 0.0211834745,13.3114641 L0.0256190131,13.3054686 Z M34.974381,13.186971 C34.93563,13.13785 34.8662103,13.1283301 34.8161829,13.1640348 L34.8102759,13.1685368 L34.0175286,13.8128085 C33.9611723,13.8586097 33.959229,13.944205 34.0116986,13.9927506 L34.0175286,13.9978066 L34.8102759,14.6420783 C34.8606076,14.6829832 34.9340799,14.6747299 34.974381,14.6236441 C35.013132,14.5745231 35.0071045,14.5036867 34.9618388,14.4619461 L34.9562189,14.4570801 L34.2772849,13.9053059 L34.9562189,13.353535 C35.0046148,13.3142033 35.0139941,13.2437434 34.9788165,13.1929665 L34.974381,13.186971 Z M16.4960446,0.0458956373 C16.4580561,0.0956264211 16.4651756,0.166358369 16.5110795,0.207374526 L16.5167738,0.212150583 L17.3311739,0.853040337 C17.3715245,0.88479412 17.4272127,0.886088576 17.468791,0.857084593 L17.4752344,0.852253252 L18.2717758,0.211363498 C18.322304,0.170708974 18.3307947,0.0961770032 18.2907404,0.0448916829 C18.2522266,-0.00442112511 18.1828536,-0.0142855626 18.1326548,0.0211703067 L18.1267261,0.0256429243 L17.4018868,0.608799111 L16.6598452,0.0248558397 C16.6108485,-0.0137019063 16.5411608,-0.00647572654 16.5007501,0.0401160767 L16.4960446,0.0458956373 Z M18.3693472,27.9284546 C18.4073357,27.8787239 18.4002162,27.8079919 18.3543122,27.7669757 L18.348618,27.7621997 L17.5342179,27.1213099 C17.4938673,27.0895562 17.4381791,27.0882617 17.3966008,27.1172657 L17.3901574,27.122097 L16.593616,27.7629868 C16.5430878,27.8036413 16.534597,27.8781733 16.5746514,27.9294586 C16.6131652,27.9787714 16.6825382,27.9886358 16.732737,27.95318 L16.7386656,27.9487073 L17.463505,27.3655512 L18.2055466,27.9494944 C18.2545432,27.9880522 18.324231,27.980826 18.3646416,27.9342342 L18.3693472,27.9284546 Z"/></g></g></svg>